<?xml version="1.0" standalone="no"?>
<!DOCTYPE svg PUBLIC "-//W3C//DTD SVG 20010904//EN"
 "http://www.w3.org/TR/2001/REC-SVG-20010904/DTD/svg10.dtd">
<svg version="1.0" xmlns="http://www.w3.org/2000/svg"
 width="3506.000000pt" height="3950.000000pt" viewBox="0 0 3506.000000 3950.000000"
 preserveAspectRatio="xMidYMid meet">
<metadata>
Created by potrace 1.15, written by Peter Selinger 2001-2017
</metadata>
<g transform="translate(0.000000,3950.000000) scale(0.100000,-0.100000)"
fill="#ffffff" stroke="000000" stroke-width="0.01">
<path fill="#ffffff" stroke="000000" stroke-width="0.01" d="M0 38090 l0 -1410 24 -52 c13 -29 35
-80 49 -113 57 -137 71 -165 84 -165 7 0 16 -12 19 -27 8 -30 11 -34 66 -94
21 -22 38 -44 38 -49 0 -5 18 -27 40 -50 22 -23 40 -46 40 -50 0 -5 11 -20 24
-33 13 -13 34 -43 46 -67 12 -23 36 -57 53 -75 18 -17 39 -42 47 -55 23 -35
87 -100 99 -100 5 0 13 -9 16 -20 3 -11 13 -20 21 -20 23 0 45 -26 38 -44 -4
-11 -1 -16 10 -16 9 0 16 -7 16 -15 0 -9 7 -30 17 -48 9 -18 17 -46 19 -62 3
-49 24 -115 35 -115 17 0 69 -60 69 -80 0 -9 9 -27 20 -40 29 -34 13 -91 -42
-142 -30 -28 -35 -38 -17 -38 22 0 69 -71 69 -105 0 -8 7 -15 15 -15 8 0 15
-4 15 -10 0 -5 9 -10 21 -10 15 0 19 -5 15 -18 -4 -11 1 -28 11 -40 41 -49 53
-67 53 -80 0 -7 7 -20 15 -28 8 -8 19 -33 25 -54 8 -28 16 -40 29 -40 21 0 49
-66 58 -135 3 -22 8 -42 12 -45 4 -3 15 -29 24 -58 16 -51 16 -55 -3 -92 -25
-49 -25 -58 1 -81 15 -13 20 -25 15 -43 -4 -15 -1 -30 7 -38 8 -7 17 -25 20
-41 4 -15 27 -47 51 -71 53 -52 66 -75 66 -115 0 -49 -9 -61 -45 -61 -23 0
-35 5 -39 18 -3 9 -10 36 -16 60 -7 27 -16 42 -27 42 -12 0 -14 7 -10 30 4 19
1 34 -8 44 -8 8 -15 30 -15 50 0 19 -6 41 -13 48 -8 7 -19 23 -25 34 -13 25
-18 112 -8 137 6 13 3 17 -13 17 -12 0 -21 5 -21 10 0 6 -7 10 -15 10 -8 0
-15 5 -15 10 0 6 -11 10 -25 10 -14 0 -25 -4 -25 -10 0 -5 -16 -10 -35 -10
-19 0 -35 -4 -35 -10 0 -5 -9 -10 -20 -10 -11 0 -20 -4 -20 -10 0 -5 -13 -10
-28 -10 -21 0 -32 7 -41 26 -6 14 -9 30 -5 35 3 5 -1 16 -10 24 -16 17 -56 20
-56 5 0 -15 -87 -12 -94 3 -5 10 -7 10 -12 0 -3 -7 -12 -13 -20 -13 -8 0 -14
-4 -14 -10 0 -5 -5 -10 -11 -10 -16 0 -39 -26 -39 -44 0 -9 8 -16 20 -16 11 0
20 -4 20 -10 0 -5 -6 -10 -14 -10 -21 0 -30 -37 -16 -71 10 -23 19 -29 41 -29
16 0 29 -4 29 -10 0 -5 -9 -10 -20 -10 -11 0 -20 -4 -20 -10 0 -5 4 -10 9 -10
5 0 13 -9 16 -20 3 -11 13 -20 21 -20 8 0 14 -4 14 -10 0 -5 6 -10 13 -10 14
0 37 -40 37 -64 0 -17 -54 -76 -69 -76 -14 0 -14 -89 -1 -110 6 -10 10 -11 10
-2 0 6 7 12 16 12 9 0 14 6 11 13 -19 47 -19 47 2 47 12 0 21 5 21 10 0 21 43
9 70 -20 15 -16 33 -30 39 -30 6 0 11 -9 11 -20 0 -16 -7 -20 -30 -20 -27 0
-30 -3 -30 -34 0 -50 9 -66 36 -66 16 0 24 -6 24 -17 1 -21 29 -74 30 -55 0 8
16 12 45 12 25 0 45 5 45 10 0 6 9 10 20 10 11 0 20 5 20 10 0 6 7 10 15 10 8
0 15 5 15 10 0 6 5 10 10 10 6 0 10 -16 10 -35 0 -35 -35 -85 -60 -85 -5 0
-10 -4 -10 -10 0 -5 -7 -10 -15 -10 -8 0 -15 5 -15 10 0 6 -6 10 -14 10 -16 0
-29 -27 -20 -41 6 -11 -19 -39 -35 -39 -6 0 -11 -4 -11 -10 0 -5 -11 -10 -25
-10 -14 0 -25 -4 -25 -10 0 -5 -9 -10 -20 -10 -11 0 -20 -4 -20 -10 0 -5 -7
-10 -15 -10 -8 0 -15 -4 -15 -8 0 -13 36 -52 48 -52 11 0 22 -23 22 -46 0 -23
-38 -16 -45 9 -17 61 -28 77 -51 77 -13 0 -24 -4 -24 -10 0 -5 -20 -10 -45
-10 -25 0 -45 -4 -45 -10 0 -5 -7 -10 -15 -10 -8 0 -15 -4 -15 -10 0 -5 -7
-10 -15 -10 -8 0 -15 -4 -15 -10 0 -5 -9 -10 -20 -10 -11 0 -20 -4 -20 -10 0
-5 -7 -10 -15 -10 -8 0 -15 -4 -15 -10 0 -5 -22 -10 -48 -10 -36 0 -51 -5 -62
-20 -8 -11 -25 -20 -37 -20 -13 0 -23 -4 -23 -10 0 -5 -13 -10 -30 -10 -16 0
-30 -4 -30 -10 0 -5 -11 -10 -25 -10 -14 0 -25 -4 -25 -10 0 -5 -9 -10 -20
-10 -11 0 -20 -4 -20 -10 0 -5 -16 -10 -35 -10 -19 0 -35 -4 -35 -10 0 -5 -22
-10 -50 -10 l-50 0 0 -13804 c0 -7592 3 -13811 6 -13820 3 -9 14 -16 23 -16 9
0 23 -10 31 -21 8 -12 29 -37 47 -55 41 -41 103 -164 103 -203 0 -33 19 -81
31 -81 4 0 10 -8 14 -19 10 -32 41 -61 65 -61 22 0 23 -2 16 -65 -7 -70 -42
-155 -63 -155 -9 0 -13 -15 -13 -49 0 -29 -6 -55 -14 -63 -8 -8 -26 -39 -41
-68 -29 -57 -47 -80 -64 -80 -6 0 -11 -4 -11 -10 0 -5 -7 -10 -15 -10 -8 0
-15 -4 -15 -10 0 -5 -9 -10 -21 -10 -12 0 -34 -14 -50 -31 l-29 -31 0 -854 c0
-851 0 -855 21 -896 23 -44 42 -68 56 -68 5 0 15 -9 23 -21 27 -39 47 -59 58
-59 15 0 22 -26 22 -88 0 -53 17 -119 42 -165 13 -25 74 -87 85 -87 5 0 15 -9
23 -20 8 -11 21 -20 30 -20 9 0 22 -9 30 -20 8 -11 19 -20 25 -20 6 0 17 -9
25 -20 8 -11 21 -20 28 -20 14 0 72 -56 72 -69 0 -4 9 -51 21 -106 11 -54 19
-112 16 -129 -2 -17 -1 -40 3 -51 4 -11 15 -38 24 -60 8 -22 20 -59 26 -82 8
-31 29 -61 78 -112 72 -74 102 -110 102 -123 0 -4 7 -8 15 -8 8 0 15 -4 15 -9
0 -13 56 -71 69 -71 6 0 11 -4 11 -10 0 -5 7 -10 15 -10 8 0 15 -4 15 -10 0
-5 7 -10 15 -10 8 0 15 -4 15 -10 0 -5 7 -10 15 -10 8 0 15 -4 15 -10 0 -5 7
-10 15 -10 8 0 15 -4 15 -10 0 -5 5 -10 11 -10 13 0 89 -78 89 -91 0 -5 7 -9
15 -9 8 0 15 -4 15 -10 0 -5 9 -10 20 -10 11 0 20 -4 20 -10 0 -5 6 -10 13
-10 7 0 19 -9 27 -20 8 -11 20 -20 27 -20 7 0 13 -4 13 -10 0 -5 9 -10 20 -10
11 0 20 -4 20 -9 0 -5 13 -24 30 -42 16 -19 45 -51 62 -72 18 -20 50 -56 70
-78 50 -54 63 -103 48 -188 -7 -38 -9 -95 -4 -138 5 -62 9 -73 25 -73 11 0 19
-4 19 -10 0 -5 9 -10 20 -10 11 0 20 -4 20 -10 0 -5 -4 -10 -8 -10 -5 0 -19
-22 -31 -48 -20 -42 -21 -54 -12 -88 17 -61 13 -92 -14 -120 -23 -23 -25 -31
-25 -129 l0 -105 2340 0 c2112 0 2340 2 2328 15 -7 9 -23 26 -34 39 -39 42
-47 69 -51 181 -7 172 -7 176 10 240 9 33 18 72 22 88 3 17 12 27 23 27 10 0
24 9 32 20 8 11 19 20 25 20 6 0 17 9 25 20 8 11 20 20 27 20 7 0 13 5 13 10
0 6 7 10 15 10 9 0 15 9 15 23 0 41 21 97 36 97 17 0 56 36 73 68 6 12 11 71
11 142 l0 122 39 37 c21 20 46 51 54 68 27 51 64 174 77 251 6 39 15 72 19 72
19 0 51 97 50 150 -1 30 5 73 14 95 38 100 39 107 66 324 6 47 15 87 19 90 5
3 17 22 27 41 10 19 21 37 25 40 15 9 28 112 19 143 -5 19 -4 77 3 148 l11
117 -26 26 c-19 19 -36 26 -64 26 -28 0 -43 6 -53 21 -8 12 -20 27 -26 33 -21
22 -34 55 -34 86 0 32 -22 84 -46 107 -7 7 -28 13 -47 13 -30 0 -36 5 -52 40
-28 63 -48 80 -89 80 -20 0 -36 5 -36 10 0 6 -7 10 -15 10 -8 0 -15 5 -15 10
0 6 -7 10 -15 10 -8 0 -15 5 -15 10 0 6 -5 10 -11 10 -6 0 -24 14 -39 30 -15
17 -33 30 -39 30 -6 0 -11 5 -11 10 0 6 -8 10 -18 10 -10 0 -24 10 -32 22 -8
12 -27 35 -42 51 -16 17 -28 34 -28 38 0 5 -7 9 -15 9 -8 0 -15 5 -15 10 0 6
-13 10 -30 10 -16 0 -30 5 -30 10 0 6 -6 10 -13 10 -7 0 -19 9 -27 20 -8 11
-18 20 -23 20 -5 0 -22 14 -37 30 -15 17 -33 30 -39 30 -20 0 -60 42 -74 79
-15 36 -49 81 -61 81 -12 0 -54 46 -71 80 -9 18 -31 48 -48 66 -64 67 -75 82
-93 115 -10 19 -21 54 -25 79 -14 84 -32 140 -46 140 -7 0 -13 5 -13 10 0 6
-7 10 -15 10 -8 0 -15 5 -15 10 0 6 -5 10 -11 10 -20 0 -69 61 -79 101 -6 23
-17 39 -25 39 -8 0 -15 5 -15 10 0 6 -6 10 -13 10 -13 0 -59 88 -72 138 -4 13
-14 22 -26 22 -10 0 -19 5 -19 10 0 6 -9 10 -19 10 -11 0 -23 9 -26 20 -3 11
-10 20 -14 20 -13 0 -31 49 -31 85 0 28 -10 45 -60 95 -33 34 -63 73 -66 88
-4 15 -15 44 -26 65 -15 30 -16 42 -7 59 18 33 28 78 22 94 -3 8 -15 14 -27
14 -12 0 -28 9 -36 20 -8 11 -19 20 -24 20 -10 0 -46 39 -46 52 0 4 -7 8 -15
8 -8 0 -15 5 -15 10 0 6 -9 10 -20 10 -11 0 -20 5 -20 10 0 6 -11 10 -25 10
-14 0 -25 5 -25 10 0 6 -7 10 -16 10 -20 0 -37 17 -58 59 -17 31 -16 33 2 49
42 37 59 101 34 130 -9 11 -24 30 -32 42 -8 12 -27 35 -41 51 -18 19 -29 45
-33 79 -6 42 -14 58 -51 95 -25 24 -45 49 -45 54 0 6 -6 30 -14 53 -8 24 -20
76 -26 116 -6 39 -16 72 -22 72 -14 0 -33 21 -53 59 -17 34 -58 81 -70 81 -17
0 -33 31 -48 92 -21 85 -21 131 0 171 23 44 28 244 7 306 -16 48 -18 233 -2
263 6 13 -1 37 -25 85 -46 92 -52 136 -26 204 43 112 43 127 2 167 -7 7 -13
32 -13 55 -1 56 -15 128 -28 136 -14 9 -92 168 -92 188 0 10 7 36 15 58 19 54
18 68 -5 95 -43 50 -3 200 54 200 9 0 16 5 16 10 0 6 6 10 14 10 7 0 19 13 26
30 7 16 21 39 31 51 10 12 19 30 19 41 0 10 5 18 10 18 6 0 10 7 10 15 0 9 9
33 20 55 11 22 20 50 20 64 0 14 12 37 26 51 18 18 30 47 40 93 7 37 21 84 30
104 15 34 15 41 0 87 -9 27 -16 62 -16 76 0 14 -7 40 -16 56 -8 17 -24 57 -34
88 -20 62 -97 222 -111 232 -26 16 -50 161 -53 309 -1 71 -6 104 -20 130 -13
24 -21 68 -27 152 -6 85 -13 123 -24 134 -8 8 -18 27 -21 42 -4 15 -14 41 -23
57 -12 22 -16 59 -17 135 -1 108 -22 223 -65 342 -11 33 -24 86 -29 119 -12
82 -49 199 -64 199 -6 0 -18 9 -26 21 -8 11 -23 30 -32 41 -10 11 -20 29 -23
39 -4 11 -10 19 -15 19 -5 0 -11 9 -15 19 -3 11 -18 33 -33 49 -15 17 -34 40
-42 52 -8 13 -28 37 -45 54 -29 30 -45 63 -66 134 -6 17 -13 32 -18 32 -4 0
-18 24 -30 53 -13 28 -32 72 -43 97 -11 25 -29 71 -39 102 -19 60 -37 100 -49
108 -4 3 -20 30 -35 60 -15 30 -40 66 -55 80 -36 34 -56 75 -64 133 -6 39 -5
47 8 47 9 0 16 5 16 10 0 6 7 10 15 10 8 0 15 5 15 10 0 6 8 10 18 10 20 0 52
57 52 91 0 11 7 33 15 50 18 33 12 91 -12 114 -12 12 -11 20 7 54 11 22 20 59
20 81 0 23 7 54 15 70 12 23 13 34 3 55 -9 20 -18 25 -50 25 -21 0 -38 -4 -38
-10 0 -14 -27 -12 -34 3 -5 10 -7 10 -12 0 -14 -31 -94 3 -94 39 0 13 -108 10
-114 -4 -5 -10 -7 -10 -12 0 -10 21 -82 92 -93 92 -6 0 -11 5 -11 10 0 6 -5
10 -11 10 -15 0 -49 39 -49 57 0 18 -48 112 -66 131 -8 7 -14 18 -14 23 0 5
-13 9 -30 9 -16 0 -30 5 -30 10 0 6 -9 10 -20 10 -11 0 -20 5 -20 10 0 6 -9
10 -19 10 -11 0 -22 9 -26 19 -3 11 -18 34 -33 50 -48 54 -51 59 -71 103 -49
113 -51 119 -41 138 12 23 13 90 2 90 -13 0 -44 74 -44 101 1 43 15 93 29 108
10 9 13 25 9 43 -3 17 -1 28 6 28 7 0 9 14 5 40 -3 28 -1 45 9 54 8 8 14 22
14 30 0 9 7 16 15 16 8 0 15 5 15 10 0 6 9 10 20 10 11 0 20 5 20 10 0 6 7 10
15 10 8 0 15 5 15 10 0 6 16 10 36 10 43 0 74 29 74 69 0 14 5 33 10 41 8 13
11 13 19 1 6 -10 11 -1 15 28 3 22 9 59 12 80 6 43 33 81 56 81 9 0 21 14 28
30 8 18 20 30 31 30 11 0 19 5 19 10 0 6 7 10 15 10 8 0 15 9 15 19 0 23 52
81 73 81 9 0 19 9 22 20 5 16 15 20 51 20 24 0 44 5 44 10 0 6 9 10 20 10 11
0 20 -4 20 -10 0 -6 33 -10 80 -10 47 0 80 4 80 10 0 6 16 10 35 10 19 0 35 4
35 9 0 18 59 71 79 71 12 0 21 5 21 10 0 6 7 10 15 10 8 0 15 5 15 10 0 6 7
10 15 10 8 0 15 5 15 10 0 6 5 10 11 10 11 0 63 51 73 73 5 9 7 9 12 0 9 -20
48 -15 64 7 10 14 26 20 53 20 30 0 45 7 67 30 15 17 32 30 38 30 5 0 15 13
22 30 7 16 19 30 26 30 8 0 14 5 14 10 0 6 7 10 15 10 8 0 15 5 15 10 0 6 5
10 11 10 12 0 49 38 49 50 0 15 38 50 54 50 9 0 16 5 16 10 0 6 6 10 14 10 8
0 18 9 21 20 4 12 15 20 29 20 17 0 27 9 36 30 12 28 27 49 89 116 10 12 22
45 26 75 8 59 19 86 45 109 21 18 60 93 60 115 0 8 7 15 15 15 8 0 15 5 15 10
0 6 6 10 14 10 10 0 14 10 11 38 -3 36 30 119 60 148 6 7 18 26 25 43 7 17 16
31 20 31 4 0 13 14 20 30 7 17 16 30 20 30 4 0 13 14 20 30 7 17 16 30 21 30
4 0 11 9 14 20 3 11 12 26 20 33 7 8 28 42 45 78 18 35 36 66 40 69 4 3 21 32
38 65 17 33 31 54 32 48 0 -7 11 -13 25 -13 20 0 26 7 35 43 7 23 18 61 26 85
8 23 14 55 14 70 0 50 37 164 59 182 7 6 31 67 38 98 3 12 9 22 13 22 4 0 13
13 20 30 7 16 16 30 21 30 4 0 11 9 14 20 3 11 14 20 23 20 10 0 24 9 32 20
11 15 26 20 61 20 29 0 49 5 52 13 4 9 6 9 6 0 1 -7 8 -13 16 -13 8 0 15 -4
15 -10 0 -5 8 -10 19 -10 13 0 20 -9 24 -30 5 -21 12 -30 27 -30 11 0 20 -4
20 -10 0 -5 5 -10 11 -10 6 0 24 -13 39 -30 15 -16 32 -30 37 -30 5 0 15 -9
23 -20 8 -11 22 -20 32 -20 9 0 20 -9 23 -20 3 -11 13 -20 21 -20 8 0 14 -4
14 -10 0 -5 7 -10 15 -10 8 0 15 -4 15 -10 0 -5 7 -10 15 -10 8 0 15 -4 15
-10 0 -5 7 -10 15 -10 8 0 15 -4 15 -10 0 -5 6 -10 13 -10 7 0 19 -9 27 -20 8
-11 19 -20 25 -20 5 0 20 -13 33 -28 12 -15 31 -38 42 -51 11 -13 20 -37 20
-52 0 -49 23 -129 37 -129 8 0 13 -12 13 -30 0 -16 4 -30 8 -30 12 0 32 -46
32 -71 0 -11 12 -32 26 -46 18 -18 24 -33 21 -51 -3 -18 2 -32 19 -49 16 -16
23 -31 19 -43 -3 -10 1 -24 9 -32 28 -29 79 -144 93 -212 21 -102 73 -196 148
-272 36 -35 68 -64 73 -64 4 0 14 -9 22 -20 8 -11 20 -20 27 -20 7 0 13 -4 13
-10 0 -5 7 -10 15 -10 8 0 15 -4 15 -10 0 -5 7 -10 15 -10 8 0 15 -4 15 -10 0
-5 8 -10 18 -10 21 0 42 -38 42 -75 0 -14 4 -25 9 -25 9 0 41 -88 41 -114 0
-9 14 -45 32 -81 l32 -65 53 0 c29 0 53 -4 53 -10 0 -5 11 -10 25 -10 14 0 25
5 25 10 0 6 9 10 20 10 11 0 20 5 20 10 0 6 7 10 15 10 8 0 15 5 15 10 0 6 7
10 15 10 8 0 15 5 15 10 0 6 11 10 25 10 14 0 25 5 25 10 0 6 8 10 18 10 10 0
24 9 32 20 8 11 20 20 27 20 7 0 13 5 13 10 0 6 9 10 20 10 11 0 20 5 20 10 0
6 10 10 23 10 12 0 29 9 37 20 8 11 20 20 27 20 7 0 13 5 13 10 0 6 9 10 20
10 11 0 20 5 20 10 0 6 13 10 28 10 16 0 34 8 42 20 8 11 18 20 23 20 5 0 22
14 37 30 19 21 37 30 59 30 17 0 31 5 31 10 0 6 20 10 45 10 25 0 45 5 45 10
0 6 7 10 15 10 8 0 15 5 15 10 0 6 24 10 53 10 41 0 56 4 67 20 8 11 22 20 32
20 10 0 18 5 18 10 0 6 9 10 20 10 11 0 20 5 20 10 0 6 9 10 20 10 11 0 20 5
20 10 0 14 27 12 33 -2 3 -9 11 -6 24 10 11 12 28 22 37 22 9 0 16 5 16 10 0
6 7 10 15 10 8 0 15 5 15 10 0 6 6 10 13 10 7 0 19 9 27 20 8 11 22 20 32 20
10 0 18 5 18 10 0 6 20 10 45 10 25 0 45 -4 45 -10 0 -6 27 -10 60 -10 33 0
60 -4 60 -10 0 -5 25 -10 55 -10 30 0 55 -4 55 -10 0 -6 28 -10 65 -10 37 0
65 4 65 10 0 6 7 10 15 10 8 0 15 5 15 10 0 6 5 10 11 10 6 0 24 14 39 30 15
17 34 30 42 30 7 0 20 9 28 20 8 11 20 20 27 20 7 0 13 5 13 10 0 6 9 10 20
10 11 0 20 5 20 10 0 6 5 10 11 10 6 0 24 14 39 30 15 17 33 30 39 30 6 0 11
5 11 10 0 6 9 10 20 10 11 0 20 5 20 10 0 6 9 10 20 10 11 0 20 5 20 10 0 6 8
10 18 10 10 0 24 9 32 21 29 41 47 59 60 59 14 0 50 38 50 52 0 4 6 8 14 8 8
0 17 8 21 19 10 31 42 64 49 49 3 -7 3 -3 0 10 -3 13 -1 22 6 22 7 0 9 7 6 16
-3 8 1 28 9 44 19 37 20 161 1 243 -8 34 -25 103 -36 154 -12 51 -35 130 -52
175 -16 46 -38 110 -50 143 -27 79 -26 156 6 282 28 108 34 220 14 256 -15 28
-34 47 -47 47 -6 0 -11 5 -11 10 0 6 -7 10 -15 10 -8 0 -15 5 -15 10 0 6 -7
10 -15 10 -8 0 -15 5 -15 10 0 6 -5 10 -11 10 -6 0 -24 14 -39 30 -15 17 -33
30 -39 30 -6 0 -11 5 -11 10 0 6 -7 10 -15 10 -8 0 -15 5 -15 10 0 6 -7 10
-15 10 -8 0 -15 5 -15 10 0 6 -9 10 -20 10 -11 0 -20 5 -20 10 0 6 -10 10 -23
10 -12 0 -29 9 -37 20 -10 14 -26 20 -52 20 -21 0 -38 5 -38 10 0 6 -9 10 -20
10 -11 0 -20 5 -20 10 0 6 -13 10 -30 10 -16 0 -30 -4 -30 -10 0 -5 -7 -10
-15 -10 -8 0 -15 -4 -15 -10 0 -5 -9 -10 -20 -10 -11 0 -20 -4 -20 -10 0 -5
-16 -10 -35 -10 -19 0 -35 5 -35 10 0 6 -9 10 -20 10 -11 0 -20 5 -20 10 0 6
-7 10 -15 10 -8 0 -15 5 -15 10 0 6 -7 10 -15 10 -8 0 -15 5 -15 10 0 6 -7 10
-15 10 -8 0 -15 5 -15 10 0 6 -7 10 -15 10 -8 0 -15 5 -15 10 0 6 -7 10 -15
10 -8 0 -15 5 -15 10 0 6 -7 10 -15 10 -8 0 -15 5 -15 10 0 6 -16 10 -35 10
-19 0 -35 5 -35 10 0 6 -14 10 -31 10 -41 0 -89 50 -89 94 0 17 -7 51 -15 75
-9 24 -18 63 -22 87 -3 24 -10 44 -14 44 -5 0 -9 8 -9 18 0 11 -9 29 -20 42
-11 13 -20 27 -20 32 0 4 -7 8 -15 8 -8 0 -15 5 -15 10 0 6 -7 10 -15 10 -8 0
-15 5 -15 10 0 6 -5 10 -11 10 -5 0 -37 27 -69 60 -32 33 -63 60 -67 60 -5 0
-15 9 -23 20 -8 11 -22 20 -32 20 -10 0 -18 5 -18 10 0 6 -18 10 -40 10 -22 0
-40 5 -40 10 0 6 -7 10 -15 10 -8 0 -15 5 -15 10 0 6 -9 10 -21 10 -11 0 -27
6 -35 14 -14 15 -9 46 8 46 5 0 17 7 25 16 15 14 15 24 4 76 -7 33 -23 83 -35
111 -74 164 -91 197 -98 197 -4 0 -8 7 -8 15 0 18 -6 26 -82 105 -31 33 -64
60 -72 60 -9 0 -16 5 -16 10 0 6 -7 10 -15 10 -8 0 -15 5 -15 10 0 6 -7 10
-15 10 -8 0 -15 5 -15 10 0 6 -7 10 -15 10 -8 0 -15 5 -15 10 0 6 -7 10 -15
10 -8 0 -15 5 -15 10 0 6 -11 10 -25 10 -14 0 -25 5 -25 10 0 6 -7 10 -15 10
-8 0 -15 5 -15 10 0 6 -9 10 -20 10 -11 0 -20 5 -20 10 0 6 -9 10 -20 10 -11
0 -20 5 -20 10 0 6 -9 10 -20 10 -11 0 -20 5 -20 10 0 6 -16 10 -35 10 -19 0
-35 5 -35 10 0 6 -9 10 -20 10 -11 0 -20 5 -20 10 0 6 -7 10 -15 10 -8 0 -15
5 -15 10 0 6 -16 10 -35 10 -19 0 -35 5 -35 10 0 6 -7 10 -15 10 -8 0 -15 5
-15 10 0 6 -9 10 -20 10 -11 0 -20 5 -20 10 0 6 -11 10 -25 10 -14 0 -25 5
-25 10 0 6 -11 10 -25 10 -14 0 -25 5 -25 10 0 6 -11 10 -25 10 -14 0 -25 5
-25 10 0 6 -9 10 -20 10 -11 0 -20 5 -20 10 0 6 -9 10 -20 10 -11 0 -20 5 -20
10 0 6 -9 10 -20 10 -11 0 -20 5 -20 10 0 6 -11 10 -25 10 -14 0 -25 5 -25 10
0 6 -9 10 -20 10 -11 0 -20 -4 -20 -10 0 -6 -32 -10 -75 -10 -43 0 -75 -4 -75
-10 0 -5 -16 -10 -35 -10 -19 0 -35 -4 -35 -10 0 -5 -11 -10 -25 -10 -14 0
-25 -4 -25 -10 0 -5 -13 -10 -30 -10 -16 0 -30 -4 -30 -10 0 -5 -11 -10 -25
-10 -14 0 -25 -4 -25 -10 0 -5 -11 -10 -25 -10 -14 0 -25 -4 -25 -10 0 -5 -13
-10 -30 -10 -16 0 -30 -4 -30 -10 0 -5 -16 -10 -35 -10 -19 0 -35 -4 -35 -10
0 -5 -13 -10 -30 -10 -16 0 -30 -4 -30 -10 0 -5 -9 -10 -20 -10 -11 0 -20 5
-20 10 0 6 -7 10 -15 10 -8 0 -15 -4 -15 -10 0 -5 -13 -10 -29 -10 -16 0 -32
-6 -34 -12 -4 -10 -6 -10 -6 0 -1 8 -23 12 -76 12 -53 0 -75 4 -75 13 0 8 -4
7 -11 -3 -8 -11 -12 -12 -16 -2 -6 16 -40 16 -47 0 -5 -10 -7 -10 -12 0 -3 6
-18 12 -33 12 -15 0 -33 9 -41 20 -16 23 -75 28 -84 8 -5 -10 -7 -10 -12 0 -3
6 -15 12 -26 12 -11 0 -33 14 -48 30 -15 17 -33 30 -39 30 -6 0 -11 5 -11 10
0 6 -9 10 -20 10 -11 0 -20 5 -20 10 0 6 -9 10 -20 10 -11 0 -20 5 -20 10 0 6
-7 10 -15 10 -8 0 -15 5 -15 10 0 6 -11 10 -25 10 -14 0 -25 5 -25 10 0 6 -10
10 -21 10 -21 0 -59 34 -59 52 0 4 -13 8 -30 8 -16 0 -30 5 -30 10 0 6 -7 10
-16 10 -9 0 -29 14 -44 30 -15 17 -33 30 -39 30 -6 0 -11 4 -11 9 0 15 -201
231 -215 231 -10 0 -105 100 -105 111 0 5 -7 9 -15 9 -8 0 -15 5 -15 10 0 6
-7 10 -15 10 -8 0 -15 5 -15 10 0 6 -10 10 -23 10 -12 0 -29 9 -37 20 -8 11
-18 20 -23 20 -13 0 -33 23 -52 60 -23 45 -39 60 -64 60 -12 0 -21 5 -21 10 0
6 -14 10 -31 10 -23 0 -40 10 -69 40 -21 22 -42 40 -47 40 -5 0 -15 9 -23 20
-8 11 -20 20 -27 20 -7 0 -13 5 -13 10 0 6 -9 10 -20 10 -11 0 -20 5 -20 10 0
6 -9 10 -20 10 -11 0 -20 5 -20 10 0 6 -7 10 -15 10 -8 0 -15 5 -15 10 0 6 -7
10 -15 10 -8 0 -15 5 -15 10 0 6 -9 10 -20 10 -11 0 -20 4 -20 9 0 13 -56 71
-69 71 -6 0 -11 5 -11 10 0 6 -5 10 -11 10 -6 0 -24 14 -39 30 -15 17 -32 30
-37 30 -4 0 -19 14 -33 31 -48 58 -159 169 -170 169 -5 0 -10 5 -10 10 0 6 -7
10 -15 10 -8 0 -15 5 -15 10 0 6 -7 10 -16 10 -8 0 -42 27 -74 60 -32 33 -63
60 -67 60 -5 0 -15 9 -23 20 -8 11 -20 20 -27 20 -7 0 -13 5 -13 10 0 6 -7 10
-15 10 -8 0 -15 5 -15 10 0 6 -9 10 -20 10 -11 0 -20 5 -20 10 0 6 -11 10 -25
10 -14 0 -25 5 -25 10 0 6 -7 10 -16 10 -8 0 -33 18 -54 40 -21 22 -41 40 -45
40 -4 0 -20 14 -35 30 -15 17 -33 30 -39 30 -6 0 -11 5 -11 10 0 6 -13 10 -30
10 -16 0 -30 5 -30 10 0 6 -9 10 -20 10 -11 0 -20 5 -20 10 0 6 -9 10 -20 10
-11 0 -20 5 -20 10 0 6 -6 10 -12 10 -7 0 -24 14 -38 31 -51 61 -99 109 -109
109 -6 0 -11 5 -11 10 0 6 -6 10 -13 10 -7 0 -19 9 -27 20 -8 11 -20 20 -27
20 -7 0 -13 5 -13 10 0 6 -7 10 -15 10 -8 0 -15 5 -15 10 0 6 -11 10 -25 10
-14 0 -25 5 -25 10 0 6 -11 10 -25 10 -14 0 -25 5 -25 10 0 6 -9 10 -20 10
-11 0 -20 5 -20 10 0 6 -11 10 -25 10 -14 0 -25 5 -25 10 0 6 -16 10 -35 10
-19 0 -35 5 -35 10 0 6 -7 10 -15 10 -8 0 -15 5 -15 10 0 6 -6 10 -13 10 -7 0
-19 9 -27 20 -8 11 -20 20 -27 20 -7 0 -13 5 -13 10 0 6 -7 10 -15 10 -8 0
-15 5 -15 10 0 6 -11 10 -25 10 -14 0 -25 5 -25 10 0 6 -9 10 -20 10 -11 0
-20 5 -20 10 0 6 -9 10 -20 10 -11 0 -20 5 -20 10 0 6 -5 10 -11 10 -14 0 -39
25 -39 40 0 6 -14 38 -31 71 -33 66 -33 73 2 183 11 32 19 75 19 94 0 20 8 62
17 94 15 49 21 58 40 58 13 0 23 5 23 10 0 6 11 10 25 10 25 0 25 1 25 84 0
54 -7 104 -19 142 -10 33 -22 83 -26 113 -4 30 -11 59 -16 65 -41 49 -49 60
-49 68 0 4 -7 8 -16 8 -9 0 -29 14 -44 30 -15 17 -32 30 -37 30 -5 0 -15 9
-23 20 -8 11 -20 20 -27 20 -7 0 -13 9 -13 20 0 15 -7 20 -26 20 -17 0 -41 16
-74 50 -27 28 -56 50 -64 50 -9 0 -16 5 -16 10 0 6 -13 10 -30 10 -16 0 -30 5
-30 10 0 6 -9 10 -21 10 -18 0 -44 23 -89 77 -5 7 -17 28 -25 47 -8 20 -22 52
-30 71 -19 46 -19 60 5 135 11 34 20 85 20 112 0 44 -4 52 -45 93 -24 25 -49
45 -55 45 -5 0 -10 5 -10 10 0 6 -7 10 -15 10 -11 0 -15 12 -15 45 0 58 17 95
44 95 12 0 28 9 36 20 9 13 26 20 48 20 51 0 75 32 86 115 8 62 35 125 53 125
7 0 13 5 13 10 0 6 7 10 15 10 8 0 15 5 15 10 0 6 14 10 30 10 20 0 30 5 30
15 0 28 47 65 81 65 30 0 69 29 69 52 0 4 5 8 11 8 16 0 44 34 59 70 7 17 16
30 21 30 5 0 9 18 9 40 l0 40 60 0 c33 0 60 4 60 10 0 6 11 10 25 10 14 0 25
5 25 10 0 6 11 10 24 10 18 0 25 7 30 30 4 24 11 30 31 30 14 0 25 5 25 10 0
6 9 10 20 10 17 0 20 7 20 40 0 29 4 40 15 40 8 0 15 5 15 10 0 6 7 10 15 10
8 0 15 5 15 10 0 6 7 10 15 10 8 0 15 5 15 10 0 6 9 10 20 10 11 0 20 4 20 8
0 13 36 52 46 52 5 0 16 10 24 21 8 12 21 27 28 35 6 7 12 28 12 48 0 19 6 41
13 48 30 30 37 54 24 89 -7 19 -21 42 -31 51 -18 17 -18 20 -1 73 9 31 23 62
31 69 17 18 38 138 31 187 -3 25 -1 44 8 52 32 32 55 97 55 156 0 66 6 91 24
91 6 0 18 9 26 20 8 11 20 20 27 20 7 0 13 5 13 10 0 6 7 10 15 10 8 0 15 4
15 8 0 14 36 52 49 52 6 0 11 5 11 10 0 6 27 10 60 10 33 0 60 4 60 10 0 6 23
10 50 10 28 0 50 5 50 10 0 6 11 10 25 10 14 0 25 5 25 10 0 6 11 10 25 10 14
0 25 5 25 10 0 6 14 10 30 10 17 0 30 5 30 10 0 6 7 10 15 10 8 0 15 5 15 10
0 6 7 10 15 10 8 0 15 5 15 10 0 6 7 10 15 10 8 0 15 5 15 10 0 6 7 10 15 10
8 0 15 4 15 8 0 16 37 52 53 52 9 0 18 8 22 19 7 24 39 61 52 61 6 0 16 14 23
30 7 17 19 30 26 30 8 0 14 5 14 10 0 6 5 10 11 10 14 0 46 36 54 61 4 11 10
19 15 19 5 0 12 9 15 20 3 11 12 20 18 20 7 0 19 9 27 20 8 11 19 20 24 20 14
0 47 42 43 54 -2 6 -1 36 3 65 6 49 5 57 -17 78 -25 26 -30 62 -12 95 17 31
76 88 92 88 8 0 22 18 32 40 23 52 48 80 69 80 9 0 16 5 16 10 0 6 7 10 15 10
8 0 15 5 15 10 0 6 9 10 20 10 11 0 20 5 20 10 0 6 5 10 11 10 12 0 49 38 49
50 0 15 38 50 55 50 17 0 75 55 75 71 0 5 5 9 10 9 16 0 56 43 75 81 10 18 24
39 31 47 8 7 14 18 14 23 0 5 7 9 15 9 8 0 15 5 15 10 0 6 7 10 15 10 8 0 15
5 15 10 0 6 6 10 13 10 14 0 37 40 37 65 0 7 6 20 14 27 7 8 24 34 36 59 13
24 27 47 32 50 5 3 12 31 15 63 4 43 1 66 -12 96 -10 22 -21 40 -26 40 -4 0
-15 26 -25 58 -20 65 -59 149 -80 170 -8 7 -14 18 -14 23 0 5 -7 9 -16 9 -20
0 -44 24 -44 44 0 8 -12 27 -26 41 -24 24 -25 30 -21 103 3 71 10 101 51 222
8 25 20 63 26 86 5 22 19 51 30 64 11 13 20 27 20 32 0 4 25 8 56 8 60 0 84
14 84 50 0 12 -7 28 -15 36 -21 21 -19 44 10 131 27 79 41 110 59 129 6 6 18
22 26 34 8 12 23 31 32 42 10 11 20 29 23 39 4 11 10 19 15 19 5 0 11 8 15 19
7 23 39 61 51 61 5 0 16 9 24 20 8 11 25 20 37 20 13 0 23 5 23 10 0 6 8 10
18 10 12 0 25 14 37 40 10 22 21 40 25 40 4 0 13 14 20 30 12 28 40 42 40 20
0 -5 8 -10 18 -10 12 0 26 17 42 50 13 28 29 50 37 50 7 0 13 5 13 10 0 6 14
10 30 10 17 0 30 5 30 10 0 6 18 10 40 10 22 0 40 5 40 10 0 6 14 10 30 10 17
0 30 5 30 10 0 6 6 10 13 10 7 0 19 9 27 20 8 12 26 20 42 20 15 0 28 5 28 10
0 14 37 12 44 -2 5 -10 7 -10 12 0 3 6 19 12 35 12 25 0 30 5 36 30 3 17 10
30 15 30 5 0 7 -10 4 -22 -3 -13 -3 -17 0 -10 3 6 11 12 18 12 6 0 18 9 26 20
8 11 22 20 32 20 10 0 18 5 18 10 0 6 16 10 35 10 19 0 35 5 35 10 0 6 9 10
20 10 11 0 20 5 20 10 0 6 9 10 20 10 11 0 20 5 20 10 0 6 18 10 40 10 22 0
40 4 40 9 0 13 56 71 69 71 6 0 11 5 11 10 0 6 11 10 25 10 14 0 25 5 25 10 0
6 8 10 18 10 10 0 24 9 32 20 8 11 21 20 28 20 8 0 27 14 42 30 15 17 32 30
37 30 5 0 15 9 23 20 8 11 21 20 28 20 14 0 92 76 92 90 0 5 6 15 14 22 26 27
64 113 70 163 5 35 3 64 -8 94 -12 36 -12 46 -2 57 7 7 19 26 26 43 14 36 26
39 35 11 10 -33 35 1 35 48 0 49 8 72 25 72 7 0 15 14 18 30 4 17 11 30 17 30
20 0 60 48 54 64 -5 13 1 16 30 16 20 0 36 5 36 10 0 6 7 10 15 10 8 0 15 5
15 10 0 6 12 10 26 10 16 0 37 12 54 30 15 17 37 30 49 30 14 0 23 8 27 28 4
15 17 48 30 74 26 51 30 97 14 129 -8 15 -7 23 4 34 8 8 19 15 24 15 10 0 32
44 32 65 0 8 4 15 9 15 5 0 11 14 14 30 6 25 11 30 37 30 35 0 35 -1 13 45
-12 25 -23 35 -40 35 -13 0 -23 5 -23 10 0 15 -117 13 -124 -2 -5 -10 -7 -10
-12 0 -3 6 -10 12 -16 12 -6 0 -19 10 -30 23 -17 18 -19 30 -12 67 4 25 7 64
6 87 -2 58 23 169 41 188 8 8 18 34 22 57 9 57 34 131 47 139 7 4 7 13 0 26
-8 15 -4 39 18 103 16 46 27 87 25 91 -3 4 -9 35 -14 70 -5 35 -13 79 -17 97
-5 26 -3 32 10 32 9 0 17 9 18 23 1 12 2 36 4 52 1 17 5 51 9 76 6 36 4 49 -9
62 -12 12 -14 21 -7 34 11 22 0 89 -31 180 -17 50 -20 67 -10 71 19 6 14 30
-10 57 -34 36 -44 49 -58 75 -7 13 -23 34 -36 47 -13 13 -24 28 -24 33 0 5 -6
15 -14 22 -7 8 -21 29 -31 48 -10 19 -24 40 -31 47 -7 8 -18 32 -24 53 -6 22
-14 40 -19 40 -4 0 -20 27 -36 60 -16 33 -32 60 -35 60 -4 0 -10 20 -13 45 -4
25 -20 72 -37 105 -16 33 -30 64 -30 70 0 6 -7 19 -16 27 -11 11 -14 24 -9 42
17 61 16 137 0 181 -10 25 -19 60 -22 78 -3 17 -8 32 -12 32 -5 0 -13 11 -19
24 -8 18 -7 34 4 66 8 23 17 63 20 89 5 41 16 74 60 179 18 43 18 62 -2 62
-11 0 -14 5 -10 16 3 9 6 18 6 20 0 2 9 4 20 4 11 0 20 5 20 10 0 6 6 10 14
10 8 0 17 7 20 16 8 22 8 24 -8 24 -8 0 -18 9 -21 20 -3 11 -13 20 -21 20 -17
0 -64 44 -64 59 0 6 -12 35 -27 66 l-27 54 28 59 c21 45 27 69 24 98 -5 37 21
110 43 125 5 3 5 19 0 36 -13 43 -3 83 20 83 15 0 19 7 19 40 0 27 4 40 13 40
10 0 14 17 14 60 0 41 -4 60 -13 60 -6 0 -15 7 -18 16 -9 22 -8 24 9 24 28 0
15 70 -19 106 -6 6 -18 21 -26 33 -8 11 -22 21 -31 21 -17 0 -29 37 -29 87 0
24 -6 33 -46 77 -12 13 -30 38 -39 57 -10 19 -30 45 -45 59 -15 14 -30 37 -34
53 -4 17 -13 27 -25 27 -11 0 -24 12 -31 31 -7 17 -19 36 -26 43 -7 7 -45 78
-84 157 -40 79 -82 152 -93 162 -17 14 -18 20 -8 26 10 7 10 15 -4 42 -10 19
-21 36 -25 39 -4 3 -17 25 -30 49 -23 45 -43 71 -56 71 -8 0 -44 40 -44 50 0
4 -9 18 -20 31 -11 13 -30 37 -42 52 -13 15 -29 35 -36 43 -8 8 -18 29 -23 48
-9 33 -40 76 -54 76 -16 0 -65 64 -65 86 0 13 -11 47 -24 76 -56 125 -65 148
-71 184 -9 55 -36 114 -51 114 -7 0 -18 18 -24 40 -6 22 -14 40 -19 40 -22 0
-34 60 -32 164 2 107 11 136 40 136 6 0 11 5 11 10 0 6 9 10 20 10 33 0 24 64
-14 107 -27 30 -35 42 -51 73 -10 19 -24 40 -31 47 -29 29 -38 113 -13 113 5
0 9 7 9 16 0 8 7 23 16 32 13 12 15 28 10 73 -4 46 -2 61 10 74 11 10 15 27
11 48 -2 18 2 52 10 76 10 30 13 61 8 102 -6 48 -4 59 7 59 15 0 38 78 38 131
0 16 5 29 10 29 18 0 11 29 -25 100 -19 38 -35 78 -35 88 0 11 -9 47 -19 80
-28 85 -37 180 -33 347 0 28 1 64 0 80 0 17 7 50 17 75 9 25 21 57 25 73 l9
27 -2440 0 -2439 0 0 -1410z"/>
<path fill="#ffffff" stroke="000000" stroke-width="0.01" d="M260 33800 c-14 -16 -29 -30 -33 -30
-13 0 -33 -23 -51 -59 -27 -50 -4 -121 38 -121 9 0 16 -4 16 -10 0 -5 12 -10
26 -10 26 0 83 49 85 74 5 41 -5 122 -16 133 -8 7 -17 22 -20 33 -8 26 -15 25
-45 -10z"/>
<path fill="#ffffff" stroke="000000" stroke-width="0.01" d="M17370 28350 c-19 -21 -39 -39 -44 -40
-13 0 -46 -41 -46 -56 0 -19 22 -64 31 -64 4 0 10 -9 14 -19 3 -11 18 -33 33
-50 29 -32 48 -56 72 -92 8 -12 25 -32 38 -45 12 -13 22 -30 22 -39 0 -8 4
-15 9 -15 5 0 13 -9 16 -20 4 -11 28 -42 53 -68 26 -27 56 -67 66 -90 11 -23
22 -42 26 -42 4 0 13 -13 20 -30 7 -16 16 -30 20 -30 13 0 30 -52 34 -104 3
-41 0 -53 -20 -73 -13 -12 -27 -23 -31 -23 -5 0 -15 -9 -23 -20 -10 -14 -16
-16 -22 -7 -6 9 -8 9 -8 0 0 -7 -9 -13 -20 -13 -11 0 -20 5 -20 10 0 6 -25 10
-55 10 -30 0 -55 5 -55 10 0 6 -11 10 -25 10 -14 0 -25 5 -25 10 0 6 -11 10
-25 10 -14 0 -25 5 -25 10 0 6 -25 10 -55 10 -30 0 -55 5 -55 10 0 6 -18 10
-40 10 -22 0 -40 -4 -40 -10 0 -5 -13 -10 -30 -10 -24 0 -31 -5 -39 -32 -5
-18 -15 -47 -21 -63 -12 -28 -9 -38 30 -114 40 -80 61 -111 75 -111 8 0 75
-70 95 -100 14 -20 34 -46 59 -76 30 -36 43 -79 36 -120 -8 -53 1 -84 22 -84
15 0 53 -36 53 -50 0 -11 36 -50 47 -50 11 0 33 -43 33 -65 0 -8 11 -25 25
-39 14 -14 25 -32 25 -41 0 -29 32 -170 40 -175 16 -11 40 -71 40 -103 0 -35
27 -77 50 -77 37 0 65 -68 80 -192 5 -43 14 -86 20 -97 18 -35 11 -80 -26
-154 -20 -39 -40 -74 -44 -77 -4 -3 -15 -20 -25 -39 -9 -19 -27 -44 -39 -57
-11 -12 -32 -37 -46 -54 -52 -65 -99 -110 -114 -110 -9 0 -16 -4 -16 -10 0 -5
-9 -10 -20 -10 -11 0 -20 -4 -20 -10 0 -5 -7 -10 -15 -10 -20 0 -85 -65 -85
-84 0 -20 -55 -76 -74 -76 -9 0 -16 -4 -16 -10 0 -5 -6 -10 -14 -10 -8 0 -18
-9 -21 -20 -3 -11 -10 -20 -15 -20 -5 0 -11 -8 -15 -19 -8 -25 -40 -61 -54
-61 -6 0 -11 -4 -11 -10 0 -5 -6 -10 -13 -10 -7 0 -19 -9 -27 -21 -33 -47 -69
-79 -89 -79 -12 0 -21 -4 -21 -10 0 -5 -7 -10 -15 -10 -8 0 -15 -4 -15 -8 0
-5 -9 -20 -20 -33 -11 -13 -30 -36 -42 -51 -13 -15 -31 -28 -41 -28 -27 0 -41
-19 -61 -82 -19 -62 -45 -98 -70 -98 -9 0 -16 -4 -16 -10 0 -5 -8 -10 -18 -10
-18 0 -52 -55 -52 -84 0 -14 -53 -76 -64 -76 -13 0 -54 -47 -71 -81 -21 -39
-39 -59 -55 -59 -18 0 -36 -22 -70 -90 -34 -67 -52 -90 -69 -90 -6 0 -11 -4
-11 -10 0 -5 -6 -10 -13 -10 -13 0 -49 -68 -62 -117 -7 -26 -58 -83 -75 -83
-16 0 -34 -20 -55 -60 -20 -39 -39 -60 -54 -60 -6 0 -11 -4 -11 -10 0 -5 -5
-10 -11 -10 -17 0 -35 -23 -64 -80 -15 -30 -44 -70 -64 -89 -21 -21 -43 -55
-51 -81 -15 -51 -37 -98 -54 -117 -29 -33 -36 -43 -36 -53 0 -15 -39 -91 -55
-107 -8 -7 -17 -13 -22 -13 -5 0 -29 -40 -53 -90 -24 -49 -47 -90 -51 -90 -3
0 -14 -18 -24 -40 -10 -23 -26 -49 -34 -60 -9 -10 -23 -28 -31 -39 -8 -12 -20
-21 -27 -21 -7 0 -13 -4 -13 -10 0 -5 -6 -10 -13 -10 -7 0 -19 -9 -27 -20 -8
-12 -26 -20 -42 -20 -15 0 -28 -4 -28 -10 0 -5 -9 -10 -20 -10 -11 0 -20 -4
-20 -10 0 -5 -6 -10 -12 -10 -7 0 -24 -14 -38 -31 -53 -64 -78 -89 -89 -89 -6
0 -11 -4 -11 -10 0 -5 -7 -10 -15 -10 -8 0 -15 -4 -15 -10 0 -5 -8 -10 -18
-10 -11 0 -25 -14 -35 -35 -16 -33 -16 -38 -1 -68 9 -18 21 -35 27 -38 16 -11
11 -82 -8 -119 -23 -45 -45 -126 -45 -168 0 -18 -11 -78 -25 -134 -23 -90 -25
-107 -16 -173 11 -80 37 -145 58 -145 7 0 15 -10 17 -22 3 -13 7 -35 10 -50 3
-15 12 -33 20 -40 43 -44 71 -178 59 -292 -4 -40 -1 -67 10 -94 22 -53 37
-196 37 -359 0 -147 2 -137 -48 -199 -5 -5 -12 -23 -15 -40 -3 -16 -11 -50
-18 -76 -11 -42 -10 -53 6 -88 17 -39 17 -41 -1 -81 -10 -23 -23 -47 -29 -53
-15 -16 -45 -113 -45 -148 0 -16 -5 -39 -11 -50 -13 -24 -36 -123 -50 -216 -5
-34 -20 -85 -34 -112 -13 -26 -27 -68 -31 -92 -8 -54 -20 -76 -57 -110 -27
-26 -28 -31 -22 -77 5 -39 2 -57 -14 -89 -12 -23 -21 -47 -21 -55 0 -8 -9 -24
-20 -37 -11 -13 -20 -27 -20 -32 0 -4 -7 -8 -15 -8 -8 0 -15 -4 -15 -10 0 -6
-35 -10 -85 -10 -50 0 -85 -4 -85 -10 0 -5 -9 -10 -20 -10 -11 0 -20 5 -20 10
0 6 -16 10 -35 10 -30 0 -35 -3 -35 -25 0 -34 21 -75 38 -75 18 0 51 -37 57
-64 2 -12 7 -50 10 -85 6 -60 21 -91 43 -91 34 0 49 -184 27 -336 -14 -102
-39 -184 -55 -184 -9 0 -30 -93 -30 -133 0 -18 -7 -52 -16 -77 -15 -43 -14
-157 2 -270 4 -26 0 -42 -14 -58 -21 -24 -45 -91 -57 -157 -4 -22 -11 -43 -16
-46 -9 -5 -40 -81 -60 -144 -5 -16 -9 -65 -9 -109 0 -43 -6 -120 -14 -170 -24
-155 -35 -298 -26 -351 24 -148 24 -144 2 -193 -34 -78 -62 -182 -62 -234 0
-52 -10 -78 -44 -114 -36 -39 -43 -50 -65 -92 -12 -23 -21 -56 -21 -75 0 -19
-9 -44 -20 -58 -33 -41 -36 -44 -43 -56 -4 -6 -14 -65 -23 -130 -18 -145 -28
-183 -54 -213 -11 -13 -20 -25 -20 -27 0 -12 92 -93 105 -93 40 0 61 -45 70
-149 8 -95 12 -111 30 -111 8 0 23 -30 35 -71 18 -56 21 -85 16 -132 -4 -40
-1 -79 10 -120 9 -34 13 -75 9 -96 -3 -20 1 -97 9 -173 12 -114 12 -148 2
-205 -8 -37 -19 -97 -25 -132 -7 -35 -18 -70 -24 -77 -33 -36 -39 -47 -48 -77
-5 -17 -6 -47 -3 -64 4 -21 2 -33 -5 -33 -7 0 -11 -25 -11 -70 0 -68 1 -70 25
-70 14 0 25 4 25 8 0 5 8 18 18 30 l18 20 17 -21 c10 -12 22 -38 27 -58 6 -20
19 -46 30 -59 29 -33 34 -63 21 -115 -17 -68 -14 -119 9 -145 11 -13 20 -26
20 -30 0 -5 13 -22 29 -39 29 -31 51 -40 51 -21 0 6 16 10 35 10 36 0 41 -8
61 -108 4 -18 13 -32 20 -32 8 0 14 -4 14 -10 0 -5 6 -10 13 -10 7 0 19 -9 27
-20 8 -11 22 -20 31 -20 10 0 20 -6 23 -12 5 -10 7 -10 12 0 7 14 34 16 34 2
0 -5 11 -10 24 -10 16 0 27 -7 31 -20 4 -14 15 -20 36 -20 22 0 29 -5 29 -18
0 -20 31 -62 46 -62 5 0 16 -9 24 -20 8 -11 20 -20 27 -20 7 0 13 -4 13 -10 0
-5 9 -10 20 -10 11 0 20 -4 20 -10 0 -5 11 -10 25 -10 14 0 25 -4 25 -10 0 -6
28 -10 65 -10 37 0 65 -4 65 -10 0 -5 6 -10 13 -10 7 0 19 -9 27 -20 8 -11 20
-20 27 -20 7 0 13 -4 13 -10 0 -5 7 -10 15 -10 8 0 15 -4 15 -10 0 -5 9 -10
20 -10 11 0 20 -4 20 -10 0 -5 23 -10 50 -10 28 0 50 -4 50 -10 0 -5 18 -10
40 -10 22 0 40 -4 40 -10 0 -5 8 -10 18 -10 10 0 24 -9 32 -20 8 -11 24 -20
36 -20 12 0 25 -6 28 -12 5 -10 7 -10 12 0 3 7 24 12 50 12 24 0 44 5 44 10 0
6 6 10 14 10 8 0 18 9 21 20 3 11 10 20 14 20 5 0 14 14 21 30 7 17 19 30 26
30 8 0 14 4 14 9 0 5 6 16 14 23 7 8 24 34 36 57 23 47 62 91 80 91 5 0 10 5
10 10 0 6 22 10 49 10 30 0 51 5 54 13 4 9 6 9 6 0 1 -10 27 -13 96 -13 57 0
95 -4 95 -10 0 -5 11 -10 25 -10 14 0 25 -4 25 -10 0 -5 15 -10 34 -10 19 0
37 -6 40 -12 5 -10 7 -10 12 0 3 6 21 12 40 12 19 0 34 5 34 10 0 6 8 10 18
10 10 0 24 9 32 20 8 11 19 20 25 20 6 0 17 9 25 20 8 11 20 20 27 20 7 0 13
5 13 10 0 6 7 10 15 10 8 0 15 5 15 10 0 6 19 10 43 10 40 0 43 2 55 40 16 54
15 67 -8 93 -89 97 -100 107 -124 107 -14 0 -26 5 -26 10 0 6 -7 10 -15 10 -8
0 -15 5 -15 10 0 6 -7 10 -15 10 -8 0 -15 5 -15 10 0 6 -9 10 -20 10 -11 0
-20 5 -20 10 0 6 -6 10 -14 10 -15 0 -30 32 -47 105 -19 78 -61 155 -86 155
-5 0 -22 27 -38 60 -16 33 -35 60 -42 60 -7 0 -13 5 -13 10 0 6 -7 10 -16 10
-20 0 -37 17 -59 60 -24 46 -39 60 -66 60 -26 0 -57 33 -66 69 -14 58 -50 111
-76 111 -22 0 -40 53 -33 97 7 41 2 51 -66 124 -20 21 -46 39 -57 39 -12 0
-21 5 -21 10 0 6 -7 10 -16 10 -22 0 -38 18 -69 79 -27 54 -66 101 -83 101
-13 0 -22 25 -22 61 0 41 -13 62 -76 125 -30 30 -54 59 -54 64 0 4 -7 16 -16
25 -9 8 -22 38 -29 65 -13 49 -34 80 -54 80 -6 0 -11 5 -11 10 0 6 -16 10 -35
10 -19 0 -35 -4 -35 -10 0 -5 -7 -10 -16 -10 -9 0 -29 -13 -44 -30 -32 -34
-36 -35 -57 -15 -11 12 -13 27 -8 65 6 45 4 52 -20 76 -24 24 -27 32 -21 73 3
25 10 47 15 50 15 10 41 69 41 94 0 29 31 67 54 67 9 0 16 5 16 10 0 6 7 10
16 10 9 0 25 10 36 22 35 41 36 93 1 136 -10 11 -26 31 -36 44 -53 69 -35 218
27 218 9 0 16 5 16 10 0 6 9 10 20 10 11 0 20 -4 20 -10 0 -5 16 -10 35 -10
19 0 35 5 35 10 0 6 6 10 14 10 8 0 18 9 21 20 3 11 10 20 14 20 4 0 13 11 19
25 7 14 17 31 22 38 38 45 50 61 50 67 0 12 37 50 49 50 6 0 11 5 11 10 0 6
12 10 26 10 29 0 45 13 68 57 20 40 21 181 2 273 -16 76 -14 226 3 289 7 25
11 60 9 80 -3 19 1 51 8 71 7 21 18 67 24 104 12 65 50 126 79 126 6 0 11 5
11 10 0 6 5 10 11 10 6 0 28 18 49 40 21 22 43 40 49 40 6 0 11 5 11 10 0 6 9
10 20 10 11 0 20 5 20 10 0 6 6 10 13 10 7 0 19 9 27 20 8 11 20 20 27 20 7 0
13 5 13 10 0 6 11 10 25 10 14 0 25 -4 25 -10 0 -5 7 -10 15 -10 8 0 15 -4 15
-10 0 -5 7 -10 15 -10 8 0 15 -4 15 -10 0 -5 9 -10 20 -10 11 0 20 -4 20 -10
0 -5 7 -10 15 -10 8 0 15 -4 15 -10 0 -5 7 -10 15 -10 8 0 15 -4 15 -10 0 -5
7 -10 15 -10 8 0 15 -4 15 -10 0 -5 7 -10 15 -10 8 0 15 -4 15 -10 0 -5 14
-10 30 -10 17 0 30 5 30 10 0 6 7 10 15 10 8 0 15 5 15 10 0 6 9 10 20 10 11
0 20 5 20 10 0 6 16 10 35 10 19 0 35 5 35 10 0 6 14 10 30 10 17 0 30 5 30
10 0 6 11 10 25 10 14 0 25 5 25 10 0 6 14 10 31 10 33 0 63 -25 74 -61 4 -11
10 -19 14 -19 15 0 33 -115 36 -234 1 -66 8 -139 14 -162 10 -38 40 -84 55
-84 14 0 76 -70 96 -110 12 -24 33 -54 46 -67 13 -13 24 -28 24 -33 0 -5 27
-36 60 -70 33 -34 60 -65 60 -70 0 -5 6 -15 14 -23 8 -7 28 -42 46 -76 31 -61
89 -131 110 -131 5 0 10 -4 10 -10 0 -5 7 -10 15 -10 8 0 15 -4 15 -10 0 -5
18 -10 40 -10 22 0 40 -4 40 -10 0 -5 23 -10 50 -10 28 0 50 5 50 10 0 6 11
10 25 10 14 0 25 5 25 10 0 6 7 10 15 10 8 0 15 5 15 10 0 6 5 10 11 10 16 0
34 22 59 70 25 48 43 70 59 70 6 0 11 4 11 10 0 5 20 29 44 54 25 24 57 68 71
97 29 57 47 79 64 79 6 0 11 5 11 10 0 6 6 10 13 10 7 0 19 9 27 20 8 11 18
20 23 20 13 0 74 65 90 96 21 44 8 164 -18 164 -8 0 -15 5 -15 10 0 6 -6 10
-13 10 -7 0 -19 9 -27 20 -8 11 -20 20 -27 20 -7 0 -13 5 -13 10 0 6 -9 10
-20 10 -11 0 -20 5 -20 10 0 6 -13 10 -30 10 -16 0 -30 5 -30 10 0 6 -9 10
-20 10 -11 0 -20 4 -20 8 0 16 -37 52 -54 52 -9 0 -16 5 -16 10 0 6 -5 10 -11
10 -6 0 -28 18 -49 40 -21 22 -41 40 -45 40 -18 0 -65 75 -65 103 0 8 -8 23
-17 35 -10 11 -25 30 -33 41 -8 12 -20 21 -27 21 -7 0 -13 5 -13 10 0 6 -6 10
-14 10 -20 0 -34 44 -40 130 -3 41 -13 106 -21 145 -8 38 -15 89 -15 113 0 41
-28 111 -55 139 -15 15 -20 44 -35 203 -6 63 -15 131 -20 150 -5 19 -14 132
-20 250 -8 146 -18 240 -31 292 -10 42 -19 100 -19 130 -1 29 -5 73 -10 98
-12 59 -1 268 15 284 22 22 45 75 45 104 0 26 10 66 41 168 12 40 11 113 -2
193 -11 66 -21 101 -58 199 -27 74 -31 117 -36 452 -3 238 -1 306 11 353 11
44 12 67 4 97 -8 31 -7 53 5 101 9 34 19 110 22 168 3 58 12 118 19 133 9 17
14 54 12 97 -1 50 3 73 14 84 8 8 20 30 27 49 7 18 23 58 36 88 13 30 29 70
36 89 7 19 27 49 45 67 18 17 47 60 64 95 18 34 38 69 46 76 20 21 18 27 -25
72 l-39 41 -80 0 c-77 0 -80 1 -91 28 -16 38 -6 253 13 290 8 15 17 44 21 65
4 21 20 51 36 68 24 26 29 40 29 83 0 28 7 75 15 104 8 28 21 74 29 102 8 27
21 57 30 65 9 9 16 20 16 24 0 4 9 18 19 30 11 12 27 48 37 79 31 103 67 162
98 162 9 0 16 5 16 10 0 6 11 10 25 10 14 0 25 5 25 10 0 6 7 10 16 10 30 0
58 48 93 160 12 36 51 111 66 127 8 7 36 13 67 13 42 0 57 -4 68 -20 11 -15
26 -20 57 -20 24 0 43 5 43 10 0 6 10 10 23 10 19 0 31 17 70 96 26 52 52 101
57 107 24 28 46 57 60 77 8 12 23 31 33 42 9 12 17 25 17 30 0 4 7 8 15 8 8 0
15 5 15 10 0 6 6 10 13 10 7 0 19 9 27 20 8 11 19 20 25 20 6 0 17 9 25 20 8
11 20 20 27 20 7 0 13 5 13 10 0 6 5 10 11 10 20 0 64 -57 98 -129 34 -70 36
-71 73 -71 21 0 38 -4 38 -10 0 -5 9 -10 20 -10 11 0 20 -4 20 -10 0 -5 18
-10 40 -10 22 0 40 5 40 10 0 6 16 10 35 10 19 0 35 5 35 10 0 6 7 10 15 10 8
0 15 5 15 10 0 6 6 10 13 10 7 0 19 9 27 20 8 11 20 20 27 20 7 0 13 5 13 10
0 6 11 10 25 10 14 0 25 5 25 10 0 6 16 10 35 10 19 0 35 5 35 10 0 6 11 10
25 10 14 0 25 5 25 10 0 6 9 10 20 10 29 0 66 40 75 81 11 51 32 87 81 135 35
35 50 44 79 44 19 0 35 -4 35 -10 0 -5 7 -10 15 -10 8 0 15 5 15 10 0 6 14 10
30 10 17 0 30 5 30 10 0 6 6 10 13 10 13 0 35 78 58 210 6 36 21 96 34 135 33
99 41 189 21 245 -9 25 -16 66 -16 91 0 26 -6 69 -14 95 -8 27 -19 72 -24 99
-5 28 -19 74 -31 103 -45 112 -58 149 -64 188 -9 53 -45 167 -56 174 -26 16
-53 102 -71 220 -11 72 -24 139 -30 150 -5 10 -10 28 -10 40 0 21 -26 80 -40
90 -16 11 -29 50 -49 145 -12 55 -26 116 -31 135 -6 19 -10 62 -10 96 0 47 -5
66 -20 84 -11 13 -23 35 -27 49 -3 14 -16 47 -29 73 -13 26 -24 54 -24 63 0
11 -11 15 -39 15 -22 0 -42 6 -45 13 -5 10 -7 10 -12 0 -3 -7 -12 -13 -20 -13
-8 0 -14 -4 -14 -10 0 -5 -18 -10 -41 -10 -34 0 -46 -6 -79 -40 -21 -22 -41
-40 -45 -40 -4 0 -24 -18 -45 -40 -33 -34 -45 -40 -79 -40 -23 0 -41 5 -41 10
0 6 -7 10 -15 10 -8 0 -15 5 -15 10 0 6 -12 10 -26 10 -53 0 -67 46 -38 129 8
24 19 52 25 62 7 14 3 31 -16 69 -24 47 -24 51 -10 92 8 24 19 44 25 46 5 2
10 12 10 21 0 10 9 28 20 41 11 13 20 31 20 40 0 9 -9 27 -20 40 -11 13 -20
26 -20 30 0 12 -37 50 -49 50 -6 0 -11 4 -11 9 0 16 -58 71 -74 71 -9 0 -16 5
-16 10 0 6 -7 10 -15 10 -8 0 -15 5 -15 10 0 6 -5 10 -11 10 -12 0 -49 38 -49
50 0 12 -37 50 -49 50 -17 0 -56 41 -76 81 -23 44 -39 59 -64 59 -12 0 -21 5
-21 10 0 6 -7 10 -15 10 -8 0 -15 5 -15 10 0 6 -6 10 -14 10 -7 0 -19 14 -26
30 -7 17 -19 30 -26 30 -8 0 -14 5 -14 10 0 6 -7 10 -15 10 -8 0 -15 5 -15 10
0 6 -13 10 -30 10 -16 0 -30 5 -30 10 0 6 -7 10 -15 10 -8 0 -15 4 -15 8 0 14
-36 52 -49 52 -6 0 -11 4 -11 8 0 16 -37 52 -54 52 -9 0 -16 5 -16 10 0 6 -8
10 -18 10 -10 0 -24 10 -32 21 -38 54 -89 99 -114 99 -14 0 -26 5 -26 10 0 6
-6 10 -13 10 -7 0 -19 9 -27 20 -8 11 -22 20 -32 20 -10 0 -18 5 -18 10 0 6
-11 10 -25 10 -14 0 -25 5 -25 10 0 6 -5 10 -11 10 -13 0 -49 38 -49 52 0 4
-9 8 -20 8 -11 0 -20 5 -20 10 0 6 -9 10 -20 10 -11 0 -20 5 -20 10 0 6 -9 10
-20 10 -11 0 -20 5 -20 10 0 24 -47 6 -80 -30z"/>
<path fill="#ffffff" stroke="000000" stroke-width="0.01" d="M18870 27400 c0 -5 -12 -10 -26 -10
-14 0 -32 -7 -40 -15 -13 -13 -13 -17 -1 -29 8 -8 20 -28 27 -45 12 -30 15
-31 71 -31 33 0 59 4 59 10 0 6 9 10 20 10 11 0 20 5 20 10 0 6 9 10 19 10 23
0 31 17 24 53 -4 18 -12 27 -24 27 -11 0 -19 5 -19 10 0 6 -28 10 -65 10 -37
0 -65 -4 -65 -10z"/>
<path fill="#ffffff" stroke="000000" stroke-width="0.01" d="M17420 12880 c0 -5 -11 -10 -24 -10
-26 0 -30 -7 -41 -72 -7 -47 23 -108 54 -108 11 0 31 -62 31 -95 0 -26 -20
-54 -26 -38 -3 6 -13 20 -22 31 -9 11 -24 30 -32 41 -18 27 -51 27 -70 1 -18
-26 -32 -25 -50 1 -44 63 -67 79 -114 79 -25 0 -46 5 -46 10 0 6 -42 10 -105
10 -63 0 -105 -4 -105 -10 0 -5 -5 -10 -11 -10 -6 0 -28 -18 -49 -40 -37 -39
-41 -40 -104 -40 -37 0 -66 4 -66 10 0 6 -6 10 -14 10 -8 0 -16 5 -18 12 -2 6
-10 -28 -17 -76 -13 -85 -9 -116 9 -86 7 10 10 11 10 3 0 -8 14 -13 38 -13 37
0 39 -2 67 -60 16 -33 35 -60 42 -60 7 0 13 -4 13 -10 0 -5 13 -10 28 -10 16
0 34 -8 42 -20 8 -11 20 -20 27 -20 7 0 13 -4 13 -10 0 -5 7 -10 15 -10 8 0
15 -4 15 -10 0 -5 7 -10 15 -10 8 0 15 -4 15 -9 0 -5 6 -16 14 -23 7 -8 24
-34 36 -58 12 -24 28 -50 35 -57 16 -15 55 -18 55 -3 0 19 65 11 80 -10 8 -11
20 -20 27 -20 7 0 13 -4 13 -10 0 -5 7 -10 15 -10 8 0 15 -4 15 -10 0 -5 9
-10 20 -10 11 0 20 -4 20 -10 0 -5 7 -10 15 -10 8 0 15 -4 15 -8 0 -5 8 -18
18 -30 9 -11 24 -30 32 -41 8 -12 25 -21 37 -21 13 0 23 -4 23 -10 0 -5 7 -10
15 -10 8 0 15 -4 15 -8 0 -14 36 -52 49 -52 6 0 11 -5 11 -11 0 -13 23 9 38
38 7 12 12 51 12 87 0 62 -2 66 -40 106 -22 23 -43 54 -46 68 -4 15 -13 40
-21 56 -17 32 -10 76 12 76 8 0 15 5 15 10 0 6 7 10 15 10 8 0 15 5 15 10 0 6
11 10 25 10 14 0 25 5 25 10 0 6 9 10 20 10 11 0 20 -4 20 -10 0 -5 13 -10 28
-10 16 0 34 -8 42 -20 8 -11 23 -20 33 -20 41 0 67 -50 67 -129 0 -80 5 -91
46 -91 31 0 34 3 44 43 6 23 13 49 16 58 5 19 38 59 48 59 11 0 31 22 45 49
21 39 -5 151 -36 151 -7 0 -13 5 -13 10 0 6 -6 10 -13 10 -14 0 -47 60 -47 84
0 15 -53 76 -65 76 -12 0 -44 41 -50 64 -16 58 -39 96 -57 96 -26 0 -48 23
-48 50 0 23 -21 50 -39 50 -6 0 -11 5 -11 10 0 6 -18 10 -40 10 -22 0 -40 5
-40 10 0 6 -18 10 -40 10 -22 0 -40 -4 -40 -10z"/>
</g>
</svg>
