<?xml version="1.0" standalone="no"?>
<!DOCTYPE svg PUBLIC "-//W3C//DTD SVG 20010904//EN"
 "http://www.w3.org/TR/2001/REC-SVG-20010904/DTD/svg10.dtd">
<svg version="1.0" xmlns="http://www.w3.org/2000/svg"
 width="3506.000000pt" height="3950.000000pt" viewBox="0 0 3506.000000 3950.000000"
 preserveAspectRatio="xMidYMid meet">
<metadata>
Created by potrace 1.15, written by Peter Selinger 2001-2017
</metadata>
<g transform="translate(0.000000,3950.000000) scale(0.100000,-0.100000)"
fill="#ffffff" stroke="000000" stroke-width="0.01">
<path fill="#ffffff" stroke="000000" stroke-width="0.01" d="M0 37815 c0 -1491 2 -1685 15 -1685 8
0 15 -4 15 -10 0 -5 7 -10 15 -10 17 0 74 -53 93 -86 11 -18 11 -18 12 4 0 16
6 22 24 22 13 0 27 -7 30 -16 9 -22 8 -24 -9 -24 -8 0 -15 -4 -15 -10 0 -5 7
-10 15 -10 8 0 15 -4 15 -10 0 -5 6 -10 13 -10 7 0 19 -9 27 -20 8 -11 19 -20
25 -20 6 0 17 -9 25 -20 8 -11 20 -20 27 -20 6 0 15 -9 18 -20 3 -11 13 -20
21 -20 8 0 14 -4 14 -10 0 -5 6 -10 14 -10 16 0 29 -27 20 -41 -3 -5 2 -16 10
-25 9 -8 16 -11 16 -5 0 6 14 11 30 11 17 0 30 -4 30 -10 0 -5 9 -10 20 -10
11 0 20 -4 20 -10 0 -5 9 -10 20 -10 11 0 20 -4 20 -10 0 -5 9 -10 20 -10 11
0 20 -4 20 -10 0 -5 5 -10 11 -10 39 0 73 -124 43 -155 -25 -24 -17 -80 16
-115 16 -18 30 -41 30 -51 0 -13 7 -19 23 -19 16 0 28 -9 35 -25 16 -34 15
-35 -8 -35 -13 0 -20 -7 -20 -20 0 -11 -5 -20 -11 -20 -11 0 -39 -24 -39 -34
0 -3 7 -6 16 -6 11 0 14 -5 10 -16 -3 -9 -6 -18 -6 -20 0 -2 -16 -4 -35 -4
-19 0 -35 -4 -35 -10 0 -5 -16 -10 -35 -10 -19 0 -35 -4 -35 -8 0 -13 -36 -52
-47 -52 -6 0 -16 -13 -22 -30 -6 -16 -16 -43 -22 -60 -6 -16 -15 -30 -19 -30
-4 0 -10 -13 -13 -30 -5 -21 -12 -30 -27 -30 -11 0 -20 -6 -20 -12 0 -9 -3 -8
-9 1 -8 12 -11 8 -17 -14 -4 -17 -13 -36 -20 -43 -13 -12 -34 -74 -34 -99 0
-7 -5 -13 -10 -13 -7 0 -9 -32 -6 -90 3 -65 0 -94 -9 -103 -29 -30 -43 -77
-49 -177 -3 -57 -10 -107 -15 -110 -13 -8 -71 -127 -71 -145 0 -8 -4 -15 -10
-15 -5 0 -10 -16 -10 -35 0 -73 -57 -145 -115 -145 l-35 0 0 -14198 c0 -13848
0 -14199 19 -14220 10 -12 23 -22 30 -22 6 0 11 -4 11 -10 0 -5 9 -10 19 -10
11 0 23 -9 26 -20 3 -11 10 -20 14 -20 5 0 14 -15 21 -32 29 -80 65 -148 77
-148 7 0 13 -4 13 -10 0 -5 6 -10 13 -10 7 0 19 -10 27 -21 8 -12 21 -28 29
-36 23 -24 6 -89 -34 -129 -19 -19 -35 -39 -35 -44 0 -6 -9 -10 -20 -10 -11 0
-20 -4 -20 -10 0 -5 -6 -10 -14 -10 -24 0 -28 -31 -7 -50 18 -14 19 -22 10
-56 -18 -71 -41 -114 -61 -114 -10 0 -18 -4 -18 -10 0 -5 -14 -10 -31 -10 -20
0 -39 -8 -50 -22 -18 -20 -19 -60 -19 -1080 0 -1051 0 -1058 20 -1058 11 0 20
-4 20 -10 0 -5 6 -10 14 -10 8 0 16 -17 20 -46 5 -42 24 -74 43 -74 5 0 15 -9
23 -20 8 -11 20 -20 27 -20 7 0 13 -4 13 -10 0 -5 7 -10 15 -10 8 0 15 -4 15
-10 0 -5 8 -10 18 -10 9 0 28 -14 42 -31 57 -68 79 -89 94 -89 9 0 16 -4 16
-10 0 -5 7 -10 16 -10 27 0 91 -76 99 -117 4 -20 13 -50 21 -65 8 -14 11 -33
8 -41 -6 -17 4 -56 36 -137 12 -30 27 -75 34 -100 18 -65 33 -88 86 -140 26
-25 50 -59 54 -75 10 -46 27 -85 37 -85 4 0 11 -9 14 -20 3 -11 12 -20 18 -20
7 0 19 -9 27 -20 9 -13 26 -20 47 -20 18 0 33 -4 33 -10 0 -5 7 -10 16 -10 20
0 37 -17 59 -60 22 -43 39 -60 59 -60 9 0 16 -4 16 -10 0 -5 7 -10 15 -10 8 0
15 -4 15 -10 0 -5 7 -10 15 -10 8 0 15 -4 15 -10 0 -5 7 -10 15 -10 8 0 15 -4
15 -10 0 -5 9 -10 20 -10 11 0 20 -4 20 -10 0 -5 7 -10 15 -10 22 0 120 -101
145 -151 23 -43 30 -54 66 -93 49 -52 69 -132 67 -260 -2 -70 9 -96 40 -96 22
0 26 -19 16 -85 -24 -153 -38 -195 -68 -195 -14 0 -14 -20 1 -90 8 -41 8 -68
1 -98 l-11 -42 2429 0 c1675 0 2429 3 2429 10 0 6 -8 27 -19 48 -10 20 -21 49
-25 65 -3 15 -11 27 -16 27 -6 0 -10 7 -10 15 0 9 -9 33 -20 55 -11 22 -20 49
-20 60 0 12 -7 34 -15 50 -13 26 -13 34 5 91 11 35 24 66 29 69 5 3 18 25 31
49 12 25 39 61 60 81 21 20 52 65 70 99 34 68 36 71 92 132 43 47 58 87 64
184 7 91 11 110 29 128 8 8 21 32 29 53 8 22 21 58 30 82 9 24 30 69 46 101
25 51 28 63 18 88 -12 32 -5 74 15 95 28 28 37 59 37 132 0 43 4 76 11 78 12
4 56 131 65 190 4 24 13 55 20 70 8 15 14 54 14 88 0 47 7 73 29 118 19 38 32
86 40 145 10 76 10 93 -6 135 -12 35 -16 73 -15 151 3 128 -1 141 -39 141 -16
0 -29 -4 -29 -10 0 -15 -79 -12 -94 3 -8 7 -21 50 -30 96 -9 46 -21 88 -27 94
-39 47 -49 61 -49 69 0 4 -7 8 -16 8 -20 0 -47 30 -64 70 -7 17 -19 30 -26 30
-8 0 -14 5 -14 10 0 6 -7 10 -15 10 -8 0 -15 5 -15 10 0 6 -13 10 -30 10 -16
0 -30 5 -30 10 0 6 -9 10 -20 10 -11 0 -20 5 -20 10 0 6 -9 10 -20 10 -11 0
-20 5 -20 10 0 6 -9 10 -20 10 -11 0 -20 5 -20 10 0 6 -6 10 -12 10 -7 0 -24
14 -37 31 -53 66 -79 89 -105 89 -14 0 -26 5 -26 10 0 6 -11 10 -25 10 -14 0
-43 6 -65 12 -34 11 -40 17 -45 50 -4 23 -12 38 -21 38 -8 0 -14 5 -14 10 0 6
-6 10 -14 10 -8 0 -17 9 -21 19 -3 11 -12 22 -20 25 -8 3 -21 19 -30 37 -9 17
-35 50 -58 74 -41 42 -57 61 -87 106 -8 12 -45 53 -83 91 -63 64 -67 72 -67
114 0 28 -9 63 -25 94 -16 31 -25 66 -25 95 0 33 -4 45 -15 45 -8 0 -15 5 -15
10 0 6 -9 10 -20 10 -11 0 -20 -4 -20 -10 0 -5 -6 -10 -14 -10 -9 0 -18 22
-25 66 -11 62 -28 94 -49 94 -9 0 -35 54 -47 98 -4 13 -14 22 -26 22 -10 0
-19 5 -19 10 0 6 -7 10 -16 10 -9 0 -29 14 -44 30 -15 17 -35 30 -42 30 -10 0
-19 20 -27 57 -13 53 -46 103 -71 103 -20 0 -55 45 -70 90 -8 25 -20 51 -27
58 -16 16 -17 96 -3 123 8 14 7 23 -2 33 -7 7 -20 23 -28 35 -9 13 -25 21 -42
21 -15 0 -28 5 -28 10 0 6 -7 10 -15 10 -10 0 -15 10 -15 29 0 16 -3 43 -6 60
-6 28 -10 31 -45 31 -22 0 -39 5 -39 10 0 6 -11 10 -25 10 -14 0 -25 5 -25 10
0 6 -7 10 -15 10 -27 0 -28 45 -1 98 14 28 26 53 26 56 0 3 -21 27 -48 54 -78
82 -82 91 -82 153 0 52 -3 61 -37 98 -74 79 -74 79 -103 201 -22 92 -41 141
-64 167 -6 6 -22 26 -36 43 -14 17 -35 42 -47 54 -30 33 -64 102 -65 134 0 15
6 52 14 82 51 189 74 365 51 388 -15 16 -16 27 -4 69 11 39 -1 90 -28 122 -11
12 -22 46 -26 79 -4 31 -13 75 -21 97 -18 51 -17 65 1 65 8 0 15 5 15 10 0 6
6 10 14 10 9 0 16 18 21 57 4 31 9 62 12 70 3 8 -2 13 -12 13 -14 0 -16 6 -10
40 4 22 3 40 -2 40 -9 0 -37 56 -63 127 -7 18 -15 33 -19 33 -4 0 -26 40 -50
89 l-44 89 16 50 c25 76 25 77 -30 137 -13 13 -23 34 -23 45 0 38 45 110 69
110 5 0 13 9 16 20 3 11 11 20 17 20 16 0 48 41 48 61 0 10 12 30 26 44 14 14
30 43 35 63 18 68 31 92 50 92 11 0 19 1 19 3 0 1 9 27 20 57 11 30 20 64 20
76 0 11 8 31 18 42 35 40 20 282 -20 326 -29 33 -38 46 -38 54 0 40 -76 220
-106 249 -20 20 -36 90 -36 153 0 31 -6 67 -15 85 -11 20 -16 52 -15 97 1 38
-4 86 -13 111 -8 24 -19 106 -25 182 -5 76 -14 141 -18 144 -16 11 -41 68 -48
111 -5 31 -1 60 16 111 26 78 23 101 -34 214 -26 53 -30 73 -34 165 -4 120
-27 205 -66 246 -6 6 -18 22 -26 34 -8 12 -23 31 -32 42 -10 12 -18 24 -18 28
0 6 -12 22 -50 67 -5 7 -14 23 -19 35 -29 74 -45 108 -52 108 -4 0 -11 9 -14
20 -3 11 -11 20 -17 20 -11 0 -48 38 -48 50 0 10 -36 50 -44 50 -16 0 -84 80
-95 112 -7 18 -21 53 -32 78 -10 25 -26 74 -34 110 -18 75 -44 140 -57 140 -4
0 -8 7 -8 15 0 25 -33 85 -48 85 -28 0 -42 28 -42 84 0 50 4 59 34 89 44 44
56 69 49 96 -3 12 0 40 7 61 14 43 7 90 -14 90 -8 0 -17 7 -20 16 -8 21 -9 18
14 44 15 17 20 37 20 77 0 34 7 68 20 94 l21 39 -25 25 c-23 23 -32 25 -119
25 l-95 0 -12 30 c-12 29 -15 30 -71 30 -33 0 -59 4 -59 10 0 6 -5 10 -11 10
-21 0 -41 30 -35 54 4 15 -1 31 -12 44 -42 51 -52 67 -52 83 0 18 -91 119
-107 119 -5 0 -15 9 -23 20 -8 11 -22 20 -32 20 -10 0 -18 5 -18 10 0 6 -7 10
-15 10 -8 0 -15 4 -15 8 0 16 -37 52 -54 52 -9 0 -16 5 -16 10 0 6 -7 10 -16
10 -19 0 -94 76 -94 96 0 8 -7 28 -15 44 -14 28 -14 33 5 70 35 68 21 130 -28
130 -36 0 -44 63 -13 98 10 13 30 22 46 22 25 0 27 3 21 28 -4 15 -8 40 -10
57 -2 16 -8 31 -15 33 -6 2 -11 12 -11 23 0 14 7 19 30 19 17 0 30 5 30 10 0
6 7 10 15 10 8 0 15 4 15 8 0 5 9 19 20 32 11 13 20 18 20 12 0 -19 24 -14 40
8 8 11 18 20 23 20 22 0 58 53 64 95 l6 45 63 0 c36 0 64 4 64 10 0 6 7 10 15
10 20 0 65 44 65 63 0 24 36 57 64 57 14 0 26 5 26 10 0 6 6 10 14 10 8 0 18
9 21 20 6 18 15 20 86 20 46 0 79 4 79 10 0 6 7 10 15 10 8 0 15 5 15 10 0 6
7 10 15 10 8 0 15 5 15 10 0 6 9 10 20 10 11 0 20 5 20 10 0 6 6 10 14 10 8 0
18 9 21 20 4 12 15 20 28 20 13 0 29 9 37 21 26 38 68 79 79 79 6 0 11 5 11
10 0 6 7 10 16 10 16 0 94 75 94 91 0 5 7 9 15 9 8 0 15 5 15 10 0 6 7 10 15
10 8 0 15 5 15 10 0 6 14 10 30 10 17 0 30 5 30 10 0 6 11 10 25 10 14 0 25 5
25 10 0 6 7 10 15 10 8 0 15 5 15 10 0 6 6 10 14 10 7 0 19 13 26 30 7 16 17
30 22 30 15 0 38 27 38 44 0 9 7 16 15 16 8 0 15 5 15 10 0 6 9 10 20 10 11 0
20 5 20 10 0 6 7 10 16 10 16 0 74 55 74 71 0 5 12 9 26 9 30 0 104 71 104 99
0 16 7 27 49 77 19 23 50 91 56 127 4 20 11 37 15 37 4 0 10 13 13 29 4 17 26
50 51 74 52 53 96 133 96 177 0 27 82 208 100 220 4 3 18 25 30 50 12 25 26
47 30 50 4 3 15 21 25 40 10 19 21 37 25 40 4 3 22 34 40 69 39 79 58 100 70
80 7 -11 13 -8 29 11 11 14 25 30 30 36 16 20 41 73 41 89 0 8 5 15 10 15 6 0
10 14 10 30 0 17 5 30 10 30 14 0 13 37 -2 42 -15 5 -4 48 20 75 10 12 28 44
42 72 19 41 28 51 48 51 18 0 23 4 18 16 -6 15 7 48 28 70 6 6 18 21 26 33 8
11 20 21 27 21 7 0 13 5 13 10 0 6 11 10 24 10 16 0 27 7 31 20 9 27 56 27 75
-1 25 -35 47 -59 55 -59 4 0 20 -13 35 -30 15 -16 34 -30 42 -30 7 0 20 -9 28
-20 8 -11 22 -20 32 -20 10 0 18 -4 18 -8 0 -5 9 -20 20 -33 11 -13 30 -36 42
-51 13 -15 29 -28 36 -28 6 0 12 -4 12 -10 0 -5 12 -10 26 -10 16 0 37 -12 54
-30 15 -16 32 -30 37 -30 16 0 35 -52 41 -115 3 -33 11 -66 19 -73 7 -7 13
-23 14 -35 0 -12 3 -16 6 -9 8 19 41 -24 53 -69 6 -21 18 -45 26 -54 12 -12
15 -26 9 -60 -5 -37 -3 -45 9 -45 9 0 16 -8 16 -19 0 -11 6 -26 14 -34 43 -42
98 -190 141 -379 9 -39 23 -67 46 -92 19 -19 45 -48 59 -65 14 -17 29 -31 33
-31 5 0 22 -13 37 -30 15 -16 35 -30 44 -30 9 0 16 -4 16 -10 0 -5 7 -10 16
-10 22 0 52 -36 63 -76 5 -19 16 -41 25 -50 9 -8 16 -23 16 -33 0 -9 9 -23 20
-31 11 -8 20 -22 20 -31 0 -9 9 -26 20 -39 11 -13 20 -31 20 -42 0 -10 4 -18
8 -18 5 0 19 -22 32 -50 13 -27 28 -50 33 -50 5 0 19 -10 30 -22 13 -16 21
-19 24 -10 5 14 53 17 53 2 0 -5 7 -10 15 -10 8 0 15 5 15 10 0 6 23 10 50 10
28 0 50 5 50 10 0 6 6 10 13 10 7 0 19 9 27 20 8 11 22 20 32 20 10 0 18 5 18
10 0 6 7 10 15 10 8 0 15 5 15 10 0 6 7 10 15 10 8 0 15 5 15 10 0 6 9 10 20
10 11 0 20 5 20 10 0 6 11 10 25 10 14 0 25 5 25 10 0 6 6 10 13 10 7 0 19 9
27 20 8 11 22 20 32 20 10 0 18 5 18 10 0 6 15 10 33 10 21 0 38 7 47 20 8 12
26 20 42 20 15 0 28 5 28 10 0 6 9 10 20 10 11 0 20 5 20 10 0 6 14 10 30 10
17 0 30 5 30 10 0 6 9 10 20 10 11 0 20 5 20 10 0 6 9 10 20 10 11 0 20 5 20
10 0 6 16 10 35 10 19 0 35 5 35 10 0 6 14 10 30 10 17 0 30 5 30 10 0 6 14
10 30 10 17 0 30 5 30 10 0 6 11 10 25 10 14 0 25 5 25 10 0 6 7 10 16 10 13
0 15 7 10 30 -3 17 -1 30 4 30 6 0 10 -4 10 -10 0 -5 15 -10 33 -10 25 0 37 6
45 23 6 12 11 16 11 10 1 -15 31 -18 31 -3 0 6 14 10 30 10 17 0 30 5 30 10 0
6 8 10 18 10 10 0 24 9 32 20 13 18 26 20 137 20 92 0 123 -3 123 -12 0 -10 2
-10 9 0 6 10 10 4 15 -20 5 -26 9 -30 16 -18 6 10 10 11 10 3 0 -8 13 -13 30
-13 17 0 30 -4 30 -10 0 -17 25 -11 40 10 8 11 19 20 25 20 6 0 17 9 25 20 8
11 20 20 27 20 7 0 13 6 13 13 0 8 4 7 10 -3 6 -10 10 -11 10 -2 0 7 14 12 35
12 19 0 35 5 35 10 0 6 7 10 15 10 8 0 15 5 15 10 0 6 11 10 24 10 16 0 27 7
31 20 3 11 13 20 21 20 8 0 14 5 14 10 0 6 8 10 18 10 10 0 24 10 32 21 8 12
21 28 28 35 8 8 18 30 23 49 6 20 16 35 24 35 8 0 15 5 15 10 0 6 18 10 40 10
22 0 40 5 40 10 0 6 7 10 15 10 8 0 15 5 15 10 0 6 9 10 20 10 11 0 20 5 20
10 0 6 6 10 13 10 7 0 19 9 27 20 8 11 24 20 36 20 16 0 23 8 28 30 5 29 26
42 26 18 1 -26 39 59 46 102 7 41 9 56 13 115 1 14 4 16 9 7 5 -7 15 16 26 63
10 41 15 79 11 84 -6 11 11 52 27 62 10 7 0 39 -13 39 -12 0 -12 37 0 42 15 5
-16 183 -40 229 -11 23 -25 47 -30 53 -40 48 -49 61 -54 77 -4 11 -10 19 -15
19 -13 0 -41 99 -47 170 -6 67 1 119 37 280 10 47 14 87 9 88 -5 2 -9 12 -9
23 0 10 -5 19 -11 19 -6 0 -8 7 -5 16 3 9 -4 25 -17 38 -12 13 -29 33 -37 45
-8 11 -20 21 -27 21 -7 0 -13 5 -13 10 0 6 -5 10 -10 10 -6 0 -42 32 -80 70
-38 39 -73 70 -77 70 -5 0 -15 9 -23 20 -8 11 -20 20 -27 20 -7 0 -13 5 -13
10 0 6 -7 10 -15 10 -8 0 -15 5 -15 10 0 15 -127 13 -132 -2 -5 -15 -26 3 -46
37 -6 11 -12 14 -12 8 0 -16 -90 -18 -90 -2 0 6 -18 -8 -39 -30 -29 -31 -47
-41 -70 -41 -17 0 -31 5 -31 10 0 6 -7 10 -16 10 -9 0 -29 14 -44 30 -15 17
-32 30 -37 30 -5 0 -15 9 -23 20 -8 11 -20 20 -27 20 -7 0 -13 5 -13 10 0 6
-9 10 -20 10 -11 0 -20 5 -20 10 0 6 -7 10 -15 10 -8 0 -15 5 -15 10 0 6 -28
10 -65 10 l-64 0 -11 43 c-6 23 -15 52 -20 65 -6 14 -6 30 2 47 12 26 28 33
28 13 1 -17 30 37 40 73 13 45 -7 94 -60 149 -27 27 -51 50 -55 50 -5 0 -59
54 -184 186 -21 23 -45 52 -52 65 -6 13 -18 30 -26 37 -7 7 -13 20 -13 28 0 8
-6 21 -13 30 -39 46 -66 74 -72 74 -12 0 -35 28 -35 43 0 8 -8 23 -17 35 -10
11 -25 30 -33 42 -8 12 -23 31 -32 42 -10 12 -18 24 -18 28 0 5 -14 22 -30 40
-16 18 -30 35 -30 40 0 4 -9 17 -20 30 -11 13 -20 31 -20 42 0 10 -4 18 -9 18
-5 0 -13 9 -16 20 -3 11 -12 20 -20 20 -7 0 -16 6 -18 13 -4 9 -6 9 -6 0 -1
-7 -6 -13 -12 -13 -6 0 -8 9 -4 23 5 17 4 18 -4 7 -8 -12 -13 -11 -30 9 -12
13 -21 28 -21 33 0 4 -7 8 -15 8 -8 0 -15 5 -15 10 0 6 -6 10 -14 10 -8 0 -18
9 -21 20 -3 11 -13 20 -21 20 -8 0 -14 5 -14 10 0 6 -7 10 -15 10 -8 0 -15 5
-15 10 0 6 -7 10 -15 10 -8 0 -15 5 -15 10 0 6 -7 10 -15 10 -8 0 -15 5 -15
10 0 6 -7 10 -15 10 -8 0 -15 5 -15 10 0 6 -6 10 -13 10 -7 0 -19 9 -27 20 -8
11 -25 20 -37 20 -13 0 -23 5 -23 10 0 6 -7 10 -15 10 -8 0 -15 5 -15 10 0 6
-7 10 -15 10 -8 0 -15 5 -15 10 0 6 -7 10 -15 10 -8 0 -15 5 -15 10 0 6 -9 10
-20 10 -11 0 -20 5 -20 10 0 6 -9 10 -20 10 -11 0 -20 5 -20 10 0 6 -9 10 -20
10 -11 0 -20 5 -20 10 0 6 -13 10 -30 10 -16 0 -30 5 -30 10 0 6 -18 10 -40
10 -22 0 -40 5 -40 10 0 6 -37 10 -90 10 -53 0 -90 4 -90 10 0 6 -17 10 -38
10 -26 0 -42 6 -52 20 -8 11 -24 20 -36 20 -12 0 -25 6 -27 13 -4 9 -8 9 -15
-2 -8 -11 -10 -11 -15 0 -4 10 -6 10 -6 2 -1 -9 -22 -13 -71 -13 -40 0 -70 -4
-70 -10 0 -5 -18 -10 -40 -10 -22 0 -40 -4 -40 -10 0 -5 -13 -10 -30 -10 -16
0 -30 -4 -30 -10 0 -5 -13 -10 -30 -10 -16 0 -30 -4 -30 -10 0 -6 -28 -10 -65
-10 -37 0 -65 -4 -65 -10 0 -5 -22 -10 -50 -10 -27 0 -50 5 -50 10 0 14 -27
12 -34 -2 -5 -10 -7 -10 -12 0 -7 14 -34 16 -34 2 0 -5 -13 -10 -30 -10 -16 0
-30 5 -30 10 0 15 -90 13 -90 -2 -1 -7 -7 -2 -15 12 -8 14 -14 19 -15 13 0 -8
-13 -13 -31 -13 -26 0 -29 3 -24 20 6 18 2 20 -44 20 -28 0 -51 5 -51 10 0 6
-13 10 -30 10 -16 0 -30 5 -30 10 0 6 -11 10 -25 10 -14 0 -25 5 -25 10 0 6
-11 10 -25 10 -14 0 -25 5 -25 10 0 6 -9 10 -20 10 -12 0 -20 -7 -20 -16 0 -8
-6 -22 -14 -30 -13 -12 -15 -11 -21 6 -3 11 -3 29 0 40 5 14 2 20 -9 20 -9 0
-17 6 -17 13 -1 6 -3 19 -4 27 -1 8 -3 21 -4 28 0 6 -14 12 -31 12 -16 0 -30
5 -30 10 0 6 -20 10 -45 10 -25 0 -45 5 -45 10 0 6 -7 10 -15 10 -8 0 -15 5
-15 10 0 6 -13 10 -30 10 -16 0 -30 5 -30 10 0 6 -12 10 -26 10 -17 0 -39 14
-64 40 -21 22 -43 40 -49 40 -6 0 -11 5 -11 10 0 6 -7 10 -15 10 -8 0 -15 5
-15 10 0 6 -7 10 -15 10 -8 0 -15 5 -15 10 0 6 -6 10 -13 10 -7 0 -19 9 -27
21 -28 39 -47 59 -59 59 -6 0 -11 5 -11 10 0 6 -11 10 -23 10 -18 0 -28 10
-42 40 -10 22 -24 40 -32 40 -7 0 -13 5 -13 10 0 6 -11 10 -25 10 -14 0 -25 5
-25 10 0 6 -9 10 -20 10 -11 0 -20 5 -20 10 0 6 -9 10 -20 10 -11 0 -20 5 -20
10 0 6 -11 10 -25 10 -14 0 -25 4 -25 8 0 5 -8 18 -17 30 -10 11 -25 30 -33
41 -8 12 -22 21 -31 21 -9 0 -22 14 -29 30 -12 29 -30 41 -30 20 0 -5 -7 -10
-15 -10 -8 0 -15 4 -15 8 0 5 -9 19 -19 31 -11 13 -22 28 -25 34 -5 9 -8 9
-12 0 -7 -15 -34 -17 -34 -3 0 6 -11 10 -25 10 -14 0 -25 5 -25 10 0 6 -6 10
-13 10 -7 0 -19 9 -27 20 -8 11 -20 20 -27 20 -7 0 -13 5 -13 10 0 6 -7 10
-16 10 -16 0 -94 75 -94 91 0 5 -9 9 -20 9 -11 0 -20 5 -20 10 0 6 -7 10 -16
10 -16 0 -54 36 -54 50 0 12 -57 70 -68 70 -6 0 -14 9 -17 20 -3 11 -13 20
-21 20 -8 0 -14 5 -14 10 0 6 -6 10 -13 10 -7 0 -19 9 -27 21 -28 39 -47 59
-59 59 -6 0 -11 5 -11 10 0 6 -7 10 -16 10 -16 0 -74 55 -74 70 0 10 -36 50
-45 50 -4 0 -20 14 -35 30 -15 17 -35 30 -44 30 -9 0 -16 5 -16 10 0 6 -9 10
-20 10 -11 0 -20 5 -20 10 0 6 -9 10 -20 10 -11 0 -20 5 -20 10 0 6 -28 10
-65 10 -36 0 -65 2 -65 5 0 3 9 23 20 45 25 48 25 50 0 50 -11 0 -20 5 -20 10
0 6 -6 10 -13 10 -7 0 -19 9 -27 20 -8 11 -20 20 -27 20 -7 0 -13 5 -13 10 0
6 -9 10 -20 10 -11 0 -20 5 -20 10 0 6 -6 10 -13 10 -7 0 -19 9 -27 20 -8 11
-20 20 -27 20 -7 0 -13 5 -13 10 0 6 -9 10 -20 10 -11 0 -20 5 -20 10 0 6 -7
10 -15 10 -8 0 -15 5 -15 10 0 6 -7 10 -15 10 -8 0 -15 5 -15 10 0 6 -7 10
-15 10 -8 0 -15 5 -15 10 0 6 -9 10 -20 10 -11 0 -20 5 -20 10 0 6 -8 10 -18
10 -10 0 -24 9 -32 20 -8 11 -19 20 -25 20 -6 0 -17 9 -25 20 -8 11 -20 20
-27 20 -7 0 -13 5 -13 10 0 6 -7 10 -15 10 -8 0 -15 5 -15 10 0 6 -9 10 -20
10 -11 0 -20 5 -20 10 0 6 -11 10 -25 10 -14 0 -25 5 -25 10 0 6 -6 10 -13 10
-7 0 -19 9 -27 20 -8 11 -20 20 -27 20 -7 0 -13 5 -13 10 0 6 -9 10 -21 10
-11 0 -38 18 -59 40 -21 22 -46 40 -54 40 -9 0 -16 5 -16 10 0 6 -9 10 -20 10
-11 0 -20 5 -20 10 0 6 -16 10 -36 10 -27 0 -43 7 -64 30 -15 17 -31 30 -34
30 -15 0 -76 71 -97 111 -30 59 -39 201 -15 247 9 17 16 42 16 57 0 14 6 25
13 25 18 0 55 82 66 145 7 37 6 56 -5 76 -10 20 -11 35 -4 60 12 41 12 39 -1
39 -25 0 -39 30 -39 87 0 61 -15 115 -54 192 -14 27 -22 57 -19 71 5 27 -24
70 -46 70 -7 0 -30 18 -51 40 -21 22 -46 40 -54 40 -9 0 -16 5 -16 10 0 6 -9
10 -20 10 -11 0 -20 5 -20 10 0 6 -11 10 -25 10 -14 0 -25 5 -25 10 0 6 -11
10 -25 10 -14 0 -25 5 -25 10 0 6 -11 10 -25 10 -14 0 -25 5 -25 10 0 6 -13
10 -30 10 -16 0 -30 5 -30 10 0 6 -5 10 -11 10 -21 0 -36 27 -43 75 -6 45 -14
70 -62 183 -8 18 -14 50 -14 72 0 56 -28 110 -57 110 -13 0 -23 5 -23 10 0 6
-5 10 -11 10 -10 0 -39 24 -39 33 0 3 13 19 30 37 16 18 30 36 30 41 0 5 9 9
20 9 11 0 20 5 20 10 0 15 30 12 31 -2 0 -7 5 -3 11 10 6 12 17 22 25 22 7 0
13 4 13 9 0 5 6 16 14 23 28 29 53 93 49 128 -4 37 14 76 24 53 2 -7 9 -13 15
-13 14 0 46 37 53 61 4 11 11 19 16 19 6 0 28 18 49 40 26 27 47 40 65 40 18
0 39 13 66 41 21 22 39 45 39 50 0 5 17 9 38 9 26 0 42 6 52 20 8 12 26 20 42
20 15 0 28 5 28 10 0 6 11 10 25 10 14 0 25 5 25 10 0 6 11 10 25 10 14 0 25
5 25 10 0 6 18 10 41 10 34 0 46 6 80 41 21 22 42 53 46 67 6 27 25 52 39 52
15 0 45 45 55 84 24 91 42 136 54 136 8 0 17 9 20 20 3 11 11 20 17 20 6 0 9
27 8 68 -3 88 -2 92 13 92 22 0 37 45 27 80 -9 31 4 80 21 80 4 0 10 8 14 19
5 16 16 31 55 78 5 7 10 29 11 50 0 21 3 32 6 25 6 -15 39 18 48 49 4 11 11
19 16 19 5 0 9 7 9 15 0 17 104 125 120 125 6 0 13 14 17 31 4 21 8 26 14 18
6 -10 12 -8 27 9 12 14 31 22 51 22 17 0 31 5 31 10 0 6 7 10 15 10 8 0 15 5
15 10 0 6 7 10 15 10 8 0 15 9 15 20 0 16 7 20 30 20 17 0 30 5 30 10 0 6 7
10 15 10 8 0 15 5 15 10 0 6 13 10 28 10 16 0 34 8 42 20 9 13 26 20 47 20 23
0 33 5 38 20 6 20 35 28 35 10 0 -5 5 -10 11 -10 7 0 9 11 6 30 -4 18 -2 30 4
30 38 0 76 106 71 195 -1 17 1 24 4 18 9 -21 32 -15 39 10 15 52 28 77 43 77
17 0 49 34 57 61 4 13 16 19 36 19 16 0 29 4 29 8 0 5 9 19 20 32 11 13 23 35
27 49 3 14 17 36 31 49 16 17 22 32 19 49 -2 14 -1 37 4 51 30 99 31 109 19
133 -7 13 -19 30 -27 37 -7 7 -13 20 -13 28 0 17 24 44 39 44 5 0 13 9 16 20
4 13 15 20 31 20 13 0 24 5 24 10 0 6 24 10 54 10 l54 0 -5 38 c-6 43 21 82
56 82 11 0 21 5 21 10 0 6 5 10 11 10 16 0 44 34 59 70 7 17 19 30 26 30 8 0
14 5 14 10 0 6 9 10 20 10 40 0 90 67 90 120 0 31 19 60 39 60 6 0 11 5 11 10
0 6 10 10 23 10 19 0 29 12 52 60 17 37 35 60 45 60 10 0 33 35 65 100 27 55
53 100 57 100 4 0 7 66 5 148 -2 136 -4 149 -24 170 -12 12 -26 22 -32 22 -5
0 -13 10 -16 23 -13 47 -28 77 -37 77 -5 0 -15 6 -23 13 -22 22 -87 158 -101
211 -12 47 -12 50 9 68 13 12 17 22 11 26 -22 15 -24 55 -3 73 14 12 22 35 26
73 4 38 10 56 19 56 8 0 14 5 14 10 0 6 7 10 15 10 8 0 15 5 15 10 0 6 6 10
14 10 18 0 34 40 50 132 7 42 20 83 29 92 9 9 19 25 22 36 3 11 10 20 15 20 5
0 11 8 15 19 3 10 13 28 23 39 9 11 24 30 32 41 8 12 22 21 32 21 10 0 18 5
18 10 0 6 11 10 25 10 14 0 25 5 25 10 0 6 9 10 20 10 11 0 20 5 20 10 0 6 5
10 11 10 17 0 49 40 49 60 0 20 32 60 49 60 6 0 11 5 11 10 0 6 7 10 15 10 8
0 15 5 15 10 0 6 7 10 15 10 8 0 15 5 15 10 0 6 9 10 20 10 11 0 20 5 20 10 0
6 6 10 13 10 7 0 19 9 27 20 8 11 20 20 27 20 7 0 13 5 13 10 0 6 7 10 15 10
8 0 15 5 15 10 0 6 7 10 15 10 8 0 15 5 15 10 0 6 7 10 15 10 8 0 15 5 15 10
0 6 7 10 15 10 8 0 15 5 15 10 0 6 11 10 25 10 14 0 25 5 25 10 0 6 7 10 15
10 8 0 15 5 15 10 0 6 9 10 20 10 11 0 20 5 20 10 0 6 15 10 33 10 21 0 38 7
47 20 8 12 26 20 42 20 18 0 29 6 33 20 5 16 15 20 51 20 24 0 44 5 44 10 0 6
11 10 25 10 14 0 25 5 25 10 0 6 7 10 15 10 8 0 15 5 15 10 0 6 26 10 59 10
51 0 61 3 66 20 3 11 11 20 16 20 5 0 9 14 9 30 0 25 4 30 25 30 14 0 25 5 25
10 0 6 9 10 20 10 11 0 20 5 20 10 0 6 7 10 15 10 8 0 15 5 15 10 0 6 6 10 13
10 7 0 19 9 27 20 8 11 25 20 37 20 13 0 23 5 23 10 0 6 7 10 15 10 8 0 15 9
15 20 0 14 7 20 23 20 12 0 29 9 37 20 8 11 24 20 35 20 11 0 31 14 45 31 14
17 35 41 48 54 13 14 22 37 22 55 0 20 9 40 25 56 14 14 25 36 25 50 0 14 7
39 16 57 26 49 44 155 38 213 -4 33 -2 57 5 66 42 49 51 63 51 80 0 10 4 18 9
18 5 0 13 10 17 22 6 20 7 21 17 2 28 -50 37 -47 37 11 0 58 14 85 44 85 9 0
16 5 16 10 0 6 9 10 20 10 11 0 20 5 20 10 0 6 5 10 11 10 16 0 39 26 39 44 0
9 7 16 15 16 8 0 15 5 15 10 0 6 7 10 15 10 8 0 15 5 15 10 0 6 7 10 15 10 8
0 15 5 15 10 0 6 13 10 29 10 30 0 42 18 57 85 8 36 33 88 46 96 6 4 11 37 13
75 3 84 23 144 47 144 10 0 18 5 18 10 0 6 6 10 13 10 8 0 19 10 25 23 6 12
11 16 11 10 1 -18 18 -16 25 2 9 23 -25 85 -46 85 -10 0 -18 5 -18 10 0 6 -13
10 -30 10 -16 0 -30 5 -30 10 0 6 -28 10 -64 10 l-65 0 -6 44 c-4 25 -4 50 0
56 4 6 10 51 15 100 5 49 13 95 19 102 39 45 50 62 61 88 7 17 19 30 26 30 8
0 14 5 14 10 0 6 -6 10 -14 10 -8 0 -16 6 -19 13 -8 21 15 107 28 107 7 0 18
14 25 30 10 23 10 36 0 59 -10 24 -8 39 11 96 16 44 20 68 13 73 -40 26 -50
181 -16 248 25 51 35 94 22 94 -5 0 -11 -10 -11 -22 -1 -20 -2 -21 -5 -3 -3
11 -10 37 -16 57 -9 30 -8 39 5 52 9 9 20 16 26 16 6 0 11 5 11 10 0 6 -3 10
-8 10 -8 0 -32 71 -32 96 0 9 -10 25 -22 36 -19 17 -21 22 -11 49 13 33 8 59
-11 59 -6 0 -18 10 -26 21 -8 12 -20 27 -26 33 -20 21 -31 50 -38 99 -4 26
-13 47 -19 47 -7 0 -19 9 -27 21 -8 11 -23 30 -32 41 -10 12 -18 37 -18 59 0
21 -6 44 -14 51 -7 8 -21 30 -31 48 -10 19 -21 37 -25 40 -16 11 -30 51 -30
84 0 24 -8 43 -24 59 -27 27 -76 118 -76 142 0 8 -4 15 -10 15 -5 0 -10 15
-10 34 0 18 -9 62 -20 96 -11 34 -20 71 -20 80 0 29 -11 50 -26 50 -18 0 -18
28 1 46 21 21 19 34 -6 34 -16 0 -19 4 -14 18 4 9 13 46 20 82 18 98 31 120
72 120 l33 0 -6 58 c-4 31 -13 69 -20 84 -18 36 -18 58 2 58 20 0 39 19 47 48
8 32 -1 52 -23 52 -10 0 -23 13 -30 30 -7 17 -20 30 -29 30 -9 0 -23 9 -31 20
-8 11 -20 20 -27 20 -7 0 -13 9 -13 20 0 11 7 20 15 20 8 0 15 5 15 10 0 6 -5
10 -11 10 -10 0 -39 24 -39 33 0 10 38 47 49 47 6 0 11 5 11 10 0 6 7 10 15
10 19 0 19 4 -2 43 -14 28 -14 40 -4 91 7 32 19 65 27 73 8 8 14 34 14 58 0
59 8 75 36 75 21 0 23 4 22 43 -1 59 11 165 24 208 8 30 7 42 -11 77 -12 23
-21 56 -21 75 0 19 -8 44 -20 57 -11 12 -22 31 -25 41 -4 11 -10 19 -14 19 -5
0 -14 15 -21 33 -29 78 -44 107 -54 107 -6 0 -20 27 -29 60 -10 33 -23 60 -28
60 -26 0 -68 73 -99 171 -11 32 -24 65 -31 73 -6 7 -24 28 -40 45 -15 18 -31
41 -34 52 -4 10 -11 19 -16 19 -5 0 -9 9 -9 19 0 10 -12 33 -27 49 -47 51 -63
75 -63 93 0 17 -32 59 -45 59 -9 0 -45 40 -45 51 0 4 -17 25 -37 47 -21 22
-45 50 -53 62 -8 12 -23 31 -32 42 -10 12 -18 25 -18 30 0 4 -5 8 -10 8 -18 0
-77 66 -100 110 -12 24 -26 48 -31 54 -25 29 -45 56 -59 76 -8 12 -20 28 -27
35 -26 27 -83 157 -83 189 0 27 -8 44 -34 69 -19 19 -42 50 -51 68 -10 18 -24
39 -32 47 -10 10 -13 31 -10 70 2 31 1 69 -4 85 -9 32 7 77 28 77 7 0 13 5 13
10 0 6 9 10 20 10 11 0 20 5 20 10 0 6 14 10 30 10 17 0 30 2 30 5 0 15 -25
55 -34 55 -7 0 -18 10 -26 21 -8 12 -20 27 -26 33 -7 7 -24 37 -39 67 -15 30
-31 56 -35 59 -17 12 -20 63 -5 106 8 24 15 71 15 104 0 66 7 90 25 90 9 0 12
19 12 63 0 74 14 152 33 187 7 13 15 47 17 75 2 27 8 52 14 53 5 2 9 10 9 18
0 8 8 31 19 52 26 52 34 112 15 112 -8 0 -14 5 -14 10 0 6 -7 10 -16 10 -11 0
-14 5 -10 17 4 9 10 36 13 60 5 38 3 43 -13 43 -15 0 -23 14 -37 63 -10 34
-22 72 -27 85 -6 13 -10 32 -10 43 0 11 -7 34 -16 51 -9 18 -12 33 -6 37 5 3
11 27 14 52 4 38 2 49 -13 60 -23 17 -24 42 -2 64 10 10 16 34 17 61 1 26 6
44 12 44 11 0 24 22 24 41 0 5 -979 9 -2475 9 l-2475 0 0 -1685z"/>
<path fill="#ffffff" stroke="000000" stroke-width="0.01" d="M14900 32120 c0 -5 -7 -10 -15 -10 -8
0 -18 -12 -21 -26 -9 -35 4 -267 18 -322 7 -27 8 -70 3 -115 -10 -95 -8 -190
6 -241 6 -22 13 -77 14 -122 2 -63 8 -91 29 -132 31 -62 32 -81 6 -132 -31
-60 -22 -143 18 -178 39 -34 52 -77 52 -169 1 -48 6 -108 12 -133 5 -25 13
-103 17 -173 4 -72 11 -131 17 -135 23 -15 34 -53 34 -119 0 -37 7 -86 15
-108 8 -22 14 -59 15 -83 0 -24 5 -53 12 -65 7 -12 17 -60 24 -107 7 -47 19
-103 28 -125 8 -22 15 -59 16 -83 0 -23 10 -62 21 -85 22 -41 49 -150 49 -197
1 -14 7 -41 14 -61 13 -36 21 -49 62 -93 41 -44 56 -88 65 -190 4 -56 8 -110
9 -122 0 -12 8 -30 18 -42 9 -11 24 -30 32 -42 8 -12 23 -31 32 -42 17 -20 38
-78 38 -105 0 -6 17 -29 38 -51 20 -22 44 -50 52 -62 15 -22 33 -44 72 -92 13
-15 29 -28 36 -28 6 0 12 -4 12 -10 0 -5 6 -10 14 -10 28 0 68 -155 82 -320
14 -175 31 -260 51 -260 7 0 13 -4 13 -10 0 -5 7 -10 16 -10 16 0 74 -55 74
-71 0 -5 27 -9 60 -9 33 0 60 -4 60 -10 0 -5 7 -10 15 -10 8 0 15 5 15 10 0 6
14 10 30 10 17 0 30 5 30 10 0 6 23 10 50 10 28 0 50 -4 50 -10 0 -5 6 -10 13
-10 7 0 19 -9 27 -20 8 -11 20 -20 27 -20 7 0 13 -4 13 -10 0 -5 7 -10 15 -10
8 0 15 -4 15 -10 0 -5 7 -10 15 -10 8 0 15 -4 15 -10 0 -5 8 -10 18 -10 10 0
24 -9 32 -20 8 -11 25 -20 37 -20 13 0 23 -4 23 -10 0 -5 9 -10 20 -10 11 0
20 -4 20 -10 0 -5 7 -10 15 -10 8 0 15 -4 15 -10 0 -5 11 -10 25 -10 14 0 25
-4 25 -10 0 -5 23 -10 51 -10 46 0 54 -4 87 -39 20 -21 44 -49 52 -61 24 -36
108 -120 119 -120 6 0 11 -4 11 -10 0 -5 11 -10 25 -10 14 0 25 -4 25 -10 0
-5 9 -10 20 -10 11 0 20 -4 20 -10 0 -5 7 -10 15 -10 8 0 15 -4 15 -10 0 -5 9
-10 20 -10 11 0 20 -4 20 -10 0 -5 9 -10 20 -10 11 0 20 -4 20 -10 0 -5 6 -10
13 -10 6 0 23 -14 37 -31 14 -16 37 -44 53 -60 15 -17 27 -36 27 -43 2 -85 22
-199 41 -239 13 -26 27 -47 31 -47 4 0 8 -8 8 -18 0 -11 9 -30 20 -43 11 -13
24 -29 28 -35 5 -5 15 -21 22 -35 7 -13 16 -26 20 -29 4 -3 20 -29 35 -59 15
-30 33 -61 41 -69 8 -7 14 -17 14 -22 0 -5 7 -16 17 -25 11 -11 16 -35 17 -74
1 -48 6 -62 28 -84 15 -15 32 -27 39 -27 21 0 48 -41 55 -86 9 -61 -26 -193
-56 -214 -4 -3 -35 -60 -69 -128 -60 -121 -115 -192 -146 -192 -8 0 -15 -4
-15 -10 0 -5 -16 -10 -35 -10 -19 0 -35 -4 -35 -10 0 -5 -6 -10 -13 -10 -7 0
-19 -9 -27 -20 -8 -11 -22 -20 -32 -20 -10 0 -18 -4 -18 -10 0 -5 -7 -10 -15
-10 -8 0 -15 -4 -15 -10 0 -5 -6 -10 -14 -10 -14 0 -30 -33 -42 -85 -12 -53
-44 -105 -97 -159 -29 -29 -59 -63 -67 -74 -8 -12 -18 -22 -23 -22 -5 0 -22
-13 -37 -30 -15 -16 -31 -30 -34 -30 -6 0 -124 -119 -153 -153 -6 -8 -21 -33
-33 -56 -12 -24 -45 -66 -73 -95 -29 -28 -63 -75 -76 -104 -14 -29 -29 -52
-36 -52 -6 0 -17 -9 -25 -20 -8 -11 -18 -20 -23 -20 -7 0 -79 -72 -114 -113
-6 -8 -28 -47 -48 -87 -38 -76 -56 -100 -74 -100 -6 0 -11 -4 -11 -10 0 -5 -5
-10 -11 -10 -12 0 -49 -38 -49 -50 0 -6 -8 -17 -48 -66 -5 -5 -15 -21 -22 -33
-7 -13 -32 -43 -55 -67 -24 -23 -46 -52 -50 -63 -3 -12 -13 -21 -21 -21 -8 0
-14 -4 -14 -10 0 -5 -7 -10 -15 -10 -8 0 -15 -4 -15 -10 0 -5 -5 -10 -11 -10
-18 0 -109 -100 -115 -128 -4 -15 -24 -62 -45 -104 -22 -43 -39 -84 -39 -92 0
-15 -53 -76 -67 -76 -5 0 -15 -9 -23 -21 -8 -11 -23 -30 -32 -41 -10 -12 -18
-24 -18 -28 0 -4 -9 -17 -19 -29 -11 -12 -27 -48 -36 -79 -9 -31 -21 -70 -26
-87 -6 -16 -13 -40 -16 -52 -3 -13 -9 -23 -13 -23 -4 0 -13 -13 -20 -30 -7
-16 -18 -30 -24 -30 -6 0 -22 -14 -36 -31 -81 -97 -96 -109 -144 -109 -25 0
-46 -4 -46 -10 0 -5 -9 -10 -20 -10 -11 0 -20 -4 -20 -10 0 -5 -7 -10 -15 -10
-8 0 -15 -4 -15 -9 0 -14 -76 -91 -90 -91 -29 0 -100 -106 -100 -149 0 -11 10
-41 22 -65 l22 -45 -17 -156 c-13 -113 -23 -167 -39 -200 -12 -25 -25 -45 -29
-45 -15 0 -20 -88 -9 -150 11 -61 63 -181 81 -188 5 -2 9 -19 9 -38 0 -40 12
-67 45 -100 32 -31 49 -126 41 -221 -4 -43 -7 -85 -8 -93 0 -8 3 -62 8 -120
18 -213 2 -345 -54 -456 -11 -22 -23 -61 -26 -89 -8 -56 -42 -197 -56 -235 -5
-14 -14 -83 -20 -154 -11 -142 -35 -276 -56 -318 -8 -15 -14 -43 -14 -63 0
-19 -4 -35 -8 -35 -15 0 -40 -66 -35 -93 3 -15 1 -27 -4 -27 -17 0 -65 -126
-78 -207 -11 -61 -16 -73 -31 -73 -8 0 -14 -4 -14 -10 0 -5 -9 -10 -20 -10
-11 0 -20 -4 -20 -10 0 -6 -33 -10 -80 -10 -47 0 -80 -4 -80 -10 0 -5 -17 -10
-39 -10 -33 0 -40 -4 -51 -30 -10 -24 -10 -36 0 -60 14 -34 62 -90 77 -90 16
0 33 -47 43 -118 5 -37 14 -83 20 -102 5 -19 10 -59 10 -87 0 -29 4 -53 9 -53
5 0 14 -14 21 -30 15 -36 8 -106 -16 -152 -9 -18 -23 -60 -31 -93 -7 -33 -18
-78 -23 -100 -5 -22 -9 -59 -10 -83 0 -24 -6 -71 -14 -105 -8 -34 -19 -121
-25 -193 -6 -73 -18 -151 -27 -175 -9 -24 -22 -69 -29 -100 -7 -30 -18 -66
-25 -80 -27 -50 -51 -169 -60 -304 -6 -77 -18 -178 -26 -225 -25 -138 -27
-177 -14 -271 12 -80 11 -93 -5 -132 -41 -101 -61 -141 -73 -154 -8 -7 -16
-42 -19 -76 -7 -72 -39 -144 -88 -193 -26 -25 -35 -45 -40 -81 -3 -26 -10 -61
-16 -78 -25 -70 -39 -133 -39 -177 0 -46 -16 -98 -30 -98 -4 0 -11 -17 -15
-37 -4 -20 -15 -54 -26 -75 -25 -50 -24 -108 3 -108 6 0 23 -14 38 -30 15 -17
31 -30 35 -30 14 0 34 -29 70 -100 27 -53 36 -82 32 -104 -6 -39 0 -56 20 -56
28 0 43 -27 42 -77 -1 -26 3 -115 8 -198 11 -173 8 -327 -7 -388 -19 -73 -42
-117 -62 -117 -10 0 -18 -4 -18 -10 0 -5 -7 -10 -15 -10 -21 0 -58 -38 -80
-81 -30 -57 -11 -204 31 -246 7 -7 17 -13 22 -13 16 0 51 -94 68 -185 9 -49
22 -108 29 -130 8 -22 18 -59 25 -82 6 -23 17 -48 24 -56 18 -18 46 -73 46
-90 0 -20 35 -57 54 -57 9 0 16 -4 16 -10 0 -5 11 -10 25 -10 14 0 25 -4 25
-10 0 -5 14 -10 31 -10 35 0 78 -39 99 -90 7 -16 19 -30 26 -30 8 0 14 -4 14
-10 0 -5 7 -10 16 -10 8 0 33 -18 54 -40 21 -22 41 -40 45 -40 12 0 31 -25 39
-50 4 -14 18 -64 30 -112 16 -59 32 -95 49 -112 14 -14 29 -26 32 -26 4 0 24
-18 45 -40 29 -30 46 -40 69 -40 17 0 31 -4 31 -10 0 -5 22 -10 49 -10 30 0
52 -5 55 -12 5 -10 7 -10 12 0 3 6 19 12 35 12 16 0 29 5 29 10 0 6 33 10 80
10 47 0 80 -4 80 -10 0 -6 30 -10 70 -10 40 0 70 -4 70 -10 0 -5 7 -10 15 -10
8 0 15 -4 15 -8 0 -5 8 -18 18 -30 9 -11 24 -30 32 -42 26 -37 47 -60 56 -60
5 0 16 -10 24 -21 8 -12 21 -27 28 -35 7 -7 26 -57 43 -111 30 -96 70 -193 89
-216 40 -47 50 -62 55 -78 4 -11 10 -19 15 -19 5 0 12 -9 15 -20 3 -11 12 -26
20 -33 7 -8 27 -42 45 -77 17 -34 36 -68 41 -74 37 -44 47 -60 69 -105 20 -44
28 -51 52 -51 22 0 29 5 33 28 13 61 56 184 69 198 8 8 22 14 30 14 9 0 16 5
16 10 0 6 40 10 100 10 60 0 100 -4 100 -10 0 -5 25 -10 56 -10 52 0 58 3 94
40 21 22 44 40 50 40 6 0 29 -18 50 -40 21 -22 46 -40 54 -40 9 0 16 -4 16
-10 0 -5 5 -10 10 -10 33 0 84 -81 94 -149 4 -29 16 -52 35 -70 42 -39 58 -78
76 -182 22 -133 24 -139 40 -139 8 0 15 -4 15 -10 0 -5 5 -10 10 -10 19 0 58
-46 85 -101 29 -56 47 -79 64 -79 5 0 13 -9 16 -20 3 -11 10 -20 15 -20 5 0
11 -8 15 -19 3 -10 15 -29 26 -42 11 -12 22 -34 25 -48 2 -14 9 -40 14 -57 14
-43 12 -102 -5 -149 -19 -51 -19 -122 0 -210 24 -119 -1 -324 -45 -355 -19
-14 -33 -61 -40 -144 -16 -169 -56 -316 -85 -316 -6 0 -25 -30 -43 -66 -33
-66 -40 -76 -78 -118 -28 -30 -46 -67 -68 -138 -10 -32 -22 -58 -26 -58 -5 0
-11 -8 -15 -19 -8 -25 -40 -61 -54 -61 -6 0 -11 -4 -11 -10 0 -5 -16 -10 -35
-10 -19 0 -35 -4 -35 -10 0 -5 -13 -10 -30 -10 -16 0 -30 -4 -30 -10 0 -5 -8
-10 -18 -10 -10 0 -24 -10 -32 -21 -8 -12 -35 -43 -60 -70 -64 -69 -67 -73
-92 -123 -12 -25 -26 -46 -30 -46 -4 0 -8 -7 -8 -15 0 -21 -83 -185 -93 -185
-8 0 -38 -30 -79 -79 -6 -7 -15 -30 -19 -50 -11 -54 -38 -121 -54 -138 -8 -8
-15 -19 -15 -24 0 -5 -7 -9 -15 -9 -8 0 -15 -4 -15 -10 0 -5 -7 -10 -15 -10
-8 0 -18 -15 -24 -35 -5 -19 -15 -41 -23 -49 -7 -7 -20 -24 -28 -36 -8 -12
-20 -28 -26 -34 -46 -48 -60 -140 -49 -320 5 -98 10 -126 21 -126 8 0 14 -4
14 -10 0 -5 9 -10 20 -10 11 0 20 -4 20 -10 0 -5 11 -10 25 -10 14 0 25 -4 25
-10 0 -5 11 -10 25 -10 14 0 25 -4 25 -10 0 -5 11 -10 25 -10 14 0 25 -4 25
-10 0 -5 9 -10 20 -10 11 0 20 -4 20 -10 0 -5 11 -10 25 -10 14 0 25 5 25 10
0 6 5 10 11 10 6 0 24 14 39 30 15 17 33 30 39 30 6 0 11 5 11 10 0 6 6 10 13
10 7 0 19 9 27 20 8 11 19 20 25 20 6 0 17 9 25 20 13 17 26 20 102 20 52 0
88 4 88 10 0 6 27 10 60 10 33 0 60 -4 60 -10 0 -5 16 -10 35 -10 19 0 35 -4
35 -10 0 -5 8 -10 18 -10 10 0 24 -9 32 -21 24 -35 67 -79 77 -79 5 0 15 -9
23 -20 8 -11 18 -20 23 -20 4 0 31 -23 59 -52 39 -40 52 -48 59 -37 5 8 9 17
9 20 0 5 13 22 50 66 5 7 15 24 22 38 6 14 15 25 20 25 11 0 -2 52 -18 67 -7
7 -17 13 -23 13 -6 0 -11 4 -11 8 0 5 -8 18 -17 30 -10 11 -25 30 -33 41 -8
12 -18 21 -23 21 -13 0 -33 23 -52 60 -10 19 -23 40 -30 46 -7 7 -15 35 -19
63 -4 28 -10 51 -15 51 -4 0 -16 18 -26 40 -21 47 -47 80 -64 80 -6 0 -11 5
-11 10 0 6 -9 10 -20 10 -11 0 -20 5 -20 10 0 6 -7 10 -15 10 -8 0 -18 15 -24
35 -11 40 17 164 43 190 8 9 20 35 26 58 21 83 71 217 89 239 42 50 71 78 80
78 6 0 11 5 11 10 0 6 5 10 11 10 6 0 17 7 26 15 16 17 14 48 -8 141 -12 50
-12 52 14 78 14 14 37 26 52 26 14 0 25 5 25 10 0 6 8 10 18 10 10 0 24 9 32
20 8 11 19 20 25 20 6 0 17 9 25 20 8 11 19 20 25 20 22 0 55 92 52 145 -2 48
26 135 43 135 4 0 13 14 20 30 7 16 16 30 21 30 5 0 12 12 15 27 4 16 24 63
45 105 22 43 39 84 39 91 0 20 35 57 54 57 9 0 16 5 16 10 0 6 6 10 14 10 21
0 26 23 26 128 0 52 6 112 12 131 13 37 15 40 48 80 11 13 20 32 20 42 0 10 6
24 14 31 20 21 42 67 71 149 50 143 56 170 49 247 -4 42 -2 83 4 100 6 15 20
60 33 101 21 73 21 77 5 145 -9 39 -16 83 -16 98 0 17 -14 40 -40 68 -21 22
-44 57 -49 76 -14 50 7 113 54 160 21 21 22 29 17 123 -5 99 7 161 30 161 18
0 40 31 59 83 24 66 24 85 -3 166 -23 67 -38 91 -57 91 -6 0 -11 5 -11 10 0 6
-7 10 -15 10 -8 0 -15 4 -15 9 0 6 -26 37 -57 70 -76 79 -77 81 -104 132 -12
24 -30 51 -39 59 -9 8 -25 30 -34 49 -10 18 -36 53 -59 77 -23 24 -61 64 -84
88 -23 24 -51 63 -63 86 -25 50 -83 110 -105 110 -8 0 -15 5 -15 10 0 6 -20
10 -45 10 -35 0 -52 6 -70 25 -14 13 -25 30 -25 38 0 8 -9 24 -20 37 -11 13
-20 27 -20 32 0 4 -7 8 -15 8 -8 0 -15 5 -15 10 0 6 -6 10 -14 10 -14 0 -30
32 -42 85 -8 32 -26 55 -43 55 -6 0 -11 5 -11 10 0 6 -11 10 -25 10 -14 0 -25
5 -25 10 0 6 -7 10 -15 10 -8 0 -15 5 -15 10 0 6 -9 10 -20 10 -11 0 -20 5
-20 10 0 6 -13 10 -30 10 -16 0 -30 5 -30 10 0 6 -5 10 -11 10 -6 0 -32 23
-59 50 -27 28 -53 50 -59 50 -6 0 -11 5 -11 10 0 6 -20 10 -45 10 -25 0 -45 5
-45 10 0 6 -5 10 -11 10 -27 0 -55 50 -80 140 -21 79 -43 140 -68 188 -10 21
-22 52 -26 71 -11 51 -26 61 -91 61 -59 0 -85 16 -99 61 -4 11 -10 19 -14 19
-9 0 -32 51 -53 115 -7 22 -28 55 -45 73 -27 26 -33 41 -33 75 -1 60 -15 123
-31 140 -8 8 -21 24 -29 36 -8 11 -20 21 -27 21 -7 0 -13 5 -13 10 0 6 -9 10
-20 10 -11 0 -20 5 -20 10 0 6 -11 10 -25 10 -14 0 -25 5 -25 10 0 6 -9 10
-20 10 -11 0 -20 5 -20 10 0 6 -9 10 -20 10 -11 0 -20 5 -20 10 0 6 -7 10 -15
10 -8 0 -15 5 -15 10 0 6 -6 10 -13 10 -7 0 -19 9 -27 20 -8 11 -19 20 -24 20
-13 0 -46 41 -51 64 -2 12 -6 41 -10 64 -7 51 -37 115 -71 148 -13 14 -28 43
-34 67 -15 57 -31 97 -40 97 -4 0 -12 11 -18 25 -13 27 -17 33 -63 85 -16 18
-29 34 -29 37 0 12 26 51 50 73 15 14 30 37 33 51 4 14 14 35 24 46 10 12 25
31 33 43 29 43 48 60 64 60 9 0 16 5 16 10 0 6 15 10 34 10 34 0 42 10 61 76
8 30 39 64 59 64 9 0 16 5 16 10 0 6 6 10 14 10 8 0 18 9 21 20 3 11 13 20 21
20 8 0 14 5 14 10 0 6 11 10 25 10 14 0 25 5 25 10 0 6 10 10 23 10 12 0 29 9
37 21 8 11 22 29 30 39 8 10 22 28 30 39 8 12 20 21 27 21 7 0 13 5 13 10 0 6
9 10 19 10 25 0 33 21 40 105 6 68 6 71 -24 101 -38 40 -65 76 -65 86 0 4 -5
8 -10 8 -34 0 -115 118 -131 190 -5 19 -17 73 -28 120 -14 61 -16 90 -9 104
17 31 76 86 93 86 8 0 15 5 15 10 0 6 11 10 25 10 14 0 25 5 25 10 0 6 5 10
11 10 14 0 39 26 39 40 0 6 7 25 16 42 13 24 14 39 6 70 -16 62 -9 68 68 68
l67 0 18 -39 c19 -42 17 -96 -7 -208 -13 -61 0 -141 34 -207 22 -42 23 -45 68
-95 16 -18 30 -37 30 -41 0 -4 13 -22 29 -39 28 -29 33 -31 105 -31 44 0 76 4
76 10 0 6 7 10 15 10 8 0 15 5 15 10 0 6 9 10 20 10 11 0 20 5 20 10 0 6 9 10
20 10 11 0 20 5 20 10 0 6 7 10 15 10 8 0 15 5 15 10 0 6 14 10 30 10 17 0 30
-4 30 -10 0 -5 18 -10 40 -10 22 0 40 -4 40 -10 0 -5 6 -10 13 -10 7 0 19 -9
27 -20 11 -15 26 -20 63 -20 44 0 53 -4 87 -40 21 -22 41 -40 45 -40 10 0 65
-60 65 -71 0 -12 137 -149 150 -149 5 0 10 -4 10 -10 0 -5 6 -10 13 -10 7 0
19 -9 27 -20 8 -11 20 -20 27 -20 7 0 13 -4 13 -10 0 -5 7 -10 15 -10 8 0 15
-4 15 -10 0 -5 7 -10 15 -10 8 0 15 -4 15 -8 0 -8 8 -19 48 -68 5 -5 15 -21
22 -34 17 -31 35 -50 49 -50 6 0 11 -4 11 -10 0 -5 6 -10 13 -10 7 0 19 -9 27
-20 8 -11 22 -20 32 -20 10 0 18 -4 18 -10 0 -5 14 -10 30 -10 17 0 30 -4 30
-10 0 -5 11 -10 25 -10 14 0 25 -4 25 -10 0 -5 11 -10 25 -10 14 0 25 5 25 10
0 6 18 10 40 10 22 0 40 5 40 10 0 6 11 10 25 10 14 0 25 5 25 10 0 6 11 10
25 10 14 0 25 5 25 10 0 6 5 10 11 10 14 0 46 36 54 61 4 11 10 19 15 19 5 0
12 9 15 20 3 11 12 20 20 20 8 0 16 8 20 19 3 10 13 28 23 39 9 11 24 30 32
41 10 15 25 21 52 21 21 0 38 5 38 10 0 6 28 10 65 10 37 0 65 4 65 10 0 6 9
10 20 10 11 0 20 5 20 10 0 6 7 10 15 10 8 0 15 5 15 10 0 6 7 10 15 10 8 0
15 5 15 10 0 6 11 10 25 10 14 0 25 5 25 10 0 6 14 10 30 10 17 0 30 -4 30
-10 0 -5 16 -10 35 -10 19 0 35 -4 35 -10 0 -5 7 -10 15 -10 8 0 15 -4 15 -10
0 -5 6 -10 13 -10 7 0 19 -9 27 -20 8 -11 22 -20 32 -20 10 0 18 -4 18 -10 0
-5 5 -10 10 -10 14 0 54 -40 70 -70 14 -26 24 -39 56 -74 34 -36 56 -85 71
-160 14 -69 52 -156 79 -184 8 -7 14 -18 14 -23 0 -5 38 -9 85 -9 50 0 85 4
85 10 0 6 9 10 20 10 11 0 20 5 20 10 0 6 5 10 11 10 11 0 73 62 99 99 8 11
20 21 27 21 7 0 13 5 13 10 0 6 11 10 25 10 14 0 25 5 25 10 0 6 16 10 35 10
19 0 35 5 35 10 0 6 9 10 19 10 11 0 23 9 26 20 3 11 10 20 15 20 5 0 12 9 15
20 3 11 13 27 21 35 9 8 19 49 24 96 9 81 5 103 -24 136 -27 30 -35 42 -51 72
-9 18 -25 58 -35 89 -27 86 -41 112 -61 112 -10 0 -21 9 -24 20 -4 12 -22 36
-40 55 -19 18 -48 62 -66 97 -17 34 -40 70 -50 79 -13 11 -19 30 -19 58 0 42
-12 74 -36 98 -15 15 -104 18 -104 3 0 -5 -6 -10 -13 -10 -7 0 -19 -9 -27 -20
-11 -16 -26 -20 -67 -20 -29 0 -53 5 -53 10 0 6 -6 10 -13 10 -7 0 -19 9 -27
20 -8 11 -20 20 -27 20 -7 0 -13 5 -13 10 0 6 -8 10 -18 10 -10 0 -24 10 -32
21 -23 32 -87 99 -97 99 -4 0 -19 14 -33 31 -57 68 -79 89 -94 89 -9 0 -16 5
-16 10 0 6 -5 10 -11 10 -12 0 -69 57 -69 70 0 11 -36 50 -46 50 -5 0 -16 9
-24 20 -8 11 -20 20 -27 20 -7 0 -13 5 -13 10 0 6 -9 10 -20 10 -11 0 -20 5
-20 10 0 6 -32 10 -75 10 -43 0 -75 4 -75 10 0 6 -11 10 -25 10 -14 0 -25 5
-25 10 0 6 -42 10 -105 10 -63 0 -105 4 -105 10 0 6 -7 10 -15 10 -8 0 -15 5
-15 10 0 6 -7 10 -15 10 -8 0 -15 5 -15 10 0 6 -7 10 -15 10 -8 0 -15 5 -15
10 0 6 -33 10 -78 10 -66 0 -80 3 -92 20 -8 11 -22 20 -32 20 -10 0 -18 5 -18
10 0 6 -9 10 -20 10 -11 0 -20 5 -20 10 0 6 -7 10 -15 10 -19 0 -57 36 -75 71
-7 13 -21 55 -31 93 -10 38 -22 72 -27 75 -18 12 -42 71 -42 104 0 59 -21 150
-46 199 -13 26 -28 76 -34 110 -5 35 -19 115 -30 178 -12 63 -25 187 -30 275
-5 88 -17 237 -26 330 -23 234 -24 468 -3 520 40 97 69 267 75 435 7 168 -1
234 -30 263 -35 35 -47 80 -56 215 -12 172 -15 455 -5 548 5 47 4 78 -4 91 -8
17 -6 35 10 85 12 35 24 109 28 168 6 78 14 116 31 149 16 33 21 54 16 82 -4
24 -1 51 8 71 8 18 27 74 42 123 36 120 46 138 110 201 44 45 60 54 89 54 19
0 35 5 35 10 0 6 12 10 26 10 28 0 84 51 84 77 0 31 -64 123 -86 123 -14 0
-44 44 -54 79 -28 93 -23 193 19 432 22 122 45 203 79 279 11 25 28 65 38 89
18 42 64 101 81 101 4 0 19 14 33 31 14 16 37 44 53 61 l27 31 20 -23 c11 -13
20 -27 20 -31 0 -4 18 -26 39 -48 26 -27 48 -41 65 -41 14 0 26 5 26 10 0 6
16 10 35 10 59 0 115 73 115 149 0 47 18 91 37 91 7 0 13 5 13 10 0 6 9 10 19
10 26 0 35 31 32 107 -1 52 3 72 30 124 17 35 37 69 45 76 8 8 14 19 14 24 0
5 5 9 11 9 13 0 69 58 69 71 0 5 11 9 23 9 18 0 28 -10 42 -40 10 -22 22 -40
26 -40 4 0 12 -15 18 -32 5 -18 14 -46 20 -63 6 -16 13 -42 16 -56 8 -42 58
-89 94 -89 17 0 31 -4 31 -10 0 -5 20 -10 45 -10 25 0 45 5 45 10 0 6 14 10
30 10 17 0 30 5 30 10 0 6 16 10 35 10 19 0 35 5 35 10 0 6 11 10 25 10 14 0
25 5 25 10 0 6 19 10 41 10 48 0 73 -22 88 -76 9 -32 32 -64 46 -64 27 0 55
-86 55 -172 0 -82 16 -128 44 -128 27 0 37 20 62 125 20 84 47 141 84 175 34
32 56 75 65 125 15 87 60 195 82 195 7 0 13 5 13 10 0 6 9 10 20 10 11 0 20 5
20 10 0 6 14 10 30 10 17 0 30 5 30 10 0 6 12 10 26 10 48 0 59 24 59 129 0
87 -5 116 -37 219 -11 36 0 120 29 221 9 29 19 83 24 120 10 86 28 200 34 227
3 12 18 36 35 54 44 48 46 69 11 138 -17 34 -31 75 -31 92 0 17 -7 45 -16 62
-9 18 -20 73 -24 128 -7 87 -27 154 -50 170 -4 3 -22 34 -40 69 -17 36 -37 70
-44 77 -6 7 -17 21 -25 30 -8 9 -27 53 -43 98 -17 44 -36 97 -43 116 -8 19
-14 50 -15 68 0 18 -11 54 -24 80 -12 26 -38 108 -56 182 -18 74 -41 152 -51
172 -11 21 -19 48 -19 62 0 13 -6 31 -13 38 -24 24 -36 93 -42 233 -6 145 -33
284 -69 353 -10 19 -26 59 -36 90 -20 65 -61 152 -70 152 -10 0 -47 89 -70
170 -12 41 -28 94 -36 118 -8 23 -14 47 -14 53 0 14 -26 39 -39 39 -6 0 -11 5
-11 10 0 6 -11 10 -25 10 -14 0 -25 5 -25 10 0 6 -18 10 -40 10 -22 0 -40 -4
-40 -10 0 -5 -11 -10 -25 -10 -14 0 -25 -4 -25 -10 0 -5 -5 -10 -11 -10 -6 0
-24 -15 -40 -32 -41 -46 -45 -51 -59 -78 -18 -34 -36 -50 -56 -50 -17 0 -54
35 -54 52 0 4 -7 8 -15 8 -8 0 -15 5 -15 10 0 6 -11 10 -25 10 -14 0 -25 5
-25 10 0 6 -7 10 -15 10 -8 0 -15 5 -15 10 0 6 -6 10 -13 10 -7 0 -19 9 -27
20 -8 11 -22 20 -32 20 -10 0 -18 5 -18 10 0 6 -5 10 -11 10 -15 0 -34 21 -54
60 -20 39 -39 60 -54 60 -6 0 -11 5 -11 10 0 6 -5 10 -11 10 -26 0 -69 78 -69
126 0 13 -54 74 -65 74 -4 0 -24 18 -45 40 -36 37 -42 40 -94 40 -31 0 -56 5
-56 10 0 6 -16 10 -35 10 -19 0 -35 5 -35 10 0 6 -7 10 -16 10 -9 0 -29 14
-44 30 -15 17 -33 30 -39 30 -6 0 -11 5 -11 10 0 6 -5 10 -11 10 -6 0 -28 18
-49 40 -21 22 -43 40 -49 40 -6 0 -11 5 -11 10 0 6 -13 10 -30 10 -16 0 -30 5
-30 10 0 6 -7 10 -15 10 -8 0 -15 5 -15 10 0 6 -5 10 -11 10 -6 0 -24 14 -39
30 -15 17 -31 30 -34 30 -13 0 -145 140 -151 160 -3 11 -10 20 -14 20 -8 0
-35 56 -46 98 -4 12 -10 22 -15 22 -4 0 -11 18 -15 40 -4 22 -13 46 -20 53 -7
7 -20 28 -29 46 -10 18 -41 57 -69 86 -68 69 -87 95 -87 117 0 10 -4 18 -9 18
-5 0 -13 9 -16 20 -3 11 -12 20 -18 20 -7 0 -19 9 -27 21 -8 12 -27 35 -42 51
-16 17 -28 34 -28 39 0 14 -70 11 -85 -4 -7 -7 -23 -33 -35 -57 -25 -48 -43
-70 -59 -70 -6 0 -11 -4 -11 -10 0 -6 -29 -10 -68 -10 -63 0 -70 2 -80 24 -13
28 -28 113 -37 208 -5 56 -12 73 -36 99 -16 17 -29 39 -29 49 0 25 34 60 59
60 11 0 21 5 21 10 0 6 23 10 50 10 28 0 50 5 50 10 0 6 6 10 14 10 11 0 26
20 26 35 0 12 -61 65 -75 65 -21 0 -52 33 -60 64 -14 50 -39 96 -52 96 -27 0
-73 69 -73 109 0 30 -32 91 -47 91 -7 0 -13 5 -13 10 0 6 -9 10 -20 10 -11 0
-20 5 -20 10 0 6 -5 10 -11 10 -9 0 -56 46 -95 93 -41 49 -59 128 -69 307 -8
134 -19 180 -45 180 -11 0 -20 5 -20 10 0 6 -7 10 -16 10 -9 0 -29 14 -44 30
-15 17 -33 30 -39 30 -6 0 -11 5 -11 10 0 6 -16 10 -35 10 -37 0 -35 -3 -61
105 -8 32 -26 55 -43 55 -6 0 -11 5 -11 10 0 6 -7 10 -15 10 -8 0 -18 16 -25
40 -5 22 -15 58 -20 79 -10 39 -58 101 -78 101 -6 0 -14 9 -17 20 -3 11 -10
20 -15 20 -5 0 -14 18 -20 40 -6 22 -15 40 -20 40 -21 0 -31 83 -24 203 4 68
3 153 0 190 -7 62 -9 67 -32 67 -13 0 -24 5 -24 10 0 6 -13 10 -30 10 -16 0
-30 5 -30 10 0 6 -16 10 -35 10 -19 0 -35 5 -35 10 0 6 -13 10 -30 10 -16 0
-30 5 -30 10 0 19 -65 11 -80 -10 -12 -16 -26 -20 -72 -20 -48 0 -58 3 -63 20
-3 11 -10 20 -14 20 -5 0 -14 14 -21 30 -7 17 -16 30 -20 30 -4 0 -13 14 -20
30 -7 17 -16 30 -19 30 -4 0 -20 27 -36 60 -16 33 -32 60 -36 60 -4 0 -11 9
-14 20 -3 11 -13 20 -21 20 -8 0 -14 5 -14 10 0 6 -22 10 -50 10 -27 0 -50 -4
-50 -10z"/>
<path fill="#ffffff" stroke="000000" stroke-width="0.01" d="M17614 12237 c29 -29 38 -57 22 -72 -8
-8 -24 -15 -34 -15 -11 0 -23 -6 -26 -12 -5 -10 -7 -10 -12 0 -3 6 -14 12 -24
12 -22 0 -44 51 -35 79 5 17 15 21 51 21 25 0 51 -6 58 -13z"/>
</g>
</svg>
