<?xml version="1.0" standalone="no"?>
<!DOCTYPE svg PUBLIC "-//W3C//DTD SVG 20010904//EN"
 "http://www.w3.org/TR/2001/REC-SVG-20010904/DTD/svg10.dtd">
<svg version="1.0" xmlns="http://www.w3.org/2000/svg"
 width="3506.000000pt" height="3950.000000pt" viewBox="0 0 3506.000000 3950.000000"
 preserveAspectRatio="xMidYMid meet">
<metadata>
Created by potrace 1.15, written by Peter Selinger 2001-2017
</metadata>
<g transform="translate(0.000000,3950.000000) scale(0.100000,-0.100000)"
fill="#ffffff" stroke="000000" stroke-width="0.01">
<path fill="#ffffff" stroke="000000" stroke-width="0.01" d="M0 38126 c0 -1157 2 -1377 14 -1388 7
-8 24 -34 36 -59 13 -24 30 -51 39 -59 18 -17 39 -67 51 -120 4 -19 15 -52 24
-72 9 -21 23 -54 31 -74 8 -19 21 -42 28 -50 42 -49 66 -74 74 -74 5 0 15 -9
23 -21 8 -12 26 -34 40 -49 14 -15 32 -37 40 -49 8 -12 21 -21 29 -21 26 0 49
-39 49 -84 -1 -23 4 -51 10 -62 11 -18 11 -17 12 6 1 24 1 24 12 5 6 -10 22
-30 34 -42 13 -13 28 -40 34 -62 10 -37 40 -81 55 -81 4 0 20 -13 35 -30 15
-16 32 -30 37 -30 5 0 25 -32 44 -71 19 -40 42 -80 51 -91 9 -11 19 -37 23
-59 4 -21 11 -39 16 -39 5 0 9 -8 9 -18 0 -17 7 -28 49 -78 5 -6 18 -29 30
-51 17 -34 18 -46 9 -70 -12 -32 -4 -83 13 -83 21 0 39 -29 39 -64 0 -19 7
-41 15 -50 8 -8 15 -20 15 -26 0 -6 11 -22 24 -35 14 -13 27 -34 31 -45 3 -11
10 -20 15 -20 5 0 12 -9 15 -20 9 -28 100 -120 119 -120 8 0 18 -9 21 -20 3
-11 13 -20 21 -20 8 0 14 -4 14 -10 0 -5 9 -10 20 -10 19 0 21 -4 35 -74 2
-10 -3 -33 -12 -49 -13 -26 -14 -41 -5 -96 6 -36 10 -91 9 -121 -2 -61 26
-140 50 -140 7 0 13 -4 13 -10 0 -5 6 -10 14 -10 8 0 18 -10 21 -22 15 -53 28
-78 41 -78 10 0 13 -7 8 -24 -8 -33 27 -96 54 -96 17 0 37 -63 38 -120 2 -78
2 -80 20 -80 19 0 54 -37 54 -56 0 -7 -5 -25 -12 -39 -9 -20 -18 -25 -50 -25
-21 0 -38 -4 -38 -10 0 -5 -11 -10 -25 -10 -14 0 -25 -4 -25 -10 0 -5 -18 -10
-40 -10 -22 0 -40 -4 -40 -10 0 -5 -7 -10 -15 -10 -8 0 -15 5 -15 10 0 6 -43
10 -110 10 -67 0 -110 -4 -110 -10 0 -5 -7 -10 -15 -10 -8 0 -15 -4 -15 -10 0
-5 -9 -10 -20 -10 -11 0 -20 -4 -20 -10 0 -5 -18 -10 -40 -10 -22 0 -40 -4
-40 -10 0 -5 -9 -10 -20 -10 -11 0 -20 -4 -20 -10 0 -5 -7 -10 -15 -10 -8 0
-15 -4 -15 -10 0 -5 -5 -10 -11 -10 -13 0 -31 -18 -47 -45 -6 -11 -12 -14 -12
-7 0 29 -19 9 -25 -28 -4 -22 -11 -40 -16 -40 -5 0 -9 5 -9 10 0 6 -13 10 -30
10 -16 0 -30 5 -30 10 0 6 -7 10 -15 10 -8 0 -15 -4 -15 -10 0 -5 -11 -10 -25
-10 -14 0 -25 -4 -25 -10 0 -5 -11 -10 -25 -10 -14 0 -25 -4 -25 -10 0 -5 -11
-10 -25 -10 -14 0 -25 -4 -25 -10 0 -5 -7 -10 -15 -10 -8 0 -15 -4 -15 -10 0
-5 -11 -10 -25 -10 -14 0 -25 -4 -25 -10 0 -5 -13 -10 -30 -10 -16 0 -30 -4
-30 -10 0 -5 -13 -10 -30 -10 -16 0 -30 -4 -30 -10 0 -5 -16 -10 -35 -10 -19
0 -35 -4 -35 -10 0 -5 -11 -10 -25 -10 -14 0 -25 -4 -25 -10 0 -5 -11 -10 -25
-10 -14 0 -25 -4 -25 -10 0 -5 -9 -10 -20 -10 -11 0 -20 -4 -20 -10 0 -5 -9
-10 -20 -10 -11 0 -20 -4 -20 -10 0 -6 -28 -10 -65 -10 l-65 0 0 -13370 0
-13370 35 0 c19 0 35 5 35 10 0 6 9 10 20 10 11 0 20 -4 20 -10 0 -5 9 -10 20
-10 11 0 20 -4 20 -10 0 -5 7 -10 15 -10 8 0 15 -4 15 -10 0 -5 9 -10 19 -10
24 0 33 -23 25 -69 -9 -60 -25 -91 -45 -91 -11 0 -19 -4 -19 -10 0 -5 -11 -10
-25 -10 -14 0 -25 -4 -25 -10 0 -5 -25 -10 -55 -10 l-55 0 0 -236 c0 -159 4
-242 12 -257 13 -25 34 -47 44 -47 6 0 14 -8 66 -73 13 -15 35 -41 50 -58 15
-16 30 -40 33 -52 3 -12 16 -43 27 -69 18 -40 19 -52 10 -74 -10 -20 -9 -28 3
-40 8 -9 15 -19 15 -23 0 -15 38 -51 54 -51 9 0 16 -4 16 -10 0 -5 7 -10 15
-10 18 0 17 4 5 -82 -9 -64 -36 -138 -50 -138 -4 0 -10 -20 -13 -44 -9 -63
-86 -216 -109 -216 -10 0 -18 -4 -18 -10 0 -5 -7 -10 -15 -10 -8 0 -15 -4 -15
-10 0 -5 -7 -10 -15 -10 -8 0 -15 -4 -15 -10 0 -5 -5 -10 -11 -10 -6 0 -28
-18 -50 -41 l-39 -41 0 -804 c0 -794 0 -805 21 -845 24 -48 102 -129 124 -129
8 0 15 -4 15 -10 0 -5 9 -10 19 -10 11 0 23 -9 26 -20 3 -11 10 -20 16 -20 5
0 8 -37 8 -83 -1 -66 3 -91 20 -124 11 -23 21 -49 21 -57 0 -8 18 -33 40 -56
22 -23 40 -46 40 -51 0 -5 14 -9 30 -9 17 0 30 -4 30 -10 0 -5 11 -10 25 -10
14 0 25 -4 25 -10 0 -5 7 -10 15 -10 8 0 15 -4 15 -10 0 -5 7 -10 16 -10 23 0
40 -21 47 -60 3 -19 15 -77 26 -129 12 -52 21 -117 21 -144 0 -44 35 -171 61
-220 6 -11 34 -43 63 -72 28 -28 58 -62 66 -75 23 -35 128 -140 139 -140 6 0
11 -4 11 -10 0 -5 7 -10 15 -10 8 0 15 -4 15 -10 0 -5 9 -10 20 -10 11 0 20
-4 20 -10 0 -5 7 -10 15 -10 8 0 15 -4 15 -10 0 -5 8 -10 18 -10 10 0 24 -9
32 -20 8 -11 18 -20 23 -20 4 0 30 -22 57 -50 27 -27 56 -50 64 -50 9 0 16 -4
16 -10 0 -5 9 -10 20 -10 11 0 20 -4 20 -10 0 -5 15 -10 33 -10 30 0 36 -5 53
-42 19 -42 124 -158 143 -158 6 0 15 -18 21 -40 5 -22 15 -59 21 -82 7 -24 11
-93 10 -155 -2 -129 5 -183 25 -183 8 0 14 -4 14 -10 0 -5 9 -10 20 -10 23 0
25 -6 8 -25 -54 -60 -57 -70 -43 -163 11 -77 11 -86 -11 -150 -13 -37 -23 -91
-24 -119 l0 -53 2285 0 2285 0 -19 43 c-52 115 -53 121 -41 170 9 34 9 67 1
125 -7 56 -7 90 1 118 5 21 8 68 5 103 -3 36 0 75 6 88 9 20 17 23 71 23 50 0
64 4 76 20 8 11 22 20 31 20 19 0 35 35 44 98 6 37 10 42 32 42 14 0 35 10 45
23 17 19 19 30 13 77 -10 81 -6 169 11 214 9 23 18 50 21 61 4 10 21 34 39 52
18 17 35 41 39 53 3 11 12 20 19 20 19 0 34 40 51 141 9 50 21 98 28 105 7 7
18 20 25 28 7 9 12 44 12 86 0 56 5 81 25 120 15 29 25 66 25 90 0 23 4 72 10
111 6 38 15 101 20 140 13 89 48 159 78 159 20 0 35 60 27 108 -11 63 -10 84
4 176 17 109 6 136 -56 136 -39 0 -49 5 -83 40 -36 38 -60 90 -60 132 0 9 -5
29 -12 43 -10 22 -17 25 -59 25 -39 0 -49 4 -54 20 -3 11 -10 20 -15 20 -5 0
-11 9 -15 19 -9 29 -60 81 -79 81 -9 0 -16 5 -16 10 0 6 -12 10 -26 10 -25 0
-84 50 -84 71 0 5 -7 9 -15 9 -8 0 -15 5 -15 10 0 6 -7 10 -15 10 -8 0 -15 5
-15 10 0 6 -7 10 -15 10 -8 0 -15 5 -15 10 0 6 -7 10 -15 10 -8 0 -15 4 -15 9
0 18 -119 131 -137 131 -10 0 -25 9 -33 20 -16 22 -36 26 -42 9 -2 -6 -12 7
-22 30 -12 26 -26 41 -38 41 -10 0 -18 5 -18 10 0 6 -7 10 -15 10 -8 0 -15 5
-15 10 0 6 -5 10 -11 10 -17 0 -49 40 -49 60 0 17 -32 60 -44 60 -12 0 -54 46
-71 80 -9 18 -31 47 -48 65 -18 18 -39 42 -47 54 -14 21 -36 49 -60 78 -6 7
-13 34 -16 60 -6 55 -23 103 -35 103 -4 0 -11 9 -14 20 -4 11 -27 42 -53 70
-66 70 -72 77 -72 95 0 8 -6 15 -13 15 -7 0 -19 9 -27 21 -8 11 -22 29 -30 39
-9 10 -26 41 -40 69 -14 30 -30 51 -40 51 -8 0 -22 10 -30 21 -8 12 -20 27
-26 33 -24 26 -54 97 -54 129 0 31 -27 77 -45 77 -13 0 -64 60 -70 83 -13 48
-39 97 -50 97 -16 0 -29 31 -17 39 9 6 52 85 52 96 0 3 -7 5 -15 5 -8 0 -15 5
-15 10 0 6 -7 10 -15 10 -8 0 -15 5 -15 10 0 6 -6 10 -13 10 -7 0 -19 9 -27
20 -8 11 -22 20 -32 20 -10 0 -18 5 -18 10 0 6 -7 10 -15 10 -8 0 -15 5 -15
10 0 6 -11 10 -25 10 -14 0 -25 5 -25 10 0 6 -5 10 -11 10 -15 0 -109 99 -109
115 0 19 22 65 30 65 4 0 13 14 20 30 16 38 1 79 -46 125 -39 39 -60 78 -69
128 -9 44 -54 97 -84 97 -12 0 -21 6 -21 13 -1 89 -32 247 -49 247 -4 0 -20
27 -36 60 -16 33 -35 60 -42 60 -7 0 -13 5 -13 10 0 6 -8 10 -18 10 -25 0 -37
29 -58 138 -17 92 -17 92 5 160 22 65 22 70 7 101 -11 20 -16 51 -15 89 2 31
-1 116 -6 187 -7 113 -6 135 9 163 16 31 16 33 -10 84 -14 28 -32 57 -39 64
-6 7 -15 48 -20 91 -10 102 -10 101 9 151 14 37 14 46 2 70 -7 15 -17 59 -20
97 -8 81 -23 145 -34 145 -5 0 -23 30 -41 68 l-32 67 14 70 c13 62 13 73 -1
100 -13 25 -13 39 -3 88 15 73 30 107 48 107 7 0 13 5 13 10 0 6 7 10 16 10
20 0 47 30 64 70 7 17 16 30 20 30 6 0 23 35 51 108 5 13 6 41 3 62 -6 39 9
70 35 70 6 0 11 5 11 10 0 6 6 10 13 10 9 0 19 22 27 58 7 31 19 79 28 105 13
41 14 54 3 80 -7 18 -17 48 -21 67 -26 106 -126 353 -150 370 -36 25 -62 164
-60 321 1 68 -3 95 -18 125 -14 29 -21 68 -24 152 -5 95 -9 115 -25 130 -38
33 -73 124 -73 192 0 25 -7 77 -16 115 -8 39 -21 106 -28 150 -8 44 -23 105
-35 135 -12 30 -26 83 -32 118 -6 34 -14 62 -18 62 -11 0 -39 63 -46 104 -4
20 -11 36 -15 36 -4 0 -13 14 -20 30 -7 17 -16 30 -21 30 -4 0 -10 9 -14 19
-9 29 -60 81 -79 81 -9 0 -16 5 -16 10 0 6 -7 10 -16 10 -19 0 -50 33 -59 61
-4 11 -10 19 -14 19 -17 0 -33 61 -31 117 3 79 4 77 -30 113 -16 18 -30 39
-30 46 0 8 -9 33 -21 56 -11 22 -29 67 -39 99 -20 61 -36 95 -54 116 -25 28
-34 40 -46 63 -14 26 -24 39 -56 74 -37 39 -54 83 -54 135 0 62 7 81 31 81 10
0 19 5 19 10 0 6 7 10 16 10 8 0 21 6 28 13 19 19 46 73 46 93 0 10 5 32 11
49 13 36 7 76 -16 99 -14 14 -14 19 1 48 21 39 54 186 47 205 -4 9 -32 13
-103 13 l-98 0 -12 30 c-12 29 -30 41 -30 20 0 -5 -9 -10 -20 -10 -11 0 -20
-4 -20 -10 0 -5 -22 -10 -50 -10 -27 0 -50 5 -50 10 0 6 -7 10 -16 10 -8 0
-37 23 -64 50 -27 28 -53 50 -59 50 -6 0 -11 5 -11 10 0 6 -7 10 -15 10 -8 0
-15 9 -15 20 0 16 -7 20 -33 20 -31 0 -35 4 -62 60 -16 33 -35 60 -42 60 -7 0
-13 5 -13 10 0 6 -6 10 -13 10 -7 0 -19 9 -27 20 -8 11 -20 20 -27 20 -6 0
-15 21 -19 48 -4 26 -15 63 -25 84 -28 56 -71 181 -69 203 5 69 -1 97 -30 154
-17 36 -28 67 -22 70 16 11 29 45 36 96 4 28 11 61 16 75 4 14 14 53 20 88 11
55 15 62 36 62 13 0 24 5 24 10 0 6 7 10 15 10 8 0 15 5 15 10 0 6 11 10 25
10 14 0 25 5 25 10 0 6 13 10 30 10 24 0 31 5 36 28 4 15 20 53 36 85 28 57
45 147 27 147 -10 0 -12 62 -3 109 4 17 13 31 21 31 20 0 38 21 47 53 3 15 13
27 21 27 8 0 15 5 15 10 0 6 9 10 20 10 11 0 20 -4 20 -10 0 -21 43 -9 70 20
15 17 31 30 35 30 12 0 35 29 35 44 0 11 9 16 28 16 16 0 34 8 42 20 8 11 25
20 37 20 13 0 23 5 23 10 0 6 6 10 14 10 8 0 16 6 19 13 3 8 11 5 24 -10 11
-13 25 -23 32 -23 6 0 11 -4 11 -10 0 -5 9 -10 20 -10 11 0 20 -4 20 -10 0 -5
7 -10 15 -10 8 0 15 5 15 10 0 6 7 10 15 10 8 0 15 5 15 10 0 6 20 10 45 10
25 0 45 5 45 10 0 6 14 10 30 10 17 0 30 5 30 10 0 6 9 10 20 10 11 0 20 4 20
9 0 15 57 71 73 71 9 0 18 6 21 13 5 9 7 9 12 0 7 -15 54 -17 54 -3 0 6 7 10
15 10 8 0 15 5 15 10 0 6 18 10 40 10 22 0 40 4 40 10 0 5 11 20 23 32 13 13
27 36 31 51 3 15 13 27 21 27 8 0 15 5 15 10 0 6 12 10 26 10 32 0 53 21 65
65 8 28 15 35 34 35 14 0 25 5 25 10 0 6 11 10 24 10 16 0 27 7 31 20 3 11 12
20 19 20 7 0 23 22 36 50 13 27 29 50 37 50 7 0 13 5 13 10 0 6 5 10 10 10 6
0 22 11 35 25 20 20 25 34 25 78 0 53 22 97 47 97 6 0 16 14 22 30 6 17 16 43
22 60 6 16 20 39 30 51 10 12 19 33 19 46 0 23 45 123 60 133 4 3 15 20 25 39
9 19 21 39 26 45 40 48 49 60 49 66 0 4 8 16 18 28 9 11 24 30 32 42 8 12 22
31 31 41 9 11 22 33 29 49 7 17 15 30 19 30 4 0 29 45 56 100 44 89 52 100 76
100 21 0 28 6 32 29 3 16 12 35 19 42 16 18 38 79 38 108 0 34 31 175 40 181
17 12 41 73 48 128 5 32 15 66 23 76 54 64 90 96 107 96 11 0 23 6 26 13 5 10
7 10 12 0 3 -7 17 -13 30 -13 13 0 24 -4 24 -10 0 -5 10 -10 23 -10 12 0 29
-9 37 -20 8 -11 22 -20 32 -20 10 0 18 -7 18 -16 0 -19 24 -44 42 -44 8 0 20
-9 28 -20 8 -11 20 -20 27 -20 7 0 13 -4 13 -10 0 -5 7 -10 15 -10 8 0 15 -4
15 -10 0 -5 10 -10 23 -10 12 0 29 -9 37 -20 8 -11 20 -20 27 -20 6 0 15 -9
18 -20 3 -11 13 -20 21 -20 8 0 14 -4 14 -10 0 -5 7 -10 15 -10 8 0 15 -4 15
-10 0 -5 11 -10 25 -10 14 0 25 -4 25 -10 0 -5 7 -10 15 -10 8 0 15 -4 15 -10
0 -5 14 -10 30 -10 17 0 30 -4 30 -10 0 -5 11 -20 24 -33 38 -38 56 -82 56
-139 1 -56 22 -130 40 -136 5 -2 10 -15 10 -29 0 -13 7 -31 15 -39 8 -8 19
-32 25 -53 5 -21 19 -48 30 -61 13 -15 18 -31 14 -46 -4 -16 1 -30 20 -49 16
-16 26 -37 26 -55 0 -17 4 -30 8 -30 18 0 69 -132 99 -257 3 -13 9 -23 14 -23
5 0 9 -9 9 -20 0 -11 4 -20 9 -20 5 0 14 -14 21 -31 7 -17 35 -53 62 -81 26
-27 48 -54 48 -59 0 -5 6 -9 13 -9 7 0 19 -9 27 -20 8 -11 20 -20 27 -20 7 0
13 -4 13 -10 0 -5 6 -10 13 -10 7 0 19 -9 27 -20 8 -11 20 -20 27 -20 7 0 13
-4 13 -10 0 -5 7 -10 16 -10 22 0 44 -25 55 -64 5 -18 18 -43 29 -56 13 -16
20 -37 20 -67 0 -43 19 -94 46 -120 8 -8 40 -13 91 -13 67 0 81 3 93 20 8 11
20 20 27 20 7 0 13 5 13 10 0 6 9 10 20 10 11 0 20 5 20 10 0 6 11 10 25 10
14 0 25 5 25 10 0 6 11 10 25 10 14 0 25 5 25 10 0 6 7 10 15 10 8 0 15 5 15
10 0 6 10 10 23 10 12 0 29 9 37 20 8 11 20 20 27 20 7 0 13 5 13 10 0 6 7 10
15 10 8 0 15 5 15 10 0 6 9 10 20 10 25 0 81 54 105 101 20 38 39 59 54 59 6
0 11 5 11 10 0 6 48 10 125 10 77 0 125 4 125 10 0 6 16 10 35 10 19 0 35 5
35 10 0 6 9 10 20 10 11 0 20 5 20 10 0 6 11 10 25 10 14 0 25 5 25 10 0 6 7
10 15 10 8 0 15 5 15 10 0 6 14 10 30 10 17 0 30 5 30 10 0 6 9 10 20 10 11 0
20 5 20 10 0 6 7 10 15 10 8 0 15 5 15 10 0 6 6 10 13 10 7 0 19 9 27 20 10
14 26 20 51 20 21 0 40 6 43 13 5 10 7 10 12 0 3 -7 21 -13 40 -13 19 0 34 -4
34 -10 0 -15 187 -13 193 3 4 9 6 9 6 0 1 -16 91 -18 91 -3 0 6 9 10 20 10 11
0 20 5 20 10 0 6 5 10 11 10 6 0 24 14 39 30 15 17 35 30 44 30 9 0 16 5 16
10 0 6 7 10 15 10 8 0 15 5 15 10 0 6 5 10 11 10 6 0 24 14 39 30 15 16 33 30
39 30 6 0 11 5 11 10 0 6 9 10 20 10 11 0 20 5 20 10 0 6 14 10 30 10 17 0 30
5 30 10 0 6 9 10 20 10 13 0 20 7 20 20 0 13 7 20 18 20 10 0 24 9 32 20 8 11
21 20 28 20 17 0 89 74 97 100 4 11 12 20 19 20 6 0 22 20 34 45 17 35 22 63
21 123 0 95 -37 291 -73 394 -39 110 -48 132 -63 161 -22 44 -42 149 -38 199
4 39 11 62 50 154 7 17 16 65 20 108 6 63 4 84 -10 117 -10 21 -24 39 -32 39
-7 0 -13 5 -13 10 0 6 -9 10 -20 10 -11 0 -20 5 -20 10 0 6 -7 10 -15 10 -8 0
-15 5 -15 10 0 6 -5 10 -11 10 -6 0 -24 14 -39 30 -15 17 -33 30 -39 30 -6 0
-11 5 -11 10 0 6 -7 10 -15 10 -8 0 -15 5 -15 10 0 6 -11 10 -25 10 -14 0 -25
5 -25 10 0 6 -11 10 -25 10 -14 0 -25 5 -25 10 0 6 -7 10 -15 10 -8 0 -15 5
-15 10 0 6 -16 10 -35 10 -19 0 -35 5 -35 10 0 6 -7 10 -15 10 -8 0 -15 5 -15
10 0 6 -16 10 -35 10 -19 0 -35 -4 -35 -10 0 -5 -11 -10 -25 -10 -14 0 -25 -4
-25 -10 0 -5 -20 -10 -45 -10 -25 0 -45 5 -45 10 0 6 -7 10 -15 10 -8 0 -15 5
-15 10 0 6 -7 10 -15 10 -8 0 -15 5 -15 10 0 6 -7 10 -15 10 -8 0 -15 5 -15
10 0 6 -9 10 -20 10 -11 0 -20 5 -20 10 0 6 -6 10 -13 10 -7 0 -19 9 -27 20
-8 11 -20 20 -27 20 -7 0 -13 5 -13 10 0 6 -18 10 -40 10 -22 0 -40 5 -40 10
0 6 -12 10 -26 10 -14 0 -31 6 -39 13 -20 20 -49 84 -75 167 -14 41 -27 77
-31 80 -3 3 -12 16 -19 29 -15 28 -21 37 -72 91 -20 22 -39 40 -43 40 -4 0
-20 14 -35 30 -15 17 -33 30 -38 30 -6 0 -14 9 -17 20 -3 11 -13 20 -21 20 -8
0 -14 5 -14 10 0 6 -7 10 -15 10 -8 0 -15 5 -15 10 0 6 -9 10 -20 10 -11 0
-20 5 -20 10 0 6 -11 10 -25 10 -14 0 -25 5 -25 10 0 6 -13 10 -30 10 -16 0
-30 5 -30 10 0 6 -5 10 -11 10 -18 0 -89 80 -89 100 0 10 7 25 15 34 24 24 14
143 -19 226 -14 35 -33 86 -56 147 -7 18 -20 41 -29 52 -9 10 -23 29 -31 40
-8 12 -19 21 -24 21 -10 0 -46 39 -46 52 0 4 -7 8 -15 8 -8 0 -15 5 -15 10 0
6 -11 10 -25 10 -14 0 -25 5 -25 10 0 6 -7 10 -15 10 -8 0 -15 5 -15 10 0 6
-9 10 -20 10 -11 0 -20 5 -20 10 0 6 -13 10 -30 10 -16 0 -30 5 -30 10 0 6 -9
10 -20 10 -11 0 -20 5 -20 10 0 6 -11 10 -25 10 -14 0 -25 5 -25 10 0 6 -11
10 -25 10 -14 0 -25 5 -25 10 0 6 -20 10 -45 10 -25 0 -45 5 -45 10 0 6 -11
10 -25 10 -14 0 -25 5 -25 10 0 6 -9 10 -20 10 -11 0 -20 5 -20 10 0 6 -7 10
-15 10 -8 0 -15 5 -15 10 0 6 -11 10 -25 10 -14 0 -25 5 -25 10 0 6 -9 10 -20
10 -11 0 -20 5 -20 10 0 6 -7 10 -15 10 -8 0 -15 5 -15 10 0 6 -9 10 -20 10
-11 0 -20 5 -20 10 0 6 -9 10 -20 10 -11 0 -20 5 -20 10 0 6 -7 10 -15 10 -8
0 -15 5 -15 10 0 6 -7 10 -15 10 -8 0 -15 5 -15 10 0 6 -7 10 -15 10 -8 0 -15
5 -15 10 0 6 -7 10 -15 10 -8 0 -15 5 -15 10 0 6 -9 10 -20 10 -11 0 -20 5
-20 10 0 6 -25 10 -55 10 -30 0 -55 -4 -55 -10 0 -6 -28 -10 -65 -10 -37 0
-65 -4 -65 -10 0 -5 -11 -10 -25 -10 -14 0 -25 -4 -25 -10 0 -5 -13 -10 -30
-10 -16 0 -30 -4 -30 -10 0 -5 -9 -10 -20 -10 -11 0 -20 -4 -20 -10 0 -5 -13
-10 -30 -10 -16 0 -30 -4 -30 -10 0 -5 -9 -10 -20 -10 -11 0 -20 -4 -20 -10 0
-5 -11 -10 -25 -10 -14 0 -25 -4 -25 -10 0 -5 -11 -10 -25 -10 -14 0 -25 -4
-25 -10 0 -5 -9 -10 -20 -10 -11 0 -20 -4 -20 -10 0 -6 -28 -10 -65 -10 -37 0
-65 -4 -65 -10 0 -6 -33 -10 -79 -10 -54 0 -81 -4 -84 -12 -4 -10 -6 -10 -6 0
-1 15 -101 17 -101 2 0 -5 -7 -10 -15 -10 -9 0 -15 -10 -16 -22 0 -13 -3 -17
-6 -10 -2 6 -11 12 -19 12 -8 0 -14 5 -14 10 0 6 -7 10 -15 10 -8 0 -15 5 -15
10 0 6 -7 10 -15 10 -8 0 -15 5 -15 10 0 6 -7 10 -15 10 -8 0 -15 5 -15 10 0
6 -6 10 -14 10 -8 0 -17 6 -19 13 -4 10 -6 10 -6 0 -1 -15 -41 -18 -41 -3 0 6
-16 10 -35 10 -19 0 -35 5 -35 10 0 6 -12 10 -26 10 -25 0 -58 28 -94 79 -8
12 -25 21 -37 21 -13 0 -23 5 -23 10 0 6 -9 10 -20 10 -11 0 -20 5 -20 10 0 6
-11 10 -24 10 -16 0 -27 7 -31 19 -8 25 -59 81 -74 81 -6 0 -11 5 -11 10 0 6
-7 10 -15 10 -8 0 -15 5 -15 10 0 6 -7 10 -15 10 -8 0 -15 5 -15 10 0 6 -5 10
-11 10 -6 0 -24 14 -39 30 -15 17 -32 30 -38 30 -5 0 -15 14 -22 30 -7 17 -16
30 -21 30 -4 0 -11 9 -14 20 -3 11 -13 20 -21 20 -8 0 -14 5 -14 10 0 6 -6 10
-12 10 -7 1 -29 19 -48 41 -80 91 -109 119 -122 119 -7 0 -20 9 -28 21 -26 38
-68 79 -79 79 -6 0 -11 5 -11 10 0 6 -7 10 -15 10 -8 0 -15 5 -15 10 0 6 -7
10 -15 10 -8 0 -15 4 -15 8 0 14 -36 52 -49 52 -6 0 -11 5 -11 10 0 6 -11 10
-25 10 -14 0 -25 5 -25 10 0 6 -11 10 -25 10 -14 0 -25 5 -25 10 0 6 -6 10
-14 10 -8 0 -18 9 -21 20 -3 11 -11 20 -17 20 -11 0 -48 38 -48 50 0 22 -40
50 -71 50 -23 0 -39 7 -49 20 -8 11 -20 20 -27 20 -7 0 -13 5 -13 10 0 6 -10
10 -21 10 -21 0 -59 34 -59 52 0 4 -7 8 -15 8 -8 0 -15 5 -15 10 0 6 -7 10
-15 10 -8 0 -15 5 -15 10 0 6 -6 10 -13 10 -7 0 -19 9 -27 20 -8 11 -18 20
-23 20 -10 0 -53 44 -77 79 -8 12 -21 21 -29 21 -16 0 -48 34 -56 61 -4 12
-16 19 -31 19 -13 0 -24 5 -24 10 0 6 -9 10 -20 10 -11 0 -20 5 -20 10 0 6 -9
10 -20 10 -11 0 -20 5 -20 10 0 6 -7 10 -15 10 -8 0 -15 5 -15 10 0 6 -6 10
-13 10 -7 0 -19 9 -27 21 -8 12 -27 34 -41 50 -14 15 -32 42 -39 59 -7 16 -19
30 -26 30 -8 0 -14 5 -14 10 0 6 -7 10 -15 10 -8 0 -15 5 -15 10 0 6 -11 10
-25 10 -14 0 -25 5 -25 10 0 6 -10 10 -23 10 -12 0 -29 9 -37 20 -8 11 -19 20
-25 20 -6 0 -17 9 -25 20 -8 11 -22 20 -32 20 -10 0 -18 5 -18 10 0 6 -9 10
-19 10 -11 0 -23 9 -26 20 -3 11 -13 20 -21 20 -8 0 -14 5 -14 10 0 6 -7 10
-15 10 -8 0 -15 5 -15 10 0 6 -9 10 -20 10 -11 0 -20 5 -20 10 0 6 -9 10 -20
10 -11 0 -20 5 -20 10 0 6 -7 10 -15 10 -8 0 -15 5 -15 10 0 6 -6 10 -13 10
-7 0 -19 9 -27 20 -8 11 -21 20 -29 20 -14 0 -51 37 -51 50 0 13 -57 70 -69
70 -6 0 -11 5 -11 10 0 6 -7 10 -15 10 -8 0 -15 5 -15 10 0 6 -6 10 -13 10 -7
0 -19 9 -27 20 -8 11 -22 20 -32 20 -10 0 -18 5 -18 10 0 6 -11 10 -25 10 -14
0 -25 5 -25 10 0 6 -11 10 -25 10 -14 0 -25 5 -25 10 0 6 -11 10 -25 10 -14 0
-25 5 -25 10 0 6 -27 10 -61 10 -51 0 -65 4 -80 22 -11 11 -19 25 -19 30 0 4
-7 8 -15 8 -8 0 -15 5 -15 10 0 6 -13 10 -30 10 -16 0 -30 5 -30 10 0 6 -9 10
-20 10 -11 0 -20 5 -20 10 0 6 -11 10 -24 10 -16 0 -27 7 -31 20 -3 11 -11 20
-16 20 -5 0 -24 15 -42 33 -30 30 -34 41 -45 126 -6 52 -9 97 -7 102 3 4 9 33
14 66 9 55 53 193 88 276 10 24 23 37 35 37 10 0 18 5 18 10 0 6 10 10 21 10
21 0 21 4 17 83 -3 45 -12 98 -21 117 -9 19 -21 54 -27 77 -6 22 -24 56 -40
75 -16 18 -45 50 -62 70 -18 20 -37 37 -41 38 -5 0 -26 18 -47 40 -33 34 -45
40 -79 40 -23 0 -41 5 -41 10 0 6 -5 10 -11 10 -16 0 -44 34 -59 70 -7 17 -19
30 -26 30 -8 0 -14 5 -14 10 0 6 -18 10 -40 10 -22 0 -40 5 -40 10 0 6 -5 10
-10 10 -15 0 -76 63 -93 96 -8 16 -22 61 -31 99 -16 65 -16 78 -1 170 8 55 18
112 21 126 4 19 -2 33 -24 57 -17 18 -35 32 -41 32 -6 0 -11 5 -11 10 0 6 -13
10 -30 10 -29 0 -30 2 -30 44 0 24 3 64 6 90 6 41 9 46 33 46 15 0 33 9 41 20
8 11 22 20 32 20 10 0 18 5 18 10 0 6 7 10 16 10 32 0 52 37 47 83 -4 30 0 54
12 77 25 48 81 100 107 100 13 0 30 9 38 20 8 11 19 20 25 20 6 0 17 9 25 20
8 11 25 20 37 20 13 0 23 5 23 10 0 6 7 10 16 10 26 0 55 39 48 66 -3 12 -1
29 5 36 42 49 51 63 51 80 0 10 4 18 9 18 5 0 14 14 21 30 7 17 17 30 23 30
16 0 48 43 43 57 -3 7 4 34 16 58 l22 45 84 0 c81 0 85 1 113 31 16 17 29 35
29 40 0 5 9 9 20 9 11 0 20 5 20 10 0 6 8 10 18 10 10 0 24 9 32 20 8 11 19
20 24 20 10 0 46 39 46 50 0 12 37 50 49 50 6 0 11 5 11 10 0 6 9 10 21 10 23
0 49 22 49 42 0 15 -21 45 -57 83 -28 29 -29 54 -4 103 23 45 43 144 46 222 2
49 25 116 45 130 24 17 30 52 19 109 l-13 59 41 39 c22 22 51 59 63 82 23 47
62 91 80 91 5 0 10 5 10 10 0 6 9 10 20 10 11 0 20 5 20 10 0 6 27 10 60 10
33 0 60 4 60 10 0 15 77 12 83 -2 4 -10 6 -10 6 0 1 6 12 12 26 12 14 0 25 5
25 10 0 6 9 10 20 10 11 0 20 5 20 10 0 6 11 10 25 10 14 0 25 5 25 10 0 6 9
10 20 10 11 0 20 5 20 10 0 6 8 10 18 10 10 0 24 9 32 20 8 11 20 20 27 20 7
0 13 5 13 10 0 6 5 10 11 10 15 0 66 56 74 81 4 10 13 19 21 19 8 0 14 4 14 8
0 5 9 20 20 33 11 13 30 36 42 51 13 15 28 28 34 28 6 0 14 12 17 28 3 15 15
38 26 52 11 14 25 30 30 36 23 27 52 98 48 115 -3 10 1 44 8 76 8 32 16 70 19
84 3 15 19 41 36 59 16 18 30 36 30 41 0 5 12 9 26 9 16 0 37 12 54 30 15 17
37 30 47 30 14 0 26 13 38 40 10 22 24 40 32 40 7 0 13 5 13 10 0 6 5 10 11
10 13 0 89 78 89 91 0 5 7 9 15 9 8 0 15 5 15 10 0 6 11 10 24 10 15 0 27 7
31 19 8 25 40 61 54 61 6 0 11 5 11 10 0 6 5 10 11 10 14 0 32 19 49 50 14 27
18 32 59 78 17 18 33 42 36 53 4 10 10 19 14 19 5 0 14 14 21 30 7 17 16 30
20 30 7 0 46 82 54 118 4 12 8 30 11 40 3 11 -4 29 -15 42 -11 13 -20 29 -20
37 0 14 -55 127 -71 147 -40 47 -49 60 -49 68 0 4 -7 8 -16 8 -27 0 -53 40
-60 91 -4 32 -11 49 -20 49 -8 0 -14 5 -14 10 0 6 -7 10 -15 10 -27 0 -12 125
26 215 12 28 32 77 46 110 14 33 46 104 71 158 43 89 48 97 75 97 23 0 27 3
22 19 -4 12 4 29 24 50 16 17 37 57 47 89 10 31 21 59 25 62 3 3 16 25 29 49
12 24 26 49 31 55 39 47 49 60 49 66 0 6 10 19 49 66 5 6 19 31 31 54 27 52
43 70 64 70 9 0 16 5 16 10 0 6 6 10 14 10 7 0 16 13 19 28 3 16 20 43 36 61
17 18 31 36 31 41 0 12 37 50 49 50 6 0 11 5 11 10 0 6 11 10 25 10 14 0 25 5
25 10 0 6 20 10 45 10 25 0 45 5 45 10 0 6 6 10 13 10 7 0 19 9 27 20 8 11 22
20 32 20 10 0 18 5 18 10 0 6 16 10 35 10 19 0 35 5 35 10 0 6 9 10 20 10 11
0 20 5 20 10 0 6 14 10 30 10 17 0 30 5 30 10 0 6 18 10 40 10 22 0 40 -4 40
-10 0 -18 18 -11 25 10 4 14 15 20 36 20 16 0 29 5 29 10 0 6 18 10 40 10 22
0 40 5 40 10 0 6 7 10 15 10 8 0 15 5 15 10 0 6 7 10 15 10 8 0 15 5 15 10 0
6 9 10 20 10 11 0 20 5 20 10 0 6 10 10 23 10 12 0 29 9 37 20 8 11 24 20 35
20 11 0 27 9 35 20 8 11 22 20 32 20 10 0 18 5 18 10 0 6 11 10 25 10 14 0 25
5 25 10 0 6 7 10 15 10 8 0 15 5 15 10 0 6 9 10 20 10 11 0 20 5 20 10 0 6 9
10 20 10 11 0 20 5 20 10 0 6 6 10 13 10 7 0 19 9 27 20 8 11 21 20 28 20 7 0
31 18 52 40 21 22 42 40 47 40 5 0 15 10 23 21 8 12 25 32 37 44 12 12 34 46
48 76 28 55 29 72 9 199 -4 27 -1 41 15 59 12 13 21 28 21 32 0 4 6 14 14 21
7 8 24 34 36 57 12 24 32 54 43 66 40 42 57 69 52 82 -2 8 3 29 12 48 16 33
19 35 69 35 33 0 54 -5 57 -12 4 -10 6 -10 6 0 1 6 8 12 16 12 8 0 15 5 15 10
0 6 9 10 20 10 24 0 90 62 90 84 0 8 6 21 14 28 36 36 62 128 36 128 -20 0 -9
32 19 59 23 22 27 32 23 61 -3 19 -13 42 -23 51 -23 20 -24 29 -5 29 8 0 17 6
20 13 5 10 7 10 12 0 7 -15 54 -17 54 -3 0 6 11 10 25 10 31 0 31 5 0 35 -21
22 -33 25 -94 25 -46 0 -71 -4 -75 -12 -5 -10 -7 -10 -12 0 -3 6 -14 12 -25
12 -11 0 -30 10 -43 23 -21 21 -22 27 -14 78 5 29 9 70 9 89 -1 53 21 210 29
210 4 0 10 20 13 45 4 25 16 64 28 86 13 26 19 53 16 72 -2 17 5 53 15 81 35
92 38 110 38 223 0 69 4 113 10 113 6 0 10 14 10 30 0 20 -5 30 -15 30 -13 0
-15 20 -13 143 2 120 -1 147 -16 176 -16 31 -17 47 0 102 2 9 -4 25 -13 36
-10 12 -25 31 -33 43 -8 13 -36 44 -62 71 -26 27 -49 58 -53 69 -3 11 -12 20
-19 20 -8 0 -19 13 -26 30 -7 16 -21 39 -31 51 -11 13 -17 30 -13 41 3 12 0
18 -10 18 -8 0 -18 9 -21 20 -3 11 -11 20 -16 20 -5 0 -9 8 -9 18 0 11 -9 29
-19 41 -24 28 -35 85 -21 111 12 22 0 53 -30 80 -23 20 -31 62 -39 220 -6 113
-11 143 -31 183 -13 26 -28 47 -32 47 -13 0 -9 49 7 80 10 20 15 53 13 97 -2
81 21 233 39 251 7 7 13 18 13 23 0 5 7 9 15 9 8 0 15 5 15 10 0 6 9 10 19 10
10 0 22 7 25 16 9 23 8 24 -14 24 -11 0 -20 5 -20 10 0 6 -5 10 -11 10 -18 0
-36 24 -78 107 l-40 81 19 53 c11 30 20 79 20 112 0 38 7 71 20 98 12 22 20
50 19 62 -5 56 2 87 26 111 23 23 25 34 26 103 1 169 -7 202 -63 255 -15 14
-28 31 -28 37 0 19 -50 112 -73 136 -12 12 -29 32 -37 45 -23 34 -67 80 -77
80 -5 0 -15 9 -23 21 -8 12 -26 34 -40 49 -14 15 -36 50 -49 78 -14 29 -28 52
-33 52 -4 0 -8 5 -8 10 0 6 7 10 15 10 8 0 15 5 15 10 0 6 -13 10 -30 10 -21
0 -30 5 -30 16 0 9 -8 24 -19 33 -31 27 -88 152 -94 208 -7 60 -55 161 -100
209 -18 18 -48 51 -67 73 -19 22 -41 40 -47 41 -7 0 -13 5 -13 10 0 6 -5 10
-11 10 -17 0 -33 22 -47 65 -26 77 -35 95 -47 95 -8 0 -16 17 -20 40 -6 37
-25 57 -25 28 0 -7 -5 -5 -11 4 -7 12 -7 24 0 37 8 13 5 33 -10 72 -30 79 -38
107 -50 177 -8 42 -19 71 -34 86 -44 44 -84 139 -85 202 -4 149 12 214 53 214
29 0 26 79 -3 100 -4 3 -15 20 -25 39 -9 19 -21 39 -26 45 -39 47 -48 60 -59
86 -10 24 -10 36 0 60 7 17 16 30 20 30 17 0 31 56 25 105 -5 39 -3 55 8 67 8
8 18 41 21 74 3 32 10 93 16 134 6 41 14 114 19 161 4 48 11 91 15 97 4 6 -11
47 -34 91 -40 81 -50 126 -29 133 8 3 6 15 -6 38 -12 23 -21 72 -26 140 -4 58
-12 121 -18 140 -16 50 -14 80 5 80 12 0 14 8 9 44 -5 33 -2 52 13 82 11 21
23 54 27 72 l7 32 -2421 0 -2421 0 0 -1374z"/>
<path fill="#ffffff" stroke="000000" stroke-width="0.01" d="M18040 26340 c0 -5 -18 -10 -40 -10
-22 0 -40 -4 -40 -10 0 -5 -5 -10 -10 -10 -16 0 -56 -43 -75 -81 -15 -28 -17
-49 -11 -129 3 -52 13 -120 21 -150 32 -118 11 -235 -73 -422 -14 -32 -29 -58
-33 -58 -4 0 -11 -9 -14 -20 -4 -11 -17 -31 -30 -44 -13 -13 -33 -43 -45 -66
-12 -24 -26 -48 -31 -54 -40 -47 -49 -60 -49 -66 0 -13 -57 -70 -69 -70 -6 0
-11 -4 -11 -10 0 -5 -7 -10 -15 -10 -8 0 -15 -4 -15 -10 0 -5 -7 -10 -15 -10
-8 0 -15 -4 -15 -10 0 -5 -7 -10 -15 -10 -8 0 -15 -4 -15 -10 0 -5 -7 -10 -15
-10 -8 0 -15 -4 -15 -10 0 -5 -7 -10 -15 -10 -8 0 -15 -4 -15 -10 0 -5 -9 -10
-20 -10 -11 0 -20 -4 -20 -10 0 -5 -7 -10 -15 -10 -8 0 -15 -4 -15 -10 0 -5
-7 -10 -15 -10 -8 0 -15 -4 -15 -10 0 -5 -7 -10 -15 -10 -8 0 -15 -4 -15 -10
0 -5 -9 -10 -20 -10 -11 0 -20 -4 -20 -10 0 -5 -5 -10 -11 -10 -15 0 -34 -21
-54 -60 -22 -42 -39 -60 -59 -60 -8 0 -17 -8 -21 -19 -3 -10 -13 -28 -23 -39
-9 -11 -24 -30 -32 -41 -8 -12 -22 -21 -32 -21 -10 0 -18 -4 -18 -10 0 -5 -9
-10 -20 -10 -11 0 -20 -4 -20 -10 0 -5 -5 -10 -11 -10 -6 0 -28 -18 -49 -40
-21 -22 -43 -40 -49 -40 -6 0 -11 -4 -11 -10 0 -5 -15 -10 -33 -10 -30 0 -35
-5 -60 -56 -28 -56 -35 -67 -74 -108 -11 -13 -31 -43 -43 -67 -25 -47 -43 -69
-59 -69 -6 0 -11 -4 -11 -10 0 -5 -11 -10 -25 -10 -14 0 -25 -4 -25 -10 0 -5
-6 -10 -13 -10 -7 0 -26 -27 -42 -60 -22 -45 -34 -60 -50 -60 -16 0 -30 -18
-60 -81 -43 -88 -83 -139 -110 -139 -18 0 -45 -23 -45 -39 0 -18 -44 -101 -53
-101 -16 0 -41 -34 -71 -99 -16 -33 -36 -61 -43 -61 -7 0 -13 -4 -13 -10 0 -5
-9 -10 -19 -10 -11 0 -23 -9 -26 -20 -3 -11 -12 -26 -20 -33 -21 -21 -85 -154
-85 -176 0 -30 -42 -111 -57 -111 -7 0 -13 -4 -13 -10 0 -5 -6 -10 -13 -10
-14 0 -37 -40 -37 -64 0 -7 -9 -24 -20 -37 -11 -13 -30 -37 -42 -52 -13 -15
-28 -34 -34 -41 -7 -7 -22 -32 -34 -55 -25 -49 -63 -91 -82 -91 -8 0 -20 -9
-28 -20 -8 -11 -20 -20 -27 -20 -7 0 -13 -4 -13 -10 0 -5 -14 -10 -31 -10 -35
0 -66 -28 -76 -69 -13 -56 -84 -151 -112 -151 -15 0 -21 -29 -21 -108 0 -89
-31 -193 -63 -214 -5 -3 -16 -32 -23 -65 -7 -32 -17 -71 -23 -88 -5 -16 -15
-73 -21 -125 -14 -115 -3 -180 31 -180 41 0 54 -27 95 -195 8 -33 19 -116 24
-185 4 -70 16 -145 25 -170 26 -70 34 -449 11 -518 -9 -28 -16 -64 -16 -80 0
-16 -9 -39 -20 -52 -20 -23 -28 -80 -12 -80 11 0 32 -45 32 -68 0 -36 -22 -93
-44 -115 -38 -38 -49 -66 -42 -108 5 -30 1 -50 -18 -87 -17 -34 -25 -70 -28
-127 -5 -85 -28 -146 -73 -191 -22 -22 -45 -79 -45 -112 0 -21 -32 -112 -39
-112 -3 0 -6 -25 -7 -55 0 -43 -5 -58 -22 -73 -14 -12 -22 -31 -22 -50 0 -37
-9 -62 -22 -62 -6 0 -23 -13 -38 -30 -15 -16 -33 -30 -39 -30 -6 0 -11 -4 -11
-10 0 -6 -40 -10 -99 -10 -117 0 -124 -6 -85 -82 17 -33 23 -59 19 -75 -8 -35
3 -63 26 -63 48 0 61 -44 60 -191 -1 -144 -28 -414 -44 -447 -8 -15 -22 -53
-31 -84 -10 -32 -21 -58 -25 -58 -27 0 -41 -113 -19 -153 11 -20 19 -97 19
-170 0 -18 -11 -38 -30 -56 -24 -23 -32 -41 -41 -97 -11 -68 -56 -184 -71
-184 -18 0 -31 -88 -25 -166 5 -61 3 -92 -9 -125 -24 -68 -40 -307 -26 -391 6
-39 18 -77 26 -85 19 -18 19 -67 1 -85 -17 -18 -51 -85 -59 -118 -4 -14 -11
-65 -16 -112 -10 -87 -29 -140 -61 -168 -25 -22 -56 -89 -64 -137 -8 -54 -36
-113 -52 -113 -23 0 -37 -72 -40 -200 -2 -69 -6 -146 -10 -172 -6 -41 -4 -48
10 -48 9 0 16 -4 16 -10 0 -5 11 -10 24 -10 35 0 50 -45 42 -123 -7 -67 3
-118 28 -142 9 -9 20 -33 26 -54 5 -21 18 -48 29 -60 28 -32 34 -82 16 -136
-15 -43 -15 -51 1 -100 9 -30 14 -64 11 -77 -11 -42 12 -157 45 -221 25 -49
32 -76 34 -129 2 -84 29 -118 94 -118 22 0 40 5 40 10 0 6 7 10 16 10 8 0 37
23 64 50 27 28 52 50 55 50 4 0 20 14 35 30 15 17 35 30 44 30 9 0 16 5 16 10
0 6 20 10 45 10 25 0 45 5 45 10 0 6 27 10 60 10 33 0 60 4 60 10 0 6 18 10
40 10 22 0 40 -4 40 -10 0 -5 25 -10 55 -10 30 0 55 5 55 10 0 6 9 10 20 10
11 0 20 5 20 10 0 6 9 10 20 10 11 0 20 5 20 10 0 6 11 10 25 10 14 0 25 5 25
10 0 6 7 10 15 10 8 0 15 5 15 10 0 6 5 10 11 10 17 0 35 22 62 76 32 64 39
101 28 142 -9 31 -32 62 -47 62 -9 0 -44 41 -44 52 0 4 -23 8 -51 8 -58 0 -67
7 -104 80 -20 39 -26 63 -22 87 4 20 1 38 -7 46 -22 22 -36 55 -36 85 0 16 -8
53 -17 82 -11 34 -13 54 -6 58 18 12 33 50 27 66 -8 22 15 76 32 76 8 0 14 10
14 25 0 28 -19 75 -31 75 -28 0 -39 208 -15 295 18 68 47 125 63 125 7 0 13 5
13 10 0 6 7 10 15 10 8 0 15 5 15 10 0 6 11 10 25 10 14 0 25 5 25 10 0 6 23
10 50 10 28 0 50 5 50 10 0 6 10 10 23 10 17 0 28 10 40 35 9 20 17 42 17 49
0 16 34 56 47 56 6 0 18 18 28 40 10 22 21 40 25 40 14 0 23 34 31 110 4 41
12 98 18 125 11 46 16 82 40 296 5 41 18 94 30 117 11 23 21 51 21 62 0 22 15
56 34 76 6 6 18 22 26 34 8 13 41 49 73 82 31 32 57 63 57 69 0 5 6 9 13 9 7
0 19 9 27 20 8 11 22 20 32 20 10 0 18 5 18 10 0 6 9 10 20 10 11 0 20 5 20
10 0 6 6 10 13 10 7 0 19 9 27 20 8 11 22 20 32 20 10 0 18 5 18 10 0 6 25 10
55 10 30 0 55 -4 55 -10 0 -5 16 -10 35 -10 19 0 35 -4 35 -10 0 -5 11 -10 25
-10 14 0 25 -4 25 -10 0 -5 9 -10 20 -10 11 0 20 -4 20 -10 0 -5 9 -10 20 -10
11 0 20 5 20 10 0 6 7 10 15 10 8 0 15 5 15 10 0 6 9 10 20 10 11 0 20 5 20
10 0 6 14 10 30 10 17 0 30 5 30 10 0 6 11 10 25 10 14 0 25 5 25 10 0 6 11
10 25 10 14 0 25 5 25 10 0 6 14 10 30 10 17 0 30 5 30 10 0 6 9 10 21 10 30
0 117 -93 127 -138 14 -56 50 -222 58 -262 7 -36 41 -111 54 -120 15 -10 48
-87 60 -140 17 -73 23 -83 86 -146 44 -45 60 -54 89 -54 19 0 35 5 35 10 0 6
9 10 20 10 11 0 20 5 20 10 0 6 7 10 15 10 8 0 19 16 25 38 13 51 41 82 74 82
14 0 26 5 26 10 0 6 7 10 15 10 8 0 15 5 15 10 0 6 14 10 30 10 17 0 30 -4 30
-10 0 -5 18 -10 40 -10 22 0 40 -4 40 -10 0 -6 28 -10 65 -10 37 0 65 4 65 10
0 6 7 10 16 10 20 0 54 37 54 59 0 30 -28 148 -40 172 -17 30 -36 49 -50 49
-13 0 -60 45 -60 58 0 5 -9 38 -21 75 -19 61 -46 107 -63 107 -10 0 -31 22
-43 45 -6 11 -16 74 -22 140 -6 66 -15 136 -21 155 -5 19 -10 52 -10 73 0 38
-21 89 -46 114 -20 20 -34 80 -34 143 0 31 -7 108 -15 172 -9 64 -20 178 -25
254 -13 191 -24 270 -45 329 -37 102 -37 503 -1 573 9 17 16 55 16 86 0 30 5
56 10 58 17 5 42 89 47 159 4 52 1 73 -15 105 -11 21 -27 80 -36 129 -9 50
-21 113 -26 140 -18 97 -16 711 2 765 6 19 12 73 13 120 1 109 23 354 36 400
5 19 9 63 9 97 0 39 5 67 14 76 22 22 88 157 101 209 7 25 18 52 24 60 58 68
68 90 57 133 -4 16 -13 25 -26 25 -11 0 -20 5 -20 10 0 6 -20 10 -45 10 -25 0
-45 5 -45 10 0 6 -21 10 -46 10 -43 0 -45 1 -38 23 4 12 7 40 6 62 -1 22 3 56
9 75 5 19 12 100 15 180 3 84 11 163 20 188 8 23 14 49 14 57 0 7 6 20 13 27
7 7 18 42 26 78 7 35 19 77 27 93 9 16 24 54 34 85 37 110 51 143 101 243 53
107 56 111 106 163 17 19 39 48 48 66 18 35 27 47 61 84 12 13 30 38 39 57 10
18 24 39 31 47 8 7 14 17 14 21 0 4 8 17 18 29 9 11 24 30 32 41 8 12 20 21
27 21 7 0 13 5 13 10 0 6 7 10 15 10 8 0 15 5 15 10 0 6 18 10 40 10 22 0 40
5 40 10 0 6 9 10 20 10 11 0 20 5 20 10 0 6 7 10 15 10 8 0 15 5 15 10 0 6 7
10 15 10 8 0 15 5 15 10 0 6 11 10 25 10 14 0 25 5 25 10 0 6 7 10 16 10 8 0
33 18 54 40 21 22 46 40 54 40 9 0 16 5 16 10 0 6 6 10 13 10 7 0 19 9 27 21
26 38 68 79 79 79 6 0 11 5 11 10 0 6 9 10 20 10 11 0 20 5 20 10 0 6 5 10 11
10 13 0 49 38 49 52 0 4 7 8 15 8 8 0 15 5 15 10 0 6 11 10 24 10 13 0 27 6
29 13 4 10 6 10 6 0 1 -7 12 -13 26 -13 14 0 25 -4 25 -10 0 -5 9 -10 20 -10
11 0 20 -4 20 -10 0 -5 9 -10 20 -10 11 0 20 -4 20 -10 0 -5 14 -10 30 -10 17
0 30 5 30 10 0 6 33 10 80 10 47 0 80 4 80 10 0 6 9 10 20 10 11 0 20 5 20 10
0 6 7 10 15 10 25 0 82 64 115 130 32 64 39 74 76 114 28 29 54 80 54 103 0
10 8 38 16 63 26 71 32 211 14 330 -6 41 -13 102 -16 135 -7 90 -12 105 -34
105 -11 0 -20 5 -20 10 0 6 -7 10 -15 10 -8 0 -15 5 -15 10 0 6 -9 10 -20 10
-11 0 -20 5 -20 10 0 6 -7 10 -15 10 -8 0 -15 5 -15 10 0 6 -9 10 -20 10 -11
0 -20 5 -20 10 0 6 -7 10 -15 10 -8 0 -15 5 -15 10 0 6 -9 10 -20 10 -11 0
-20 5 -20 10 0 6 -7 10 -15 10 -8 0 -15 5 -15 10 0 6 -9 10 -20 10 -11 0 -20
5 -20 10 0 6 -7 10 -15 10 -8 0 -15 5 -15 10 0 6 -9 10 -20 10 -11 0 -20 5
-20 10 0 6 -6 10 -14 10 -8 0 -17 6 -19 13 -4 10 -6 10 -6 0 -1 -15 -51 -18
-51 -3 0 6 -16 10 -35 10 -19 0 -35 -4 -35 -10 0 -5 -7 -10 -15 -10 -8 0 -15
5 -15 10 0 6 -13 10 -30 10 -16 0 -30 5 -30 10 0 6 -6 10 -13 10 -7 0 -19 9
-27 20 -8 11 -19 20 -25 20 -6 0 -17 9 -25 20 -8 11 -18 20 -23 20 -13 0 -33
23 -52 60 -10 19 -21 37 -25 40 -4 3 -24 38 -44 79 -40 78 -41 80 -98 141 -20
22 -40 49 -43 60 -4 11 -10 20 -15 20 -5 0 -14 18 -20 40 -6 21 -17 45 -24 53
-8 8 -35 56 -61 107 -51 101 -65 120 -89 120 -9 0 -16 5 -16 10 0 6 -13 10
-30 10 -16 0 -30 -4 -30 -10z"/>
<path fill="#ffffff" stroke="000000" stroke-width="0.01" d="M15570 14860 c0 -5 -7 -10 -15 -10 -8
0 -15 -4 -15 -10 0 -5 -7 -10 -15 -10 -8 0 -15 -4 -15 -10 0 -5 -7 -10 -15
-10 -8 0 -15 -7 -15 -15 0 -24 63 -145 76 -145 7 0 15 -6 17 -12 4 -10 6 -10
6 0 1 6 8 12 16 12 8 0 15 5 15 10 0 6 7 10 15 10 8 0 15 5 15 10 0 6 7 10 15
10 11 0 15 11 15 43 0 58 -18 117 -35 117 -8 0 -15 5 -15 10 0 6 -11 10 -25
10 -14 0 -25 -4 -25 -10z"/>
<path fill="#ffffff" stroke="000000" stroke-width="0.01" d="M15267 13375 c-16 -34 -16 -38 3 -75
11 -22 20 -46 20 -54 0 -7 13 -28 29 -45 22 -24 38 -31 65 -31 20 0 36 5 36
10 0 6 7 10 16 10 22 0 41 21 48 57 9 40 -1 61 -64 132 -25 27 -34 31 -82 31
-52 0 -55 -1 -71 -35z"/>
<path fill="#ffffff" stroke="000000" stroke-width="0.01" d="M17660 12700 c0 -5 -11 -10 -25 -10
-14 0 -25 -4 -25 -10 0 -5 -9 -10 -19 -10 -18 0 -31 -18 -31 -45 0 -7 14 -28
30 -46 49 -56 52 -59 61 -93 5 -18 18 -43 29 -56 l19 -22 26 26 c30 30 32 61
6 135 -11 31 -25 75 -31 99 -6 25 -17 42 -25 42 -8 0 -15 -4 -15 -10z"/>
<path fill="#ffffff" stroke="000000" stroke-width="0.01" d="M17130 12580 c0 -5 -16 -10 -35 -10
-19 0 -35 -4 -35 -10 0 -5 -6 -10 -13 -10 -37 0 -49 -103 -17 -140 11 -13 23
-35 27 -49 3 -14 11 -31 17 -37 6 -6 18 -21 26 -33 8 -11 22 -21 32 -21 10 0
18 -4 18 -10 0 -5 6 -10 13 -10 7 0 19 -9 27 -21 8 -11 23 -30 33 -41 9 -12
17 -25 17 -30 0 -4 11 -8 25 -8 14 0 25 -4 25 -10 0 -5 7 -10 15 -10 8 0 15
-4 15 -10 0 -5 9 -10 20 -10 11 0 20 -4 20 -10 0 -5 9 -10 20 -10 25 0 37 44
22 82 -7 15 -17 41 -24 57 -10 24 -9 32 4 45 9 9 21 16 27 16 6 0 11 5 11 10
0 6 5 10 11 10 16 0 39 26 39 44 0 10 -9 16 -25 16 -14 0 -25 5 -25 10 0 6 -6
10 -14 10 -7 0 -19 14 -25 30 -6 17 -16 44 -22 60 -9 23 -18 30 -38 30 -15 0
-33 -9 -41 -20 -20 -28 -36 -25 -50 10 -17 40 -44 70 -64 70 -9 0 -16 5 -16
10 0 6 -4 10 -10 10 -5 0 -10 -4 -10 -10z"/>
</g>
</svg>
