<?xml version="1.0" standalone="no"?>
<!DOCTYPE svg PUBLIC "-//W3C//DTD SVG 20010904//EN"
 "http://www.w3.org/TR/2001/REC-SVG-20010904/DTD/svg10.dtd">
<svg version="1.0" xmlns="http://www.w3.org/2000/svg"
 width="3506.000000pt" height="3950.000000pt" viewBox="0 0 3506.000000 3950.000000"
 preserveAspectRatio="xMidYMid meet">
<metadata>
Created by potrace 1.15, written by Peter Selinger 2001-2017
</metadata>
<g transform="translate(0.000000,3950.000000) scale(0.100000,-0.100000)"
fill="#ffffff" stroke="000000" stroke-width="0.01">
<path fill="#ffffff" stroke="000000" stroke-width="0.01" d="M0 38187 c0 -1300 0 -1314 20 -1337 11
-13 20 -18 20 -12 0 7 5 12 11 12 11 0 9 -28 -6 -62 -4 -11 -3 -18 4 -18 40 0
118 -143 126 -230 5 -64 18 -130 26 -130 4 0 11 -9 14 -20 7 -22 31 -27 38 -7
10 23 28 -16 22 -49 -6 -36 2 -64 19 -64 6 0 18 -9 26 -20 8 -11 19 -20 25
-20 6 0 17 -9 25 -20 8 -11 19 -20 25 -20 6 0 17 -9 25 -21 8 -12 27 -34 42
-51 15 -16 30 -38 33 -49 4 -10 15 -19 26 -19 13 0 19 -7 19 -22 0 -40 20 -98
34 -98 8 0 19 -13 25 -30 6 -16 16 -43 22 -60 13 -33 42 -70 55 -70 5 0 16
-10 24 -21 8 -12 20 -27 26 -33 6 -6 17 -22 24 -36 16 -30 24 -40 78 -96 28
-28 42 -52 41 -67 -4 -45 1 -67 16 -67 8 0 15 -9 15 -19 0 -11 6 -26 14 -34 8
-7 31 -46 51 -86 20 -41 46 -84 58 -97 47 -49 77 -100 77 -128 0 -8 6 -21 14
-28 18 -19 46 -73 46 -91 0 -8 9 -24 20 -37 11 -13 20 -27 20 -32 0 -4 11 -8
25 -8 14 0 25 -4 25 -10 0 -5 20 -10 45 -10 25 0 45 -4 45 -10 0 -5 7 -10 16
-10 11 0 14 -6 9 -20 -5 -16 -2 -20 14 -20 15 0 23 -10 31 -42 6 -24 16 -55
22 -71 14 -35 4 -106 -22 -157 -25 -49 -25 -62 1 -130 12 -30 24 -70 26 -87 3
-21 11 -33 20 -33 20 0 45 -29 68 -80 10 -22 22 -40 27 -40 4 0 8 -13 8 -29 0
-16 7 -36 15 -45 9 -9 15 -34 15 -66 0 -67 17 -102 88 -176 19 -20 38 -51 43
-70 7 -23 16 -34 28 -34 21 0 31 -19 31 -56 0 -14 -6 -24 -14 -24 -8 0 -18 -9
-21 -20 -3 -11 -13 -20 -21 -20 -8 0 -14 -4 -14 -10 0 -5 -18 -10 -40 -10 -22
0 -40 -4 -40 -10 0 -5 -7 -10 -15 -10 -8 0 -15 -4 -15 -10 0 -5 -9 -10 -20
-10 -11 0 -20 -4 -20 -10 0 -5 -9 -10 -20 -10 -11 0 -20 -4 -20 -10 0 -5 -11
-10 -25 -10 -14 0 -25 -4 -25 -10 0 -5 -18 -10 -39 -10 -31 0 -41 4 -46 20 -4
14 -15 20 -35 20 -20 0 -31 6 -35 20 -6 17 -15 20 -76 20 -39 0 -69 -4 -69
-10 0 -5 -7 -10 -15 -10 -8 0 -15 -4 -15 -10 0 -5 -7 -10 -15 -10 -8 0 -15 -4
-15 -10 0 -5 -7 -10 -15 -10 -9 0 -18 -12 -21 -30 -4 -16 -13 -30 -20 -30 -8
0 -14 -4 -14 -10 0 -5 -9 -10 -20 -10 -11 0 -20 -4 -20 -10 0 -5 -9 -10 -20
-10 -11 0 -20 -4 -20 -10 0 -5 -7 -10 -15 -10 -8 0 -15 -4 -15 -10 0 -5 -9
-10 -20 -10 -11 0 -20 -4 -20 -10 0 -5 -6 -10 -14 -10 -8 0 -17 -6 -19 -12 -4
-10 -8 -9 -17 2 -9 11 -13 12 -17 3 -2 -7 -16 -13 -29 -13 -13 0 -24 -4 -24
-10 0 -5 -13 -10 -30 -10 -16 0 -30 -4 -30 -10 0 -5 -22 -10 -50 -10 -27 0
-50 -4 -50 -10 0 -5 -7 -10 -15 -10 -8 0 -15 -4 -15 -10 0 -5 -13 -10 -30 -10
-16 0 -30 -4 -30 -10 0 -5 -9 -10 -20 -10 -11 0 -20 -4 -20 -10 0 -5 -13 -10
-29 -10 -21 0 -32 -6 -36 -20 -3 -11 -13 -20 -21 -20 -8 0 -14 -4 -14 -10 0
-5 -18 -10 -40 -10 -22 0 -40 -4 -40 -10 0 -5 -9 -10 -20 -10 -11 0 -20 -4
-20 -10 0 -5 -9 -10 -20 -10 -11 0 -20 -4 -20 -10 0 -5 -6 -10 -13 -10 -7 0
-19 -9 -27 -20 -8 -11 -22 -20 -32 -20 -10 0 -18 -4 -18 -10 0 -5 -7 -10 -15
-10 -8 0 -15 -4 -15 -10 0 -5 -7 -10 -15 -10 -8 0 -15 -4 -15 -10 0 -5 -7 -10
-15 -10 -8 0 -15 -4 -15 -10 0 -14 -27 -12 -33 3 -3 6 -6 -5920 -6 -13170 l-1
-13183 39 0 c38 0 39 1 46 41 4 22 18 51 31 64 13 13 24 31 24 40 0 12 15 15
84 15 93 0 88 4 101 -73 6 -40 -9 -67 -39 -67 -9 0 -16 -4 -16 -9 0 -5 -7 -16
-15 -25 -18 -18 -9 -46 14 -46 24 0 41 -41 41 -95 0 -39 3 -45 21 -45 18 0 20
-5 16 -32 -3 -18 -12 -57 -20 -86 -12 -40 -13 -59 -4 -81 9 -23 8 -32 -5 -45
-9 -9 -21 -16 -27 -16 -6 0 -11 -4 -11 -10 0 -5 -11 -10 -24 -10 -16 0 -27 -7
-31 -20 -4 -13 -15 -20 -31 -20 -13 0 -24 -4 -24 -10 0 -5 -16 -10 -35 -10
-19 0 -35 -4 -35 -10 0 -5 -9 -10 -20 -10 -11 0 -20 -4 -20 -10 0 -5 -7 -10
-15 -10 -8 0 -15 -4 -15 -10 0 -5 -7 -10 -15 -10 -12 0 -15 -19 -15 -110 0
-73 4 -110 11 -110 7 0 8 -14 4 -40 -4 -25 -3 -40 3 -40 6 0 13 -9 17 -19 3
-11 18 -33 33 -49 15 -17 34 -40 42 -52 8 -12 22 -30 30 -40 38 -48 50 -65 50
-72 0 -4 7 -8 15 -8 8 0 15 -4 15 -10 0 -5 6 -10 13 -10 7 0 20 -25 29 -56 15
-50 16 -60 3 -85 -20 -37 -19 -52 5 -79 11 -13 20 -27 20 -32 0 -4 7 -8 15 -8
8 0 15 -4 15 -10 0 -5 12 -10 26 -10 l27 0 -6 -74 c-7 -79 -29 -158 -47 -164
-5 -2 -10 -23 -10 -48 0 -57 -85 -234 -112 -234 -10 0 -18 -4 -18 -10 0 -5 -7
-10 -15 -10 -8 0 -15 -4 -15 -10 0 -5 -8 -10 -17 -10 -10 0 -29 -14 -43 -31
-14 -17 -40 -46 -57 -64 l-33 -34 0 -726 c0 -642 2 -732 16 -776 9 -27 20 -49
23 -49 4 0 18 -23 31 -50 13 -28 29 -50 37 -50 7 0 13 -4 13 -10 0 -5 7 -10
15 -10 8 0 15 -4 15 -10 0 -5 7 -10 16 -10 9 0 29 -13 44 -30 15 -16 33 -30
40 -30 6 0 18 -7 26 -15 12 -12 13 -29 6 -97 -7 -71 -6 -90 10 -133 11 -27 23
-62 28 -77 12 -39 55 -78 85 -78 14 0 25 -4 25 -10 0 -5 16 -10 35 -10 19 0
35 -4 35 -10 0 -5 13 -10 29 -10 23 0 30 -5 34 -27 41 -187 57 -279 57 -332 0
-72 34 -184 65 -217 11 -12 27 -31 35 -44 8 -12 26 -35 40 -50 14 -15 32 -38
40 -50 21 -32 67 -80 75 -80 4 0 20 -13 35 -30 15 -16 33 -30 39 -30 6 0 11
-4 11 -10 0 -5 9 -10 20 -10 11 0 20 -4 20 -10 0 -5 9 -10 20 -10 11 0 20 -4
20 -10 0 -5 7 -10 15 -10 8 0 15 -4 15 -10 0 -5 7 -10 15 -10 8 0 15 -4 15
-10 0 -5 5 -10 11 -10 6 0 24 -13 39 -30 15 -16 33 -30 39 -30 6 0 11 -4 11
-10 0 -5 7 -10 15 -10 8 0 15 -4 15 -10 0 -5 11 -10 25 -10 14 0 25 -4 25 -10
0 -6 26 -10 58 -10 l59 0 18 -40 c10 -22 21 -40 25 -40 4 0 17 -22 30 -50 13
-27 26 -50 30 -50 4 0 15 -18 25 -40 10 -22 24 -40 32 -40 7 0 13 -11 13 -27
0 -14 7 -60 15 -102 7 -42 17 -133 21 -203 5 -100 9 -128 20 -128 8 0 14 -4
14 -10 0 -5 7 -10 15 -10 20 0 19 -13 -5 -40 -11 -13 -20 -27 -20 -31 0 -4 -6
-14 -14 -21 -11 -12 -11 -24 0 -79 8 -35 14 -75 14 -89 0 -25 -23 -97 -41
-132 -6 -12 -8 -40 -4 -69 l7 -49 2244 0 2244 0 -21 42 c-12 23 -28 48 -35 56
-20 19 -17 76 5 120 18 35 18 43 5 131 -8 51 -11 98 -8 103 3 5 6 54 5 109 0
83 3 107 21 144 22 44 23 45 70 45 26 0 48 -4 48 -10 0 -5 16 -10 35 -10 19 0
35 5 35 10 0 6 6 10 14 10 10 0 17 16 21 48 10 78 15 92 31 92 12 0 14 8 9 44
-4 27 -2 52 5 66 8 15 9 25 2 29 -5 3 -13 32 -17 63 l-7 58 39 0 c38 0 41 2
61 48 12 26 26 65 32 88 10 43 39 84 59 84 6 0 11 5 11 10 0 6 6 10 13 10 20
0 37 44 37 96 0 45 20 124 31 124 18 0 30 59 20 96 -18 63 -14 84 12 84 17 0
28 11 45 45 21 44 21 47 5 78 -20 38 -19 105 2 202 8 39 15 79 15 91 0 12 9
32 20 45 11 13 24 29 28 35 5 5 15 21 22 34 7 13 24 35 37 48 21 21 24 31 18
61 -9 47 -9 128 0 223 l8 78 -27 0 c-14 0 -26 5 -26 10 0 6 -17 10 -39 10 -33
0 -40 4 -51 30 -7 16 -16 30 -21 30 -4 0 -16 27 -26 60 -16 55 -20 60 -45 60
-15 0 -28 5 -28 10 0 6 -10 10 -23 10 -12 0 -29 10 -37 21 -8 12 -20 27 -26
33 -6 7 -19 27 -29 46 -20 39 -39 60 -54 60 -6 0 -11 5 -11 10 0 6 -15 10 -33
10 -22 0 -37 7 -47 21 -28 39 -47 59 -59 59 -6 0 -11 5 -11 10 0 6 -6 10 -13
10 -7 0 -19 9 -27 20 -8 11 -18 20 -23 20 -4 0 -43 36 -87 80 -48 48 -87 80
-100 80 -11 0 -20 5 -20 10 0 6 -6 10 -14 10 -8 0 -23 13 -33 30 -9 16 -23 30
-30 30 -7 0 -13 5 -13 10 0 6 -7 10 -15 10 -8 0 -15 5 -15 10 0 6 -7 10 -15
10 -8 0 -15 5 -15 10 0 6 -5 10 -11 10 -17 0 -39 27 -39 50 0 21 -61 90 -79
90 -5 0 -12 9 -16 19 -3 11 -19 34 -35 51 -16 17 -32 40 -35 51 -4 10 -10 19
-15 19 -5 0 -11 9 -15 19 -3 11 -19 34 -34 52 -16 17 -33 37 -39 43 -5 7 -13
37 -17 67 -11 82 -22 100 -125 208 -36 38 -72 78 -80 91 -8 12 -27 36 -42 52
-16 17 -28 33 -28 38 0 4 -8 16 -17 28 -10 11 -25 30 -33 42 -8 12 -27 35 -41
51 -14 15 -32 43 -38 61 -7 18 -19 48 -27 66 -8 18 -14 39 -14 46 0 17 -34 56
-49 56 -6 0 -11 5 -11 10 0 6 -6 10 -14 10 -8 0 -17 15 -21 37 -10 55 -49 123
-70 123 -8 0 -35 26 -35 34 0 3 6 6 13 6 7 0 23 20 35 45 26 53 26 55 9 55 -7
0 -19 9 -27 20 -8 11 -20 20 -27 20 -7 0 -13 5 -13 10 0 6 -11 10 -25 10 -14
0 -25 5 -25 10 0 6 -11 10 -25 10 -14 0 -25 5 -25 10 0 6 -7 10 -15 10 -8 0
-15 5 -15 10 0 6 -5 10 -10 10 -16 0 -96 84 -114 118 -15 30 -13 62 4 62 5 0
12 9 15 20 3 11 13 27 22 35 20 20 11 54 -24 94 -16 17 -40 44 -54 60 -16 19
-31 54 -39 91 -8 38 -18 60 -26 60 -8 0 -14 5 -14 10 0 6 -11 10 -25 10 -29 0
-41 34 -51 155 -6 74 -17 113 -34 125 -4 3 -17 25 -30 49 -28 55 -43 71 -68
71 -22 0 -37 31 -51 106 -6 28 -15 70 -21 95 -9 37 -8 54 9 106 18 56 18 66 6
115 -8 29 -12 69 -9 88 3 19 -1 76 -10 125 -20 116 -21 199 -1 219 16 15 21
66 7 66 -11 0 -49 84 -61 135 -11 46 -29 215 -28 260 0 17 -5 77 -13 135 -10
82 -21 120 -48 174 -32 65 -33 74 -27 133 4 34 8 104 9 155 2 89 12 126 42
155 7 7 19 13 26 13 8 0 20 10 28 21 8 12 20 27 27 34 6 6 27 44 47 83 27 53
36 84 36 121 0 62 7 81 31 81 10 0 19 5 19 10 0 6 6 10 14 10 15 0 26 21 26
49 0 10 9 48 21 85 20 64 20 69 4 114 -9 26 -20 63 -25 82 -5 19 -16 55 -25
80 -10 25 -23 65 -31 90 -21 73 -44 131 -57 146 -27 30 -36 42 -50 71 -20 37
-40 222 -32 284 5 36 2 56 -13 85 -14 29 -21 70 -26 163 -6 102 -10 127 -25
140 -31 27 -60 97 -71 168 -6 37 -17 97 -26 133 -8 36 -21 99 -28 140 -7 41
-22 93 -33 115 -12 23 -28 74 -37 114 -8 41 -19 77 -24 80 -18 12 -52 91 -52
121 0 30 -12 60 -32 84 -40 49 -48 60 -48 68 0 4 -9 8 -20 8 -11 0 -20 5 -20
10 0 6 -9 10 -20 10 -11 0 -20 5 -20 10 0 6 -6 10 -13 10 -8 0 -24 23 -38 52
-13 28 -31 58 -39 67 -11 11 -15 35 -13 95 2 83 -4 104 -42 141 -12 13 -27 38
-34 56 -7 19 -21 54 -31 79 -10 25 -24 60 -31 78 -6 19 -29 52 -51 74 -21 22
-38 46 -38 55 0 8 -13 27 -29 42 -16 15 -40 50 -55 78 -47 93 -30 223 28 223
9 0 16 5 16 10 0 6 11 10 24 10 19 0 26 8 39 48 33 101 31 169 -5 193 -10 7
11 59 24 59 4 0 8 10 8 23 0 12 7 51 14 87 7 36 11 70 9 77 -6 15 -43 18 -43
3 0 -6 -32 -10 -75 -10 l-76 0 -6 30 c-5 28 -23 43 -23 20 0 -5 -10 -10 -23
-10 -12 0 -29 -9 -37 -20 -15 -20 -60 -28 -60 -10 0 6 -13 10 -30 10 -16 0
-30 5 -30 10 0 6 -11 10 -24 10 -17 0 -27 9 -36 30 -17 40 -44 70 -64 70 -9 0
-16 5 -16 10 0 6 -32 10 -75 10 -43 0 -75 4 -75 10 0 6 -9 10 -20 10 -21 0
-28 18 -34 87 -2 23 -10 49 -19 57 -9 9 -19 25 -22 36 -3 11 -11 20 -16 20 -5
0 -9 20 -9 45 0 24 -6 59 -14 77 -8 18 -22 60 -31 93 -9 33 -21 74 -27 90 -6
17 -10 39 -9 50 6 66 0 97 -28 153 -30 59 -32 92 -6 92 19 0 24 23 18 82 -4
41 -2 58 10 69 8 9 18 42 22 75 10 91 12 94 51 94 19 0 34 5 34 10 0 6 9 10
20 10 13 0 22 10 29 33 5 17 10 26 10 20 1 -7 6 -13 12 -13 18 0 89 80 89 101
0 10 4 19 8 19 15 0 34 52 22 60 -21 13 -29 67 -15 107 20 54 19 73 -5 73 -14
0 -20 7 -20 23 0 34 17 85 34 102 17 17 36 20 36 5 0 -21 18 -9 30 20 7 16 19
30 26 30 8 0 14 5 14 10 0 6 14 10 30 10 17 0 30 5 30 10 0 6 9 10 21 10 22 0
49 22 49 40 0 39 75 140 105 140 8 0 15 5 15 10 0 6 18 10 40 10 22 0 40 -4
40 -10 0 -5 22 -10 49 -10 45 0 50 -2 61 -30 7 -16 19 -30 26 -30 8 0 14 -4
14 -10 0 -5 11 -10 25 -10 14 0 25 -4 25 -10 0 -5 9 -10 20 -10 11 0 20 5 20
10 0 6 16 10 35 10 19 0 35 5 35 10 0 6 11 10 25 10 14 0 25 5 25 10 0 6 7 10
15 10 8 0 15 5 15 10 0 6 7 10 15 10 8 0 15 5 15 10 0 6 9 10 20 10 11 0 20 5
20 10 0 6 6 10 14 10 8 0 17 6 20 13 5 10 7 10 12 0 7 -15 54 -17 54 -3 0 6
11 10 25 10 14 0 25 5 25 10 0 6 6 10 13 10 13 0 37 40 37 61 0 13 25 39 37
39 5 0 15 9 23 20 8 11 26 20 41 20 21 0 30 8 44 40 12 26 25 40 37 40 10 0
18 5 18 10 0 6 15 10 34 10 28 0 36 5 46 30 7 17 16 30 20 30 4 0 13 13 20 30
17 40 44 70 64 70 9 0 16 5 16 10 0 6 6 10 14 10 18 0 26 22 26 72 0 21 6 45
13 52 6 8 19 23 27 35 8 11 20 21 27 21 7 0 13 9 13 20 0 11 3 20 8 20 9 0 30
59 42 120 5 25 20 70 34 100 13 30 32 74 42 98 9 23 21 42 25 42 4 0 10 9 14
19 6 21 58 81 70 81 4 0 23 18 43 40 51 54 57 63 72 91 7 13 16 26 20 29 12 8
90 168 90 185 0 10 10 15 31 15 28 0 31 3 26 26 -2 14 1 47 8 72 10 40 13 44
19 25 4 -13 14 -23 21 -23 16 0 17 2 38 135 8 50 23 116 32 148 17 60 14 86
-11 112 -13 13 -12 19 7 56 18 35 20 52 15 101 -7 58 4 88 33 88 6 0 11 5 11
10 0 6 8 10 18 10 10 0 24 9 32 20 10 14 26 20 52 20 23 0 38 5 39 13 0 6 5 1
11 -13 51 -124 61 -140 90 -140 15 0 28 -4 28 -10 0 -5 5 -10 10 -10 6 0 42
-31 80 -70 63 -64 73 -70 110 -70 22 0 40 -4 40 -10 0 -5 14 -10 30 -10 17 0
30 -4 30 -10 0 -5 7 -10 15 -10 8 0 15 -4 15 -10 0 -5 9 -10 20 -10 11 0 20
-4 20 -10 0 -5 7 -10 15 -10 8 0 15 -4 15 -10 0 -5 9 -10 20 -10 11 0 20 -4
20 -10 0 -5 7 -10 15 -10 8 0 15 -4 15 -8 0 -5 8 -18 18 -30 9 -11 24 -30 32
-42 8 -12 22 -30 30 -40 8 -10 22 -28 30 -40 8 -12 20 -28 26 -34 27 -28 34
-54 22 -81 -13 -29 -4 -75 32 -165 12 -30 29 -73 37 -95 8 -22 18 -42 22 -45
16 -10 31 -49 25 -64 -3 -9 -1 -16 6 -16 25 0 58 -52 71 -110 21 -93 99 -297
129 -333 6 -7 22 -26 37 -43 16 -18 35 -42 43 -54 21 -32 67 -80 75 -80 4 0
20 -13 35 -30 15 -16 33 -30 39 -30 6 0 11 -4 11 -10 0 -5 7 -10 15 -10 8 0
15 -4 15 -10 0 -5 7 -10 15 -10 8 0 15 -4 15 -10 0 -5 5 -10 11 -10 15 0 34
-21 54 -60 10 -19 24 -40 31 -47 7 -8 18 -32 24 -53 6 -24 17 -40 25 -40 8 0
15 -4 15 -10 0 -5 7 -10 15 -10 8 0 15 -4 15 -10 0 -5 18 -10 40 -10 22 0 40
5 40 10 0 6 10 10 23 10 12 0 29 9 37 20 11 16 26 20 67 20 29 0 53 5 53 10 0
6 9 10 20 10 11 0 20 5 20 10 0 6 7 10 15 10 8 0 15 5 15 10 0 6 7 10 15 10 8
0 15 5 15 10 0 6 5 10 11 10 6 0 28 18 49 40 21 22 43 40 48 40 24 0 56 142
46 206 -5 33 0 52 21 94 15 29 24 61 21 72 -8 35 14 68 46 68 15 0 28 -4 28
-10 0 -5 7 -10 15 -10 8 0 15 -4 15 -10 0 -5 7 -10 15 -10 8 0 15 -4 15 -10 0
-5 5 -10 10 -10 26 0 90 -89 90 -125 0 -13 18 -15 120 -15 73 0 120 4 120 10
0 6 8 10 19 10 11 0 23 12 31 30 11 28 16 30 61 30 27 0 49 5 49 10 0 6 11 10
25 10 14 0 25 5 25 10 0 6 16 10 35 10 19 0 35 5 35 10 0 6 16 10 35 10 19 0
35 -4 35 -10 0 -5 11 -10 25 -10 14 0 25 -4 25 -10 0 -5 23 -10 50 -10 28 0
50 5 50 10 0 6 28 10 65 10 37 0 65 4 65 10 0 6 7 10 16 10 8 0 33 18 54 40
21 22 43 40 49 40 6 0 11 5 11 10 0 6 7 10 15 10 8 0 15 4 15 8 0 15 37 52 51
52 8 0 21 9 29 20 11 15 26 20 57 20 24 0 43 5 43 10 0 6 8 10 18 10 18 0 42
37 42 65 0 11 13 15 50 15 60 0 84 19 126 101 14 30 30 56 34 59 26 18 44 80
44 150 -1 85 -26 241 -47 291 -8 19 -23 54 -32 79 -9 25 -26 65 -36 90 -40 93
-51 238 -23 291 25 50 54 149 54 188 0 78 -51 171 -94 171 -9 0 -16 5 -16 10
0 6 -5 10 -11 10 -6 0 -28 18 -49 40 -21 22 -43 40 -49 40 -6 0 -11 5 -11 10
0 6 -13 10 -30 10 -16 0 -30 5 -30 10 0 6 -20 10 -45 10 -25 0 -45 5 -45 10 0
6 -6 10 -13 10 -7 0 -19 9 -27 20 -11 15 -26 20 -62 20 -26 0 -48 -4 -48 -10
0 -6 -28 -10 -65 -10 -37 0 -65 4 -65 10 0 6 -6 10 -13 10 -7 0 -19 9 -27 20
-8 11 -20 20 -27 20 -7 0 -13 5 -13 10 0 6 -10 10 -23 10 -12 0 -29 9 -37 20
-8 11 -19 20 -25 20 -6 0 -17 9 -25 20 -10 14 -26 20 -52 20 -21 0 -38 5 -38
10 0 6 -9 10 -21 10 -23 0 -99 74 -99 96 0 32 -66 144 -85 144 -9 0 -105 100
-105 110 0 10 -76 90 -85 90 -4 0 -20 14 -35 30 -15 17 -33 30 -39 30 -6 0
-11 5 -11 10 0 6 -7 10 -15 10 -8 0 -15 5 -15 10 0 6 -27 10 -60 10 -33 0 -60
4 -60 10 0 6 -9 10 -19 10 -11 0 -23 9 -26 20 -3 11 -10 20 -15 20 -19 0 -42
110 -46 216 -2 65 -10 130 -18 155 -9 24 -16 66 -16 92 0 61 -56 177 -85 177
-4 0 -20 14 -35 30 -15 17 -33 30 -39 30 -6 0 -11 5 -11 10 0 6 -9 10 -20 10
-11 0 -20 5 -20 10 0 6 -9 10 -20 10 -11 0 -20 5 -20 10 0 6 -13 10 -30 10
-16 0 -30 5 -30 10 0 6 -27 10 -60 10 -33 0 -60 4 -60 10 0 6 -37 10 -90 10
-53 0 -90 4 -90 10 0 6 -6 10 -13 10 -7 0 -19 9 -27 20 -8 11 -20 20 -27 20
-7 0 -13 5 -13 10 0 6 -7 10 -15 10 -8 0 -15 5 -15 10 0 6 -7 10 -16 10 -8 0
-37 23 -64 50 -27 28 -58 50 -69 50 -12 0 -21 5 -21 10 0 6 -7 10 -15 10 -8 0
-15 5 -15 10 0 6 -6 10 -13 10 -7 0 -19 9 -27 20 -8 11 -20 20 -27 20 -7 0
-13 5 -13 10 0 6 -7 10 -15 10 -8 0 -15 5 -15 10 0 6 -43 10 -110 10 -67 0
-110 -4 -110 -10 0 -5 -9 -10 -20 -10 -11 0 -20 -4 -20 -10 0 -5 -16 -10 -35
-10 -19 0 -35 -4 -35 -10 0 -5 -11 -10 -25 -10 -14 0 -25 -4 -25 -10 0 -5 -16
-10 -35 -10 -19 0 -35 -4 -35 -10 0 -5 -6 -10 -13 -10 -7 0 -19 -9 -27 -20 -8
-11 -22 -20 -32 -20 -10 0 -18 -4 -18 -10 0 -5 -11 -10 -25 -10 -14 0 -25 -4
-25 -10 0 -5 -9 -10 -19 -10 -11 0 -22 -6 -24 -12 -4 -10 -6 -10 -6 0 -1 19
-35 14 -51 -8 -8 -11 -25 -20 -37 -20 -13 0 -23 -4 -23 -10 0 -5 -11 -10 -25
-10 -14 0 -25 -4 -25 -10 0 -5 -13 -10 -28 -10 -16 0 -34 -8 -42 -20 -16 -22
-70 -28 -71 -7 0 6 -5 2 -11 -10 -12 -25 -43 -31 -52 -10 -5 10 -7 10 -12 0
-7 -15 -54 -17 -54 -3 0 6 -32 10 -75 10 -43 0 -75 4 -75 10 0 6 -20 10 -45
10 -25 0 -45 4 -45 8 0 5 -8 18 -17 30 -10 11 -25 30 -33 41 -9 13 -25 21 -42
21 -15 0 -28 5 -28 10 0 6 -13 10 -30 10 -16 0 -30 5 -30 10 0 6 -6 10 -13 10
-7 0 -19 9 -27 20 -8 11 -22 20 -32 20 -10 0 -18 5 -18 10 0 6 -8 10 -18 10
-10 0 -24 9 -32 20 -8 11 -18 20 -23 20 -19 0 -37 31 -37 64 0 20 -5 36 -11
36 -6 0 -28 18 -49 40 -21 22 -42 40 -47 40 -5 0 -15 9 -23 20 -8 11 -20 20
-27 20 -7 0 -13 5 -13 10 0 6 -6 10 -13 10 -7 0 -19 9 -27 20 -8 11 -20 20
-26 20 -6 0 -14 12 -17 28 -7 32 -39 72 -58 72 -8 0 -21 9 -29 20 -8 11 -20
20 -27 20 -7 0 -13 4 -13 9 0 12 -56 71 -67 71 -6 0 -15 11 -21 25 -7 14 -17
31 -22 38 -39 46 -50 62 -55 78 -4 11 -13 19 -21 19 -8 0 -14 5 -14 10 0 6 -7
10 -15 10 -8 0 -15 5 -15 10 0 6 -7 10 -15 10 -8 0 -15 6 -15 13 0 8 -4 7 -11
-3 -8 -11 -12 -12 -16 -2 -2 6 -11 12 -19 12 -8 0 -14 5 -14 10 0 6 -7 10 -15
10 -8 0 -15 5 -15 10 0 6 -7 10 -15 10 -8 0 -15 5 -15 10 0 6 -16 10 -35 10
-19 0 -35 5 -35 10 0 6 -6 10 -14 10 -8 0 -17 9 -21 19 -8 26 -65 87 -65 71 0
-7 -9 -3 -20 10 -11 13 -20 27 -20 32 0 4 -9 8 -20 8 -11 0 -20 5 -20 10 0 6
-13 10 -30 10 -16 0 -30 5 -30 10 0 6 -6 10 -13 10 -7 0 -19 9 -27 20 -8 11
-19 20 -25 20 -6 0 -17 9 -25 20 -8 11 -18 20 -23 20 -5 0 -22 14 -37 30 -15
17 -31 30 -35 30 -8 0 -53 47 -75 79 -9 13 -25 21 -42 21 -15 0 -28 5 -28 10
0 6 -9 10 -20 10 -11 0 -20 5 -20 10 0 6 -7 10 -15 10 -8 0 -15 5 -15 10 0 6
-7 10 -15 10 -8 0 -15 5 -15 10 0 6 -11 10 -25 10 -14 0 -25 5 -25 10 0 6 -13
10 -30 10 -16 0 -30 5 -30 10 0 6 -11 10 -24 10 -17 0 -27 7 -31 23 -12 44
-38 97 -48 97 -15 0 -41 34 -67 89 -18 40 -28 51 -47 51 -13 0 -23 5 -23 10 0
6 -7 10 -15 10 -8 0 -15 5 -15 10 0 6 -5 10 -11 10 -6 0 -24 14 -39 30 -19 21
-37 30 -59 30 -17 0 -31 5 -31 10 0 6 -11 10 -25 10 -14 0 -25 5 -25 10 0 6
-11 10 -25 10 -14 0 -25 5 -25 10 0 6 -5 10 -11 10 -13 0 -49 38 -49 52 0 4
-7 8 -16 8 -11 0 -14 6 -9 20 4 13 2 20 -7 20 -8 0 -20 9 -28 20 -8 11 -24 20
-35 20 -11 0 -27 9 -35 21 -8 11 -23 30 -32 41 -10 12 -18 25 -18 30 0 4 -7 8
-15 8 -8 0 -15 5 -15 10 0 6 -8 10 -18 10 -10 0 -24 9 -32 20 -8 11 -20 20
-27 20 -7 0 -13 5 -13 10 0 6 -7 10 -15 10 -8 0 -15 5 -15 10 0 6 -6 10 -13
10 -7 0 -19 9 -27 20 -8 12 -26 20 -42 20 -15 0 -28 5 -28 10 0 6 -47 10 -120
10 -73 0 -120 4 -120 10 0 6 -10 10 -21 10 -21 0 -59 34 -59 52 0 4 -7 8 -15
8 -8 0 -15 5 -15 10 0 6 -13 10 -29 10 -23 0 -31 6 -41 31 -7 17 -29 48 -49
69 -20 22 -41 46 -47 53 -7 8 -17 56 -24 107 -12 90 -11 96 15 179 43 139 143
361 162 361 7 0 13 5 13 10 0 6 7 10 15 10 25 0 19 83 -10 140 -14 27 -25 56
-25 64 0 8 -11 26 -24 39 -13 13 -29 34 -36 47 -7 13 -21 33 -31 44 -82 91
-120 126 -138 126 -12 0 -21 5 -21 10 0 6 -11 10 -25 10 -14 0 -25 5 -25 10 0
6 -18 10 -40 10 -22 0 -40 5 -40 10 0 6 -5 10 -10 10 -17 0 -210 199 -210 216
0 8 -10 34 -22 57 -19 36 -22 57 -22 152 1 95 6 132 30 216 5 17 -27 59 -45
59 -6 0 -11 5 -11 10 0 14 -38 12 -43 -2 -3 -9 -11 -5 -26 11 -23 26 -27 88
-12 168 9 45 36 82 44 60 4 -9 6 -9 6 1 1 6 8 12 16 12 8 0 15 5 15 10 0 6 7
10 15 10 8 0 15 5 15 10 0 6 5 10 11 10 6 0 18 7 26 16 14 14 15 21 4 51 -11
29 -11 41 2 72 8 20 21 51 27 69 7 17 19 32 26 32 8 0 14 5 14 10 0 6 16 10
35 10 19 0 35 5 35 10 0 6 11 10 25 10 14 0 25 5 25 10 0 6 6 10 13 10 7 0 19
9 27 20 8 11 20 20 27 20 7 0 13 5 13 10 0 6 5 10 11 10 24 0 39 30 39 80 0
58 15 80 54 80 16 0 27 7 31 20 3 11 10 20 14 20 5 0 14 14 21 30 7 17 16 30
20 30 17 0 19 32 3 65 -17 35 -16 36 18 106 54 113 47 109 186 109 l121 0 12
30 c7 17 16 30 20 30 4 0 13 14 20 30 7 17 19 30 26 30 8 0 14 5 14 10 0 6 7
10 15 10 22 0 19 24 -10 80 -14 27 -25 56 -25 64 0 15 53 76 65 76 13 0 45 43
52 69 3 14 17 49 31 76 14 28 31 70 38 95 7 25 21 68 32 96 16 43 18 60 9 112
l-10 61 42 40 c47 45 75 117 92 235 11 80 10 79 69 144 l27 31 23 -50 23 -49
74 0 c42 0 73 -4 73 -10 0 -6 28 -10 65 -10 37 0 65 4 65 10 0 6 9 10 20 10
11 0 20 5 20 10 0 6 11 10 25 10 14 0 25 5 25 10 0 6 11 10 25 10 14 0 25 5
25 10 0 6 7 10 15 10 8 0 15 4 15 9 0 11 75 91 85 91 13 0 32 26 38 52 4 15
14 34 23 43 23 22 52 109 47 137 -3 14 3 32 16 47 12 13 21 18 21 11 0 -7 9
-3 20 10 11 13 20 36 20 52 0 15 4 28 8 28 8 0 49 83 88 178 9 23 21 42 27 42
5 0 22 14 37 30 15 17 35 30 44 30 9 0 16 5 16 10 0 6 8 10 19 10 11 0 23 12
31 30 17 40 44 70 64 70 9 0 16 5 16 10 0 6 5 10 11 10 13 0 69 58 69 71 0 5
6 9 14 9 7 0 19 14 26 30 20 48 64 90 95 90 17 0 37 11 55 30 15 17 32 30 37
30 5 0 15 10 23 21 8 12 20 27 26 33 6 7 19 28 29 46 10 19 21 37 25 40 12 8
77 143 84 175 4 17 9 37 12 46 3 10 -11 33 -36 59 -22 23 -40 46 -40 51 0 5
-6 9 -14 9 -8 0 -17 10 -21 23 -3 12 -19 51 -35 87 -16 36 -34 84 -40 107 -7
29 -27 59 -60 93 -28 28 -50 53 -50 54 0 16 45 136 73 196 113 243 133 284
143 295 7 6 24 35 39 65 15 29 49 74 75 100 27 26 63 76 80 111 18 35 36 66
40 69 4 3 17 25 30 49 12 24 26 49 31 55 24 29 45 56 59 76 8 12 23 31 32 42
10 11 25 47 35 79 13 43 22 59 35 59 10 0 18 7 18 15 0 48 127 205 166 205 17
0 54 36 54 52 0 4 11 8 25 8 14 0 25 5 25 10 0 6 7 10 15 10 8 0 15 5 15 10 0
6 11 10 25 10 14 0 25 5 25 10 0 6 38 10 94 10 66 0 96 4 99 13 4 10 6 10 6 0
1 -16 91 -18 91 -3 0 6 23 10 50 10 28 0 50 5 50 10 0 6 14 10 30 10 17 0 30
5 30 10 0 6 7 10 15 10 8 0 15 5 15 10 0 6 7 10 15 10 8 0 15 5 15 10 0 6 7
10 15 10 8 0 15 5 15 10 0 6 11 10 25 10 14 0 25 5 25 10 0 6 8 10 18 10 10 0
24 9 32 20 8 11 25 20 37 20 13 0 23 5 23 10 0 6 9 10 20 10 11 0 20 5 20 10
0 6 7 10 15 10 8 0 15 5 15 10 0 6 9 10 20 10 11 0 20 5 20 10 0 6 9 10 20 10
11 0 20 5 20 10 0 6 9 10 20 10 11 0 20 5 20 10 0 6 6 10 13 10 7 0 19 9 27
20 9 12 26 20 45 20 20 0 36 7 45 21 8 12 34 41 57 64 43 44 73 93 73 119 0 8
8 22 18 32 13 14 17 36 18 103 0 91 20 162 53 190 21 18 61 93 61 114 0 8 9
24 20 37 13 15 18 31 14 46 -11 41 3 74 31 74 14 0 25 5 25 10 0 6 32 10 75
10 43 0 75 4 75 10 0 6 7 10 15 10 8 0 15 5 15 10 0 6 6 10 13 10 7 0 19 9 27
20 8 11 21 20 28 20 8 0 12 6 8 15 -7 20 3 45 18 45 35 0 52 134 31 253 -7 40
-5 47 9 47 9 0 16 5 16 10 0 6 6 10 14 10 8 0 17 6 19 13 4 10 6 10 6 0 1 -7
12 -13 26 -13 18 0 25 5 25 20 0 11 -7 20 -15 20 -8 0 -15 5 -15 10 0 6 -13
10 -30 10 -16 0 -30 -4 -30 -10 0 -5 -13 -10 -29 -10 -16 0 -32 -6 -34 -12 -4
-10 -6 -10 -6 0 -1 7 -15 12 -36 12 -19 0 -35 5 -35 10 0 6 -12 10 -26 10 -24
0 -25 1 -18 48 3 26 11 56 16 66 22 42 27 78 14 92 -17 16 -12 64 15 176 10
42 19 93 19 113 0 20 7 50 16 66 10 19 14 51 13 87 -3 53 10 98 33 113 11 7
35 108 50 207 8 54 7 80 -1 98 -6 14 -11 37 -11 52 0 22 -2 24 -11 12 -8 -11
-8 -4 -3 25 13 65 10 235 -5 244 -8 5 -11 25 -8 61 3 32 0 59 -7 66 -6 6 -18
22 -26 34 -8 12 -23 31 -32 42 -10 12 -18 25 -18 30 0 4 -7 8 -15 8 -8 0 -15
5 -15 10 0 6 -6 10 -14 10 -8 0 -18 9 -21 20 -3 11 -13 20 -21 20 -8 0 -14 4
-14 9 0 5 -13 23 -30 41 -16 17 -34 51 -40 73 -15 60 -42 118 -65 141 -34 35
-60 136 -35 136 6 0 10 9 10 20 0 13 -7 20 -20 20 -12 0 -21 8 -24 23 -11 54
-20 178 -18 249 3 79 -15 137 -55 177 -18 18 -12 85 12 132 14 26 14 38 4 84
-9 41 -9 60 0 82 6 16 14 62 16 103 2 41 4 78 4 83 1 4 7 7 14 7 14 0 37 40
37 65 0 8 -4 15 -9 15 -5 0 -13 9 -16 20 -3 11 -12 26 -19 33 -20 19 -52 87
-60 124 -5 23 -1 43 14 73 19 38 20 47 10 91 -10 39 -9 59 1 94 7 25 17 45 21
45 4 0 8 29 8 65 0 62 23 135 42 135 5 0 7 52 4 115 -3 86 -8 119 -20 131 -9
8 -16 19 -16 24 0 5 -6 15 -14 22 -7 8 -24 34 -36 57 -12 24 -30 53 -41 65
-10 11 -40 44 -67 73 -68 76 -72 81 -72 98 0 8 -6 15 -14 15 -8 0 -17 6 -19
13 -4 9 -8 9 -16 -2 -8 -12 -11 -9 -17 14 -7 29 -85 115 -104 115 -5 0 -10 5
-10 10 0 6 -5 10 -11 10 -20 0 -50 42 -43 62 3 10 1 18 -4 18 -20 0 -82 200
-82 264 0 15 -11 49 -25 76 -14 27 -25 56 -25 63 0 15 -33 57 -44 57 -4 0 -25
18 -46 40 -21 22 -43 40 -49 40 -6 0 -11 5 -11 10 0 6 -5 10 -11 10 -16 0 -44
34 -59 70 -7 17 -16 30 -20 30 -4 0 -11 17 -15 37 -4 20 -18 59 -31 86 -18 34
-23 57 -19 77 4 17 0 40 -8 57 -8 15 -25 73 -37 128 -25 112 -39 155 -50 155
-4 0 -15 18 -25 40 -10 22 -21 40 -25 40 -10 0 -36 81 -45 138 -4 26 -3 42 4
42 15 0 27 93 12 98 -6 2 -11 7 -11 11 0 12 36 51 48 51 5 0 12 12 15 27 5 28
-30 112 -59 141 -8 7 -14 17 -14 21 0 4 -9 18 -19 30 -33 38 -35 84 -6 140 19
39 25 66 25 116 0 36 4 65 9 65 10 0 20 101 20 196 0 37 5 67 13 75 9 10 13
45 11 124 -1 112 -16 189 -40 213 -15 16 -17 37 -3 61 6 13 4 34 -9 72 -38
108 -50 415 -19 474 9 17 19 45 23 63 l7 32 -2401 0 -2401 0 0 -1313z"/>
<path fill="#ffffff" stroke="000000" stroke-width="0.01" d="M17750 24760 c0 -5 -6 -10 -13 -10 -7
0 -19 -9 -27 -20 -8 -11 -19 -20 -25 -20 -6 0 -17 -9 -25 -20 -8 -11 -21 -20
-30 -20 -9 0 -22 -9 -30 -20 -8 -11 -20 -20 -27 -20 -7 0 -13 -4 -13 -10 0 -5
-7 -10 -15 -10 -8 0 -15 -4 -15 -10 0 -5 -13 -10 -30 -10 -16 0 -30 -4 -30
-10 0 -5 -7 -10 -15 -10 -8 0 -15 -4 -15 -10 0 -5 -6 -10 -13 -10 -7 0 -19 -9
-27 -20 -8 -11 -18 -20 -22 -20 -15 0 -116 -107 -134 -141 -19 -38 -38 -59
-53 -59 -6 0 -11 -4 -11 -10 0 -5 -8 -10 -18 -10 -10 0 -24 -9 -32 -20 -8 -11
-20 -20 -27 -20 -7 0 -13 -4 -13 -10 0 -5 -7 -10 -15 -10 -8 0 -15 -4 -15 -10
0 -5 -9 -10 -20 -10 -11 0 -20 -4 -20 -10 0 -5 -7 -10 -15 -10 -8 0 -15 -4
-15 -10 0 -5 -7 -10 -15 -10 -8 0 -15 -4 -15 -10 0 -5 -7 -10 -16 -10 -9 0
-29 -13 -44 -30 -15 -16 -32 -30 -37 -30 -5 0 -15 -9 -23 -20 -8 -11 -19 -20
-24 -20 -10 0 -46 -39 -46 -50 0 -9 -36 -50 -44 -50 -11 0 -73 -65 -86 -90
-14 -26 -24 -39 -57 -74 -11 -13 -31 -43 -43 -67 -12 -23 -27 -48 -34 -56 -32
-35 -36 -45 -36 -75 0 -18 9 -85 20 -148 11 -63 20 -127 20 -142 0 -16 5 -28
11 -28 7 0 9 -11 6 -29 -4 -19 -2 -31 6 -34 8 -2 8 -13 -2 -44 -12 -36 -11
-44 8 -82 24 -45 23 -31 15 -343 -3 -104 -1 -188 3 -188 5 0 15 -21 23 -47 7
-27 18 -53 24 -60 41 -47 49 -61 80 -155 21 -61 24 -87 20 -139 -5 -47 -2 -76
11 -109 9 -25 28 -76 41 -114 14 -37 32 -82 40 -99 10 -18 20 -76 25 -139 l9
-109 -51 -50 c-30 -29 -55 -64 -60 -84 -6 -21 -16 -35 -26 -35 -9 0 -24 -10
-35 -22 -16 -18 -19 -32 -14 -66 7 -51 25 -72 60 -72 19 0 26 -5 26 -19 0 -11
7 -27 16 -36 15 -15 15 -20 0 -67 -19 -60 -20 -66 -3 -83 31 -35 37 -45 37
-60 0 -9 9 -15 25 -15 14 0 25 -4 25 -10 0 -5 11 -10 25 -10 14 0 25 -4 25
-10 0 -5 11 -10 25 -10 14 0 25 -4 25 -10 0 -5 11 -10 25 -10 14 0 25 -4 25
-10 0 -5 11 -10 25 -10 14 0 25 -4 25 -10 0 -5 11 -10 25 -10 14 0 25 -4 25
-10 0 -5 11 -10 25 -10 14 0 25 -4 25 -10 0 -5 9 -10 20 -10 11 0 20 -5 20
-12 0 -21 40 35 50 71 5 20 10 64 10 99 0 39 4 62 11 62 9 0 50 37 49 44 0 1
-7 19 -15 41 -8 22 -14 61 -15 88 0 35 -4 47 -15 47 -8 0 -15 -4 -15 -10 0 -5
-16 -10 -35 -10 -19 0 -35 -4 -35 -10 0 -5 -11 -10 -24 -10 -13 0 -26 -6 -28
-12 -3 -9 -9 -8 -21 4 -22 21 -21 40 1 66 9 11 24 30 32 42 14 21 55 68 118
135 33 35 51 93 78 241 2 11 13 31 24 44 11 13 25 40 30 62 6 21 14 38 19 38
12 0 31 48 31 80 0 41 -20 80 -42 80 -10 0 -18 6 -18 13 0 8 -4 7 -11 -3 -8
-11 -12 -12 -16 -2 -2 6 -15 12 -28 12 -13 0 -26 6 -29 13 -5 9 -7 9 -12 0 -8
-17 -25 1 -53 55 -25 50 -28 147 -7 267 8 44 17 130 21 190 11 186 39 295 74
295 6 0 11 5 11 10 0 6 6 10 14 10 11 0 16 21 19 93 4 100 48 281 85 354 12
23 22 49 22 58 0 8 4 15 9 15 5 0 14 15 21 33 21 56 61 149 101 235 21 45 39
92 39 103 0 21 17 60 30 69 4 3 15 20 24 39 17 32 99 121 112 121 3 0 19 14
34 30 15 17 31 30 34 30 4 0 47 41 96 90 49 50 93 90 97 90 5 0 15 9 23 20 8
11 20 20 27 20 7 0 13 5 13 10 0 6 9 10 20 10 11 0 20 5 20 10 0 6 8 10 19 10
25 0 38 38 45 136 6 79 5 83 -21 112 -16 16 -35 40 -43 52 -8 12 -23 31 -32
42 -10 12 -18 25 -18 30 0 4 -9 8 -20 8 -11 0 -20 5 -20 10 0 6 -7 10 -15 10
-8 0 -15 5 -15 10 0 6 -11 10 -25 10 -14 0 -25 5 -25 10 0 6 -27 10 -60 10
-33 0 -60 4 -60 10 0 6 -25 10 -55 10 -30 0 -55 -4 -55 -10z"/>
<path fill="#ffffff" stroke="000000" stroke-width="0.01" d="M16165 23471 c-10 -32 -42 -64 -49 -49
-5 10 -7 10 -12 1 -3 -8 -25 -13 -55 -13 -27 0 -49 -4 -49 -10 0 -5 -16 -10
-36 -10 -52 0 -77 -33 -103 -136 -6 -22 -20 -52 -31 -65 -11 -13 -24 -29 -29
-35 -5 -6 -17 -26 -26 -45 -10 -19 -21 -36 -25 -39 -4 -3 -13 -16 -20 -29 -14
-27 -19 -34 -70 -91 -51 -57 -56 -64 -70 -90 -7 -14 -18 -30 -24 -37 -6 -7
-18 -20 -26 -29 -8 -10 -18 -49 -22 -87 -4 -39 -11 -73 -17 -76 -13 -8 -24
-75 -16 -100 3 -12 13 -21 21 -21 8 0 14 -4 14 -10 0 -5 7 -10 15 -10 8 0 15
-4 15 -10 0 -5 7 -10 15 -10 8 0 15 -4 15 -10 0 -5 11 -10 25 -10 14 0 25 5
25 10 0 6 7 10 15 10 8 0 15 5 15 10 0 6 7 10 15 10 8 0 15 5 15 10 0 6 11 10
25 10 14 0 25 5 25 10 0 6 9 10 20 10 11 0 20 5 20 10 0 6 7 10 15 10 8 0 15
5 15 10 0 6 7 10 15 10 8 0 15 5 15 10 0 6 9 10 19 10 11 0 23 9 26 20 5 17
15 20 66 20 33 0 59 4 59 10 0 6 9 10 20 10 22 0 25 16 11 52 -5 13 -18 50
-27 83 -10 33 -21 62 -24 65 -15 11 -30 51 -30 80 0 36 20 60 49 60 12 0 21 5
21 10 0 6 5 10 11 10 12 0 31 20 59 59 8 12 20 21 27 21 7 0 13 5 13 10 0 6 6
10 13 10 7 0 19 9 27 21 8 11 23 30 33 41 9 12 17 24 17 28 0 4 9 17 20 30 22
26 24 38 11 72 -5 13 -17 48 -26 78 -25 85 -36 110 -51 110 -7 0 -15 -8 -19
-19z"/>
<path fill="#ffffff" stroke="000000" stroke-width="0.01" d="M15350 22000 c0 -5 -9 -10 -20 -10 -11
0 -20 -4 -20 -10 0 -5 -7 -10 -15 -10 -8 0 -15 -4 -15 -10 0 -5 -5 -10 -11
-10 -15 0 -34 -20 -53 -57 -18 -37 -12 -115 11 -139 17 -17 14 -70 -8 -121
-11 -27 -11 -41 0 -85 7 -29 14 -89 15 -133 1 -49 9 -99 21 -130 16 -44 18
-83 19 -330 1 -356 -9 -574 -30 -645 -9 -30 -18 -73 -21 -95 -7 -69 -12 -82
-43 -115 -35 -38 -39 -75 -9 -101 16 -14 20 -25 15 -44 -4 -14 -12 -25 -19
-25 -7 0 -29 -32 -48 -71 -19 -40 -42 -81 -52 -92 -9 -11 -22 -37 -27 -59 -6
-21 -15 -38 -19 -38 -12 0 -23 -27 -31 -80 -29 -176 -45 -257 -56 -267 -7 -7
-24 -13 -38 -13 -16 0 -27 -7 -31 -20 -3 -11 -11 -20 -17 -20 -6 0 -7 -8 -3
-17 3 -10 8 -67 9 -128 3 -92 0 -116 -15 -147 -11 -21 -19 -44 -19 -53 0 -8
-4 -15 -9 -15 -5 0 -14 -13 -21 -30 -7 -16 -16 -30 -20 -30 -9 0 -36 -64 -51
-119 -6 -25 -10 -95 -9 -155 2 -112 -14 -221 -47 -316 -9 -26 -19 -102 -23
-180 -7 -144 -26 -210 -61 -210 -24 0 -37 -42 -43 -140 -5 -86 -20 -144 -43
-168 -21 -22 -27 -63 -14 -97 20 -58 8 -175 -19 -175 -16 0 -29 -61 -34 -170
-6 -101 -4 -124 14 -180 28 -87 36 -162 20 -200 -7 -16 -16 -30 -20 -30 -16 0
-33 -61 -40 -150 -4 -52 -15 -113 -25 -135 -10 -22 -30 -69 -46 -105 -63 -141
-65 -293 -5 -356 6 -6 18 -21 26 -33 8 -11 20 -21 27 -21 7 0 13 -4 13 -10 0
-5 7 -10 15 -10 8 0 15 -4 15 -9 0 -5 14 -24 30 -42 17 -19 34 -39 40 -46 5
-6 12 -41 16 -77 7 -70 -7 -126 -32 -126 -8 0 -14 -4 -14 -10 0 -6 -38 -10
-94 -10 -86 0 -95 -2 -101 -20 -3 -11 -10 -20 -15 -20 -13 0 -19 -53 -8 -75 6
-11 19 -27 30 -36 11 -10 18 -30 18 -53 0 -25 4 -36 15 -36 8 0 15 -4 15 -10
0 -5 13 -10 30 -10 23 0 31 -5 36 -25 6 -25 -12 -110 -37 -171 -11 -27 -10
-34 3 -48 19 -18 128 -23 128 -6 0 6 12 10 26 10 24 0 64 32 64 50 0 4 9 17
20 30 11 13 20 29 20 36 0 28 34 84 51 84 10 0 20 6 22 13 4 10 6 10 6 0 1 -7
8 -13 16 -13 9 0 18 -12 22 -30 4 -23 11 -30 29 -30 13 0 24 -4 24 -10 0 -5
11 -10 25 -10 28 0 83 -49 109 -96 8 -16 15 -23 16 -16 0 7 13 12 31 12 23 0
42 12 80 51 27 28 49 54 49 59 0 5 7 15 15 24 22 21 30 99 15 136 -7 16 -16
30 -21 30 -4 0 -11 21 -15 48 -4 26 -15 64 -25 84 -22 43 -23 60 -8 103 10 27
8 38 -15 82 -29 58 -51 116 -71 187 -21 75 -9 417 16 468 11 21 19 42 19 48 0
10 7 21 36 53 30 34 54 99 54 146 0 69 18 192 41 286 11 43 18 91 16 105 -3
13 0 34 6 45 6 11 14 36 18 55 39 182 61 250 82 250 17 0 47 42 56 79 25 107
41 189 41 213 0 20 -17 44 -63 91 -49 49 -66 74 -75 110 -7 25 -12 51 -12 56
0 6 51 61 113 123 91 92 112 118 113 143 0 17 4 95 8 176 7 120 6 148 -6 160
-10 10 -14 47 -15 149 -1 124 1 138 23 183 25 49 104 137 124 137 5 0 13 12
16 28 8 31 63 144 74 152 13 9 40 69 40 90 0 11 11 43 25 70 14 27 25 58 25
68 0 26 37 148 61 200 10 23 19 49 19 57 0 7 6 20 14 27 7 8 24 34 36 58 27
52 43 70 64 70 9 0 16 5 16 10 0 6 7 10 15 10 8 0 15 4 15 10 0 5 11 20 24 33
33 33 57 81 71 147 7 30 17 69 23 85 34 98 54 181 61 265 8 93 4 116 -23 147
-28 31 -36 43 -56 83 -18 35 -21 53 -16 104 3 33 9 118 12 188 5 107 3 130 -9
143 -9 8 -23 15 -31 15 -9 0 -16 5 -16 10 0 6 -9 10 -20 10 -11 0 -20 5 -20
10 0 6 -9 10 -20 10 -14 0 -22 10 -29 37 -6 20 -8 39 -6 43 2 3 -3 25 -11 49
-10 30 -11 47 -4 61 7 13 7 27 2 38 -28 53 -24 192 5 192 25 0 46 29 39 55 -9
37 -50 34 -66 -5 -7 -16 -15 -30 -18 -30 -12 0 -43 46 -51 76 -10 36 -32 64
-50 64 -6 0 -11 5 -11 10 0 6 -7 10 -15 10 -8 0 -15 4 -15 8 0 5 -9 19 -20 32
-11 13 -20 30 -20 39 0 10 -8 27 -17 40 -33 43 -172 181 -183 181 -5 0 -10 5
-10 10 0 6 -16 10 -35 10 -19 0 -35 5 -35 10 0 6 -13 10 -30 10 -16 0 -30 -4
-30 -10z"/>
<path fill="#ffffff" stroke="000000" stroke-width="0.01" d="M16020 21520 c0 -5 -5 -10 -11 -10 -21
0 -39 -29 -39 -64 0 -36 0 -36 45 -36 25 0 45 5 45 10 0 6 9 10 20 10 17 0 20
7 20 40 0 33 -3 40 -20 40 -11 0 -20 5 -20 10 0 6 -9 10 -20 10 -11 0 -20 -4
-20 -10z"/>
<path fill="#ffffff" stroke="000000" stroke-width="0.01" d="M16286 21391 c-14 -30 -16 -46 -8 -74
11 -40 53 -87 77 -87 8 0 15 -4 15 -10 0 -5 14 -10 30 -10 17 0 30 -4 30 -10
0 -5 11 -10 25 -10 14 0 25 5 25 10 0 6 16 10 36 10 19 0 42 7 50 14 22 23 47
111 40 140 -6 23 -11 26 -51 26 -25 0 -45 -4 -45 -10 0 -6 -26 -10 -58 -10
-46 0 -60 4 -72 20 -8 11 -25 20 -37 20 -13 0 -23 5 -23 10 0 23 -18 8 -34
-29z"/>
<path fill="#ffffff" stroke="000000" stroke-width="0.01" d="M16752 20843 c-6 -16 -20 -62 -32 -103
-12 -41 -26 -86 -31 -99 -16 -39 9 -136 63 -244 27 -55 56 -107 64 -114 8 -8
14 -22 14 -32 0 -33 35 -61 74 -61 20 0 36 -4 36 -10 0 -5 18 -10 40 -10 22 0
40 -4 40 -10 0 -5 15 -10 34 -10 19 0 37 -6 39 -12 4 -10 6 -10 6 0 1 7 16 12
40 12 34 0 40 4 51 30 10 25 10 42 0 90 -7 33 -10 80 -7 105 4 29 1 61 -8 88
-8 23 -15 65 -15 94 0 81 -20 153 -42 153 -10 0 -18 5 -18 10 0 6 -11 10 -25
10 -14 0 -25 5 -25 10 0 6 -11 10 -25 10 -14 0 -25 5 -25 10 0 6 -9 10 -20 10
-11 0 -20 5 -20 10 0 6 -11 10 -25 10 -14 0 -25 5 -25 10 0 6 -9 10 -20 10
-11 0 -20 5 -20 10 0 6 -11 10 -25 10 -14 0 -25 5 -25 10 0 6 -9 10 -20 10
-11 0 -20 5 -20 10 0 20 -18 9 -28 -17z"/>
<path fill="#ffffff" stroke="000000" stroke-width="0.01" d="M17070 19721 c0 -5 -14 -24 -30 -42
-17 -19 -35 -40 -41 -47 -6 -7 -7 -35 -3 -70 5 -48 3 -66 -15 -99 -26 -51 -39
-208 -22 -268 6 -22 14 -118 17 -213 5 -130 11 -177 21 -188 19 -19 27 -167
11 -197 -7 -13 -13 -78 -14 -157 -2 -74 -6 -174 -9 -222 l-7 -88 145 0 144 0
9 106 c17 199 -26 599 -66 612 -16 6 -32 82 -25 120 4 19 13 41 21 49 27 27
16 293 -12 293 -8 0 -14 9 -14 20 0 11 4 20 9 20 4 0 13 37 19 81 15 122 -8
239 -47 239 -6 0 -11 5 -11 10 0 6 -7 10 -15 10 -8 0 -15 5 -15 10 0 6 -7 10
-15 10 -8 0 -15 5 -15 10 0 6 -4 10 -10 10 -5 0 -10 -4 -10 -9z"/>
</g>
</svg>
