<?xml version="1.0" standalone="no"?>
<!DOCTYPE svg PUBLIC "-//W3C//DTD SVG 20010904//EN"
 "http://www.w3.org/TR/2001/REC-SVG-20010904/DTD/svg10.dtd">
<svg version="1.0" xmlns="http://www.w3.org/2000/svg"
 width="3506.000000pt" height="3950.000000pt" viewBox="0 0 3506.000000 3950.000000"
 preserveAspectRatio="xMidYMid meet">
<metadata>
Created by potrace 1.15, written by Peter Selinger 2001-2017
</metadata>
<g transform="translate(0.000000,3950.000000) scale(0.100000,-0.100000)"
fill="#ffffff" stroke="000000" stroke-width="0.01">
<path fill="#ffffff" stroke="000000" stroke-width="0.01" d="M0 37965 c0 -1281 2 -1535 13 -1535 12
0 27 -27 58 -108 10 -24 18 -34 109 -130 33 -35 60 -67 60 -73 0 -5 5 -9 11
-9 14 0 33 -20 52 -55 9 -17 16 -24 17 -17 0 6 7 12 15 12 10 0 15 -10 15 -28
0 -16 8 -38 18 -50 9 -11 24 -30 32 -42 8 -12 31 -40 51 -60 20 -21 42 -52 49
-69 10 -25 18 -31 41 -31 16 0 29 -4 29 -10 0 -5 7 -10 15 -10 8 0 15 -4 15
-10 0 -5 7 -10 15 -10 8 0 15 -4 15 -10 0 -5 5 -10 10 -10 6 0 21 -10 34 -23
26 -26 41 -95 37 -167 -2 -34 3 -51 18 -69 12 -13 21 -27 21 -31 0 -12 37 -50
49 -50 29 0 71 -72 71 -120 0 -19 -9 -40 -23 -54 -12 -13 -29 -33 -37 -45 -8
-11 -20 -21 -27 -21 -7 0 -13 -9 -13 -20 0 -12 7 -20 16 -20 8 0 22 -6 29 -14
17 -17 45 -92 45 -123 0 -12 6 -28 14 -35 21 -21 47 -77 41 -88 -8 -13 16 -60
32 -60 7 0 13 -4 13 -10 0 -5 6 -10 14 -10 11 0 13 -9 9 -37 -4 -21 -12 -43
-19 -50 -16 -16 -294 -19 -294 -3 0 6 -7 10 -15 10 -8 0 -15 5 -15 10 0 6 -7
10 -15 10 -8 0 -19 16 -25 40 -10 38 -13 40 -50 40 -22 0 -40 -4 -40 -10 0 -5
-7 -10 -15 -10 -8 0 -15 -4 -15 -9 0 -5 -6 -16 -14 -24 -11 -11 -12 -21 -3
-50 7 -20 18 -37 24 -37 7 0 13 -4 13 -10 0 -5 7 -10 15 -10 22 0 19 -7 -20
-46 -20 -20 -38 -49 -42 -65 -3 -16 -11 -29 -18 -29 -15 0 -35 -43 -35 -75 0
-13 -7 -30 -15 -39 -10 -10 -15 -35 -15 -80 0 -64 1 -66 25 -66 14 0 25 -4 25
-10 0 -5 20 -10 45 -10 25 0 45 -4 45 -10 0 -5 7 -10 16 -10 37 0 45 -26 39
-117 -5 -71 -4 -84 6 -68 17 29 17 29 32 14 21 -21 29 -89 11 -89 -8 0 -14 -8
-14 -18 0 -24 33 -62 54 -62 9 0 16 -4 16 -10 0 -5 9 -10 20 -10 11 0 20 -4
20 -10 0 -5 6 -10 14 -10 14 0 26 -21 26 -46 0 -8 -5 -14 -11 -14 -6 0 -24
-13 -39 -30 -19 -21 -37 -30 -59 -30 -17 0 -31 -4 -31 -10 0 -5 -20 -10 -45
-10 -25 0 -45 5 -45 10 0 6 -10 10 -23 10 -19 0 -25 9 -40 58 -9 32 -17 61
-17 66 0 15 -29 36 -51 36 -43 0 -71 52 -89 168 -7 39 -16 72 -20 72 -5 0 -11
-19 -15 -42 -7 -51 -24 -98 -35 -98 -10 0 -24 -59 -21 -92 2 -25 -1 -28 -28
-28 -17 0 -31 -4 -31 -10 0 -5 -6 -10 -14 -10 -19 0 -26 -22 -33 -111 -6 -81
4 -109 41 -109 9 0 16 -4 16 -10 0 -5 7 -10 15 -10 8 0 15 -4 15 -10 0 -5 9
-10 20 -10 27 0 26 -30 -1 -61 -15 -16 -23 -20 -26 -11 -5 14 -43 16 -43 2 0
-6 -30 -10 -70 -10 l-70 0 0 -13925 0 -13926 35 -35 c19 -19 35 -39 35 -44 0
-6 8 -10 18 -10 12 0 25 -14 37 -40 10 -23 27 -50 37 -62 10 -12 18 -36 18
-55 0 -47 32 -103 59 -103 5 0 12 -8 16 -19 9 -29 40 -61 59 -61 15 0 16 -7
10 -47 -11 -77 -61 -153 -99 -153 -9 0 -23 -7 -31 -15 -13 -12 -13 -17 -2 -30
33 -36 37 -45 32 -59 -3 -9 -10 -16 -14 -16 -5 0 -11 -10 -15 -22 -14 -51 -39
-98 -52 -98 -7 0 -13 -4 -13 -10 0 -5 -7 -10 -15 -10 -8 0 -15 -4 -15 -10 0
-5 -13 -10 -30 -10 -16 0 -30 -4 -30 -10 0 -5 -6 -10 -14 -10 -8 0 -17 -7 -20
-16 -3 -9 -6 -427 -6 -929 l0 -913 30 -32 c16 -18 30 -36 30 -41 0 -4 11 -19
25 -33 20 -20 25 -35 25 -73 0 -88 70 -243 109 -243 6 0 11 -4 11 -10 0 -5 7
-10 15 -10 8 0 15 -4 15 -10 0 -5 5 -10 11 -10 6 0 32 -22 59 -50 27 -27 53
-50 57 -50 5 0 15 -9 23 -20 8 -11 19 -20 25 -20 6 0 17 -9 25 -20 8 -11 18
-20 23 -20 33 0 77 -134 74 -226 -1 -34 5 -67 20 -100 12 -27 30 -76 39 -109
15 -48 30 -71 79 -120 33 -34 71 -84 84 -113 14 -29 30 -52 38 -52 7 0 13 -4
13 -10 0 -5 7 -10 15 -10 8 0 15 -4 15 -10 0 -5 8 -10 18 -10 10 0 24 -9 32
-20 8 -11 20 -20 27 -20 7 0 13 -4 13 -10 0 -5 6 -10 13 -10 7 0 19 -9 27 -20
8 -11 19 -20 25 -20 6 0 17 -9 25 -21 26 -38 68 -79 79 -79 6 0 11 -4 11 -10
0 -5 9 -10 20 -10 11 0 20 -4 20 -10 0 -5 7 -10 15 -10 8 0 15 -4 15 -10 0 -5
7 -10 15 -10 8 0 15 -4 15 -10 0 -5 5 -10 10 -10 13 0 150 -137 150 -149 0 -5
12 -22 27 -39 16 -16 35 -40 43 -52 8 -12 20 -28 26 -34 29 -30 32 -55 27
-189 -5 -123 -4 -137 11 -137 9 0 16 -4 16 -10 0 -5 9 -10 20 -10 11 0 20 -7
20 -16 0 -19 -19 -56 -34 -66 -7 -5 -6 -25 2 -67 12 -59 12 -62 -10 -86 -50
-53 -50 -52 -39 -112 6 -30 8 -80 5 -109 l-7 -54 2382 0 2383 0 -7 31 c-4 18
-27 52 -52 77 -45 44 -45 46 -40 98 3 33 0 67 -10 95 -18 53 -12 84 39 222 11
28 60 87 73 87 19 0 83 83 90 116 7 38 25 64 44 64 6 0 11 4 11 9 0 5 13 23
29 41 16 18 35 40 42 48 10 12 14 51 16 132 1 63 2 118 2 121 1 5 11 19 50 65
34 41 77 167 91 266 10 66 27 118 40 118 16 0 30 56 30 121 0 52 6 81 22 112
31 61 57 169 64 272 5 66 13 103 32 140 13 28 28 52 31 55 4 3 13 37 21 76 10
57 10 81 0 122 -9 40 -9 71 0 142 11 86 11 92 -8 108 -10 9 -26 31 -35 47 -9
17 -16 24 -17 18 0 -22 -64 -16 -80 7 -8 11 -20 20 -26 20 -7 0 -17 29 -24 67
-15 87 -49 153 -79 153 -6 0 -11 5 -11 10 0 6 -11 10 -24 10 -23 0 -34 16 -51
78 -4 13 -14 22 -26 22 -10 0 -19 5 -19 10 0 6 -16 10 -35 10 -19 0 -35 5 -35
10 0 6 -9 10 -20 10 -11 0 -20 5 -20 10 0 6 -7 10 -15 10 -8 0 -15 5 -15 10 0
6 -8 10 -18 10 -10 0 -24 9 -32 20 -8 11 -20 20 -27 20 -7 0 -13 5 -13 10 0 6
-7 10 -15 10 -8 0 -15 4 -15 9 0 5 -13 23 -30 41 -16 18 -30 36 -30 41 0 5 -7
9 -15 9 -8 0 -15 5 -15 10 0 6 -11 10 -25 10 -14 0 -25 5 -25 10 0 6 -17 10
-38 10 -33 0 -41 5 -62 40 -14 22 -31 40 -37 40 -7 0 -13 5 -13 10 0 6 -6 10
-13 10 -19 0 -51 37 -77 88 -11 24 -45 68 -73 97 -50 51 -66 69 -97 116 -8 12
-36 44 -62 71 -48 49 -68 95 -68 155 0 17 -7 38 -15 47 -9 8 -19 41 -24 73 -5
32 -9 52 -10 46 -1 -15 -51 -18 -51 -3 0 6 -7 10 -15 10 -8 0 -15 5 -15 10 0
6 -5 10 -11 10 -21 0 -37 27 -49 83 -8 35 -18 57 -27 57 -7 0 -13 5 -13 10 0
6 -6 10 -13 10 -14 0 -47 60 -47 84 0 17 -54 76 -69 76 -6 0 -11 5 -11 10 0 6
-7 10 -16 10 -25 0 -44 26 -44 60 0 42 -14 65 -71 121 -27 26 -49 53 -49 59 0
15 -30 71 -47 89 -17 16 -11 67 13 113 14 26 13 30 -10 53 -14 14 -34 25 -46
25 -11 0 -20 5 -20 10 0 6 -5 10 -11 10 -19 0 -37 26 -44 64 -6 31 -11 36 -36
36 -16 0 -29 5 -29 10 0 6 -9 10 -20 10 -11 0 -20 5 -20 10 0 6 -13 10 -28 10
-22 0 -32 7 -45 35 -15 32 -14 65 2 65 7 0 31 72 31 95 0 9 -16 31 -35 51 -19
19 -35 39 -35 44 0 5 -8 16 -17 25 -9 10 -20 44 -25 76 -7 52 -13 65 -52 104
-30 30 -49 59 -56 87 -6 24 -15 54 -20 68 -5 14 -14 45 -20 70 -17 69 -31 100
-46 100 -8 0 -14 4 -14 9 0 5 -12 22 -27 39 -16 16 -35 40 -43 52 -8 12 -20
28 -26 34 -46 49 -64 148 -39 216 9 25 23 81 30 125 8 44 17 96 20 116 6 28 1
47 -20 89 -24 48 -27 61 -20 115 3 33 6 67 6 75 -4 65 -12 102 -32 150 -15 36
-23 76 -24 115 0 64 19 125 40 125 14 0 27 71 15 80 -4 3 -13 30 -20 60 -7 30
-46 121 -86 202 -41 81 -74 156 -74 165 0 10 7 36 15 58 20 57 19 69 -15 105
-36 38 -36 40 -10 110 11 30 20 56 20 57 0 2 8 3 18 3 10 0 24 9 32 20 8 11
19 20 25 20 6 0 24 27 40 60 16 33 32 60 37 60 4 0 11 12 14 27 4 16 28 71 55
124 27 55 52 122 59 159 6 35 18 77 27 93 13 26 13 36 -1 93 -9 35 -16 76 -16
93 0 16 -6 36 -13 43 -21 21 -37 54 -37 78 0 11 -14 47 -30 80 -17 33 -30 66
-30 74 0 8 -4 16 -9 18 -5 1 -23 32 -42 68 -26 52 -33 78 -34 130 -1 40 -8 78
-19 98 -14 26 -15 42 -8 82 10 52 3 110 -15 145 -6 11 -16 65 -23 120 -13 109
-33 188 -63 249 -22 45 -20 98 8 180 14 39 14 53 5 77 -7 16 -16 29 -20 29
-17 0 -90 295 -90 363 0 28 -33 120 -51 141 -8 9 -30 34 -49 56 -19 22 -40 46
-47 53 -16 20 -83 154 -83 167 0 6 -20 31 -45 56 -25 24 -45 49 -45 54 0 6 -7
10 -15 10 -8 0 -15 7 -15 15 0 17 -43 65 -58 65 -10 0 -36 55 -51 110 -21 75
-63 184 -91 240 -17 33 -30 66 -30 74 0 8 -17 32 -37 54 -65 69 -73 84 -73
130 0 40 16 72 37 72 5 0 15 9 23 21 8 11 23 31 33 42 11 14 17 31 14 47 -3
13 1 37 10 53 17 34 9 85 -18 108 -18 16 -17 49 1 49 12 0 20 29 26 94 3 33
10 68 15 77 14 26 11 44 -10 67 -19 23 -41 29 -41 12 0 -6 -33 -10 -79 -10
-78 0 -79 0 -91 30 -12 29 -15 30 -76 30 -36 0 -64 4 -64 10 0 6 -6 10 -14 10
-8 0 -18 9 -21 20 -3 11 -11 20 -16 20 -5 0 -9 9 -9 19 0 10 -13 33 -30 51
-16 17 -34 49 -40 69 -5 21 -19 48 -30 61 -11 13 -20 27 -20 32 0 4 -7 8 -15
8 -8 0 -15 5 -15 10 0 6 -7 10 -15 10 -8 0 -15 5 -15 10 0 6 -9 10 -20 10 -11
0 -20 5 -20 10 0 6 -9 10 -20 10 -11 0 -20 4 -20 9 0 13 -56 71 -69 71 -6 0
-11 5 -11 10 0 6 -7 10 -15 10 -8 0 -15 5 -15 10 0 6 -6 10 -13 10 -7 0 -30
36 -52 79 -33 69 -37 83 -27 108 6 15 12 52 15 81 4 48 2 52 -18 52 -34 0 -49
43 -33 97 7 24 16 43 21 43 5 0 15 7 23 15 12 11 13 19 3 36 -8 15 -8 23 0 28
8 5 7 16 -1 38 -10 26 -9 34 4 47 9 9 21 16 27 16 6 0 11 5 11 10 0 6 7 10 15
10 8 0 15 5 15 10 0 6 7 10 15 10 8 0 15 5 15 10 0 6 6 10 14 10 8 0 17 6 19
13 4 10 6 10 6 0 1 -7 6 -13 12 -13 12 0 69 57 69 70 0 4 8 17 19 29 10 11 21
44 25 71 7 49 7 50 41 50 19 0 35 5 35 10 0 6 9 10 20 10 11 0 20 5 20 10 0 6
8 10 18 10 12 0 25 14 37 40 10 22 21 40 25 40 4 0 13 14 20 30 7 17 19 30 26
30 8 0 14 5 14 10 0 6 7 10 15 10 8 0 15 5 15 10 0 6 7 10 15 10 8 0 15 5 15
10 0 6 7 10 15 10 8 0 15 5 15 10 0 6 11 10 25 10 14 0 25 -4 25 -10 0 -6 31
-10 73 -10 61 0 75 3 87 20 8 12 26 20 42 20 15 0 28 5 28 10 0 6 12 10 26 10
27 0 59 28 69 61 4 11 12 19 18 19 7 0 19 9 27 20 8 11 22 20 32 20 10 0 18 4
18 9 0 16 58 71 74 71 9 0 16 5 16 10 0 6 7 10 15 10 8 0 15 5 15 10 0 6 7 10
15 10 8 0 15 5 15 10 0 6 15 10 33 10 21 0 38 7 47 20 8 11 22 20 32 20 10 0
18 5 18 10 0 6 6 10 13 10 6 0 23 14 37 31 57 68 79 89 94 89 9 0 16 5 16 10
0 6 7 10 15 10 8 0 15 4 15 8 0 5 8 18 18 30 9 11 24 30 32 41 8 12 25 21 37
21 13 0 23 5 23 10 0 6 7 10 16 10 20 0 47 30 64 70 7 17 16 30 20 30 4 0 13
13 20 30 7 16 16 30 20 30 10 0 20 24 31 70 12 56 41 130 49 130 4 0 13 14 20
30 7 17 19 30 26 30 8 0 14 5 14 10 0 6 6 10 14 10 18 0 34 40 50 132 7 42 20
83 28 91 8 9 21 29 28 46 7 17 16 31 20 31 3 0 17 23 30 50 13 28 26 50 30 50
4 0 15 18 25 40 10 22 21 40 25 40 4 0 17 23 30 50 13 28 26 50 30 50 3 0 19
27 35 60 16 33 35 60 43 60 9 0 11 7 7 20 -4 11 -2 20 4 20 6 0 11 -4 11 -10
0 -5 10 -10 23 -10 26 0 50 41 73 125 17 62 18 87 4 65 -6 -10 -7 -2 -3 25 6
41 69 177 84 183 5 2 9 21 9 43 0 29 4 39 16 39 16 0 54 36 54 51 0 4 18 26
39 48 29 31 47 41 70 41 17 0 31 5 31 10 0 6 14 10 31 10 23 0 40 -10 69 -40
21 -22 41 -40 45 -40 4 0 24 -18 45 -40 21 -22 43 -40 49 -40 6 0 11 -4 11
-10 0 -5 7 -10 15 -10 8 0 15 -4 15 -10 0 -5 5 -10 11 -10 13 0 49 -38 49 -52
0 -4 7 -8 15 -8 8 0 15 -4 15 -8 0 -18 38 -52 59 -52 11 0 21 -4 21 -10 0 -5
11 -10 25 -10 14 0 25 -4 25 -9 0 -5 18 -28 39 -50 34 -35 40 -49 46 -101 4
-33 13 -66 19 -73 22 -22 36 -55 30 -71 -3 -9 -1 -16 6 -16 19 0 37 -24 45
-60 4 -19 14 -40 22 -48 10 -11 12 -26 8 -53 -5 -31 -4 -39 8 -39 17 0 29 -24
21 -44 -3 -7 1 -20 9 -28 25 -25 94 -171 100 -213 10 -65 47 -172 68 -197 10
-13 23 -28 29 -35 5 -7 7 -19 4 -27 -4 -11 0 -16 13 -16 10 0 25 -9 33 -20 8
-11 18 -20 23 -20 5 0 26 -18 47 -40 21 -22 43 -40 49 -40 6 0 11 -4 11 -10 0
-5 9 -10 20 -10 11 0 20 -4 20 -10 0 -5 5 -10 11 -10 16 0 47 -37 54 -64 6
-20 25 -68 76 -183 12 -29 26 -53 29 -53 4 0 13 -13 20 -30 19 -45 45 -70 74
-70 14 0 26 -4 26 -10 0 -5 23 -10 50 -10 28 0 50 5 50 10 0 6 13 10 28 10 16
0 34 8 42 20 8 11 20 20 27 20 7 0 13 5 13 10 0 6 9 10 20 10 11 0 20 5 20 10
0 6 9 10 19 10 11 0 23 9 26 20 4 14 15 20 36 20 16 0 29 5 29 10 0 6 9 10 20
10 11 0 20 5 20 10 0 6 7 10 15 10 8 0 15 5 15 10 0 6 7 10 15 10 8 0 15 5 15
10 0 6 9 10 20 10 11 0 20 5 20 10 0 6 9 10 20 10 11 0 20 5 20 10 0 6 11 10
25 10 14 0 25 5 25 10 0 6 9 10 20 10 11 0 20 5 20 10 0 6 6 10 13 10 7 0 19
9 27 20 10 14 26 20 52 20 21 0 38 5 38 10 0 6 14 10 30 10 17 0 30 5 30 10 0
6 11 10 25 10 14 0 25 5 25 10 0 6 18 10 40 10 22 0 40 5 40 10 0 6 9 10 20
10 11 0 20 5 20 10 0 6 8 10 18 10 10 0 24 9 32 21 45 63 64 73 75 39 6 -20
25 -28 25 -12 0 20 39 52 64 52 14 0 26 5 26 10 0 6 9 10 20 10 11 0 20 5 20
10 0 6 7 10 16 10 17 0 54 36 54 52 0 4 18 8 40 8 22 0 40 -4 40 -10 0 -5 14
-10 30 -10 17 0 30 -4 30 -10 0 -5 23 -10 50 -10 28 0 50 -4 50 -10 0 -5 13
-10 28 -10 16 0 34 -8 42 -20 10 -14 26 -20 50 -20 24 0 40 6 50 20 8 11 22
20 32 20 10 0 18 5 18 10 0 6 11 10 25 10 14 0 25 5 25 10 0 6 8 10 18 10 10
0 24 9 32 20 8 11 20 20 27 20 7 0 13 5 13 10 0 6 7 10 15 10 8 0 15 5 15 10
0 6 9 10 20 10 11 0 20 5 20 10 0 6 5 10 11 10 11 0 73 62 99 99 8 11 20 21
27 21 7 0 13 5 13 10 0 6 11 10 25 10 14 0 25 6 25 13 0 9 2 9 8 0 6 -9 12 -7
22 7 8 11 21 20 30 20 9 0 22 9 30 20 8 11 20 20 27 20 7 0 13 5 13 10 0 6 7
10 15 10 8 0 15 4 15 9 0 13 56 71 69 71 6 0 11 12 11 28 0 27 20 70 20 45 0
-7 3 -13 8 -13 4 0 8 21 8 48 1 26 10 72 20 102 39 115 8 355 -65 498 -11 22
-36 88 -56 146 -41 121 -45 206 -18 321 22 96 25 231 6 270 -18 33 -37 55 -50
55 -5 0 -15 9 -23 20 -8 11 -19 20 -25 20 -6 0 -17 9 -25 20 -8 11 -20 20 -27
20 -7 0 -13 5 -13 10 0 6 -6 10 -13 10 -7 0 -19 9 -27 20 -8 11 -19 20 -25 20
-6 0 -17 9 -25 20 -8 11 -20 20 -27 20 -7 0 -13 5 -13 10 0 6 -9 10 -20 10
-11 0 -20 5 -20 10 0 6 -9 10 -20 10 -11 0 -20 5 -20 10 0 6 -11 10 -25 10
-14 0 -25 5 -25 10 0 6 -18 10 -40 10 -22 0 -40 5 -40 10 0 6 -18 10 -40 10
-24 0 -40 5 -40 12 0 6 -8 1 -19 -10 -10 -12 -23 -22 -30 -22 -6 0 -11 -4 -11
-10 0 -5 -7 -10 -15 -10 -8 0 -15 -4 -15 -10 0 -5 -16 -10 -35 -10 -19 0 -35
5 -35 10 0 6 -7 10 -15 10 -8 0 -15 5 -15 10 0 6 -6 10 -13 10 -7 0 -19 9 -27
20 -8 11 -22 20 -32 20 -9 0 -20 9 -23 20 -4 12 -15 20 -28 20 -13 0 -29 9
-37 20 -8 11 -22 20 -32 20 -10 0 -18 5 -18 10 0 6 -25 10 -56 10 -38 0 -61 5
-72 16 -28 29 -55 250 -32 264 22 13 2 56 -49 109 -28 28 -54 51 -60 51 -6 0
-11 5 -11 10 0 6 -5 10 -11 10 -11 0 -114 103 -139 139 -8 11 -22 21 -32 21
-10 0 -18 5 -18 10 0 6 -27 10 -60 10 -33 0 -60 4 -60 10 0 6 -11 10 -25 10
-14 0 -25 4 -25 8 0 20 39 52 63 52 13 0 27 7 31 15 7 20 -14 65 -30 65 -8 0
-17 12 -20 27 -4 15 -12 33 -18 40 -29 33 -38 46 -77 124 -23 46 -45 86 -49
89 -4 3 -17 25 -30 49 -12 24 -33 55 -46 68 -13 13 -24 28 -24 33 0 6 -7 10
-15 10 -8 0 -15 5 -15 10 0 6 -5 10 -11 10 -6 0 -24 14 -39 30 -15 17 -31 30
-35 30 -4 0 -20 14 -35 30 -15 17 -33 30 -39 30 -6 0 -11 5 -11 10 0 6 -7 10
-15 10 -8 0 -15 5 -15 10 0 6 -7 10 -15 10 -8 0 -15 5 -15 10 0 6 -7 10 -15
10 -8 0 -15 5 -15 10 0 6 -11 10 -25 10 -14 0 -25 5 -25 10 0 6 -7 10 -15 10
-8 0 -15 5 -15 10 0 6 -7 10 -15 10 -8 0 -15 5 -15 10 0 6 -7 10 -15 10 -8 0
-15 5 -15 10 0 6 -11 10 -25 10 -14 0 -25 5 -25 10 0 6 -7 10 -15 10 -8 0 -15
5 -15 10 0 6 -9 10 -20 10 -11 0 -20 5 -20 10 0 6 -13 10 -30 10 -16 0 -30 5
-30 10 0 6 -9 10 -20 10 -11 0 -20 5 -20 10 0 6 -11 10 -25 10 -14 0 -25 5
-25 10 0 6 -11 10 -25 10 -14 0 -25 5 -25 10 0 6 -16 10 -35 10 -19 0 -35 5
-35 10 0 6 -22 10 -50 10 -27 0 -50 5 -50 10 0 6 -13 10 -30 10 -16 0 -30 5
-30 10 0 6 -11 10 -25 10 -14 0 -25 5 -25 10 0 6 -42 10 -105 10 -63 0 -105
-4 -105 -10 0 -5 -16 -10 -35 -10 -19 0 -35 -4 -35 -10 0 -5 -13 -10 -30 -10
-16 0 -30 -4 -30 -10 0 -5 -11 -10 -25 -10 -14 0 -25 -4 -25 -10 0 -5 -13 -10
-30 -10 -16 0 -30 -4 -30 -10 0 -5 -16 -10 -35 -10 -19 0 -35 -4 -35 -10 0 -5
-16 -10 -35 -10 -19 0 -35 -4 -35 -10 0 -5 -11 -10 -25 -10 -14 0 -25 -4 -25
-10 0 -14 -27 -12 -33 3 -4 10 -6 10 -6 0 -1 -15 -31 -18 -31 -3 0 6 -9 10
-20 10 -11 0 -20 -4 -20 -10 0 -5 -20 -10 -45 -10 -25 0 -45 5 -45 10 0 6 -25
10 -55 10 -30 0 -55 5 -55 10 0 15 -117 13 -124 -2 -5 -10 -7 -10 -12 0 -3 6
-12 12 -20 12 -8 0 -14 5 -14 10 0 6 -9 10 -20 10 -11 0 -20 5 -20 10 0 6 -9
10 -20 10 -11 0 -20 5 -20 10 0 6 -7 10 -15 10 -8 0 -15 5 -15 10 0 6 -15 10
-33 10 -21 0 -38 7 -47 20 -8 11 -20 20 -27 20 -7 0 -13 5 -13 10 0 6 -7 10
-15 10 -8 0 -15 5 -15 10 0 6 -9 10 -20 10 -11 0 -20 5 -20 10 0 6 -11 10 -25
10 -14 0 -25 5 -25 10 0 6 -18 10 -40 10 -22 0 -40 4 -40 8 0 19 -38 52 -59
52 -14 0 -42 20 -71 50 -27 28 -53 50 -59 50 -6 0 -11 4 -11 9 0 13 -56 71
-69 71 -6 0 -11 5 -11 10 0 6 -5 10 -11 10 -13 0 -49 38 -49 52 0 4 -12 8 -26
8 -31 0 -73 41 -99 99 -12 27 -25 41 -37 41 -10 0 -18 5 -18 10 0 6 -11 10
-25 10 -14 0 -25 5 -25 10 0 6 -14 10 -31 10 -36 0 -49 12 -79 70 -27 52 -43
70 -64 70 -9 0 -16 5 -16 10 0 6 -7 10 -15 10 -8 0 -15 5 -15 10 0 6 -16 10
-35 10 -28 0 -35 4 -35 20 0 11 -7 20 -15 20 -8 0 -15 5 -15 10 0 6 -7 10 -15
10 -8 0 -15 5 -15 10 0 6 -9 10 -20 10 -11 0 -20 5 -20 10 0 6 -8 10 -18 10
-10 0 -24 9 -32 20 -8 11 -22 20 -32 20 -10 0 -18 5 -18 10 0 6 -7 10 -15 10
-8 0 -15 5 -15 10 0 6 -7 10 -15 10 -8 0 -15 5 -15 10 0 6 -6 10 -13 10 -7 0
-19 9 -27 20 -8 11 -20 20 -27 20 -6 0 -15 9 -18 20 -3 11 -13 20 -21 20 -8 0
-14 5 -14 10 0 6 -6 10 -13 10 -7 0 -19 9 -27 21 -22 31 -67 79 -75 79 -8 0
-94 89 -115 119 -8 11 -19 21 -25 21 -6 0 -17 9 -25 20 -8 11 -18 20 -23 20
-4 0 -39 32 -77 70 -38 39 -76 70 -85 70 -8 0 -15 5 -15 10 0 6 -7 10 -15 10
-8 0 -15 5 -15 10 0 6 -8 10 -18 10 -10 0 -24 9 -32 20 -8 11 -20 20 -27 20
-7 0 -13 5 -13 10 0 6 -11 10 -25 10 -14 0 -25 5 -25 10 0 6 -16 10 -35 10
-34 0 -35 1 -35 40 0 37 -2 40 -28 40 -16 0 -34 8 -42 20 -8 11 -20 20 -27 20
-7 0 -13 5 -13 10 0 6 -8 10 -18 10 -10 0 -24 9 -32 20 -8 11 -25 20 -37 20
-13 0 -23 5 -23 10 0 6 -8 10 -18 10 -10 0 -24 9 -32 20 -8 11 -19 20 -25 20
-6 0 -17 9 -25 20 -8 11 -18 20 -23 20 -5 0 -26 18 -47 40 -21 22 -43 40 -49
40 -6 0 -11 5 -11 10 0 6 -7 10 -15 10 -8 0 -15 5 -15 10 0 6 -6 10 -13 10 -7
0 -19 9 -27 20 -8 11 -22 20 -32 20 -10 0 -18 5 -18 10 0 6 -7 10 -15 10 -8 0
-15 5 -15 10 0 6 -11 10 -25 10 -14 0 -25 5 -25 10 0 6 -11 10 -25 10 -14 0
-25 5 -25 10 0 6 -8 10 -18 10 -10 0 -24 9 -32 20 -8 11 -22 20 -32 20 -10 0
-18 5 -18 10 0 6 -7 10 -15 10 -8 0 -15 5 -15 10 0 6 -13 10 -30 10 -16 0 -30
5 -30 10 0 6 -7 10 -16 10 -8 0 -33 18 -54 40 -21 22 -48 40 -59 40 -12 0 -21
5 -21 10 0 6 -9 10 -20 10 -11 0 -20 5 -20 10 0 6 -5 10 -10 10 -17 0 -54 42
-70 80 -11 26 -15 72 -15 175 1 144 13 205 41 205 8 0 14 5 14 10 0 6 7 10 16
10 20 0 53 36 60 66 9 37 -2 136 -21 184 -9 25 -20 77 -23 115 -3 49 -13 87
-33 127 -16 32 -29 64 -29 73 0 8 -9 15 -20 15 -11 0 -20 5 -20 10 0 6 -13 10
-30 10 -16 0 -30 5 -30 10 0 6 -6 10 -13 10 -14 0 -47 60 -47 85 0 8 -9 15
-20 15 -11 0 -20 5 -20 10 0 6 -9 10 -20 10 -11 0 -20 5 -20 10 0 6 -7 10 -15
10 -8 0 -15 5 -15 10 0 6 -9 10 -20 10 -11 0 -20 5 -20 10 0 6 -18 10 -40 10
-22 0 -40 5 -40 10 0 6 -11 10 -25 10 -14 0 -25 4 -25 10 0 5 -21 30 -46 56
-62 62 -79 123 -65 232 17 122 -6 222 -49 222 -7 0 -25 14 -40 30 -15 17 -33
30 -39 30 -16 0 -13 49 3 66 8 8 21 14 30 14 8 0 18 9 21 20 3 11 13 20 21 20
8 0 14 5 14 10 0 6 14 10 31 10 17 0 37 7 46 15 21 22 52 105 83 223 6 25 17
42 25 42 8 0 15 5 15 10 0 6 16 10 36 10 37 0 70 22 59 40 -11 17 22 40 57 40
22 0 39 7 48 20 8 11 18 20 23 20 11 0 67 59 67 71 0 5 18 9 40 9 22 0 40 5
40 10 0 6 7 10 15 10 8 0 15 5 15 10 0 6 16 10 35 10 19 0 35 5 35 10 0 6 11
10 25 10 14 0 25 5 25 10 0 6 7 10 16 10 13 0 15 7 10 30 -5 26 -2 30 15 30
24 0 49 22 49 44 0 9 6 16 13 16 7 0 19 9 27 20 8 11 18 20 23 20 13 0 74 66
92 100 9 18 28 44 41 57 13 13 24 33 24 43 0 14 7 20 24 20 30 0 39 23 35 88
-3 49 6 92 21 92 18 0 18 31 -2 85 -17 47 -18 61 -8 86 7 16 16 29 19 29 7 0
42 72 75 155 9 22 18 60 20 85 4 47 23 100 37 100 4 0 11 9 14 20 3 11 12 26
19 33 8 7 23 32 35 55 20 38 20 44 6 58 -19 20 -19 34 0 34 8 0 15 5 15 10 0
6 9 10 20 10 11 0 20 -4 20 -10 0 -5 11 -10 25 -10 14 0 25 5 25 10 0 6 20 10
45 10 25 0 45 5 45 10 0 6 18 10 40 10 22 0 40 5 40 10 0 6 18 10 41 10 33 0
47 6 69 30 15 17 33 30 39 30 6 0 11 5 11 10 0 6 7 10 15 10 8 0 15 5 15 10 0
6 7 10 15 10 8 0 15 5 15 10 0 6 6 10 13 10 7 0 19 9 27 20 8 11 20 20 27 20
7 0 13 5 13 10 0 6 7 10 16 10 11 0 14 5 10 16 -6 17 15 44 35 44 20 0 49 42
49 72 0 23 4 28 24 28 17 0 27 9 36 30 7 17 18 30 26 30 7 0 16 9 19 20 3 11
12 20 19 20 8 0 16 14 20 30 3 18 12 30 21 30 8 0 15 6 15 13 0 8 4 7 11 -3 7
-10 12 -11 15 -3 3 6 14 21 25 34 10 12 19 26 19 31 0 4 5 8 11 8 20 0 39 29
39 60 0 17 7 38 16 47 8 9 13 22 10 30 -3 8 -6 29 -6 47 0 18 -9 43 -20 56
-11 12 -22 31 -26 42 -8 25 14 78 32 78 8 0 14 5 14 10 0 6 7 10 15 10 8 0 15
5 15 10 0 6 9 10 20 10 11 0 20 5 20 10 0 6 8 10 19 10 11 0 23 12 31 30 17
40 44 70 64 70 9 0 16 5 16 10 0 6 7 10 15 10 8 0 15 5 15 10 0 6 6 10 14 10
7 0 19 13 26 30 15 36 43 70 59 70 6 0 11 5 11 10 0 6 5 10 10 10 20 0 99 89
125 141 31 61 47 79 69 79 9 0 16 5 16 10 0 6 8 10 19 10 11 0 23 12 31 30 7
17 16 30 19 30 4 0 20 27 36 60 16 33 32 60 36 60 4 0 11 9 14 20 3 11 13 27
22 35 25 26 23 157 -4 224 -12 30 -20 58 -17 63 3 4 -2 15 -10 24 -9 8 -16 32
-16 53 0 37 -26 81 -48 81 -6 0 -13 9 -17 20 -3 11 -24 38 -46 61 -31 32 -39
49 -39 77 -1 20 -7 55 -15 77 -21 59 -4 149 36 186 25 24 29 34 29 83 0 43 3
56 15 56 8 0 15 5 15 10 0 6 7 10 15 10 8 0 15 5 15 10 0 6 7 10 15 10 8 0 15
5 15 10 0 6 7 10 15 10 8 0 19 16 24 38 14 47 14 68 1 92 -8 14 -4 37 13 88
13 38 29 75 35 83 23 27 47 57 62 79 8 12 23 31 33 42 9 12 17 25 17 30 0 4 9
8 20 8 11 0 20 5 20 10 0 6 9 10 21 10 15 0 19 5 15 15 -8 21 3 45 20 45 8 0
14 5 14 10 0 6 11 10 25 10 14 0 25 5 25 10 0 6 9 10 20 10 11 0 20 5 20 10 0
6 7 10 15 10 8 0 15 5 15 10 0 6 6 10 13 10 7 0 19 9 27 21 8 11 23 30 33 41
9 12 17 25 17 30 0 4 7 8 15 8 8 0 15 5 15 10 0 6 7 10 15 10 8 0 15 5 15 10
0 6 11 10 24 10 16 0 27 7 31 20 3 11 13 20 21 20 8 0 14 5 14 10 0 6 11 10
25 10 14 0 25 5 25 10 0 6 9 10 20 10 11 0 20 5 20 10 0 6 9 10 20 10 11 0 20
5 20 10 0 6 8 10 18 10 10 0 24 9 32 20 11 16 26 20 67 20 29 0 53 5 53 10 0
6 14 10 30 10 17 0 30 5 30 10 0 6 13 10 29 10 16 0 32 6 34 13 4 9 8 8 16 -3
7 -10 11 -11 11 -2 0 6 10 12 23 12 12 0 29 9 37 21 30 43 68 79 84 79 9 0 16
5 16 10 0 6 9 10 20 10 11 0 20 5 20 10 0 6 14 10 30 10 17 0 30 5 30 10 0 6
7 10 15 10 8 0 15 5 15 10 0 6 7 10 15 10 8 0 15 5 15 10 0 6 7 10 15 10 8 0
15 5 15 10 0 6 7 10 15 10 8 0 15 5 15 10 0 6 7 10 15 10 8 0 15 5 15 10 0 6
7 10 15 10 8 0 15 5 15 10 0 6 7 10 15 10 8 0 15 5 15 10 0 6 7 10 15 10 8 0
15 5 15 10 0 6 6 10 13 10 7 0 19 9 27 20 8 11 20 20 27 20 7 0 13 5 13 10 0
6 5 10 11 10 17 0 49 40 49 62 0 10 7 18 15 18 8 0 15 5 15 10 0 6 7 10 15 10
8 0 15 7 15 15 0 9 13 41 29 73 48 95 64 213 37 275 -6 13 -4 17 11 17 10 0
25 10 33 21 8 12 21 27 28 35 6 7 12 29 12 48 0 26 4 36 15 36 9 0 18 12 22
30 3 17 11 30 17 30 6 0 18 9 26 20 8 11 19 20 25 20 6 0 17 9 25 20 8 11 18
20 23 20 5 0 22 14 37 30 15 17 37 30 49 30 12 0 21 5 21 10 0 6 7 10 15 10 8
0 15 5 15 10 0 6 18 10 40 10 31 0 40 4 40 18 1 26 48 156 58 160 4 1 6 28 4
60 -3 47 0 61 17 81 12 13 26 41 31 63 8 29 16 38 32 38 22 0 58 35 58 56 0
31 -24 64 -47 64 -12 0 -23 5 -23 10 0 6 -9 10 -20 10 -11 0 -20 5 -20 10 0 6
-18 10 -40 10 -22 0 -40 -4 -40 -10 0 -17 -20 -11 -45 15 -21 20 -25 34 -25
80 0 30 4 55 9 55 4 0 11 39 14 86 5 69 10 89 27 104 11 9 20 24 20 32 0 8 9
25 20 38 23 26 25 37 8 42 -14 5 10 98 25 98 5 0 7 13 4 30 -4 17 -1 34 6 42
7 7 13 27 13 43 1 35 23 94 42 114 7 7 11 20 8 28 -3 8 -6 21 -6 29 0 8 -8 14
-19 14 -23 0 -31 35 -31 137 0 54 5 84 20 113 28 55 25 110 -6 110 -8 0 -14 2
-14 5 0 12 24 55 32 55 18 0 11 25 -43 148 -23 51 -23 47 -3 66 14 14 14 18 0
31 -8 8 -18 15 -22 15 -16 0 -43 45 -49 83 -9 60 -15 77 -26 77 -5 0 -9 -10
-9 -22 0 -34 -17 -4 -25 44 -4 21 -13 38 -20 38 -17 0 -25 23 -25 76 0 46 -14
59 -25 24 -3 -11 -10 -20 -14 -20 -11 0 -31 47 -31 75 0 13 -4 25 -9 27 -15 5
-71 126 -71 153 0 14 -4 25 -8 25 -5 0 -16 17 -24 38 -45 108 -52 122 -60 122
-5 0 -16 7 -25 15 -14 14 -13 17 5 33 19 17 19 20 4 112 -9 52 -22 101 -29
108 -7 7 -13 25 -13 38 0 14 -4 33 -9 43 -7 12 -5 31 4 57 7 22 17 69 21 104
7 67 28 105 44 80 7 -11 11 -10 25 3 12 13 14 21 5 37 -7 14 -8 26 0 39 15 30
13 71 -5 71 -8 0 -15 9 -15 20 0 11 7 20 15 20 8 0 15 5 15 10 0 6 9 10 20 10
13 0 20 7 20 19 0 21 -51 81 -69 81 -6 0 -11 5 -11 10 0 6 -7 10 -15 10 -8 0
-15 7 -15 16 0 9 -8 24 -18 33 -25 21 -45 61 -36 69 4 4 9 1 11 -5 5 -15 33
-17 33 -3 0 6 -7 10 -15 10 -8 0 -15 5 -15 10 0 6 -7 10 -15 10 -18 0 -19 5
-3 33 14 27 34 47 46 47 17 0 21 27 11 65 -11 37 3 95 22 95 15 0 28 69 18
103 -12 44 -11 57 5 57 14 0 28 29 45 95 15 56 14 101 -4 119 -19 19 -19 26 0
26 41 0 22 84 -31 137 -13 13 -24 31 -24 39 0 8 -11 37 -25 64 -14 27 -25 55
-25 62 0 8 -9 20 -20 28 -11 8 -20 21 -20 28 0 8 -13 26 -29 41 -16 15 -41 51
-56 81 -15 29 -33 60 -40 67 -8 7 -17 22 -20 33 -3 11 -10 20 -14 20 -13 0
-31 49 -31 85 0 19 -4 35 -9 35 -5 0 -13 9 -16 20 -3 11 -12 20 -19 20 -7 0
-23 23 -37 52 -13 29 -34 62 -46 74 -13 13 -23 28 -23 33 0 16 -33 81 -41 81
-3 0 -12 14 -18 30 -6 17 -16 44 -22 60 -6 17 -15 30 -20 30 -15 0 -96 85
-114 120 -9 18 -32 48 -50 66 -19 19 -38 49 -44 68 -9 35 -51 86 -71 86 -5 0
-10 4 -10 10 0 5 -16 25 -35 44 -19 19 -32 41 -30 49 3 7 -4 24 -15 37 -11 13
-23 35 -27 49 -3 14 -21 57 -40 95 -33 65 -35 78 -18 119 5 12 2 17 -9 17 -9
0 -16 5 -16 10 0 6 -7 10 -15 10 -8 0 -15 5 -15 10 0 6 -9 10 -20 10 -16 0
-19 5 -14 29 5 22 0 34 -19 53 -24 24 -25 31 -25 131 0 87 4 110 18 127 9 11
25 20 34 20 9 0 16 5 16 10 0 6 9 10 19 10 10 0 22 7 25 16 8 20 2 29 -54 92
-15 17 -33 45 -40 62 -7 16 -16 30 -20 30 -14 0 -43 79 -37 102 3 13 12 41 21
63 8 22 15 66 16 97 0 37 5 62 15 72 12 11 14 25 10 50 -4 19 -2 49 4 68 6 18
22 87 37 153 15 66 33 143 41 171 15 51 15 52 -18 115 -58 115 -89 264 -93
444 -1 50 -5 105 -10 124 -4 18 -4 36 1 40 7 5 53 129 53 145 0 3 -1105 6
-2455 6 l-2455 0 0 -1535z"/>
<path fill="#ffffff" stroke="000000" stroke-width="0.01" d="M16100 30240 c0 -5 -7 -10 -15 -10 -8
0 -15 -4 -15 -10 0 -5 -9 -10 -20 -10 -23 0 -27 -31 -7 -52 8 -7 20 -24 27
-38 7 -13 17 -29 22 -34 24 -30 44 -56 58 -76 27 -40 50 -63 50 -52 0 7 9 12
20 12 11 0 20 -4 20 -10 0 -5 14 -10 30 -10 17 0 30 5 30 10 0 6 13 10 29 10
27 0 41 14 41 44 0 13 -22 44 -56 80 -12 13 -30 38 -39 57 -20 38 -39 59 -54
59 -6 0 -11 5 -11 10 0 6 -20 10 -45 10 -25 0 -45 5 -45 10 0 6 -4 10 -10 10
-5 0 -10 -4 -10 -10z"/>
<path fill="#ffffff" stroke="000000" stroke-width="0.01" d="M16190 29800 c0 -5 -6 -10 -13 -10 -7
0 -19 -9 -27 -20 -8 -11 -20 -20 -27 -20 -7 0 -13 -4 -13 -10 0 -5 -7 -10 -15
-10 -8 0 -15 -4 -15 -10 0 -5 -6 -10 -13 -10 -7 0 -19 -9 -27 -20 -8 -11 -20
-20 -27 -20 -7 0 -13 -4 -13 -10 0 -5 -7 -10 -15 -10 -8 0 -15 -4 -15 -10 0
-5 -5 -10 -11 -10 -7 0 -20 -10 -30 -22 -23 -25 -24 -77 -4 -133 8 -22 15 -48
15 -58 0 -10 12 -41 26 -70 15 -28 30 -63 35 -77 4 -14 17 -50 29 -80 12 -30
25 -66 30 -80 31 -90 52 -133 81 -164 44 -45 54 -58 68 -83 17 -33 13 -149 -8
-230 -18 -70 -18 -74 -1 -130 10 -32 23 -96 29 -141 9 -72 8 -88 -6 -115 -9
-18 -18 -65 -20 -107 -3 -41 -9 -87 -15 -102 -7 -18 -6 -60 2 -134 15 -147 41
-194 104 -194 20 0 36 -4 36 -10 0 -5 9 -10 20 -10 11 0 20 -4 20 -8 0 -20 39
-52 64 -52 14 0 26 -4 26 -10 0 -5 8 -10 18 -10 10 0 24 -9 32 -20 8 -11 20
-20 27 -20 7 0 13 -4 13 -10 0 -5 7 -10 15 -10 8 0 15 -4 15 -10 0 -5 6 -10
13 -10 7 0 19 -9 27 -20 8 -11 20 -20 27 -20 7 0 13 -4 13 -10 0 -5 9 -10 20
-10 11 0 20 -4 20 -10 0 -5 25 -10 55 -10 30 0 55 -4 55 -10 0 -5 6 -10 14
-10 8 0 18 -9 21 -20 3 -11 10 -20 14 -20 4 0 13 -11 19 -25 13 -28 20 -37 74
-95 20 -22 41 -40 47 -40 6 0 11 -4 11 -10 0 -5 7 -10 15 -10 8 0 15 -4 15
-10 0 -5 11 -10 25 -10 14 0 25 -4 25 -10 0 -5 8 -10 18 -10 10 0 24 -9 32
-20 8 -11 22 -20 32 -20 10 0 18 -4 18 -10 0 -5 7 -10 15 -10 8 0 15 -4 15
-10 0 -5 5 -10 11 -10 12 0 32 -21 59 -60 8 -12 20 -28 26 -34 30 -31 44 -78
44 -143 0 -72 25 -160 54 -188 9 -9 16 -23 16 -31 0 -8 15 -30 33 -49 50 -53
53 -57 98 -146 23 -46 50 -91 61 -100 12 -11 21 -35 24 -70 8 -82 13 -99 29
-99 8 0 15 -4 15 -10 0 -5 7 -10 16 -10 18 0 36 -16 54 -50 10 -18 14 -59 12
-143 -2 -104 -5 -123 -28 -169 -14 -28 -32 -58 -39 -65 -8 -7 -17 -22 -20 -33
-3 -11 -10 -20 -14 -20 -4 0 -16 -18 -26 -40 -10 -22 -22 -40 -26 -40 -4 0
-10 -9 -14 -20 -8 -24 -79 -100 -94 -100 -6 0 -11 -4 -11 -10 0 -5 -18 -10
-40 -10 -22 0 -40 -4 -40 -10 0 -5 -8 -10 -18 -10 -10 0 -24 -9 -32 -20 -8
-12 -26 -20 -42 -20 -15 0 -28 -4 -28 -10 0 -5 -6 -10 -14 -10 -17 0 -26 -22
-26 -65 0 -19 -6 -40 -14 -47 -8 -8 -26 -38 -41 -67 -25 -49 -66 -101 -80
-101 -3 0 -33 -27 -65 -60 -32 -33 -64 -60 -70 -60 -14 0 -90 -77 -90 -91 0
-5 -7 -9 -15 -9 -8 0 -15 -4 -15 -10 0 -5 -5 -10 -11 -10 -21 0 -69 -71 -69
-103 0 -8 -9 -24 -20 -37 -11 -13 -20 -27 -20 -32 0 -4 -7 -8 -15 -8 -8 0 -15
-4 -15 -10 0 -5 -5 -10 -11 -10 -17 0 -35 -23 -64 -80 -29 -57 -47 -80 -64
-80 -6 0 -11 -4 -11 -10 0 -5 -7 -10 -15 -10 -8 0 -15 -4 -15 -8 0 -5 -9 -20
-20 -33 -11 -13 -30 -36 -42 -51 -13 -15 -29 -28 -35 -28 -7 0 -13 -4 -13 -8
0 -5 -9 -19 -20 -32 -11 -13 -20 -29 -20 -37 0 -31 -64 -123 -85 -123 -23 0
-95 -110 -95 -145 0 -8 -4 -15 -9 -15 -5 0 -13 -9 -16 -20 -3 -11 -13 -20 -21
-20 -8 0 -14 -4 -14 -10 0 -5 -6 -10 -14 -10 -8 0 -18 -9 -21 -20 -3 -11 -10
-20 -14 -20 -5 0 -14 -13 -21 -30 -7 -16 -19 -30 -26 -30 -8 0 -14 -4 -14 -10
0 -5 -7 -10 -15 -10 -8 0 -15 -4 -15 -10 0 -5 -5 -10 -11 -10 -12 0 -32 -21
-59 -60 -8 -12 -22 -30 -30 -40 -15 -18 -79 -150 -100 -207 -14 -38 -42 -73
-59 -73 -6 0 -11 -4 -11 -9 0 -5 -6 -16 -14 -23 -7 -8 -21 -30 -31 -48 -10
-19 -26 -42 -35 -50 -22 -20 -56 -86 -65 -130 -12 -55 -52 -128 -98 -175 -23
-24 -58 -62 -77 -84 -24 -28 -43 -40 -62 -41 -16 0 -28 -4 -28 -10 0 -5 -16
-10 -35 -10 -19 0 -35 -4 -35 -10 0 -5 -5 -10 -11 -10 -6 0 -32 -22 -59 -50
-27 -27 -53 -50 -59 -50 -6 0 -11 -4 -11 -10 0 -5 -5 -10 -10 -10 -20 0 -62
-51 -71 -85 -7 -26 -6 -47 6 -80 20 -60 19 -92 -6 -265 -17 -112 -28 -158 -51
-204 l-29 -58 16 -81 c15 -73 46 -154 65 -167 14 -10 30 -49 30 -74 0 -13 6
-31 14 -38 7 -8 24 -34 37 -59 22 -40 24 -58 26 -189 1 -80 7 -174 13 -210 5
-36 14 -141 19 -233 l10 -169 -34 -34 c-42 -42 -56 -85 -61 -194 -5 -79 -35
-180 -54 -180 -13 0 -30 -51 -30 -88 0 -111 -55 -412 -87 -475 -17 -35 -22
-57 -17 -81 5 -29 1 -38 -30 -69 -27 -27 -37 -48 -46 -94 -24 -135 -48 -193
-79 -193 -6 0 -11 -4 -11 -10 0 -5 -9 -10 -20 -10 -11 0 -20 -4 -20 -10 0 -6
-46 -10 -119 -10 -127 0 -131 -1 -131 -55 0 -21 49 -85 65 -85 18 0 45 -46 50
-86 3 -24 8 -64 11 -89 3 -25 9 -45 14 -45 12 0 22 -29 31 -90 4 -30 13 -77
20 -103 11 -43 10 -59 -11 -145 -12 -53 -31 -114 -41 -134 -11 -21 -24 -73
-30 -115 -5 -43 -16 -109 -24 -148 -7 -38 -14 -121 -14 -182 -1 -75 -6 -127
-16 -155 -9 -24 -23 -65 -31 -93 -16 -52 -20 -63 -61 -180 -19 -51 -27 -102
-33 -190 -4 -66 -13 -156 -19 -200 -7 -44 -17 -113 -22 -153 -8 -54 -7 -102 2
-178 12 -103 12 -105 -16 -190 -15 -47 -33 -91 -40 -97 -26 -27 -37 -60 -31
-98 6 -38 -16 -102 -48 -135 -6 -6 -18 -22 -26 -34 -8 -12 -20 -28 -26 -34
-21 -22 -33 -53 -28 -73 3 -12 -7 -45 -24 -79 -21 -41 -32 -82 -37 -134 -4
-41 -16 -101 -26 -134 -11 -32 -19 -64 -19 -71 0 -6 -9 -22 -20 -35 -11 -13
-20 -34 -20 -47 0 -24 20 -53 37 -53 5 0 15 -9 23 -20 8 -11 20 -20 27 -20 7
0 13 -4 13 -10 0 -5 7 -10 16 -10 8 0 21 -6 27 -12 14 -15 36 -101 44 -172 5
-48 21 -76 42 -76 15 0 20 -25 32 -165 17 -195 21 -490 9 -564 -15 -85 -49
-151 -79 -151 -6 0 -11 -4 -11 -10 0 -5 -7 -10 -15 -10 -8 0 -15 -4 -15 -10 0
-5 -8 -10 -18 -10 -24 0 -42 -40 -49 -105 -5 -49 -4 -53 36 -94 22 -23 41 -46
41 -49 1 -29 51 -244 63 -272 9 -19 21 -54 27 -77 6 -24 14 -43 19 -43 7 0 15
-15 59 -122 11 -29 21 -38 39 -38 12 0 23 -4 23 -10 0 -5 9 -10 20 -10 11 0
20 -4 20 -10 0 -5 16 -10 35 -10 38 0 85 -35 85 -63 0 -19 54 -77 70 -77 14 0
50 -38 50 -52 0 -4 11 -8 25 -8 14 0 25 -4 25 -10 0 -5 7 -10 16 -10 8 0 22
-7 31 -15 17 -17 43 -106 43 -148 0 -41 43 -117 65 -117 4 0 20 -13 35 -30 26
-27 34 -30 94 -30 37 0 66 -4 66 -10 0 -5 11 -10 25 -10 14 0 25 5 25 10 0 6
9 10 20 10 11 0 20 5 20 10 0 6 11 10 24 10 13 0 27 6 30 13 5 10 7 10 12 0 3
-7 17 -13 30 -13 13 0 24 -4 24 -10 0 -5 16 -10 35 -10 19 0 35 -4 35 -10 0
-5 20 -10 45 -10 25 0 45 -4 45 -10 0 -5 16 -10 35 -10 19 0 35 -4 35 -10 0
-5 5 -10 11 -10 6 0 32 -22 59 -50 27 -27 51 -50 55 -50 22 0 83 -87 135 -191
60 -119 80 -149 97 -149 5 0 15 -9 23 -21 8 -11 23 -30 33 -41 9 -12 17 -25
17 -29 0 -4 6 -14 14 -21 8 -8 26 -39 41 -68 15 -29 32 -59 39 -66 25 -29 34
-42 49 -70 9 -16 16 -23 17 -16 0 7 13 12 30 12 17 0 30 5 30 10 0 6 7 10 15
10 8 0 15 5 15 10 0 6 48 10 125 10 77 0 125 4 125 10 0 6 23 10 50 10 28 0
50 5 50 10 0 6 7 10 15 10 8 0 15 4 15 9 0 13 56 71 68 71 6 0 13 6 15 13 4 9
6 9 6 0 1 -7 8 -13 16 -13 8 0 15 -4 15 -8 0 -5 8 -18 18 -30 9 -11 24 -30 32
-41 8 -12 20 -21 27 -21 7 0 13 -4 13 -10 0 -5 7 -10 15 -10 8 0 15 -4 15 -10
0 -5 9 -10 20 -10 11 0 20 -4 20 -10 0 -5 7 -10 15 -10 8 0 15 -4 15 -10 0 -5
5 -10 11 -10 27 0 65 -67 75 -131 7 -43 64 -170 87 -194 7 -7 19 -22 27 -34 8
-11 25 -21 37 -21 13 0 23 -4 23 -10 0 -5 7 -10 15 -10 8 0 15 -4 15 -10 0 -5
5 -10 10 -10 18 0 97 -86 118 -127 11 -21 23 -53 27 -72 6 -29 63 -101 80
-101 4 0 27 -22 53 -50 61 -64 67 -71 85 -106 9 -16 16 -23 17 -16 0 8 19 12
60 12 33 0 60 4 60 10 0 6 18 10 39 10 l39 0 4 58 c3 39 -1 68 -12 92 -12 27
-15 58 -12 130 8 215 0 280 -33 280 -10 0 -35 28 -35 39 0 47 52 81 65 42 16
-53 78 -79 110 -48 24 24 55 97 62 142 6 44 47 105 70 105 13 0 30 39 39 85
13 72 -28 195 -66 195 -13 0 -50 37 -50 51 0 4 -26 34 -57 67 -34 34 -70 84
-87 120 -16 34 -35 62 -41 62 -6 0 -22 22 -35 50 -13 27 -28 50 -35 50 -6 0
-17 9 -25 20 -8 11 -19 20 -24 20 -9 0 -31 24 -56 60 -8 13 -26 34 -38 47 -13
13 -28 40 -33 58 -6 21 -16 35 -25 35 -20 0 -44 24 -44 44 0 13 -13 16 -71 16
-83 0 -95 9 -114 80 -15 56 -34 80 -65 80 -38 0 -70 47 -70 104 0 25 -4 36
-15 36 -8 0 -15 5 -15 10 0 6 -13 10 -30 10 -16 0 -30 5 -30 10 0 6 -6 10 -14
10 -8 0 -18 9 -21 20 -3 11 -13 20 -21 20 -8 0 -14 5 -14 10 0 6 -16 10 -35
10 -19 0 -35 5 -35 10 0 6 -5 10 -11 10 -6 0 -32 23 -59 50 -27 28 -56 50 -64
50 -9 0 -16 5 -16 10 0 6 -17 10 -38 10 -26 0 -42 6 -52 20 -8 11 -18 20 -23
20 -11 0 -31 21 -45 46 -16 31 -62 170 -62 189 0 19 -27 74 -46 93 -8 7 -14
17 -14 21 0 15 -38 51 -54 51 -9 0 -16 5 -16 10 0 6 -11 10 -25 10 -14 0 -25
5 -25 10 0 6 -5 10 -11 10 -12 0 -49 38 -49 50 0 14 -38 50 -52 50 -8 0 -31
36 -53 81 -43 88 -65 119 -85 119 -8 0 -10 9 -6 28 18 69 17 80 -4 122 -23 46
-62 90 -80 90 -5 0 -10 5 -10 10 0 6 -11 10 -25 10 -14 0 -25 5 -25 10 0 6
-13 10 -28 10 -16 0 -34 8 -42 20 -8 11 -20 20 -27 20 -7 0 -13 4 -13 8 0 5
-8 18 -17 30 -10 11 -25 30 -33 41 -8 12 -20 21 -27 21 -6 0 -15 9 -18 20 -3
11 -11 20 -16 20 -5 0 -9 22 -9 48 0 35 -6 56 -20 72 -11 13 -20 27 -20 31 0
5 -16 24 -36 44 -37 38 -54 78 -54 131 0 32 -46 94 -69 94 -6 0 -11 5 -11 10
0 6 -7 10 -15 10 -8 0 -15 5 -15 10 0 6 -32 10 -75 10 -70 0 -75 1 -81 24 -3
15 4 42 20 74 31 62 32 73 6 92 -11 8 -20 22 -20 32 0 11 7 18 20 18 11 0 20
6 20 13 0 9 3 8 9 -2 7 -11 9 -11 14 0 4 10 6 10 6 2 1 -8 17 -13 44 -13 32 0
46 5 57 21 28 39 47 59 59 59 6 0 11 5 11 10 0 6 5 10 11 10 12 0 31 20 59 59
8 12 20 21 27 21 7 0 13 5 13 10 0 6 8 10 18 10 12 0 25 14 35 38 33 75 39
124 32 238 -7 116 -2 141 35 174 10 8 34 48 55 89 32 65 36 81 31 120 -38 265
-32 456 18 605 10 30 14 61 9 91 -6 50 19 125 44 125 7 0 13 5 13 10 0 6 7 10
16 10 8 0 37 23 64 50 27 28 53 50 57 50 5 0 15 9 23 20 8 11 20 20 27 20 7 0
13 5 13 10 0 6 14 10 31 10 23 0 40 -10 69 -40 21 -22 46 -40 54 -40 9 0 16
-4 16 -10 0 -5 8 -10 18 -10 10 0 24 -9 32 -20 8 -11 19 -20 25 -20 6 0 17 -9
25 -21 36 -50 48 -59 84 -59 20 0 36 -4 36 -10 0 -5 7 -10 15 -10 8 0 15 -4
15 -10 0 -5 9 -10 20 -10 11 0 20 5 20 10 0 6 6 10 13 10 7 0 19 9 27 21 26
38 68 79 79 79 6 0 11 5 11 10 0 15 49 12 65 -4 21 -21 29 -82 15 -116 -11
-26 -18 -30 -51 -30 -22 0 -39 -4 -39 -10 0 -5 -5 -10 -10 -10 -18 0 -56 -44
-64 -73 -7 -31 10 -107 24 -107 5 0 12 -9 15 -20 3 -11 15 -20 26 -20 10 0 19
-4 19 -10 0 -5 14 -10 30 -10 17 0 30 -4 30 -10 0 -5 8 -10 18 -10 10 0 24 -9
32 -20 8 -11 22 -20 32 -20 10 0 18 -4 18 -10 0 -5 7 -10 15 -10 8 0 15 -4 15
-9 0 -5 12 -22 28 -39 15 -16 34 -39 42 -51 8 -12 20 -21 27 -21 7 0 13 -4 13
-10 0 -5 9 -10 21 -10 25 0 41 -15 64 -60 19 -37 24 -43 78 -101 20 -22 37
-44 37 -48 0 -4 8 -17 18 -29 9 -11 24 -30 32 -42 8 -12 26 -35 40 -51 14 -15
36 -42 50 -58 14 -17 31 -31 38 -31 6 0 12 -4 12 -10 0 -5 5 -10 11 -10 6 0
24 -13 39 -30 15 -16 31 -30 35 -30 11 0 44 -40 50 -61 4 -11 15 -19 26 -19
10 0 19 -4 19 -10 0 -5 9 -10 20 -10 11 0 20 -4 20 -10 0 -6 27 -10 60 -10 33
0 60 -4 60 -10 0 -5 16 -10 35 -10 19 0 35 -4 35 -10 0 -5 14 -10 30 -10 17 0
30 5 30 10 0 6 18 10 40 10 22 0 40 5 40 10 0 6 9 10 20 10 11 0 20 5 20 10 0
6 16 10 35 10 19 0 35 5 35 10 0 6 9 10 20 10 11 0 20 4 20 10 0 5 11 20 24
33 17 17 22 31 19 50 -3 15 -9 27 -14 27 -16 0 -10 56 9 77 15 18 19 19 31 6
7 -8 17 -30 22 -49 6 -20 16 -34 26 -34 18 0 49 33 58 61 4 13 16 19 36 19 16
0 29 -4 29 -10 0 -5 18 -10 40 -10 22 0 40 5 40 10 0 6 6 10 14 10 8 0 18 9
21 20 3 11 13 20 21 20 8 0 14 5 14 10 0 6 11 10 25 10 14 0 25 5 25 10 0 6
30 10 70 10 40 0 70 -4 70 -10 0 -5 7 -10 15 -10 8 0 15 -4 15 -10 0 -5 20
-10 45 -10 25 0 45 -4 45 -10 0 -5 9 -10 20 -10 11 0 20 -4 20 -10 0 -5 7 -10
15 -10 8 0 15 -4 15 -10 0 -5 7 -10 15 -10 8 0 15 -4 15 -10 0 -5 11 -10 25
-10 14 0 25 -4 25 -10 0 -5 14 -10 30 -10 17 0 30 -4 30 -10 0 -5 14 -10 30
-10 17 0 30 5 30 10 0 6 18 10 40 10 22 0 40 5 40 10 0 6 7 10 15 10 8 0 15 5
15 10 0 6 7 10 15 10 8 0 15 5 15 10 0 6 7 10 15 10 8 0 15 5 15 10 0 6 9 10
20 10 11 0 20 5 20 10 0 6 7 10 15 10 8 0 15 5 15 10 0 6 5 10 11 10 24 0 69
62 69 96 0 40 -39 124 -57 124 -7 0 -13 5 -13 10 0 6 -11 10 -25 10 -14 0 -25
5 -25 10 0 6 -6 10 -13 10 -14 0 -37 40 -37 65 0 8 -4 15 -9 15 -5 0 -13 9
-16 20 -3 11 -15 20 -26 20 -10 0 -19 5 -19 10 0 6 -7 10 -15 10 -8 0 -15 5
-15 10 0 6 -7 10 -15 10 -8 0 -15 5 -15 10 0 6 -7 10 -15 10 -8 0 -15 5 -15
10 0 6 -9 10 -20 10 -11 0 -20 5 -20 10 0 6 -9 10 -20 10 -11 0 -20 5 -20 10
0 6 -5 10 -11 10 -15 0 -49 39 -49 57 0 17 -24 43 -39 43 -6 0 -11 5 -11 10 0
6 -12 10 -26 10 -30 0 -45 13 -69 60 -25 48 -39 60 -74 60 -17 0 -31 5 -31 10
0 6 -6 10 -14 10 -8 0 -17 8 -21 19 -9 31 -41 61 -64 61 -11 0 -21 5 -21 10 0
6 -6 10 -13 10 -7 0 -19 9 -27 20 -10 14 -26 20 -52 20 -21 0 -38 5 -38 10 0
6 -16 10 -35 10 -19 0 -35 5 -35 10 0 6 -22 10 -50 10 -27 0 -50 5 -50 10 0 6
-18 10 -40 10 -22 0 -40 -4 -40 -10 0 -5 -16 -10 -35 -10 -19 0 -35 5 -35 10
0 6 -9 10 -21 10 -12 0 -34 14 -49 30 -15 17 -33 30 -39 30 -6 0 -11 5 -11 10
0 22 -34 8 -70 -30 -44 -45 -59 -49 -80 -19 -8 12 -20 27 -26 33 -6 6 -17 22
-24 36 -25 47 -143 170 -163 170 -20 0 -27 20 -43 122 -7 48 -20 101 -29 117
-8 16 -17 62 -20 103 -6 72 -23 148 -36 158 -20 16 -39 77 -48 161 -6 51 -18
132 -26 179 -8 47 -20 171 -25 275 -6 105 -15 224 -21 265 -24 172 -32 282
-30 394 2 99 6 127 24 160 11 23 24 61 28 86 4 25 17 81 29 125 20 71 22 95
16 222 -5 138 -6 144 -41 213 -46 92 -54 158 -55 490 -1 338 5 481 24 560 9
36 16 96 16 133 0 49 6 79 21 109 17 33 20 52 16 91 -5 34 -2 58 9 79 8 16 24
55 34 86 54 162 59 171 116 229 24 24 44 47 44 52 0 23 40 51 74 51 20 0 36 5
36 10 0 6 7 10 15 10 8 0 15 5 15 10 0 6 6 10 14 10 8 0 17 7 20 16 9 24 -28
84 -53 84 -6 0 -11 5 -11 10 0 6 -8 10 -18 10 -10 0 -24 9 -32 21 -22 31 -67
79 -75 79 -24 0 -75 96 -75 140 0 17 6 43 14 58 8 15 17 46 21 67 3 22 12 56
20 75 8 19 19 80 25 135 8 64 20 116 35 145 12 25 25 57 29 72 3 15 12 33 20
41 18 17 61 104 70 139 6 28 77 108 95 108 6 0 11 5 11 10 0 6 7 10 15 10 25
0 61 42 95 111 47 92 64 105 90 69 8 -11 19 -20 25 -20 6 0 17 -9 25 -20 8
-11 25 -20 37 -20 13 0 23 -4 23 -10 0 -5 20 -10 45 -10 25 0 45 -5 45 -10 0
-6 11 0 25 14 14 14 25 30 25 36 0 6 7 24 15 41 9 16 20 66 25 111 5 45 14 84
18 87 5 3 17 22 27 41 10 19 21 37 25 40 4 3 15 21 25 40 10 19 21 37 25 40 4
3 17 25 30 49 25 49 43 71 59 71 6 0 11 5 11 10 0 6 7 10 15 10 8 0 15 5 15
10 0 6 11 10 24 10 13 0 27 6 29 13 4 10 6 10 6 0 1 -7 7 -13 14 -13 7 0 27
-28 43 -62 41 -86 190 -238 234 -238 16 0 30 5 30 10 0 6 11 10 25 10 14 0 25
5 25 10 0 6 11 10 25 10 14 0 25 5 25 10 0 6 5 10 11 10 6 0 24 14 39 30 15
17 33 30 39 30 6 0 11 5 11 10 0 6 18 10 40 10 22 0 40 5 40 10 0 6 22 10 49
10 46 0 49 -2 61 -32 62 -166 72 -188 87 -188 7 0 13 -4 13 -10 0 -15 79 -12
94 3 20 20 32 48 46 106 13 56 47 101 75 101 8 0 15 5 15 10 0 6 9 10 20 10
11 0 20 5 20 10 0 6 7 10 15 10 8 0 15 5 15 10 0 6 7 10 15 10 8 0 15 5 15 10
0 6 5 10 11 10 18 0 49 41 49 64 0 12 -10 46 -22 76 -31 78 -31 283 0 385 11
39 23 88 27 110 4 21 15 55 25 75 24 46 62 213 63 270 0 79 -14 164 -35 213
-12 26 -25 47 -30 47 -11 0 -10 38 3 75 11 28 6 41 -61 175 -40 80 -76 147
-80 150 -12 9 -37 63 -45 100 -4 19 -22 64 -40 100 -18 36 -36 90 -40 120 -4
30 -11 62 -15 70 -4 8 -18 62 -30 119 -12 57 -28 118 -35 135 -87 208 -97 248
-101 419 -4 134 -12 181 -34 197 -19 13 -50 95 -66 171 -18 91 -26 111 -58
145 -11 13 -27 30 -33 38 -13 16 -34 71 -53 143 -6 23 -17 48 -24 56 -8 7 -31
47 -51 87 -20 40 -43 79 -50 87 -16 15 -55 18 -55 3 0 -5 -7 -10 -15 -10 -8 0
-15 -4 -15 -10 0 -5 -5 -10 -11 -10 -6 0 -24 -13 -39 -30 -15 -16 -32 -30 -37
-30 -5 0 -15 -9 -23 -20 -8 -11 -20 -20 -27 -20 -7 0 -13 -4 -13 -10 0 -5 -7
-10 -15 -10 -8 0 -15 -4 -15 -10 0 -26 -46 -5 -90 40 -27 28 -53 50 -59 50 -6
0 -11 5 -11 10 0 6 -7 10 -15 10 -8 0 -15 5 -15 10 0 6 -5 10 -11 10 -6 0 -24
14 -39 30 -15 17 -33 30 -39 30 -6 0 -11 5 -11 10 0 6 -5 10 -11 10 -16 0 -34
22 -59 70 -27 52 -43 70 -64 70 -9 0 -16 5 -16 10 0 6 -5 10 -11 10 -23 0 -59
54 -59 89 0 30 -32 91 -47 91 -7 0 -13 5 -13 10 0 6 -7 10 -15 10 -8 0 -15 5
-15 10 0 6 -7 10 -15 10 -8 0 -15 5 -15 10 0 6 -7 10 -15 10 -8 0 -15 5 -15
10 0 6 -22 10 -50 10 -27 0 -50 5 -50 10 0 6 -16 10 -35 10 -19 0 -35 5 -35
10 0 6 -7 10 -15 10 -8 0 -15 5 -15 10 0 6 -7 10 -15 10 -8 0 -15 4 -15 8 0
14 -36 52 -49 52 -6 0 -11 5 -11 10 0 6 -6 10 -13 10 -7 0 -19 9 -27 21 -37
52 -47 59 -89 59 -38 0 -48 6 -91 50 -27 28 -54 50 -60 50 -6 0 -29 18 -50 40
-21 22 -46 40 -54 40 -9 0 -16 5 -16 10 0 6 -5 10 -11 10 -18 0 -39 27 -39 50
0 21 -14 53 -32 74 -40 49 -48 60 -48 66 0 4 -9 17 -20 30 -11 13 -20 29 -20
37 0 39 -83 163 -109 163 -5 0 -13 9 -16 20 -3 11 -10 20 -15 20 -5 0 -11 9
-15 19 -3 11 -19 34 -35 50 -27 30 -32 31 -107 31 l-80 0 -16 -37 c-9 -21 -19
-48 -22 -60 -4 -16 -14 -23 -31 -23 -13 0 -24 5 -24 10 0 6 -7 10 -15 10 -8 0
-15 5 -15 10 0 6 -46 10 -118 10 l-119 0 -23 50 c-13 28 -29 50 -37 50 -7 0
-13 5 -13 10 0 6 -7 10 -15 10 -10 0 -15 10 -15 29 0 21 -12 42 -39 70 -33 34
-46 41 -79 41 -34 0 -41 4 -52 30 -20 47 4 130 37 130 5 0 15 9 23 20 8 11 18
20 23 20 8 0 67 58 67 66 0 2 -28 60 -62 129 -45 89 -68 125 -80 125 -10 0
-18 5 -18 10 0 6 -11 10 -25 10 -14 0 -25 5 -25 10 0 6 -4 10 -10 10 -5 0 -10
-4 -10 -10z"/>
<path fill="#ffffff" stroke="000000" stroke-width="0.01" d="M17600 12280 c0 -5 9 -10 20 -10 11 0
20 -4 20 -10 0 -5 7 -10 15 -10 8 0 15 -4 15 -10 0 -5 8 -10 18 -10 27 0 45
-45 30 -73 -15 -28 -34 -47 -47 -47 -6 0 -11 -4 -11 -10 0 -5 -25 -10 -55 -10
-30 0 -55 5 -55 10 0 6 -8 10 -18 10 -19 0 -37 28 -53 83 -10 35 7 77 33 77
10 0 18 5 18 10 0 6 16 10 35 10 19 0 35 -4 35 -10z"/>
<path fill="#ffffff" stroke="000000" stroke-width="0.01" d="M17760 11183 c0 -9 -22 -13 -75 -13
-43 0 -75 -4 -75 -10 0 -5 -6 -10 -13 -10 -8 0 -22 -18 -32 -40 -10 -22 -21
-40 -24 -40 -4 0 -12 -19 -18 -42 -25 -92 -53 -218 -53 -236 0 -25 33 -62 55
-62 32 0 55 -39 55 -92 0 -26 -4 -48 -10 -48 -5 0 -10 -4 -10 -10 0 -5 11 -10
25 -10 14 0 25 -4 25 -10 0 -5 11 -10 25 -10 28 0 35 21 55 150 11 73 36 150
50 150 3 0 21 31 40 70 32 67 33 71 23 132 -10 60 -42 157 -43 131z"/>
</g>
</svg>
