<?xml version="1.0" standalone="no"?>
<!DOCTYPE svg PUBLIC "-//W3C//DTD SVG 20010904//EN"
 "http://www.w3.org/TR/2001/REC-SVG-20010904/DTD/svg10.dtd">
<svg version="1.0" xmlns="http://www.w3.org/2000/svg"
 width="3506.000000pt" height="3950.000000pt" viewBox="0 0 3506.000000 3950.000000"
 preserveAspectRatio="xMidYMid meet">
<metadata>
Created by potrace 1.15, written by Peter Selinger 2001-2017
</metadata>
<g transform="translate(0.000000,3950.000000) scale(0.100000,-0.100000)"
fill="#ffffff" stroke="000000" stroke-width="0.01">
<path fill="#ffffff" stroke="000000" stroke-width="0.01" d="M0 38217 c0 -1270 0 -1284 20 -1307 11
-13 20 -27 20 -32 0 -4 8 -8 19 -8 18 0 30 -21 46 -77 3 -13 13 -23 21 -23 8
0 14 -4 14 -9 0 -5 6 -16 14 -24 16 -15 46 -146 46 -199 0 -66 37 -148 67
-148 11 0 33 -43 33 -64 0 -17 54 -76 69 -76 6 0 11 -4 11 -10 0 -5 7 -10 15
-10 8 0 15 -4 15 -10 0 -5 6 -10 13 -10 6 0 23 -14 37 -31 14 -16 42 -48 62
-70 20 -21 40 -48 43 -59 4 -11 11 -20 16 -20 5 0 9 -16 9 -36 0 -22 7 -43 18
-53 16 -15 30 -45 56 -118 6 -18 15 -33 21 -33 5 0 20 -13 33 -28 12 -15 31
-38 42 -51 11 -13 20 -28 20 -33 0 -4 5 -8 11 -8 12 0 54 -42 79 -80 8 -12 22
-30 30 -40 8 -9 33 -54 55 -99 21 -44 45 -81 52 -81 7 0 13 -4 13 -10 0 -5 11
-20 24 -33 32 -32 56 -80 56 -111 0 -13 6 -31 14 -38 8 -8 26 -39 41 -68 15
-29 32 -59 39 -66 6 -6 18 -21 26 -33 8 -11 22 -21 32 -21 10 0 18 -4 18 -10
0 -19 39 -10 45 10 3 11 13 20 22 20 13 0 15 -8 9 -46 -6 -45 7 -74 33 -74 6
0 11 -4 11 -10 0 -5 8 -10 19 -10 21 0 36 -32 46 -97 4 -24 10 -43 14 -43 14
0 55 -100 54 -133 0 -17 -6 -54 -12 -82 -12 -51 -1 -105 21 -105 5 0 6 -19 3
-45 -6 -33 -3 -48 8 -60 9 -8 18 -15 22 -15 17 0 39 -36 52 -88 11 -41 13 -80
9 -142 -7 -92 -8 -90 56 -161 15 -17 30 -39 33 -50 4 -10 10 -19 14 -19 5 0
11 -13 14 -30 6 -25 11 -30 37 -30 16 0 30 -4 30 -10 0 -5 9 -10 19 -10 20 0
31 -18 31 -50 0 -27 -31 -90 -45 -90 -6 0 -17 -10 -25 -21 -41 -59 -89 -99
-119 -99 -17 0 -31 -4 -31 -8 0 -5 -8 -19 -19 -30 -17 -20 -28 -22 -121 -22
-93 0 -104 2 -121 22 -11 11 -19 25 -19 30 0 4 -8 8 -19 8 -11 0 -23 12 -31
30 -12 29 -15 30 -71 30 -33 0 -59 -4 -59 -10 0 -5 -7 -10 -15 -10 -8 0 -15
-4 -15 -10 0 -5 -5 -10 -11 -10 -16 0 -39 -26 -39 -44 0 -9 -7 -16 -15 -16 -8
0 -15 -4 -15 -10 0 -5 -13 -10 -30 -10 -16 0 -30 -4 -30 -10 0 -5 -7 -10 -15
-10 -8 0 -15 -4 -15 -8 0 -14 -36 -52 -49 -52 -6 0 -11 -4 -11 -10 0 -5 -9
-10 -20 -10 -11 0 -20 -4 -20 -10 0 -5 -7 -10 -15 -10 -8 0 -15 -4 -15 -10 0
-18 -45 -11 -60 9 -13 20 -14 20 -30 0 -10 -10 -29 -19 -44 -19 -14 0 -26 -4
-26 -10 0 -5 -9 -10 -20 -10 -11 0 -20 -4 -20 -10 0 -5 -13 -10 -30 -10 -16 0
-30 -4 -30 -10 0 -5 -9 -10 -20 -10 -11 0 -20 -4 -20 -10 0 -5 -11 -10 -25
-10 -14 0 -25 -4 -25 -10 0 -5 -11 -10 -25 -10 -14 0 -25 -4 -25 -10 0 -5 -9
-10 -21 -10 -12 0 -34 -13 -49 -30 -15 -16 -34 -30 -40 -30 -14 0 -50 -38 -50
-52 0 -4 -9 -8 -20 -8 -11 0 -20 -4 -20 -10 0 -5 -9 -10 -20 -10 -11 0 -20 -4
-20 -8 0 -5 -9 -19 -20 -32 -11 -13 -23 -35 -27 -49 -3 -14 -21 -40 -39 -58
-28 -28 -41 -33 -79 -33 l-45 0 0 -13080 c0 -12821 0 -13080 19 -13080 13 0
20 9 24 32 11 66 25 114 42 150 16 33 23 38 52 38 18 0 33 5 33 10 0 6 16 10
35 10 19 0 35 5 35 10 0 6 13 10 28 10 16 0 34 8 42 20 8 11 22 20 30 20 18 0
67 -97 101 -202 20 -60 21 -68 6 -82 -8 -9 -27 -16 -41 -16 -14 0 -26 -4 -26
-10 0 -5 -6 -10 -13 -10 -21 0 -49 -67 -37 -90 5 -10 10 -44 10 -74 0 -53 1
-56 25 -56 14 0 25 -4 25 -10 0 -5 9 -10 20 -10 14 0 20 -7 20 -21 0 -25 -46
-165 -60 -182 -45 -54 -71 -77 -89 -77 -12 0 -21 -4 -21 -8 0 -14 -36 -52 -49
-52 -6 0 -11 -4 -11 -10 0 -5 -11 -10 -25 -10 -14 0 -25 -4 -25 -10 0 -5 -11
-10 -25 -10 -14 0 -25 -4 -25 -10 0 -5 -7 -10 -15 -10 -8 0 -15 -4 -15 -10 0
-5 -11 -10 -24 -10 -21 0 -24 -5 -28 -47 -5 -58 1 -93 14 -93 6 0 19 -10 30
-22 16 -18 19 -32 14 -66 -4 -28 -1 -48 7 -57 29 -33 37 -46 67 -105 34 -67
52 -90 69 -90 6 0 11 -4 11 -10 0 -5 9 -10 20 -10 11 0 20 -4 20 -10 0 -5 9
-10 19 -10 27 0 33 -25 16 -70 -8 -22 -22 -58 -30 -81 -12 -32 -13 -43 -3 -53
7 -8 20 -23 28 -35 8 -11 23 -21 33 -21 33 0 47 -25 47 -87 0 -64 -24 -166
-40 -171 -5 -2 -10 -22 -10 -45 0 -23 -9 -67 -21 -97 -12 -30 -28 -72 -35 -94
-17 -44 -36 -66 -58 -66 -9 0 -16 -4 -16 -10 0 -5 -7 -10 -15 -10 -8 0 -15 -4
-15 -10 0 -5 -7 -10 -15 -10 -8 0 -15 -4 -15 -10 0 -5 -7 -10 -15 -10 -8 0
-15 -4 -15 -8 0 -5 -8 -18 -17 -30 -10 -11 -25 -30 -33 -41 -8 -12 -19 -21
-26 -21 -31 0 -34 -50 -34 -680 0 -556 2 -634 16 -667 63 -148 130 -273 146
-273 10 0 18 -4 18 -10 0 -5 9 -10 20 -10 13 0 20 -7 20 -18 0 -27 34 -62 59
-62 11 0 21 -4 21 -10 0 -5 7 -10 15 -10 19 0 19 -34 1 -123 -13 -62 -13 -71
6 -120 11 -28 24 -67 29 -84 6 -18 16 -33 24 -33 8 0 15 -4 15 -10 0 -5 16
-10 35 -10 19 0 35 -4 35 -10 0 -5 20 -10 45 -10 25 0 45 -4 45 -10 0 -5 16
-10 36 -10 l37 0 -7 -67 c-4 -46 -1 -91 9 -138 8 -38 15 -108 15 -155 0 -97
25 -185 64 -226 6 -6 18 -22 26 -34 8 -12 22 -30 30 -40 8 -10 22 -28 30 -40
8 -12 23 -31 33 -42 9 -12 17 -25 17 -30 0 -4 7 -8 15 -8 8 0 15 -4 15 -10 0
-5 7 -10 15 -10 8 0 15 -4 15 -10 0 -5 6 -10 13 -10 7 0 19 -9 27 -20 8 -11
20 -20 27 -20 7 0 13 -4 13 -10 0 -5 9 -10 20 -10 11 0 20 -4 20 -10 0 -5 6
-10 13 -10 7 0 19 -9 27 -20 8 -11 25 -20 37 -20 13 0 23 -4 23 -10 0 -5 7
-10 15 -10 8 0 15 -4 15 -10 0 -5 6 -10 13 -10 7 0 19 -9 27 -20 8 -11 25 -20
37 -20 13 0 23 -4 23 -10 0 -5 7 -10 15 -10 8 0 15 -4 15 -10 0 -5 20 -10 45
-10 25 0 45 -4 45 -10 0 -5 11 -10 25 -10 14 0 25 -4 25 -10 0 -5 6 -10 13
-10 15 0 51 -73 67 -137 6 -24 15 -43 19 -43 5 0 14 -13 21 -30 7 -16 17 -30
22 -30 30 0 40 -32 44 -153 5 -174 25 -327 41 -327 7 0 13 -4 13 -10 0 -5 7
-10 15 -10 8 0 15 -4 15 -10 0 -5 -4 -10 -8 -10 -4 0 -18 -20 -30 -45 -20 -41
-21 -49 -10 -124 11 -74 10 -85 -10 -145 -12 -36 -22 -88 -22 -120 l0 -56
2203 1 c1211 0 2195 3 2187 6 -34 14 -40 32 -40 127 0 78 3 96 15 96 22 0 27
37 16 113 -6 43 -6 116 0 205 12 163 15 182 33 182 16 0 26 22 26 57 l0 26 19
-21 c14 -17 30 -22 65 -22 25 0 46 5 46 10 0 6 15 10 33 10 31 0 33 2 44 53 6
28 21 78 33 111 l22 58 -23 49 c-12 27 -26 49 -31 49 -4 0 -8 9 -8 20 0 13 7
20 20 20 11 0 20 5 20 10 0 6 14 10 31 10 38 0 56 18 79 78 10 26 24 63 32 82
7 19 18 40 23 46 6 6 17 21 25 33 8 11 20 21 27 21 13 0 18 15 28 88 6 44 39
122 57 133 6 4 6 15 -2 29 -7 13 -16 35 -20 49 -4 14 -11 34 -15 44 -6 14 -1
17 32 17 36 0 40 3 61 45 18 38 20 50 11 68 -7 12 -16 25 -22 29 -18 11 -36
126 -26 163 6 19 14 35 19 35 5 0 14 19 20 43 21 79 16 70 69 133 5 6 17 26
26 45 10 19 22 37 27 40 10 6 18 248 11 292 -3 15 -12 27 -19 27 -8 0 -14 5
-14 10 0 6 -17 10 -38 10 -37 0 -39 1 -73 71 -42 88 -78 129 -113 129 -14 0
-26 5 -26 10 0 6 -7 10 -16 10 -21 0 -39 20 -47 51 -4 14 -16 36 -27 49 -11
13 -20 27 -20 32 0 4 -7 8 -15 8 -8 0 -15 5 -15 10 0 6 -11 10 -25 10 -14 0
-25 5 -25 10 0 6 -16 10 -35 10 -29 0 -36 4 -41 27 -8 30 -26 53 -43 53 -6 0
-11 5 -11 10 0 6 -6 10 -13 10 -7 0 -19 9 -27 20 -8 11 -19 20 -25 20 -5 0
-21 14 -35 31 -51 61 -99 109 -109 109 -6 0 -11 5 -11 10 0 6 -7 10 -15 10 -8
0 -15 5 -15 10 0 6 -6 10 -14 10 -8 0 -18 9 -21 20 -3 11 -13 20 -21 20 -8 0
-14 5 -14 10 0 6 -7 10 -15 10 -8 0 -15 5 -15 10 0 6 -7 10 -15 10 -8 0 -15 5
-15 10 0 6 -4 10 -10 10 -18 0 -60 43 -60 62 0 10 -29 47 -65 82 -37 38 -77
90 -95 126 -17 34 -46 77 -63 95 -54 57 -56 61 -63 129 -4 36 -10 66 -14 66
-4 0 -13 14 -20 30 -7 17 -17 30 -22 30 -11 0 -116 107 -138 140 -8 13 -25 33
-36 45 -12 12 -30 37 -39 56 -10 18 -24 39 -31 47 -8 7 -14 17 -14 21 0 12
-36 51 -47 51 -6 0 -16 15 -23 33 -6 17 -18 48 -25 67 -7 19 -19 50 -25 68 -7
17 -19 32 -26 32 -8 0 -14 5 -14 10 0 6 -5 10 -11 10 -18 0 -36 25 -44 61 -13
60 -50 119 -74 119 -6 0 -11 5 -11 10 0 6 -7 10 -15 10 -23 0 -18 36 9 63 22
22 46 59 46 71 0 3 -7 6 -15 6 -8 0 -15 5 -15 10 0 6 -7 10 -15 10 -8 0 -15 5
-15 10 0 6 -9 10 -20 10 -11 0 -20 5 -20 10 0 6 -16 10 -35 10 -19 0 -35 5
-35 10 0 6 -7 10 -16 10 -16 0 -76 58 -104 100 -8 12 -20 28 -26 34 -27 28
-35 56 -23 78 7 13 15 25 19 28 7 5 40 65 40 73 0 4 -26 36 -79 93 -26 29 -47
72 -56 113 -8 37 -26 61 -46 61 -16 0 -48 39 -54 64 -3 12 -9 63 -14 114 -6
58 -16 98 -25 108 -9 8 -20 33 -26 54 -10 36 -14 40 -44 40 -27 0 -35 6 -51
38 -10 20 -22 62 -26 92 -4 30 -14 79 -22 108 -14 49 -14 56 4 105 22 57 22
57 -22 375 -19 135 -19 182 1 182 25 0 10 77 -19 100 -17 13 -55 226 -76 425
-15 143 -20 168 -52 235 -32 69 -34 79 -24 115 6 22 13 83 16 135 2 52 9 114
13 136 9 40 50 94 72 94 5 0 10 4 10 8 0 8 9 20 49 68 5 6 17 26 26 44 10 19
24 40 31 48 8 8 14 35 14 67 0 66 7 85 31 85 10 0 19 5 19 10 0 6 7 10 15 10
9 0 15 9 15 23 0 12 9 55 19 94 l19 73 -24 87 c-43 164 -112 359 -134 386 -57
67 -55 62 -69 169 -5 36 -7 103 -4 147 4 50 2 81 -4 81 -22 0 -33 56 -33 171
0 111 -2 122 -22 144 -13 13 -28 30 -33 37 -14 18 -33 81 -45 156 -6 34 -20
90 -32 125 -11 34 -24 82 -28 107 -5 25 -21 83 -38 130 -16 47 -37 110 -46
140 -21 71 -57 150 -68 150 -4 0 -8 16 -8 36 0 60 -49 124 -95 124 -14 0 -25
5 -25 10 0 6 -6 10 -14 10 -8 0 -18 9 -21 20 -3 11 -11 20 -16 20 -5 0 -9 7
-9 15 0 9 -15 44 -32 78 -30 56 -32 69 -31 144 2 76 0 84 -25 111 -25 27 -47
69 -93 182 -10 25 -21 55 -24 68 -5 17 -14 22 -39 22 -33 0 -33 1 -39 55 -5
48 -11 60 -45 93 -55 53 -62 71 -62 161 0 83 13 131 37 131 7 0 13 5 13 10 0
6 7 10 15 10 8 0 15 5 15 10 0 6 8 10 19 10 21 0 37 32 50 103 12 67 -4 117
-38 117 -14 0 -14 8 2 25 6 8 17 21 23 28 7 8 16 45 22 83 5 38 13 77 17 87 6
14 2 17 -19 17 -14 0 -26 -4 -26 -10 0 -6 -27 -10 -60 -10 -33 0 -60 4 -60 10
0 6 -6 10 -13 10 -8 0 -19 10 -25 23 -6 12 -11 16 -11 10 -1 -7 -10 -13 -20
-13 -11 0 -23 -9 -26 -20 -3 -11 -13 -20 -21 -20 -8 0 -14 -4 -14 -10 0 -5 -7
-10 -15 -10 -8 0 -15 5 -15 10 0 6 -7 10 -15 10 -8 0 -15 5 -15 10 0 6 -22 10
-49 10 -45 0 -49 2 -54 28 -3 16 -19 43 -35 60 -26 28 -37 32 -81 32 -28 0
-51 -4 -51 -10 0 -5 -9 -10 -20 -10 -11 0 -20 -4 -20 -10 0 -5 -4 -10 -10 -10
-5 0 -10 7 -10 16 0 9 -8 24 -19 33 -23 20 -51 74 -51 99 0 28 -32 125 -46
140 -7 6 -17 12 -23 12 -6 0 -11 19 -11 43 0 23 -7 71 -16 107 -28 121 -36
165 -38 215 -5 87 -6 93 -20 107 -36 37 -62 128 -35 128 26 0 38 27 29 61 -14
48 -12 75 6 93 19 19 34 69 34 112 0 39 30 74 63 74 17 0 28 7 32 20 3 11 10
20 15 20 5 0 12 9 15 20 6 20 35 28 35 10 0 -5 5 -10 10 -10 6 0 10 18 10 40
0 34 3 40 21 40 29 0 60 37 54 64 -2 11 -11 53 -19 91 -8 39 -22 88 -30 110
-20 53 -20 87 2 113 37 45 52 66 52 74 0 4 17 8 38 8 26 0 42 6 52 20 9 13 26
20 47 20 18 0 33 5 33 10 0 6 5 10 10 10 27 0 80 73 80 110 0 21 21 50 37 50
5 0 15 9 23 20 8 11 21 20 30 20 9 0 22 9 30 20 15 21 80 29 80 10 0 -5 14
-10 30 -10 17 0 30 -4 30 -10 0 -5 11 -10 25 -10 14 0 25 -4 25 -9 0 -5 18
-28 39 -50 29 -31 47 -41 70 -41 17 0 31 5 31 10 0 6 14 10 30 10 17 0 30 5
30 10 0 6 20 10 45 10 25 0 45 5 45 10 0 6 8 10 18 10 10 0 24 9 32 20 8 11
20 20 27 20 7 0 13 5 13 10 0 15 47 12 53 -2 4 -10 6 -10 6 0 1 7 15 12 35 12
32 0 35 2 41 40 4 25 12 40 21 40 8 0 14 5 14 10 0 6 6 10 14 10 8 0 18 9 21
20 5 15 15 20 39 20 27 0 35 6 49 35 9 20 17 42 17 50 0 11 13 15 49 15 41 0
51 4 56 20 3 11 10 20 14 20 4 0 20 27 36 60 25 52 32 60 57 60 15 0 28 5 28
10 0 6 6 10 14 10 17 0 26 22 26 61 0 37 13 62 54 105 17 18 36 39 41 46 12
15 32 80 38 123 3 17 15 55 27 85 12 30 28 76 35 102 8 28 27 60 48 82 19 19
38 44 42 56 3 11 15 20 26 20 10 0 19 5 19 10 0 6 5 10 11 10 6 0 24 15 40 33
41 45 45 50 59 78 7 13 16 26 20 29 12 8 70 128 70 143 0 20 35 57 54 57 18 0
22 16 5 22 -7 2 -6 15 4 38 9 19 21 50 27 67 14 36 40 45 40 13 0 -11 5 -20
10 -20 6 0 10 12 10 27 0 30 17 133 30 178 20 73 22 112 4 129 -13 14 -15 27
-10 69 4 29 10 106 13 171 5 127 12 146 56 146 18 0 28 9 42 40 12 26 25 40
37 40 10 0 18 -4 18 -10 0 -5 5 -10 10 -10 21 0 59 -48 94 -119 20 -39 36 -77
36 -86 0 -9 9 -15 23 -15 12 0 29 -9 37 -20 8 -11 22 -20 31 -20 9 0 22 -13
29 -30 7 -16 16 -30 21 -30 4 0 11 -9 14 -20 3 -11 13 -20 21 -20 8 0 14 -4
14 -10 0 -6 38 -10 95 -10 57 0 95 -4 95 -10 0 -5 13 -10 29 -10 29 0 38 12
56 78 17 60 86 -23 70 -85 -11 -44 -7 -82 10 -99 8 -9 15 -27 15 -40 0 -29 16
-63 40 -84 9 -8 23 -26 30 -39 7 -14 17 -30 22 -35 4 -6 18 -22 29 -36 18 -22
20 -33 15 -87 -5 -50 -2 -71 14 -107 11 -25 29 -66 40 -91 11 -25 20 -52 20
-60 0 -8 4 -15 9 -15 5 0 13 -9 16 -20 3 -11 13 -20 21 -20 8 0 14 -7 14 -16
0 -9 8 -24 18 -33 28 -24 45 -60 53 -111 4 -25 19 -76 33 -115 14 -38 25 -78
26 -87 0 -9 6 -23 14 -30 7 -8 21 -29 31 -47 9 -19 27 -44 39 -57 32 -35 42
-48 56 -74 7 -13 21 -33 31 -44 77 -85 99 -106 113 -106 9 0 16 -4 16 -10 0
-5 9 -10 20 -10 11 0 20 -4 20 -10 0 -5 7 -10 15 -10 8 0 15 -4 15 -10 0 -5 6
-10 13 -10 6 0 23 -14 37 -31 53 -64 78 -89 89 -89 6 0 11 -4 11 -10 0 -5 6
-10 14 -10 8 0 17 -6 19 -12 4 -10 6 -10 6 0 1 14 41 17 41 2 0 -5 16 -10 35
-10 19 0 35 5 35 10 0 6 10 10 23 10 12 0 29 9 37 20 8 11 20 20 27 20 7 0 13
5 13 10 0 14 38 12 43 -2 3 -9 11 -6 24 10 11 12 26 22 32 22 28 0 58 48 75
120 9 41 21 89 26 105 9 32 26 282 22 326 -3 29 27 69 52 69 10 0 24 6 32 14
17 17 19 63 2 68 -16 6 -1 58 17 58 8 0 15 5 15 12 0 6 9 1 20 -12 11 -13 20
-27 20 -32 0 -4 6 -8 14 -8 8 0 17 -6 19 -12 4 -10 8 -9 16 2 30 43 37 50 50
50 18 0 50 -37 57 -67 4 -13 4 -42 0 -64 -5 -29 -1 -49 13 -77 11 -21 22 -55
26 -75 6 -33 11 -37 36 -37 16 0 29 5 29 10 0 6 20 10 45 10 25 0 45 -4 45
-10 0 -5 16 -10 35 -10 19 0 35 5 35 10 0 6 18 10 40 10 22 0 40 -4 40 -10 0
-5 25 -10 55 -10 30 0 55 5 55 10 0 6 11 10 25 10 14 0 25 5 25 10 0 6 49 10
126 10 l125 0 59 60 c32 33 64 60 69 60 6 0 11 5 11 10 0 6 14 10 30 10 17 0
30 5 30 10 0 6 7 10 15 10 8 0 15 5 15 10 0 6 7 10 15 10 8 0 15 5 15 10 0 6
16 10 35 10 19 0 35 5 35 10 0 6 9 10 20 10 11 0 20 5 20 10 0 6 7 10 15 10 8
0 15 5 15 10 0 6 12 10 26 10 16 0 37 12 54 30 15 17 32 30 37 30 8 0 80 144
119 238 9 23 20 42 24 42 15 0 30 54 30 109 0 52 -24 153 -52 221 -22 54 -37
109 -54 199 -17 93 -17 94 6 188 34 142 20 214 -56 289 -18 19 -36 34 -40 34
-3 0 -19 14 -34 30 -15 17 -33 30 -39 30 -6 0 -11 5 -11 10 0 6 -7 10 -15 10
-8 0 -15 5 -15 10 0 6 -16 10 -35 10 -19 0 -35 5 -35 10 0 6 -7 10 -15 10 -8
0 -15 5 -15 10 0 6 -6 10 -14 10 -8 0 -17 6 -19 13 -4 10 -6 10 -6 0 -1 -15
-31 -18 -31 -3 0 6 -7 10 -15 10 -8 0 -15 -4 -15 -10 0 -6 -32 -10 -75 -10
-43 0 -75 4 -75 10 0 6 -5 10 -11 10 -6 0 -24 14 -39 30 -15 17 -33 30 -39 30
-6 0 -11 5 -11 10 0 6 -8 10 -18 10 -10 0 -24 9 -32 20 -8 11 -20 20 -27 20
-7 0 -13 5 -13 10 0 6 -7 10 -15 10 -8 0 -15 5 -15 10 0 6 -13 10 -30 10 -16
0 -30 5 -30 10 0 6 -9 10 -20 10 -11 0 -20 5 -20 10 0 6 -5 10 -11 10 -15 0
-66 56 -74 81 -4 10 -11 19 -16 19 -5 0 -9 7 -9 15 0 16 -63 85 -77 85 -5 0
-15 9 -23 20 -8 11 -18 20 -23 20 -11 0 -67 59 -67 70 0 10 -56 70 -65 70 -4
0 -20 14 -35 30 -15 17 -33 30 -39 30 -6 0 -11 5 -11 10 0 6 -33 10 -80 10
-72 0 -84 3 -104 24 -28 27 -48 66 -64 121 -16 58 -45 316 -47 415 -1 68 -6
94 -24 129 -24 45 -44 71 -56 71 -4 0 -20 14 -35 30 -15 17 -35 30 -44 30 -9
0 -16 5 -16 10 0 6 -9 10 -20 10 -11 0 -20 5 -20 10 0 6 -11 10 -25 10 -14 0
-25 5 -25 10 0 6 -40 10 -99 10 -70 0 -101 4 -105 13 -5 10 -7 10 -12 0 -3 -8
-25 -13 -53 -13 -35 0 -50 5 -61 20 -8 11 -22 20 -32 20 -9 0 -20 9 -23 20 -3
11 -13 20 -21 20 -8 0 -14 5 -14 10 0 6 -20 10 -45 10 -43 0 -45 1 -45 28 0
30 -29 72 -49 72 -6 0 -11 5 -11 10 0 6 -9 10 -20 10 -11 0 -20 5 -20 10 0 6
-6 10 -13 10 -7 0 -19 9 -27 20 -8 11 -20 20 -27 20 -7 0 -13 5 -13 10 0 6 -7
10 -15 10 -8 0 -15 5 -15 10 0 6 -7 10 -15 10 -8 0 -15 5 -15 10 0 6 -43 10
-110 10 -67 0 -110 -4 -110 -10 0 -5 -20 -10 -45 -10 -25 0 -45 -4 -45 -10 0
-5 -11 -10 -25 -10 -14 0 -25 -4 -25 -10 0 -5 -14 -10 -31 -10 -23 0 -40 -10
-69 -40 -21 -22 -46 -40 -54 -40 -9 0 -16 -4 -16 -10 0 -5 -9 -10 -20 -10 -11
0 -20 -4 -20 -10 0 -5 -9 -10 -20 -10 -11 0 -20 -4 -20 -10 0 -5 -13 -10 -30
-10 -16 0 -30 -4 -30 -10 0 -5 -9 -10 -19 -10 -11 0 -22 -6 -24 -12 -4 -10 -6
-10 -6 0 -2 29 -71 -9 -71 -40 0 -4 -8 -8 -18 -8 -10 0 -24 -9 -32 -20 -8 -11
-20 -20 -27 -20 -7 0 -13 -4 -13 -10 0 -5 -9 -10 -20 -10 -11 0 -20 -4 -20
-10 0 -6 -32 -10 -75 -10 -43 0 -75 4 -75 10 0 6 -30 10 -70 10 -40 0 -70 -4
-70 -10 0 -5 -13 -10 -30 -10 -16 0 -30 5 -30 10 0 6 -9 10 -20 10 -11 0 -20
5 -20 10 0 6 -9 10 -20 10 -11 0 -20 5 -20 10 0 6 -7 10 -15 10 -8 0 -15 5
-15 10 0 6 -7 10 -15 10 -8 0 -15 5 -15 10 0 6 -7 10 -15 10 -8 0 -15 5 -15
10 0 6 -9 10 -20 10 -11 0 -20 5 -20 10 0 6 -6 10 -13 10 -7 0 -19 9 -27 21
-8 12 -27 34 -42 51 -15 16 -30 38 -33 49 -4 10 -15 19 -26 19 -10 0 -19 5
-19 10 0 6 -9 10 -20 10 -11 0 -20 5 -20 10 0 6 -5 10 -11 10 -24 0 -69 72
-69 110 0 21 -61 90 -80 90 -5 0 -10 5 -10 10 0 6 -7 10 -15 10 -8 0 -15 5
-15 10 0 6 -11 10 -23 10 -18 0 -28 10 -42 40 -10 22 -22 40 -27 40 -4 0 -8 7
-8 15 0 32 -23 65 -47 65 -12 0 -23 5 -23 10 0 6 -9 10 -20 10 -11 0 -20 5
-20 10 0 6 -6 10 -14 10 -8 0 -18 9 -21 20 -3 11 -12 26 -20 33 -7 7 -25 37
-40 66 -15 30 -36 64 -48 76 -12 12 -29 32 -37 44 -8 11 -20 21 -27 21 -7 0
-13 5 -13 10 0 6 -27 10 -60 10 -33 0 -60 4 -60 10 0 6 -7 10 -15 10 -8 0 -15
5 -15 10 0 6 -7 10 -15 10 -8 0 -15 5 -15 10 0 6 -10 10 -23 10 -12 0 -29 9
-37 20 -8 11 -19 20 -25 20 -6 0 -17 9 -25 20 -8 11 -18 20 -23 20 -11 0 -67
59 -67 71 0 5 -16 9 -35 9 -19 0 -35 4 -35 8 0 14 -36 52 -49 52 -6 0 -11 5
-11 10 0 6 -7 10 -15 10 -8 0 -15 5 -15 10 0 6 -9 10 -20 10 -11 0 -20 5 -20
10 0 6 -7 10 -16 10 -16 0 -74 55 -74 71 0 5 -6 9 -13 9 -7 0 -19 9 -27 20 -8
11 -22 20 -32 20 -10 0 -18 5 -18 10 0 6 -9 10 -20 10 -11 0 -20 5 -20 10 0 6
-9 10 -20 10 -11 0 -20 5 -20 10 0 6 -11 10 -25 10 -14 0 -25 5 -25 10 0 6
-25 10 -56 10 -59 0 -85 16 -99 61 -4 11 -10 19 -14 19 -4 0 -16 18 -26 40
-10 22 -22 40 -26 40 -4 0 -10 8 -14 19 -8 25 -40 61 -54 61 -6 0 -11 5 -11
10 0 6 -5 10 -11 10 -20 0 -69 70 -69 100 0 16 -47 60 -65 60 -8 0 -15 5 -15
10 0 6 -9 10 -20 10 -11 0 -20 5 -20 10 0 6 -7 10 -15 10 -8 0 -15 5 -15 10 0
6 -18 10 -40 10 -22 0 -40 5 -40 10 0 6 -9 10 -20 10 -11 0 -20 5 -20 10 0 6
-7 10 -16 10 -15 0 -47 31 -122 117 -78 91 -91 103 -112 103 -21 0 -57 32 -90
79 -8 12 -19 21 -25 21 -6 0 -17 9 -25 20 -8 11 -22 20 -32 20 -10 0 -18 5
-18 10 0 6 -13 10 -29 10 -16 0 -32 6 -35 13 -5 10 -7 10 -12 0 -3 -7 -21 -13
-40 -13 -19 0 -34 -4 -34 -10 0 -5 -7 -10 -15 -10 -8 0 -15 -4 -15 -10 0 -5
-7 -10 -15 -10 -8 0 -15 -4 -15 -10 0 -5 -7 -10 -15 -10 -8 0 -15 5 -15 10 0
6 -11 10 -25 10 -14 0 -25 5 -25 10 0 6 -5 10 -11 10 -6 0 -32 23 -59 50 -27
28 -54 50 -60 50 -18 0 -36 22 -65 80 -15 30 -40 66 -56 81 -23 22 -31 40 -39
95 -5 38 -10 72 -10 75 0 9 -36 49 -44 49 -9 0 -36 26 -36 34 0 3 11 6 25 6
14 0 25 5 25 10 0 6 8 10 18 10 21 0 47 51 57 114 4 22 33 93 66 158 32 65 59
124 59 133 0 8 16 30 35 49 19 20 35 40 35 46 0 14 -109 230 -123 245 -7 7
-19 22 -27 34 -8 11 -18 21 -23 21 -5 0 -26 18 -47 40 -21 22 -48 40 -59 40
-12 0 -21 5 -21 10 0 6 -9 10 -20 10 -11 0 -20 5 -20 10 0 6 -20 10 -45 10
-25 0 -45 5 -45 10 0 6 -20 10 -45 10 -25 0 -45 5 -45 10 0 6 -7 10 -15 10
-10 0 -16 16 -21 50 -4 32 -11 50 -20 50 -8 0 -14 4 -14 10 0 5 -11 20 -24 33
-14 14 -28 41 -31 61 -4 20 -11 36 -15 36 -11 0 -29 47 -39 105 -11 56 3 194
25 262 14 45 10 73 -11 73 -7 0 -16 6 -19 13 -5 10 -7 10 -12 0 -3 -7 -20 -13
-38 -13 -28 0 -35 6 -53 43 -19 40 -20 49 -9 123 6 45 18 88 26 96 8 9 22 25
30 37 8 11 20 21 27 21 7 0 13 5 13 10 0 6 9 10 20 10 22 0 23 3 20 81 -1 30
6 78 15 107 17 51 18 52 56 52 22 0 39 5 39 10 0 6 9 10 20 10 11 0 20 5 20
10 0 6 7 10 15 10 8 0 15 5 15 10 0 6 7 10 15 10 8 0 15 5 15 10 0 6 8 10 18
10 10 0 24 9 32 20 8 11 20 20 26 20 16 0 24 23 17 49 -8 32 5 71 25 71 10 0
24 9 32 20 8 11 20 20 27 20 7 0 13 5 13 10 0 6 6 10 14 10 8 0 18 9 21 20 3
11 10 20 15 20 14 0 23 39 25 105 0 34 8 74 18 92 9 18 17 39 17 47 0 8 22 37
49 65 l50 51 95 0 c86 0 95 2 101 20 3 11 10 20 14 20 4 0 16 18 26 40 16 35
17 47 6 93 -10 46 -9 58 10 107 12 30 28 74 36 98 9 23 22 42 29 42 8 0 14 5
14 10 0 6 7 10 15 10 8 0 15 5 15 10 0 6 7 10 15 10 8 0 15 7 15 15 0 17 48
117 60 125 4 3 17 25 30 49 19 38 20 49 11 87 -16 64 -14 79 19 115 43 49 46
52 52 74 4 11 16 45 27 75 12 30 21 65 21 77 0 20 -5 23 -39 23 -31 0 -41 4
-46 20 -3 11 -13 20 -22 20 -10 0 -13 6 -9 16 3 9 6 18 6 20 0 2 7 4 15 4 8 0
15 5 15 10 0 6 7 10 15 10 8 0 15 -4 15 -10 0 -5 15 -10 34 -10 30 0 34 4 40
33 12 60 48 167 56 167 5 0 12 9 15 20 5 15 15 20 41 20 19 0 34 5 34 10 0 20
52 9 77 -16 22 -22 26 -35 25 -75 0 -26 -6 -57 -12 -69 -17 -32 27 -70 80 -70
22 0 40 -4 40 -10 0 -5 11 -10 25 -10 14 0 25 5 25 10 0 6 9 10 20 10 11 0 20
5 20 10 0 6 11 10 25 10 14 0 25 5 25 10 0 6 9 10 20 10 24 0 101 74 124 118
9 17 16 51 16 77 0 34 4 45 16 45 13 0 15 -7 9 -42 l-7 -43 21 24 c11 13 21
32 21 42 0 9 4 19 10 21 5 2 17 51 27 111 14 87 20 107 34 107 10 0 22 14 29
33 6 17 17 46 24 62 8 17 17 45 21 64 7 32 44 81 62 81 5 0 15 9 23 20 8 11
20 20 27 20 7 0 13 5 13 10 0 6 9 10 20 10 11 0 20 5 20 10 0 6 5 10 11 10 16
0 64 55 79 90 10 25 18 30 46 30 19 0 34 5 34 10 0 6 7 10 15 10 8 0 15 5 15
10 0 6 5 10 11 10 16 0 44 34 59 70 7 17 16 30 20 30 4 0 15 18 25 40 17 38
20 40 62 40 37 0 49 6 78 35 19 19 35 40 35 46 0 6 8 19 19 28 10 9 31 40 46
70 15 30 33 61 41 68 15 15 19 32 29 106 5 39 3 47 -9 47 -9 0 -16 5 -16 10 0
6 -8 10 -18 10 -12 0 -25 14 -37 40 -10 22 -24 40 -32 40 -7 0 -13 7 -13 15 0
9 -11 38 -25 65 -14 27 -25 56 -25 64 0 8 -6 21 -14 28 -18 18 -61 104 -80
157 -12 37 -12 46 11 112 26 79 58 145 79 167 8 7 14 20 14 28 0 8 11 37 25
64 14 27 25 54 25 60 0 6 10 22 23 35 40 43 46 53 89 139 23 47 49 86 56 86
14 0 40 26 92 90 14 17 30 37 36 44 7 7 22 32 34 57 13 24 26 46 30 49 4 3 17
25 30 49 12 25 27 50 34 57 6 6 18 22 26 34 8 13 25 33 38 46 12 13 22 28 22
33 0 6 6 25 14 43 13 30 23 56 56 146 7 17 19 32 26 32 8 0 14 5 14 10 0 6 8
10 18 10 10 0 24 10 32 21 8 12 20 27 27 34 6 6 14 37 18 68 l7 57 38 0 c30 0
40 5 45 20 3 11 10 20 15 20 5 0 12 9 15 20 3 11 11 20 16 20 6 0 17 7 25 15
13 13 12 18 -10 40 -14 14 -26 35 -26 45 0 17 7 20 40 20 22 0 40 -4 40 -10 0
-5 6 -10 14 -10 9 0 16 -18 20 -50 5 -41 10 -50 26 -50 11 0 20 -4 20 -10 0
-5 7 -10 15 -10 8 0 15 -4 15 -10 0 -6 28 -10 64 -10 42 0 66 -4 70 -12 5 -10
7 -10 12 0 4 8 28 12 70 12 36 0 64 4 64 10 0 6 9 10 20 10 11 0 20 5 20 10 0
6 11 10 25 10 14 0 25 5 25 10 0 6 7 10 15 10 8 0 15 5 15 10 0 6 9 10 20 10
11 0 20 5 20 10 0 6 9 10 20 10 11 0 20 5 20 10 0 6 9 10 20 10 11 0 20 5 20
10 0 6 7 10 15 10 8 0 15 5 15 10 0 6 7 10 15 10 8 0 15 5 15 10 0 6 10 10 23
10 12 0 29 9 37 20 8 11 22 20 32 20 10 0 18 5 18 10 0 6 9 10 20 10 11 0 20
5 20 10 0 6 9 10 20 10 11 0 20 5 20 10 0 6 6 10 13 10 7 0 19 9 27 20 9 13
26 20 47 20 18 0 33 5 33 10 0 6 9 10 20 10 11 0 20 4 20 9 0 5 13 23 29 41
16 18 34 39 41 47 21 25 50 114 60 185 5 37 18 86 29 110 11 24 25 58 32 77 7
18 22 43 34 56 22 21 55 147 55 208 0 20 5 27 20 27 11 0 20 5 20 10 0 6 7 10
15 10 8 0 15 5 15 10 0 6 31 10 73 10 61 0 75 3 87 20 8 11 20 20 27 20 7 0
13 5 13 10 0 6 5 10 11 10 16 0 41 28 35 39 -9 14 4 41 20 41 22 0 38 79 35
175 -1 50 -4 98 -7 108 -4 14 1 17 29 17 23 0 37 6 41 16 9 23 8 24 -14 24
-11 0 -20 -4 -20 -10 0 -5 -11 -10 -24 -10 -13 0 -27 -6 -29 -12 -4 -10 -6
-10 -6 0 -1 8 -18 12 -51 12 -27 0 -50 5 -50 10 0 6 -6 10 -14 10 -23 0 -26
25 -8 82 11 36 15 82 14 144 -2 50 4 124 12 165 8 41 17 97 21 124 11 82 36
200 45 205 19 12 60 113 60 147 0 21 7 58 16 83 20 57 5 194 -17 159 -6 -9 -9
4 -9 38 0 35 5 57 17 68 10 10 12 19 6 23 -5 4 -10 30 -10 57 0 42 -9 100 -38
241 -3 11 -12 30 -22 41 -10 12 -25 31 -33 42 -8 12 -18 21 -23 21 -5 0 -22
14 -37 30 -15 17 -33 30 -39 30 -6 0 -11 4 -11 10 0 5 -11 20 -24 33 -34 34
-56 81 -56 117 0 38 -14 67 -50 100 -45 43 -91 272 -96 475 -2 93 -20 165 -41
165 -23 0 -24 44 -3 110 18 56 19 71 9 117 -10 41 -9 59 0 80 7 15 15 65 18
111 5 71 10 88 31 109 17 18 22 31 18 49 -4 13 -13 24 -21 24 -8 0 -15 5 -15
10 0 6 -6 10 -13 10 -14 0 -37 40 -37 65 0 8 -4 15 -9 15 -6 0 -13 20 -16 44
-7 44 3 75 32 104 19 19 16 45 -7 72 -24 27 -25 51 -5 105 8 22 14 66 15 98 0
43 4 57 15 57 24 0 39 77 36 189 -2 97 -16 153 -41 171 -4 3 -13 16 -20 29 -7
14 -17 30 -22 35 -40 49 -48 60 -48 68 0 4 -7 8 -15 8 -8 0 -15 4 -15 8 0 5
-8 18 -17 30 -10 11 -25 30 -33 41 -8 12 -24 21 -35 21 -16 0 -28 13 -46 52
-34 72 -70 108 -108 108 -17 0 -31 5 -31 10 0 6 -6 10 -13 10 -13 0 -77 119
-77 144 0 7 -9 23 -20 35 -10 13 -22 44 -25 69 -3 26 -9 56 -12 67 -3 11 -9
45 -13 75 -9 64 -41 153 -64 175 -9 9 -16 21 -16 26 0 5 -9 9 -20 9 -11 0 -20
5 -20 10 0 6 -5 10 -11 10 -15 0 -66 56 -74 81 -4 10 -12 19 -19 19 -20 0 -78
141 -100 240 -8 36 -21 90 -29 120 -8 30 -23 92 -32 138 -10 46 -27 92 -37
104 -10 12 -18 29 -18 38 0 9 -9 27 -20 40 -11 12 -22 31 -25 41 -4 11 -12 19
-18 19 -18 0 -21 155 -4 172 8 7 17 26 21 41 5 20 3 27 -9 27 -18 0 -18 2 -3
35 6 14 17 25 25 25 29 0 13 70 -38 173 -55 109 -63 151 -36 202 13 27 33 159
36 240 0 17 6 68 12 115 6 47 12 128 14 180 3 52 5 104 5 115 1 36 -13 89 -28
104 -10 11 -13 27 -8 58 4 29 0 58 -10 86 -9 23 -20 71 -24 107 -5 36 -15 94
-24 130 -18 78 -12 187 14 240 10 19 21 50 25 68 l7 32 -2381 0 -2381 0 0
-1283z"/>
<path fill="#ffffff" stroke="000000" stroke-width="0.01" d="M14687 17973 c-50 -117 -47 -203 8
-203 23 0 65 46 76 83 12 40 -8 137 -28 137 -7 0 -13 5 -13 10 0 25 -28 6 -43
-27z"/>
<path fill="#ffffff" stroke="000000" stroke-width="0.01" d="M14670 16960 c0 -5 -17 -10 -38 -10
-26 0 -42 -6 -52 -20 -10 -13 -16 -16 -21 -8 -11 17 -32 -69 -31 -120 1 -29
-7 -60 -23 -93 -20 -38 -27 -75 -35 -166 -6 -65 -17 -156 -24 -203 -16 -105
-8 -130 41 -130 36 0 52 11 73 50 16 30 24 40 77 95 40 42 113 172 126 225 4
14 7 91 8 170 2 145 -2 173 -37 207 -15 15 -64 17 -64 3z"/>
<path fill="#ffffff" stroke="000000" stroke-width="0.01" d="M14832 15606 c-20 -43 -14 -82 22 -154
18 -37 36 -79 39 -93 10 -38 41 -69 71 -69 14 0 26 -4 26 -10 0 -5 9 -10 19
-10 11 0 22 -6 24 -12 4 -10 6 -10 6 0 1 6 12 12 24 12 16 0 28 9 35 25 13 28
6 55 -14 55 -8 0 -14 5 -14 10 0 6 -6 10 -14 10 -9 0 -17 15 -21 40 -4 23 -19
53 -36 71 -33 35 -36 49 -13 49 11 0 14 6 9 23 -4 12 -9 30 -11 40 -4 14 -17
17 -69 17 -38 0 -65 5 -67 11 -2 6 -9 -1 -16 -15z"/>
</g>
</svg>
