<?xml version="1.0" standalone="no"?>
<!DOCTYPE svg PUBLIC "-//W3C//DTD SVG 20010904//EN"
 "http://www.w3.org/TR/2001/REC-SVG-20010904/DTD/svg10.dtd">
<svg version="1.0" xmlns="http://www.w3.org/2000/svg"
 width="3506.000000pt" height="3950.000000pt" viewBox="0 0 3506.000000 3950.000000"
 preserveAspectRatio="xMidYMid meet">
<metadata>
Created by potrace 1.15, written by Peter Selinger 2001-2017
</metadata>
<g transform="translate(0.000000,3950.000000) scale(0.100000,-0.100000)"
fill="#ffffff" stroke="000000" stroke-width="0.01">
<path fill="#ffffff" stroke="000000" stroke-width="0.01" d="M0 22355 c0 -11920 3 -17145 10 -17145
16 0 56 -43 75 -81 10 -18 24 -39 31 -47 8 -7 14 -17 14 -22 0 -5 7 -15 15
-24 12 -12 13 -20 3 -40 -6 -14 -14 -26 -18 -26 -4 0 -15 -18 -25 -39 -18 -42
-13 -81 11 -81 20 0 18 -7 -11 -35 -13 -14 -36 -25 -50 -25 -14 0 -25 -4 -25
-10 0 -5 -7 -10 -15 -10 -13 0 -15 -145 -15 -1246 0 -1333 -2 -1274 47 -1274
10 0 25 -9 33 -20 8 -11 21 -20 28 -20 7 0 31 -18 52 -40 21 -22 41 -40 45
-40 8 0 130 -128 221 -233 29 -33 76 -143 81 -190 3 -29 12 -64 19 -79 8 -15
14 -41 14 -58 0 -17 9 -49 20 -70 11 -22 23 -61 26 -87 3 -27 14 -68 24 -93
10 -25 24 -60 31 -78 13 -36 61 -92 78 -92 6 0 11 -4 11 -10 0 -5 7 -10 15
-10 8 0 15 -4 15 -10 0 -5 7 -10 15 -10 8 0 15 -4 15 -10 0 -5 9 -10 20 -10
11 0 20 -4 20 -10 0 -5 7 -10 15 -10 8 0 15 -4 15 -10 0 -5 9 -10 20 -10 11 0
20 -4 20 -10 0 -5 9 -10 20 -10 11 0 20 -4 20 -10 0 -5 7 -10 15 -10 8 0 15
-4 15 -10 0 -5 7 -10 15 -10 8 0 15 -4 15 -10 0 -5 7 -10 15 -10 8 0 15 -4 15
-10 0 -5 7 -10 15 -10 8 0 15 -4 15 -10 0 -5 9 -10 20 -10 11 0 20 -4 20 -10
0 -5 7 -10 15 -10 8 0 15 -4 15 -10 0 -5 5 -10 11 -10 13 0 69 -58 69 -71 0
-5 7 -9 15 -9 8 0 15 -4 15 -9 0 -5 22 -34 50 -63 80 -85 87 -94 103 -124 8
-16 18 -45 22 -64 8 -36 32 -91 45 -100 17 -12 30 -52 30 -94 0 -39 -5 -51
-37 -82 -28 -28 -40 -52 -50 -93 -16 -74 -43 -151 -53 -151 -4 0 -10 -7 -14
-15 -5 -13 290 -15 2620 -15 l2625 0 -16 30 c-21 40 -19 60 5 60 16 0 20 7 20
35 0 53 -50 145 -79 145 -6 0 -11 5 -11 10 0 19 -27 10 -38 -13 -6 -12 -11
-16 -11 -9 -1 6 -7 12 -15 12 -23 0 -39 56 -33 114 9 92 69 180 91 134 5 -11
7 -11 12 0 3 6 11 12 18 12 7 0 18 11 24 24 14 30 -2 96 -23 96 -18 0 -18 12
-5 61 10 36 40 79 55 79 14 0 41 38 59 82 10 24 24 58 32 76 8 18 14 39 14 47
0 8 11 25 24 38 35 35 48 65 51 117 2 32 19 77 55 150 29 58 56 107 60 110 4
3 15 21 25 40 10 19 21 37 25 40 4 3 20 29 34 59 26 50 27 56 16 103 -7 27 -9
67 -6 89 6 39 60 158 76 169 15 10 107 207 124 265 9 33 28 84 42 114 16 34
29 87 35 142 12 110 8 120 -104 233 -45 46 -89 93 -97 106 -8 12 -25 33 -37
46 -13 13 -23 33 -23 44 0 23 -21 50 -39 50 -6 0 -11 5 -11 10 0 6 -7 10 -15
10 -8 0 -15 5 -15 10 0 6 -12 10 -26 10 -24 0 -26 2 -20 34 4 21 1 50 -9 78
-9 23 -20 55 -25 70 -9 30 -53 78 -70 78 -5 0 -10 5 -10 10 0 6 -11 10 -25 10
-14 0 -25 5 -25 10 0 6 -6 10 -12 10 -7 0 -24 14 -38 31 -48 58 -179 189 -190
189 -5 0 -10 5 -10 10 0 6 -6 10 -13 10 -7 0 -19 9 -27 20 -8 11 -20 20 -27
20 -7 0 -13 5 -13 10 0 6 -6 10 -13 10 -7 0 -19 9 -27 20 -8 11 -20 20 -27 20
-7 0 -13 5 -13 10 0 6 -6 10 -13 10 -7 0 -19 9 -27 20 -8 11 -19 20 -25 20 -6
0 -17 9 -25 20 -8 11 -19 20 -25 20 -6 0 -17 9 -25 20 -8 11 -19 20 -25 20 -6
0 -17 9 -25 20 -8 11 -18 20 -23 20 -4 0 -30 23 -57 50 -27 28 -51 50 -55 50
-7 0 -171 167 -205 210 -14 17 -30 37 -36 44 -7 7 -21 31 -32 53 -18 34 -19
47 -11 77 13 46 4 76 -23 76 -27 0 -75 53 -87 95 -5 19 -21 46 -35 60 -14 14
-26 30 -26 35 0 6 -9 10 -20 10 -11 0 -20 5 -20 10 0 6 -9 10 -21 10 -22 0
-49 22 -49 39 0 6 -28 40 -62 75 -35 34 -70 73 -78 86 -8 12 -27 36 -42 52
-16 17 -28 37 -28 45 0 27 -31 78 -77 128 -13 13 -23 31 -23 39 0 8 -6 21 -14
28 -7 8 -16 35 -20 61 -4 26 -12 47 -17 47 -6 0 -8 8 -5 18 4 11 -2 28 -14 41
-10 13 -22 32 -25 42 -4 11 -10 19 -14 19 -5 0 -14 13 -21 30 -7 16 -19 30
-26 30 -8 0 -14 5 -14 10 0 6 -9 10 -20 10 -11 0 -20 5 -20 10 0 6 -8 10 -18
10 -16 0 -18 7 -14 60 3 47 1 60 -10 60 -7 0 -20 9 -28 21 -8 12 -27 35 -41
51 -15 17 -32 36 -38 44 -6 7 -11 28 -11 47 0 19 -8 43 -17 55 -41 49 -53 67
-53 80 0 16 -28 72 -46 89 -19 19 -34 79 -34 138 -1 28 -7 66 -14 85 -8 19
-23 59 -34 87 -11 29 -27 59 -34 67 -8 8 -21 28 -28 45 -7 17 -18 31 -25 31
-7 0 -18 14 -25 30 -7 17 -19 30 -28 30 -13 0 -50 34 -53 49 -8 48 -5 89 8
114 17 33 37 57 49 57 11 0 41 38 54 71 11 26 10 36 -9 78 -20 41 -21 53 -12
88 6 22 20 50 31 63 11 12 22 31 25 41 4 11 10 19 14 19 5 0 14 13 21 30 7 16
16 30 20 30 4 0 13 14 20 30 7 17 16 30 20 30 9 0 40 90 40 115 0 19 23 45 39
45 6 0 11 5 11 10 0 6 -6 10 -14 10 -20 0 -28 28 -15 52 16 30 6 166 -15 206
-18 35 -119 142 -134 142 -4 0 -14 9 -22 20 -8 11 -20 20 -27 20 -7 0 -13 5
-13 10 0 6 -5 10 -11 10 -6 0 -28 18 -49 40 -21 22 -43 40 -49 40 -6 0 -11 4
-11 8 0 5 -8 18 -18 30 -43 52 -52 68 -52 89 0 27 -20 73 -32 73 -4 0 -8 9 -8
20 0 11 -6 20 -14 20 -32 0 -37 104 -6 140 11 13 20 27 20 32 0 4 5 8 11 8 6
0 24 14 39 30 15 17 31 30 34 30 14 0 55 49 76 90 12 23 30 52 41 64 11 11 36
40 57 62 20 23 44 52 52 64 8 12 20 28 26 34 34 36 52 95 59 197 7 106 -5 175
-35 212 -5 7 -22 26 -37 43 -16 18 -35 42 -43 54 -8 12 -20 28 -26 34 -7 7
-22 32 -34 57 -31 59 -36 151 -16 264 31 172 22 256 -44 425 -66 169 -74 226
-60 425 7 94 14 173 16 176 2 3 -1 46 -7 95 -10 95 -33 186 -73 301 -17 47
-29 113 -36 190 -6 65 -18 137 -26 161 -8 23 -14 48 -14 55 0 23 -99 137 -119
137 -6 0 -11 4 -11 9 0 11 -95 111 -105 111 -4 0 -20 14 -35 30 -15 17 -32 30
-37 30 -4 0 -19 14 -33 31 -14 17 -35 41 -47 54 -13 13 -23 31 -23 38 0 8 -13
29 -30 47 -16 18 -30 35 -30 40 0 4 -8 16 -17 28 -10 11 -25 30 -33 42 -8 12
-27 36 -43 54 -42 48 -44 51 -66 94 l-21 41 22 46 22 45 -27 55 c-19 40 -27
71 -27 110 0 44 -3 55 -16 55 -13 0 -15 7 -9 37 5 21 8 47 9 58 0 28 20 45 52
45 24 0 26 2 20 31 -3 17 -6 35 -6 40 0 5 -9 9 -19 9 -12 0 -22 9 -26 23 -15
51 -28 77 -41 77 -8 0 -14 5 -14 10 0 6 -7 10 -15 10 -8 0 -15 5 -15 10 0 6
-16 10 -35 10 -19 0 -35 5 -35 10 0 6 -8 10 -17 10 -10 0 -29 14 -43 31 -14
16 -41 48 -60 69 -19 21 -46 53 -60 70 -14 17 -55 63 -92 101 -38 39 -68 74
-68 79 0 6 -7 10 -15 10 -8 0 -15 4 -15 9 0 11 -55 71 -65 71 -7 0 -86 82
-123 127 -12 15 -31 39 -42 52 -11 13 -20 27 -20 31 0 4 -9 18 -21 31 -15 18
-19 31 -14 54 4 16 9 54 10 83 2 29 7 57 10 62 3 5 -1 22 -8 37 -18 35 -15 86
6 107 8 9 19 16 22 16 4 0 20 14 35 30 15 17 32 30 37 30 5 0 15 9 23 20 8 11
22 20 32 20 10 0 18 5 18 10 0 6 9 10 20 10 11 0 20 5 20 10 0 6 9 10 20 10
11 0 20 5 20 10 0 6 9 10 20 10 11 0 20 5 20 10 0 6 11 10 25 10 14 0 25 5 25
10 0 6 11 10 25 10 14 0 25 5 25 10 0 6 11 10 25 10 14 0 25 5 25 10 0 6 9 10
20 10 11 0 20 5 20 10 0 6 9 10 20 10 11 0 20 5 20 10 0 6 9 10 20 10 11 0 20
5 20 10 0 6 9 10 20 10 11 0 20 5 20 10 0 6 9 10 20 10 11 0 20 5 20 10 0 6 9
10 20 10 11 0 20 5 20 10 0 6 7 10 15 10 8 0 15 5 15 10 0 6 7 10 15 10 8 0
15 5 15 10 0 6 7 10 15 10 8 0 15 5 15 10 0 6 6 10 13 10 7 0 19 9 27 20 8 11
18 20 23 20 5 0 22 14 37 30 15 17 33 30 39 30 6 0 11 5 11 10 0 6 5 10 11 10
6 0 28 18 49 40 21 22 43 40 49 40 6 0 11 5 11 10 0 6 7 10 15 10 8 0 15 5 15
10 0 6 7 10 15 10 8 0 15 5 15 10 0 6 9 10 20 10 11 0 20 5 20 10 0 6 7 10 15
10 8 0 15 5 15 10 0 6 7 10 15 10 8 0 15 5 15 10 0 6 5 10 11 10 6 0 24 14 39
30 29 32 55 39 63 18 4 -10 6 -10 6 0 1 8 17 12 46 12 43 0 46 2 51 30 7 31
19 39 27 18 4 -10 6 -10 6 0 1 6 8 12 16 12 8 0 15 5 15 10 0 6 5 10 11 10 6
0 24 14 39 30 15 17 32 30 37 30 5 0 15 9 23 20 8 11 19 20 25 20 6 0 17 10
25 21 8 12 29 37 47 54 17 18 41 52 53 76 24 46 43 69 58 69 5 0 17 18 27 40
10 22 22 40 26 40 4 0 10 8 14 19 8 25 40 61 54 61 6 0 11 4 11 8 0 8 9 20 49
68 5 6 17 26 26 44 9 18 27 43 39 56 32 35 42 48 56 74 7 14 18 30 24 36 6 6
18 22 26 34 13 20 33 45 58 76 26 31 33 54 21 76 -7 13 -17 26 -22 30 -7 4 -5
12 4 21 8 8 21 25 29 37 8 12 23 31 32 42 10 12 18 24 18 28 0 4 9 18 20 31
11 13 23 29 28 34 5 6 14 19 20 30 11 18 12 17 6 -7 -4 -18 -1 -33 9 -43 21
-20 30 -19 47 5 8 11 20 20 27 20 7 0 13 4 13 9 0 5 6 16 14 23 24 25 56 96
50 112 -8 21 -17 20 -34 -4 -8 -11 -18 -20 -23 -20 -15 0 -33 -24 -41 -53 -4
-18 -13 -27 -26 -27 -31 0 -28 9 30 77 5 7 17 28 27 47 9 20 23 36 31 36 11 0
13 8 8 30 -5 27 -3 30 18 30 24 0 41 24 30 41 -3 5 5 19 18 33 13 13 30 33 38
46 18 26 51 65 103 121 20 22 37 45 37 50 0 5 7 9 15 9 8 0 15 5 15 10 0 6 7
10 15 10 8 0 15 5 15 10 0 14 29 12 43 -3 7 -6 18 -30 25 -52 28 -85 55 -135
74 -135 10 0 18 5 18 10 0 14 39 12 54 -3 21 -21 36 -55 31 -69 -6 -16 26 -58
44 -58 7 0 9 -9 5 -25 -7 -27 20 -66 29 -42 9 24 44 -33 51 -83 5 -34 11 -50
21 -50 8 0 15 -9 15 -20 0 -11 -7 -20 -15 -20 -8 0 -15 -9 -15 -20 0 -14 7
-20 24 -20 17 0 27 -9 36 -30 7 -16 18 -30 25 -30 28 0 74 -155 56 -188 -14
-25 -14 -69 -1 -74 5 -2 11 -34 14 -73 4 -75 12 -105 28 -105 6 0 23 -13 38
-30 15 -16 33 -30 39 -30 6 0 14 -12 17 -27 8 -33 32 -82 48 -99 6 -6 18 -21
26 -33 8 -11 22 -21 32 -21 10 0 18 -4 18 -10 0 -5 6 -10 13 -10 7 0 19 -9 27
-20 8 -11 19 -20 25 -20 6 0 17 -9 25 -21 30 -43 48 -59 64 -59 9 0 16 -8 16
-20 0 -11 4 -20 9 -20 5 0 13 -10 16 -21 5 -15 10 -18 15 -9 9 15 20 -10 20
-46 0 -13 4 -24 9 -24 5 0 13 -9 16 -20 4 -13 15 -20 31 -20 31 0 45 -13 74
-70 22 -43 43 -70 55 -70 16 0 54 -50 49 -64 -3 -9 -1 -16 4 -16 6 0 14 -9 17
-20 6 -20 45 -29 45 -10 0 14 77 13 82 -2 2 -6 10 3 17 20 13 30 31 43 31 22
0 -5 4 -10 9 -10 6 0 13 21 17 47 7 47 22 73 43 73 6 0 11 5 11 10 0 6 9 10
19 10 11 0 23 9 26 20 7 23 20 26 29 8 5 -10 7 -10 12 0 7 14 54 16 54 2 0
-14 37 -12 43 3 4 9 6 9 6 0 1 -7 10 -13 21 -13 11 0 20 -4 20 -10 0 -5 16
-10 35 -10 19 0 35 -4 35 -10 0 -5 7 -10 15 -10 8 0 15 -4 15 -10 0 -5 7 -10
15 -10 8 0 15 -4 15 -10 0 -6 38 -10 95 -10 57 0 95 -4 95 -10 0 -5 11 -10 24
-10 13 0 27 -6 30 -12 2 -7 4 -4 4 7 -2 42 2 70 10 58 8 -12 7 -72 -3 -260 -6
-104 -5 -125 9 -138 14 -14 15 -65 10 -463 -2 -246 -7 -457 -9 -469 -6 -24 9
-32 19 -10 5 9 7 9 12 0 4 -9 39 -13 126 -13 l120 0 29 -31 c16 -17 29 -35 29
-40 0 -5 6 -9 13 -9 7 0 19 -9 27 -20 8 -11 20 -20 26 -20 6 0 17 -13 24 -30
7 -16 18 -30 26 -30 7 0 16 -9 19 -20 3 -11 12 -20 19 -20 7 0 21 -18 31 -40
10 -23 26 -49 34 -60 9 -10 23 -28 31 -40 25 -37 88 -100 99 -100 6 0 11 -4
11 -10 0 -5 5 -10 11 -10 13 0 89 -78 89 -91 0 -5 6 -9 14 -9 7 0 19 -13 26
-30 7 -16 16 -30 20 -30 4 0 13 -13 20 -30 7 -16 17 -30 22 -30 5 0 6 -9 3
-20 -5 -14 -2 -20 9 -20 11 0 16 -9 16 -30 0 -16 5 -30 10 -30 6 0 10 -18 10
-40 0 -22 5 -40 10 -40 6 0 10 -13 10 -30 0 -16 5 -30 10 -30 15 0 13 -117 -2
-122 -8 -3 -3 -14 15 -32 17 -17 27 -38 27 -56 0 -15 5 -30 10 -32 14 -4 41
-132 29 -136 -5 -2 -9 -12 -9 -23 0 -10 -4 -19 -10 -19 -5 0 -10 -9 -10 -20 0
-11 -4 -20 -10 -20 -5 0 -10 -9 -10 -20 0 -16 -7 -20 -30 -20 -20 0 -30 -5
-30 -15 0 -21 72 -93 78 -77 2 7 12 12 23 12 10 0 19 5 19 10 0 15 49 12 66
-4 8 -8 14 -26 14 -40 0 -14 5 -26 10 -26 15 0 12 -57 -2 -64 -10 -5 -10 -7 0
-12 6 -3 12 -14 12 -25 0 -10 5 -19 10 -19 6 0 10 -13 10 -30 0 -16 5 -30 10
-30 6 0 10 -9 10 -20 0 -13 7 -20 20 -20 13 0 20 -7 20 -20 0 -11 5 -20 10
-20 6 0 10 -18 10 -40 0 -33 3 -40 20 -40 16 0 20 -7 20 -30 0 -16 5 -30 10
-30 6 0 10 -13 10 -30 0 -16 5 -30 10 -30 6 0 10 -18 10 -40 0 -22 5 -40 10
-40 6 0 10 -9 10 -20 0 -12 -7 -20 -16 -20 -15 0 -44 -23 -44 -34 0 -3 7 -6
15 -6 25 0 65 -46 65 -75 0 -25 20 -37 20 -12 1 20 28 -34 46 -93 10 -30 20
-57 23 -60 3 -3 7 -34 8 -70 1 -36 7 -66 13 -68 5 -2 10 -12 10 -23 0 -12 7
-19 20 -19 13 0 20 -7 20 -20 0 -11 5 -20 10 -20 6 0 10 -22 10 -50 0 -27 5
-50 10 -50 6 0 10 -9 10 -19 0 -11 4 -21 10 -23 14 -5 47 -99 55 -160 4 -29
13 -65 21 -79 7 -14 10 -36 7 -47 -7 -30 5 -72 21 -72 15 0 26 -43 26 -105 0
-51 8 -75 24 -75 11 0 30 -35 80 -153 9 -21 16 -60 16 -88 0 -48 2 -53 60
-109 33 -32 60 -64 60 -70 0 -15 25 -40 39 -40 14 0 181 -166 181 -180 0 -14
106 -120 120 -120 14 0 80 -66 80 -80 0 -15 25 -40 40 -40 6 0 31 -20 55 -45
36 -36 45 -51 45 -80 0 -32 2 -35 30 -35 27 0 30 -3 30 -30 0 -25 4 -30 25
-30 19 0 63 -38 185 -160 88 -88 164 -160 170 -160 14 0 160 -147 160 -160 0
-16 47 -60 65 -60 22 0 19 33 -5 50 -11 8 -20 25 -20 38 0 28 -42 72 -70 72
-21 0 -310 280 -310 300 0 6 -90 100 -200 210 -110 110 -200 206 -200 215 0 8
-4 15 -10 15 -5 0 -10 11 -10 26 0 18 -18 43 -62 86 -45 44 -58 62 -48 68 11
7 10 11 -3 24 -17 18 -47 21 -47 6 0 -5 -4 -10 -10 -10 -5 0 -10 14 -10 30 0
30 -15 41 -23 18 -2 -8 -15 -1 -34 20 -17 17 -36 32 -43 32 -16 0 -40 25 -40
42 0 8 -9 20 -20 28 -11 8 -20 21 -20 30 0 9 -9 22 -20 30 -12 8 -20 26 -20
42 0 15 -4 28 -10 28 -6 0 -10 26 -10 59 0 38 -5 61 -12 65 -10 5 -10 7 -1 12
15 7 17 44 3 44 -5 0 -10 9 -10 20 0 11 -4 20 -10 20 -5 0 -10 14 -10 30 0 17
-4 30 -10 30 -5 0 -10 9 -10 20 0 11 -4 20 -10 20 -5 0 -10 14 -10 30 0 17 -4
30 -10 30 -5 0 -10 8 -10 18 0 10 -9 24 -20 32 -12 8 -20 26 -20 42 0 15 -4
28 -10 28 -5 0 -10 18 -10 40 0 22 -4 40 -10 40 -5 0 -10 9 -10 20 0 11 -4 20
-10 20 -5 0 -10 14 -10 30 0 17 -4 30 -10 30 -5 0 -10 14 -10 30 0 17 -4 30
-10 30 -5 0 -10 23 -10 50 0 28 -4 50 -10 50 -5 0 -10 14 -10 30 0 17 -4 30
-10 30 -5 0 -10 18 -10 40 0 22 -4 40 -10 40 -5 0 -10 23 -10 50 0 28 -4 50
-10 50 -5 0 -10 18 -10 40 0 22 -4 40 -10 40 -5 0 -10 13 -10 28 0 16 -8 34
-20 42 -11 8 -20 22 -20 32 0 10 -4 18 -10 18 -5 0 -10 9 -10 19 0 11 -6 22
-12 24 -10 4 -9 8 2 16 13 9 13 12 1 20 -11 7 -6 16 22 45 33 33 41 36 92 36
l55 0 0 40 c0 38 -2 40 -30 40 -16 0 -30 5 -30 10 0 15 -107 13 -114 -2 -5
-10 -7 -10 -12 0 -3 6 -12 12 -20 12 -8 0 -14 5 -14 10 0 6 -7 10 -16 10 -20
0 -44 24 -44 44 0 9 -4 16 -10 16 -5 0 -10 18 -10 40 0 22 -4 40 -10 40 -5 0
-10 14 -10 30 0 17 -4 30 -10 30 -5 0 -10 14 -10 30 0 17 -4 30 -10 30 -5 0
-10 9 -10 20 0 11 -4 20 -10 20 -5 0 -10 14 -10 30 0 17 -4 30 -10 30 -5 0
-10 14 -10 30 0 17 -4 30 -10 30 -5 0 -10 14 -10 30 0 17 -4 30 -10 30 -5 0
-10 14 -10 30 0 17 5 30 10 30 6 0 10 23 10 50 0 28 -4 50 -10 50 -5 0 -10 8
-10 18 0 10 -9 24 -20 32 -11 8 -20 26 -20 41 0 15 -6 30 -12 32 -10 4 -9 8 2
17 11 9 12 13 3 17 -8 3 -13 24 -13 53 0 29 -5 51 -12 54 -10 5 -10 7 0 12 7
4 12 27 12 65 0 33 4 59 10 59 6 0 10 28 10 65 0 37 6 78 14 93 8 15 12 44 11
65 -2 20 1 37 6 37 5 0 9 32 9 70 0 40 -4 70 -10 70 -5 0 -10 9 -10 20 0 11 3
20 8 20 4 0 8 23 9 50 0 28 -2 50 -7 50 -11 0 -20 -54 -20 -121 0 -52 -2 -59
-20 -59 -13 0 -20 -7 -20 -20 0 -16 -7 -20 -35 -20 -19 0 -35 5 -35 10 0 6
-18 10 -40 10 -22 0 -40 5 -40 10 0 6 -16 10 -35 10 -30 0 -45 10 -100 65 -36
35 -65 71 -65 80 0 8 -9 15 -20 15 -11 0 -20 5 -20 10 0 6 -11 10 -24 10 -17
0 -27 9 -36 30 -7 16 -18 30 -26 30 -7 0 -16 9 -19 20 -3 11 -10 20 -14 20 -4
0 -13 11 -19 25 -7 14 -21 36 -32 48 -60 65 -80 90 -80 98 0 5 -5 9 -11 9 -12
0 -69 57 -69 70 0 4 -8 16 -17 28 -10 11 -25 29 -33 41 -10 15 -16 17 -22 8
-5 -8 -8 -4 -8 10 0 12 -21 44 -47 72 -120 126 -119 124 -109 255 4 50 7 100
6 111 -6 71 -4 725 3 725 4 0 7 9 7 20 0 11 7 20 15 20 8 0 15 5 15 10 0 6 7
10 15 10 8 0 15 5 15 10 0 6 20 10 44 10 48 0 64 19 51 60 -6 20 -45 29 -45
10 0 -5 -18 -10 -39 -10 -22 0 -42 -5 -44 -12 -4 -10 -7 -10 -14 0 -8 10 -8
79 -3 265 0 4 7 7 16 7 8 0 23 7 31 16 13 13 14 17 3 24 -8 5 -10 17 -7 30 3
13 0 29 -9 37 -8 8 -14 29 -14 48 0 18 -3 40 -6 49 -5 13 2 16 41 16 42 0 46
2 40 20 -4 12 -4 39 0 60 6 34 11 40 31 40 l24 0 0 -120 c0 -112 1 -120 19
-120 11 0 21 -6 24 -12 8 -24 18 0 24 56 5 45 9 56 23 56 22 0 30 -20 30 -72
0 -38 17 -68 39 -68 6 0 11 -5 11 -12 0 -6 9 -1 19 11 14 16 21 18 24 9 4 -10
8 -10 16 2 10 13 12 13 21 0 6 -10 10 -11 10 -2 0 8 16 12 46 12 63 0 74 15
74 94 0 52 3 66 15 66 16 0 21 -36 6 -42 -18 -6 0 -58 20 -58 11 0 19 5 19 10
0 6 14 10 30 10 17 0 30 5 30 10 0 6 9 10 20 10 21 0 25 15 21 75 -1 22 1 26
8 16 8 -12 12 -12 25 2 9 8 16 24 17 34 0 10 3 13 6 6 7 -18 41 -16 61 4 12
12 13 18 4 21 -17 5 -15 22 3 22 8 0 15 5 15 10 0 6 7 10 16 10 9 0 25 10 35
22 11 11 22 18 26 14 4 -4 1 -11 -6 -15 -11 -7 -10 -14 3 -37 14 -27 15 -27
16 -6 0 12 6 22 14 22 8 0 17 6 19 13 4 9 7 9 14 0 7 -9 12 -8 23 7 8 11 22
20 32 20 17 0 18 -15 14 -223 -4 -216 -8 -257 -27 -257 -5 0 -9 -82 -8 -187 0
-142 4 -194 15 -215 11 -21 12 -33 4 -47 -11 -22 -13 -71 -4 -95 3 -9 15 -16
25 -16 10 0 19 -4 19 -10 0 -5 -7 -10 -15 -10 -11 0 -15 -11 -15 -39 0 -22 -5
-41 -12 -43 -8 -3 -11 -39 -11 -121 1 -89 -2 -121 -13 -132 -12 -11 -14 -65
-13 -309 2 -276 3 -296 20 -296 9 0 19 6 22 13 3 8 12 4 26 -12 12 -14 19 -31
16 -39 -3 -7 -5 -24 -5 -37 0 -12 -14 -37 -30 -55 -32 -34 -40 -70 -16 -70 8
0 17 -6 20 -12 5 -10 7 -10 12 0 3 6 12 12 19 12 8 0 17 9 20 20 3 11 15 20
25 20 10 0 22 9 25 20 3 11 10 20 15 20 5 0 12 9 15 20 3 11 14 20 23 20 10 0
24 9 32 21 8 11 23 30 32 41 29 34 35 157 12 263 -4 17 -8 73 -10 125 -1 52
-6 112 -9 132 -5 25 -3 38 3 38 6 0 15 15 20 32 6 18 13 41 17 51 6 13 2 17
-18 17 -24 0 -45 26 -31 39 4 3 9 0 11 -7 3 -6 18 -12 34 -12 16 0 29 -4 29
-9 0 -11 75 -91 86 -91 3 0 15 -9 24 -20 18 -21 18 -20 18 27 0 26 -5 57 -10
67 -14 26 -75 86 -88 86 -5 0 -10 4 -10 8 0 8 -12 25 -51 70 -22 26 -28 74
-19 154 6 51 6 87 0 98 -11 20 -4 50 11 50 5 0 9 -5 9 -12 0 -6 3 -9 6 -6 3 4
-1 19 -9 35 -17 33 -21 305 -7 393 7 41 6 71 -6 120 -8 36 -16 75 -16 88 0 12
-6 22 -14 22 -8 0 -14 5 -14 10 0 6 11 10 25 10 27 0 30 9 16 57 -6 22 -5 44
5 73 17 50 35 70 62 70 11 0 23 6 25 13 4 9 6 9 6 0 1 -17 88 -17 94 0 4 9 6
9 6 0 1 -16 171 -19 171 -3 0 6 -4 10 -10 10 -5 0 -7 14 -4 33 4 24 3 28 -5
17 -10 -13 -11 -13 -11 0 0 13 -1 13 -10 0 -9 -13 -11 -13 -20 0 -9 13 -10 13
-10 0 0 -13 -1 -13 -10 0 -6 10 -10 11 -10 3 0 -17 -27 -17 -33 0 -4 9 -6 9
-6 0 -1 -15 -41 -18 -41 -3 0 15 -127 13 -132 -2 -2 -6 -10 3 -17 20 -8 18
-17 32 -22 32 -5 0 -9 9 -9 20 0 11 5 20 10 20 6 0 10 14 10 30 0 20 5 30 15
30 8 0 14 8 13 18 -5 34 14 102 27 102 7 0 16 -6 18 -12 3 -7 3 3 0 23 -3 22
1 47 11 66 8 17 18 60 22 97 6 61 17 83 26 54 2 -6 5 27 6 73 3 98 10 129 23
108 7 -11 9 -9 7 6 -3 43 3 65 17 65 8 0 15 5 15 10 0 6 -4 10 -10 10 -14 0
-12 16 4 33 8 8 12 24 9 40 -4 20 -1 27 11 27 15 0 23 43 18 103 -1 9 2 17 7
17 5 0 12 15 16 33 4 17 9 26 12 20 2 -7 14 -13 25 -13 14 0 18 5 14 16 -3 9
-6 22 -6 29 0 8 -7 21 -16 30 -12 11 -15 26 -11 51 3 18 2 34 -4 34 -5 0 -9 5
-9 10 0 6 12 10 26 10 21 0 25 3 18 18 -4 9 -8 45 -7 79 0 35 -3 63 -8 63 -13
0 -11 38 2 42 14 5 0 38 -17 38 -8 0 -14 5 -14 10 0 6 5 10 10 10 6 0 10 9 10
20 0 11 5 20 10 20 6 0 10 -6 10 -12 0 -20 20 14 20 35 0 9 -7 17 -15 17 -8 0
-15 5 -15 10 0 6 11 10 25 10 28 0 35 29 12 52 -8 7 -17 27 -21 43 -14 60 -28
85 -49 85 -11 0 -28 10 -39 22 -16 19 -21 20 -28 8 -7 -10 -10 -11 -10 -2 0 7
-15 12 -41 12 l-41 0 7 40 c6 38 5 40 -18 40 -26 0 -45 29 -27 40 6 4 12 22
13 41 1 19 6 37 11 41 20 14 -23 38 -69 38 -27 0 -52 6 -61 14 -20 20 -18 26
11 26 14 0 25 5 25 10 0 6 -4 10 -9 10 -5 0 -13 9 -16 20 -3 11 -11 20 -17 20
-12 0 -48 39 -48 52 0 4 -20 8 -45 8 -25 0 -45 5 -45 10 0 6 -7 10 -15 10 -8
0 -15 5 -15 10 0 6 5 10 11 10 6 0 17 7 25 15 14 13 14 17 0 30 -8 8 -20 15
-27 15 -12 0 -49 38 -49 50 0 14 -38 50 -53 50 -9 0 -19 9 -22 20 -5 17 -15
20 -67 20 -54 0 -63 3 -88 30 -15 17 -32 30 -37 30 -5 0 -15 9 -23 20 -8 11
-18 20 -23 20 -8 0 -77 66 -77 75 0 3 9 5 19 5 10 0 22 7 25 16 9 23 7 31 -3
15 -7 -11 -10 -9 -16 8 -5 18 -14 21 -60 21 -56 0 -65 8 -65 56 0 13 -4 24
-10 24 -5 0 -10 10 -11 23 0 12 -3 16 -6 10 -7 -19 -27 -16 -43 7 -8 11 -22
20 -32 20 -10 0 -18 5 -18 10 0 6 -18 10 -40 10 -38 0 -40 2 -40 29 0 16 7 36
15 45 23 22 19 26 -25 26 -22 0 -40 5 -40 10 0 6 -16 10 -36 10 -31 0 -64 18
-64 34 0 3 20 6 45 6 25 0 45 5 45 10 0 6 -7 10 -15 10 -8 0 -15 5 -15 10 0 6
-7 10 -16 10 -16 0 -74 55 -74 71 0 5 -6 9 -14 9 -8 0 -18 9 -21 20 -3 11 -11
20 -17 20 -5 0 -8 7 -4 15 9 25 -5 45 -31 45 -20 0 -23 4 -18 20 5 16 2 20
-19 20 -20 0 -26 5 -27 23 0 12 -3 16 -6 10 -13 -35 -63 0 -63 44 0 22 -2 25
-10 13 -5 -8 -7 -24 -5 -35 3 -11 2 -14 -1 -7 -3 6 -11 12 -19 12 -13 0 -25
42 -25 89 0 14 -5 33 -11 41 -8 11 -9 4 -6 -27 5 -38 4 -41 -10 -27 -9 8 -22
32 -29 52 -10 27 -13 31 -14 15 0 -27 -6 -29 -27 -7 -13 12 -14 17 -3 24 9 6
10 12 1 26 -6 11 -11 13 -11 7 0 -18 -27 -16 -34 3 -3 9 -6 28 -6 44 0 39 -9
60 -26 60 -8 0 -17 14 -21 31 -4 22 -8 27 -14 17 -5 -7 -6 -21 -3 -30 4 -12 0
-18 -11 -18 -27 0 -45 26 -45 64 0 29 -4 36 -20 36 -11 0 -20 4 -20 8 0 14
-36 52 -49 52 -6 0 -11 9 -11 20 0 13 -7 20 -20 20 -15 0 -22 9 -27 31 -6 30
-6 31 -18 10 -11 -21 -12 -20 -28 14 -9 20 -17 48 -17 63 0 22 -2 24 -11 12
-7 -10 -12 -11 -15 -3 -11 26 -42 54 -46 41 -7 -19 -78 58 -78 84 0 13 -5 30
-10 38 -9 13 -11 13 -21 0 -9 -13 -10 -12 -5 3 6 19 -14 47 -33 47 -6 0 -11 5
-11 10 0 6 -9 10 -20 10 -11 0 -20 -5 -20 -12 0 -6 -9 -1 -20 12 -11 13 -20
28 -20 34 0 6 -4 4 -10 -4 -7 -12 -12 -10 -29 9 -12 13 -21 29 -21 35 0 6 -4
4 -10 -4 -7 -12 -12 -11 -28 8 -11 12 -27 22 -36 22 -9 0 -16 5 -16 10 0 6 -9
10 -20 10 -11 0 -20 5 -20 10 0 6 -7 10 -15 10 -8 0 -15 5 -15 10 0 6 -9 10
-20 10 -11 0 -20 5 -20 10 0 6 -9 10 -20 10 -11 0 -20 6 -20 13 0 8 -4 7 -10
-3 -6 -10 -10 -11 -10 -2 0 7 -14 12 -34 12 -19 0 -37 6 -39 13 -4 9 -6 9 -6
0 -1 -7 -10 -13 -21 -13 -11 0 -20 -4 -20 -10 0 -5 -7 -10 -15 -10 -8 0 -15
-4 -15 -10 0 -5 -6 -10 -14 -10 -11 0 -13 9 -9 34 9 58 -3 86 -37 86 -24 0
-30 -4 -30 -22 0 -19 -2 -20 -11 -8 -9 13 -10 12 -5 -2 3 -10 9 -25 12 -33 4
-10 0 -15 -10 -15 -9 0 -16 5 -16 10 0 6 -9 10 -20 10 -11 0 -20 5 -20 10 0 6
-6 10 -14 10 -19 0 -24 18 -19 56 3 17 0 41 -7 53 -6 13 -11 58 -10 104 0 45
1 132 0 192 0 61 0 152 0 202 1 103 -4 133 -26 133 -10 0 -14 -12 -14 -42 2
-205 -12 -631 -20 -661 -10 -35 -13 -37 -51 -37 -22 0 -46 6 -52 13 -13 12
-18 187 -6 187 3 0 7 97 8 216 1 119 5 222 8 230 4 11 -8 14 -61 14 -37 0 -66
-4 -66 -10 0 -5 7 -10 16 -10 9 0 14 -6 11 -13 -3 -8 -9 -152 -13 -320 l-7
-307 -53 0 c-30 0 -54 5 -54 10 0 6 -7 10 -15 10 -8 0 -15 8 -16 18 0 9 -2 50
-4 90 -2 39 0 72 4 72 3 0 7 137 9 305 3 322 1 335 -42 335 -24 0 -29 -40 -19
-140 5 -54 5 -125 -1 -178 -5 -48 -8 -122 -8 -164 1 -43 -3 -78 -9 -78 -5 0
-9 -13 -9 -30 0 -23 -4 -30 -20 -30 -11 0 -20 5 -20 10 0 6 -9 10 -20 10 -11
0 -20 5 -20 10 0 6 -9 10 -20 10 -11 0 -20 5 -20 10 0 6 -13 10 -30 10 -17 0
-30 5 -30 13 0 8 -4 7 -10 -3 -9 -13 -11 -13 -20 0 -6 10 -10 11 -10 3 0 -17
-27 -17 -33 0 -4 9 -6 9 -6 0 -1 -15 -61 -18 -61 -3 0 6 -11 10 -24 10 -13 0
-27 6 -30 13 -5 10 -7 10 -12 0 -7 -15 -54 -17 -54 -3 0 6 -7 10 -15 10 -8 0
-15 -4 -15 -10 0 -5 -4 -10 -10 -10 -5 0 -10 9 -10 20 0 11 -7 20 -15 20 -8 0
-15 -9 -15 -20 0 -11 -4 -20 -10 -20 -5 0 -10 5 -10 10 0 6 -9 10 -20 10 -11
0 -20 6 -20 13 0 8 -4 7 -11 -3 -8 -11 -12 -12 -16 -2 -2 6 -11 12 -19 12 -8
0 -14 5 -14 10 0 6 -6 10 -14 10 -8 0 -17 6 -19 13 -4 10 -6 10 -6 0 -1 -15
-61 -18 -61 -3 0 6 -13 10 -29 10 -16 0 -32 6 -34 13 -4 9 -8 8 -17 -3 -9 -11
-13 -12 -17 -2 -2 6 -20 12 -39 12 -19 0 -34 5 -34 10 0 6 -11 10 -25 10 -18
0 -25 5 -25 20 0 14 -7 20 -24 20 -13 0 -26 -6 -29 -12 -2 -8 -15 -1 -34 20
-20 20 -41 32 -57 32 -14 0 -26 5 -26 10 0 6 -13 10 -30 10 -27 0 -29 2 -23
30 5 28 4 30 -26 30 -17 0 -31 5 -31 10 0 6 -13 10 -29 10 -16 0 -32 6 -34 13
-4 9 -6 9 -6 0 -1 -20 -19 -15 -26 7 -4 13 -15 20 -31 20 -13 0 -24 5 -24 10
0 6 -7 10 -15 10 -8 0 -15 5 -15 10 0 6 -8 10 -18 10 -10 0 -24 9 -32 20 -8
11 -20 20 -27 20 -6 0 -15 9 -18 20 -4 13 -15 20 -31 20 -13 0 -24 5 -24 10 0
6 -7 10 -15 10 -8 0 -15 5 -15 10 0 6 -9 10 -20 10 -11 0 -20 5 -20 10 0 6 -9
10 -20 10 -11 0 -20 5 -20 10 0 6 -6 10 -13 10 -7 0 -19 9 -27 20 -8 11 -22
20 -32 20 -10 0 -18 5 -18 10 0 6 -7 10 -16 10 -18 0 -44 23 -44 40 0 14 -25
40 -39 40 -6 0 -11 5 -11 10 0 6 -25 10 -55 10 -30 0 -55 4 -55 8 0 13 -36 52
-46 52 -5 0 -16 9 -24 20 -8 11 -20 20 -27 20 -7 0 -13 5 -13 10 0 6 -7 10
-15 10 -8 0 -15 5 -15 10 0 6 -6 10 -14 10 -8 0 -18 9 -21 20 -3 11 -11 20
-17 20 -5 0 -23 14 -38 30 -15 17 -32 30 -37 30 -5 0 -15 9 -23 20 -8 11 -20
20 -27 20 -7 0 -13 5 -13 10 0 6 -5 10 -11 10 -6 0 -24 14 -39 30 -15 17 -35
30 -44 30 -9 0 -16 5 -16 10 0 6 -6 10 -14 10 -7 0 -19 14 -26 30 -15 36 -63
90 -80 90 -7 0 -25 14 -40 30 -15 17 -33 30 -39 30 -6 0 -11 4 -11 9 0 15 -57
71 -72 71 -7 0 -20 9 -28 21 -28 39 -47 59 -58 59 -6 0 -14 9 -17 20 -3 11
-14 20 -23 20 -10 0 -24 9 -32 20 -8 11 -20 20 -27 20 -7 0 -13 7 -13 16 0 18
-23 44 -39 44 -6 0 -11 5 -11 10 0 6 -6 10 -13 10 -7 0 -19 9 -27 20 -8 11
-22 20 -32 20 -13 0 -18 8 -18 28 0 16 -9 39 -19 51 -10 12 -24 35 -31 51 -8
19 -20 30 -33 30 -18 0 -57 34 -57 50 0 5 -13 22 -30 40 -16 18 -30 35 -30 40
0 12 -37 50 -49 50 -6 0 -11 4 -11 9 0 5 -12 23 -27 39 -47 51 -63 75 -63 93
0 19 -33 59 -49 59 -6 0 -11 5 -11 10 0 6 -6 10 -13 10 -7 0 -29 32 -48 71
-19 40 -42 81 -51 93 -10 11 -28 34 -40 49 -13 15 -36 42 -51 59 -21 23 -27
39 -24 57 6 29 -5 54 -39 88 -13 13 -28 41 -34 63 -6 24 -17 40 -25 40 -8 0
-15 5 -15 10 0 6 -5 10 -10 10 -11 0 -60 45 -60 55 0 3 5 5 11 5 15 0 39 26
39 44 0 8 -6 21 -14 28 -28 29 -47 81 -56 156 -5 42 -14 93 -20 112 -13 44
-13 120 0 120 6 0 10 5 10 10 0 6 -9 10 -20 10 -11 0 -20 5 -20 10 0 6 -7 10
-16 10 -8 0 -21 6 -28 13 -19 18 -46 73 -46 92 0 8 -9 15 -19 15 -11 0 -23 9
-26 20 -3 11 -13 20 -21 20 -8 0 -14 9 -14 19 0 10 -13 32 -28 49 -15 16 -36
48 -47 71 -14 31 -24 41 -42 41 -12 0 -23 5 -23 10 0 6 -7 10 -15 10 -8 0 -15
5 -15 10 0 6 -9 10 -20 10 -15 0 -22 9 -27 30 -3 17 -10 30 -16 30 -14 0 -47
40 -47 57 0 7 -15 29 -32 47 -39 40 -63 73 -62 86 1 6 2 19 3 30 0 11 8 20 16
20 9 0 15 10 15 26 0 29 21 54 44 54 9 0 16 5 16 10 0 6 11 10 24 10 18 0 25
7 29 28 3 15 15 38 26 51 12 13 21 28 21 33 0 4 16 8 35 8 19 0 35 5 35 10 0
6 25 10 55 10 30 0 55 5 55 10 0 6 9 10 20 10 11 0 20 4 20 8 0 5 8 19 19 30
15 19 29 22 87 22 58 0 72 3 84 20 8 12 26 20 42 20 15 0 28 5 28 10 0 6 18
10 40 10 36 0 40 2 40 25 0 14 11 37 25 51 14 14 25 29 25 33 0 15 37 51 54
51 9 0 16 5 16 10 0 6 7 10 15 10 8 0 15 4 15 9 0 19 79 91 99 91 12 0 21 5
21 10 0 6 7 10 15 10 8 0 15 4 15 8 0 11 35 52 44 52 18 0 58 53 53 71 -3 11
-1 36 5 56 l10 37 15 -29 c21 -41 21 -41 42 -17 10 12 22 22 26 22 9 0 45 40
45 50 0 12 37 50 49 50 6 0 11 9 11 20 0 13 7 20 19 20 11 0 23 9 26 20 3 11
12 20 20 20 8 0 17 9 20 20 4 13 15 20 30 20 13 0 26 6 28 13 4 9 8 8 16 -3 6
-8 11 -10 11 -4 0 6 9 21 19 33 14 16 21 18 24 9 4 -10 6 -10 6 0 1 6 8 12 16
12 8 0 15 5 15 10 0 6 7 10 15 10 8 0 15 5 15 10 0 6 7 10 15 10 19 0 125 104
125 123 0 7 9 19 20 27 11 8 32 53 51 112 17 54 36 98 43 98 13 0 39 121 30
143 -3 8 1 21 9 29 30 29 65 113 60 141 -4 20 -1 27 11 27 9 0 16 5 16 10 0
17 25 11 40 -10 10 -14 26 -20 53 -20 43 0 70 -20 61 -44 -4 -10 -1 -16 9 -16
9 0 19 -9 22 -20 7 -21 25 -28 25 -10 0 6 -4 10 -10 10 -5 0 -10 5 -10 10 0 6
11 10 25 10 29 0 31 -6 10 -26 -17 -18 -20 -34 -5 -34 6 0 10 5 10 10 0 6 14
10 30 10 23 0 30 -4 30 -20 0 -11 4 -20 8 -20 5 0 17 -18 27 -40 10 -22 24
-40 31 -40 7 0 16 -9 19 -20 3 -11 11 -20 17 -20 5 0 7 -7 4 -16 -7 -18 17
-68 49 -100 13 -13 26 -33 30 -44 3 -11 13 -20 20 -20 8 0 19 -17 25 -38 9
-37 40 -82 54 -82 20 0 65 -73 67 -107 0 -10 3 -13 6 -5 2 6 15 12 27 12 17 0
24 9 35 45 13 43 12 47 -8 64 -11 10 -21 26 -21 35 0 9 -4 16 -10 16 -5 0 -14
18 -20 40 -6 22 -17 40 -24 40 -7 0 -16 14 -20 30 -3 18 -12 30 -21 30 -9 0
-18 12 -22 30 -3 17 -11 30 -18 30 -6 0 -20 18 -30 40 -10 22 -22 40 -27 40
-4 0 -8 9 -8 20 0 14 -7 20 -21 20 -16 0 -19 4 -14 20 3 11 2 20 -3 20 -5 0
-12 14 -15 30 -5 22 -12 30 -28 30 -15 0 -19 5 -15 15 8 21 -3 45 -20 45 -18
0 -18 8 1 26 8 9 15 21 14 27 0 8 -2 8 -6 -1 -3 -9 -10 -7 -24 9 -13 15 -19
18 -20 8 0 -8 -9 14 -21 49 -12 37 -25 62 -34 62 -8 0 -14 9 -14 19 0 11 -7
27 -16 36 -19 19 -11 65 11 65 8 0 15 5 15 10 0 6 6 10 14 10 8 0 18 9 21 20
3 11 12 20 19 20 8 0 17 15 21 33 7 28 9 29 12 10 5 -28 29 -30 38 -3 3 11 15
20 26 20 10 0 19 5 19 10 0 6 7 10 15 10 10 0 15 10 15 30 0 17 4 30 9 30 5 0
11 14 15 31 l6 32 20 -23 c11 -13 20 -27 20 -32 0 -17 23 -7 50 22 15 17 37
30 49 30 12 0 21 5 21 10 0 6 7 10 15 10 8 0 15 5 15 10 0 6 10 10 23 10 12 0
29 10 37 21 8 12 25 32 36 44 28 28 44 59 44 84 0 25 31 91 42 91 4 0 8 16 8
36 0 19 5 44 10 55 8 14 7 27 -5 49 -14 27 -14 33 1 62 9 18 23 38 30 46 8 7
14 22 14 33 0 10 5 19 11 19 23 0 34 28 34 90 0 49 -4 69 -17 81 -22 20 -22
51 -2 104 9 23 17 81 18 135 2 52 6 102 10 111 5 10 -4 27 -24 49 -26 28 -31
39 -25 66 4 23 -1 46 -17 78 -12 25 -25 46 -30 46 -4 0 -12 18 -18 40 -8 28
-16 40 -29 40 -11 0 -25 15 -37 42 -10 23 -29 52 -41 64 -13 13 -23 30 -23 39
0 10 -9 15 -26 15 -21 0 -25 3 -18 18 5 9 8 40 7 67 -1 28 -2 75 -2 105 -1 57
-17 110 -32 110 -13 0 -11 45 3 75 6 14 17 25 25 25 7 0 13 5 13 10 0 6 13 10
29 10 21 0 32 6 36 20 3 11 11 20 17 20 12 0 68 58 68 71 0 5 6 9 13 9 7 0 19
9 27 20 8 11 20 20 27 20 7 0 13 5 13 10 0 6 7 10 15 10 8 0 15 5 15 10 0 6 6
10 13 10 7 0 19 9 27 20 8 11 20 20 27 20 7 0 13 5 13 10 0 6 16 10 35 10 19
0 35 5 35 10 0 6 9 10 20 10 11 0 20 5 20 10 0 6 7 10 15 10 8 0 15 5 15 10 0
6 11 10 25 10 14 0 25 5 25 10 0 6 8 10 18 10 10 0 24 9 32 20 8 11 25 20 37
20 13 0 23 5 23 10 0 6 16 10 35 10 19 0 35 5 35 10 0 6 9 10 20 10 11 0 20 5
20 10 0 6 7 10 15 10 8 0 15 5 15 10 0 6 7 10 15 10 8 0 15 5 15 10 0 6 9 10
20 10 11 0 20 5 20 10 0 6 7 10 15 10 8 0 15 5 15 10 0 6 6 10 14 10 8 0 18 9
21 20 3 11 13 20 21 20 8 0 14 5 14 10 0 6 11 10 25 10 14 0 25 5 25 10 0 6
23 10 50 10 28 0 50 5 50 10 0 6 14 10 31 10 27 0 30 3 24 23 -4 12 -9 30 -11
40 -4 11 0 17 10 17 9 0 16 5 16 10 0 6 7 10 15 10 8 0 15 5 15 10 0 6 7 10
15 10 8 0 15 5 15 10 0 6 6 10 13 10 7 0 19 9 27 20 8 11 21 20 28 20 8 0 27
14 42 30 15 17 33 30 39 30 6 0 11 5 11 10 0 6 7 10 15 10 8 0 15 5 15 10 0
14 27 12 33 -2 4 -10 8 -9 16 2 9 12 11 12 11 1 0 -17 37 23 45 50 4 11 15 19
26 19 10 0 19 5 19 10 0 6 14 10 30 10 17 0 30 5 30 10 0 6 5 10 10 10 6 0 27
16 46 36 28 27 35 41 30 59 -4 14 0 29 7 37 8 7 20 24 27 38 7 13 17 29 22 34
4 6 17 22 28 35 11 13 25 43 31 65 14 56 30 96 38 96 9 0 41 66 41 85 0 8 -4
15 -9 15 -5 0 -12 7 -15 16 -6 16 14 44 32 44 5 0 15 14 22 30 7 17 26 45 41
63 44 48 46 51 69 97 12 23 41 61 65 85 24 24 46 53 50 64 3 12 10 21 15 21 5
0 11 8 15 19 3 10 13 28 23 39 9 11 24 30 32 41 8 12 20 21 27 21 7 0 13 5 13
10 0 6 7 10 15 10 8 0 15 7 15 15 0 32 31 80 88 141 19 19 37 47 42 62 19 60
50 136 58 141 5 3 15 17 22 30 10 19 10 25 -1 32 -11 7 -12 14 -1 41 8 18 16
42 19 53 4 11 11 23 16 26 6 5 6 23 -2 52 -15 63 -14 67 14 67 24 0 24 1 20
77 -2 43 -8 79 -14 81 -6 2 -11 11 -11 21 0 9 -9 23 -20 31 -17 12 -20 26 -20
88 0 58 5 83 26 124 20 40 25 60 20 90 -6 39 17 103 50 136 8 7 14 17 14 22 0
4 14 23 31 41 22 24 29 40 26 58 -5 25 10 71 24 71 7 0 17 45 26 125 3 28 9
52 13 55 4 3 10 17 14 33 5 20 3 27 -8 27 -10 0 -12 11 -8 46 3 26 0 49 -5 53
-19 12 -46 75 -34 79 14 5 14 35 1 76 -5 17 -12 43 -15 58 -3 15 -11 33 -18
40 -6 7 -12 33 -12 58 -1 25 -8 69 -18 97 -14 44 -15 60 -6 98 9 37 9 47 -5
60 -9 9 -16 23 -16 30 0 23 -33 85 -45 85 -6 0 -11 19 -11 43 0 23 -5 56 -12
72 -6 17 -14 42 -17 58 -3 15 -12 27 -19 27 -21 0 -30 67 -12 85 8 8 19 15 25
15 6 0 11 5 11 10 0 6 -9 10 -20 10 -11 0 -20 5 -20 10 0 6 -7 10 -15 10 -8 0
-15 5 -15 10 0 6 -6 10 -14 10 -13 0 -26 26 -41 78 -3 12 -11 22 -16 22 -5 0
-9 8 -9 18 0 11 -9 29 -20 42 -11 12 -22 31 -25 41 -4 11 -12 19 -20 19 -8 0
-16 17 -20 40 -4 23 -12 40 -20 40 -8 0 -17 10 -20 23 -15 51 -28 77 -41 77
-8 0 -14 5 -14 10 0 6 7 10 15 10 8 0 15 -4 15 -10 0 -19 17 -10 28 15 15 33
17 28 -18 65 -16 17 -34 47 -39 66 -15 54 -61 85 -74 52 -11 -26 -7 108 5 163
9 43 9 67 0 96 -22 75 -23 93 -7 93 9 0 15 9 14 23 0 12 -3 16 -6 10 -6 -17
-40 -16 -46 1 -3 8 -4 22 -2 33 12 61 16 73 28 85 6 7 17 28 24 47 14 38 0 61
-35 61 -11 0 -23 6 -25 13 -4 9 -8 8 -16 -3 -7 -10 -11 -11 -11 -2 0 6 -7 12
-16 12 -20 0 -44 24 -44 43 0 9 -4 17 -10 19 -6 2 -4 19 5 43 8 22 14 52 15
68 0 15 5 27 11 27 7 0 9 12 5 35 -7 33 8 65 30 65 8 0 44 40 44 49 -1 3 -7
17 -15 31 -8 14 -14 35 -15 47 0 27 30 93 43 93 9 0 47 38 47 47 0 2 -5 13
-10 23 -11 20 5 70 22 70 4 0 8 14 8 30 0 26 4 30 28 30 23 0 32 7 47 38 20
41 34 95 42 160 3 23 9 42 14 42 5 0 9 44 9 98 0 85 -3 102 -20 122 -23 27
-35 64 -25 80 8 13 -18 40 -39 40 -9 0 -16 4 -16 9 0 5 -6 16 -14 23 -7 8 -24
34 -36 57 -12 24 -32 54 -43 66 -12 12 -29 32 -37 45 -8 12 -21 28 -27 36 -7
7 -13 22 -13 32 0 31 -11 52 -26 52 -8 0 -14 5 -14 10 0 6 -9 10 -19 10 -11 0
-23 9 -26 20 -3 11 -12 20 -20 20 -8 0 -17 9 -20 20 -3 11 -11 20 -17 20 -23
0 -47 42 -41 71 4 20 1 29 -7 29 -15 0 -47 35 -55 61 -4 11 -11 19 -16 19 -5
0 -9 9 -9 20 0 11 -5 20 -11 20 -7 0 -9 11 -5 30 4 22 2 30 -8 30 -7 0 -19 14
-26 30 -7 17 -16 30 -21 30 -4 0 -11 9 -14 20 -3 11 -13 20 -21 20 -22 0 -65
46 -58 63 3 8 -9 29 -26 46 -16 18 -30 37 -30 42 0 5 -6 9 -13 9 -8 0 -22 18
-32 40 -10 22 -22 40 -27 40 -4 0 -8 9 -8 20 0 13 -7 20 -19 20 -11 0 -23 9
-26 20 -3 11 -13 20 -21 20 -8 0 -14 4 -14 8 0 16 -37 52 -52 52 -8 0 -23 18
-33 40 -10 22 -24 40 -31 40 -8 0 -17 12 -20 27 -4 15 -26 46 -48 69 -58 60
-63 67 -88 118 -12 25 -28 46 -35 46 -7 0 -13 4 -13 8 0 5 -9 19 -20 32 -11
13 -20 31 -20 42 0 10 -4 18 -10 18 -5 0 -10 9 -10 20 0 11 -4 20 -10 20 -5 0
-10 5 -10 10 0 6 5 10 11 10 16 0 33 21 47 61 17 49 15 59 -8 59 -11 0 -20 4
-20 9 0 5 -13 23 -30 41 -16 18 -30 41 -30 51 0 12 -7 19 -20 19 -23 0 -25 17
-10 90 5 27 5 46 -1 48 -14 6 -11 30 12 74 19 38 20 48 10 109 -6 37 -13 73
-16 81 -3 8 3 25 15 38 11 13 20 36 20 52 0 15 4 28 8 28 12 0 33 50 26 61
-12 19 -13 131 -2 152 14 27 34 47 46 47 13 0 22 25 22 61 0 17 4 38 10 48 6
12 6 30 0 51 -11 37 5 60 40 60 12 0 35 14 50 30 15 17 35 30 44 30 9 0 16 4
16 9 0 5 7 17 16 26 9 9 21 37 25 62 16 84 30 123 44 123 35 0 23 117 -16 151
-24 21 -24 26 7 147 5 16 2 22 -9 22 -9 0 -17 10 -19 23 l-3 22 -2682 3 -2683
2 0 -17145z"/>
<path fill="#ffffff" stroke="000000" stroke-width="0.01" d="M14613 33915 c-16 -17 -49 -85 -56
-116 -7 -29 -39 -69 -56 -69 -6 0 -11 -16 -11 -35 0 -20 -8 -52 -19 -73 -11
-23 -21 -71 -25 -130 -6 -87 -29 -162 -48 -162 -4 0 -8 -7 -8 -15 0 -19 -27
-74 -46 -92 -13 -13 -34 -75 -34 -100 0 -7 -4 -13 -10 -13 -5 0 -10 -13 -10
-28 0 -26 8 -40 51 -90 6 -8 19 -44 29 -81 9 -36 22 -76 28 -88 7 -12 12 -36
12 -53 0 -30 64 -172 81 -178 5 -2 9 -10 9 -18 0 -24 31 -77 62 -106 43 -40
62 -120 54 -228 -4 -48 -2 -105 3 -130 6 -25 18 -81 26 -125 22 -112 41 -195
53 -230 6 -16 16 -62 23 -101 12 -74 10 -86 -36 -279 -22 -94 -22 -256 1 -307
9 -21 21 -38 26 -38 28 0 82 -103 121 -230 56 -183 67 -224 67 -245 0 -12 9
-64 20 -116 43 -198 62 -304 85 -489 8 -63 24 -155 35 -205 51 -224 59 -274
60 -370 0 -110 30 -276 60 -335 10 -19 21 -51 25 -70 4 -19 18 -55 30 -80 33
-66 65 -231 75 -390 7 -111 13 -147 31 -181 21 -43 42 -69 54 -69 4 0 24 -18
45 -40 21 -22 46 -40 54 -40 9 0 16 -4 16 -10 0 -5 6 -10 13 -10 20 0 37 -44
37 -95 0 -33 6 -50 24 -68 39 -39 49 -65 32 -82 -8 -8 -19 -15 -25 -15 -6 0
-11 -4 -11 -10 0 -5 -6 -10 -14 -10 -26 0 -32 -41 -16 -102 9 -33 23 -52 89
-124 11 -12 32 -46 46 -75 15 -29 33 -59 41 -67 8 -7 14 -18 14 -23 0 -5 5 -9
11 -9 6 0 28 -18 49 -40 21 -22 46 -40 54 -40 9 0 16 -4 16 -10 0 -5 9 -10 20
-10 11 0 20 -4 20 -10 0 -5 14 -10 30 -10 17 0 30 -4 30 -10 0 -5 23 -10 50
-10 28 0 50 -4 50 -10 0 -5 11 -10 25 -10 14 0 25 -4 25 -10 0 -5 18 -10 40
-10 22 0 40 5 40 10 0 6 9 10 20 10 11 0 20 5 20 10 0 6 20 10 45 10 25 0 45
-4 45 -10 0 -5 11 -10 25 -10 14 0 25 -4 25 -10 0 -5 9 -10 20 -10 11 0 20 -4
20 -10 0 -5 7 -10 15 -10 8 0 15 -4 15 -10 0 -5 7 -10 15 -10 8 0 15 -4 15
-10 0 -5 7 -10 15 -10 8 0 15 -4 15 -10 0 -6 37 -10 90 -10 53 0 90 -4 90 -10
0 -5 7 -10 15 -10 8 0 15 -4 15 -10 0 -5 11 -10 25 -10 14 0 25 -4 25 -10 0
-5 9 -10 20 -10 11 0 20 -4 20 -9 0 -12 56 -71 67 -71 5 0 15 -9 23 -20 8 -11
20 -20 27 -20 7 0 13 -4 13 -10 0 -5 9 -10 20 -10 11 0 20 -4 20 -10 0 -5 9
-10 20 -10 11 0 20 -4 20 -10 0 -5 9 -10 20 -10 11 0 20 -4 20 -10 0 -6 35
-10 86 -10 95 0 114 -10 114 -57 0 -44 47 -180 72 -207 28 -32 36 -44 53 -77
10 -19 21 -36 25 -39 28 -19 76 -153 83 -231 3 -31 12 -70 20 -85 8 -16 17
-72 20 -125 6 -85 4 -99 -12 -118 -10 -11 -24 -21 -31 -21 -9 0 -11 -12 -6
-45 5 -44 4 -48 -37 -90 -53 -55 -61 -65 -77 -95 -7 -14 -18 -30 -24 -36 -6
-6 -18 -22 -26 -34 -8 -12 -23 -31 -32 -42 -10 -12 -18 -25 -18 -30 0 -4 -5
-8 -11 -8 -13 0 -89 -78 -89 -91 0 -5 -5 -9 -11 -9 -12 0 -32 -21 -59 -60 -8
-12 -20 -28 -27 -35 -6 -6 -32 -54 -58 -105 -26 -51 -53 -99 -60 -107 -8 -7
-17 -22 -20 -33 -3 -11 -10 -20 -15 -20 -5 0 -11 -8 -15 -19 -3 -10 -13 -28
-23 -39 -9 -11 -24 -30 -32 -42 -8 -12 -22 -30 -30 -40 -8 -10 -22 -28 -30
-40 -8 -13 -44 -53 -80 -91 -36 -37 -76 -82 -90 -99 -24 -30 -68 -77 -292
-312 -51 -53 -98 -97 -103 -97 -6 -1 -17 -10 -25 -21 -8 -11 -20 -20 -27 -20
-7 0 -13 -4 -13 -10 0 -5 -5 -10 -11 -10 -6 0 -28 -18 -49 -40 -21 -22 -46
-40 -54 -40 -9 0 -16 -4 -16 -10 0 -5 -7 -10 -15 -10 -8 0 -15 -4 -15 -10 0
-5 -7 -10 -15 -10 -8 0 -15 -4 -15 -10 0 -5 -7 -10 -15 -10 -8 0 -15 -4 -15
-10 0 -5 -5 -10 -11 -10 -12 0 -54 -42 -79 -80 -8 -12 -23 -31 -32 -42 -10
-12 -18 -24 -18 -28 0 -10 -36 -50 -44 -50 -29 0 -73 -92 -82 -171 -8 -80 -33
-129 -63 -129 -6 0 -11 -4 -11 -9 0 -5 -6 -16 -12 -23 -31 -32 -76 -196 -70
-255 3 -27 -1 -48 -9 -57 -8 -8 -25 -29 -39 -46 -14 -17 -42 -49 -62 -71 -21
-22 -38 -45 -38 -50 0 -5 -6 -9 -13 -9 -7 0 -19 -9 -27 -20 -8 -11 -20 -20
-27 -20 -7 0 -13 -4 -13 -10 0 -5 -5 -10 -11 -10 -6 0 -24 -13 -39 -30 -15
-16 -32 -30 -37 -30 -4 0 -19 -14 -33 -31 -43 -52 -159 -169 -167 -169 -5 0
-15 -9 -23 -20 -8 -11 -20 -20 -27 -20 -7 0 -13 -4 -13 -9 0 -5 -8 -17 -17
-27 -14 -13 -18 -34 -18 -83 1 -54 7 -77 33 -128 28 -55 32 -72 32 -143 0 -83
-14 -129 -50 -160 -10 -8 -32 -44 -50 -79 -31 -63 -52 -91 -66 -91 -11 0 -44
-42 -44 -56 0 -20 22 -64 32 -64 38 0 109 -133 128 -240 14 -73 27 -100 49
-100 6 0 11 -4 11 -10 0 -5 6 -10 14 -10 7 0 19 -13 26 -29 20 -49 15 -111
-12 -166 -14 -27 -28 -62 -32 -77 -3 -15 -12 -33 -20 -40 -31 -31 -58 -103
-67 -181 -10 -79 -31 -621 -27 -702 4 -85 1 -133 -11 -205 -8 -41 -17 -95 -20
-120 -4 -25 -24 -78 -45 -119 -40 -78 -40 -78 -86 -130 -16 -18 -30 -37 -30
-41 0 -5 -6 -15 -14 -22 -7 -8 -21 -29 -31 -47 -9 -18 -31 -48 -48 -66 -40
-41 -67 -77 -67 -87 0 -4 -6 -8 -13 -8 -7 0 -19 -9 -27 -21 -26 -37 -68 -79
-78 -79 -6 0 -14 -9 -17 -20 -3 -11 -10 -20 -14 -20 -14 0 -31 -50 -31 -91 0
-29 7 -47 25 -65 24 -24 25 -24 25 -4 0 30 26 24 40 -10 13 -31 43 -70 54 -70
4 0 19 -12 33 -26 26 -26 26 -26 27 -202 2 -311 -30 -569 -103 -832 -13 -48
-21 -105 -21 -160 0 -61 -6 -101 -21 -140 -27 -72 -45 -134 -57 -195 -6 -27
-15 -68 -20 -90 -6 -22 -15 -80 -22 -130 -6 -49 -20 -134 -31 -188 -10 -54
-19 -135 -19 -180 0 -80 -20 -184 -38 -196 -5 -3 -11 -15 -15 -26 -3 -11 -15
-45 -27 -75 -11 -30 -28 -73 -36 -95 -9 -22 -27 -70 -40 -108 -13 -37 -46
-112 -73 -166 -30 -58 -54 -124 -61 -162 -6 -35 -16 -71 -21 -80 -4 -9 -13
-61 -18 -115 -5 -55 -19 -128 -31 -164 -26 -79 -23 -151 10 -225 12 -27 33
-74 46 -103 13 -29 24 -60 24 -70 0 -32 20 -89 39 -111 10 -12 24 -36 31 -54
6 -17 21 -53 32 -78 21 -48 21 -92 0 -174 -5 -22 -15 -69 -22 -104 -11 -62
-49 -151 -74 -176 -6 -7 -20 -32 -30 -56 -10 -24 -29 -70 -43 -101 -22 -47
-25 -66 -20 -112 5 -54 10 -63 54 -110 12 -13 38 -56 58 -96 20 -40 41 -77 46
-84 5 -6 18 -21 28 -34 28 -34 67 -165 106 -356 17 -81 60 -180 96 -220 58
-64 79 -89 79 -96 0 -4 13 -22 30 -40 16 -18 30 -36 30 -41 0 -5 7 -9 15 -9 8
0 15 -4 15 -10 0 -5 14 -10 30 -10 17 0 30 -4 30 -10 0 -5 9 -10 20 -10 11 0
20 -4 20 -10 0 -5 6 -10 14 -10 8 0 17 -15 21 -37 6 -35 130 -293 145 -303 4
-3 13 -16 20 -29 7 -13 21 -34 31 -45 77 -85 120 -126 133 -126 9 0 16 -4 16
-10 0 -5 9 -10 20 -10 11 0 20 -4 20 -10 0 -5 20 -10 45 -10 25 0 45 -4 45
-10 0 -5 16 -10 35 -10 19 0 35 -4 35 -10 0 -5 10 -10 23 -10 12 0 29 -9 37
-20 11 -15 26 -20 57 -20 24 0 43 5 43 10 0 6 26 10 59 10 50 0 61 -3 66 -19
3 -11 18 -33 33 -49 15 -17 34 -40 42 -52 8 -12 23 -31 32 -42 10 -11 20 -29
23 -39 4 -11 10 -19 14 -19 5 0 14 -13 21 -30 7 -16 16 -30 21 -30 4 0 11 -9
14 -20 3 -11 12 -26 18 -32 16 -17 37 -72 50 -128 9 -41 7 -50 -22 -108 -18
-35 -35 -85 -38 -111 -5 -41 0 -57 37 -131 23 -47 46 -87 50 -90 14 -10 51
-93 79 -178 37 -113 51 -142 68 -142 7 0 13 -4 13 -8 0 -16 121 -152 135 -152
4 0 20 -13 35 -30 15 -16 33 -30 39 -30 6 0 11 -4 11 -10 0 -5 7 -10 15 -10 8
0 15 -4 15 -10 0 -5 18 -10 40 -10 22 0 40 5 40 10 0 6 8 10 18 10 34 0 57 72
58 185 1 106 28 358 43 410 5 16 14 48 21 70 26 91 29 95 71 95 22 0 39 -4 39
-10 0 -6 52 -10 135 -10 83 0 135 -4 135 -10 0 -5 5 -10 11 -10 22 0 69 -71
69 -105 0 -8 4 -15 10 -15 5 0 13 -12 16 -28 8 -31 93 -204 104 -212 4 -3 18
-25 30 -50 12 -25 26 -47 30 -50 4 -3 22 -33 39 -67 33 -66 50 -155 51 -258 0
-33 7 -85 16 -115 15 -52 39 -170 51 -253 8 -54 -41 -249 -67 -267 -30 -21
-100 -216 -85 -239 7 -12 -9 -45 -36 -75 -72 -79 -99 -106 -106 -106 -5 0 -15
-9 -23 -20 -8 -11 -18 -20 -23 -20 -5 0 -22 -13 -37 -30 -15 -16 -33 -30 -39
-30 -6 0 -11 -4 -11 -10 0 -5 -7 -10 -15 -10 -8 0 -15 -4 -15 -10 0 -5 -7 -10
-15 -10 -8 0 -15 -4 -15 -10 0 -5 -11 -10 -25 -10 -14 0 -25 -4 -25 -10 0 -5
-9 -10 -20 -10 -11 0 -20 -4 -20 -10 0 -5 -8 -10 -18 -10 -10 0 -24 -9 -32
-20 -8 -11 -22 -20 -32 -20 -10 0 -18 -4 -18 -10 0 -5 -5 -10 -11 -10 -27 0
-77 -91 -99 -178 -6 -24 -25 -56 -44 -76 -19 -18 -39 -44 -46 -56 -16 -29 -23
-38 -82 -101 -27 -28 -48 -54 -48 -59 0 -5 -22 -32 -50 -60 -27 -28 -50 -55
-50 -60 0 -5 -6 -15 -14 -22 -39 -40 -49 -82 -54 -223 -5 -165 -7 -171 -92
-264 -19 -21 -42 -49 -50 -61 -8 -12 -31 -40 -50 -61 -51 -56 -56 -63 -76
-100 -26 -48 -24 -163 3 -259 12 -41 26 -110 32 -153 10 -74 37 -145 67 -174
7 -8 17 -29 23 -48 5 -18 14 -40 20 -47 42 -49 52 -65 58 -87 3 -14 11 -37 18
-51 7 -14 19 -103 25 -198 10 -137 10 -214 0 -373 -13 -219 -6 -283 34 -325
12 -11 28 -31 36 -43 9 -13 25 -21 42 -21 15 0 28 -4 28 -10 0 -5 7 -10 15
-10 8 0 15 -4 15 -9 0 -5 23 -33 50 -61 37 -38 49 -57 45 -71 -4 -10 -2 -19 4
-19 5 0 13 -9 16 -20 3 -11 13 -20 21 -20 8 0 14 -4 14 -9 0 -5 6 -16 13 -23
7 -7 19 -22 26 -33 12 -20 11 -9 -5 30 -3 8 -2 15 3 15 9 0 67 -116 78 -157 4
-13 12 -29 19 -36 8 -7 24 -33 36 -57 12 -23 26 -48 31 -54 24 -29 45 -56 59
-76 8 -12 26 -35 40 -50 15 -15 34 -46 45 -69 10 -23 24 -41 32 -41 7 0 13 -4
13 -10 0 -5 7 -10 16 -10 9 0 29 -13 44 -30 15 -16 35 -30 44 -30 9 0 16 -4
16 -10 0 -5 20 -10 45 -10 25 0 45 5 45 10 0 6 11 10 25 10 14 0 25 -4 25 -10
0 -5 9 -10 20 -10 11 0 20 -4 20 -10 0 -5 7 -10 15 -10 8 0 15 -4 15 -10 0 -5
7 -10 15 -10 8 0 15 -4 15 -9 0 -16 58 -71 74 -71 9 0 16 -4 16 -10 0 -5 16
-10 35 -10 19 0 35 -4 35 -10 0 -6 27 -10 60 -10 33 0 60 -4 60 -10 0 -5 18
-10 40 -10 22 0 40 -4 40 -10 0 -5 25 -10 55 -10 30 0 55 -4 55 -10 0 -5 14
-10 30 -10 17 0 30 -4 30 -10 0 -5 11 -10 25 -10 14 0 25 -4 25 -10 0 -5 8
-10 18 -10 10 0 24 -9 32 -20 8 -12 26 -20 42 -20 15 0 28 -4 28 -10 0 -5 7
-10 15 -10 8 0 15 -4 15 -10 0 -5 9 -10 20 -10 11 0 20 -4 20 -10 0 -5 9 -10
20 -10 11 0 20 -4 20 -10 0 -5 11 -10 25 -10 14 0 25 -4 25 -10 0 -5 9 -10 20
-10 11 0 20 -4 20 -10 0 -5 7 -10 16 -10 16 0 74 -55 74 -70 0 -5 6 -15 14
-22 7 -8 24 -34 36 -58 23 -45 43 -70 56 -70 10 0 43 -40 49 -61 4 -11 13 -19
21 -19 8 0 14 -4 14 -10 0 -5 7 -10 15 -10 8 0 15 -4 15 -10 0 -5 5 -10 11
-10 13 0 49 -38 49 -52 0 -4 6 -8 13 -8 7 0 19 -9 27 -20 8 -11 18 -20 23 -20
5 0 22 -13 37 -30 15 -16 35 -30 44 -30 9 0 16 -4 16 -10 0 -5 9 -10 20 -10
11 0 20 -4 20 -10 0 -5 16 -10 35 -10 19 0 35 -4 35 -10 0 -5 20 -10 45 -10
25 0 45 -4 45 -10 0 -5 11 -10 24 -10 17 0 27 -9 36 -30 8 -18 20 -30 31 -30
11 0 19 -4 19 -10 0 -5 9 -10 20 -10 11 0 20 -4 20 -10 0 -5 11 -10 25 -10 14
0 25 -4 25 -10 0 -5 14 -10 30 -10 17 0 30 -4 30 -10 0 -5 9 -10 20 -10 11 0
20 -4 20 -10 0 -5 5 -10 11 -10 6 0 28 -18 49 -40 21 -22 42 -40 47 -40 5 0
15 -9 23 -20 8 -11 20 -20 27 -20 7 0 13 -4 13 -10 0 -5 5 -10 11 -10 6 0 24
-13 39 -30 15 -16 33 -30 39 -30 6 0 11 -4 11 -10 0 -5 9 -10 20 -10 11 0 20
-4 20 -10 0 -5 11 -10 25 -10 14 0 25 5 25 10 0 6 6 10 13 10 7 0 26 27 42 60
16 33 34 60 41 60 7 0 15 6 17 13 4 10 6 10 6 0 1 -7 12 -13 26 -13 14 0 25
-4 25 -10 0 -5 11 -10 25 -10 14 0 25 -4 25 -10 0 -6 46 -10 119 -10 111 0
120 -1 126 -20 3 -11 13 -20 21 -20 8 0 14 -4 14 -10 0 -5 18 -10 40 -10 22 0
40 5 40 10 0 6 7 10 16 10 9 0 29 14 44 30 15 17 31 30 35 30 13 0 65 62 70
84 2 11 6 71 7 131 l3 111 45 46 c25 26 56 60 70 77 14 17 35 31 48 31 12 0
22 5 22 10 0 6 14 10 31 10 33 0 63 -25 74 -61 4 -11 13 -19 21 -19 19 0 19
62 0 99 -13 23 -13 34 -1 67 11 33 11 50 -1 104 -16 79 -20 159 -10 225 5 38
2 65 -13 111 -20 62 -68 165 -81 174 -4 3 -15 20 -24 39 -10 18 -32 48 -50 66
-18 17 -38 47 -45 66 -25 68 -41 100 -61 122 -74 81 -120 127 -129 127 -6 0
-11 5 -11 10 0 6 -11 10 -25 10 -14 0 -25 5 -25 10 0 6 -6 10 -13 10 -7 0 -19
9 -27 20 -8 11 -20 20 -27 20 -7 0 -13 5 -13 10 0 6 -7 10 -15 10 -8 0 -15 5
-15 10 0 6 -7 10 -15 10 -8 0 -15 5 -15 10 0 6 -6 10 -13 10 -7 0 -19 9 -27
20 -8 11 -20 20 -27 20 -7 0 -13 5 -13 10 0 6 -7 10 -15 10 -8 0 -15 5 -15 10
0 6 -7 10 -15 10 -8 0 -15 5 -15 10 0 6 -18 10 -40 10 -22 0 -40 5 -40 10 0 6
-8 10 -19 10 -27 0 -46 54 -44 126 1 74 29 134 62 134 6 0 11 5 11 10 0 6 45
10 115 10 70 0 115 4 115 10 0 6 7 10 15 10 8 0 15 5 15 10 0 6 6 10 14 10 8
0 18 9 21 20 3 11 13 20 21 20 8 0 14 5 14 10 0 6 7 10 15 10 24 0 60 41 91
101 14 30 30 56 34 59 4 3 17 25 30 49 17 33 20 54 16 85 -9 57 -9 64 0 129 5
45 3 66 -11 97 -10 22 -21 40 -25 40 -4 0 -13 14 -20 30 -7 17 -16 30 -21 30
-4 0 -11 9 -14 20 -3 11 -12 20 -19 20 -18 0 -60 183 -47 207 5 11 17 61 26
113 9 51 23 111 31 134 9 23 24 71 33 108 13 46 29 77 52 102 91 96 99 108 92
153 -4 26 1 38 31 67 19 20 42 36 51 36 8 0 15 5 15 10 0 6 6 10 13 10 7 0 19
9 27 20 8 11 20 20 27 20 7 0 13 5 13 10 0 6 5 10 11 10 15 0 34 21 54 60 20
39 39 60 54 60 6 0 11 5 11 10 0 6 9 10 20 10 11 0 20 5 20 10 0 6 11 10 25
10 14 0 25 5 25 10 0 6 10 10 23 10 12 0 29 9 37 21 30 43 68 79 84 79 9 0 16
5 16 10 0 6 9 10 20 10 11 0 20 5 20 10 0 6 18 10 40 10 22 0 40 5 40 10 0 6
11 10 25 10 14 0 25 5 25 10 0 6 9 10 20 10 11 0 20 5 20 10 0 6 7 10 15 10 8
0 15 5 15 10 0 6 5 10 11 10 6 0 28 18 49 40 21 22 41 40 45 40 4 0 14 8 23
17 15 15 17 55 18 382 2 363 -1 419 -32 517 -15 49 -15 53 5 92 17 33 21 60
21 132 0 50 -5 100 -11 111 -7 15 -7 68 1 187 7 112 7 178 1 201 -14 44 4 61
63 61 25 0 46 5 46 10 0 6 9 10 20 10 11 0 20 5 20 10 0 6 5 10 11 10 19 0 84
76 103 121 10 24 25 60 34 79 10 22 17 74 19 140 4 99 16 160 33 160 3 0 17
22 29 48 21 45 22 54 12 157 -7 76 -6 131 1 184 11 74 10 78 -16 130 -15 29
-37 64 -49 77 -12 13 -38 42 -57 64 -19 22 -50 56 -67 75 -18 19 -33 39 -33
45 0 15 -70 154 -81 161 -14 8 -29 69 -29 115 0 33 -7 49 -29 73 -55 59 -51
181 9 300 15 31 31 72 35 91 8 36 52 131 65 140 12 8 90 168 90 184 0 8 6 21
14 28 56 57 91 233 71 364 -4 29 -11 44 -21 44 -8 0 -14 5 -14 10 0 6 -18 10
-40 10 -22 0 -40 5 -40 10 0 6 -11 10 -25 10 -14 0 -25 5 -25 10 0 6 -7 10
-15 10 -8 0 -15 5 -15 10 0 6 -6 10 -13 10 -7 0 -19 9 -27 20 -8 11 -20 20
-27 20 -7 0 -13 5 -13 10 0 6 -9 10 -20 10 -11 0 -20 5 -20 10 0 6 -9 10 -20
10 -11 0 -20 5 -20 10 0 6 -22 10 -49 10 -35 0 -51 -4 -55 -16 -8 -22 -9 -20
20 -49 32 -32 44 -73 44 -151 0 -68 -21 -104 -59 -104 -11 0 -21 -4 -21 -10 0
-5 -7 -10 -15 -10 -8 0 -15 -4 -15 -10 0 -5 -5 -10 -11 -10 -34 0 -85 -124
-99 -245 -9 -68 -33 -140 -55 -162 -8 -8 -15 -21 -15 -29 0 -8 -22 -59 -50
-114 -27 -55 -50 -106 -50 -114 0 -8 -4 -16 -9 -18 -18 -7 -70 -127 -81 -188
-6 -36 -17 -74 -23 -85 -15 -28 -26 -100 -36 -235 -5 -63 -18 -149 -30 -190
-35 -125 -44 -189 -46 -325 -2 -71 -7 -161 -12 -200 -6 -42 -6 -112 -1 -175 5
-58 11 -190 14 -293 6 -167 4 -193 -11 -228 -10 -21 -22 -39 -26 -39 -4 0 -11
-9 -14 -20 -3 -11 -12 -26 -20 -33 -28 -28 -93 -175 -109 -247 -9 -41 -21 -93
-26 -115 -6 -25 -5 -83 1 -150 6 -61 14 -171 18 -245 8 -147 19 -182 73 -232
36 -33 71 -152 59 -196 -10 -33 -71 -155 -81 -162 -18 -12 -48 -90 -53 -139
-4 -30 -11 -58 -18 -61 -6 -4 -19 -52 -30 -106 -20 -105 -36 -154 -50 -154 -4
0 -10 -8 -14 -19 -5 -16 -15 -31 -55 -78 -5 -6 -26 -47 -46 -90 -123 -264
-163 -340 -194 -373 -19 -21 -42 -48 -50 -60 -8 -12 -31 -40 -50 -61 -53 -58
-56 -63 -80 -109 -12 -24 -29 -50 -36 -58 -8 -7 -14 -17 -14 -22 0 -13 -97
-110 -110 -110 -19 0 -37 -24 -45 -61 -13 -62 -66 -139 -95 -139 -5 0 -10 -4
-10 -10 0 -5 -7 -10 -15 -10 -8 0 -15 -4 -15 -10 0 -5 -7 -10 -15 -10 -8 0
-15 -4 -15 -10 0 -5 -9 -10 -20 -10 -11 0 -20 -4 -20 -10 0 -5 -6 -10 -13 -10
-7 0 -21 -17 -31 -37 -23 -48 -14 -171 15 -204 23 -26 24 -45 5 -65 -16 -16
-86 -19 -86 -4 0 6 -7 10 -15 10 -8 0 -15 5 -15 10 0 6 -16 10 -35 10 -19 0
-35 -4 -35 -10 0 -5 -9 -10 -20 -10 -11 0 -20 -4 -20 -10 0 -5 -6 -10 -12 -10
-7 0 -24 -14 -38 -31 -51 -61 -99 -109 -109 -109 -6 0 -11 -4 -11 -10 0 -5 -7
-10 -15 -10 -8 0 -15 -4 -15 -10 0 -5 -22 -10 -50 -10 -27 0 -50 5 -50 10 0 6
-9 10 -20 10 -11 0 -20 5 -20 10 0 6 -6 10 -13 10 -7 0 -19 9 -27 20 -8 11
-18 20 -23 20 -5 0 -26 18 -47 40 -21 22 -41 40 -45 40 -3 0 -37 32 -75 70
-38 39 -74 70 -80 70 -5 0 -10 5 -10 10 0 6 -7 10 -15 10 -8 0 -15 5 -15 10 0
6 -7 10 -15 10 -8 0 -15 5 -15 10 0 6 -7 10 -16 10 -9 0 -29 14 -44 30 -15 17
-31 30 -35 30 -10 0 -85 80 -85 91 0 5 -5 9 -11 9 -6 0 -24 14 -39 30 -15 17
-33 30 -39 30 -6 0 -11 5 -11 10 0 6 -6 10 -13 10 -7 0 -19 9 -27 20 -8 11
-18 20 -23 20 -5 0 -26 18 -47 40 -21 22 -43 40 -49 40 -6 0 -11 5 -11 10 0 6
-7 10 -15 10 -8 0 -15 5 -15 10 0 6 -6 10 -13 10 -7 0 -19 10 -27 21 -8 12
-20 27 -26 33 -6 7 -19 27 -29 46 -10 19 -23 39 -29 46 -6 6 -18 22 -26 34
-14 20 -34 46 -59 76 -5 6 -17 26 -26 44 -10 19 -24 40 -31 48 -8 7 -14 17
-14 22 0 4 -12 22 -27 39 -16 16 -39 44 -53 61 -14 17 -36 44 -50 60 -61 72
-60 69 -76 148 -22 104 -53 198 -75 223 -37 43 -37 95 0 138 20 23 56 126 67
191 8 52 35 110 51 110 7 0 13 4 13 9 0 5 13 23 30 41 17 18 30 36 30 40 0 5
21 31 48 58 26 27 56 67 66 90 11 23 25 42 33 42 7 0 13 5 13 10 0 6 14 10 30
10 17 0 30 5 30 10 0 6 16 10 36 10 34 0 74 28 74 51 0 4 6 14 14 21 30 30 57
101 67 175 5 43 17 110 25 148 8 39 18 97 23 130 5 33 19 94 30 135 11 41 21
106 21 143 0 65 15 112 44 143 6 6 18 22 26 34 8 12 23 31 33 42 9 12 17 25
17 30 0 4 5 8 11 8 25 0 40 34 49 107 5 43 13 92 18 108 11 36 61 138 72 145
18 12 40 73 40 109 0 22 -7 61 -15 85 -13 37 -13 54 -4 93 16 66 43 113 64
113 18 0 50 50 67 104 14 42 18 295 7 379 -9 64 -31 125 -51 138 -9 6 -34 69
-70 174 -14 44 -20 86 -20 155 0 92 -28 230 -47 230 -4 0 -13 11 -19 25 -12
26 -34 50 -222 243 -61 62 -110 117 -110 122 0 5 -21 31 -47 58 -27 27 -55 60
-63 72 -8 13 -29 37 -46 55 -18 18 -37 43 -44 55 -22 42 -123 150 -139 150 -6
0 -11 5 -11 10 0 6 -7 10 -15 10 -8 0 -15 5 -15 10 0 6 -11 10 -25 10 -14 0
-25 5 -25 10 0 6 -7 10 -15 10 -21 0 -58 38 -80 81 -10 18 -24 39 -31 46 -7 8
-18 31 -24 52 -5 21 -19 49 -30 62 -11 13 -30 36 -42 51 -13 15 -28 28 -33 28
-6 0 -17 9 -25 20 -8 11 -20 20 -27 20 -7 0 -13 5 -13 10 0 6 -9 10 -20 10
-11 0 -20 5 -20 10 0 6 -8 10 -18 10 -10 0 -24 9 -32 20 -8 11 -20 20 -27 20
-7 0 -13 5 -13 10 0 6 -7 10 -15 10 -8 0 -15 5 -15 10 0 6 -7 10 -15 10 -8 0
-15 5 -15 10 0 6 -6 10 -13 10 -7 0 -19 9 -27 20 -8 11 -20 20 -27 20 -7 0
-13 5 -13 10 0 6 -5 10 -11 10 -16 0 -34 22 -59 71 -13 24 -26 46 -31 49 -4 3
-22 47 -38 98 -17 51 -36 103 -42 115 -20 35 -57 193 -69 291 -7 50 -26 163
-42 251 -27 142 -30 172 -24 269 4 60 14 130 23 155 13 37 14 65 7 141 -14
162 -8 241 31 418 5 19 12 22 60 22 30 0 55 -4 55 -10 0 -5 14 -10 30 -10 17
0 30 -4 30 -10 0 -5 11 -10 25 -10 14 0 25 -4 25 -10 0 -6 38 -10 95 -10 52 0
95 -4 95 -8 0 -5 9 -19 20 -32 11 -13 20 -18 20 -12 0 7 7 12 16 12 23 0 38
19 77 96 24 49 38 93 46 152 6 45 15 88 21 95 39 46 50 61 50 69 0 4 14 8 30
8 17 0 30 -4 30 -10 0 -5 7 -10 15 -10 8 0 15 -4 15 -10 0 -5 7 -10 15 -10 8
0 15 -4 15 -10 0 -5 14 -10 30 -10 17 0 30 -4 30 -10 0 -5 18 -10 40 -10 22 0
40 -4 40 -10 0 -5 14 -10 30 -10 17 0 30 -4 30 -10 0 -5 9 -10 20 -10 11 0 20
-4 20 -10 0 -5 6 -10 13 -10 7 0 19 -10 27 -21 8 -12 20 -27 27 -34 6 -6 30
-49 53 -94 42 -84 97 -151 125 -151 8 0 15 -4 15 -10 0 -5 20 -10 45 -10 25 0
45 5 45 10 0 6 28 10 65 10 37 0 65 4 65 10 0 6 16 10 35 10 19 0 35 5 35 10
0 6 8 10 18 10 10 0 24 9 32 20 8 11 19 20 25 20 6 0 17 9 25 20 8 11 20 20
27 20 7 0 13 5 13 10 0 6 9 10 20 10 11 0 20 5 20 10 0 6 11 10 25 10 14 0 25
5 25 10 0 6 9 10 20 10 11 0 20 5 20 10 0 6 8 10 18 10 10 0 24 9 32 20 8 11
19 20 25 20 6 0 17 9 25 20 8 11 20 20 27 20 7 0 13 5 13 10 0 6 18 10 40 10
22 0 40 5 40 10 0 6 23 10 50 10 28 0 50 5 50 10 0 6 18 10 40 10 22 0 40 -4
40 -10 0 -5 9 -10 20 -10 11 0 20 -4 20 -10 0 -5 5 -10 11 -10 19 0 37 -26 94
-140 31 -62 63 -119 70 -126 7 -8 23 -46 35 -86 12 -40 26 -84 31 -98 19 -52
29 -131 44 -340 13 -177 19 -223 37 -262 17 -37 27 -48 45 -48 13 0 23 -4 23
-10 0 -5 7 -10 16 -10 16 0 74 -55 74 -70 0 -4 8 -16 18 -28 9 -11 24 -30 32
-41 8 -12 22 -21 32 -21 10 0 18 -4 18 -10 0 -5 16 -10 35 -10 19 0 35 -4 35
-10 0 -5 7 -10 15 -10 8 0 15 -4 15 -10 0 -5 6 -10 13 -10 7 0 19 -9 27 -21 8
-11 23 -30 32 -41 10 -11 20 -29 23 -39 4 -11 10 -19 15 -19 5 0 12 -9 15 -20
3 -11 13 -20 21 -20 8 0 14 -4 14 -10 0 -5 7 -10 15 -10 8 0 15 -4 15 -10 0
-5 9 -10 20 -10 11 0 20 -4 20 -10 0 -5 23 -10 50 -10 28 0 50 -4 50 -10 0 -5
7 -10 15 -10 8 0 15 -4 15 -10 0 -5 9 -10 20 -10 11 0 20 -4 20 -10 0 -5 9
-10 20 -10 11 0 20 -4 20 -10 0 -5 9 -10 20 -10 11 0 20 -4 20 -10 0 -5 18
-10 40 -10 22 0 40 -4 40 -10 0 -5 16 -10 35 -10 19 0 35 -4 35 -10 0 -5 11
-10 25 -10 14 0 25 -4 25 -8 0 -5 8 -18 18 -30 9 -11 24 -30 32 -41 12 -18 25
-21 82 -21 39 0 68 -4 68 -10 0 -5 12 -10 28 -10 18 0 36 -11 52 -31 48 -57
78 -89 85 -89 8 0 94 -89 115 -119 8 -12 25 -21 40 -21 22 0 31 9 50 50 13 28
27 50 32 50 4 0 10 11 14 25 8 31 -15 55 -51 55 -38 0 -75 44 -75 90 0 26 -27
80 -50 100 -21 18 -55 85 -64 125 -13 58 -28 85 -47 85 -11 0 -19 5 -19 10 0
6 -11 10 -24 10 -24 0 -24 2 -30 108 -10 166 -35 350 -57 427 -31 110 -108
263 -156 311 -52 53 -79 104 -88 172 -4 29 -16 76 -27 105 -36 93 -38 124 -16
191 15 44 22 95 25 186 3 109 1 131 -16 170 -11 25 -25 64 -31 87 -7 30 -28
61 -68 102 -53 56 -72 78 -122 141 -11 14 -24 30 -28 36 -5 5 -15 21 -22 35
-7 13 -16 26 -20 29 -26 18 -72 141 -95 255 -9 43 -24 93 -32 109 -13 25 -14
47 -5 151 14 165 56 295 113 357 25 26 33 28 99 28 47 0 76 5 85 14 7 7 18 40
24 72 12 62 4 112 -21 138 -7 7 -20 23 -28 35 -8 11 -20 21 -27 21 -7 0 -13 5
-13 10 0 6 -7 10 -15 10 -8 0 -15 5 -15 10 0 6 -7 10 -15 10 -8 0 -15 5 -15
10 0 6 -9 10 -20 10 -11 0 -20 5 -20 10 0 6 -9 10 -20 10 -11 0 -20 5 -20 10
0 6 -9 10 -20 10 -11 0 -20 5 -20 10 0 6 -9 10 -20 10 -11 0 -20 5 -20 10 0 6
-9 10 -20 10 -11 0 -20 5 -20 10 0 6 -5 10 -11 10 -12 0 -69 58 -69 70 0 5
-18 27 -39 49 -39 41 -40 41 -111 41 -67 0 -74 -2 -101 -31 -38 -41 -49 -85
-49 -197 0 -68 -10 -139 -37 -270 -22 -104 -38 -208 -38 -253 -1 -76 -15 -109
-44 -109 -6 0 -11 -4 -11 -10 0 -5 -17 -10 -38 -10 -27 0 -42 6 -52 21 -25 34
-47 59 -54 59 -6 0 -123 117 -154 154 -6 8 -17 27 -24 41 -6 14 -14 25 -18 25
-4 0 -15 18 -25 40 -10 22 -21 40 -25 40 -4 0 -13 14 -20 31 -13 29 -121 149
-135 149 -4 0 -20 14 -35 30 -15 17 -35 30 -44 30 -9 0 -16 5 -16 10 0 6 -32
10 -75 10 -43 0 -75 4 -75 10 0 6 -11 10 -25 10 -14 0 -25 -4 -25 -10 0 -5
-11 -10 -25 -10 -14 0 -25 -4 -25 -10 0 -5 -9 -10 -20 -10 -11 0 -20 -4 -20
-10 0 -5 -9 -10 -20 -10 -11 0 -20 5 -20 10 0 6 -6 10 -13 10 -7 0 -19 9 -27
20 -8 11 -20 20 -27 20 -7 0 -13 5 -13 10 0 6 -7 10 -15 10 -8 0 -15 5 -15 10
0 6 -9 10 -20 10 -11 0 -20 5 -20 10 0 6 -13 10 -30 10 -16 0 -30 5 -30 10 0
6 -9 10 -20 10 -11 0 -20 5 -20 10 0 6 -7 10 -15 10 -23 0 -120 102 -146 152
-12 23 -25 45 -29 48 -11 8 -58 104 -74 152 -8 24 -22 76 -30 116 -9 39 -23
105 -32 145 -57 260 -73 398 -75 614 0 109 -1 263 -2 343 -1 113 3 158 17 205
29 98 49 222 66 420 5 55 14 120 20 145 13 54 -1 495 -18 526 -5 10 -20 66
-33 124 -19 88 -22 132 -21 268 1 89 6 181 12 205 14 54 41 117 51 117 4 0 10
18 14 40 4 22 13 47 21 55 25 25 75 196 81 280 7 86 17 105 57 105 14 0 26 5
26 10 0 6 25 10 55 10 50 0 59 4 90 34 45 46 71 100 79 166 15 123 36 180 65
180 6 0 11 5 11 10 0 6 25 10 56 10 49 0 59 -4 84 -30 15 -16 33 -30 39 -30 6
0 11 -4 11 -10 0 -17 25 -11 40 10 8 11 20 20 27 20 7 0 13 5 13 10 0 6 8 10
19 10 12 0 20 9 24 29 4 16 17 40 31 54 52 52 89 150 76 198 -7 23 -5 39 7 62
18 37 37 57 52 57 6 0 11 5 11 10 0 6 9 10 20 10 11 0 20 5 20 10 0 6 9 10 20
10 11 0 20 5 20 10 0 6 18 10 40 10 22 0 40 -4 40 -10 0 -5 5 -10 11 -10 25 0
69 -62 69 -97 0 -18 7 -47 15 -63 9 -17 22 -72 30 -122 8 -51 19 -121 26 -155
11 -61 35 -103 58 -103 6 0 11 -4 11 -10 0 -5 7 -10 15 -10 8 0 15 -4 15 -10
0 -5 9 -10 20 -10 11 0 20 -4 20 -10 0 -5 16 -10 35 -10 19 0 35 5 35 10 0 6
14 10 30 10 17 0 30 5 30 10 0 6 7 10 15 10 8 0 15 4 15 8 0 5 8 18 18 30 9
11 24 30 32 42 32 47 88 110 191 219 30 32 61 73 69 90 7 17 16 31 20 31 4 0
13 14 20 30 7 17 16 30 21 30 4 0 10 8 14 19 3 10 13 28 23 39 9 11 24 30 32
42 23 35 67 80 77 80 5 0 15 9 23 20 8 11 22 20 32 20 10 0 18 5 18 10 0 6 16
10 35 10 19 0 35 -4 35 -10 0 -5 9 -10 20 -10 11 0 20 -4 20 -10 0 -5 9 -10
20 -10 11 0 20 5 20 10 0 6 7 10 15 10 8 0 15 5 15 10 0 6 11 10 25 10 14 0
25 5 25 10 0 6 11 10 25 10 14 0 25 5 25 10 0 6 11 10 25 10 14 0 25 5 25 10
0 6 5 10 11 10 14 0 32 19 49 50 7 13 16 76 21 139 7 104 15 140 58 266 6 17
15 75 22 130 10 85 9 113 -4 180 -19 94 -23 225 -13 350 11 119 45 225 73 225
7 0 13 5 13 10 0 6 6 10 14 10 7 0 19 14 26 30 25 61 -7 209 -56 257 -7 8 -18
30 -23 49 -9 33 -7 38 24 70 19 19 39 34 44 34 5 0 13 9 16 20 3 11 11 20 16
20 5 0 9 35 9 78 0 63 -4 83 -19 100 -10 12 -23 22 -30 22 -6 0 -11 5 -11 10
0 6 -7 10 -16 10 -32 0 -47 28 -39 75 6 41 -9 111 -26 125 -3 3 -14 20 -24 39
-9 19 -27 44 -39 56 -18 19 -199 378 -280 559 -29 62 -84 223 -111 321 -9 33
-25 92 -36 130 -24 85 -41 151 -68 268 -11 49 -26 105 -32 125 -7 23 -13 161
-15 352 -4 290 -15 430 -34 430 -4 0 -13 14 -20 30 -15 35 -63 90 -79 90 -6 0
-11 5 -11 10 0 6 -5 10 -11 10 -13 0 -89 78 -89 91 0 5 -9 9 -20 9 -11 0 -20
5 -20 10 0 6 -9 10 -20 10 -11 0 -20 5 -20 10 0 6 -7 10 -15 10 -8 0 -15 5
-15 10 0 6 -11 10 -25 10 -14 0 -25 5 -25 10 0 6 -8 10 -18 10 -10 0 -24 9
-32 20 -8 11 -20 20 -27 20 -7 0 -13 5 -13 10 0 6 -9 10 -20 10 -11 0 -20 5
-20 10 0 6 -7 10 -15 10 -8 0 -15 5 -15 10 0 6 -37 10 -90 10 -53 0 -90 -4
-90 -10 0 -5 -16 -10 -35 -10 -19 0 -35 -4 -35 -10 0 -5 -11 -10 -25 -10 -14
0 -25 5 -25 10 0 6 -13 10 -30 10 -16 0 -30 5 -30 10 0 6 -20 10 -45 10 -25 0
-45 5 -45 10 0 6 -11 10 -25 10 -14 0 -25 5 -25 10 0 6 -11 10 -25 10 -14 0
-25 5 -25 10 0 6 -7 10 -15 10 -8 0 -15 5 -15 10 0 6 -13 10 -28 10 -16 0 -34
8 -42 20 -8 11 -19 20 -25 20 -6 0 -17 9 -25 20 -8 11 -20 20 -27 20 -7 0 -13
5 -13 10 0 6 -7 10 -15 10 -8 0 -15 5 -15 10 0 6 -7 10 -15 10 -8 0 -15 5 -15
10 0 6 -9 10 -20 10 -11 0 -20 5 -20 10 0 6 -9 10 -20 10 -11 0 -20 5 -20 10
0 6 -7 10 -15 10 -8 0 -15 5 -15 10 0 6 -22 10 -50 10 -27 0 -50 5 -50 10 0 6
-22 10 -50 10 -27 0 -50 5 -50 10 0 6 -9 10 -20 10 -11 0 -20 5 -20 10 0 6 -9
10 -20 10 -11 0 -20 5 -20 10 0 6 -9 10 -20 10 -11 0 -20 5 -20 10 0 6 -7 10
-15 10 -8 0 -15 5 -15 10 0 6 -6 10 -13 10 -7 0 -19 9 -27 20 -8 11 -18 20
-23 20 -5 0 -26 18 -47 40 -21 22 -43 40 -49 40 -6 0 -11 5 -11 10 0 6 -5 10
-10 10 -19 0 -95 84 -109 120 -7 19 -20 64 -28 100 -36 163 -72 229 -188 345
-75 75 -96 103 -105 137 -18 70 -53 139 -92 180 -20 21 -41 38 -47 38 -6 0
-11 5 -11 10 0 6 -5 10 -11 10 -17 0 -35 23 -69 90 -17 34 -36 68 -41 74 -30
37 -68 76 -73 76 -13 0 -54 47 -71 81 -18 34 -39 59 -50 59 -9 0 -51 44 -64
68 -6 11 -11 30 -11 42 0 26 -25 76 -54 105 -11 12 -28 32 -36 45 -20 30 -87
100 -95 100 -4 0 -20 14 -36 31 -23 25 -29 40 -29 76 0 44 -11 76 -37 101 -16
16 -17 53 -2 86 10 20 7 47 -10 132 -25 119 -65 208 -115 258 -18 18 -37 46
-43 62 -42 112 -66 200 -76 272 -10 77 -9 85 13 132 13 28 27 50 30 50 4 0 13
14 20 30 10 25 10 36 0 58 -21 45 -41 142 -50 244 -9 92 -25 145 -56 175 -7 7
-16 13 -19 13 -14 0 -65 63 -71 87 -4 14 -3 48 2 76 5 29 8 95 8 147 0 89 -2
99 -35 165 -20 39 -43 102 -52 140 -28 125 -46 209 -56 260 -9 47 -28 111 -53
178 -12 32 -80 107 -97 107 -6 0 -11 5 -11 10 0 6 -7 10 -16 10 -8 0 -33 18
-54 40 -21 22 -45 40 -53 40 -7 0 -24 22 -37 49 -17 38 -21 58 -16 87 12 68
18 154 12 178 -7 27 -59 86 -76 86 -6 0 -33 23 -60 50 -33 34 -57 50 -74 50
-14 0 -26 5 -26 10 0 6 -33 10 -80 10 -47 0 -80 4 -80 10 0 6 -18 10 -40 10
-22 0 -40 5 -40 10 0 6 -13 10 -30 10 -16 0 -30 5 -30 10 0 6 -16 10 -35 10
-19 0 -35 5 -35 10 0 6 -11 10 -25 10 -14 0 -25 5 -25 10 0 6 -9 10 -20 10
-11 0 -20 5 -20 10 0 6 -7 10 -15 10 -8 0 -15 5 -15 10 0 6 -9 10 -20 10 -11
0 -20 5 -20 10 0 6 -7 10 -15 10 -8 0 -15 5 -15 10 0 6 -9 10 -20 10 -11 0
-20 5 -20 10 0 6 -7 10 -15 10 -8 0 -15 -6 -15 -12 0 -10 -2 -10 -8 -2 -5 9
-10 8 -19 -1z"/>
<path fill="#ffffff" stroke="000000" stroke-width="0.01" d="M5123 24495 c-7 -8 -13 -19 -13 -25 0
-17 26 -40 44 -40 9 0 16 -4 16 -10 0 -5 14 -10 30 -10 17 0 30 -4 30 -10 0
-6 38 -10 95 -10 57 0 95 -4 95 -10 0 -5 9 -10 20 -10 11 0 20 -4 20 -10 0 -5
14 -10 30 -10 17 0 30 -4 30 -10 0 -16 37 -11 44 5 6 16 -54 85 -74 85 -5 0
-10 5 -10 10 0 6 -25 10 -55 10 -30 0 -55 5 -55 10 0 6 -22 10 -50 10 -27 0
-50 5 -50 10 0 6 -11 10 -25 10 -14 0 -25 5 -25 10 0 15 -83 11 -97 -5z"/>
<path fill="#ffffff" stroke="000000" stroke-width="0.01" d="M8890 22230 c0 -11 6 -20 14 -20 7 0
19 -13 26 -30 10 -25 18 -30 46 -30 19 0 34 -4 34 -8 0 -16 37 -52 52 -52 9 0
21 -13 28 -30 13 -31 54 -43 63 -17 4 12 9 7 69 -65 17 -21 32 -27 61 -28 20
0 37 5 37 10 0 6 9 10 20 10 11 0 20 5 20 10 0 6 7 10 15 10 8 0 15 5 15 10 0
6 7 10 15 10 8 0 15 5 15 10 0 6 9 10 19 10 16 0 19 -5 15 -32 -2 -18 -11 -80
-19 -137 -8 -58 -11 -107 -6 -110 4 -3 20 -28 34 -56 14 -27 26 -44 27 -37 0
14 40 17 40 2 0 -6 42 -10 105 -10 58 0 105 -4 105 -9 0 -5 6 -16 14 -23 7 -8
21 -28 30 -46 19 -36 30 -18 -93 -149 -28 -29 -54 -53 -60 -53 -6 0 -11 -16
-11 -35 0 -36 18 -85 31 -85 10 0 30 -70 23 -81 -5 -9 -17 -163 -18 -247 -1
-28 -3 -52 -6 -52 -3 0 -6 -126 -7 -280 l-2 -280 24 0 c14 0 25 5 25 10 0 6 9
10 20 10 11 0 20 -4 20 -10 0 -5 9 -10 20 -10 13 0 21 -9 25 -27 3 -16 11 -41
17 -58 6 -16 16 -54 22 -82 9 -48 26 -73 26 -40 0 32 22 87 35 87 8 0 15 5 15
10 0 6 9 10 20 10 11 0 20 5 20 10 0 6 7 10 15 10 8 0 15 5 15 10 0 6 14 10
30 10 17 0 30 -4 30 -10 0 -5 14 -10 30 -10 17 0 30 -4 30 -10 0 -5 16 -10 35
-10 19 0 35 -4 35 -10 0 -15 40 -12 57 5 8 8 19 31 24 50 6 19 16 35 23 35 20
0 37 48 30 86 -3 19 -11 34 -16 34 -19 0 12 212 48 332 23 78 16 208 -12 208
-12 0 -14 46 -14 259 0 142 -3 286 -6 320 -6 52 -4 61 9 61 16 0 37 54 37 97
0 12 6 28 13 35 8 7 17 25 20 40 4 15 13 33 20 40 27 26 37 58 37 112 0 31 4
56 8 56 9 0 42 64 42 81 0 17 -27 39 -49 39 -12 0 -21 -4 -21 -10 0 -5 -20
-10 -45 -10 -25 0 -45 5 -45 10 0 6 -11 10 -24 10 -17 0 -27 -9 -36 -30 -7
-16 -18 -30 -25 -30 -19 0 -35 -46 -35 -100 0 -55 -16 -100 -37 -100 -7 0 -13
-4 -13 -10 0 -6 -30 -10 -70 -10 -40 0 -70 -4 -70 -10 0 -5 -18 -10 -40 -10
-22 0 -40 5 -40 10 0 6 -11 10 -25 10 -14 0 -25 5 -25 10 0 6 -9 10 -21 10
-24 0 -49 22 -49 43 0 18 -34 57 -49 57 -6 0 -11 9 -11 20 0 11 -7 20 -15 20
-8 0 -15 5 -15 10 0 15 -77 12 -84 -2 -5 -10 -7 -10 -12 0 -3 6 -11 12 -18 12
-6 0 -18 9 -26 20 -8 11 -20 20 -26 20 -6 0 -17 14 -24 30 -12 29 -15 30 -71
30 -33 0 -59 4 -59 10 0 6 -8 10 -18 10 -21 0 -42 38 -42 75 0 22 -4 25 -40
25 -22 0 -40 -4 -40 -10 0 -5 -20 -10 -45 -10 -25 0 -45 5 -45 10 0 6 -22 10
-50 10 -27 0 -50 5 -50 10 0 6 -16 10 -35 10 -19 0 -35 -4 -35 -10 0 -5 -11
-10 -25 -10 -14 0 -25 5 -25 10 0 6 -7 10 -15 10 -8 0 -15 5 -15 10 0 6 -4 10
-10 10 -5 0 -10 -9 -10 -20z"/>
<path fill="#ffffff" stroke="000000" stroke-width="0.01" d="M10900 8325 c0 -10 190 -195 200 -195
6 0 60 -49 120 -110 60 -60 114 -110 121 -110 6 0 24 -13 39 -30 15 -16 34
-30 42 -30 7 0 20 -9 28 -20 8 -11 21 -20 28 -20 8 0 27 -13 42 -30 15 -16 33
-30 40 -30 7 0 25 -14 41 -31 16 -18 32 -29 35 -26 8 7 -142 157 -157 157 -6
0 -24 14 -39 30 -15 17 -33 30 -40 30 -7 0 -25 14 -40 30 -15 17 -33 30 -40
30 -6 0 -29 18 -50 40 -21 22 -43 40 -50 40 -6 0 -55 45 -110 100 -55 55 -104
100 -110 100 -7 0 -29 18 -50 40 -36 37 -50 47 -50 35z"/>
</g>
</svg>
