<?xml version="1.0" standalone="no"?>
<!DOCTYPE svg PUBLIC "-//W3C//DTD SVG 20010904//EN"
 "http://www.w3.org/TR/2001/REC-SVG-20010904/DTD/svg10.dtd">
<svg version="1.0" xmlns="http://www.w3.org/2000/svg"
 width="3506.000000pt" height="3950.000000pt" viewBox="0 0 3506.000000 3950.000000"
 preserveAspectRatio="xMidYMid meet">
<metadata>
Created by potrace 1.15, written by Peter Selinger 2001-2017
</metadata>
<g transform="translate(0.000000,3950.000000) scale(0.100000,-0.100000)"
fill="#ffffff" stroke="000000" stroke-width="0.01">
<path fill="#ffffff" stroke="000000" stroke-width="0.01" d="M0 38590 l0 -910 40 -80 c22 -44 40
-89 40 -100 0 -12 6 -33 14 -48 30 -61 37 -123 20 -182 -31 -102 -34 -320 -4
-320 5 0 12 -9 15 -20 3 -11 11 -20 16 -20 24 0 69 -72 69 -110 0 -11 10 -32
23 -45 12 -13 28 -32 36 -41 8 -9 22 -62 33 -118 27 -147 27 -146 43 -146 8 0
15 -4 15 -9 0 -19 79 -91 99 -91 12 0 21 -4 21 -10 0 -5 9 -10 20 -10 13 0 20
-7 20 -20 0 -11 7 -20 15 -20 8 0 15 -4 15 -10 0 -5 7 -10 15 -10 8 0 15 -9
15 -20 0 -15 7 -20 26 -20 23 0 26 -3 21 -27 -5 -25 15 -81 33 -93 4 -3 15
-21 25 -40 21 -41 39 -60 57 -60 8 0 20 -9 28 -20 8 -11 19 -20 24 -20 9 0 30
-23 56 -60 8 -12 23 -31 33 -42 9 -12 17 -25 17 -30 0 -4 11 -8 25 -8 14 0 25
-4 25 -10 0 -5 10 -10 23 -10 12 0 29 -9 37 -20 8 -11 22 -20 32 -20 9 0 20
-9 23 -20 3 -11 12 -20 19 -20 8 0 19 -13 26 -30 7 -16 16 -30 19 -30 4 0 22
-31 41 -70 19 -38 40 -70 47 -70 9 0 11 -8 7 -26 -6 -25 -3 -44 30 -149 54
-176 66 -205 82 -205 8 0 14 -4 14 -10 0 -5 7 -10 15 -10 8 0 15 -4 15 -10 0
-5 5 -10 11 -10 12 0 89 -77 89 -89 0 -13 37 -51 49 -51 6 0 11 -4 11 -8 0 -5
8 -18 18 -30 9 -11 24 -30 32 -42 8 -12 20 -28 26 -34 6 -6 17 -32 24 -58 8
-27 17 -48 20 -48 4 0 19 -27 35 -60 16 -33 32 -60 36 -60 14 0 28 -57 32
-130 4 -79 22 -126 63 -166 13 -13 30 -24 37 -24 21 0 28 -25 21 -71 -5 -31
-3 -43 13 -57 10 -9 26 -41 36 -70 9 -29 28 -64 42 -78 21 -21 25 -34 25 -84
0 -41 5 -64 16 -75 13 -12 16 -34 15 -93 -1 -92 -12 -133 -43 -166 -13 -14
-34 -38 -48 -55 -14 -17 -29 -31 -33 -31 -12 0 -87 -79 -87 -91 0 -5 -11 -9
-24 -9 -16 0 -27 -7 -31 -20 -3 -11 -13 -20 -21 -20 -8 0 -14 -4 -14 -10 0 -5
-13 -10 -28 -10 -16 0 -34 -8 -42 -20 -8 -11 -20 -20 -27 -20 -7 0 -13 -4 -13
-10 0 -5 -7 -10 -15 -10 -8 0 -15 5 -15 10 0 6 -27 10 -60 10 -33 0 -60 -4
-60 -10 0 -5 -9 -10 -20 -10 -11 0 -20 5 -20 10 0 6 -9 10 -20 10 -11 0 -20 5
-20 10 0 6 -7 10 -15 10 -8 0 -15 5 -15 10 0 6 -7 10 -15 10 -8 0 -15 5 -15
10 0 6 -33 10 -80 10 -47 0 -80 -4 -80 -10 0 -5 -9 -10 -20 -10 -11 0 -20 -4
-20 -10 0 -5 -7 -10 -15 -10 -8 0 -15 -4 -15 -10 0 -5 -9 -10 -20 -10 -11 0
-20 -4 -20 -10 0 -5 -6 -10 -14 -10 -7 0 -19 -13 -26 -30 -8 -18 -20 -30 -31
-30 -11 0 -19 -4 -19 -10 0 -5 -11 -10 -25 -10 -14 0 -25 -4 -25 -10 0 -5 -9
-10 -20 -10 -11 0 -20 -4 -20 -10 0 -5 -16 -10 -35 -10 -19 0 -35 -4 -35 -10
0 -5 -16 -10 -35 -10 -19 0 -35 -4 -35 -10 0 -5 -11 -10 -25 -10 -14 0 -25 -4
-25 -10 0 -5 -7 -10 -15 -10 -8 0 -15 -4 -15 -10 0 -5 -8 -10 -18 -10 -10 0
-24 -9 -32 -20 -8 -11 -25 -20 -37 -20 -13 0 -23 -4 -23 -10 0 -5 -11 -10 -25
-10 -14 0 -25 -4 -25 -10 0 -5 -13 -10 -28 -10 -16 0 -34 -8 -42 -20 -8 -11
-20 -20 -27 -20 -7 0 -13 -4 -13 -10 0 -5 -6 -10 -13 -10 -7 0 -19 -9 -27 -20
-8 -11 -22 -20 -32 -20 -10 0 -18 -4 -18 -10 0 -5 -5 -10 -11 -10 -14 0 -39
-26 -39 -40 0 -7 -13 -24 -29 -39 -15 -14 -36 -42 -46 -60 -9 -19 -21 -39 -26
-45 -40 -48 -49 -60 -49 -68 0 -4 -18 -8 -40 -8 -25 0 -40 5 -40 13 0 8 -4 7
-10 -3 -6 -10 -10 -4169 -10 -11688 l0 -11673 25 -24 c13 -14 27 -25 30 -25 9
0 72 -65 84 -88 6 -11 11 -31 11 -44 1 -13 12 -54 26 -93 48 -131 48 -186 1
-227 -14 -13 -18 -24 -13 -43 4 -14 11 -25 16 -25 20 0 9 -71 -20 -132 -16
-35 -34 -82 -40 -105 -6 -22 -24 -56 -40 -73 -16 -17 -34 -51 -40 -73 -6 -23
-17 -63 -25 -89 -12 -39 -15 -142 -15 -597 l0 -551 65 0 c37 0 65 4 65 10 0 6
7 10 15 10 8 0 15 5 15 10 0 6 7 10 15 10 8 0 15 5 15 10 0 6 7 10 15 10 8 0
15 5 15 10 0 6 14 10 30 10 17 0 30 5 30 10 0 6 16 10 35 10 19 0 35 5 35 10
0 6 7 10 15 10 8 0 15 5 15 10 0 6 16 10 35 10 19 0 35 5 35 10 0 6 11 10 25
10 14 0 25 5 25 10 0 6 11 10 25 10 14 0 25 5 25 11 0 6 13 -3 29 -20 16 -17
32 -31 36 -31 4 0 19 -13 35 -30 39 -42 49 -142 20 -199 -11 -22 -20 -45 -20
-51 0 -21 28 -40 59 -40 27 0 31 -3 31 -27 -1 -27 -29 -90 -30 -65 0 6 -9 12
-20 12 -11 0 -20 5 -20 10 0 6 -6 10 -14 10 -10 0 -15 -24 -18 -103 -5 -103
-20 -157 -45 -157 -7 0 -13 -4 -13 -10 0 -5 -7 -10 -16 -10 -27 0 -44 -27 -44
-70 0 -40 17 -70 39 -70 6 0 11 -4 11 -10 0 -5 6 -10 13 -10 18 0 47 -63 47
-101 0 -33 -19 -59 -44 -59 -9 0 -16 -4 -16 -10 0 -5 -5 -10 -11 -10 -6 0 -32
-24 -60 -52 -27 -29 -62 -68 -79 -85 -17 -18 -35 -44 -42 -58 -6 -14 -16 -25
-22 -25 -7 0 -18 -9 -26 -20 -8 -11 -20 -20 -27 -20 -7 0 -13 -4 -13 -10 0 -5
-9 -10 -20 -10 -11 0 -20 -4 -20 -10 0 -5 -7 -10 -15 -10 -8 0 -15 -4 -15 -10
0 -5 -5 -10 -11 -10 -6 0 -17 -7 -25 -15 -16 -15 -7 -43 23 -73 7 -7 13 -20
13 -27 0 -8 10 -35 22 -60 19 -40 26 -45 55 -45 18 0 33 -4 33 -10 0 -5 14
-10 31 -10 50 0 69 -30 69 -109 -1 -38 -7 -77 -15 -91 -8 -14 -14 -41 -15 -61
0 -32 -6 -45 -50 -96 -23 -27 -11 -43 31 -43 69 0 65 14 71 -292 2 -93 6 -168
9 -168 10 0 41 -76 41 -101 0 -13 -8 -45 -17 -71 -14 -39 -22 -48 -41 -48 -13
0 -24 -4 -24 -10 0 -5 -20 -10 -45 -10 -25 0 -45 -4 -45 -10 0 -5 -7 -10 -15
-10 -8 0 -15 -4 -15 -10 0 -5 -5 -10 -11 -10 -13 0 -49 -38 -49 -51 0 -4 -6
-14 -14 -21 -7 -8 -21 -29 -31 -48 -20 -39 -39 -60 -54 -60 -6 0 -11 -4 -11
-10 0 -5 -7 -10 -16 -10 -16 0 -74 -55 -74 -70 0 -4 -9 -17 -20 -30 -19 -22
-20 -37 -20 -417 0 -267 4 -401 11 -415 6 -11 40 -49 75 -84 35 -35 67 -76 70
-91 11 -47 55 -126 85 -154 16 -14 36 -48 44 -75 28 -85 37 -104 51 -104 8 0
14 -4 14 -10 0 -5 7 -10 15 -10 8 0 15 -4 15 -10 0 -5 6 -10 13 -10 27 0 49
-73 58 -190 11 -142 21 -170 60 -170 16 0 29 -4 29 -10 0 -5 7 -10 15 -10 8 0
15 -4 15 -10 0 -5 7 -10 15 -10 8 0 15 -4 15 -10 0 -5 7 -10 15 -10 8 0 15 -4
15 -10 0 -5 6 -10 13 -10 7 0 19 -9 27 -20 11 -15 26 -20 63 -20 29 0 54 -6
63 -14 26 -27 12 -179 -19 -211 -35 -34 -47 -150 -26 -243 17 -76 33 -126 44
-138 5 -6 17 -21 25 -33 8 -11 18 -21 23 -21 11 0 67 -59 67 -70 0 -12 37 -50
49 -50 6 0 11 -4 11 -10 0 -5 6 -10 13 -10 7 0 19 -9 27 -20 8 -11 20 -20 27
-20 7 0 13 -4 13 -10 0 -5 7 -10 15 -10 8 0 15 -4 15 -10 0 -6 27 -10 60 -10
33 0 60 -4 60 -10 0 -5 7 -10 15 -10 8 0 15 -4 15 -10 0 -5 7 -10 15 -10 8 0
15 -4 15 -10 0 -5 14 -10 30 -10 17 0 30 -4 30 -9 0 -16 58 -71 74 -71 9 0 16
-4 16 -10 0 -5 7 -10 15 -10 8 0 15 -4 15 -10 0 -5 19 -10 43 -10 41 0 44 -2
64 -44 12 -24 28 -73 35 -108 7 -34 16 -67 20 -73 5 -5 17 -21 28 -34 11 -13
20 -27 20 -31 0 -4 10 -18 21 -31 20 -22 21 -32 15 -124 -6 -110 5 -179 48
-308 l26 -78 -24 -47 c-23 -46 -26 -102 -5 -102 13 0 11 -148 -3 -173 -6 -12
-13 -47 -14 -77 -2 -30 -6 -65 -10 -77 l-6 -23 1885 0 1885 0 6 27 c3 16 13
70 21 122 13 73 27 116 67 195 28 55 54 103 58 106 4 3 17 25 30 49 12 25 29
51 36 59 16 16 17 20 14 95 l-2 57 65 0 c57 0 67 3 72 20 3 11 13 20 21 20 8
0 14 5 14 10 0 6 7 10 15 10 8 0 15 5 15 10 0 6 5 10 11 10 22 0 39 31 41 74
1 26 5 46 9 46 3 0 11 10 17 23 6 12 11 16 11 10 1 -8 15 -13 36 -13 19 0 35
-4 35 -10 0 -5 7 -10 15 -10 8 0 15 -4 15 -10 0 -18 45 -10 60 10 8 11 18 20
23 20 11 0 52 42 66 68 15 28 14 48 -3 64 -12 13 -46 72 -46 81 0 9 38 47 46
47 5 0 16 9 24 20 8 11 19 20 24 20 10 0 46 39 46 52 0 4 6 8 14 8 7 0 19 13
26 30 7 16 16 30 20 30 4 0 10 25 13 57 3 31 10 59 14 62 5 3 15 26 23 51 17
55 38 99 56 118 18 18 18 56 -1 92 -12 23 -13 34 -3 55 6 14 17 25 25 25 7 0
13 5 13 10 0 6 15 10 34 10 33 0 46 13 46 45 0 8 -22 37 -50 65 -42 43 -50 58
-52 93 -4 78 1 106 27 158 27 53 34 63 72 103 29 32 63 101 80 161 16 62 1
135 -29 135 -10 0 -18 5 -18 10 0 6 -9 10 -20 10 -16 0 -20 7 -20 33 0 59 -18
95 -74 151 -31 31 -59 56 -64 56 -4 0 -14 9 -22 20 -8 11 -20 20 -27 20 -7 0
-13 4 -13 8 0 13 -36 52 -46 52 -5 0 -16 9 -24 20 -8 11 -20 20 -27 20 -7 0
-13 5 -13 10 0 6 -7 10 -15 10 -8 0 -15 5 -15 10 0 6 -7 10 -15 10 -8 0 -15 5
-15 10 0 6 -7 10 -15 10 -8 0 -15 5 -15 10 0 6 -7 10 -15 10 -8 0 -15 5 -15
10 0 6 -6 10 -13 10 -7 0 -19 9 -27 20 -8 11 -18 20 -23 20 -13 0 -54 45 -72
79 -15 31 -158 181 -171 181 -3 0 -19 14 -34 30 -15 17 -31 30 -34 30 -8 0
-40 27 -82 68 -18 17 -36 32 -39 32 -3 0 -37 32 -75 70 -38 38 -72 70 -76 70
-17 0 -42 44 -53 96 -7 32 -18 63 -25 70 -6 7 -21 26 -34 41 -12 15 -31 39
-42 52 -14 17 -20 39 -20 73 0 45 -2 48 -25 48 -14 0 -25 5 -25 10 0 6 -9 10
-20 10 -14 0 -22 10 -30 38 -9 34 -18 49 -60 99 -9 11 -22 37 -71 151 -12 28
-28 52 -36 52 -7 0 -13 5 -13 10 0 6 -17 10 -38 10 -35 0 -40 3 -60 45 -14 29
-22 64 -22 96 0 55 -15 79 -50 79 -26 0 -65 37 -73 71 -7 26 -39 69 -51 69
-28 0 -66 112 -73 218 l-5 62 -44 0 c-24 0 -44 5 -44 10 0 6 -5 10 -11 10 -16
0 -44 34 -59 70 -7 17 -16 30 -20 30 -4 0 -15 18 -25 40 -10 22 -22 40 -26 40
-5 0 -13 19 -19 43 -13 51 -61 157 -71 157 -11 0 -29 68 -29 107 0 24 -11 43
-49 82 -27 28 -53 51 -57 51 -4 0 -15 10 -25 22 -16 18 -19 38 -19 140 0 75
-4 118 -10 118 -6 0 -22 11 -35 25 -19 18 -25 35 -25 68 0 41 -27 184 -50 266
-8 27 -6 53 6 107 17 69 16 76 -5 195 -13 68 -27 140 -32 159 -5 19 -9 76 -9
125 -1 88 -13 193 -45 385 -8 52 -20 124 -25 160 -25 159 -42 245 -54 269 -8
14 -17 49 -20 76 -4 28 -14 77 -22 109 -15 57 -15 62 6 110 46 105 50 117 50
140 0 13 9 33 20 46 11 12 22 31 25 41 4 11 10 19 14 19 5 0 14 13 21 30 7 16
16 30 20 30 4 0 13 14 20 30 7 17 19 30 26 30 8 0 14 5 14 10 0 6 5 10 11 10
24 0 39 30 39 80 0 49 15 80 38 80 14 0 22 26 22 74 0 29 7 51 20 66 11 13 20
34 20 47 0 24 -63 157 -85 179 -6 7 -15 52 -19 100 -7 81 -22 131 -50 160 -6
6 -18 22 -26 34 -8 12 -20 28 -26 34 -26 28 -33 61 -37 172 -2 75 -9 128 -17
144 -9 15 -14 59 -15 115 0 84 -24 191 -47 220 -5 6 -17 20 -27 33 -25 30 -34
57 -62 181 -16 72 -30 111 -45 126 -14 14 -24 39 -27 71 -7 74 -76 253 -111
290 -6 6 -18 22 -26 34 -8 13 -29 37 -46 55 -18 18 -37 43 -44 55 -15 28 -25
40 -67 85 -28 29 -33 43 -38 102 -8 78 -22 123 -40 123 -21 0 -26 29 -11 58
23 46 28 91 15 145 -6 29 -15 54 -19 57 -4 3 -22 34 -40 70 -18 36 -36 67 -40
70 -4 3 -24 39 -45 80 -21 41 -41 77 -44 80 -4 3 -15 31 -25 62 -11 35 -24 58
-32 58 -8 0 -14 5 -14 10 0 6 -5 10 -10 10 -6 0 -22 11 -35 25 -21 20 -25 34
-25 82 0 63 23 162 39 173 6 3 12 28 15 55 2 28 4 53 5 58 1 4 10 7 21 7 11 0
20 5 20 10 0 6 14 10 30 10 25 0 30 4 30 24 0 31 -10 56 -22 56 -35 0 -60 86
-33 113 15 16 14 19 -9 42 -14 14 -30 25 -36 25 -5 0 -10 5 -10 10 0 18 -45
10 -60 -10 -8 -11 -20 -20 -27 -20 -7 0 -13 -4 -13 -10 0 -5 -25 -10 -55 -10
-30 0 -55 5 -55 10 0 6 -9 10 -20 10 -11 0 -20 5 -20 10 0 6 -22 10 -49 10
-41 0 -51 3 -56 21 l-7 20 -18 -20 c-9 -12 -22 -21 -27 -21 -6 0 -16 -14 -23
-30 -9 -21 -19 -30 -36 -30 -13 0 -24 -4 -24 -10 0 -5 -11 -10 -25 -10 -14 0
-25 5 -25 10 0 6 -6 10 -13 10 -26 0 -139 270 -117 278 18 7 15 14 -39 78 -36
44 -68 156 -76 269 -4 64 -31 135 -50 135 -16 0 -46 66 -39 85 4 10 0 15 -10
15 -18 0 -18 5 -21 165 -1 73 -6 109 -18 132 -19 36 -21 73 -7 122 7 24 5 44
-5 74 -12 36 -12 44 5 76 10 20 16 48 13 61 -5 26 24 70 46 70 6 0 11 5 11 10
0 6 16 10 35 10 19 0 35 5 35 10 0 14 28 12 33 -2 9 -27 19 76 12 132 l-7 60
55 0 c50 0 55 2 65 28 6 15 14 82 18 149 3 68 10 123 14 123 4 0 13 14 20 30
7 16 16 30 20 30 4 0 15 18 25 40 12 26 25 40 37 40 10 0 18 5 18 10 0 6 11
10 25 10 14 0 25 5 25 10 0 6 9 10 20 10 11 0 20 5 20 10 0 6 7 10 15 10 8 0
15 5 15 10 0 6 8 10 18 10 12 0 25 14 37 40 10 22 24 40 32 40 7 0 13 5 13 10
0 6 5 10 10 10 14 0 60 46 60 60 0 15 30 71 46 88 8 7 14 17 14 22 0 13 77 90
89 90 6 0 11 5 11 10 0 6 8 10 18 10 10 0 24 9 32 20 15 21 80 29 80 10 0 -5
11 -10 24 -10 16 0 27 -7 31 -20 3 -11 10 -20 15 -20 5 0 11 -8 15 -19 11 -37
41 -61 76 -61 23 0 39 -7 49 -20 15 -21 40 -27 40 -10 0 6 9 10 20 10 11 0 20
5 20 10 0 6 16 10 35 10 19 0 35 5 35 10 0 6 8 10 18 10 10 0 24 9 32 20 18
26 52 26 70 0 15 -21 40 -27 40 -10 0 6 10 10 21 10 28 0 47 23 88 109 19 39
39 71 44 71 10 0 52 44 77 79 8 12 22 21 32 21 10 0 18 5 18 10 0 6 13 10 28
10 16 0 34 8 42 20 8 11 19 20 25 20 6 0 17 9 25 20 8 11 18 20 23 20 7 0 78
71 114 114 7 8 10 22 7 30 -3 9 -1 16 5 16 5 0 15 19 21 43 33 124 65 211 86
232 7 6 26 40 44 75 37 74 35 71 127 165 76 78 103 119 103 158 0 21 8 34 50
84 5 7 10 21 10 32 0 27 10 51 22 51 26 0 58 73 64 144 1 23 8 69 15 104 10
52 9 70 -3 110 -12 37 -13 62 -6 121 9 63 15 78 42 105 26 26 34 46 45 111 8
44 18 84 23 90 5 5 17 20 26 32 10 12 27 40 37 63 10 22 22 40 27 40 15 0 58
48 58 65 0 8 5 15 10 15 6 0 10 -4 10 -10 0 -5 11 -10 25 -10 14 0 25 -4 25
-10 0 -5 7 -10 15 -10 8 0 15 -4 15 -10 0 -24 38 -8 50 20 12 28 50 44 50 20
0 -5 7 -10 15 -10 8 0 15 -4 15 -10 0 -5 9 -10 21 -10 12 0 34 -13 49 -30 15
-16 33 -30 39 -30 6 0 11 -4 11 -10 0 -5 9 -10 20 -10 11 0 20 -4 20 -10 0 -5
8 -10 19 -10 11 0 23 -12 31 -30 8 -18 20 -30 31 -30 11 0 19 -4 19 -10 0 -5
11 -10 25 -10 14 0 25 -4 25 -10 0 -5 16 -10 35 -10 19 0 35 -4 35 -10 0 -5
14 -10 30 -10 17 0 30 -4 30 -10 0 -5 9 -10 21 -10 25 0 41 -15 64 -60 10 -19
22 -38 27 -41 11 -7 48 -103 58 -151 4 -21 4 -55 0 -77 -11 -61 -1 -172 20
-223 47 -112 64 -148 71 -148 4 0 10 -8 14 -19 3 -10 13 -28 23 -39 9 -11 24
-30 32 -41 8 -12 20 -21 27 -21 7 0 13 -4 13 -10 0 -5 6 -10 14 -10 16 0 26
-21 26 -53 0 -12 5 -29 10 -37 9 -13 11 -13 19 0 5 8 7 26 5 40 -9 44 54 95
69 56 3 -8 3 -23 0 -34 -6 -23 19 -75 53 -109 13 -13 24 -28 24 -33 0 -6 6
-10 14 -10 8 0 18 -9 21 -20 3 -11 15 -20 26 -20 10 0 19 -4 19 -10 0 -21 18
-9 30 20 13 31 53 43 63 18 4 -10 6 -10 6 0 1 6 6 12 12 12 6 0 32 23 59 50
27 28 52 50 56 50 12 0 40 38 59 80 10 22 22 40 27 40 4 0 8 9 8 20 0 11 3 20
8 20 4 0 12 15 18 32 7 18 16 47 22 63 6 17 18 54 26 83 9 29 21 59 28 67 32
36 37 46 48 96 24 114 30 199 24 324 -6 127 4 215 26 215 5 0 11 10 15 23 12
44 38 97 48 97 13 0 45 37 52 61 4 13 16 19 36 19 16 0 29 5 29 10 0 6 9 10
19 10 11 0 22 6 24 13 4 10 6 10 6 0 1 -8 15 -13 36 -13 19 0 35 -4 35 -10 0
-5 20 -10 45 -10 25 0 45 -4 45 -10 0 -5 7 -10 15 -10 8 0 15 -4 15 -10 0 -5
7 -10 15 -10 8 0 15 -4 15 -9 0 -5 7 -16 15 -24 17 -17 39 -75 65 -169 17 -63
37 -98 57 -98 5 0 15 -9 23 -20 8 -11 19 -20 26 -20 11 0 34 41 34 61 0 16 27
39 44 39 9 0 16 -4 16 -10 0 -5 9 -10 20 -10 11 0 20 -4 20 -10 0 -5 6 -10 13
-10 7 0 19 -9 27 -20 8 -11 20 -20 27 -20 7 0 13 -4 13 -10 0 -5 5 -10 11 -10
24 0 50 -40 74 -116 30 -90 37 -104 56 -104 11 0 19 -4 19 -10 0 -5 14 -10 30
-10 17 0 30 5 30 10 0 6 14 10 31 10 49 0 62 22 67 115 4 66 0 97 -18 154 -12
39 -28 78 -36 85 -16 17 -19 83 -3 88 14 5 0 38 -17 38 -9 0 -14 11 -14 30 0
23 -16 46 -80 110 -43 44 -82 80 -86 80 -3 0 -19 14 -34 30 -15 17 -31 30 -35
30 -4 0 -20 14 -35 30 -15 17 -38 30 -50 30 -21 0 -60 33 -60 52 0 4 -7 8 -15
8 -8 0 -15 5 -15 10 0 6 -9 10 -20 10 -11 0 -20 5 -20 10 0 6 -9 10 -20 10
-11 0 -20 5 -20 10 0 6 -13 10 -30 10 -16 0 -30 5 -30 10 0 6 -7 10 -15 10 -8
0 -15 5 -15 10 0 6 -7 10 -15 10 -20 0 -139 119 -160 160 -19 36 -99 120 -115
120 -5 0 -10 5 -10 10 0 6 -9 10 -20 10 -11 0 -20 5 -20 10 0 6 -7 10 -16 10
-22 0 -41 21 -48 57 -5 23 -1 44 18 82 29 57 32 98 10 156 -9 22 -18 50 -21
63 -4 18 -12 22 -44 22 -24 0 -39 5 -39 13 0 8 -4 7 -10 -3 -8 -12 -11 -13
-19 -1 -7 11 -9 11 -14 0 -4 -10 -6 -10 -6 -1 -1 8 -18 12 -51 12 -27 0 -50 5
-50 10 0 6 -6 10 -14 10 -8 0 -18 9 -21 20 -3 11 -11 20 -16 20 -5 0 -9 8 -9
18 0 11 -9 29 -20 42 -11 13 -20 27 -20 32 0 4 -7 8 -15 8 -8 0 -15 5 -15 10
0 6 -5 10 -10 10 -6 0 -42 32 -80 70 -41 41 -77 70 -90 70 -11 0 -20 5 -20 10
0 6 -7 10 -15 10 -8 0 -15 5 -15 10 0 6 -11 10 -24 10 -16 0 -27 7 -31 20 -6
20 -35 28 -35 10 0 -5 -11 -10 -25 -10 -14 0 -25 5 -25 10 0 6 -8 10 -18 10
-10 0 -24 9 -32 20 -8 11 -20 20 -27 20 -7 0 -13 5 -13 10 0 6 -7 10 -15 10
-8 0 -15 5 -15 10 0 6 -5 10 -11 10 -6 0 -24 14 -39 30 -24 26 -35 30 -79 30
-28 0 -51 -4 -51 -10 0 -5 -7 -10 -15 -10 -8 0 -15 -4 -15 -10 0 -5 -9 -10
-20 -10 -11 0 -20 -4 -20 -10 0 -5 -13 -10 -30 -10 -16 0 -30 -4 -30 -10 0 -6
-30 -10 -70 -10 -40 0 -70 -4 -70 -10 0 -5 -11 -10 -25 -10 -14 0 -25 -4 -25
-10 0 -5 -9 -10 -20 -10 -11 0 -20 -4 -20 -10 0 -5 -13 -10 -28 -10 -16 0 -34
-8 -42 -20 -8 -11 -20 -20 -27 -20 -7 0 -13 -4 -13 -10 0 -5 -6 -10 -13 -10
-7 0 -19 -9 -27 -20 -8 -11 -22 -20 -32 -20 -10 0 -18 -4 -18 -10 0 -5 -7 -10
-16 -10 -9 0 -26 -10 -37 -23 -13 -15 -21 -18 -24 -9 -5 14 -43 16 -43 2 0 -5
-7 -10 -15 -10 -8 0 -15 -4 -15 -10 0 -5 -22 -10 -50 -10 -27 0 -50 -4 -50
-10 0 -5 -9 -10 -20 -10 -11 0 -20 5 -20 10 0 15 -197 13 -204 -2 -5 -10 -7
-10 -12 0 -3 6 -12 12 -20 12 -8 0 -14 5 -14 10 0 6 -9 10 -20 10 -11 0 -20 5
-20 10 0 6 -11 10 -25 10 -14 0 -25 5 -25 10 0 6 -11 10 -25 10 -14 0 -25 5
-25 10 0 6 -13 10 -30 10 -16 0 -30 5 -30 10 0 6 -6 10 -13 10 -7 0 -19 9 -27
20 -8 11 -19 20 -24 20 -12 0 -44 38 -51 61 -4 11 -13 19 -21 19 -8 0 -14 5
-14 10 0 6 -6 10 -13 10 -7 0 -19 10 -27 21 -8 12 -31 39 -50 60 -52 57 -56
63 -75 99 -9 17 -35 52 -58 75 -58 60 -64 69 -84 109 -9 20 -23 36 -30 36 -7
0 -13 5 -13 10 0 6 -6 10 -13 10 -7 0 -19 9 -27 20 -8 11 -20 20 -27 20 -7 0
-13 4 -13 8 0 5 -8 18 -17 30 -10 11 -25 30 -33 42 -13 20 -47 57 -140 157
-16 18 -30 39 -30 48 0 8 -5 15 -11 15 -6 0 -28 18 -49 40 -21 22 -43 40 -49
40 -6 0 -11 5 -11 10 0 6 -7 10 -15 10 -8 0 -15 5 -15 10 0 6 -13 10 -30 10
-16 0 -30 5 -30 10 0 6 -9 10 -20 10 -11 0 -20 5 -20 10 0 6 -9 10 -20 10 -11
0 -20 5 -20 10 0 6 -6 10 -13 10 -7 0 -19 9 -27 20 -8 11 -18 20 -23 20 -5 0
-26 18 -47 40 -21 22 -46 40 -54 40 -9 0 -16 5 -16 10 0 6 -7 10 -15 10 -8 0
-15 5 -15 10 0 6 -11 10 -25 10 -14 0 -25 5 -25 10 0 6 -7 10 -15 10 -8 0 -15
5 -15 10 0 6 -9 10 -20 10 -11 0 -20 5 -20 10 0 6 -7 10 -15 10 -8 0 -15 5
-15 10 0 6 -9 10 -20 10 -11 0 -20 5 -20 10 0 6 -7 10 -15 10 -8 0 -15 5 -15
10 0 6 -22 10 -49 10 -45 0 -50 2 -61 30 -13 31 -34 40 -43 18 -4 -10 -6 -10
-6 0 -1 6 -10 12 -21 12 -11 0 -20 5 -20 10 0 6 -9 10 -20 10 -11 0 -20 5 -20
10 0 6 -11 10 -25 10 -14 0 -25 5 -25 10 0 6 -7 10 -15 10 -20 0 -119 99 -140
140 -9 18 -27 43 -39 56 -11 12 -31 35 -44 51 -12 15 -30 38 -40 50 -9 11 -24
31 -32 42 -8 12 -18 21 -23 21 -5 0 -22 14 -37 30 -15 17 -33 30 -39 30 -6 0
-11 5 -11 10 0 6 -7 10 -15 10 -8 0 -15 5 -15 10 0 6 -5 10 -11 10 -20 0 -36
25 -43 69 -7 49 -25 71 -55 71 -12 0 -21 5 -21 10 0 6 -9 10 -20 10 -11 0 -20
5 -20 10 0 6 -7 10 -15 10 -8 0 -15 5 -15 10 0 6 -9 10 -20 10 -11 0 -20 5
-20 10 0 6 -9 10 -20 10 -11 0 -20 5 -20 10 0 6 -9 10 -20 10 -11 0 -20 5 -20
10 0 6 -6 10 -14 10 -8 0 -18 9 -21 20 -3 11 -10 20 -14 20 -5 0 -14 14 -21
30 -7 17 -18 30 -24 30 -6 0 -18 9 -26 20 -8 11 -25 20 -37 20 -13 0 -23 5
-23 10 0 6 -16 10 -36 10 -29 0 -44 -8 -84 -50 -27 -27 -53 -50 -59 -50 -6 0
-11 -4 -11 -10 0 -5 -14 -10 -31 -10 -31 0 -46 11 -79 60 -32 47 -69 80 -89
80 -12 0 -21 5 -21 10 0 6 -9 10 -20 10 -11 0 -20 5 -20 10 0 6 -7 10 -15 10
-8 0 -15 5 -15 10 0 6 -9 10 -20 10 -11 0 -20 5 -20 10 0 6 -7 10 -15 10 -8 0
-15 5 -15 10 0 6 -5 10 -11 10 -23 0 -41 30 -34 59 4 19 -5 60 -30 132 -20 57
-40 129 -45 159 -9 52 -20 86 -61 178 -27 60 -24 132 5 132 6 0 18 9 26 20 8
11 20 20 27 20 11 0 20 24 39 105 8 36 32 84 50 102 7 8 18 31 24 53 6 22 17
45 24 53 46 45 73 181 43 211 -9 9 -22 16 -29 16 -7 0 -24 14 -38 31 -48 58
-119 129 -129 129 -5 0 -12 6 -14 13 -4 9 -8 8 -17 -3 -9 -11 -13 -12 -17 -2
-2 6 -20 12 -39 12 -19 0 -34 5 -34 10 0 6 -25 10 -55 10 -30 0 -55 5 -55 10
0 6 -5 10 -11 10 -25 0 -70 76 -84 140 -4 19 -32 83 -61 142 -90 180 -116 272
-96 349 12 49 -1 85 -50 130 -25 24 -29 37 -35 103 -3 47 -12 84 -22 96 -41
49 -52 67 -58 90 -3 14 -14 32 -22 40 -9 8 -27 47 -39 85 l-23 70 21 55 c12
30 24 64 28 75 6 21 26 45 37 45 10 0 65 60 65 70 0 5 6 15 14 22 33 34 59
105 64 176 l5 72 -27 0 c-14 0 -26 -4 -26 -10 0 -5 -25 -10 -55 -10 -30 0 -55
-4 -55 -10 0 -5 -15 -10 -34 -10 -30 0 -34 4 -40 31 -3 17 -6 39 -6 49 0 18
51 80 65 80 7 0 45 39 45 47 0 25 -66 120 -121 174 -38 37 -69 73 -69 79 0 6
18 46 39 89 36 71 41 92 56 217 9 77 17 156 18 177 1 28 5 37 19 37 10 0 18 5
18 10 0 6 9 10 20 10 11 0 20 5 20 10 0 6 7 10 15 10 8 0 15 5 15 10 0 6 9 10
20 10 11 0 20 5 20 10 0 6 11 10 25 10 14 0 25 5 25 10 0 14 19 12 34 -3 8 -7
21 -28 31 -47 10 -19 24 -40 31 -48 16 -15 18 -32 5 -32 -19 0 -22 -42 -7 -93
8 -29 17 -64 21 -79 3 -15 16 -38 30 -52 14 -14 25 -30 25 -35 0 -10 8 -30 51
-128 19 -44 20 -57 11 -78 -7 -14 -12 -46 -12 -70 0 -38 -6 -50 -36 -80 -20
-20 -33 -39 -29 -43 4 -4 10 -1 12 6 3 6 16 12 29 12 13 0 24 5 24 10 0 6 57
10 150 10 93 0 150 -4 150 -10 0 -35 77 35 110 101 12 23 29 49 37 58 11 11
14 27 9 58 -6 43 14 102 48 140 44 50 52 67 66 142 6 35 19 82 30 105 10 22
28 66 41 95 13 30 34 65 46 77 36 36 84 142 89 197 8 78 12 91 34 118 11 13
24 29 28 35 5 5 15 21 22 34 7 14 19 31 27 38 19 19 16 45 -7 72 -11 13 -20
29 -20 37 0 17 67 152 84 169 7 7 18 27 25 46 7 18 21 52 32 76 22 50 23 78 4
112 -17 30 -18 40 -4 40 14 0 39 26 39 40 0 12 24 40 35 40 4 0 13 7 22 15 14
14 14 21 -2 71 -17 55 -17 57 5 104 13 28 20 55 16 68 -4 11 1 78 10 149 13
101 23 141 46 188 17 33 34 62 38 65 4 3 13 16 20 29 14 27 19 33 60 80 27 30
60 42 60 21 0 -5 11 -10 25 -10 14 0 25 -4 25 -10 0 -5 7 -10 15 -10 8 0 15
-4 15 -9 0 -5 13 -23 29 -40 27 -29 34 -31 94 -31 43 0 67 -4 69 -12 4 -10 9
-9 20 3 29 28 48 78 58 150 6 39 12 75 15 79 2 3 11 56 20 116 16 114 24 141
82 265 33 71 35 82 29 135 -10 78 -10 75 -1 179 4 50 18 123 31 163 13 40 24
79 24 87 0 19 115 135 134 135 9 0 16 5 16 10 0 6 7 10 15 10 8 0 15 5 15 10
0 6 9 10 20 10 11 0 20 5 20 10 0 6 11 10 25 10 14 0 25 5 25 10 0 6 14 10 30
10 17 0 30 5 30 10 0 6 8 10 18 10 10 0 24 9 32 20 13 18 26 20 112 20 59 0
98 4 98 10 0 6 9 10 20 10 11 0 20 5 20 10 0 6 9 10 20 10 11 0 20 7 20 15 0
8 7 31 16 52 50 116 64 152 76 188 7 22 28 55 46 73 21 21 32 42 32 61 0 16 3
43 6 60 6 31 7 31 24 11 10 -11 25 -20 34 -20 9 0 16 -4 16 -10 0 -5 14 -10
30 -10 17 0 30 -4 30 -10 0 -5 8 -10 19 -10 11 0 23 -12 31 -30 7 -16 16 -30
21 -30 4 0 11 -9 14 -21 l7 -20 18 21 c10 11 23 34 30 50 9 21 19 30 35 30 16
0 26 9 35 30 7 17 19 30 26 30 8 0 14 5 14 10 0 6 5 10 11 10 14 0 39 26 39
40 0 14 49 110 65 126 6 7 18 26 25 43 7 19 20 31 31 31 19 0 39 51 39 103 0
29 20 57 39 57 6 0 11 5 11 10 0 6 7 10 16 10 8 0 22 7 31 15 12 13 13 23 5
57 -9 36 -8 43 11 63 31 33 57 68 57 77 0 4 8 8 18 8 10 0 24 9 32 20 8 11 18
20 23 20 5 0 22 14 37 30 19 21 37 30 59 30 17 0 31 -4 31 -10 0 -5 6 -10 14
-10 8 0 18 -9 21 -20 3 -11 13 -20 21 -20 8 0 14 -4 14 -10 0 -5 20 -10 45
-10 44 0 44 0 39 -30 -6 -26 -4 -30 15 -30 11 0 21 -4 21 -10 0 -5 16 -10 35
-10 19 0 35 -4 35 -10 0 -5 14 -10 30 -10 17 0 30 5 30 10 0 6 7 10 15 10 8 0
15 5 15 10 0 6 16 10 35 10 19 0 35 5 35 10 0 6 30 10 70 10 40 0 70 4 70 10
0 6 11 10 25 10 14 0 25 5 25 10 0 6 9 10 20 10 11 0 20 4 20 8 0 8 11 23 50
69 5 7 17 28 27 47 10 22 24 36 35 36 10 0 18 5 18 10 0 6 11 10 25 10 14 0
25 5 25 10 0 6 11 10 25 10 14 0 25 5 25 10 0 6 8 10 18 10 11 0 25 15 36 38
32 64 35 88 20 132 -14 40 -14 41 20 75 19 19 37 43 41 55 3 11 12 20 19 20 7
0 23 22 36 50 13 27 27 50 32 50 5 0 15 6 22 13 27 27 38 62 40 127 2 74 17
100 58 100 13 0 30 9 38 20 8 11 20 20 27 20 7 0 13 5 13 10 0 6 11 10 25 10
14 0 25 5 25 10 0 6 7 10 15 10 8 0 15 7 15 15 0 9 15 31 34 50 19 19 37 43
41 55 3 11 15 20 26 20 23 0 23 -6 -1 60 -11 30 -20 56 -20 57 0 2 -13 3 -30
3 -16 0 -30 5 -30 10 0 6 -11 10 -25 10 -14 0 -25 5 -25 10 0 6 -11 10 -25 10
-14 0 -25 2 -25 5 0 9 42 90 50 95 8 6 29 111 39 200 4 39 18 86 34 117 24 47
27 63 27 155 0 92 2 105 20 118 24 17 27 86 6 128 -7 15 -16 44 -19 65 l-6 37
40 0 c21 0 39 -4 39 -10 0 -5 6 -10 14 -10 21 0 28 65 15 135 -6 33 -14 107
-18 165 -7 102 -15 140 -31 140 -4 0 -5 39 -3 88 5 77 3 90 -15 110 -11 12
-25 36 -32 52 -9 21 -19 30 -36 30 -13 0 -24 5 -24 10 0 6 -7 10 -16 10 -21 0
-37 18 -64 70 -13 25 -36 57 -52 72 -36 34 -48 73 -48 162 0 54 -4 72 -19 85
-19 17 -41 104 -66 262 -7 48 -18 104 -23 125 -6 22 -13 84 -16 139 -4 57 -12
102 -18 106 -9 6 -8 31 1 101 7 51 12 127 12 168 -2 95 12 203 33 257 17 45
13 73 -10 73 -8 0 -14 5 -14 10 0 6 -8 10 -18 10 -12 0 -25 14 -37 40 -10 22
-22 40 -27 40 -4 0 -8 7 -8 15 0 9 -9 33 -20 55 -11 22 -20 58 -20 80 0 23 -5
51 -11 63 -17 31 -41 117 -44 157 -2 19 -9 49 -16 67 -11 26 -11 42 0 85 14
58 15 92 6 156 -6 41 -7 42 -45 42 -38 0 -40 2 -51 43 l-11 42 -16 -32 c-9
-18 -19 -33 -24 -33 -13 0 -9 30 7 46 8 9 15 19 15 24 0 5 -7 15 -15 24 -9 9
-15 33 -15 60 0 25 -4 46 -10 46 -5 0 -14 18 -20 40 -6 22 -17 40 -24 40 -8 0
-17 16 -21 37 -4 20 -15 54 -26 75 -10 20 -19 42 -19 48 0 6 -26 37 -59 69
-32 31 -63 66 -69 78 -6 11 -18 65 -26 120 -8 55 -22 120 -31 144 -9 24 -20
60 -24 80 -10 46 -16 56 -70 117 -24 26 -37 32 -69 32 -23 0 -43 -5 -45 -12
-4 -10 -6 -10 -6 0 -1 14 -51 17 -51 2 0 -15 -50 -12 -66 4 -12 13 -11 22 13
70 19 39 33 56 46 56 18 0 19 5 12 48 -4 26 -8 97 -9 157 -1 69 -9 134 -20
174 -16 60 -16 103 1 147 3 9 -1 14 -13 14 -15 0 -26 22 -53 108 -19 59 -42
123 -52 142 -23 47 -36 278 -19 321 7 16 19 29 26 29 18 0 18 24 -1 60 -30 58
-63 173 -70 250 -2 19 -7 105 -10 190 -11 329 -13 347 -31 381 -9 18 -23 58
-30 89 -7 30 -19 75 -27 100 -33 101 -55 222 -46 253 5 17 5 78 -1 141 -7 98
-2 184 20 294 0 1 6 2 14 2 13 0 26 20 26 41 0 5 -902 9 -2280 9 l-2280 0 0
-910z"/>
</g>
</svg>
