<?xml version="1.0" standalone="no"?>
<!DOCTYPE svg PUBLIC "-//W3C//DTD SVG 20010904//EN"
 "http://www.w3.org/TR/2001/REC-SVG-20010904/DTD/svg10.dtd">
<svg version="1.0" xmlns="http://www.w3.org/2000/svg"
 width="3506.000000pt" height="3950.000000pt" viewBox="0 0 3506.000000 3950.000000"
 preserveAspectRatio="xMidYMid meet">
<metadata>
Created by potrace 1.15, written by Peter Selinger 2001-2017
</metadata>
<g transform="translate(0.000000,3950.000000) scale(0.100000,-0.100000)"
fill="#ffffff" stroke="000000" stroke-width="0.01">
<path fill="#ffffff" stroke="000000" stroke-width="0.01" d="M0 22405 c0 -15189 2 -17095 15 -17095
8 0 15 -4 15 -10 0 -5 7 -10 15 -10 8 0 15 -4 15 -10 0 -5 7 -10 15 -10 8 0
15 -4 15 -10 0 -5 6 -10 14 -10 8 0 18 -9 21 -20 3 -11 10 -20 14 -20 11 0 31
-47 31 -73 1 -12 7 -39 15 -61 12 -34 11 -43 -3 -72 -8 -19 -22 -34 -29 -34
-7 0 -16 -12 -19 -28 -4 -15 -11 -30 -16 -33 -13 -8 2 -39 18 -39 24 0 16 -36
-15 -69 -20 -22 -38 -31 -60 -31 -17 0 -31 -4 -31 -10 0 -5 -7 -10 -15 -10
-13 0 -15 -139 -15 -1194 0 -657 3 -1201 6 -1210 3 -9 14 -16 23 -16 9 0 23
-9 31 -20 8 -11 20 -20 27 -20 7 0 13 -4 13 -10 0 -5 6 -10 13 -10 7 0 19 -9
27 -20 8 -11 20 -20 27 -20 7 0 13 -4 13 -10 0 -5 5 -10 10 -10 15 0 165 -156
230 -240 11 -14 24 -30 29 -36 5 -6 19 -31 31 -55 13 -24 27 -47 33 -51 6 -3
13 -45 15 -92 2 -47 8 -86 12 -86 12 0 33 -58 26 -75 -3 -9 1 -29 9 -44 25
-49 45 -115 45 -148 0 -18 5 -33 10 -33 6 0 10 -7 10 -15 0 -34 47 -105 69
-105 6 0 11 -4 11 -10 0 -5 9 -10 20 -10 11 0 20 -4 20 -10 0 -5 7 -10 15 -10
8 0 15 -4 15 -10 0 -5 9 -10 20 -10 11 0 20 -4 20 -10 0 -5 7 -10 15 -10 8 0
15 -4 15 -10 0 -5 11 -10 25 -10 14 0 25 -4 25 -10 0 -5 9 -10 20 -10 11 0 20
-4 20 -10 0 -5 9 -10 20 -10 11 0 20 -4 20 -10 0 -5 7 -10 15 -10 8 0 15 -4
15 -10 0 -5 7 -10 15 -10 8 0 15 -4 15 -10 0 -5 7 -10 15 -10 8 0 15 -4 15
-10 0 -5 9 -10 20 -10 11 0 20 -4 20 -10 0 -5 5 -10 11 -10 5 0 36 -27 67 -60
73 -76 80 -84 94 -115 6 -14 15 -25 19 -25 4 0 10 -9 14 -19 5 -18 25 -43 87
-110 12 -14 23 -38 23 -55 1 -17 2 -50 3 -73 1 -23 8 -48 16 -55 21 -22 56
-95 56 -118 0 -27 -27 -80 -52 -102 -23 -20 -38 -69 -38 -125 0 -24 -4 -43 -9
-43 -5 0 -15 -20 -23 -45 l-15 -45 2588 0 2589 0 -12 25 c-6 14 -15 25 -19 25
-11 0 -19 28 -13 45 4 8 17 15 31 15 20 0 24 4 18 18 -4 9 -11 29 -15 45 -13
41 -60 79 -60 47 0 -5 -7 -10 -15 -10 -8 0 -15 5 -15 10 0 6 -15 10 -34 10
-26 0 -36 5 -41 20 -3 11 -10 20 -15 20 -5 0 -8 42 -6 92 4 96 26 168 53 168
7 0 13 5 13 10 0 6 7 10 15 10 8 0 15 5 15 10 0 6 14 10 30 10 35 0 36 4 14
69 -12 39 -13 57 -5 89 13 47 61 102 88 102 21 0 43 37 43 71 0 11 7 34 17 52
9 18 16 51 15 74 0 40 1 43 28 43 34 0 51 34 48 97 -2 42 46 163 64 163 4 0 8
7 8 15 0 17 68 157 80 165 26 17 50 94 50 157 0 37 6 91 14 118 13 49 72 175
86 185 12 8 40 68 40 85 0 8 4 15 8 15 4 0 14 21 21 48 8 26 28 74 44 107 47
94 56 141 42 211 -15 73 -77 199 -117 236 -16 15 -34 43 -39 63 -6 19 -21 46
-34 59 -13 13 -27 40 -30 60 -5 26 -12 36 -26 36 -11 0 -19 5 -19 10 0 6 -16
10 -36 10 -25 0 -43 7 -55 22 -20 23 -26 58 -9 58 16 0 11 48 -9 88 -10 20
-21 49 -25 65 -3 15 -13 27 -21 27 -8 0 -15 5 -15 10 0 6 -6 10 -14 10 -8 0
-17 6 -20 13 -5 9 -7 9 -12 0 -9 -20 -38 -15 -54 8 -8 12 -26 34 -40 50 -14
15 -41 47 -60 70 -61 72 -88 99 -99 99 -6 0 -11 5 -11 10 0 6 -6 10 -13 10 -7
0 -19 9 -27 20 -8 11 -21 20 -30 20 -9 0 -22 9 -30 20 -8 11 -20 20 -27 20 -7
0 -13 5 -13 10 0 6 -7 10 -15 10 -8 0 -15 5 -15 10 0 6 -7 10 -15 10 -8 0 -15
5 -15 10 0 6 -7 10 -15 10 -8 0 -15 5 -15 10 0 6 -6 10 -13 10 -7 0 -19 9 -27
20 -8 11 -20 20 -27 20 -7 0 -13 5 -13 10 0 6 -7 10 -15 10 -8 0 -15 5 -15 10
0 6 -7 10 -15 10 -8 0 -15 5 -15 10 0 6 -6 10 -13 10 -7 0 -19 9 -27 20 -8 11
-18 20 -23 20 -4 0 -30 23 -57 50 -27 28 -52 50 -55 50 -9 0 -114 116 -213
235 -21 26 -52 95 -52 117 1 13 7 34 15 48 24 42 19 60 -15 60 -16 0 -30 5
-30 10 0 6 -5 10 -11 10 -21 0 -49 43 -49 76 0 42 -9 64 -25 64 -8 0 -17 9
-20 20 -3 11 -13 20 -21 20 -8 0 -14 5 -14 10 0 6 -16 10 -35 10 -28 0 -35 4
-35 19 0 19 -20 44 -102 132 -27 28 -48 54 -48 59 0 5 -11 20 -24 33 -14 14
-39 53 -56 87 -17 34 -36 68 -41 74 -39 46 -49 60 -49 66 0 4 -9 18 -21 31
-13 15 -19 33 -16 48 5 27 -11 71 -26 71 -5 0 -7 7 -3 15 7 20 -24 85 -41 85
-7 0 -13 8 -13 18 0 27 -34 62 -59 62 -11 0 -21 5 -21 10 0 6 -18 10 -40 10
-32 0 -40 4 -40 18 0 10 9 24 20 32 26 19 25 55 -2 84 -13 13 -30 33 -38 45
-8 11 -22 21 -30 21 -21 0 -59 80 -53 111 3 18 -4 34 -26 58 -17 18 -31 40
-31 48 0 15 -29 75 -40 83 -25 18 -60 134 -53 173 5 23 -3 49 -49 167 -7 19
-23 45 -35 58 -13 13 -23 30 -23 38 0 8 -10 25 -22 38 -13 13 -30 33 -38 45
-8 11 -19 21 -24 21 -5 0 -18 10 -28 22 -17 19 -19 33 -15 85 2 34 11 68 18
76 8 8 21 24 29 36 8 11 19 21 24 21 16 0 46 43 46 67 0 13 -11 46 -25 73 -14
27 -25 59 -25 70 0 26 25 76 54 105 11 12 28 32 36 45 8 12 23 31 33 42 9 12
17 25 17 29 0 4 6 14 12 21 39 41 59 237 33 315 -32 93 -35 98 -175 243 -58
60 -110 115 -116 123 -34 41 -74 146 -74 195 0 17 -4 32 -9 32 -5 0 -14 13
-21 30 -7 16 -16 30 -21 30 -4 0 -11 20 -14 44 -5 31 -2 52 10 76 16 30 98
120 110 120 20 0 85 92 85 120 0 6 9 21 20 33 31 34 94 105 107 120 44 54 93
222 93 322 0 48 -35 130 -71 168 -19 19 -41 44 -49 56 -14 22 -37 51 -61 79
-18 22 -50 113 -61 173 -10 56 -10 59 32 245 13 61 3 116 -71 367 -18 59 -22
102 -25 247 -2 173 -13 266 -39 345 -8 22 -19 78 -25 125 -6 47 -17 110 -25
140 -7 30 -18 117 -24 192 -11 138 -27 195 -67 236 -8 7 -14 18 -14 23 0 5 -5
9 -11 9 -6 0 -32 23 -59 50 -27 28 -53 50 -57 50 -5 0 -15 9 -23 20 -8 11 -18
20 -23 20 -5 0 -26 18 -47 40 -21 22 -41 40 -45 40 -6 0 -81 77 -112 114 -6 7
-37 64 -68 126 -57 113 -62 122 -102 164 -33 36 -63 102 -63 140 0 27 8 44 35
71 l35 35 -31 61 c-21 43 -29 72 -26 92 3 23 -2 37 -19 54 -25 25 -31 43 -14
43 12 0 30 65 23 89 -7 26 19 51 51 51 17 0 26 6 26 16 0 17 -23 44 -39 44 -5
0 -13 10 -16 23 -20 70 -26 77 -66 77 -22 0 -39 5 -39 10 0 6 -16 10 -36 10
-34 0 -74 28 -74 51 0 4 -30 40 -67 78 -38 39 -88 93 -113 121 -73 82 -299
310 -307 310 -5 0 -19 14 -33 31 -14 17 -35 40 -46 53 -46 49 -54 87 -29 136
16 31 11 60 -10 60 -11 0 -25 20 -25 36 0 2 11 4 24 4 29 0 42 45 20 67 -9 9
-12 24 -8 40 4 16 2 28 -6 33 -9 6 -3 18 23 44 20 20 40 36 44 36 5 0 15 9 23
20 8 11 19 20 25 20 6 0 17 9 25 20 8 11 20 20 27 20 7 0 13 5 13 10 0 6 7 10
15 10 8 0 15 5 15 10 0 6 7 10 15 10 8 0 15 5 15 10 0 6 9 10 20 10 11 0 20 5
20 10 0 6 9 10 20 10 11 0 20 5 20 10 0 6 14 10 30 10 17 0 30 5 30 10 0 6 11
10 25 10 14 0 25 5 25 10 0 6 11 10 25 10 14 0 25 5 25 10 0 6 9 10 20 10 11
0 20 5 20 10 0 6 9 10 20 10 11 0 20 5 20 10 0 6 9 10 20 10 11 0 20 5 20 10
0 6 9 10 20 10 11 0 20 5 20 10 0 6 9 10 20 10 11 0 20 5 20 10 0 6 9 10 20
10 11 0 20 5 20 10 0 6 6 10 13 10 7 0 19 9 27 20 8 11 20 20 27 20 7 0 13 5
13 10 0 6 6 10 13 10 7 0 19 9 27 20 8 11 18 20 23 20 5 0 22 14 37 30 15 17
33 30 39 30 6 0 11 5 11 10 0 6 6 10 13 10 7 0 19 9 27 21 30 42 48 59 61 59
8 0 21 9 29 20 8 11 20 20 27 20 7 0 13 5 13 10 0 6 9 10 20 10 11 0 20 5 20
10 0 6 7 10 15 10 8 0 15 5 15 10 0 6 7 10 15 10 8 0 15 5 15 10 0 6 7 10 15
10 8 0 15 5 15 10 0 6 5 10 11 10 6 0 24 14 39 30 28 30 50 39 50 20 0 -5 7
-10 15 -10 8 0 15 5 15 10 0 6 14 10 30 10 23 0 30 4 30 20 0 12 7 20 16 20 8
0 33 18 54 40 21 22 48 40 59 40 14 0 21 6 21 20 0 11 -4 20 -10 20 -5 0 -10
-4 -10 -10 0 -5 -6 -10 -13 -10 -7 0 -19 -9 -27 -20 -8 -11 -20 -20 -26 -20
-7 0 -15 -6 -17 -12 -3 -7 -6 -3 -6 10 -1 13 5 22 14 22 8 0 15 5 15 10 0 6 7
10 15 10 8 0 15 5 15 10 0 6 7 10 15 10 8 0 15 4 15 9 0 11 55 71 65 71 8 0
31 25 55 60 8 12 23 31 32 42 10 11 20 29 23 39 4 11 10 19 15 19 5 0 12 9 15
20 9 27 25 25 25 -2 1 -19 5 -16 21 16 12 21 25 44 30 50 5 6 19 22 30 36 17
20 22 22 30 10 8 -11 12 -12 16 -3 2 7 10 13 18 13 7 0 18 14 25 30 7 16 16
30 20 30 4 0 13 14 21 31 7 18 23 42 36 55 21 21 22 26 9 39 -8 8 -16 20 -19
27 -4 13 -26 -6 -57 -52 -8 -12 -26 -35 -40 -50 -40 -46 -60 -73 -60 -84 0 -5
-2 -7 -5 -4 -7 7 16 58 25 58 4 0 15 18 25 40 10 22 21 40 25 40 4 0 17 23 30
50 13 28 27 50 30 50 4 0 13 14 20 30 7 17 16 30 21 30 4 0 10 8 14 19 5 16
14 29 54 77 5 6 19 31 31 54 12 24 28 50 36 57 7 7 16 22 19 33 3 11 10 20 14
20 4 0 18 22 31 50 13 27 26 50 30 50 4 0 17 23 30 50 13 28 26 50 30 50 3 0
19 27 35 60 16 33 32 60 37 60 4 0 8 7 8 15 0 25 23 65 37 65 8 0 13 11 13 28
0 16 9 39 20 52 11 13 20 27 20 33 0 16 52 127 60 127 4 0 12 11 18 25 13 28
20 37 74 95 37 40 53 49 60 30 2 -6 25 -11 51 -12 26 0 47 -4 47 -9 0 -5 11
-9 25 -9 14 0 25 -4 25 -10 0 -5 5 -10 11 -10 16 0 39 -27 39 -47 0 -27 29
-103 45 -119 8 -9 35 -14 73 -14 57 0 60 -1 72 -30 7 -17 10 -48 7 -71 -4 -34
-1 -44 20 -65 20 -20 23 -28 13 -34 -11 -7 -10 -11 3 -24 8 -9 21 -16 28 -16
20 0 49 -42 49 -71 0 -15 6 -34 13 -41 8 -7 17 -26 21 -41 5 -21 3 -27 -10
-27 -11 0 -14 -5 -10 -16 3 -9 6 -18 6 -20 0 -2 7 -4 15 -4 8 0 15 -4 15 -8 0
-13 36 -52 47 -52 13 0 33 -45 33 -75 0 -14 4 -25 10 -25 6 0 9 -27 8 -63 -2
-93 40 -277 63 -277 4 0 11 -9 14 -20 3 -11 11 -20 17 -20 17 0 63 -55 83 -99
18 -40 35 -54 35 -28 0 6 6 3 12 -8 16 -27 34 -45 47 -45 6 0 11 -4 11 -8 0
-14 36 -52 49 -52 6 0 11 -9 11 -20 0 -11 5 -20 11 -20 12 0 54 -42 79 -80 8
-12 23 -31 32 -42 10 -12 22 -36 27 -54 10 -37 32 -64 53 -64 8 0 20 -10 28
-21 8 -12 21 -27 28 -35 6 -7 12 -20 12 -28 0 -9 6 -16 14 -16 8 0 18 -9 21
-20 3 -11 15 -20 26 -20 12 0 19 -7 19 -20 0 -11 6 -20 14 -20 8 0 18 -9 21
-20 5 -17 15 -20 64 -20 58 0 59 0 66 33 4 17 9 26 12 20 2 -7 13 -13 24 -13
14 0 19 7 19 30 0 17 5 30 11 30 6 0 8 7 5 16 -8 22 17 44 51 44 17 0 34 8 43
20 8 11 22 20 32 20 9 0 20 9 23 20 4 14 15 20 35 20 20 0 31 6 35 20 4 13 15
20 31 20 13 0 24 5 24 10 0 6 7 10 15 10 8 0 15 5 15 10 0 19 39 10 45 -10 7
-22 45 -28 45 -7 0 9 2 9 9 -1 10 -17 21 6 21 46 0 20 3 23 9 13 5 -8 13 -63
17 -123 3 -59 10 -108 15 -108 5 0 7 45 6 100 -3 81 0 100 11 100 8 0 12 6 9
12 -19 46 -19 48 -3 48 9 0 16 -4 16 -10 0 -5 7 -10 15 -10 8 0 15 5 15 10 0
6 -4 10 -10 10 -5 0 -10 5 -10 10 0 6 9 10 19 10 15 0 21 -10 26 -40 4 -22 11
-40 16 -40 5 0 9 -13 9 -30 0 -23 4 -30 20 -30 13 0 20 7 20 20 0 28 30 26 31
-2 1 -22 1 -22 9 2 8 25 8 25 15 -7 5 -23 13 -33 26 -33 22 0 27 -35 6 -43 -8
-4 -9 -8 -1 -14 24 -18 13 -183 -12 -183 -8 0 -14 -9 -14 -20 0 -11 7 -20 15
-20 8 0 15 5 15 10 0 6 4 10 10 10 12 0 9 -72 -3 -81 -5 -3 -11 -55 -14 -115
-2 -60 -9 -183 -13 -274 -9 -178 -11 -675 -3 -697 7 -17 80 -18 86 0 4 9 6 9
6 0 1 -15 31 -18 31 -3 0 21 30 9 31 -12 0 -13 3 -17 6 -10 2 6 11 12 18 12
18 0 27 28 15 50 -12 23 -13 40 -1 21 14 -23 24 92 10 122 -10 21 -10 39 0 81
10 43 10 60 0 78 -7 12 -13 65 -14 118 -1 52 0 89 2 83 15 -41 19 12 20 220 0
127 1 251 1 275 1 23 1 50 1 60 0 9 2 33 4 52 3 19 0 38 -6 42 -7 4 -6 20 3
49 11 33 12 43 2 47 -7 2 -12 13 -12 25 0 18 2 19 10 7 6 -10 10 23 9 100 0
63 4 130 10 148 5 18 7 40 4 48 -3 8 1 14 11 14 13 0 16 11 16 50 l0 50 41 0
c43 0 42 -4 23 60 -4 14 -1 20 10 20 9 0 16 9 16 20 0 15 7 20 25 20 23 0 25
-4 26 -42 3 -62 4 -71 12 -95 12 -33 33 -28 41 10 5 25 9 29 16 17 7 -11 10
-6 10 20 0 25 -3 31 -10 20 -11 -18 -23 -8 -14 14 5 13 34 24 34 14 0 -2 7
-21 15 -43 10 -28 14 -33 15 -17 0 12 5 22 11 22 8 0 10 -14 6 -40 -4 -29 -1
-40 8 -40 17 0 24 20 18 53 -5 23 -2 27 19 27 16 0 29 -8 36 -22 l11 -23 0 23
c1 13 7 22 16 22 9 0 15 -10 16 -22 0 -13 3 -17 6 -10 2 6 13 12 23 12 10 0
21 6 23 13 4 9 6 9 6 0 2 -23 21 -14 21 10 0 18 2 19 10 7 9 -13 10 -13 10 0
0 12 2 13 9 1 7 -11 9 -11 14 0 4 10 6 10 6 2 1 -17 38 -17 44 0 4 9 6 9 6 0
2 -21 65 -16 81 7 16 22 46 27 53 8 3 -7 6 2 6 20 1 25 5 32 20 32 11 0 22 -6
24 -12 3 -7 6 6 6 30 l1 42 45 0 c38 0 45 3 45 20 0 13 7 20 20 20 11 0 20 -4
20 -10 0 -5 9 -10 21 -10 16 0 19 -5 15 -22 -3 -13 -3 -17 0 -10 3 6 17 12 30
12 13 0 24 5 24 10 0 6 9 10 20 10 19 0 20 -6 16 -223 -2 -127 -8 -232 -14
-243 -16 -29 -14 -386 2 -430 2 -6 0 -32 -5 -59 -11 -59 -4 -85 22 -85 10 0
19 -4 19 -10 0 -5 -7 -10 -15 -10 -11 0 -15 -11 -15 -39 0 -22 -5 -41 -11 -43
-6 -2 -11 -54 -14 -133 -2 -72 -6 -142 -10 -157 -5 -20 -4 -28 5 -28 14 0 50
-38 50 -52 0 -4 -7 -8 -15 -8 -8 0 -15 9 -15 20 0 18 -19 30 -21 13 -6 -48 -2
-193 4 -193 5 0 6 -8 2 -18 -5 -9 -9 -55 -11 -102 -2 -74 -1 -82 10 -61 7 12
12 46 10 74 -2 33 1 46 7 36 5 -8 6 -22 3 -31 -3 -10 -1 -18 5 -18 12 0 2 -72
-11 -81 -15 -10 13 -59 34 -59 20 0 25 16 6 23 -7 2 -10 8 -5 12 10 12 15 4
36 -51 10 -27 22 -57 26 -66 5 -13 3 -18 -8 -18 -8 0 -17 -12 -20 -27 -5 -29
2 -48 10 -25 3 6 9 12 15 12 12 0 48 39 48 52 0 4 9 8 20 8 11 0 20 6 20 13 0
8 4 7 10 -3 9 -13 11 -13 20 0 8 13 11 13 19 1 6 -9 12 9 20 55 12 75 12 161
-1 141 -4 -7 -8 6 -8 30 0 23 -6 48 -13 55 -10 10 -12 44 -10 133 2 66 5 132
8 148 2 15 0 27 -5 27 -6 0 -10 -18 -10 -40 0 -29 -4 -40 -15 -40 -8 0 -15 5
-15 10 0 6 5 10 10 10 6 0 10 5 10 10 0 6 -7 10 -16 10 -11 0 -14 6 -9 20 7
21 -10 29 -18 8 -2 -7 -8 -10 -12 -6 -9 8 18 38 34 38 16 0 14 16 -4 34 -8 8
-15 26 -15 40 0 16 -6 26 -15 26 -8 0 -15 5 -15 10 0 6 7 10 15 10 9 0 15 9
15 23 0 18 2 19 11 7 8 -11 12 -12 16 -3 6 15 33 17 33 3 0 -5 5 -10 10 -10 6
0 10 9 10 20 0 11 -5 20 -11 20 -6 0 -8 9 -4 20 9 27 -9 25 -24 -2 -11 -22
-11 -21 -7 7 6 39 -9 67 -24 45 -7 -11 -10 -6 -10 20 0 25 3 31 10 20 15 -25
21 -6 24 88 2 68 7 95 20 107 10 11 16 12 16 4 0 -7 2 -10 5 -7 14 14 -10 38
-37 38 -23 0 -28 -4 -24 -17 3 -10 2 -23 -2 -30 -5 -7 -8 5 -9 27 -2 34 1 40
18 40 22 0 25 13 6 32 -8 7 -16 31 -20 53 l-6 40 18 -34 18 -33 0 61 c0 56 -9
78 -20 49 -2 -7 -7 -10 -11 -6 -4 3 -2 16 4 28 7 14 10 39 6 62 -5 27 -2 43 8
53 11 11 16 12 19 2 3 -7 6 -4 6 6 1 10 -6 25 -14 33 -8 9 -15 21 -15 27 0 8
3 7 9 -2 13 -20 18 8 20 94 1 39 4 83 7 99 4 19 1 32 -7 37 -10 6 -11 11 -3
17 12 8 12 61 -1 81 -4 8 -2 17 6 22 9 5 13 27 13 64 -1 35 2 52 7 43 7 -10 9
-10 9 0 0 8 22 12 75 12 43 0 75 4 75 10 0 6 -26 10 -59 10 -56 0 -59 1 -71
30 -7 17 -15 30 -19 30 -4 0 -6 18 -6 41 0 22 1 36 3 30 8 -23 22 -10 22 19 0
17 5 30 10 30 6 0 10 5 10 10 0 6 -7 10 -15 10 -8 0 -15 -6 -15 -12 0 -9 -4
-8 -10 2 -14 21 -12 30 5 30 8 0 19 15 24 33 5 17 10 26 10 20 1 -7 6 -13 12
-13 6 0 8 7 5 16 -6 16 15 44 34 44 6 0 13 14 17 30 3 17 10 30 15 30 5 0 6 9
3 20 -3 11 -2 20 2 20 8 0 14 39 15 98 0 12 6 22 14 22 17 0 16 -5 18 93 1 51
6 81 14 86 17 10 45 107 43 149 -1 26 3 32 20 32 19 0 21 4 16 40 -3 24 -1 41
7 45 8 3 8 7 -2 11 -17 8 -15 24 4 24 10 0 13 6 10 18 -3 9 -1 24 4 32 9 13
11 13 20 0 9 -13 10 -13 10 0 0 13 1 13 10 0 8 -12 10 -9 10 12 0 35 -9 58
-24 58 -7 0 -13 20 -14 50 -2 47 -1 50 23 50 25 0 35 15 14 22 -16 5 -22 90
-7 99 8 5 6 12 -5 24 -10 9 -17 31 -17 48 0 24 3 28 10 17 8 -12 10 -11 10 8
0 14 -6 22 -16 22 -17 0 -16 22 1 62 6 16 1 18 -34 18 -29 0 -41 4 -41 14 0
30 13 46 36 46 13 0 24 5 24 10 0 6 -8 10 -19 10 -11 0 -24 12 -32 31 -7 18
-23 42 -36 55 -13 13 -23 29 -23 37 0 21 -35 57 -55 57 -12 0 -15 5 -10 17 4
10 10 28 12 40 5 19 1 23 -21 23 -14 0 -26 -6 -27 -12 0 -7 -5 0 -9 16 -6 20
-5 37 6 58 14 27 13 30 -11 54 -14 14 -25 29 -25 34 0 6 -12 10 -26 10 -26 0
-54 20 -54 39 0 21 -24 61 -37 61 -7 0 -13 5 -13 10 0 6 -6 10 -13 10 -7 0
-19 9 -27 20 -8 11 -18 20 -23 20 -14 0 -37 27 -37 43 0 8 -12 29 -27 45 -16
17 -36 41 -45 53 -11 14 -18 17 -18 10 0 -9 -7 -6 -19 7 -10 12 -22 22 -27 22
-5 0 -16 9 -24 20 -8 11 -25 20 -37 20 -13 0 -23 5 -23 10 0 6 -15 10 -34 10
-28 0 -36 5 -46 30 -7 17 -19 30 -28 30 -15 0 -52 36 -52 52 0 4 -5 8 -11 8
-17 0 -49 40 -49 62 0 13 -7 18 -25 18 -14 0 -25 5 -25 10 0 6 -9 10 -19 10
-11 0 -23 9 -26 20 -3 11 -13 20 -21 20 -8 0 -14 4 -14 9 0 15 -57 71 -72 71
-7 0 -20 9 -28 20 -8 11 -23 20 -33 20 -25 0 -48 25 -41 44 4 11 0 16 -11 16
-18 0 -55 35 -55 52 0 4 -11 8 -25 8 -14 0 -25 5 -25 10 0 6 -5 10 -11 10 -16
0 -64 55 -79 90 -7 16 -18 30 -24 30 -6 0 -21 13 -34 28 -12 15 -31 38 -42 51
-11 13 -20 32 -20 43 0 10 -7 18 -15 18 -8 0 -15 5 -15 10 0 6 -7 10 -15 10
-8 0 -15 9 -15 20 0 15 -7 20 -25 20 -18 0 -25 5 -25 20 0 13 -7 20 -20 20
-13 0 -20 7 -20 18 0 21 -32 62 -48 62 -6 0 -14 9 -17 20 -3 11 -11 20 -17 20
-14 0 -48 40 -48 57 0 13 -63 83 -75 83 -22 0 -57 62 -49 87 5 15 4 16 -6 3
-9 -11 -13 -12 -17 -2 -2 6 -9 12 -15 12 -17 0 -49 42 -55 72 -6 29 -27 38
-36 16 -3 -7 -6 2 -6 20 -1 32 -14 43 -25 20 -5 -10 -7 -10 -12 0 -3 7 -12 19
-20 26 -8 8 -11 22 -8 30 5 12 0 16 -20 16 -23 0 -25 3 -21 33 3 17 3 26 -1
20 -3 -7 -10 -13 -16 -13 -12 0 -68 58 -68 71 0 5 -7 9 -15 9 -8 0 -15 4 -15
9 0 13 -76 91 -89 91 -6 0 -11 5 -11 10 0 6 -6 10 -14 10 -7 0 -19 14 -26 30
-9 21 -19 30 -36 30 -14 0 -25 8 -29 20 -4 12 -15 20 -28 20 -13 0 -29 9 -37
20 -8 11 -20 20 -27 20 -7 0 -13 5 -13 10 0 6 -13 10 -30 10 -16 0 -30 5 -30
10 0 6 -7 10 -15 10 -8 0 -15 5 -15 10 0 6 -7 10 -15 10 -8 0 -15 5 -15 10 0
6 -11 10 -25 10 -14 0 -25 5 -25 10 0 14 -27 12 -34 -2 -5 -10 -7 -10 -12 0
-10 21 -26 13 -20 -10 3 -13 3 -17 0 -10 -7 14 -54 16 -54 2 0 -15 -60 -12
-61 3 -1 6 0 38 1 70 1 44 -1 57 -13 57 -15 0 -27 -40 -27 -87 0 -29 -25 -60
-33 -40 -4 9 -7 9 -14 0 -7 -9 -12 -8 -23 7 -8 11 -22 20 -32 20 -9 0 -20 9
-23 20 -3 11 -13 20 -21 20 -8 0 -14 5 -14 10 0 15 -77 12 -83 -2 -4 -10 -8
-10 -15 1 -8 11 -10 11 -14 0 -10 -26 -49 30 -41 58 3 15 1 28 -7 33 -9 6 -9
13 -1 28 9 18 17 321 11 417 -1 11 3 40 8 64 8 35 7 48 -4 58 -11 12 -14 12
-14 1 0 -10 -3 -9 -10 2 -9 13 -10 13 -10 0 0 -13 -1 -13 -10 0 -9 13 -10 13
-10 0 0 -12 -2 -12 -9 -2 -15 24 -20 -41 -27 -348 -5 -217 -10 -298 -20 -307
-10 -10 -13 -10 -17 0 -4 9 -6 9 -6 0 -1 -15 -61 -18 -61 -3 0 6 -7 10 -16 10
-22 0 -55 40 -50 59 15 50 17 71 6 88 -10 16 -10 16 -5 -4 5 -16 2 -23 -8 -23
-20 0 -29 -27 -17 -50 13 -24 13 -40 0 -20 -6 10 -10 11 -10 3 0 -10 -24 -13
-85 -13 -61 0 -85 3 -85 13 0 8 -4 7 -10 -3 -6 -10 -10 -11 -10 -2 0 8 -17 12
-49 12 -30 0 -52 5 -55 13 -5 9 -7 9 -12 0 -7 -15 -34 -17 -34 -3 0 6 -9 10
-20 10 -11 0 -20 5 -20 10 0 6 -11 10 -25 10 -14 0 -25 -4 -25 -10 0 -18 -32
-10 -53 13 -13 15 -21 18 -24 10 -6 -16 -113 -18 -113 -3 0 6 -27 10 -60 10
-33 0 -60 4 -60 10 0 6 -9 10 -20 10 -11 0 -20 5 -20 10 0 6 -6 10 -13 10 -7
0 -19 9 -27 20 -11 16 -26 20 -70 20 -44 0 -59 4 -70 20 -8 12 -26 20 -42 20
-15 0 -28 5 -28 10 0 6 -5 10 -11 10 -6 0 -24 14 -39 30 -15 17 -37 30 -49 30
-12 0 -21 5 -21 10 0 6 -7 10 -15 10 -8 0 -15 5 -15 10 0 6 -8 10 -19 10 -11
0 -24 12 -32 32 -7 17 -15 26 -17 20 -6 -18 -26 -14 -42 8 -8 11 -20 20 -27
20 -7 0 -13 5 -13 10 0 6 -7 10 -15 10 -8 0 -15 5 -15 10 0 6 -11 10 -25 10
-14 0 -25 5 -25 10 0 6 -5 10 -11 10 -6 0 -24 14 -39 30 -15 17 -37 30 -49 30
-12 0 -21 5 -21 10 0 6 -13 10 -30 10 -16 0 -30 5 -30 10 0 6 -5 10 -11 10 -6
0 -28 18 -49 40 -21 22 -43 40 -49 40 -6 0 -11 5 -11 10 0 6 -11 10 -25 10
-14 0 -25 5 -25 10 0 6 -9 10 -20 10 -11 0 -20 4 -20 8 0 16 -37 52 -54 52 -9
0 -16 5 -16 10 0 6 -6 10 -13 10 -7 0 -19 9 -27 20 -8 11 -20 20 -27 20 -7 0
-13 5 -13 10 0 6 -10 10 -22 10 -13 0 -34 14 -48 31 -57 68 -79 89 -94 89 -9
0 -16 5 -16 10 0 6 -7 10 -15 10 -8 0 -15 5 -15 10 0 6 -7 10 -15 10 -8 0 -15
5 -15 10 0 6 -9 10 -20 10 -11 0 -20 5 -20 10 0 6 -6 10 -13 10 -7 0 -19 9
-27 20 -8 11 -20 20 -27 20 -7 0 -13 5 -13 10 0 6 -7 10 -15 10 -8 0 -15 5
-15 10 0 6 -7 10 -15 10 -8 0 -18 12 -21 27 -8 30 -26 53 -43 53 -6 0 -11 5
-11 10 0 6 -7 10 -15 10 -8 0 -15 5 -15 10 0 6 -7 10 -15 10 -8 0 -15 5 -15
10 0 6 -7 10 -15 10 -8 0 -15 5 -15 10 0 6 -7 10 -15 10 -8 0 -15 5 -15 10 0
6 -9 10 -20 10 -11 0 -20 4 -20 9 0 13 -76 91 -89 91 -5 0 -13 9 -16 20 -3 11
-12 20 -18 20 -7 0 -19 10 -27 21 -25 36 -128 139 -139 139 -6 0 -11 5 -11 10
0 6 -9 10 -20 10 -11 0 -20 5 -20 10 0 6 -7 10 -15 10 -10 0 -15 10 -15 30 0
20 -5 30 -15 30 -8 0 -15 5 -15 10 0 6 -5 10 -11 10 -6 0 -24 14 -39 30 -15
17 -33 30 -39 30 -6 0 -11 5 -11 10 0 6 -7 10 -16 10 -15 0 -75 57 -104 100
-27 39 -47 60 -59 60 -6 0 -11 5 -11 10 0 6 -7 10 -15 10 -8 0 -15 5 -15 10 0
6 -9 10 -20 10 -11 0 -20 5 -20 10 0 6 -6 10 -13 10 -7 0 -19 9 -27 20 -8 11
-20 20 -27 20 -7 0 -13 5 -13 10 0 6 -7 10 -16 10 -12 0 -15 7 -11 27 5 26
-11 53 -32 53 -6 0 -11 4 -11 9 0 11 -55 71 -65 71 -4 0 -20 14 -35 30 -15 17
-31 30 -35 30 -15 0 -35 30 -35 54 0 14 -4 26 -9 26 -5 0 -13 9 -16 20 -3 11
-15 20 -25 20 -10 0 -22 9 -25 20 -3 11 -11 20 -16 20 -29 0 -77 79 -96 158
-3 12 -10 22 -15 22 -6 0 -24 14 -40 32 -27 29 -30 38 -25 81 3 31 0 53 -8 61
-7 7 -25 37 -40 66 -29 57 -47 80 -64 80 -6 0 -11 17 -11 38 0 25 -7 48 -20
62 -12 14 -20 37 -20 60 0 23 -8 46 -20 60 -11 13 -20 26 -20 30 0 15 -38 50
-54 50 -13 0 -15 5 -9 28 14 47 8 135 -11 171 -19 36 -28 48 -63 86 -19 20
-23 36 -23 85 0 55 -18 115 -40 130 -17 12 -30 52 -30 94 0 25 -4 46 -9 46 -5
0 -14 14 -21 30 -7 17 -16 30 -21 30 -4 0 -10 8 -14 19 -3 10 -15 29 -26 42
-11 12 -17 29 -14 37 3 8 -3 22 -13 31 -39 34 -55 80 -48 143 9 76 14 88 37
88 10 0 19 5 19 10 0 6 9 10 20 10 11 0 20 5 20 10 0 6 15 10 34 10 29 0 34 4
39 28 9 44 59 92 96 92 17 0 31 5 31 10 0 6 16 10 35 10 19 0 35 5 35 10 0 6
11 10 25 10 14 0 25 5 25 10 0 6 7 10 15 10 8 0 15 5 15 10 0 6 16 10 35 10
19 0 35 5 35 10 0 6 23 10 50 10 28 0 50 5 50 10 0 6 7 10 15 10 8 0 15 5 15
10 0 6 14 10 30 10 17 0 30 5 30 10 0 6 7 10 15 10 8 0 15 5 15 10 0 6 8 10
18 10 20 0 43 43 61 112 9 38 31 68 49 68 10 0 26 35 41 92 5 20 21 49 35 63
14 14 26 30 26 35 0 6 6 10 13 10 13 0 37 40 37 61 0 14 26 39 39 39 6 0 11 4
11 8 0 14 36 52 49 52 6 0 11 4 11 9 0 11 55 71 65 71 10 0 31 23 48 55 9 17
16 24 17 16 0 -10 6 -7 19 7 10 12 25 22 34 22 8 0 18 6 20 13 4 9 6 9 6 0 1
-7 8 -13 17 -13 20 0 47 27 39 40 -7 11 18 40 34 40 6 0 11 5 11 10 0 6 10 10
23 10 12 0 29 9 37 20 8 11 20 20 27 20 7 0 13 5 13 10 0 6 9 10 20 10 11 0
20 5 20 10 0 6 9 10 20 10 11 0 20 5 20 10 0 6 9 10 19 10 11 0 23 9 26 20 3
11 15 20 26 20 10 0 19 5 19 10 0 6 7 10 15 10 8 0 15 5 15 10 0 6 9 10 20 10
11 0 20 5 20 10 0 6 7 10 15 10 8 0 15 4 15 10 0 5 11 20 25 34 14 14 25 30
25 36 0 12 29 72 39 80 14 11 32 81 26 100 -3 11 -2 20 3 20 12 0 49 87 57
134 4 21 13 45 21 53 8 8 14 28 14 44 0 16 5 29 10 29 6 0 10 7 10 15 0 9 11
27 25 41 23 23 30 45 27 87 -2 25 16 21 21 -5 l4 -23 2 23 c0 13 7 22 17 22
12 0 15 9 13 38 -3 54 -1 62 16 62 9 0 15 9 15 23 0 16 2 19 9 8 7 -11 14 -9
35 12 14 14 26 33 26 42 0 10 10 15 30 15 17 0 30 5 30 10 0 6 11 10 25 10 14
0 25 5 25 10 0 6 8 10 18 10 10 0 24 9 32 20 8 11 24 20 36 20 12 0 25 6 27
13 4 9 6 9 6 0 1 -15 31 -18 31 -3 0 6 16 10 35 10 19 0 35 5 35 10 0 6 -6 10
-14 10 -17 0 -31 33 -17 38 6 2 11 12 11 22 0 10 6 21 13 24 10 5 10 7 0 12
-15 6 -18 64 -4 64 5 0 14 14 21 30 7 17 19 30 27 30 19 0 43 25 43 44 0 9 8
16 20 16 16 0 20 7 20 30 0 17 4 30 8 30 16 0 39 65 35 97 -4 25 1 38 21 58
14 14 28 37 31 50 3 14 7 36 10 50 3 13 16 35 30 49 14 14 25 36 25 49 0 13 9
34 20 47 11 13 20 34 20 47 0 13 10 34 23 47 19 18 23 35 25 91 2 53 7 72 22
85 24 21 26 69 4 112 -9 17 -14 44 -11 62 5 34 -58 176 -79 176 -6 0 -19 18
-29 41 -11 23 -30 54 -45 69 -14 15 -32 37 -40 49 -8 12 -20 21 -28 21 -9 0
-13 15 -12 53 1 28 -6 93 -15 142 -27 157 -28 164 -15 195 7 16 19 30 26 30 8
0 14 5 14 10 0 6 7 10 15 10 8 0 15 4 15 8 0 5 8 19 19 31 11 12 22 46 26 78
8 64 22 83 62 83 17 0 34 8 43 20 8 11 24 20 35 20 11 0 27 9 35 20 8 11 19
20 25 20 6 0 17 9 25 20 8 11 19 20 25 20 6 0 17 9 25 20 8 11 19 20 25 20 6
0 17 9 25 20 8 11 20 20 27 20 7 0 13 5 13 10 0 6 18 10 40 10 22 0 40 5 40
10 0 6 20 10 45 10 25 0 45 5 45 10 0 6 7 10 15 10 8 0 15 5 15 10 0 6 14 10
30 10 17 0 30 5 30 10 0 6 9 10 20 10 11 0 20 5 20 10 0 6 7 10 15 10 8 0 15
5 15 10 0 6 6 10 13 10 7 0 19 9 27 20 8 11 22 20 32 20 10 0 18 5 18 10 0 6
9 10 20 10 11 0 20 5 20 10 0 6 7 10 15 10 8 0 15 5 15 10 0 6 5 10 11 10 6 0
28 18 49 40 21 22 48 40 59 40 12 0 21 5 21 10 0 6 10 10 23 10 12 0 29 9 37
20 8 11 20 20 27 20 7 0 13 5 13 10 0 6 7 10 15 10 8 0 15 5 15 10 0 6 9 10
20 10 11 0 20 5 20 10 0 6 6 10 14 10 8 0 18 9 21 20 4 12 15 20 28 20 13 0
29 9 37 20 8 11 20 20 27 20 7 0 13 5 13 10 0 6 7 10 15 10 8 0 15 5 15 10 0
6 7 10 15 10 8 0 15 5 15 10 0 6 9 10 20 10 11 0 20 5 20 10 0 6 7 10 15 10 8
0 15 5 15 10 0 6 11 10 25 10 14 0 25 5 25 10 0 6 9 10 20 10 11 0 20 5 20 10
0 6 7 10 15 10 8 0 15 5 15 10 0 6 -4 10 -10 10 -5 0 -10 5 -10 10 0 6 14 10
31 10 29 0 69 29 69 50 0 5 13 22 29 40 16 18 34 38 40 46 14 16 41 93 41 117
0 10 7 25 15 33 22 23 29 64 17 97 -10 26 -8 32 23 63 19 19 38 47 41 62 4 15
27 66 50 114 24 48 44 94 44 102 0 8 11 26 25 40 16 16 25 36 25 56 0 35 19
60 47 60 10 0 25 9 33 20 8 11 20 20 27 20 7 0 13 5 13 10 0 6 6 10 13 10 8 0
19 11 25 25 13 29 19 36 82 105 65 72 68 74 92 124 12 25 28 46 35 46 7 0 13
4 13 9 0 5 13 23 29 40 24 26 28 37 24 69 -4 29 0 43 17 62 20 23 22 33 17
103 -4 62 -2 77 9 77 8 0 14 5 14 10 0 6 8 10 19 10 27 0 40 102 17 126 -9 8
-16 24 -16 35 0 12 -7 19 -18 19 -10 0 -24 10 -32 21 -8 12 -20 27 -25 33 -6
6 -17 30 -25 54 -12 39 -12 48 8 106 12 35 22 77 22 94 0 17 6 37 13 44 12 13
31 58 48 116 6 17 14 32 18 32 13 0 29 51 29 91 0 21 15 64 35 106 20 39 34
79 31 89 -3 11 4 48 16 83 23 73 24 88 8 93 -6 2 -12 29 -13 64 -2 34 -8 71
-15 83 -6 13 -9 34 -6 47 4 13 2 24 -3 24 -15 0 -31 53 -30 100 1 57 -13 138
-30 168 -7 13 -10 34 -7 47 4 14 0 29 -8 37 -7 8 -21 29 -31 48 -10 19 -24 40
-32 48 -7 8 -11 22 -8 32 3 10 -1 24 -8 32 -23 22 -43 69 -57 128 -7 30 -19
67 -26 81 -7 14 -10 35 -7 47 6 24 -22 61 -30 39 -3 -6 -6 -4 -6 7 -1 10 -9
26 -19 35 -10 9 -30 53 -45 99 -26 82 -45 112 -66 112 -7 0 -9 10 -5 25 5 20
-1 31 -25 54 -17 16 -31 34 -31 40 0 18 -23 61 -33 61 -15 0 -47 41 -47 62 0
10 -4 18 -10 18 -14 0 -27 60 -22 103 3 28 1 37 -11 37 -9 0 -16 15 -20 45 -6
37 -2 55 20 100 15 30 32 55 39 55 15 0 24 23 24 61 0 31 -35 109 -54 121 -6
4 -2 14 12 26 12 11 22 31 22 46 0 14 4 26 10 26 9 0 30 61 30 88 0 7 -14 12
-35 12 -19 0 -35 5 -35 10 0 6 -11 10 -25 10 -14 0 -25 4 -25 10 0 5 -16 25
-36 45 -31 31 -33 37 -20 50 8 8 19 15 24 15 10 0 32 105 32 149 0 28 16 57
46 88 27 27 31 43 9 43 -18 0 -19 29 -5 81 9 32 18 47 60 96 8 9 8 19 0 33
-12 23 -1 50 36 87 13 13 24 31 24 40 0 9 8 23 19 32 10 9 31 41 46 71 23 46
26 59 17 82 -5 15 -8 36 -5 47 2 10 -5 37 -16 59 -25 49 -25 52 -5 52 10 0 14
6 10 18 -15 54 -18 62 -27 62 -5 0 -9 9 -9 20 0 11 -4 20 -8 20 -10 0 -42 65
-42 85 0 8 -5 15 -11 15 -13 0 -49 38 -49 51 0 4 -6 14 -14 21 -8 8 -26 39
-41 69 -15 30 -36 61 -45 69 -20 18 -54 83 -64 123 -3 15 -12 27 -20 27 -7 0
-19 14 -26 30 -7 17 -16 30 -21 30 -4 0 -11 9 -14 20 -3 11 -12 26 -20 33 -7
7 -25 38 -40 67 -15 29 -32 59 -39 66 -30 35 -36 44 -36 59 0 8 -4 15 -10 15
-5 0 -14 18 -20 40 -8 29 -16 40 -30 40 -11 0 -20 5 -20 10 0 6 -6 10 -12 10
-7 0 -24 14 -38 31 -14 16 -41 47 -60 68 -19 21 -42 49 -50 61 -24 35 -67 80
-78 80 -5 0 -15 14 -22 30 -7 17 -19 30 -26 30 -8 0 -14 4 -14 8 0 11 -27 46
-90 112 -73 79 -75 81 -100 130 -12 24 -29 50 -37 58 -8 8 -12 21 -9 28 8 20
-4 44 -20 44 -8 0 -14 8 -14 18 0 11 -9 29 -19 41 -10 12 -22 38 -26 58 -4 21
-15 54 -26 74 -18 37 -17 69 3 69 12 0 32 20 47 48 13 24 14 22 -51 92 -20 22
-39 40 -43 40 -22 0 -39 37 -39 86 -1 30 -4 54 -8 54 -13 0 -9 42 7 88 12 33
13 56 7 92 -11 57 0 149 18 160 9 5 11 21 6 53 -5 35 -3 48 10 62 10 9 23 47
30 83 22 115 37 162 51 162 8 0 13 13 13 38 1 20 7 48 15 62 8 14 14 37 15 53
0 15 4 27 9 27 5 0 13 9 16 20 4 14 15 20 36 20 16 0 29 4 29 9 0 5 7 17 16
26 27 27 84 193 84 245 0 20 -2 22 -10 10 -5 -8 -10 -27 -10 -42 0 -17 -5 -28
-14 -28 -9 0 -15 18 -19 55 -3 30 -12 61 -19 69 -7 7 -20 23 -28 35 -9 13 -25
21 -42 21 -22 0 -29 5 -33 28 -17 84 -44 152 -61 152 -8 0 -14 10 -14 25 l0
25 -2545 0 -2545 0 0 -17095z"/>
<path fill="#ffffff" stroke="000000" stroke-width="0.01" d="M14652 33492 c-77 -88 -90 -102 -97
-102 -9 0 -45 -40 -45 -50 0 -4 -9 -17 -20 -30 -11 -13 -25 -42 -31 -64 -6
-23 -17 -60 -25 -84 -8 -23 -14 -53 -14 -67 0 -13 -5 -46 -11 -72 -9 -38 -9
-64 0 -109 7 -32 16 -90 19 -127 4 -37 12 -71 19 -75 6 -4 14 -24 18 -44 4
-21 15 -47 26 -59 10 -12 21 -31 24 -43 16 -56 28 -76 47 -76 25 0 40 -16 55
-60 17 -50 33 -201 27 -257 -4 -34 1 -67 15 -112 12 -35 21 -89 21 -120 0 -31
7 -81 16 -111 64 -225 66 -269 26 -445 -16 -73 -29 -232 -23 -301 1 -15 36
-54 48 -54 6 0 16 -13 23 -30 7 -16 16 -30 20 -30 14 0 92 -238 119 -365 29
-131 70 -361 81 -453 5 -40 12 -77 15 -82 3 -5 12 -60 20 -122 18 -138 38
-245 59 -318 28 -96 46 -225 45 -311 -2 -101 7 -165 32 -230 11 -27 28 -72 39
-101 11 -28 24 -54 29 -57 11 -7 36 -73 56 -146 7 -27 18 -120 24 -205 14
-202 38 -290 80 -290 6 0 11 -4 11 -10 0 -5 5 -10 11 -10 6 0 24 -13 39 -30
15 -16 33 -30 39 -30 6 0 11 -4 11 -10 0 -5 8 -10 18 -10 10 0 24 -9 32 -20 8
-11 22 -20 32 -20 10 0 18 -4 18 -10 0 -5 7 -10 16 -10 17 0 53 -35 56 -54 1
-6 2 -29 3 -51 11 -209 25 -404 31 -425 7 -23 66 -90 80 -90 9 0 44 -41 44
-52 0 -4 7 -8 15 -8 8 0 15 -4 15 -10 0 -5 11 -10 25 -10 14 0 25 -4 25 -10 0
-5 25 -10 55 -10 30 0 55 -4 55 -10 0 -6 27 -10 60 -10 33 0 60 4 60 10 0 6
16 10 35 10 19 0 35 5 35 10 0 6 20 10 45 10 25 0 45 -4 45 -10 0 -5 10 -10
23 -10 12 0 29 -9 37 -20 8 -11 20 -20 27 -20 7 0 13 -4 13 -10 0 -5 9 -10 20
-10 11 0 20 -4 20 -10 0 -5 16 -10 35 -10 19 0 35 -4 35 -10 0 -5 11 -10 25
-10 14 0 25 -4 25 -10 0 -5 9 -10 20 -10 11 0 20 -4 20 -10 0 -5 16 -10 35
-10 19 0 35 -4 35 -10 0 -5 11 -10 25 -10 14 0 25 -4 25 -10 0 -5 11 -10 25
-10 14 0 25 -4 25 -10 0 -5 8 -10 18 -10 10 0 24 -10 32 -21 25 -36 108 -119
119 -119 6 0 11 -4 11 -10 0 -5 7 -10 15 -10 8 0 15 -4 15 -10 0 -5 20 -10 45
-10 25 0 45 -4 45 -10 0 -5 18 -10 40 -10 22 0 40 -4 40 -10 0 -5 14 -10 30
-10 48 0 105 -65 93 -108 -11 -43 35 -182 73 -220 8 -7 14 -17 14 -22 0 -5 6
-15 14 -23 32 -32 127 -240 133 -291 3 -28 12 -64 20 -80 10 -19 13 -43 8 -72
-6 -43 -5 -44 20 -44 29 0 105 -70 105 -96 0 -8 -15 -29 -33 -47 -17 -18 -41
-52 -51 -75 -10 -23 -23 -42 -28 -42 -4 0 -8 -7 -8 -15 0 -21 -42 -105 -53
-105 -5 0 -18 -10 -28 -22 -48 -59 -92 -107 -191 -209 -60 -60 -108 -114 -108
-119 0 -6 -6 -10 -13 -10 -7 0 -19 -10 -27 -21 -8 -12 -35 -43 -60 -69 -25
-26 -52 -57 -60 -70 -13 -20 -33 -45 -58 -76 -5 -5 -15 -21 -22 -34 -7 -13
-22 -34 -34 -46 -11 -13 -31 -35 -44 -51 -12 -15 -31 -39 -42 -52 -11 -13 -22
-32 -25 -42 -4 -11 -10 -19 -15 -19 -5 0 -12 -9 -15 -20 -4 -11 -32 -47 -63
-80 -69 -72 -76 -80 -92 -110 -14 -27 -55 -70 -67 -70 -4 0 -18 -13 -31 -28
-12 -15 -31 -38 -42 -51 -11 -13 -20 -28 -20 -33 0 -4 -5 -8 -11 -8 -12 0 -33
-21 -59 -60 -21 -31 -107 -120 -117 -121 -4 0 -28 -22 -53 -50 -97 -107 -159
-169 -169 -169 -6 0 -11 -4 -11 -10 0 -5 -7 -10 -15 -10 -8 0 -15 -4 -15 -10
0 -5 -6 -10 -13 -10 -7 0 -19 -9 -27 -20 -8 -11 -19 -20 -25 -20 -6 0 -17 -9
-25 -21 -8 -11 -22 -29 -30 -39 -8 -10 -42 -72 -75 -139 -32 -66 -65 -121 -72
-121 -7 0 -13 -4 -13 -9 0 -14 -56 -71 -70 -71 -44 0 -100 -141 -100 -253 0
-52 -19 -113 -40 -127 -4 -3 -17 -25 -29 -49 -13 -24 -31 -53 -42 -65 -78 -86
-99 -106 -113 -106 -9 0 -16 -4 -16 -10 0 -5 -7 -10 -15 -10 -8 0 -15 -4 -15
-10 0 -5 -7 -10 -15 -10 -8 0 -15 -4 -15 -10 0 -5 -8 -10 -17 -10 -10 0 -29
-14 -43 -31 -14 -16 -37 -44 -52 -60 -16 -17 -28 -35 -28 -40 0 -5 -7 -9 -15
-9 -8 0 -15 -4 -15 -10 0 -5 -5 -10 -10 -10 -6 0 -40 -30 -77 -67 -63 -63 -67
-69 -67 -112 1 -44 34 -128 56 -142 14 -9 13 -206 -1 -256 -6 -22 -25 -56 -41
-73 -16 -17 -34 -48 -39 -68 -30 -116 -22 -189 32 -297 16 -33 36 -81 42 -107
7 -25 18 -52 24 -60 42 -49 52 -65 58 -87 3 -14 12 -39 21 -55 12 -25 12 -41
2 -105 -29 -185 -50 -262 -84 -297 -6 -6 -18 -22 -26 -34 -8 -12 -20 -28 -26
-34 -37 -39 -39 -55 -46 -436 -8 -433 -11 -500 -26 -509 -5 -3 -13 -24 -17
-46 -8 -46 -27 -105 -48 -155 -9 -19 -21 -50 -27 -67 -7 -18 -20 -41 -29 -52
-9 -10 -23 -29 -31 -41 -8 -12 -23 -31 -32 -42 -10 -12 -18 -27 -18 -34 0 -24
-44 -104 -57 -104 -7 0 -13 -4 -13 -10 0 -5 -7 -10 -15 -10 -8 0 -15 -4 -15
-10 0 -5 -5 -10 -11 -10 -6 0 -24 -13 -39 -30 -15 -16 -35 -30 -44 -30 -9 0
-16 -4 -16 -10 0 -5 -7 -10 -16 -10 -18 0 -36 -16 -53 -47 -10 -19 -6 -33 25
-95 20 -39 53 -88 73 -107 53 -51 61 -70 61 -148 0 -37 5 -125 12 -196 10
-114 10 -131 -5 -162 -9 -20 -17 -54 -17 -77 0 -23 -4 -69 -10 -102 -5 -34
-17 -113 -25 -176 -9 -63 -29 -168 -46 -232 -16 -64 -29 -139 -29 -166 0 -68
-19 -162 -36 -179 -8 -8 -16 -24 -18 -36 -28 -132 -39 -200 -51 -300 -8 -65
-26 -162 -40 -217 -20 -77 -25 -124 -25 -215 0 -115 0 -116 -41 -197 -40 -80
-69 -158 -84 -228 -4 -19 -27 -74 -51 -122 -47 -93 -54 -110 -115 -283 -30
-86 -39 -125 -39 -180 -1 -65 -6 -87 -40 -170 -16 -40 -6 -115 20 -147 11 -12
24 -28 29 -34 23 -28 79 -154 91 -204 7 -30 30 -89 50 -130 45 -91 59 -183 35
-229 -9 -19 -15 -56 -15 -101 0 -64 -4 -79 -46 -162 -25 -50 -51 -97 -58 -104
-7 -7 -18 -26 -24 -43 -7 -17 -17 -45 -23 -61 -6 -17 -15 -30 -19 -30 -4 0
-13 -13 -20 -29 -12 -30 -3 -87 19 -113 41 -48 51 -63 51 -75 0 -36 73 -143
98 -143 17 0 56 -126 67 -215 4 -33 13 -71 20 -85 7 -14 16 -50 20 -80 7 -52
43 -139 69 -166 6 -6 18 -21 26 -33 8 -11 20 -21 27 -21 7 0 13 -4 13 -10 0
-5 8 -10 18 -10 10 0 24 -9 32 -20 9 -13 26 -20 46 -20 27 0 34 -6 49 -40 21
-47 47 -80 64 -80 6 0 11 -4 11 -10 0 -5 7 -10 15 -10 27 0 65 -47 65 -79 0
-17 7 -47 16 -68 31 -74 85 -185 94 -196 24 -28 46 -57 60 -77 8 -12 23 -31
33 -42 9 -12 17 -24 17 -28 0 -12 37 -50 49 -50 6 0 11 -4 11 -10 0 -5 14 -10
30 -10 17 0 30 -4 30 -10 0 -5 20 -10 45 -10 25 0 45 -4 45 -10 0 -5 18 -10
40 -10 22 0 40 -4 40 -10 0 -5 16 -10 35 -10 19 0 35 -4 35 -10 0 -5 7 -10 15
-10 8 0 15 5 15 10 0 6 14 10 30 10 17 0 30 5 30 10 0 6 23 10 50 10 28 0 50
-4 50 -10 0 -5 6 -10 13 -10 6 0 23 -14 37 -31 14 -17 35 -41 47 -53 12 -13
33 -47 48 -77 15 -29 33 -59 41 -67 8 -7 14 -17 14 -22 0 -5 6 -15 14 -22 23
-23 53 -90 66 -148 7 -30 28 -85 46 -122 38 -75 42 -114 19 -198 -28 -104 -16
-201 31 -248 8 -7 17 -25 20 -40 8 -32 42 -101 58 -118 6 -6 18 -22 26 -34 8
-13 41 -49 72 -81 55 -57 91 -73 101 -46 4 10 6 10 6 0 1 -15 41 -18 41 -3 0
6 9 10 20 10 11 0 20 5 20 10 0 6 5 10 11 10 18 0 35 24 75 101 30 58 40 90
45 149 4 41 16 111 27 155 12 44 23 92 26 106 6 29 38 69 55 69 6 0 11 5 11
10 0 6 7 10 15 10 8 0 15 -4 15 -10 0 -5 7 -10 15 -10 8 0 15 -4 15 -10 0 -5
7 -10 15 -10 8 0 15 -4 15 -10 0 -5 25 -10 55 -10 30 0 55 5 55 10 0 6 24 10
53 10 46 -1 55 -4 77 -31 14 -16 42 -48 63 -70 28 -31 37 -49 37 -75 0 -21 18
-70 45 -124 25 -49 45 -96 45 -104 0 -8 6 -21 14 -28 7 -8 21 -29 31 -48 10
-19 23 -40 29 -47 28 -31 36 -43 59 -90 30 -58 43 -122 53 -258 4 -55 15 -127
26 -160 28 -89 43 -190 40 -277 -2 -73 -5 -85 -58 -190 -53 -104 -57 -119 -61
-193 -2 -44 -6 -90 -9 -102 -5 -24 -176 -203 -194 -203 -5 0 -10 -4 -10 -10 0
-5 -6 -10 -13 -10 -7 0 -19 -9 -27 -21 -28 -39 -47 -59 -59 -59 -6 0 -11 -4
-11 -10 0 -5 -6 -10 -13 -10 -7 0 -19 -9 -27 -20 -8 -11 -20 -20 -27 -20 -7 0
-13 -4 -13 -10 0 -5 -6 -10 -12 -10 -7 -1 -29 -19 -48 -41 -19 -22 -60 -66
-90 -99 -74 -80 -75 -81 -100 -131 -13 -24 -26 -46 -30 -49 -4 -3 -15 -21 -25
-40 -18 -35 -39 -60 -50 -60 -10 0 -65 -60 -65 -70 0 -5 -17 -26 -37 -48 -38
-41 -56 -62 -83 -103 -8 -12 -25 -32 -37 -45 -28 -28 -29 -44 -3 -74 11 -13
20 -31 20 -40 0 -9 -9 -59 -20 -110 -11 -51 -20 -97 -20 -102 0 -4 -20 -27
-44 -52 -24 -24 -52 -59 -61 -77 -22 -42 -39 -59 -59 -59 -9 0 -16 -4 -16 -10
0 -5 -7 -10 -15 -10 -8 0 -15 -4 -15 -10 0 -5 -6 -10 -12 -10 -7 0 -23 -13
-36 -28 -12 -15 -31 -38 -42 -51 -48 -58 -51 -170 -7 -301 13 -41 30 -104 37
-140 12 -65 48 -160 60 -160 4 0 17 -22 30 -50 13 -27 26 -50 30 -50 17 0 80
-193 80 -245 0 -18 4 -55 10 -84 5 -28 12 -178 15 -333 4 -228 8 -294 22 -338
17 -56 33 -80 52 -80 6 0 11 -4 11 -10 0 -5 6 -10 13 -10 7 0 19 -10 27 -21 8
-12 29 -37 47 -54 17 -18 41 -52 53 -76 27 -51 43 -69 65 -69 22 0 40 -19 48
-51 4 -14 16 -36 27 -49 11 -13 20 -29 20 -37 0 -22 59 -133 85 -159 13 -13
26 -33 30 -44 3 -11 10 -20 15 -20 5 0 12 -9 15 -20 4 -11 17 -31 30 -44 13
-13 33 -43 45 -67 28 -54 43 -69 69 -69 12 0 21 -4 21 -10 0 -5 7 -10 15 -10
8 0 15 -4 15 -10 0 -5 7 -10 15 -10 8 0 15 -4 15 -10 0 -5 14 -10 30 -10 17 0
30 5 30 10 0 6 23 10 50 10 28 0 50 -4 50 -10 0 -5 7 -10 15 -10 8 0 15 -4 15
-10 0 -5 9 -10 20 -10 11 0 20 -4 20 -10 0 -5 6 -10 13 -10 7 0 19 -9 27 -21
33 -47 69 -79 89 -79 12 0 21 -4 21 -10 0 -6 30 -10 70 -10 40 0 70 -4 70 -10
0 -5 14 -10 30 -10 17 0 30 -4 30 -10 0 -5 16 -10 35 -10 19 0 35 -4 35 -10 0
-5 25 -10 55 -10 30 0 55 -4 55 -10 0 -5 11 -10 25 -10 14 0 25 -4 25 -10 0
-5 9 -10 20 -10 11 0 20 -4 20 -10 0 -5 9 -10 20 -10 11 0 20 -4 20 -10 0 -5
9 -10 20 -10 11 0 20 -4 20 -10 0 -5 18 -10 40 -10 22 0 40 -4 40 -10 0 -5 9
-10 20 -10 11 0 20 -4 20 -10 0 -5 9 -10 20 -10 11 0 20 -4 20 -10 0 -5 14
-10 31 -10 22 0 40 -9 59 -30 15 -16 31 -30 34 -30 4 0 22 -15 41 -34 35 -35
68 -92 78 -137 4 -15 19 -41 34 -57 16 -17 39 -45 53 -61 14 -17 33 -31 43
-31 9 0 17 -4 17 -10 0 -5 5 -10 11 -10 13 0 49 -38 49 -52 0 -4 7 -8 15 -8 8
0 15 -4 15 -10 0 -5 5 -10 11 -10 6 0 24 -13 39 -30 15 -16 33 -30 39 -30 6 0
11 -4 11 -10 0 -5 16 -10 35 -10 19 0 35 -4 35 -10 0 -5 23 -10 50 -10 28 0
50 -4 50 -10 0 -5 23 -10 50 -10 28 0 50 -4 50 -10 0 -5 11 -10 25 -10 14 0
25 -4 25 -10 0 -5 9 -10 20 -10 11 0 20 -4 20 -10 0 -5 9 -10 20 -10 11 0 20
-4 20 -10 0 -5 25 -10 55 -10 30 0 55 -4 55 -10 0 -5 6 -10 13 -10 8 0 19 -11
25 -25 7 -14 16 -31 22 -38 39 -47 70 -77 79 -77 6 0 11 -4 11 -10 0 -5 11
-10 25 -10 14 0 25 -4 25 -10 0 -5 14 -10 30 -10 17 0 30 -4 30 -10 0 -5 9
-10 20 -10 11 0 20 -4 20 -10 0 -24 45 -7 80 30 21 22 46 40 54 40 9 0 16 5
16 10 0 6 25 10 55 10 30 0 55 -4 55 -10 0 -5 6 -10 14 -10 8 0 18 -9 21 -20
4 -13 15 -20 30 -20 13 0 26 -6 29 -12 5 -10 7 -10 12 0 4 8 33 12 95 12 53 0
89 4 89 10 0 6 7 10 16 10 16 0 54 36 54 50 0 5 13 22 29 39 15 16 34 44 41
61 7 16 16 30 20 30 4 0 15 19 24 43 37 87 46 108 56 120 38 45 50 61 50 67 0
4 8 16 18 28 9 11 24 30 32 41 8 12 20 21 27 21 7 0 15 12 18 28 3 15 13 49
21 76 7 26 14 53 14 58 0 6 8 18 19 27 10 9 35 50 56 91 46 91 44 133 -10 240
-35 70 -44 82 -112 154 -17 19 -44 58 -58 87 -15 29 -32 58 -39 65 -6 7 -22
27 -36 44 -38 47 -118 130 -125 130 -4 0 -24 18 -45 40 -21 22 -43 40 -49 40
-6 0 -11 5 -11 10 0 6 -7 10 -15 10 -8 0 -15 5 -15 10 0 6 -5 10 -11 10 -6 0
-28 18 -49 40 -21 22 -43 40 -49 40 -6 0 -11 5 -11 10 0 6 -9 10 -20 10 -11 0
-20 5 -20 10 0 6 -13 10 -30 10 -16 0 -30 5 -30 10 0 6 -11 10 -25 10 -14 0
-25 5 -25 10 0 6 -6 10 -14 10 -25 0 -41 61 -39 151 1 79 14 144 42 224 6 17
13 42 15 56 7 32 47 79 53 62 3 -7 10 -13 17 -13 6 0 18 -9 26 -20 8 -11 22
-20 31 -20 10 0 20 -6 22 -12 4 -10 6 -10 6 0 1 6 10 12 21 12 11 0 20 5 20
10 0 6 7 10 15 10 8 0 15 5 15 10 0 6 7 10 15 10 8 0 15 5 15 10 0 6 7 10 15
10 8 0 15 5 15 10 0 6 5 10 11 10 12 0 32 21 59 60 8 12 23 32 33 43 13 15 16
30 12 47 -15 57 -16 89 -6 125 7 27 7 44 -1 59 -15 27 -34 46 -47 46 -6 0 -11
5 -11 10 0 6 -5 10 -11 10 -26 0 -68 72 -99 172 -19 59 -39 88 -59 88 -6 0
-11 5 -11 10 0 6 -7 10 -15 10 -8 0 -15 5 -15 10 0 6 -7 10 -15 10 -8 0 -15 5
-15 10 0 6 -11 10 -25 10 -14 0 -25 5 -25 10 0 6 -13 10 -30 10 -26 0 -31 5
-40 40 -6 22 -15 40 -21 40 -12 0 -39 -25 -39 -37 0 -4 -5 -25 -11 -46 -8 -30
-15 -37 -34 -37 -14 0 -25 -4 -25 -10 0 -5 -5 -10 -11 -10 -6 0 -24 -13 -39
-30 -15 -16 -33 -30 -39 -30 -6 0 -11 -4 -11 -10 0 -5 -9 -10 -21 -10 -39 0
-47 -21 -44 -107 2 -48 10 -93 19 -111 34 -66 8 -142 -48 -142 -14 0 -26 -4
-26 -10 0 -5 -20 -10 -45 -10 -25 0 -45 -4 -45 -10 0 -19 -48 -11 -55 10 -10
31 -52 25 -86 -11 -16 -17 -29 -34 -29 -39 0 -6 -9 -18 -49 -66 -5 -6 -17 -26
-26 -44 -10 -19 -23 -40 -31 -47 -15 -15 -44 -17 -44 -3 0 6 -7 10 -15 10 -8
0 -15 5 -15 10 0 6 -9 10 -20 10 -11 0 -20 5 -20 10 0 6 -7 10 -16 10 -8 0
-42 27 -74 60 -32 33 -62 60 -65 60 -3 0 -50 45 -105 100 -55 55 -104 100
-110 100 -5 0 -10 5 -10 10 0 6 -7 10 -15 10 -8 0 -15 5 -15 10 0 6 -9 10 -20
10 -11 0 -20 5 -20 10 0 6 -9 10 -21 10 -11 0 -38 18 -59 40 -21 22 -43 40
-49 40 -6 0 -11 4 -11 8 0 5 -9 20 -20 33 -11 13 -30 36 -42 51 -13 15 -29 28
-35 28 -7 0 -13 5 -13 10 0 6 -6 10 -13 10 -7 0 -19 9 -27 20 -8 11 -18 20
-23 20 -4 0 -30 23 -57 50 -27 28 -53 50 -59 50 -6 0 -11 5 -11 10 0 6 -7 10
-16 10 -14 0 -39 24 -82 75 -5 6 -18 27 -27 45 -10 19 -23 39 -29 46 -6 6 -18
22 -26 34 -14 20 -34 46 -59 76 -5 6 -17 26 -26 44 -10 19 -24 40 -31 48 -8 7
-14 17 -14 21 0 4 -8 17 -17 29 -10 11 -25 30 -33 42 -8 12 -26 35 -40 51 -14
15 -35 41 -48 56 -12 15 -31 39 -42 52 -11 14 -22 34 -25 45 -2 12 -11 59 -20
105 -18 93 -26 113 -61 147 -12 13 -25 33 -29 44 -3 11 -11 20 -16 20 -13 0
-11 47 2 72 6 12 22 32 34 44 29 29 64 139 58 181 -3 18 -3 43 1 56 6 24 38
67 50 67 13 0 54 47 71 81 20 37 39 59 52 59 5 0 25 32 44 71 39 82 60 109 83
109 9 0 16 5 16 10 0 6 7 10 15 10 8 0 15 5 15 10 0 6 6 10 13 10 7 0 19 9 27
20 8 11 20 20 27 20 7 0 13 5 13 10 0 6 7 10 15 10 8 0 15 5 15 10 0 6 7 10
16 10 39 0 74 75 74 160 0 25 7 65 16 89 8 24 21 85 29 135 7 50 20 125 28
166 9 41 18 117 22 169 6 89 20 138 51 168 7 7 15 13 19 13 20 0 85 113 85
149 0 25 56 198 70 214 71 83 71 89 34 234 -4 12 2 48 12 80 28 92 57 143 83
143 6 0 11 5 11 10 0 6 6 10 13 10 8 0 24 23 38 52 22 46 24 62 21 167 -2 63
-8 123 -13 132 -5 9 -8 37 -7 61 1 50 -17 121 -36 140 -7 7 -16 25 -19 39 -4
15 -20 41 -37 59 -46 49 -55 96 -41 222 13 112 8 148 -35 230 -22 42 -42 65
-273 305 -33 34 -67 76 -76 93 -9 18 -31 47 -48 65 -18 18 -39 42 -47 55 -8
13 -34 42 -57 65 -23 24 -49 57 -58 75 -9 18 -27 43 -39 55 -11 12 -28 32 -36
44 -8 11 -20 21 -27 21 -7 0 -13 5 -13 10 0 6 -11 10 -25 10 -14 0 -25 5 -25
10 0 6 -11 10 -25 10 -14 0 -25 5 -25 10 0 6 -5 10 -11 10 -15 0 -86 76 -94
100 -4 11 -10 20 -14 20 -8 0 -35 57 -46 97 -7 26 -58 83 -74 83 -6 0 -11 5
-11 10 0 6 -7 10 -15 10 -8 0 -15 5 -15 10 0 6 -9 10 -20 10 -11 0 -20 5 -20
10 0 6 -12 10 -26 10 -17 0 -39 14 -64 40 -21 22 -42 40 -47 40 -5 0 -15 9
-23 20 -8 11 -20 20 -27 20 -7 0 -13 5 -13 10 0 6 -9 10 -20 10 -11 0 -20 5
-20 10 0 6 -11 10 -25 10 -14 0 -25 5 -25 10 0 6 -8 10 -18 10 -18 0 -36 32
-77 140 -9 25 -25 65 -35 90 -70 177 -110 294 -126 375 -8 39 -20 88 -25 110
-15 57 -51 365 -53 460 -2 67 1 88 22 129 15 32 24 67 24 101 1 46 -26 157
-53 223 -12 31 -11 48 4 64 28 29 51 131 51 234 1 80 4 104 18 117 18 18 58
23 58 7 0 -5 9 -10 20 -10 11 0 20 -4 20 -10 0 -5 9 -10 20 -10 11 0 20 -4 20
-10 0 -5 9 -10 20 -10 11 0 20 -4 20 -10 0 -5 14 -10 30 -10 17 0 30 -4 30
-10 0 -6 32 -10 75 -10 43 0 75 4 75 10 0 6 23 10 50 10 28 0 50 5 50 10 0 6
7 10 16 10 32 0 61 48 84 138 6 23 15 42 20 42 4 0 11 19 15 43 10 64 15 77
31 77 8 0 14 5 14 10 0 6 11 10 25 10 14 0 25 5 25 10 0 6 9 10 20 10 11 0 20
-4 20 -10 0 -5 7 -10 15 -10 8 0 15 -4 15 -10 0 -5 5 -10 11 -10 6 0 24 -13
39 -30 15 -16 33 -30 39 -30 6 0 11 -4 11 -10 0 -5 20 -10 45 -10 25 0 45 -4
45 -10 0 -5 11 -10 25 -10 14 0 25 -4 25 -10 0 -5 5 -10 10 -10 19 0 98 -87
121 -132 12 -23 25 -45 29 -48 4 -3 20 -29 35 -59 29 -58 47 -81 64 -81 6 0
11 -4 11 -10 0 -5 20 -10 45 -10 25 0 45 5 45 10 0 6 16 10 35 10 19 0 35 5
35 10 0 6 16 10 35 10 19 0 35 5 35 10 0 6 20 10 45 10 25 0 45 5 45 10 0 6
11 10 25 10 14 0 25 5 25 10 0 6 5 10 11 10 6 0 28 18 49 40 21 22 46 40 54
40 9 0 16 5 16 10 0 6 9 10 20 10 11 0 20 5 20 10 0 6 7 10 15 10 8 0 15 5 15
10 0 6 9 10 20 10 11 0 20 5 20 10 0 6 7 10 15 10 8 0 15 5 15 10 0 6 7 10 15
10 8 0 15 5 15 10 0 6 7 10 15 10 8 0 15 5 15 10 0 6 7 10 15 10 8 0 15 5 15
10 0 6 7 10 15 10 8 0 15 5 15 10 0 6 9 10 20 10 11 0 20 5 20 10 0 6 14 10
30 10 17 0 30 5 30 10 0 6 28 10 65 10 37 0 65 -4 65 -10 0 -5 7 -10 15 -10 8
0 15 -4 15 -10 0 -5 7 -10 15 -10 34 0 125 -120 125 -165 0 -8 4 -15 9 -15 5
0 13 -9 16 -20 3 -11 12 -26 19 -33 28 -28 56 -99 66 -164 5 -37 16 -86 24
-109 24 -66 45 -207 56 -379 11 -162 29 -235 57 -235 7 0 13 -4 13 -10 0 -5 9
-10 20 -10 11 0 20 -4 20 -10 0 -5 11 -10 25 -10 14 0 25 -4 25 -10 0 -5 6
-10 13 -10 7 0 27 -28 43 -62 32 -68 74 -118 98 -118 9 0 16 -4 16 -10 0 -5 7
-10 15 -10 8 0 15 -4 15 -10 0 -5 7 -10 15 -10 8 0 15 -4 15 -10 0 -5 7 -10
15 -10 8 0 15 -4 15 -9 0 -5 6 -16 14 -23 7 -8 24 -34 36 -58 25 -48 43 -70
59 -70 6 0 11 -4 11 -10 0 -5 9 -10 20 -10 11 0 20 -4 20 -10 0 -5 25 -10 55
-10 30 0 55 -4 55 -10 0 -5 11 -10 25 -10 14 0 25 -4 25 -10 0 -5 9 -10 20
-10 11 0 20 -4 20 -10 0 -5 9 -10 20 -10 11 0 20 -4 20 -10 0 -5 9 -10 20 -10
11 0 20 -4 20 -10 0 -5 14 -10 30 -10 17 0 30 -4 30 -10 0 -6 27 -10 60 -10
33 0 60 -4 60 -10 0 -5 7 -10 16 -10 9 0 29 -13 44 -30 15 -16 33 -30 39 -30
6 0 11 -4 11 -10 0 -5 7 -10 15 -10 8 0 15 -4 15 -10 0 -5 18 -10 40 -10 22 0
40 5 40 10 0 6 7 10 15 10 8 0 15 -4 15 -10 0 -5 11 -10 25 -10 14 0 25 -4 25
-10 0 -5 9 -10 21 -10 12 0 34 -13 49 -30 15 -16 33 -30 39 -30 6 0 11 -5 11
-11 0 -6 7 -4 15 5 23 23 0 66 -35 66 -23 0 -31 9 -59 69 -24 49 -32 76 -27
95 3 14 9 37 12 51 6 24 4 25 -36 25 -36 0 -47 6 -82 42 -36 38 -39 44 -32 77
5 20 8 56 7 81 -4 235 -11 348 -20 365 -6 11 -16 45 -23 75 -18 79 -64 165
-116 216 -24 25 -44 49 -44 54 0 5 -6 15 -14 22 -22 23 -46 75 -46 102 0 25
-6 58 -36 202 -17 84 -16 127 7 182 11 27 11 37 0 65 -23 53 -25 115 -6 157
32 71 -4 179 -86 262 -30 30 -61 65 -69 77 -8 13 -23 32 -32 43 -10 12 -18 25
-18 29 0 4 -11 19 -24 32 -14 14 -43 62 -66 108 -23 45 -48 89 -56 96 -8 8
-16 26 -20 41 -8 43 -21 93 -39 152 -20 71 -12 227 20 378 33 155 62 222 94
222 6 0 11 5 11 10 0 6 18 10 41 10 51 0 67 16 85 83 22 82 17 137 -12 137 -8
0 -14 5 -14 10 0 6 -9 10 -20 10 -11 0 -20 5 -20 10 0 6 -7 10 -15 10 -8 0
-15 5 -15 10 0 6 -7 10 -15 10 -8 0 -15 5 -15 10 0 6 -9 10 -20 10 -11 0 -20
5 -20 10 0 6 -16 10 -35 10 -19 0 -35 5 -35 10 0 6 -9 10 -21 10 -19 0 -99 72
-99 90 0 12 -57 70 -69 70 -6 0 -11 5 -11 10 0 6 -11 10 -25 10 -14 0 -25 -4
-25 -10 0 -5 -16 -10 -36 -10 -59 0 -83 -43 -85 -150 0 -68 -20 -188 -69 -417
-12 -52 -12 -73 -1 -129 13 -62 12 -68 -9 -115 l-23 -49 -64 0 c-35 0 -63 4
-63 10 0 6 -7 10 -16 10 -8 0 -33 18 -54 40 -21 22 -41 40 -45 40 -4 0 -24 18
-45 40 -21 22 -42 40 -47 40 -5 0 -15 10 -23 21 -8 12 -20 27 -26 33 -7 7 -24
37 -39 66 -15 29 -33 60 -41 68 -8 7 -14 17 -14 22 0 13 -117 130 -129 130 -6
0 -11 5 -11 10 0 6 -6 10 -13 10 -7 0 -19 9 -27 20 -13 18 -26 20 -152 20 -85
0 -138 -4 -138 -10 0 -5 -20 -10 -45 -10 -25 0 -45 5 -45 10 0 6 -6 10 -13 10
-7 0 -19 9 -27 20 -8 11 -20 20 -27 20 -7 0 -13 5 -13 10 0 6 -7 10 -15 10 -8
0 -15 5 -15 10 0 6 -9 10 -20 10 -11 0 -20 5 -20 10 0 6 -11 10 -25 10 -14 0
-25 5 -25 10 0 6 -18 10 -40 10 -22 0 -40 5 -40 10 0 6 -13 10 -28 10 -17 0
-33 8 -42 21 -8 11 -23 30 -32 41 -10 12 -18 27 -18 35 0 16 -69 156 -81 163
-4 3 -14 26 -22 50 -99 307 -142 570 -159 965 -19 441 -18 450 32 625 21 75
47 288 66 541 5 74 3 108 -9 150 -32 110 -64 341 -72 519 -3 69 -8 136 -11
149 -3 13 0 58 6 100 6 42 15 105 20 141 11 79 60 233 95 301 8 15 18 73 21
131 5 81 12 114 31 152 31 60 45 76 72 76 12 0 21 5 21 10 0 6 25 10 55 10 30
0 55 5 55 10 0 6 9 10 20 10 11 0 20 5 20 10 0 6 5 10 11 10 16 0 48 39 55 67
4 12 3 42 -1 65 -16 105 -16 205 0 264 9 32 23 88 31 124 8 36 21 81 28 100 8
19 20 50 26 68 10 26 18 32 41 32 16 0 29 -4 29 -10 0 -5 9 -10 20 -10 11 0
20 -4 20 -10 0 -5 6 -10 13 -10 7 0 19 -9 27 -20 8 -11 20 -20 27 -20 7 0 13
-4 13 -10 0 -5 20 -10 45 -10 25 0 45 5 45 10 0 6 6 10 13 10 7 0 19 9 27 20
8 11 20 20 27 20 7 0 13 5 13 10 0 6 7 10 15 10 8 0 15 5 15 10 0 6 7 10 15
10 8 0 15 5 15 10 0 6 9 10 20 10 11 0 20 5 20 10 0 6 7 10 15 10 8 0 15 5 15
10 0 6 7 10 15 10 8 0 15 5 15 10 0 6 7 10 15 10 8 0 15 5 15 10 0 6 14 10 30
10 17 0 30 5 30 10 0 6 18 10 40 10 22 0 40 -4 40 -10 0 -5 6 -10 13 -10 7 0
19 -9 27 -20 8 -11 20 -20 27 -20 7 0 13 -4 13 -10 0 -5 5 -10 11 -10 18 0 36
-24 79 -110 23 -46 48 -89 55 -97 16 -16 155 -19 155 -3 0 6 9 10 20 10 11 0
20 5 20 10 0 6 7 10 15 10 8 0 15 5 15 10 0 6 9 10 20 10 11 0 20 5 20 10 0 6
9 10 20 10 11 0 20 5 20 10 0 6 14 10 30 10 17 0 30 5 30 10 0 6 9 10 20 10
11 0 20 5 20 10 0 6 18 10 40 10 22 0 40 5 40 10 0 6 7 10 15 10 8 0 15 5 15
10 0 6 5 10 11 10 24 0 50 43 89 148 7 17 18 32 25 32 17 0 35 45 35 91 0 36
17 69 35 69 20 0 66 68 84 125 20 65 57 115 86 115 8 0 15 5 15 10 0 6 16 10
35 10 19 0 35 5 35 10 0 6 7 10 15 10 8 0 15 5 15 10 0 6 7 10 15 10 8 0 15 5
15 10 0 6 11 10 25 10 14 0 25 5 25 10 0 6 7 10 15 10 20 0 79 59 97 96 11 24
13 145 12 659 -1 592 0 635 18 720 38 176 35 211 -39 365 -19 41 -43 100 -53
131 -10 31 -28 75 -39 97 -12 23 -21 47 -21 55 0 12 -7 23 -49 73 -5 6 -12 26
-16 45 -4 19 -18 57 -30 84 -43 94 -55 126 -55 140 0 8 -4 15 -8 15 -4 0 -14
21 -21 48 -13 46 -39 120 -79 232 -10 30 -26 84 -35 120 -8 36 -27 108 -42
160 -43 153 -57 264 -85 670 -5 85 -10 183 -10 218 0 44 -6 75 -21 103 -22 44
-81 109 -99 109 -5 0 -10 4 -10 9 0 5 -14 24 -30 42 -44 49 -46 53 -65 89 -19
37 -59 80 -75 80 -5 0 -10 5 -10 10 0 6 -7 10 -15 10 -8 0 -15 5 -15 10 0 6
-11 10 -25 10 -14 0 -25 5 -25 10 0 6 -6 10 -13 10 -7 0 -19 9 -27 20 -8 12
-26 20 -42 20 -15 0 -28 5 -28 10 0 6 -11 10 -25 10 -14 0 -25 5 -25 10 0 6
-22 10 -50 10 -27 0 -50 -4 -50 -10 0 -5 -7 -10 -16 -10 -9 0 -29 -13 -44 -30
-15 -16 -35 -30 -44 -30 -9 0 -16 -4 -16 -10 0 -6 -33 -10 -80 -10 -47 0 -80
4 -80 10 0 6 -9 10 -20 10 -11 0 -20 5 -20 10 0 6 -9 10 -20 10 -11 0 -20 5
-20 10 0 6 -7 10 -15 10 -8 0 -15 5 -15 10 0 6 -9 10 -20 10 -11 0 -20 5 -20
10 0 6 -6 10 -13 10 -7 0 -19 10 -27 21 -8 12 -31 39 -50 60 -19 21 -51 57
-70 78 -19 22 -41 40 -47 41 -7 0 -13 5 -13 10 0 6 -7 10 -15 10 -8 0 -15 5
-15 10 0 6 -9 10 -20 10 -11 0 -20 5 -20 10 0 6 -9 10 -20 10 -11 0 -20 5 -20
10 0 6 -9 10 -19 10 -11 0 -22 6 -24 13 -4 10 -6 10 -6 0 -1 -16 -101 -18
-101 -3 0 6 -7 10 -15 10 -8 0 -15 5 -15 10 0 6 -11 10 -25 10 -14 0 -25 5
-25 10 0 6 -7 10 -15 10 -8 0 -15 5 -15 10 0 6 -7 10 -15 10 -8 0 -15 5 -15
10 0 6 -7 10 -15 10 -8 0 -15 5 -15 10 0 6 -7 10 -16 10 -9 0 -29 14 -44 30
-15 17 -33 30 -39 30 -6 0 -11 5 -11 10 0 6 -5 10 -11 10 -6 0 -24 14 -39 30
-15 17 -33 30 -39 30 -6 0 -11 5 -11 10 0 6 -5 10 -10 10 -18 0 -98 86 -118
127 -10 21 -29 79 -41 128 -24 101 -40 145 -51 145 -4 0 -13 13 -20 30 -14 34
-43 70 -56 70 -5 0 -16 10 -24 21 -8 12 -31 39 -50 59 -56 61 -70 82 -80 120
-5 19 -13 53 -19 76 -6 22 -20 52 -31 65 -11 13 -30 36 -42 51 -13 15 -29 28
-35 28 -7 0 -13 5 -13 10 0 6 -7 10 -16 10 -24 0 -38 19 -84 109 -39 78 -97
151 -120 151 -5 0 -10 5 -10 10 0 6 -6 10 -13 10 -8 0 -19 11 -25 25 -14 30
-21 38 -83 105 -37 38 -47 58 -52 94 -4 28 -16 57 -29 71 -34 36 -44 49 -58
75 -16 29 -35 50 -47 50 -5 0 -15 9 -23 20 -8 11 -20 20 -27 20 -7 0 -13 5
-13 10 0 6 -5 10 -10 10 -17 0 -56 43 -62 68 -4 13 -2 37 2 54 7 23 5 39 -9
67 -14 27 -18 58 -18 131 0 52 -5 115 -12 140 -15 58 -42 120 -52 120 -4 0
-11 9 -14 20 -4 11 -17 31 -30 44 -29 29 -70 109 -95 185 -11 31 -26 74 -34
96 -23 62 -21 177 5 227 12 23 28 48 35 56 18 17 28 57 19 72 -14 23 -37 137
-45 229 -9 98 -33 171 -57 171 -7 0 -13 5 -13 10 0 6 -5 10 -11 10 -23 0 -49
39 -74 114 -15 45 -15 51 6 118 26 85 22 133 -19 215 -16 32 -39 103 -52 158
-12 55 -29 122 -37 149 -14 48 -43 168 -64 270 -6 26 -15 54 -21 61 -43 52
-68 75 -82 75 -9 0 -16 5 -16 10 0 6 -38 10 -95 10 -57 0 -95 4 -95 10 0 6 -9
10 -20 10 -11 0 -20 5 -20 10 0 6 -11 10 -24 10 -15 0 -27 7 -31 19 -8 25 -40
61 -54 61 -6 0 -11 5 -11 10 0 6 -36 10 -88 10 -85 0 -89 1 -100 25 -7 14 -12
35 -12 46 0 43 -54 109 -90 109 -11 0 -20 5 -20 10 0 6 -32 10 -75 10 -43 0
-75 4 -75 10 0 6 -7 10 -15 10 -8 0 -15 5 -15 10 0 6 -7 10 -15 10 -8 0 -15 5
-15 10 0 6 -7 10 -15 10 -8 0 -15 5 -15 10 0 6 -15 10 -32 10 -25 -1 -41 -10
-66 -38z"/>
<path fill="#ffffff" stroke="000000" stroke-width="0.01" d="M15930 15740 c0 -5 7 -10 15 -10 8 0
15 -4 15 -9 0 -5 7 -17 17 -26 23 -24 21 -87 -5 -170 -12 -39 -28 -105 -36
-147 -12 -72 -31 -108 -55 -108 -6 0 -11 -4 -11 -10 0 -5 -7 -10 -15 -10 -8 0
-15 -4 -15 -10 0 -5 -16 -10 -35 -10 -28 0 -44 8 -72 37 l-37 36 -9 141 c-12
200 -12 200 2 235 10 22 20 31 37 31 13 0 24 5 24 10 0 6 11 10 25 10 14 0 25
5 25 10 0 6 28 10 65 10 37 0 65 -4 65 -10z"/>
<path fill="#ffffff" stroke="000000" stroke-width="0.01" d="M7537 14807 c-12 -14 -16 -31 -13 -49
5 -23 2 -28 -14 -28 -11 0 -20 -4 -20 -10 0 -5 9 -10 20 -10 11 0 20 -4 20
-10 0 -5 15 -10 34 -10 39 0 46 11 46 76 0 37 -3 44 -20 44 -11 0 -20 5 -20
10 0 16 -14 11 -33 -13z"/>
<path fill="#ffffff" stroke="000000" stroke-width="0.01" d="M8560 12680 c0 -16 5 -30 10 -30 6 0
10 -9 10 -20 0 -11 5 -20 10 -20 6 0 10 -18 10 -40 0 -22 5 -40 10 -40 6 0 10
-13 10 -28 0 -16 8 -34 20 -42 16 -12 20 -26 20 -72 0 -32 4 -58 10 -58 6 0
10 -18 10 -40 0 -22 5 -40 10 -40 6 0 10 -9 10 -20 0 -11 5 -20 10 -20 6 0 10
-4 10 -10 0 -5 -9 -10 -20 -10 -16 0 -20 7 -20 30 0 17 -4 30 -10 30 -5 0 -10
9 -10 20 0 13 -7 20 -20 20 -19 0 -28 -15 -12 -22 10 -4 52 -131 52 -157 0
-25 25 -28 48 -4 12 12 13 18 4 21 -23 7 -13 53 18 82 17 15 30 35 30 44 0 9
5 16 10 16 6 0 10 47 10 120 0 73 4 120 10 120 20 0 9 33 -20 60 -16 15 -30
33 -30 39 0 17 -47 61 -65 61 -18 0 -20 16 -2 23 7 2 8 8 3 13 -5 5 -11 4 -13
-3 -5 -15 -43 -17 -43 -3 0 6 -18 10 -40 10 -38 0 -40 -2 -40 -30z"/>
<path fill="#ffffff" stroke="000000" stroke-width="0.01" d="M20950 11742 c0 -5 -8 -18 -17 -30 -10
-11 -25 -30 -33 -42 -8 -12 -23 -31 -32 -42 -10 -11 -20 -29 -23 -39 -4 -11
-11 -19 -16 -19 -5 0 -9 -7 -9 -15 0 -30 -47 -105 -65 -105 -4 0 -24 -18 -45
-40 -21 -22 -41 -40 -44 -40 -11 0 -93 -86 -107 -111 -9 -16 -14 -73 -15 -179
-2 -197 -27 -346 -82 -474 -15 -37 -63 -96 -77 -96 -11 0 -32 -24 -50 -59 -9
-18 -32 -49 -51 -68 -21 -20 -34 -44 -34 -59 0 -14 -10 -43 -21 -66 -33 -65
-39 -156 -24 -391 l8 -139 37 -38 c20 -21 42 -52 48 -69 7 -17 17 -44 23 -61
6 -16 15 -30 19 -30 16 0 32 -61 25 -97 -13 -72 -112 -243 -140 -243 -36 0
-96 -151 -114 -290 -7 -53 -22 -92 -45 -116 -6 -6 -18 -22 -26 -34 -8 -12 -22
-30 -30 -40 -8 -10 -37 -64 -64 -121 -26 -57 -70 -150 -97 -207 -27 -56 -49
-107 -49 -113 0 -7 -9 -20 -21 -30 -16 -14 -19 -25 -14 -47 4 -19 0 -42 -11
-66 -17 -34 -21 -36 -65 -36 -42 0 -48 -3 -59 -30 -7 -16 -16 -30 -20 -30 -4
0 -15 -19 -26 -42 -10 -23 -29 -52 -40 -63 -61 -61 -68 -135 -14 -135 19 0 31
6 35 19 9 28 40 61 59 61 9 0 16 5 16 10 0 6 7 10 15 10 8 0 15 5 15 10 0 6 6
10 14 10 7 0 19 14 26 30 10 25 18 30 46 30 19 0 34 5 34 10 0 6 5 10 11 10
17 0 49 40 56 69 12 52 66 131 88 131 30 0 75 98 75 163 0 57 22 97 54 97 9 0
16 5 16 10 0 6 6 10 13 10 7 0 19 9 27 20 8 11 19 20 25 20 6 0 17 9 25 21 33
47 69 79 89 79 12 0 21 5 21 10 0 6 14 10 30 10 17 0 30 5 30 10 0 6 7 10 15
10 8 0 15 5 15 10 0 6 9 10 20 10 11 0 20 5 20 10 0 6 7 10 15 10 8 0 15 5 15
10 0 6 5 10 11 10 6 0 28 18 49 40 29 30 46 40 69 40 17 0 31 5 31 10 0 6 9
10 20 10 11 0 20 5 20 10 0 6 9 10 20 10 11 0 20 5 20 10 0 6 20 10 45 10 25
0 45 5 45 10 0 6 6 10 13 10 7 0 19 9 27 20 8 11 20 20 28 20 21 0 58 43 88
101 14 30 30 56 34 59 28 20 32 63 36 396 l4 343 -24 24 c-49 49 -59 102 -30
160 29 54 46 156 32 193 -9 25 -8 62 2 161 10 101 10 147 1 216 -13 98 -9 127
20 127 10 0 19 5 19 10 0 6 16 10 35 10 19 0 35 5 35 10 0 6 5 10 11 10 11 0
53 41 79 79 8 12 19 21 25 21 15 0 55 84 55 115 0 15 6 25 14 25 21 0 26 23
26 116 0 56 -4 84 -11 84 -19 0 -49 41 -49 67 0 26 24 79 46 101 23 22 28 60
11 77 -9 8 -18 15 -22 15 -11 0 -32 25 -50 60 -21 40 -39 60 -55 60 -23 0 -60
56 -73 111 -8 33 -40 69 -61 69 -9 0 -16 5 -16 10 0 6 -18 10 -40 10 -22 0
-40 -4 -40 -8z"/>
</g>
</svg>
