<?xml version="1.0" standalone="no"?>
<!DOCTYPE svg PUBLIC "-//W3C//DTD SVG 20010904//EN"
 "http://www.w3.org/TR/2001/REC-SVG-20010904/DTD/svg10.dtd">
<svg version="1.0" xmlns="http://www.w3.org/2000/svg"
 width="3506.000000pt" height="3950.000000pt" viewBox="0 0 3506.000000 3950.000000"
 preserveAspectRatio="xMidYMid meet">
<metadata>
Created by potrace 1.15, written by Peter Selinger 2001-2017
</metadata>
<g transform="translate(0.000000,3950.000000) scale(0.100000,-0.100000)"
fill="#ffffff" stroke="000000" stroke-width="0.01">
<path fill="#ffffff" stroke="000000" stroke-width="0.01" d="M0 38705 c0 -437 4 -795 8 -795 5 0 17
-18 27 -40 10 -22 22 -40 26 -40 5 0 12 -12 15 -27 4 -16 17 -49 30 -74 15
-31 23 -62 22 -95 -1 -28 6 -63 15 -81 10 -18 17 -37 17 -43 0 -6 9 -21 20
-33 81 -89 76 -75 74 -188 -1 -103 -19 -199 -36 -199 -5 0 -16 -6 -24 -14 -16
-17 -19 -86 -4 -86 26 0 110 -123 110 -160 0 -6 10 -22 23 -35 46 -50 67 -97
67 -152 0 -31 46 -93 69 -93 6 0 11 -4 11 -10 0 -5 6 -10 13 -10 7 0 19 -9 27
-20 8 -11 22 -20 32 -20 10 0 18 -4 18 -10 0 -5 14 -10 30 -10 17 0 30 -4 30
-10 0 -5 6 -10 13 -10 21 0 37 -45 37 -100 0 -54 29 -128 41 -108 6 9 14 6 28
-11 12 -13 21 -28 21 -33 0 -4 7 -8 15 -8 8 0 15 -4 15 -10 0 -5 7 -10 15 -10
8 0 15 -4 15 -10 0 -5 7 -10 16 -10 8 0 33 -18 54 -40 21 -22 48 -40 59 -40
12 0 21 -4 21 -10 0 -5 11 -10 23 -10 18 0 28 -10 42 -40 10 -22 22 -40 28
-40 5 0 22 -15 38 -32 43 -48 45 -52 64 -88 10 -19 23 -40 29 -47 6 -6 22 -26
36 -43 14 -17 35 -42 47 -54 12 -13 33 -46 47 -74 22 -44 26 -64 26 -142 0
-50 5 -101 12 -113 15 -28 34 -47 47 -47 6 0 11 -4 11 -10 0 -5 9 -10 20 -10
11 0 20 -4 20 -10 0 -5 8 -10 18 -10 21 0 44 -42 36 -64 -3 -7 1 -20 9 -28 8
-8 22 -29 32 -47 22 -43 59 -81 80 -81 8 0 15 -9 15 -20 0 -11 5 -20 10 -20 6
0 10 -7 10 -16 0 -8 6 -21 13 -28 6 -8 19 -23 27 -35 8 -11 20 -21 27 -21 7 0
13 -4 13 -9 0 -11 55 -71 65 -71 3 0 12 -6 19 -13 29 -29 37 -60 35 -136 -2
-63 0 -82 14 -95 13 -13 17 -35 17 -85 0 -50 5 -74 18 -89 43 -53 53 -69 63
-107 16 -65 31 -95 45 -95 8 0 14 -4 14 -10 0 -5 6 -10 14 -10 18 0 56 -118
49 -153 -3 -15 -1 -27 4 -27 16 0 33 -48 33 -91 0 -38 13 -77 30 -89 4 -3 15
-20 24 -38 12 -23 14 -37 7 -51 -17 -31 -41 -105 -41 -127 0 -12 -9 -32 -20
-45 -11 -13 -24 -29 -28 -35 -5 -5 -15 -21 -22 -34 -17 -31 -35 -50 -49 -50
-6 0 -11 -4 -11 -10 0 -5 -7 -10 -15 -10 -8 0 -15 -4 -15 -10 0 -5 -7 -10 -15
-10 -8 0 -15 -4 -15 -10 0 -5 -11 -10 -25 -10 -14 0 -25 -4 -25 -10 0 -5 -9
-10 -20 -10 -11 0 -20 -4 -20 -10 0 -5 -9 -10 -20 -10 -11 0 -20 -4 -20 -10 0
-5 -7 -10 -15 -10 -8 0 -15 -4 -15 -10 0 -5 -9 -10 -20 -10 -11 0 -20 -4 -20
-10 0 -5 -9 -10 -20 -10 -11 0 -20 -4 -20 -10 0 -5 -9 -10 -20 -10 -11 0 -20
-4 -20 -10 0 -5 -5 -10 -11 -10 -7 0 -21 -10 -32 -22 -13 -16 -21 -19 -24 -10
-5 14 -63 17 -63 2 0 -5 5 -10 10 -10 6 0 10 -4 10 -10 0 -6 -32 -10 -75 -10
-43 0 -75 4 -75 10 0 6 -23 10 -51 10 -44 0 -55 4 -79 30 -19 21 -37 30 -59
30 -17 0 -31 -4 -31 -10 0 -5 -9 -10 -20 -10 -11 0 -20 -4 -20 -10 0 -5 -7
-10 -15 -10 -8 0 -15 -4 -15 -10 0 -5 -7 -10 -15 -10 -8 0 -15 -4 -15 -10 0
-5 -9 -10 -20 -10 -11 0 -20 -4 -20 -10 0 -5 -7 -10 -15 -10 -9 0 -18 -12 -21
-30 -6 -28 -24 -43 -24 -20 0 19 -65 11 -80 -10 -8 -11 -19 -20 -25 -20 -6 0
-17 -9 -25 -20 -11 -15 -16 -16 -23 -7 -7 9 -10 9 -14 0 -2 -8 -22 -13 -44
-13 -21 0 -39 -4 -39 -10 0 -5 -7 -10 -15 -10 -8 0 -15 -4 -15 -10 0 -5 -7
-10 -15 -10 -8 0 -15 -4 -15 -10 0 -5 -7 -10 -15 -10 -8 0 -15 -4 -15 -10 0
-5 -7 -10 -15 -10 -8 0 -15 -4 -15 -10 0 -5 -11 -10 -25 -10 -14 0 -25 -4 -25
-10 0 -5 -9 -10 -20 -10 -11 0 -20 -4 -20 -10 0 -5 -11 -10 -25 -10 -14 0 -25
-4 -25 -10 0 -5 -9 -10 -21 -10 -11 0 -38 -18 -59 -40 -21 -22 -43 -40 -49
-40 -6 0 -11 -4 -11 -10 0 -5 -7 -10 -15 -10 -8 0 -15 -4 -15 -10 0 -5 -6 -10
-13 -10 -7 0 -19 -10 -27 -21 -8 -12 -31 -39 -51 -59 -20 -21 -42 -52 -49 -69
-7 -17 -19 -31 -26 -31 -8 0 -14 -4 -14 -10 0 -5 -9 -10 -19 -10 -11 0 -21 -6
-24 -12 -3 -9 -11 -6 -24 10 -13 14 -32 22 -52 22 l-31 0 0 -11546 c0 -9993 2
-11547 14 -11560 8 -8 19 -14 25 -14 6 0 11 -4 11 -10 0 -5 6 -10 13 -10 7 0
19 -9 27 -20 8 -11 19 -20 25 -20 6 0 17 -9 25 -20 8 -11 19 -20 25 -20 7 0
21 -21 32 -47 71 -164 101 -293 101 -434 0 -88 4 -113 21 -147 16 -31 21 -60
21 -117 0 -41 -4 -75 -8 -75 -5 0 -17 -18 -27 -40 -10 -22 -21 -40 -25 -40 -4
0 -13 -13 -20 -30 -7 -16 -16 -30 -19 -30 -7 0 -54 -97 -89 -185 -18 -46 -83
-309 -98 -397 -4 -22 -12 -38 -20 -38 -24 0 -34 -72 -34 -247 0 -147 2 -173
15 -173 8 0 15 -4 15 -10 0 -5 9 -10 20 -10 11 0 20 -4 20 -10 0 -5 11 -10 25
-10 14 0 25 -4 25 -10 0 -5 9 -10 20 -10 11 0 20 -4 20 -10 0 -5 16 -10 35
-10 19 0 35 5 35 10 0 6 17 10 39 10 33 0 40 4 51 30 7 16 16 30 20 30 4 0 13
14 20 30 7 17 16 30 20 30 4 0 13 14 20 30 7 17 16 30 21 30 4 0 11 9 14 20 3
11 13 20 21 20 8 0 14 5 14 10 0 6 7 10 15 10 8 0 15 5 15 10 0 6 7 10 15 10
8 0 15 5 15 10 0 6 7 10 15 10 8 0 15 5 15 10 0 6 7 10 15 10 8 0 15 5 15 10
0 6 7 10 15 10 8 0 15 5 15 10 0 6 7 10 15 10 8 0 15 5 15 10 0 6 7 10 15 10
8 0 15 5 15 10 0 6 7 10 15 10 8 0 15 5 15 10 0 6 7 10 15 10 8 0 15 5 15 10
0 6 7 10 15 10 8 0 15 5 15 10 0 6 5 10 11 10 6 0 24 14 39 30 43 47 56 40 69
-36 7 -37 17 -72 24 -79 7 -7 19 -23 27 -35 8 -12 21 -29 28 -36 14 -15 14
-18 -9 -223 l-12 -103 -64 -64 c-58 -59 -65 -69 -70 -117 -3 -29 -9 -54 -13
-57 -8 -5 -50 -86 -50 -95 0 -3 9 -5 21 -5 45 0 49 -21 22 -103 -14 -42 -30
-77 -34 -77 -5 0 -9 5 -9 10 0 6 -4 10 -10 10 -5 0 -10 -12 -10 -27 0 -92 -36
-193 -69 -193 -6 0 -11 -4 -11 -10 0 -5 7 -10 15 -10 12 0 15 -13 15 -57 1
-54 6 -74 41 -161 10 -23 11 -35 3 -40 -6 -4 -19 -23 -29 -42 -18 -35 -39 -60
-50 -60 -3 0 -37 -32 -75 -70 -38 -39 -73 -70 -78 -70 -6 0 -13 -17 -17 -37
-7 -41 -30 -89 -51 -111 -22 -22 -16 -41 25 -81 39 -37 39 -38 55 -164 19
-148 29 -197 51 -256 40 -110 50 -318 17 -379 -9 -15 -10 -28 -3 -40 23 -42
15 -277 -14 -408 -7 -33 -40 -64 -69 -64 -14 0 -26 -4 -26 -10 0 -5 -13 -10
-28 -10 -25 0 -32 -7 -46 -42 -10 -24 -24 -58 -32 -76 -8 -18 -12 -37 -9 -42
3 -5 -1 -24 -9 -42 -8 -18 -24 -65 -36 -103 -12 -41 -29 -77 -40 -85 -11 -8
-25 -32 -31 -52 -5 -21 -15 -38 -22 -38 -7 0 -19 -10 -27 -21 -8 -12 -32 -39
-53 -61 -20 -22 -40 -51 -43 -64 -4 -14 -1 -74 5 -135 11 -105 25 -159 42
-159 4 0 11 -9 14 -20 7 -24 99 -120 114 -120 5 0 14 -15 20 -32 5 -18 19 -58
31 -88 12 -30 26 -69 31 -87 5 -18 16 -38 23 -46 8 -7 24 -33 36 -58 13 -24
26 -46 30 -49 4 -3 15 -21 25 -40 10 -19 21 -37 25 -40 14 -10 48 -86 55 -123
4 -20 11 -37 15 -37 10 0 26 -42 45 -120 28 -115 54 -180 71 -180 8 0 14 -4
14 -10 0 -5 9 -10 20 -10 11 0 20 -4 20 -10 0 -5 10 -10 23 -10 12 0 29 -9 37
-20 8 -11 18 -20 23 -20 5 0 26 -18 47 -40 21 -22 43 -40 48 -40 5 0 17 -18
27 -40 10 -22 22 -40 27 -40 4 0 8 -7 8 -16 0 -17 -23 -44 -38 -44 -12 0 -22
-49 -22 -104 0 -45 30 -137 52 -159 7 -8 38 -64 68 -126 39 -79 59 -111 72
-111 10 0 18 5 18 10 0 18 42 10 61 -12 11 -11 19 -25 19 -30 0 -4 29 -8 65
-8 37 0 65 -4 65 -10 0 -6 28 -10 64 -10 56 0 66 -3 71 -20 3 -11 10 -20 14
-20 4 0 16 -18 26 -40 10 -22 21 -40 25 -40 4 0 17 -22 30 -50 13 -27 29 -50
37 -50 7 0 13 -4 13 -10 0 -5 7 -10 15 -10 8 0 15 -4 15 -10 0 -5 7 -10 15
-10 8 0 15 -4 15 -10 0 -5 6 -10 14 -10 24 0 25 -25 4 -110 -15 -58 -18 -84
-10 -89 6 -4 25 -47 41 -96 47 -139 59 -173 87 -226 14 -28 26 -64 27 -82 1
-18 9 -39 17 -47 10 -9 21 -51 29 -106 10 -78 10 -96 -3 -125 -8 -19 -20 -49
-26 -66 -8 -21 -19 -33 -31 -33 -11 0 -19 -4 -19 -10 0 -5 9 -10 20 -10 19 0
20 -4 13 -147 -4 -101 -12 -162 -24 -195 l-17 -48 1772 0 1773 0 5 108 c4 69
12 121 23 147 56 129 73 161 97 187 14 15 29 28 32 28 13 0 75 68 92 101 9 19
20 36 24 39 13 9 30 49 30 70 0 11 5 27 11 34 42 51 69 77 69 67 0 -6 11 -11
23 -11 18 0 28 10 42 40 10 22 21 40 25 40 4 0 12 11 18 25 13 28 22 38 111
132 33 35 65 63 70 63 6 0 11 5 11 10 0 6 9 10 20 10 11 0 20 5 20 10 0 6 7
10 15 10 8 0 15 5 15 10 0 6 5 10 10 10 6 0 42 31 80 70 38 38 72 70 75 70 9
0 51 44 62 66 6 10 23 73 38 139 15 66 38 144 51 173 13 29 24 61 24 72 0 29
42 110 57 110 7 0 13 5 13 10 0 6 11 10 25 10 14 0 25 3 25 6 0 3 -22 27 -49
53 -56 55 -64 68 -80 137 -12 48 -11 55 13 103 14 27 26 55 26 61 0 6 6 18 13
25 6 8 22 27 35 42 12 15 31 38 41 50 11 14 21 48 25 88 7 71 -4 106 -50 152
-13 13 -28 42 -34 66 -6 23 -16 59 -21 80 -6 21 -16 37 -24 37 -8 0 -15 5 -15
10 0 6 -6 10 -13 10 -7 0 -19 9 -27 20 -8 11 -20 20 -27 20 -7 0 -13 5 -13 10
0 6 -7 10 -15 10 -8 0 -15 5 -15 10 0 6 -6 10 -13 10 -7 0 -19 9 -27 20 -8 11
-20 20 -27 20 -7 0 -13 5 -13 10 0 6 -6 10 -13 10 -7 0 -19 9 -27 20 -8 11
-20 20 -27 20 -7 0 -13 5 -13 10 0 6 -7 10 -15 10 -8 0 -15 5 -15 10 0 6 -6
10 -13 10 -7 0 -19 9 -27 20 -8 11 -18 20 -23 20 -11 0 -67 59 -67 70 0 10
-76 90 -85 90 -9 0 -145 140 -145 150 0 5 -6 15 -14 22 -7 8 -21 29 -31 48
-10 19 -31 46 -46 60 -15 14 -42 37 -59 53 -17 15 -33 27 -36 27 -3 0 -19 14
-34 30 -15 17 -31 30 -35 30 -3 0 -28 23 -55 50 -27 28 -52 50 -55 50 -14 0
-35 30 -70 100 -20 40 -43 80 -51 87 -8 8 -14 21 -14 29 0 16 -29 76 -40 84
-4 3 -22 34 -40 69 -17 36 -37 70 -44 76 -6 6 -24 39 -40 73 -20 42 -35 62
-48 62 -10 0 -18 5 -18 10 0 6 -7 10 -15 10 -8 0 -15 5 -15 10 0 6 -5 10 -11
10 -20 0 -119 114 -119 137 0 18 -48 113 -66 131 -8 7 -14 18 -14 23 0 5 -6 9
-13 9 -7 0 -19 9 -27 21 -8 11 -22 29 -30 39 -8 10 -22 28 -30 40 -8 12 -23
31 -32 42 -10 12 -18 25 -18 29 0 4 -7 15 -16 24 -9 9 -18 41 -22 78 -5 59
-18 87 -41 87 -6 0 -11 5 -11 10 0 6 -5 10 -11 10 -17 0 -35 22 -64 80 -15 29
-48 74 -75 100 -26 25 -56 62 -65 81 -10 19 -21 36 -25 39 -4 3 -22 34 -40 69
-31 62 -52 91 -65 91 -3 0 -20 15 -38 33 -21 21 -40 57 -56 107 -14 41 -33 92
-43 112 -16 33 -18 65 -18 265 0 170 -4 246 -16 298 -10 43 -15 106 -13 165 5
195 4 231 -10 239 -21 14 -50 166 -50 269 -1 71 -9 125 -35 230 -35 142 -52
231 -86 467 -11 77 -25 158 -31 180 -7 22 -12 85 -13 140 -1 87 2 106 22 144
13 24 32 69 42 100 22 70 41 111 50 111 4 0 13 14 20 30 7 17 16 30 19 30 4 0
22 32 41 70 19 39 39 70 46 70 6 0 17 14 24 30 7 17 19 30 26 30 8 0 14 5 14
10 0 6 7 10 15 10 20 0 29 41 21 95 -4 27 -3 45 2 45 14 0 25 32 14 39 -5 3
-17 40 -27 81 -10 41 -23 86 -30 100 -6 14 -17 57 -24 95 -14 77 -29 125 -41
125 -4 0 -13 14 -20 30 -7 17 -16 30 -20 30 -4 0 -13 14 -20 30 -7 17 -16 30
-20 30 -18 0 -30 59 -30 148 0 101 -10 144 -55 232 -14 27 -25 63 -25 80 0 17
-15 61 -34 98 -18 37 -37 83 -41 102 -8 36 -52 131 -65 140 -4 3 -23 37 -42
75 -31 61 -36 82 -40 160 -4 79 -9 99 -42 164 -21 40 -43 80 -49 87 -7 8 -23
27 -37 43 -14 16 -32 39 -40 51 -8 12 -23 31 -32 42 -10 12 -18 24 -18 28 0 4
-9 18 -20 31 -11 13 -29 35 -40 49 -11 14 -29 36 -40 49 -13 16 -18 32 -14 45
3 12 13 42 21 67 13 42 13 52 -1 93 -14 42 -14 50 -1 75 15 30 12 53 -18 121
-8 19 -23 55 -32 80 -36 94 -59 140 -70 140 -7 0 -17 12 -23 28 -26 65 -42
125 -42 152 0 38 -9 60 -26 60 -8 0 -14 5 -14 10 0 6 -11 10 -25 10 -14 0 -25
5 -25 10 0 6 -5 10 -10 10 -31 0 -94 104 -72 119 7 6 18 32 49 116 8 22 18 42
22 45 4 3 12 30 18 60 10 52 9 58 -20 117 -17 35 -37 63 -44 63 -7 0 -13 5
-13 10 0 6 -7 10 -15 10 -8 0 -15 -4 -15 -10 0 -5 -17 -10 -38 -10 -27 0 -42
6 -52 21 -32 45 -48 59 -69 59 -11 0 -21 5 -21 10 0 6 -10 10 -21 10 -27 0
-59 -35 -66 -72 -5 -26 -9 -28 -53 -28 -29 0 -50 5 -53 13 -4 10 -6 10 -6 0
-1 -9 -19 -13 -55 -13 -50 0 -54 2 -66 30 -14 34 -16 68 -6 93 7 14 3 17 -18
17 -14 0 -26 5 -26 10 0 6 -16 10 -35 10 -19 0 -35 5 -35 10 0 6 -13 10 -30
10 -16 0 -30 5 -30 10 0 6 -9 10 -20 10 -11 0 -20 7 -20 15 0 25 -33 85 -47
85 -7 0 -13 5 -13 10 0 6 -6 10 -13 10 -7 0 -19 10 -27 21 -8 12 -45 53 -82
90 -53 55 -73 69 -97 69 -36 0 -38 6 -50 131 -5 52 -12 102 -16 112 -8 20 -31
23 -39 5 -5 -10 -7 -10 -12 0 -3 6 -10 12 -16 12 -16 0 -42 34 -63 80 -17 39
-20 40 -67 40 -26 0 -48 5 -48 10 0 6 -13 10 -29 10 -27 0 -30 4 -39 53 -6 28
-19 79 -30 112 -11 33 -29 87 -40 120 -11 33 -26 74 -33 91 -9 24 -10 34 0 45
38 45 51 63 51 71 0 4 43 8 95 8 57 0 95 4 95 10 0 6 12 10 26 10 15 0 35 10
45 22 11 11 19 16 19 10 0 -7 15 -12 35 -12 19 0 35 5 35 10 0 6 6 10 14 10 8
0 17 15 21 36 6 35 82 124 105 124 13 0 13 26 0 50 -11 20 -4 50 12 50 6 0 23
14 38 30 23 25 36 30 73 30 40 0 46 3 57 30 7 17 16 30 20 30 10 0 30 47 30
72 0 11 -10 29 -22 39 -18 16 -22 33 -26 99 -5 85 6 110 47 110 12 0 21 4 21
9 0 8 19 32 79 97 11 12 29 41 41 64 12 24 26 48 31 54 40 49 69 76 83 76 9 0
16 5 16 10 0 6 9 10 20 10 11 0 20 5 20 10 0 6 7 10 15 10 8 0 15 8 15 18 0
11 9 30 20 43 11 13 30 36 42 51 13 15 28 28 34 28 6 0 19 18 29 40 10 22 22
40 26 40 4 0 11 9 14 20 3 11 13 20 22 20 15 0 54 38 83 80 27 39 47 60 59 60
6 0 11 5 11 10 0 6 16 10 35 10 19 0 35 5 35 10 0 6 11 10 25 10 14 0 25 5 25
10 0 6 10 10 23 10 12 0 29 9 37 20 8 11 20 20 27 20 7 0 13 5 13 10 0 6 7 10
15 10 8 0 15 5 15 10 0 6 18 10 40 10 22 0 40 5 40 10 0 6 11 10 24 10 13 0
27 6 30 13 5 9 7 9 12 0 3 -7 17 -13 30 -13 13 0 24 -4 24 -10 0 -5 6 -10 14
-10 8 0 16 -6 19 -12 3 -9 11 -6 24 10 11 12 24 22 28 22 4 0 20 14 35 30 19
21 37 30 59 30 17 0 31 -4 31 -10 0 -5 13 -10 29 -10 21 0 32 6 36 20 3 11 10
20 14 20 5 0 14 14 21 30 7 17 16 30 21 30 4 0 11 9 14 20 6 17 15 20 76 20
39 0 69 4 69 10 0 6 18 10 40 10 22 0 40 5 40 10 0 6 23 10 50 10 28 0 50 5
50 10 0 6 14 10 30 10 17 0 30 5 30 10 0 6 7 10 15 10 8 0 15 5 15 10 0 6 8
10 19 10 11 0 23 12 31 31 7 17 30 49 52 71 21 22 38 44 38 49 0 5 6 9 14 9
13 0 36 93 36 143 0 11 8 17 21 17 37 0 51 25 47 83 -3 47 0 55 28 83 16 17
36 45 43 62 8 18 18 32 24 32 6 0 7 29 3 84 -4 50 -3 93 3 107 6 13 15 43 21
67 10 39 13 42 44 42 44 0 66 45 66 140 0 38 7 91 16 117 13 38 15 68 10 149
l-7 102 41 82 c23 45 46 87 51 94 39 47 49 60 49 68 0 4 7 8 15 8 8 0 15 5 15
10 0 6 6 10 13 10 17 0 34 35 42 87 7 43 35 113 45 113 3 0 21 32 40 70 19 39
39 70 45 70 6 0 17 9 25 20 8 11 20 20 27 20 7 0 13 5 13 10 0 6 5 10 11 10 6
0 24 14 39 30 24 26 35 30 79 30 28 0 51 -4 51 -10 0 -5 9 -10 20 -10 11 0 20
-4 20 -10 0 -5 7 -10 15 -10 8 0 15 -4 15 -10 0 -5 8 -10 19 -10 11 0 23 -12
31 -30 8 -18 20 -30 31 -30 12 0 19 -7 19 -20 0 -16 7 -20 30 -20 21 0 30 -5
30 -16 0 -17 23 -44 39 -44 5 0 13 -9 16 -20 3 -11 15 -20 26 -20 10 0 19 -4
19 -10 0 -5 14 -10 30 -10 17 0 30 -4 30 -10 0 -5 9 -10 20 -10 11 0 20 -4 20
-10 0 -5 7 -10 15 -10 8 0 15 -4 15 -10 0 -5 6 -10 13 -10 7 0 19 -9 27 -20 8
-11 18 -20 23 -20 13 0 65 -58 72 -81 4 -10 10 -19 14 -19 5 0 14 -13 21 -30
7 -16 19 -30 26 -30 8 0 14 -7 14 -15 0 -9 10 -37 23 -63 13 -26 36 -87 51
-137 37 -120 77 -209 88 -193 6 10 10 10 18 -2 8 -13 10 -12 10 3 0 10 11 29
25 42 25 26 45 32 45 15 0 -5 9 -10 20 -10 11 0 20 -4 20 -10 0 -5 14 -10 30
-10 17 0 30 -4 30 -10 0 -15 59 -12 75 4 7 7 17 31 20 52 4 21 13 59 21 83 9
25 12 57 8 78 -6 34 19 113 37 113 4 0 11 9 14 20 3 11 12 20 20 20 8 0 17 9
20 20 3 11 13 20 22 20 8 0 28 14 43 30 15 17 35 30 43 30 9 0 19 9 22 20 3
11 13 20 21 20 8 0 14 5 14 10 0 6 7 10 15 10 8 0 15 4 15 8 0 8 8 19 48 68 5
5 15 21 22 34 20 37 58 71 63 57 4 -9 6 -9 6 1 1 6 12 12 26 12 14 0 25 5 25
10 0 6 6 10 13 10 7 0 19 9 27 20 8 11 26 20 41 20 15 0 30 6 33 13 5 10 7 10
12 0 7 -16 114 -18 114 -3 0 6 9 10 19 10 11 0 22 6 24 13 4 10 6 10 6 0 1 -8
14 -13 31 -13 17 0 30 -4 30 -10 0 -5 7 -10 15 -10 8 0 15 -4 15 -10 0 -5 6
-10 13 -10 7 0 19 -9 27 -20 8 -11 20 -20 27 -20 7 0 13 -4 13 -10 0 -5 9 -10
20 -10 11 0 20 -4 20 -10 0 -5 16 -10 35 -10 19 0 35 -4 35 -10 0 -17 20 -11
45 15 30 29 29 27 8 53 -10 11 -25 30 -33 41 -8 12 -18 21 -23 21 -10 0 -54
46 -77 80 -8 12 -27 35 -42 52 -15 16 -30 38 -33 49 -4 10 -13 19 -21 19 -8 0
-14 5 -14 10 0 6 -9 10 -20 10 -11 0 -20 5 -20 10 0 6 -11 10 -25 10 -14 0
-25 5 -25 10 0 6 -20 10 -45 10 -25 0 -45 5 -45 10 0 6 -5 10 -11 10 -15 0
-49 39 -49 57 0 16 -44 63 -60 63 -5 0 -10 5 -10 10 0 18 -55 11 -70 -10 -8
-11 -20 -20 -26 -20 -7 0 -15 -6 -18 -12 -5 -10 -7 -10 -12 0 -7 14 -104 17
-104 2 0 -5 -22 -10 -50 -10 -27 0 -50 5 -50 10 0 6 -7 10 -15 10 -8 0 -15 5
-15 10 0 6 -7 10 -15 10 -8 0 -15 5 -15 10 0 6 -8 10 -18 10 -23 0 -62 78 -62
124 0 75 -13 156 -25 156 -16 0 -25 -23 -25 -61 0 -39 -40 -119 -60 -119 -16
0 -50 58 -50 85 0 8 -4 15 -9 15 -5 0 -13 9 -16 20 -4 14 -15 20 -33 20 -16 0
-34 8 -42 20 -8 11 -20 20 -27 20 -6 0 -15 9 -18 20 -3 11 -13 20 -21 20 -8 0
-14 5 -14 10 0 6 -9 10 -20 10 -11 0 -20 5 -20 10 0 6 -11 10 -25 10 -14 0
-25 5 -25 10 0 6 -7 10 -15 10 -8 0 -15 5 -15 10 0 6 -6 10 -13 10 -7 0 -19 9
-27 20 -8 11 -21 20 -29 20 -14 0 -51 37 -51 52 0 4 -6 8 -13 8 -7 0 -19 9
-27 20 -8 12 -26 20 -42 20 -18 0 -29 6 -33 21 -6 17 -9 19 -16 8 -6 -10 -9
-11 -9 -1 0 6 -11 12 -25 12 -14 0 -25 -4 -25 -10 0 -5 -18 -10 -40 -10 -22 0
-40 5 -40 10 0 6 -37 10 -90 10 -53 0 -90 4 -90 10 0 6 -13 10 -30 10 -16 0
-30 5 -30 10 0 15 -177 13 -183 -2 -4 -10 -6 -10 -6 0 -1 14 -51 17 -51 2 0
-5 -9 -10 -20 -10 -11 0 -20 -4 -20 -10 0 -6 -40 -10 -100 -10 -60 0 -100 4
-100 10 0 6 -20 10 -45 10 -25 0 -45 5 -45 10 0 6 -11 10 -25 10 -14 0 -25 5
-25 10 0 6 -7 10 -15 10 -8 0 -15 5 -15 10 0 6 -5 10 -11 10 -12 0 -49 38 -49
50 0 10 -36 50 -45 50 -4 0 -20 14 -35 30 -15 17 -31 30 -35 30 -4 0 -20 14
-35 30 -15 17 -31 30 -35 30 -7 0 -52 47 -113 117 -17 21 -44 52 -60 69 -15
18 -34 42 -42 54 -8 12 -26 35 -40 50 -14 15 -32 38 -40 50 -22 33 -87 100
-97 100 -5 0 -15 9 -23 20 -8 11 -20 20 -27 20 -7 0 -13 5 -13 10 0 6 -7 10
-15 10 -8 0 -15 5 -15 10 0 6 -7 10 -15 10 -8 0 -15 5 -15 10 0 6 -5 10 -10
10 -6 0 -60 50 -120 110 -68 68 -117 110 -130 110 -11 0 -20 5 -20 10 0 6 -5
10 -11 10 -17 0 -49 40 -49 62 0 10 -4 18 -9 18 -5 0 -14 14 -21 30 -7 17 -19
30 -26 30 -8 0 -14 5 -14 10 0 6 -11 10 -25 10 -14 0 -25 5 -25 10 0 6 -8 10
-18 10 -10 0 -24 9 -32 20 -8 11 -19 20 -25 20 -6 0 -17 9 -25 20 -8 11 -22
20 -32 20 -10 0 -18 5 -18 10 0 6 -9 10 -20 10 -11 0 -20 5 -20 10 0 6 -9 10
-20 10 -11 0 -20 5 -20 10 0 6 -7 10 -15 10 -8 0 -15 5 -15 10 0 6 -9 10 -20
10 -11 0 -20 5 -20 10 0 6 -9 10 -20 10 -11 0 -20 5 -20 10 0 6 -7 10 -15 10
-8 0 -15 5 -15 10 0 6 -9 10 -20 10 -11 0 -20 5 -20 10 0 6 -7 10 -15 10 -8 0
-15 5 -15 10 0 6 -13 10 -30 10 -16 0 -30 5 -30 10 0 6 -9 10 -20 10 -11 0
-20 5 -20 10 0 6 -9 10 -20 10 -11 0 -20 5 -20 10 0 6 -11 10 -25 10 -14 0
-25 5 -25 10 0 6 -9 10 -20 10 -11 0 -20 5 -20 10 0 6 -8 10 -18 10 -10 0 -24
9 -32 20 -8 11 -20 20 -27 20 -7 0 -13 5 -13 10 0 6 -7 10 -15 10 -8 0 -15 5
-15 10 0 6 -7 10 -15 10 -8 0 -15 4 -15 9 0 15 -143 171 -157 171 -5 0 -15 9
-23 21 -30 43 -48 59 -64 59 -9 0 -16 4 -16 8 0 5 -9 20 -20 33 -11 13 -30 36
-42 51 -13 15 -27 28 -31 28 -21 0 -58 60 -71 113 -4 18 -13 27 -26 27 -11 0
-20 5 -20 10 0 6 -7 10 -15 10 -8 0 -15 5 -15 10 0 6 -7 10 -15 10 -8 0 -15 5
-15 10 0 6 -10 10 -21 10 -21 0 -59 34 -59 52 0 4 -9 8 -20 8 -11 0 -20 5 -20
10 0 6 -16 10 -35 10 -19 0 -35 -4 -35 -10 0 -5 -7 -10 -15 -10 -8 0 -15 -4
-15 -10 0 -5 -7 -10 -15 -10 -8 0 -15 -4 -15 -10 0 -6 -42 -10 -106 -10 -97 0
-108 2 -125 22 -11 11 -19 25 -19 29 0 4 -6 14 -14 21 -7 8 -21 29 -31 48 -19
37 -39 60 -52 60 -5 0 -15 9 -23 20 -9 13 -26 20 -47 20 -18 0 -33 5 -33 10 0
6 -9 10 -20 10 -11 0 -20 5 -20 10 0 6 -9 10 -19 10 -24 0 -31 19 -31 85 0 44
-5 59 -24 78 -33 33 -39 47 -91 200 -32 96 -45 152 -45 191 0 33 -8 73 -19 98
-47 107 -48 112 -41 165 4 33 14 59 26 70 11 10 33 59 48 108 16 50 35 110 43
134 7 24 11 57 8 72 -4 16 0 39 8 56 24 48 29 83 12 83 -8 0 -15 5 -15 10 0 6
-7 10 -15 10 -8 0 -15 5 -15 10 0 6 -7 10 -15 10 -8 0 -15 5 -15 10 0 6 -7 10
-15 10 -8 0 -15 5 -15 10 0 6 -7 10 -15 10 -8 0 -15 5 -15 10 0 6 -16 10 -35
10 -19 0 -35 5 -35 10 0 6 -13 10 -28 10 -16 0 -34 8 -42 20 -8 11 -20 20 -27
20 -7 0 -13 5 -13 10 0 6 -5 10 -11 10 -17 0 -43 34 -63 82 -44 104 -60 138
-68 138 -4 0 -8 18 -8 39 0 22 -4 41 -9 43 -13 5 -81 144 -102 212 -11 34 -22
90 -24 125 -10 150 -18 174 -71 228 -19 18 -34 40 -34 49 0 8 -8 31 -19 52
-10 20 -24 73 -30 117 -7 44 -24 113 -37 153 -38 115 -49 214 -30 273 20 59
20 69 1 69 -8 0 -15 5 -15 10 0 6 -11 10 -25 10 -14 0 -25 5 -25 10 0 6 -8 10
-18 10 -21 0 -52 57 -52 95 0 18 5 25 20 25 11 0 20 5 20 10 0 6 7 10 15 10 8
0 15 5 15 10 0 6 7 10 16 10 32 0 43 24 33 75 -5 27 -6 71 -3 97 6 47 -9 108
-26 108 -5 0 -18 33 -30 73 -12 39 -25 82 -31 95 -23 58 -6 312 21 312 26 0
65 250 50 331 -20 114 -21 149 -5 149 8 0 15 5 15 10 0 6 6 10 13 10 14 0 37
40 37 65 0 23 156 175 180 175 11 0 20 5 20 10 0 6 9 10 20 10 11 0 20 5 20
10 0 6 9 10 20 10 11 0 20 5 20 10 0 6 33 10 80 10 47 0 80 -4 80 -10 0 -5 10
-10 23 -10 12 0 29 -10 37 -21 26 -37 88 -99 99 -99 6 0 11 -4 11 -10 0 -5 7
-10 15 -10 8 0 15 -4 15 -10 0 -5 9 -10 20 -10 11 0 20 -4 20 -10 0 -6 29 -10
68 -10 l69 0 18 40 c10 22 22 40 26 40 4 0 10 8 14 19 8 25 40 61 54 61 6 0
11 4 11 8 0 5 9 20 20 33 11 13 30 37 42 52 13 15 29 34 36 42 14 16 16 45 3
45 -5 0 -13 9 -16 20 -3 11 -13 20 -21 20 -8 0 -14 4 -14 10 0 5 -11 20 -25
34 -30 30 -31 46 -7 74 37 45 52 66 52 74 0 4 50 8 110 8 61 0 110 2 110 4 0
3 -5 39 -10 80 -12 81 -4 120 40 206 11 22 20 46 20 55 0 8 5 15 11 15 20 0
49 42 49 72 0 15 5 28 11 28 34 0 78 93 89 188 5 43 16 98 25 122 9 25 24 70
34 100 10 30 37 93 59 140 22 47 46 100 53 119 11 30 138 171 155 171 5 0 43
40 73 76 5 6 19 31 31 54 24 46 43 70 57 70 5 0 15 9 23 20 8 11 19 20 25 20
6 0 17 9 25 20 8 11 19 20 25 20 6 0 17 10 25 21 8 12 29 36 46 54 44 44 49
57 73 170 27 128 26 155 -5 216 -24 48 -25 55 -13 103 11 47 142 325 159 336
4 3 20 29 35 59 15 30 32 60 39 67 6 6 18 21 26 33 8 11 20 21 27 21 7 0 13 5
13 10 0 6 9 10 20 10 11 0 20 5 20 10 0 6 16 10 35 10 19 0 35 5 35 10 0 6 18
10 40 10 22 0 40 5 40 10 0 6 16 10 35 10 19 0 35 5 35 10 0 6 16 10 35 10 19
0 35 5 35 10 0 6 18 10 40 10 22 0 40 5 40 10 0 6 11 10 25 10 14 0 25 5 25
10 0 6 11 10 25 10 14 0 25 5 25 10 0 6 11 10 25 10 14 0 25 5 25 10 0 6 9 10
21 10 30 0 48 22 55 72 6 40 71 183 97 214 7 8 28 32 47 54 19 21 46 53 60 69
17 20 34 31 53 31 15 0 27 5 27 10 0 6 24 10 54 10 45 0 56 -3 61 -19 3 -10
14 -29 25 -41 10 -12 21 -27 24 -33 5 -9 8 -9 12 1 3 6 12 12 20 12 8 0 14 5
14 10 0 6 5 10 11 10 11 0 39 29 87 87 12 15 31 39 42 52 11 13 20 28 20 33 0
4 7 8 15 8 8 0 15 4 15 10 0 5 16 25 35 44 19 20 35 40 35 46 0 17 26 40 45
40 15 0 114 95 145 139 9 13 25 21 42 21 15 0 28 5 28 10 0 6 14 10 30 10 17
0 30 5 30 10 0 6 17 10 39 10 34 0 40 -4 51 -31 17 -41 84 -109 107 -109 10 0
25 -9 33 -20 8 -11 20 -20 27 -20 7 0 13 -4 13 -10 0 -5 9 -10 19 -10 11 0 22
-6 24 -12 4 -10 6 -10 6 0 1 6 8 12 16 12 8 0 15 5 15 10 0 6 7 10 15 10 8 0
15 5 15 10 0 6 27 10 60 10 33 0 60 4 60 10 0 6 23 10 50 10 28 0 50 5 50 10
0 6 10 10 23 10 18 0 30 16 65 85 23 47 42 90 42 96 0 14 26 39 39 39 6 0 11
5 11 10 0 6 6 10 14 10 7 0 19 14 27 31 7 18 48 67 91 111 43 43 78 86 78 94
0 18 47 113 65 131 8 7 20 13 28 13 20 0 41 54 33 90 -3 17 -2 30 3 30 4 0 18
23 31 50 13 28 28 50 33 50 16 0 41 35 66 92 13 29 32 72 42 96 23 51 23 52 6
52 -16 0 -47 62 -47 95 0 13 6 30 14 37 29 30 46 79 46 135 0 62 15 115 55
193 14 27 25 56 25 63 0 8 9 24 20 37 14 16 20 37 20 72 0 26 -4 48 -8 48 -13
0 -42 68 -36 85 4 8 13 15 21 15 36 0 43 24 36 134 l-6 106 41 0 c45 0 52 9
27 34 -21 20 -55 130 -55 175 0 45 -14 97 -32 115 -7 7 -20 23 -28 35 -8 11
-19 21 -24 21 -12 0 -44 38 -51 61 -4 13 -16 19 -34 19 -25 0 -29 5 -40 54 -7
30 -21 77 -31 106 -17 48 -18 56 -5 94 8 22 15 54 15 69 0 30 -23 81 -47 105
-8 8 -11 22 -8 31 4 9 9 37 12 62 5 45 -11 95 -41 125 -12 11 -32 90 -61 243
-9 47 -23 103 -32 125 -8 23 -15 50 -16 61 -1 11 -10 30 -22 42 -36 39 -45 52
-45 63 0 6 -9 29 -20 51 l-21 39 25 25 c14 14 30 25 35 25 14 0 26 50 15 59
-5 3 -14 22 -21 41 -22 67 -24 107 -8 152 8 23 15 74 15 111 0 48 6 79 20 107
11 22 20 41 20 43 0 10 -39 47 -49 47 -6 0 -11 5 -11 10 0 6 -6 10 -14 10 -13
0 -26 26 -41 77 -3 13 -24 41 -46 64 -21 22 -39 47 -39 54 0 25 -33 85 -47 85
-7 0 -13 5 -13 10 0 6 -7 10 -15 10 -8 0 -15 5 -15 10 0 6 -13 10 -30 10 -16
0 -30 5 -30 10 0 6 -7 10 -15 10 -8 0 -15 5 -15 10 0 6 -28 10 -64 10 l-64 0
-7 65 c-8 71 -3 106 20 129 19 18 9 46 -16 46 -10 0 -19 5 -19 10 0 6 -7 10
-15 10 -8 0 -15 5 -15 10 0 6 -9 10 -20 10 -11 0 -20 5 -20 10 0 6 -6 10 -14
10 -8 0 -17 8 -20 17 -13 33 -29 295 -19 302 18 11 22 227 6 284 -8 29 -17 67
-20 85 -5 29 -8 32 -42 32 -31 0 -40 5 -49 25 -7 14 -12 39 -12 56 0 16 -9 48
-20 70 -12 22 -18 44 -15 49 11 17 -60 140 -80 140 -18 0 -37 33 -31 54 4 15
-1 31 -14 46 -31 35 -33 62 -16 147 16 80 19 149 16 406 -1 95 -19 167 -43
167 -19 0 -34 28 -40 76 -3 28 -12 66 -21 85 -36 81 -59 184 -58 257 1 40 -2
82 -8 91 -6 12 -4 37 6 74 13 51 13 70 -1 170 -8 61 -22 141 -30 177 -8 36
-20 101 -26 145 -10 74 -35 176 -61 250 -6 17 -10 38 -9 48 4 60 -11 165 -28
196 -10 19 -11 25 0 31 9 6 11 40 9 132 -2 67 -3 139 -2 158 9 169 9 225 1
290 -5 41 -14 77 -19 78 -6 2 -10 28 -10 58 0 31 -5 64 -10 75 -11 19 -46 19
-2195 19 l-2185 0 0 -795z"/>
</g>
</svg>
