<?xml version="1.0" standalone="no"?>
<!DOCTYPE svg PUBLIC "-//W3C//DTD SVG 20010904//EN"
 "http://www.w3.org/TR/2001/REC-SVG-20010904/DTD/svg10.dtd">
<svg version="1.0" xmlns="http://www.w3.org/2000/svg"
 width="3506.000000pt" height="3950.000000pt" viewBox="0 0 3506.000000 3950.000000"
 preserveAspectRatio="xMidYMid meet">
<metadata>
Created by potrace 1.15, written by Peter Selinger 2001-2017
</metadata>
<g transform="translate(0.000000,3950.000000) scale(0.100000,-0.100000)"
fill="#ffffff" stroke="000000" stroke-width="0.01">
<path fill="#ffffff" stroke="000000" stroke-width="0.01" d="M254 39343 c11 -231 21 -354 34 -392 6
-19 9 -38 6 -42 -5 -8 -23 -403 -28 -599 -1 -48 -9 -104 -18 -129 -18 -48 -15
-71 11 -71 24 0 41 -41 41 -95 0 -49 -8 -56 -30 -25 -8 11 -20 20 -27 20 -7 0
-13 5 -13 10 0 6 -6 10 -14 10 -8 0 -16 6 -19 13 -9 26 -29 -81 -30 -163 0
-101 7 -130 34 -130 16 0 19 -7 19 -41 0 -51 20 -130 37 -147 7 -7 13 -20 13
-28 0 -8 9 -32 20 -54 11 -22 20 -49 20 -61 0 -12 9 -29 19 -38 27 -23 52 -95
55 -156 4 -74 23 -129 56 -165 17 -18 30 -36 30 -41 0 -5 5 -9 11 -9 27 0 52
-45 83 -150 21 -68 47 -130 56 -130 3 0 19 -27 35 -60 16 -33 32 -60 36 -60 3
0 12 -13 19 -30 7 -16 18 -30 25 -30 7 0 18 -13 25 -30 7 -16 16 -30 20 -30
10 0 30 -47 30 -71 0 -40 62 -129 90 -129 5 0 10 -4 10 -10 0 -5 11 -10 25
-10 14 0 25 -4 25 -10 0 -5 11 -10 25 -10 14 0 25 -4 25 -10 0 -5 7 -10 16
-10 22 0 38 -19 66 -76 23 -47 41 -99 52 -155 5 -22 14 -36 56 -86 5 -7 17
-28 27 -47 10 -22 24 -36 35 -36 10 0 18 -4 18 -10 0 -5 10 -10 21 -10 27 0
48 -24 79 -89 13 -28 29 -51 37 -51 7 0 13 -4 13 -10 0 -5 6 -10 13 -10 15 0
40 -69 62 -172 3 -16 10 -28 16 -28 14 0 39 -26 39 -40 0 -6 18 -46 40 -90 22
-44 40 -91 40 -105 0 -20 5 -25 24 -25 18 0 25 -7 29 -29 3 -16 13 -36 22 -44
8 -9 15 -27 15 -41 0 -19 5 -26 20 -26 11 0 20 -4 20 -10 0 -5 9 -10 20 -10
11 0 20 -4 20 -10 0 -5 5 -10 11 -10 15 0 34 -21 54 -59 9 -19 27 -44 39 -57
55 -59 56 -68 26 -183 -16 -64 -17 -76 -4 -88 8 -8 14 -28 14 -44 0 -66 23
-122 67 -167 24 -24 46 -56 50 -73 3 -16 10 -29 15 -29 6 0 7 -16 3 -40 -5
-31 -4 -40 7 -40 20 0 45 -58 59 -135 6 -36 14 -65 19 -65 6 0 23 -35 51 -108
5 -13 9 -34 9 -47 0 -13 5 -25 10 -27 6 -2 18 -30 26 -63 15 -55 15 -66 -2
-137 -9 -43 -20 -78 -24 -78 -8 0 -35 -62 -45 -100 -13 -51 -28 -80 -41 -80
-8 0 -14 -4 -14 -10 0 -5 -7 -10 -16 -10 -9 0 -29 -13 -44 -30 -25 -26 -35
-30 -84 -30 -31 0 -56 -4 -56 -10 0 -5 -9 -10 -20 -10 -11 0 -20 -4 -20 -10 0
-5 -6 -10 -13 -10 -7 0 -19 -9 -27 -20 -8 -12 -26 -20 -42 -20 -15 0 -28 -4
-28 -10 0 -5 -11 -10 -25 -10 -14 0 -25 -4 -25 -10 0 -5 -7 -10 -15 -10 -8 0
-15 -4 -15 -10 0 -5 -13 -10 -30 -10 -16 0 -30 -4 -30 -10 0 -5 -13 -10 -30
-10 -16 0 -30 -4 -30 -10 0 -5 -13 -10 -30 -10 -16 0 -30 5 -30 10 0 6 -9 10
-20 10 -11 0 -20 -4 -20 -10 0 -5 -9 -10 -19 -10 -11 0 -22 -6 -25 -12 -5 -10
-7 -10 -12 0 -3 6 -19 12 -35 12 -16 0 -29 5 -29 10 0 6 -25 10 -55 10 -30 0
-55 -4 -55 -10 0 -5 -20 -10 -45 -10 -25 0 -45 -4 -45 -10 0 -5 -6 -10 -13
-10 -7 0 -19 -10 -27 -21 -26 -37 -88 -99 -99 -99 -6 0 -11 -4 -11 -10 0 -5
-20 -10 -45 -10 -25 0 -45 -4 -45 -10 0 -5 -16 -10 -35 -10 -19 0 -35 -4 -35
-10 0 -5 -9 -10 -20 -10 -11 0 -20 -4 -20 -10 0 -5 -6 -10 -13 -10 -7 0 -19
-9 -27 -20 -8 -11 -20 -20 -27 -20 -7 0 -13 -4 -13 -10 0 -5 -18 -10 -40 -10
-22 0 -40 -4 -40 -10 0 -5 -11 -10 -25 -10 -14 0 -25 -4 -25 -10 0 -5 -7 -10
-15 -10 -8 0 -15 -4 -15 -10 0 -5 -9 -10 -20 -10 -11 0 -20 -4 -20 -10 0 -5
-7 -10 -15 -10 -8 0 -15 -4 -15 -10 0 -5 -9 -10 -20 -10 -11 0 -20 -4 -20 -10
0 -5 -9 -10 -20 -10 -11 0 -20 -4 -20 -10 0 -5 -6 -10 -14 -10 -8 0 -17 -9
-21 -19 -10 -32 -61 -81 -84 -81 -12 0 -21 -4 -21 -10 0 -5 -7 -10 -15 -10 -8
0 -15 -4 -15 -10 0 -5 -8 -10 -18 -10 -10 0 -24 -9 -32 -20 -8 -11 -25 -20
-37 -20 -13 0 -23 -4 -23 -10 0 -5 -7 -10 -15 -10 -8 0 -15 -4 -15 -10 0 -5
-9 -10 -20 -10 -11 0 -20 -4 -20 -10 0 -5 -7 -10 -15 -10 -8 0 -15 -4 -15 -10
0 -5 -11 -10 -25 -10 l-25 0 0 -11360 c0 -11353 0 -11360 20 -11360 11 0 20
-4 20 -10 0 -5 11 -10 25 -10 14 0 25 -4 25 -10 0 -5 8 -10 18 -10 10 0 24 -9
32 -20 8 -11 19 -20 25 -20 6 0 17 -9 25 -20 8 -11 20 -20 26 -20 6 0 17 -14
24 -30 7 -16 16 -30 20 -30 11 0 49 -91 65 -160 8 -36 26 -90 39 -120 65 -151
65 -150 77 -325 21 -308 22 -407 4 -476 -19 -78 -35 -119 -45 -119 -4 0 -13
-13 -20 -30 -7 -16 -16 -30 -20 -30 -4 0 -13 -27 -20 -60 -15 -70 -9 -183 11
-203 8 -8 21 -24 29 -36 8 -11 19 -21 25 -21 6 0 17 -9 25 -20 8 -11 20 -20
27 -20 7 0 13 -4 13 -10 0 -5 6 -10 13 -10 7 0 19 -9 27 -20 15 -21 80 -29 80
-10 0 6 7 10 15 10 8 0 15 5 15 10 0 6 7 10 15 10 8 0 15 5 15 10 0 6 7 10 15
10 8 0 15 5 15 10 0 6 18 10 40 10 22 0 40 5 40 10 0 6 11 10 25 10 14 0 25 5
25 10 0 6 11 10 25 10 14 0 25 5 25 10 0 6 11 10 25 10 14 0 25 5 25 10 0 6
11 10 25 10 14 0 25 5 25 10 0 6 23 10 51 10 l51 0 -5 -33 c-3 -17 -12 -57
-21 -87 -15 -52 -14 -62 5 -175 34 -196 16 -555 -29 -584 -5 -3 -19 -26 -32
-50 -12 -25 -27 -50 -34 -58 -26 -29 -35 -42 -50 -71 -9 -17 -13 -37 -10 -45
3 -8 -12 -67 -34 -130 -39 -115 -39 -116 -26 -179 12 -54 11 -76 -2 -153 -10
-54 -14 -115 -10 -153 3 -34 1 -62 -3 -62 -5 0 -14 -13 -21 -30 -7 -16 -16
-30 -21 -30 -4 0 -11 -9 -14 -20 -3 -11 -13 -27 -22 -35 -8 -9 -23 -46 -33
-83 -17 -69 -52 -145 -76 -170 -26 -25 -26 -58 -1 -108 13 -27 27 -61 30 -75
8 -33 40 -69 61 -69 13 0 16 -11 16 -62 1 -78 33 -242 51 -262 8 -8 25 -29 39
-46 14 -17 35 -42 48 -55 12 -13 22 -32 22 -41 0 -20 -22 -87 -31 -94 -4 -3
-19 -30 -34 -60 -15 -30 -31 -57 -35 -60 -23 -16 -60 -114 -60 -159 0 -28 -6
-65 -14 -83 -47 -110 -57 -139 -70 -190 -10 -40 -24 -67 -49 -92 -20 -20 -41
-36 -46 -36 -16 0 -22 -33 -16 -85 7 -52 -7 -110 -40 -175 -21 -40 -19 -63 11
-122 21 -41 27 -71 31 -149 7 -114 2 -137 -34 -177 -16 -16 -35 -39 -43 -51
-8 -12 -19 -21 -24 -21 -16 0 -46 -43 -42 -59 3 -9 7 -36 11 -61 8 -59 34
-120 52 -120 7 0 13 5 13 10 0 18 45 10 60 -11 28 -39 47 -59 59 -59 6 0 11
-4 11 -10 0 -5 7 -10 16 -10 16 0 54 -36 54 -51 0 -4 6 -14 14 -21 7 -8 21
-29 31 -48 19 -37 24 -43 77 -101 34 -36 58 -90 58 -129 0 -28 21 -89 34 -103
8 -7 28 -42 46 -77 18 -35 38 -70 46 -77 19 -19 18 -40 -5 -131 -36 -144 -36
-154 -2 -191 17 -18 31 -37 31 -42 0 -5 32 -9 71 -9 43 0 75 -5 83 -12 7 -7
20 -58 30 -113 31 -172 24 -156 106 -245 54 -58 80 -91 80 -102 0 -4 11 -8 25
-8 14 0 25 -4 25 -10 0 -5 9 -10 20 -10 11 0 20 -4 20 -10 0 -5 9 -10 20 -10
11 0 20 5 20 10 0 6 7 10 15 10 8 0 15 5 15 10 0 6 8 10 19 10 15 0 19 -11 25
-65 6 -64 41 -155 59 -155 9 0 39 -31 87 -90 57 -70 79 -90 99 -90 12 0 21 -4
21 -10 0 -5 9 -10 20 -10 17 0 19 -4 14 -26 -8 -31 39 -183 67 -216 10 -13 23
-28 27 -34 5 -5 15 -21 22 -34 7 -14 18 -30 24 -37 48 -54 61 -85 75 -177 17
-107 15 -119 -69 -301 -15 -33 -30 -76 -34 -95 -4 -19 -13 -64 -21 -100 -8
-36 -21 -124 -29 -196 -8 -72 -21 -150 -29 -172 l-15 -42 1659 0 c913 0 1659
4 1659 8 0 5 -5 45 -11 90 -8 59 -8 84 0 94 38 44 51 62 51 69 0 4 6 14 14 22
8 7 28 42 46 77 18 35 38 70 46 77 16 16 20 35 28 110 4 47 10 58 60 108 31
30 62 55 71 55 8 0 15 5 15 10 0 6 9 10 20 10 11 0 20 5 20 10 0 6 5 10 10 10
12 0 92 78 108 106 6 10 12 13 12 7 0 -25 28 -13 40 18 7 17 30 49 52 71 21
22 38 44 38 49 0 5 6 9 13 9 7 0 19 9 27 20 8 11 19 20 25 20 6 0 17 9 25 20
8 11 19 20 25 20 6 0 17 9 25 20 8 11 20 20 27 20 7 0 13 5 13 10 0 6 8 10 19
10 24 0 45 51 37 90 -5 27 -3 30 19 30 14 0 25 5 25 10 0 6 18 10 40 10 22 0
40 5 40 10 0 6 5 10 11 10 17 0 40 28 49 61 5 18 19 84 30 148 12 64 28 131
36 149 8 18 14 46 14 63 0 30 19 59 39 59 6 0 11 5 11 10 0 6 5 10 11 10 11 0
49 37 49 47 0 9 -29 33 -39 33 -6 0 -11 5 -11 10 0 6 -6 10 -13 10 -7 0 -19 9
-27 20 -8 11 -20 20 -27 20 -7 0 -17 17 -22 38 -31 116 -33 130 -22 150 6 12
11 41 11 66 0 39 3 46 20 46 11 0 20 5 20 10 0 6 7 10 15 10 8 0 15 5 15 10 0
6 9 10 20 10 11 0 20 5 20 10 0 6 5 10 11 10 15 0 49 39 49 56 0 31 -24 64
-47 64 -12 0 -23 5 -23 10 0 6 5 10 10 10 13 0 13 27 0 43 -42 49 -51 64 -57
86 -8 33 -51 121 -68 138 -8 7 -18 13 -24 13 -6 0 -11 5 -11 10 0 6 -7 10 -15
10 -8 0 -15 9 -15 20 0 11 -7 20 -15 20 -8 0 -15 5 -15 10 0 6 -7 10 -15 10
-8 0 -15 5 -15 10 0 6 -8 10 -18 10 -10 0 -24 9 -32 20 -8 11 -19 20 -25 20
-6 0 -17 9 -25 20 -8 11 -19 20 -25 20 -6 0 -17 9 -25 20 -8 11 -20 20 -27 20
-7 0 -13 5 -13 10 0 6 -7 10 -15 10 -8 0 -15 5 -15 10 0 6 -5 10 -11 10 -6 0
-32 23 -59 50 -27 28 -51 50 -55 50 -13 0 -54 50 -75 91 -13 24 -26 46 -30 49
-4 3 -20 30 -35 60 -15 30 -31 57 -35 60 -4 3 -15 21 -25 40 -10 19 -21 37
-25 40 -4 3 -15 20 -24 39 -17 32 -99 121 -112 121 -3 0 -19 14 -34 30 -15 17
-33 30 -39 30 -6 0 -11 5 -11 10 0 6 -7 10 -15 10 -8 0 -15 5 -15 10 0 6 -7
10 -15 10 -8 0 -15 5 -15 10 0 6 -4 10 -10 10 -15 0 -50 33 -50 47 0 7 -4 13
-9 13 -5 0 -14 15 -21 33 -27 74 -44 109 -62 129 -10 12 -18 29 -18 40 0 10
-4 18 -8 18 -5 0 -17 18 -27 40 -10 22 -21 40 -25 40 -4 0 -13 13 -20 30 -7
16 -20 38 -29 49 -9 10 -23 29 -31 40 -8 12 -18 21 -23 21 -11 0 -87 79 -87
91 0 5 -9 9 -20 9 -11 0 -20 5 -20 10 0 6 -8 10 -18 10 -12 0 -26 17 -42 50
-13 28 -26 50 -30 50 -4 0 -17 23 -30 50 -13 28 -27 50 -30 50 -4 0 -13 13
-20 30 -7 16 -16 30 -20 30 -4 0 -13 13 -20 30 -7 16 -16 30 -21 30 -4 0 -10
8 -14 19 -3 10 -14 29 -25 42 -11 13 -29 35 -40 49 -11 14 -29 36 -40 49 -11
13 -20 27 -20 31 0 4 -9 17 -20 30 -11 13 -23 35 -27 49 -3 14 -10 30 -15 36
-41 49 -48 59 -48 65 0 4 -8 16 -17 28 -10 11 -25 30 -33 43 -8 12 -29 37 -47
55 -17 17 -48 65 -68 105 -35 69 -56 99 -70 99 -10 0 -30 23 -45 50 -7 13 -17
29 -22 34 -4 6 -17 22 -28 34 -10 13 -28 56 -40 95 -12 40 -25 83 -30 97 -21
60 -49 170 -61 232 -9 51 -10 76 -1 105 49 166 53 210 41 374 -11 152 -10 206
5 240 4 10 0 23 -10 33 -14 15 -53 110 -85 211 -5 17 -16 70 -24 118 -9 48
-22 102 -29 120 -43 102 -60 137 -66 137 -13 0 -29 52 -41 134 -10 63 -10 104
0 195 7 64 15 172 17 241 11 270 21 348 46 373 8 8 20 30 27 49 23 61 86 190
103 212 10 11 21 26 26 31 5 6 15 32 22 58 10 33 20 47 32 47 10 0 18 5 18 10
0 6 9 10 20 10 11 0 20 5 20 10 0 6 7 10 15 10 13 0 15 22 15 143 -1 153 -9
217 -31 241 -32 35 -37 44 -49 96 -7 30 -21 62 -30 70 -36 32 -44 58 -90 295
-24 119 -55 195 -82 195 -10 0 -18 5 -18 10 0 6 -6 10 -14 10 -13 0 -26 41
-26 86 0 13 -6 43 -14 66 -8 24 -24 77 -36 118 -23 82 -59 167 -76 185 -7 6
-25 38 -42 71 -23 46 -30 76 -34 139 -5 86 -21 127 -69 179 -109 116 -129 136
-138 136 -6 0 -11 -6 -12 -12 0 -7 -9 19 -19 57 -35 130 -65 215 -76 215 -16
0 -27 32 -14 40 7 5 8 37 2 106 -5 54 -7 140 -4 191 5 110 -1 143 -28 143 -10
0 -22 9 -25 20 -7 21 -25 28 -25 10 0 -5 -9 -10 -20 -10 -11 0 -20 -4 -20 -10
0 -5 -7 -10 -16 -10 -14 0 -15 12 -8 108 5 59 8 124 7 144 -1 39 -21 68 -47
68 -9 0 -16 5 -16 10 0 6 -7 10 -15 10 -8 0 -15 5 -15 10 0 6 -18 10 -40 10
-22 0 -40 -4 -40 -10 0 -5 -10 -10 -21 -10 -22 0 -22 2 -14 117 10 153 10 144
2 176 -6 23 -4 27 13 27 11 0 20 5 20 10 0 6 7 10 15 10 8 0 15 7 15 16 0 23
-25 44 -54 44 -16 0 -27 7 -31 20 -4 14 -15 20 -34 20 -22 0 -31 7 -41 30 -12
29 -30 41 -30 20 0 -6 -28 -10 -65 -10 -37 0 -65 4 -65 10 0 6 -24 10 -53 10
-42 0 -56 4 -67 21 -8 11 -23 30 -32 41 -10 12 -18 25 -18 30 0 4 -7 8 -15 8
-8 0 -15 -4 -15 -10 0 -5 -7 -10 -15 -10 -8 0 -15 -4 -15 -10 0 -5 -11 -10
-25 -10 -14 0 -25 5 -25 10 0 6 -20 10 -45 10 -25 0 -45 -4 -45 -10 0 -5 -7
-10 -15 -10 -8 0 -15 -4 -15 -10 0 -5 -7 -10 -15 -10 -8 0 -15 5 -15 10 0 6
-11 10 -25 10 -14 0 -25 5 -25 10 0 6 -6 10 -14 10 -8 0 -18 9 -21 20 -3 11
-13 20 -21 20 -8 0 -14 5 -14 10 0 6 -9 10 -20 10 -11 0 -20 5 -20 10 0 6 -9
10 -20 10 -11 0 -20 5 -20 10 0 6 -6 10 -13 10 -7 0 -21 16 -30 35 -9 19 -35
54 -57 78 -22 23 -71 74 -109 114 -65 68 -69 75 -80 139 -11 60 -44 173 -73
247 -10 26 -14 27 -74 27 -36 0 -64 4 -64 10 0 6 -9 10 -20 10 -11 0 -20 5
-20 10 0 6 -7 10 -15 10 -8 0 -15 5 -15 10 0 6 -7 10 -16 10 -20 0 -37 17 -59
60 -10 19 -21 37 -25 40 -4 3 -18 25 -30 50 -12 25 -26 47 -30 50 -4 3 -15 21
-25 40 -10 18 -24 40 -31 48 -17 17 -18 39 -2 56 13 13 28 34 48 66 9 13 11
13 20 0 6 -10 10 -11 10 -2 0 6 6 12 13 12 7 0 19 9 27 20 8 11 18 20 23 20 7
0 57 49 94 94 7 8 27 44 45 80 l32 66 53 0 c29 0 53 5 53 10 0 6 7 10 15 10 8
0 15 5 15 10 0 6 9 10 20 10 22 0 26 20 9 52 -12 22 -4 68 12 68 24 0 59 50
59 85 0 28 4 35 20 35 11 0 20 5 20 10 0 6 9 10 21 10 23 0 94 69 104 100 4
11 15 20 25 20 10 0 22 9 25 20 3 11 10 20 14 20 14 0 44 78 36 97 -10 27 -24
185 -18 216 4 21 11 27 30 27 27 0 58 28 68 61 4 11 10 19 14 19 5 0 14 14 21
30 7 17 19 30 26 30 8 0 14 5 14 10 0 6 14 10 30 10 17 0 30 5 30 10 0 6 16
10 35 10 33 0 35 2 35 35 0 19 8 50 17 70 14 30 22 35 50 35 18 0 33 5 33 10
0 6 11 10 25 10 14 0 25 5 25 10 0 6 6 10 13 10 7 0 19 9 27 21 32 45 48 59
69 59 11 0 21 4 21 8 0 13 30 49 97 117 34 35 74 87 89 116 28 57 46 79 63 79
6 0 11 5 11 10 0 6 7 10 15 10 8 0 15 5 15 10 0 6 11 10 25 10 14 0 25 5 25
10 0 6 9 10 20 10 11 0 20 5 20 10 0 6 7 10 15 10 8 0 15 5 15 10 0 6 9 10 20
10 11 0 20 5 20 10 0 6 6 10 13 10 7 0 19 9 27 20 16 23 84 28 94 8 5 -10 7
-10 12 0 4 8 32 12 88 12 l82 0 17 34 c8 19 21 61 26 93 6 32 20 83 31 113 11
30 20 62 20 70 0 35 22 90 35 90 8 0 15 5 15 10 0 6 6 10 13 10 7 0 19 9 27
20 8 11 20 20 27 20 7 0 13 5 13 10 0 6 6 10 14 10 16 0 21 13 31 78 6 38 9
42 36 42 16 0 29 5 29 10 0 6 9 10 20 10 22 0 40 50 40 113 0 21 9 55 20 77
13 25 20 59 20 93 0 57 22 97 54 97 9 0 16 5 16 10 0 6 5 10 10 10 6 0 31 21
56 46 l46 46 -6 59 c-6 53 -5 61 16 83 41 44 44 50 62 121 37 149 35 145 61
145 14 0 25 5 25 10 0 6 9 10 20 10 11 0 20 5 20 10 0 6 9 10 19 10 11 0 22 6
25 13 5 9 7 9 12 0 3 -7 14 -13 25 -13 10 0 19 -4 19 -10 0 -5 11 -10 25 -10
14 0 25 -4 25 -10 0 -5 14 -10 30 -10 17 0 30 -4 30 -10 0 -5 11 -10 25 -10
14 0 25 -4 25 -10 0 -5 14 -10 30 -10 17 0 30 -4 30 -10 0 -5 7 -10 15 -10 20
0 19 9 -4 30 -18 15 -19 20 -6 57 12 34 12 48 0 94 -22 81 -19 112 13 147 15
16 34 40 42 52 14 20 34 46 59 76 24 29 41 77 41 119 l0 45 50 0 c28 0 50 5
50 10 0 6 6 10 13 10 7 0 19 9 27 20 8 11 20 20 27 20 7 0 13 5 13 10 0 6 11
10 25 10 14 0 25 5 25 10 0 6 9 10 20 10 11 0 20 5 20 10 0 6 7 10 15 10 8 0
15 5 15 10 0 6 6 10 13 10 7 0 19 9 27 20 8 11 20 20 27 20 7 0 13 5 13 10 0
6 11 10 25 10 14 0 25 5 25 10 0 6 9 10 20 10 11 0 20 5 20 10 0 6 11 10 25
10 14 0 25 5 25 10 0 6 15 10 34 10 19 0 37 6 39 13 4 9 6 9 6 0 1 -7 9 -13
19 -13 10 0 24 -9 32 -20 10 -14 26 -20 52 -20 21 0 38 -4 38 -10 0 -5 6 -10
13 -10 7 0 19 -9 27 -20 8 -12 26 -20 42 -20 15 0 28 -4 28 -10 0 -5 9 -10 20
-10 11 0 20 -4 20 -10 0 -5 9 -10 20 -10 11 0 20 -4 20 -10 0 -5 11 -10 25
-10 14 0 25 -4 25 -10 0 -5 11 -10 25 -10 14 0 25 -4 25 -10 0 -5 9 -10 20
-10 11 0 20 -4 20 -10 0 -5 6 -10 13 -10 7 0 19 -9 27 -20 8 -11 20 -20 27
-20 7 0 13 -4 13 -10 0 -5 6 -10 13 -10 7 0 19 -9 27 -20 8 -11 20 -20 27 -20
7 0 13 -4 13 -10 0 -5 7 -10 15 -10 8 0 15 -4 15 -10 0 -5 9 -10 20 -10 11 0
20 -4 20 -10 0 -5 7 -10 15 -10 8 0 15 -4 15 -10 0 -5 9 -10 20 -10 11 0 20
-4 20 -10 0 -5 9 -10 20 -10 11 0 20 -4 20 -10 0 -5 9 -10 20 -10 11 0 20 -6
20 -12 0 -10 3 -9 9 1 7 11 9 11 14 0 4 -12 7 -11 16 1 10 13 12 13 22 0 8
-11 12 -12 16 -2 2 6 18 12 34 12 16 0 29 5 29 10 0 6 7 10 15 10 8 0 15 5 15
10 0 6 6 10 14 10 19 0 24 18 18 59 -3 21 0 36 8 41 8 5 10 17 6 36 -5 19 -10
24 -15 15 -6 -8 -10 -2 -14 18 -4 17 -11 31 -17 31 -17 0 -40 26 -40 44 0 9 5
16 10 16 6 0 10 16 10 35 0 27 -8 44 -35 70 -19 19 -39 35 -45 35 -5 0 -10 5
-10 10 0 6 -7 10 -15 10 -8 0 -15 5 -15 10 0 6 -13 10 -30 10 -16 0 -30 5 -30
10 0 6 -9 10 -20 10 -11 0 -20 -4 -20 -10 0 -5 -6 -10 -14 -10 -8 0 -17 -6
-19 -12 -4 -10 -6 -10 -6 0 -1 6 -10 12 -21 12 -11 0 -20 5 -20 10 0 6 -7 10
-15 10 -8 0 -15 5 -15 10 0 6 -6 10 -13 10 -7 0 -19 9 -27 21 -28 39 -47 59
-58 59 -6 0 -14 9 -17 20 -3 11 -12 20 -18 20 -7 0 -19 9 -27 20 -8 11 -22 20
-32 20 -10 0 -18 5 -18 10 0 6 -8 10 -18 10 -10 0 -24 9 -32 20 -8 11 -20 20
-27 20 -7 0 -13 5 -13 10 0 6 -7 10 -15 10 -8 0 -15 5 -15 10 0 6 -15 10 -33
10 -21 0 -38 7 -47 20 -8 11 -20 20 -27 20 -7 0 -13 5 -13 10 0 6 -7 10 -15
10 -8 0 -15 9 -15 20 0 17 -7 20 -40 20 -22 0 -40 5 -40 10 0 6 -9 10 -20 10
-11 0 -20 -4 -20 -10 0 -15 -40 -12 -56 5 -9 8 -13 19 -10 24 4 5 3 17 0 26
-5 13 -8 14 -15 3 -5 -7 -9 -8 -9 -2 0 15 -35 54 -49 54 -6 0 -11 5 -11 10 0
6 -18 10 -40 10 -22 0 -40 5 -40 10 0 6 -37 10 -90 10 -53 0 -90 4 -90 10 0 6
-33 10 -80 10 -47 0 -80 4 -80 10 0 6 -9 10 -21 10 -12 0 -34 14 -49 30 -15
17 -31 30 -35 30 -4 0 -20 14 -35 30 -15 17 -32 30 -37 30 -5 0 -15 9 -23 20
-8 11 -19 20 -25 20 -6 0 -17 9 -25 20 -8 11 -20 20 -27 20 -7 0 -13 5 -13 10
0 6 -6 10 -13 10 -7 0 -19 9 -27 20 -8 11 -20 20 -27 20 -6 0 -15 9 -18 20 -3
11 -10 20 -14 20 -4 0 -16 18 -26 40 -10 22 -21 40 -25 40 -4 0 -15 18 -25 40
-10 22 -22 40 -26 40 -4 0 -10 8 -14 19 -7 24 -39 61 -52 61 -6 0 -18 18 -28
40 -10 22 -23 40 -29 40 -7 0 -18 9 -26 20 -8 11 -20 20 -27 20 -7 0 -13 5
-13 10 0 6 -9 10 -20 10 -11 0 -20 5 -20 10 0 6 -7 10 -15 10 -8 0 -15 5 -15
10 0 6 -7 10 -15 10 -8 0 -15 5 -15 10 0 6 -9 10 -20 10 -11 0 -20 5 -20 10 0
6 -7 10 -15 10 -8 0 -15 5 -15 10 0 6 -7 10 -15 10 -8 0 -15 5 -15 10 0 18
-35 11 -50 -10 -8 -11 -20 -20 -27 -20 -7 0 -13 -4 -13 -10 0 -5 -7 -10 -15
-10 -8 0 -15 -4 -15 -10 0 -5 -7 -10 -15 -10 -8 0 -15 -4 -15 -10 0 -17 -57
-12 -64 6 -3 9 -6 17 -6 19 0 9 60 65 69 65 6 0 11 5 11 10 0 6 7 10 15 10 8
0 15 5 15 10 0 6 7 10 15 10 22 0 18 14 -14 48 -19 21 -32 51 -41 91 -8 39
-18 61 -26 61 -8 0 -14 5 -14 10 0 6 -7 10 -15 10 -8 0 -15 5 -15 10 0 6 -9
10 -20 10 -11 0 -20 5 -20 10 0 6 -7 10 -15 10 -8 0 -15 5 -15 10 0 6 -7 10
-15 10 -8 0 -15 5 -15 10 0 6 -9 10 -20 10 -11 0 -20 5 -20 10 0 6 -6 10 -12
10 -7 0 -23 13 -36 28 -12 15 -31 38 -42 51 -11 13 -20 28 -20 33 0 4 -7 8
-15 8 -8 0 -15 5 -15 10 0 6 -7 10 -15 10 -8 0 -15 5 -15 10 0 6 -7 10 -16 10
-16 0 -54 35 -54 50 0 12 -37 50 -49 50 -6 0 -11 5 -11 10 0 6 -9 10 -20 10
-11 0 -20 5 -20 10 0 6 -7 10 -15 10 -8 0 -15 5 -15 10 0 6 -9 10 -20 10 -11
0 -20 5 -20 10 0 6 -7 10 -15 10 -8 0 -15 5 -15 10 0 6 -9 10 -20 10 -11 0
-20 5 -20 10 0 6 -11 10 -25 10 -14 0 -25 5 -25 10 0 6 -7 10 -15 10 -8 0 -15
5 -15 10 0 6 -18 10 -40 10 -22 0 -40 5 -40 10 0 6 -16 10 -35 10 -19 0 -35 5
-35 10 0 6 -16 10 -35 10 -19 0 -35 5 -35 10 0 6 -13 10 -30 10 -16 0 -30 5
-30 10 0 6 -9 10 -20 10 -11 0 -20 5 -20 10 0 6 -7 10 -15 10 -8 0 -15 5 -15
10 0 6 -7 10 -15 10 -8 0 -15 5 -15 10 0 6 -7 10 -15 10 -8 0 -15 5 -15 10 0
6 -9 10 -19 10 -11 0 -23 9 -26 20 -3 11 -13 20 -21 20 -8 0 -14 5 -14 10 0 6
-7 10 -15 10 -8 0 -15 5 -15 10 0 6 -9 10 -20 10 -11 0 -20 5 -20 10 0 6 -7
10 -15 10 -9 0 -47 32 -85 70 -38 39 -74 70 -80 70 -5 0 -10 14 -10 30 0 20
-5 30 -15 30 -8 0 -15 5 -15 10 0 6 -7 10 -15 10 -8 0 -15 5 -15 10 0 6 -9 10
-20 10 -11 0 -20 5 -20 10 0 6 -7 10 -15 10 -8 0 -15 5 -15 10 0 6 -7 10 -15
10 -8 0 -15 5 -15 10 0 6 -7 10 -15 10 -8 0 -15 5 -15 10 0 6 -7 10 -15 10 -8
0 -15 5 -15 10 0 6 -7 10 -15 10 -8 0 -15 5 -15 10 0 6 -7 10 -15 10 -8 0 -15
5 -15 10 0 6 -20 10 -45 10 -25 0 -45 -4 -45 -10 0 -5 -20 -10 -45 -10 -45 0
-48 2 -155 110 -61 61 -110 118 -110 126 0 18 -23 44 -39 44 -6 0 -11 5 -11
10 0 6 -11 10 -25 10 -14 0 -25 5 -25 10 0 6 -6 10 -14 10 -8 0 -17 9 -21 20
-3 11 -23 38 -43 60 -56 60 -56 61 -71 130 -7 36 -23 96 -36 135 -12 38 -25
91 -28 116 -4 25 -13 66 -21 90 -36 110 -57 192 -76 289 -19 94 -20 115 -10
200 7 52 25 134 41 182 28 86 28 90 13 131 -9 23 -18 52 -21 65 -3 12 -12 22
-19 22 -8 0 -14 5 -14 10 0 6 -13 10 -30 10 -16 0 -30 5 -30 10 0 6 -19 10
-43 10 l-43 0 -51 108 c-56 118 -71 154 -134 320 -7 19 -18 39 -24 46 -7 7
-25 37 -40 67 -15 30 -32 57 -37 60 -5 3 -20 48 -34 100 -23 90 -25 153 -8
236 3 15 -8 33 -35 62 -22 23 -44 41 -49 41 -22 0 -51 110 -62 243 -10 111
-27 187 -39 169 -4 -7 -20 43 -35 111 -31 134 -45 177 -56 177 -4 0 -15 18
-25 40 -10 22 -23 40 -29 40 -7 0 -24 25 -39 54 l-26 55 20 65 21 66 59 0 c55
0 59 2 65 26 4 17 -1 50 -14 88 -11 33 -30 95 -42 136 -11 41 -25 85 -30 97
-5 12 -7 121 -3 245 4 174 9 230 21 253 23 44 31 138 19 236 -9 80 -8 95 18
200 26 104 32 116 71 156 24 24 46 43 50 43 3 0 19 14 34 30 15 17 33 30 39
30 6 0 11 5 11 10 0 6 9 10 20 10 11 0 20 5 20 10 0 6 9 10 20 10 11 0 20 5
20 10 0 6 9 10 20 10 11 0 20 5 20 10 0 6 11 10 25 10 14 0 25 5 25 10 0 6 9
10 20 10 11 0 20 5 20 10 0 6 9 10 20 10 11 0 20 5 20 10 0 6 9 10 20 10 11 0
20 5 20 10 0 6 7 10 15 10 8 0 15 5 15 10 0 6 35 10 85 10 50 0 85 -4 85 -10
0 -6 37 -10 90 -10 53 0 90 4 90 10 0 6 17 10 39 10 36 0 39 3 45 33 3 17 20
76 37 130 32 99 32 99 17 174 -16 84 -12 106 38 205 14 28 34 76 44 107 10 31
25 72 33 91 8 19 23 54 33 78 9 23 21 42 25 42 5 0 13 18 19 39 6 22 24 54 40
73 16 18 45 50 62 70 18 20 39 37 46 38 6 0 12 5 12 10 0 6 7 10 15 10 8 0 15
5 15 10 0 6 9 10 20 10 11 0 20 5 20 10 0 6 7 10 15 10 8 0 15 5 15 10 0 6 9
10 20 10 11 0 20 5 20 10 0 6 7 10 15 10 8 0 15 5 15 10 0 6 5 10 11 10 6 0
16 6 24 13 16 16 65 112 65 127 0 14 25 40 39 40 6 0 11 5 11 10 0 6 7 10 15
10 8 0 15 5 15 10 0 6 9 10 20 10 11 0 20 5 20 10 0 6 7 10 15 10 8 0 15 5 15
10 0 6 5 10 10 10 22 0 100 91 131 152 17 35 35 65 39 68 4 3 15 21 25 40 10
18 24 40 31 48 8 7 14 17 14 21 0 7 8 18 48 67 5 5 15 21 22 34 7 14 18 30 24
37 6 7 17 19 24 27 26 32 14 92 -40 201 l-53 105 80 161 c44 89 85 167 92 174
6 6 32 54 58 105 26 51 53 99 60 107 8 7 17 22 20 33 3 11 13 20 21 20 8 0 14
5 14 10 0 6 14 10 30 10 17 0 30 5 30 10 0 6 20 10 45 10 25 0 45 5 45 10 0 6
20 10 45 10 25 0 45 5 45 10 0 6 16 10 35 10 19 0 35 5 35 10 0 6 18 10 40 10
22 0 40 5 40 10 0 6 16 10 35 10 19 0 35 5 35 10 0 6 11 10 25 10 14 0 25 5
25 10 0 6 11 10 25 10 14 0 25 5 25 10 0 6 11 10 25 10 14 0 25 5 25 10 0 6 9
10 20 10 11 0 20 5 20 10 0 6 11 10 25 10 19 0 26 7 31 28 4 15 16 44 26 66
22 44 54 139 64 191 5 28 11 35 30 35 13 0 24 5 24 10 0 6 7 10 16 10 9 0 29
14 44 30 15 17 32 30 37 30 5 0 15 9 23 20 8 11 19 20 25 20 7 0 22 23 35 50
13 28 29 50 36 50 7 0 16 9 19 20 6 18 15 20 91 20 60 0 84 -4 84 -12 0 -9 4
-8 10 2 6 10 10 11 10 3 0 -7 9 -13 19 -13 11 0 21 -6 23 -12 5 -15 38 13 38
32 0 14 25 40 39 40 6 0 11 5 11 10 0 6 7 10 15 10 8 0 15 5 15 10 0 6 11 10
25 10 14 0 25 5 25 10 0 6 9 10 20 10 13 0 22 9 26 27 7 27 125 153 144 153 5
0 10 5 10 10 0 6 20 10 44 10 39 0 45 3 56 30 12 28 40 42 40 20 0 -5 11 -10
24 -10 13 0 26 -6 29 -12 4 -13 46 26 77 72 25 37 47 60 56 60 5 0 16 9 24 20
20 28 24 26 45 -20 17 -37 35 -53 35 -30 0 6 14 10 30 10 17 0 30 5 30 10 0 6
14 10 30 10 21 0 30 5 30 16 0 20 24 44 44 44 9 0 16 5 16 10 0 6 18 10 40 10
22 0 40 5 40 10 0 6 9 10 20 10 13 0 22 9 26 28 11 44 45 105 74 132 36 33 55
72 70 143 7 31 18 57 23 57 11 0 47 39 47 52 0 4 11 8 25 8 30 0 65 32 90 81
10 19 21 36 25 39 4 3 17 25 30 49 24 48 23 97 -4 150 -25 50 -27 77 -6 101
11 13 20 27 20 32 0 4 9 8 21 8 16 0 20 4 14 18 -3 9 -6 67 -6 129 0 86 -3
116 -14 127 -25 24 -21 33 33 91 21 23 22 26 7 55 -15 29 -14 32 25 110 40 79
40 80 40 192 -1 72 -6 127 -15 153 -8 22 -15 41 -15 43 0 1 11 2 25 2 14 0 25
5 25 10 0 6 24 10 54 10 66 0 71 8 59 112 -4 40 -6 85 -5 101 2 15 -2 27 -7
27 -15 0 -14 37 0 42 12 4 -10 57 -35 85 -6 7 -16 18 -22 26 -21 25 -26 132
-9 214 15 71 15 84 -1 165 -16 85 -18 88 -44 88 -29 0 -41 19 -56 85 -7 30
-48 118 -65 139 -5 6 -22 26 -39 44 -16 19 -34 50 -39 70 -5 21 -15 56 -21 79
-6 23 -10 75 -9 115 2 43 -3 83 -10 97 -8 15 -15 84 -18 192 -4 142 -2 171 11
184 8 8 19 15 25 15 5 0 15 16 20 36 10 37 4 62 -23 90 -6 6 -18 22 -26 34 -8
13 -26 34 -38 47 -13 13 -28 39 -33 57 -5 18 -17 42 -27 54 -9 11 -24 30 -32
42 -27 39 -47 60 -59 60 -6 0 -11 5 -11 10 0 6 -7 10 -16 10 -20 0 -37 17 -59
60 -10 19 -24 40 -31 48 -8 7 -14 17 -14 21 0 4 -9 18 -20 31 -11 13 -20 31
-20 41 0 10 -16 34 -35 53 -29 29 -35 43 -35 78 -1 24 -8 61 -16 83 -8 22 -19
53 -24 69 -5 16 -14 32 -18 35 -16 11 -52 90 -52 115 0 13 -6 31 -14 38 -35
36 -56 97 -56 168 0 50 -6 82 -19 108 -61 119 -92 513 -42 530 18 6 13 53 -7
71 -11 9 -25 41 -32 71 -14 60 -27 91 -43 102 -14 9 -26 247 -14 272 5 10 7
63 5 116 -3 75 -8 101 -21 114 -9 10 -17 24 -17 31 0 8 -6 29 -14 47 -8 18
-20 48 -27 67 -7 19 -26 48 -43 65 -22 22 -35 48 -44 91 -48 223 -68 404 -52
485 15 77 4 263 -19 320 -11 25 -26 63 -35 85 -9 23 -18 79 -20 130 -2 50 -14
129 -26 177 -20 78 -21 89 -7 102 17 17 29 102 27 186 -2 119 7 396 13 407 11
18 -54 143 -74 143 -10 0 -20 8 -24 19 -8 26 -40 61 -55 61 -10 0 -12 20 -7
86 4 51 2 94 -4 105 -9 18 -69 19 -1986 19 l-1976 0 7 -157z"/>
<path fill="#ffffff" stroke="000000" stroke-width="0.01" d="M5750 31440 c0 -5 -7 -10 -15 -10 -9 0
-27 -11 -41 -26 -21 -20 -24 -31 -19 -52 4 -15 10 -21 12 -14 6 14 63 17 63 2
0 -5 7 -10 15 -10 8 0 15 5 15 10 0 6 9 10 20 10 30 0 24 26 -15 66 -19 19
-35 30 -35 24z"/>
</g>
</svg>
