<?xml version="1.0" standalone="no"?>
<!DOCTYPE svg PUBLIC "-//W3C//DTD SVG 20010904//EN"
 "http://www.w3.org/TR/2001/REC-SVG-20010904/DTD/svg10.dtd">
<svg version="1.0" xmlns="http://www.w3.org/2000/svg"
 width="3506.000000pt" height="3950.000000pt" viewBox="0 0 3506.000000 3950.000000"
 preserveAspectRatio="xMidYMid meet">
<metadata>
Created by potrace 1.15, written by Peter Selinger 2001-2017
</metadata>
<g transform="translate(0.000000,3950.000000) scale(0.100000,-0.100000)"
fill="#ffffff" stroke="000000" stroke-width="0.01">
<path fill="#ffffff" stroke="000000" stroke-width="0.01" d="M0 37583 c0 -1872 0 -1916 19 -1895 16
19 29 22 104 22 59 0 87 4 90 13 3 8 11 5 24 -10 11 -13 30 -23 42 -23 11 0
21 -4 21 -10 0 -5 9 -10 20 -10 11 0 20 -4 20 -10 0 -5 7 -10 15 -10 8 0 15
-4 15 -10 0 -5 7 -10 15 -10 8 0 15 -4 15 -10 0 -5 -9 -10 -20 -10 -11 0 -20
-4 -20 -10 0 -5 -7 -10 -16 -10 -22 0 -54 -38 -61 -72 -3 -16 -10 -28 -16 -28
-5 0 -7 -13 -4 -29 4 -17 2 -31 -4 -33 -5 -2 -13 -29 -16 -61 -4 -38 -10 -57
-19 -57 -8 0 -14 -7 -14 -15 0 -25 -23 -65 -37 -65 -7 0 -13 -4 -13 -10 0 -5
-11 -10 -25 -10 -14 0 -25 -4 -25 -10 0 -15 -58 -12 -63 3 -7 20 -17 3 -33
-54 -12 -47 -14 -2084 -14 -14906 0 -12057 2 -14853 13 -14853 7 0 19 -9 27
-20 8 -11 18 -20 22 -20 15 0 96 -87 113 -120 9 -18 37 -52 61 -76 38 -38 43
-49 37 -72 -3 -15 -20 -40 -37 -56 -20 -19 -26 -31 -19 -33 20 -7 15 -23 -7
-23 -11 0 -20 -4 -20 -10 0 -5 -6 -10 -13 -10 -8 0 -19 -11 -25 -25 -15 -33
-15 -35 3 -35 9 0 15 -10 15 -26 0 -39 -34 -94 -59 -94 -6 0 -11 -4 -11 -10 0
-5 -13 -10 -30 -10 -16 0 -30 -4 -30 -10 0 -5 -6 -10 -14 -10 -8 0 -17 -7 -20
-16 -11 -30 -7 -2304 5 -2304 6 0 28 -18 49 -40 21 -22 42 -40 47 -40 5 0 15
-9 23 -20 8 -11 20 -20 27 -20 7 0 13 -4 13 -10 0 -5 5 -10 11 -10 6 0 24 -13
39 -30 15 -16 32 -30 37 -31 4 0 27 -21 51 -47 23 -26 59 -66 80 -88 20 -23
44 -52 52 -64 8 -12 23 -31 32 -42 9 -10 19 -37 23 -59 4 -21 10 -39 14 -39
17 0 42 -78 44 -137 1 -35 5 -63 8 -63 10 0 29 -50 30 -78 0 -15 3 -22 5 -15
4 8 17 0 38 -21 29 -28 34 -42 41 -101 6 -60 5 -67 -7 -54 -8 8 -21 39 -28 69
-13 55 -35 89 -48 75 -4 -4 -1 -10 5 -12 7 -3 18 -23 23 -46 6 -23 16 -58 21
-78 5 -20 17 -45 26 -56 10 -12 25 -31 33 -42 8 -12 20 -21 27 -21 7 0 13 -4
13 -10 0 -5 9 -10 20 -10 11 0 20 -4 20 -10 0 -5 9 -10 20 -10 11 0 20 -4 20
-10 0 -5 8 -10 18 -10 10 0 24 -9 32 -20 8 -11 22 -20 32 -20 10 0 18 -4 18
-10 0 -5 11 -10 25 -10 14 0 25 -4 25 -10 0 -5 7 -10 15 -10 8 0 15 -4 15 -10
0 -5 9 -10 20 -10 11 0 20 -4 20 -10 0 -5 7 -10 15 -10 8 0 15 -4 15 -10 0 -5
9 -10 19 -10 11 0 23 -9 26 -20 3 -11 13 -20 21 -20 8 0 14 -4 14 -10 0 -5 6
-10 13 -10 7 0 19 -10 27 -21 8 -12 34 -41 57 -64 23 -24 49 -58 59 -76 9 -19
25 -41 34 -49 9 -8 25 -31 35 -50 10 -18 23 -39 29 -46 6 -6 18 -22 26 -34 8
-12 21 -29 29 -37 8 -9 11 -23 6 -41 -15 -60 -14 -102 2 -102 33 0 53 -40 53
-104 0 -81 -13 -121 -49 -155 -28 -26 -29 -31 -25 -90 3 -52 -1 -71 -21 -112
l-25 -49 2550 0 c1767 0 2550 3 2550 10 0 6 -12 22 -26 37 -14 14 -23 32 -20
40 3 8 6 17 6 19 0 2 9 4 20 4 11 0 20 6 20 14 0 28 -12 46 -31 46 -10 0 -19
5 -19 10 0 15 -48 12 -53 -2 -3 -9 -11 -6 -24 10 -11 12 -25 22 -30 22 -20 0
-28 48 -28 160 0 136 20 200 62 200 12 0 23 5 23 10 0 6 7 10 15 10 18 0 20
17 4 22 -9 3 -9 9 0 25 6 12 11 31 11 43 0 53 89 170 129 170 22 0 35 30 26
59 -3 10 1 25 8 33 26 25 39 60 32 85 -9 36 3 63 27 63 27 0 61 39 51 59 -15
33 -5 85 29 159 20 42 48 106 63 142 15 36 38 89 51 118 14 29 29 88 35 130
16 119 25 148 88 282 170 361 168 352 86 579 -18 50 -33 80 -49 98 -37 42 -37
42 -21 73 15 29 15 31 -10 56 -14 14 -25 32 -25 40 0 29 -27 44 -80 44 -33 0
-57 6 -67 15 -31 31 -40 125 -12 125 16 0 10 28 -18 85 -23 46 -31 55 -54 55
-15 0 -29 -6 -32 -12 -3 -9 -11 -6 -24 10 -11 12 -25 22 -30 22 -6 0 -16 13
-23 30 -15 36 -43 70 -59 70 -6 0 -11 4 -11 8 0 16 -37 52 -54 52 -9 0 -16 5
-16 10 0 6 -7 10 -15 10 -8 0 -20 9 -27 20 -7 11 -18 20 -25 20 -7 0 -13 5
-13 10 0 6 -7 10 -15 10 -8 0 -15 5 -15 10 0 6 -7 10 -15 10 -8 0 -15 5 -15
10 0 6 -7 10 -15 10 -8 0 -15 5 -15 10 0 6 -6 10 -13 10 -7 0 -19 9 -27 20 -8
11 -20 20 -27 20 -7 0 -13 5 -13 10 0 6 -7 10 -15 10 -8 0 -15 5 -15 10 0 6
-6 10 -13 10 -7 0 -23 9 -35 20 -12 11 -26 20 -32 20 -5 0 -10 5 -10 10 0 6
-7 10 -15 10 -8 0 -15 5 -15 10 0 6 -6 10 -13 10 -7 0 -19 9 -27 20 -8 11 -18
20 -23 20 -9 0 -229 222 -267 270 -14 17 -35 42 -47 54 -25 27 -87 148 -97
189 -8 35 1 67 19 67 11 0 25 20 25 36 0 2 -11 4 -25 4 -14 0 -25 5 -25 10 0
6 -11 10 -25 10 -14 0 -25 5 -25 10 0 6 -6 10 -14 10 -19 0 -29 31 -21 63 13
50 -28 97 -83 97 -32 0 -41 4 -50 25 -7 14 -12 32 -12 40 0 8 -4 15 -9 15 -5
0 -12 8 -16 19 -9 28 -40 61 -59 61 -9 0 -16 5 -16 10 0 6 -6 10 -14 10 -15 0
-26 21 -26 51 0 11 -10 30 -23 43 -12 12 -31 41 -41 64 -11 23 -23 42 -28 42
-4 0 -8 9 -8 20 0 11 -4 20 -10 20 -5 0 -10 9 -10 20 0 11 -6 20 -13 20 -8 0
-22 18 -32 40 -12 27 -24 40 -38 40 -14 0 -17 4 -11 18 12 27 6 71 -11 89 -9
8 -14 22 -11 29 8 22 -15 64 -36 64 -13 0 -18 7 -18 26 0 29 -21 54 -44 54 -9
0 -16 5 -16 10 0 6 -9 10 -20 10 -11 0 -20 -4 -20 -10 0 -5 -9 -10 -20 -10
-11 0 -20 5 -20 10 0 6 -7 10 -15 10 -22 0 -30 46 -12 65 9 8 20 15 26 15 20
0 24 48 6 66 -14 15 -18 15 -27 3 -8 -11 -9 -10 -4 3 8 28 -4 48 -29 48 -16 0
-26 9 -35 30 -7 17 -16 30 -20 30 -15 0 -30 51 -20 70 11 20 4 50 -12 50 -5 0
-6 -9 -3 -20 4 -11 2 -20 -4 -20 -6 0 -11 14 -11 30 0 17 -4 30 -9 30 -5 0
-12 16 -16 36 -7 37 -25 64 -44 64 -6 0 -15 19 -21 43 -6 23 -15 58 -21 77 -5
19 -9 51 -9 70 0 56 -63 210 -85 210 -6 0 -22 23 -36 52 -13 28 -40 69 -60 89
-40 41 -55 90 -43 142 9 43 33 88 58 110 16 14 18 20 7 26 -17 11 -6 61 13 61
17 0 30 31 18 39 -5 3 -16 20 -25 38 -22 41 -16 104 12 134 30 33 94 106 107
122 29 35 46 81 41 116 -7 47 -30 111 -40 111 -26 0 -65 73 -82 155 -22 104
-34 141 -55 166 -11 13 -29 35 -40 49 -11 14 -29 36 -40 49 -11 13 -20 32 -20
42 0 10 -6 24 -14 31 -8 8 -26 38 -41 67 -23 46 -25 60 -19 107 3 31 2 54 -3
54 -10 0 -41 58 -53 102 -13 44 7 94 60 148 27 27 51 50 55 50 13 0 55 50 52
62 -2 7 -2 10 0 6 12 -22 24 -4 20 30 -2 20 -2 29 0 20 7 -27 23 -21 23 7 0
15 13 40 32 60 18 18 44 48 58 65 14 17 30 36 36 43 30 34 64 166 64 249 0 66
-34 183 -61 212 -13 13 -34 37 -47 53 -12 15 -31 39 -42 52 -11 14 -23 36 -27
50 -3 14 -16 47 -29 73 -30 59 -45 161 -45 298 1 105 -4 144 -34 315 -9 50
-23 169 -31 265 -21 255 -30 322 -53 371 -44 96 -59 178 -65 352 -5 144 -9
173 -27 209 -12 23 -26 47 -33 54 -6 6 -18 21 -26 33 -8 11 -20 21 -27 21 -7
0 -13 4 -13 8 0 11 -28 46 -82 104 -27 27 -48 54 -48 59 0 5 -5 9 -11 9 -6 0
-24 14 -39 30 -15 17 -33 30 -39 30 -6 0 -11 5 -11 10 0 6 -7 10 -15 10 -8 0
-15 4 -15 8 0 9 -26 44 -57 77 -25 26 -77 127 -87 168 -3 15 -10 27 -14 27 -5
0 -21 28 -36 63 -16 34 -43 95 -62 135 -36 76 -43 136 -22 175 15 28 34 47 47
47 18 0 12 35 -9 60 -19 22 -25 55 -21 113 2 19 -2 27 -13 27 -23 0 -31 46
-12 66 10 10 14 24 11 35 -4 11 -4 38 0 59 6 34 10 40 32 40 13 0 31 6 39 14
18 19 18 26 -1 26 -8 0 -15 -4 -15 -10 0 -5 -7 -10 -15 -10 -8 0 -15 5 -15 10
0 6 5 10 11 10 16 0 2 69 -18 88 -14 15 -15 14 -9 -8 6 -25 6 -25 -5 -2 -9 16
-21 22 -45 22 -18 0 -35 6 -37 13 -4 9 -6 9 -6 0 -1 -17 -49 -17 -65 0 -8 7
-21 28 -31 47 -26 50 -39 60 -82 60 -28 0 -43 6 -53 21 -8 12 -20 27 -26 33
-6 7 -19 27 -29 45 -9 19 -28 45 -41 58 -13 13 -24 28 -24 33 0 15 -218 230
-232 230 -8 0 -20 9 -28 20 -8 11 -18 20 -23 20 -8 0 -39 31 -78 78 -14 17 -3
125 17 163 8 16 14 30 14 34 0 3 -24 5 -53 5 -48 0 -55 3 -65 25 -16 35 -16
35 19 35 20 0 39 8 51 22 16 19 21 20 28 8 17 -27 22 -2 6 28 -9 17 -13 37
-10 45 3 8 -2 22 -11 31 -15 14 -14 18 9 41 14 14 30 25 36 25 5 0 10 5 10 10
0 6 7 10 15 10 20 0 65 45 65 65 0 18 16 20 23 3 3 -7 6 -2 7 12 1 14 4 19 7
13 9 -23 25 -14 18 10 -5 18 -4 19 5 7 9 -11 13 -12 17 -2 2 6 11 12 19 12 8
0 14 5 14 10 0 6 7 10 15 10 8 0 15 5 15 10 0 6 7 10 15 10 8 0 15 5 15 10 0
6 11 10 25 10 14 0 25 5 25 10 0 6 14 10 30 10 17 0 30 5 30 10 0 6 11 10 25
10 14 0 25 5 25 10 0 6 9 10 20 10 11 0 20 5 20 10 0 6 7 10 15 10 8 0 15 5
15 10 0 6 9 10 20 10 11 0 20 5 20 10 0 6 11 10 25 10 14 0 25 5 25 10 0 6 9
10 20 10 11 0 20 5 20 10 0 6 9 10 20 10 11 0 20 5 20 10 0 6 9 10 20 10 11 0
20 5 20 10 0 6 7 10 15 10 8 0 15 5 15 10 0 6 6 10 13 10 7 0 19 9 27 20 8 11
18 20 23 20 5 0 16 7 24 16 14 13 14 17 2 24 -7 5 -10 13 -5 17 5 4 11 2 13
-4 6 -17 21 -16 40 3 14 13 14 17 2 24 -7 5 -10 13 -5 17 5 4 11 2 13 -4 7
-19 27 -16 43 7 8 11 20 20 27 20 7 0 13 4 13 9 0 13 56 71 69 71 6 0 11 5 11
10 0 6 6 10 13 10 7 0 19 9 27 20 8 11 22 20 32 20 10 0 18 5 18 10 0 6 7 10
15 10 8 0 15 5 15 10 0 6 7 10 15 10 8 0 15 5 15 10 0 6 9 10 20 10 11 0 20 5
20 10 0 6 6 10 13 10 6 1 28 19 47 41 77 87 109 119 119 119 6 0 11 5 11 10 0
6 7 10 15 10 8 0 15 5 15 10 0 6 7 10 15 10 8 0 15 5 15 10 0 6 11 10 25 10
14 0 25 5 25 10 0 6 5 10 11 10 19 0 104 95 123 138 11 23 22 42 26 42 4 0 13
14 20 30 7 17 16 30 19 30 4 0 22 32 41 70 19 39 37 70 41 70 3 0 12 14 19 30
7 17 16 30 20 30 4 0 15 18 25 40 10 22 21 40 25 40 4 0 15 19 26 41 10 23 24
47 30 54 7 6 27 40 44 76 18 35 36 66 40 69 4 3 27 43 50 90 23 47 46 87 50
90 4 3 20 30 35 60 15 30 31 57 35 60 4 3 24 38 44 79 37 72 75 121 96 121 5
0 10 13 10 28 0 16 8 34 20 42 15 11 18 22 14 50 -4 26 -1 41 13 57 11 12 28
40 38 63 10 22 21 40 25 40 4 0 15 18 25 40 10 22 21 40 25 40 4 0 13 13 20
30 7 17 16 30 21 30 4 0 11 9 14 20 3 11 11 20 17 20 5 0 23 14 38 30 15 17
33 30 38 30 6 0 12 6 15 13 4 12 47 -27 47 -45 0 -4 11 -8 25 -8 14 0 25 -4
25 -10 0 -5 14 -10 30 -10 17 0 30 -4 30 -10 0 -5 7 -10 15 -10 27 0 60 -42
78 -99 9 -29 17 -60 17 -67 0 -8 7 -14 15 -14 8 0 15 -4 15 -10 0 -6 30 -10
69 -10 67 0 69 -1 81 -30 8 -19 10 -48 7 -75 -7 -50 -1 -75 18 -75 16 0 30
-33 16 -38 -16 -5 -13 -22 4 -22 8 0 15 -4 15 -10 0 -5 9 -10 20 -10 21 0 28
-18 34 -89 2 -24 9 -47 16 -51 9 -5 11 -20 7 -44 -4 -27 -2 -36 9 -36 8 0 14
-4 14 -9 0 -5 13 -23 30 -41 16 -17 34 -51 40 -73 6 -23 15 -53 20 -67 8 -23
21 -98 26 -145 1 -10 6 -21 12 -23 7 -2 14 -26 18 -53 4 -27 10 -49 14 -49 4
0 10 -13 13 -30 4 -18 13 -30 22 -30 8 0 15 -4 15 -8 0 -5 8 -18 18 -30 9 -11
24 -30 32 -41 8 -12 20 -21 27 -21 7 0 13 -9 13 -20 0 -11 7 -20 15 -20 8 0
15 -4 15 -10 0 -5 10 -10 21 -10 20 0 59 -33 59 -50 0 -17 39 -50 59 -50 23 0
29 -16 9 -22 -10 -4 -9 -9 2 -21 33 -36 40 -47 40 -62 0 -8 6 -15 13 -15 12 0
57 -79 57 -101 0 -11 8 -21 63 -80 20 -22 37 -45 37 -50 0 -5 5 -9 11 -9 7 0
21 -10 32 -22 13 -16 21 -19 24 -10 3 8 30 12 84 12 46 0 79 4 79 10 0 6 11
10 25 10 14 0 25 5 25 10 0 6 9 10 20 10 11 0 20 5 20 10 0 6 11 10 24 10 16
0 27 7 31 20 3 11 13 20 21 20 8 0 14 5 14 10 0 6 11 10 25 10 14 0 25 5 25
10 0 6 11 10 24 10 16 0 27 7 31 20 4 13 15 20 31 20 13 0 24 5 24 10 0 6 7
10 15 10 8 0 15 5 15 10 0 6 9 10 20 10 11 0 20 5 20 10 0 6 7 10 15 10 8 0
15 5 15 10 0 6 16 10 35 10 19 0 35 5 35 10 0 6 18 10 40 10 22 0 40 5 40 10
0 6 11 10 25 10 14 0 25 5 25 10 0 6 20 10 45 10 25 0 45 5 45 10 0 6 7 10 15
10 8 0 15 5 15 10 0 6 9 10 20 10 11 0 20 5 20 10 0 6 9 10 20 10 11 0 20 5
20 10 0 6 14 10 30 10 17 0 30 5 30 10 0 6 15 10 33 10 21 0 38 7 47 20 8 11
22 20 32 20 10 0 18 5 18 10 0 6 9 10 20 10 11 0 20 5 20 10 0 6 8 10 18 10
10 0 24 9 32 20 16 22 55 27 64 8 5 -10 7 -10 12 0 3 6 12 12 20 12 8 0 14 5
14 10 0 6 16 10 35 10 19 0 35 5 35 10 0 14 27 12 33 -2 4 -10 6 -10 6 0 1 14
31 17 31 2 0 -5 15 -10 34 -10 26 0 36 -5 41 -20 7 -21 45 -28 45 -8 0 6 8 1
19 -10 20 -24 46 -29 55 -9 5 10 7 10 12 0 3 -7 16 -13 29 -13 13 0 26 6 28
13 4 9 6 9 6 0 2 -23 43 -13 71 17 15 17 31 30 35 30 4 0 20 14 35 30 19 20
30 26 33 18 4 -10 6 -10 6 0 1 6 10 12 21 12 11 0 20 5 20 10 0 6 9 10 20 10
11 0 20 5 20 10 0 6 9 10 20 10 11 0 20 5 20 10 0 6 7 10 15 10 8 0 15 5 15
10 0 6 9 10 20 10 11 0 20 5 20 10 0 6 6 10 14 10 8 0 18 9 21 20 3 11 14 20
24 20 11 0 24 12 31 30 17 40 34 39 27 -2 -5 -29 -5 -30 5 -10 6 12 19 22 30
22 10 0 18 5 18 10 0 6 5 10 11 10 13 0 49 38 49 52 0 4 6 8 14 8 8 0 18 9 21
20 3 11 12 20 18 20 7 0 19 9 27 20 8 11 20 20 26 20 7 0 15 18 19 40 4 22 11
40 16 40 5 0 6 14 3 30 -4 20 -2 30 5 30 8 0 10 8 6 20 -5 14 -2 20 9 20 9 0
16 5 16 10 0 6 -4 10 -10 10 -5 0 -10 5 -10 10 0 6 7 10 15 10 8 0 15 5 15 10
0 6 -4 10 -10 10 -5 0 -10 5 -10 10 0 6 7 10 15 10 14 0 39 66 30 81 -8 12 6
39 20 39 14 0 28 80 19 105 -4 8 -1 15 5 15 6 0 11 12 11 26 0 14 7 33 16 42
12 11 15 28 12 63 -4 37 -1 50 13 60 13 9 16 21 12 41 -3 17 -1 28 6 28 6 0
11 9 11 20 0 11 -4 20 -10 20 -5 0 -10 10 -10 23 0 18 2 19 11 7 9 -12 9 -11
4 5 -4 11 -9 31 -10 45 -7 67 -28 160 -37 160 -5 0 -6 9 -3 20 4 11 2 20 -4
20 -6 0 -11 14 -11 30 0 17 -4 30 -9 30 -14 0 -21 54 -8 62 9 6 9 10 1 16 -16
10 -26 58 -29 132 -1 37 -7 66 -14 68 -6 2 -11 12 -11 23 0 12 -7 19 -20 19
-13 0 -20 7 -20 20 0 11 -7 20 -15 20 -8 0 -15 5 -15 10 0 6 5 10 10 10 6 0
10 5 10 10 0 6 -9 10 -19 10 -16 0 -21 10 -27 47 -4 26 -12 53 -18 60 -30 34
-36 43 -36 58 0 9 -9 15 -24 15 -16 0 -27 7 -31 20 -3 11 -10 20 -15 20 -5 0
-12 9 -15 20 -3 11 -11 20 -17 20 -5 0 -23 14 -38 30 -15 17 -33 30 -39 30 -6
0 -11 7 -11 16 0 18 -23 44 -39 44 -6 0 -11 9 -11 20 0 11 -7 20 -15 20 -8 0
-15 5 -15 10 0 6 -7 10 -15 10 -8 0 -15 5 -15 10 0 6 -9 10 -20 10 -11 0 -20
4 -20 8 0 14 -36 52 -49 52 -6 0 -11 -4 -11 -10 0 -5 -7 -10 -15 -10 -8 0 -15
-4 -15 -10 0 -5 -7 -10 -15 -10 -8 0 -15 -4 -15 -8 0 -11 -35 -52 -44 -52 -13
0 -5 20 18 43 31 31 46 97 22 97 -9 0 -16 6 -16 13 0 8 -4 7 -10 -3 -9 -13
-11 -13 -20 0 -6 10 -10 11 -10 3 0 -7 -5 -13 -11 -13 -20 0 -39 -29 -39 -58
0 -17 -3 -37 -6 -46 -5 -14 -8 -14 -20 -1 -12 11 -12 19 -4 35 9 16 8 24 -5
36 -8 8 -15 20 -15 25 0 19 -28 -17 -55 -70 -36 -72 -96 -133 -80 -81 5 17 2
20 -27 20 -30 0 -36 5 -56 46 -12 25 -20 50 -17 55 12 19 -24 39 -69 39 -25 0
-46 5 -46 10 0 6 -22 10 -50 10 -43 0 -50 3 -50 20 0 10 12 31 26 45 26 27 27
27 11 76 -17 52 -14 79 9 79 8 0 14 5 14 10 0 15 29 12 46 -4 8 -8 22 -39 31
-68 10 -29 27 -62 38 -74 11 -11 31 -43 44 -72 l24 -52 49 0 c26 0 48 5 48 10
0 6 9 10 20 10 11 0 20 5 20 10 0 6 7 10 15 10 8 0 15 5 15 10 0 6 -4 10 -10
10 -5 0 -10 5 -10 10 0 6 18 10 41 10 34 0 69 17 69 33 0 9 -38 47 -46 47 -5
0 -16 9 -24 20 -8 11 -20 20 -27 20 -7 0 -13 5 -13 10 0 6 -7 10 -15 10 -8 0
-15 5 -15 10 0 6 -5 10 -11 10 -6 0 -24 14 -39 30 -15 17 -35 30 -44 30 -9 0
-16 5 -16 10 0 6 -5 10 -11 10 -13 0 -49 38 -49 52 0 4 -9 8 -20 8 -11 0 -20
5 -20 10 0 6 -9 10 -20 10 -14 0 -20 7 -20 23 0 18 -2 19 -10 7 -5 -8 -10 -10
-10 -4 0 18 -36 54 -54 54 -9 0 -16 5 -16 10 0 6 -12 10 -26 10 -25 0 -64 32
-64 52 0 4 -7 8 -15 8 -8 0 -15 5 -15 10 0 6 -7 10 -15 10 -8 0 -15 7 -15 16
0 8 -6 21 -12 28 -7 8 -20 24 -28 36 -8 13 -34 42 -57 66 -27 27 -41 49 -37
59 4 10 0 15 -10 15 -9 0 -16 5 -16 10 0 6 -7 10 -15 10 -18 0 -20 17 -2 23 7
2 8 8 3 13 -5 5 -11 4 -13 -3 -3 -7 -8 -13 -12 -13 -11 0 -31 47 -27 62 1 7 1
10 -1 6 -8 -14 -22 -8 -28 12 -3 11 -13 20 -21 20 -8 0 -14 5 -14 10 0 6 5 10
10 10 6 0 10 5 10 10 0 6 -11 10 -25 10 -19 0 -26 7 -34 33 -5 17 -10 26 -10
18 -1 -9 -8 -6 -21 9 -12 14 -18 31 -14 42 3 11 0 18 -8 18 -8 0 -20 9 -28 20
-8 11 -20 20 -27 20 -7 0 -13 11 -13 24 0 36 -10 56 -27 56 -18 0 -50 33 -58
61 -4 11 -11 19 -16 19 -16 0 -139 128 -139 145 0 8 -7 15 -16 15 -17 0 -54
36 -54 52 0 4 -6 8 -13 8 -7 0 -19 10 -27 21 -26 37 -88 99 -99 99 -6 0 -11 4
-11 8 0 12 -35 52 -45 52 -4 0 -16 10 -27 22 -16 19 -21 20 -28 8 -8 -13 -10
-12 -10 2 0 39 -23 68 -52 68 -15 0 -28 5 -28 10 0 6 -9 10 -20 10 -13 0 -20
7 -20 20 0 13 -7 20 -19 20 -11 0 -22 6 -24 13 -3 6 -6 1 -7 -13 -1 -24 -1
-24 -12 -5 -16 30 -18 31 -28 15 -8 -13 -10 -12 -10 3 0 10 -7 26 -16 34 -13
14 -17 14 -25 2 -6 -10 -9 -10 -9 -1 0 6 -11 12 -24 12 -13 0 -27 -6 -29 -12
-4 -10 -8 -10 -15 1 -8 11 -10 11 -15 0 -4 -12 -7 -11 -16 1 -7 10 -11 11 -11
3 0 -7 -7 -13 -15 -13 -18 0 -20 -17 -2 -23 6 -2 8 -8 4 -13 -4 -5 -13 -2 -18
6 -8 11 -12 12 -16 3 -6 -15 -53 -18 -53 -3 0 6 -22 10 -50 10 -27 0 -50 5
-50 10 0 6 -18 10 -40 10 -22 0 -40 5 -40 10 0 6 -11 10 -25 10 -14 0 -25 5
-25 10 0 6 -9 10 -19 10 -11 0 -22 6 -24 13 -4 9 -6 9 -6 0 -1 -15 -41 -18
-41 -3 0 6 -9 10 -20 10 -11 0 -20 -4 -20 -10 0 -5 -7 -10 -15 -10 -8 0 -15
-4 -15 -10 0 -5 -6 -10 -14 -10 -8 0 -16 -6 -19 -12 -2 -7 -9 3 -15 22 -6 19
-11 28 -11 20 -1 -13 -2 -13 -11 0 -9 13 -11 13 -21 0 -8 -11 -12 -12 -16 -2
-2 6 -13 12 -24 12 -10 0 -19 5 -19 10 0 6 -18 10 -40 10 -22 0 -40 -4 -40
-10 0 -15 -57 -12 -63 3 -4 9 -6 9 -6 0 -1 -15 -31 -18 -31 -3 0 15 -87 12
-93 -2 -4 -10 -8 -9 -16 2 -7 10 -11 11 -11 3 0 -7 -5 -13 -11 -13 -6 0 -8 10
-5 23 3 12 3 16 0 10 -8 -18 -140 -18 -148 0 -5 10 -7 10 -12 0 -10 -22 -74
-16 -95 9 -11 11 -19 16 -19 10 0 -7 -6 -12 -14 -12 -8 0 -17 -6 -19 -12 -4
-10 -6 -10 -6 0 -1 7 -15 12 -36 12 -19 0 -35 5 -35 10 0 6 -16 10 -35 10 -19
0 -35 5 -35 10 0 6 -18 10 -40 10 -22 0 -40 5 -40 10 0 6 -6 10 -14 10 -8 0
-18 9 -21 20 -6 20 -45 29 -45 10 0 -5 -7 -10 -15 -10 -8 0 -15 5 -15 10 0 6
-7 10 -15 10 -8 0 -15 5 -15 10 0 6 -6 10 -13 10 -7 0 -19 9 -27 20 -10 14
-26 20 -50 20 -24 0 -40 6 -50 20 -8 11 -19 20 -25 20 -6 0 -17 9 -25 20 -8
11 -25 20 -37 20 -13 0 -23 5 -23 10 0 6 -11 10 -25 10 -20 0 -27 6 -31 30 -6
25 -11 30 -36 30 -20 0 -39 10 -58 30 -15 17 -33 30 -39 30 -6 0 -11 6 -11 13
0 9 -2 9 -8 0 -6 -9 -12 -7 -22 8 -30 42 -68 79 -83 79 -9 0 -18 6 -20 13 -4
9 -8 8 -17 -3 -9 -11 -13 -12 -17 -2 -2 6 -9 12 -15 12 -5 0 -23 14 -38 30
-15 17 -37 30 -49 30 -12 0 -21 5 -21 10 0 6 -10 10 -23 10 -12 0 -29 9 -37
20 -8 11 -23 20 -33 20 -11 0 -32 14 -47 30 -15 17 -35 30 -44 30 -9 0 -16 5
-16 10 0 6 -7 10 -16 10 -19 0 -70 52 -79 81 -4 12 -15 19 -31 19 -13 0 -24 5
-24 10 0 6 -7 10 -15 10 -8 0 -15 5 -15 10 0 6 -9 10 -20 10 -11 0 -20 5 -20
10 0 6 -9 10 -20 10 -11 0 -20 5 -20 10 0 6 -6 10 -13 10 -7 0 -19 9 -27 20
-8 11 -20 20 -27 20 -7 0 -13 5 -13 10 0 6 -6 10 -14 10 -7 0 -19 14 -26 30
-7 17 -19 30 -26 30 -8 0 -14 5 -14 10 0 6 -7 10 -15 10 -8 0 -15 5 -15 10 0
6 -9 10 -20 10 -11 0 -20 5 -20 10 0 6 -5 10 -11 10 -13 0 -49 38 -49 52 0 4
-9 8 -20 8 -11 0 -20 5 -20 10 0 6 -8 10 -19 10 -11 0 -23 12 -31 30 -7 17
-16 30 -21 30 -4 0 -11 9 -14 20 -3 11 -11 20 -17 20 -5 0 -23 14 -38 30 -15
17 -33 30 -39 30 -6 0 -11 5 -11 10 0 6 -8 10 -18 10 -10 0 -24 9 -32 20 -8
11 -20 20 -27 20 -7 0 -13 5 -13 10 0 6 -5 10 -11 10 -6 0 -32 23 -59 50 -27
28 -52 50 -55 50 -8 0 -75 70 -95 100 -29 42 -47 60 -64 60 -9 0 -16 5 -16 10
0 6 -5 10 -11 10 -17 0 -49 40 -49 62 0 10 -7 18 -15 18 -8 0 -15 5 -15 10 0
6 -11 10 -25 10 -14 0 -25 5 -25 10 0 6 -9 10 -20 10 -11 0 -20 5 -20 10 0 6
-9 10 -20 10 -11 0 -20 5 -20 10 0 6 -8 10 -18 10 -10 0 -24 9 -32 20 -8 11
-20 20 -27 20 -7 0 -13 5 -13 10 0 6 -7 10 -15 10 -8 0 -15 5 -15 10 0 6 -7
10 -15 10 -8 0 -15 5 -15 10 0 6 -7 10 -16 10 -19 0 -50 33 -59 61 -4 12 -16
19 -31 19 -13 0 -24 5 -24 10 0 6 -5 10 -11 10 -6 0 -24 14 -39 30 -15 17 -33
30 -39 30 -6 0 -11 5 -11 10 0 6 -9 10 -20 10 -11 0 -20 5 -20 10 0 6 -7 10
-15 10 -9 0 -18 12 -22 30 -3 17 -12 30 -19 30 -8 0 -14 5 -14 10 0 6 -5 10
-11 10 -6 0 -24 14 -39 30 -15 17 -32 30 -37 30 -5 0 -15 9 -23 20 -8 11 -22
20 -32 20 -10 0 -18 5 -18 10 0 6 -9 10 -20 10 -11 0 -20 5 -20 10 0 6 -9 10
-20 10 -24 0 -36 40 -21 68 12 23 -3 72 -22 72 -5 0 -18 10 -28 22 -23 26 -25
120 -4 158 8 14 14 43 15 64 0 22 5 54 11 71 19 50 7 79 -63 157 -16 16 -28
33 -29 37 -1 3 -2 25 -3 47 -1 23 -10 60 -19 83 -9 23 -25 60 -34 82 -10 23
-34 60 -55 81 -41 42 -47 68 -23 92 16 15 21 66 7 66 -5 0 -17 18 -27 40 -10
22 -21 40 -25 40 -4 0 -15 18 -25 40 -10 22 -22 40 -27 40 -5 0 -6 22 -2 50 6
49 -8 110 -27 110 -5 0 -9 7 -9 15 0 9 -9 33 -20 55 -11 22 -20 48 -20 59 0
26 -21 71 -33 71 -11 0 -67 59 -67 71 0 5 -9 9 -19 9 -11 0 -22 6 -24 13 -4 9
-6 9 -6 0 -1 -9 -20 -13 -61 -13 l-60 0 6 27 c8 30 13 38 60 87 25 26 35 50
48 113 9 44 16 83 16 86 0 4 6 7 13 7 7 0 19 9 27 20 8 11 22 20 32 20 10 0
18 5 18 10 0 6 11 10 25 10 14 0 25 5 25 10 0 6 7 10 15 10 8 0 15 4 15 8 0 5
8 18 18 30 9 11 24 30 32 41 11 16 25 21 57 21 24 0 43 5 43 10 0 6 11 10 25
10 14 0 25 5 25 10 0 6 11 10 25 10 14 0 25 5 25 10 0 6 11 10 25 10 14 0 25
5 25 10 0 6 18 10 40 10 22 0 40 5 40 10 0 6 18 10 40 10 22 0 40 5 40 10 0 6
7 10 16 10 9 0 29 14 44 30 15 17 36 30 45 30 25 0 45 25 45 57 0 51 20 103
39 103 24 0 49 57 44 100 -3 26 1 42 16 59 12 13 21 28 21 32 0 4 11 19 24 32
26 27 60 88 69 127 7 28 25 53 80 112 20 22 37 44 37 49 0 5 5 9 11 9 13 0
109 98 109 111 0 5 9 9 20 9 11 0 20 5 20 10 0 6 7 10 15 10 8 0 15 5 15 10 0
6 13 10 28 10 16 0 34 8 42 20 8 11 20 20 27 20 6 0 15 9 18 20 3 11 13 20 21
20 8 0 14 5 14 10 0 6 6 10 13 10 7 0 19 9 27 20 8 11 20 20 27 20 7 0 13 5
13 10 0 6 7 10 15 10 11 0 14 7 9 25 -6 24 13 55 34 55 6 0 12 6 15 13 2 6 8
8 13 4 5 -4 4 -11 -2 -15 -6 -4 -14 -20 -17 -37 -3 -16 -4 -24 -1 -17 3 6 14
12 25 12 10 0 19 5 19 10 0 6 9 10 20 10 15 0 22 9 26 30 6 28 24 43 24 20 0
-5 7 -10 15 -10 8 0 15 5 15 10 0 6 9 10 20 10 11 0 20 5 20 10 0 6 7 10 16
10 8 0 33 18 54 40 21 22 44 40 50 40 8 0 9 7 5 18 -16 38 -16 52 -2 67 9 8
20 15 25 15 9 0 29 87 30 133 0 16 -5 27 -14 27 -8 0 -14 5 -14 10 0 6 -18 10
-40 10 -22 0 -40 4 -40 10 0 5 -11 20 -25 34 -28 29 -31 36 -11 36 7 0 19 14
26 30 8 18 20 30 31 30 11 0 19 6 20 13 0 6 5 2 11 -10 6 -13 17 -23 25 -23 7
0 13 -4 13 -10 0 -5 7 -10 15 -10 8 0 15 -4 15 -10 0 -5 10 -10 21 -10 19 0
21 4 16 30 -5 22 -3 30 8 30 7 0 17 9 20 20 3 11 11 20 16 20 5 0 9 18 9 40 0
22 5 40 10 40 6 0 10 10 10 23 0 18 -2 19 -10 7 -9 -13 -10 -13 -10 0 0 8 5
32 11 53 8 30 15 37 34 37 16 0 25 6 25 16 0 8 6 21 12 28 7 8 20 23 28 35 8
11 19 21 25 21 6 0 17 9 25 20 8 11 22 20 32 20 11 0 18 7 18 20 0 11 7 20 15
20 8 0 15 5 15 10 0 6 7 10 15 10 8 0 15 5 15 10 0 6 8 10 18 10 10 0 24 9 32
20 8 11 19 20 25 20 6 0 17 9 25 20 8 11 22 20 31 20 20 0 29 19 30 68 0 20 3
31 6 25 2 -7 16 -13 29 -13 20 0 24 5 24 30 0 17 4 30 9 30 5 0 14 15 21 33
13 35 31 83 50 135 7 18 26 47 41 64 16 17 31 41 34 54 3 13 7 34 10 47 2 13
14 34 25 47 11 13 20 31 20 42 0 10 4 18 9 18 5 0 11 23 15 50 5 41 10 50 26
50 11 0 20 5 20 10 0 6 7 10 15 10 8 0 15 7 15 15 0 9 11 27 24 40 20 20 24
31 19 59 -4 25 -1 40 12 52 14 14 16 27 10 72 -4 36 -3 57 4 62 25 15 7 112
-26 148 -7 7 -13 17 -13 22 0 5 -6 15 -14 22 -7 8 -21 29 -31 48 -10 19 -23
40 -29 47 -30 34 -36 43 -36 58 0 8 -8 15 -18 15 -22 0 -42 39 -42 80 0 16 -7
51 -16 77 -33 95 -25 303 11 303 8 0 15 5 15 10 0 6 6 10 13 10 18 0 42 58 58
138 10 55 14 62 35 62 13 0 24 5 24 10 0 6 9 10 20 10 11 0 20 4 20 9 0 16 58
71 74 71 9 0 16 5 16 10 0 6 7 10 16 10 16 0 54 36 84 79 8 12 22 21 32 21 10
0 18 5 18 10 0 6 9 10 20 10 11 0 20 5 20 10 0 6 16 10 35 10 19 0 35 5 35 10
0 6 11 10 25 10 14 0 25 5 25 10 0 6 7 10 16 10 9 0 29 14 44 30 15 17 32 30
37 30 5 0 15 9 23 20 8 11 20 20 27 20 7 0 13 5 13 10 0 6 7 10 15 10 8 0 15
5 15 10 0 6 8 10 18 10 10 0 24 9 32 20 8 11 22 20 32 20 10 0 18 5 18 10 0 6
9 10 20 10 11 0 20 5 20 10 0 6 7 10 15 10 8 0 15 5 15 10 0 6 7 10 15 10 8 0
15 5 15 10 0 6 11 10 25 10 14 0 25 5 25 10 0 6 9 10 20 10 11 0 20 5 20 10 0
6 7 10 15 10 10 0 15 10 15 30 0 17 5 30 10 30 6 0 10 -4 10 -10 0 -18 18 -11
25 10 7 22 55 29 56 8 0 -7 5 -3 11 10 8 15 20 22 40 22 32 0 58 20 58 44 0 9
7 16 15 16 8 0 15 5 15 10 0 6 7 10 15 10 8 0 15 5 15 10 0 6 7 10 15 10 8 0
15 5 15 10 0 6 9 10 20 10 11 0 20 5 20 10 0 6 9 10 20 10 11 0 20 5 20 10 0
6 9 10 19 10 11 0 23 9 26 20 3 11 13 20 21 20 8 0 14 5 14 10 0 6 11 10 25
10 14 0 25 5 25 10 0 6 7 10 15 10 8 0 15 5 15 10 0 6 11 10 25 10 14 0 25 5
25 10 0 6 9 10 20 10 11 0 20 5 20 10 0 6 6 10 13 10 14 0 37 40 37 65 0 8 7
15 15 15 8 0 18 12 21 28 4 15 18 49 32 77 21 42 23 54 13 80 -15 42 -14 55 4
55 8 0 15 5 15 10 0 6 6 10 13 10 16 0 37 41 37 71 0 11 7 34 16 51 9 17 13
39 11 50 -5 19 0 36 44 136 11 23 19 54 19 67 0 14 4 25 9 25 5 0 13 9 16 20
4 13 15 20 30 20 15 0 26 7 30 20 4 14 15 20 35 20 26 0 31 5 42 43 7 23 11
51 10 62 -2 17 0 18 9 5 8 -11 12 -12 16 -2 2 6 9 12 15 12 5 0 27 18 48 40
21 22 42 40 46 40 11 0 41 38 54 70 7 17 18 30 26 30 7 0 15 8 19 19 5 16 13
28 53 77 5 5 12 31 16 57 4 26 11 47 17 47 5 0 9 34 9 75 0 67 3 79 25 100 13
14 33 25 45 25 13 0 20 7 20 19 0 11 7 27 16 35 14 15 14 17 0 32 -9 8 -16 19
-16 23 0 15 -38 51 -54 51 -9 0 -16 5 -16 10 0 6 -7 10 -16 10 -23 0 -44 25
-55 65 -7 25 -16 35 -29 35 -11 0 -20 5 -20 10 0 6 5 10 10 10 6 0 10 11 10
25 0 29 20 75 32 75 5 0 7 9 3 20 -8 25 9 85 29 106 9 8 16 29 16 45 0 19 5
29 15 29 10 0 15 10 15 29 0 16 6 36 13 43 14 14 37 53 37 62 0 3 -7 6 -15 6
-18 0 -19 5 -3 33 14 25 27 96 35 181 3 33 11 66 19 73 20 21 17 66 -6 93 -13
14 -20 37 -20 62 0 31 3 38 20 38 17 0 19 4 14 28 -4 15 -14 41 -22 57 -8 17
-15 50 -14 75 1 25 1 59 2 75 1 69 -12 145 -25 145 -8 0 -16 17 -20 39 -4 22
-14 49 -24 60 -10 11 -26 38 -36 61 -10 22 -22 40 -27 40 -4 0 -8 5 -8 10 0 6
7 10 15 10 8 0 15 7 15 16 0 19 -24 44 -43 44 -8 0 -18 7 -21 16 -9 22 -8 24
9 24 8 0 15 7 15 16 0 18 -23 44 -39 44 -6 0 -11 5 -11 10 0 6 -7 10 -15 10
-15 0 -20 21 -16 73 2 20 -2 27 -16 27 -22 0 -93 135 -93 175 0 20 -5 25 -25
25 -22 0 -25 4 -25 34 0 44 -9 66 -26 66 -8 0 -14 5 -14 10 0 6 6 10 14 10 8
0 17 7 20 16 6 16 -15 44 -33 44 -6 0 -11 5 -11 10 0 6 -7 10 -15 10 -8 0 -15
4 -15 9 0 5 7 16 15 25 8 8 15 17 15 20 0 3 -7 6 -15 6 -8 0 -15 5 -15 10 0 6
-7 10 -15 10 -8 0 -15 5 -15 10 0 6 -7 10 -15 10 -30 0 -43 121 -19 183 5 13
1 17 -19 17 -14 0 -27 7 -31 15 -7 20 4 105 15 105 5 0 13 18 19 40 8 30 16
40 31 40 41 0 51 23 39 91 -11 60 -27 89 -49 89 -6 0 -11 5 -11 10 0 6 5 10
11 10 17 0 49 40 49 61 0 9 4 19 8 21 5 2 7 20 4 41 -3 28 -9 37 -23 37 -10 0
-19 5 -19 10 0 6 -8 10 -18 10 -10 0 -24 10 -32 21 -8 12 -20 27 -26 33 -6 7
-19 27 -28 44 -15 29 -15 34 -2 47 8 8 19 15 24 15 16 0 22 27 22 91 0 62 18
111 51 140 23 20 24 29 4 29 -22 0 -20 68 3 89 11 9 22 28 25 43 4 15 15 34
24 43 11 12 13 19 5 24 -17 10 11 101 30 101 18 0 38 29 38 54 0 14 5 26 10
26 6 0 10 7 10 15 0 9 9 34 20 55 18 36 19 43 6 68 -7 15 -17 43 -21 62 -9 40
-60 147 -81 167 -17 17 -18 30 -3 35 8 3 6 15 -6 38 -22 43 -39 60 -59 60 -9
0 -16 8 -16 18 0 19 -15 42 -62 94 -16 16 -28 36 -28 44 0 19 -32 84 -42 84
-4 0 -8 7 -8 15 0 9 -11 27 -25 41 -14 14 -25 36 -25 49 0 34 -10 55 -26 55
-17 0 -18 17 -2 22 9 3 8 9 -4 21 -9 9 -19 17 -23 17 -14 0 -75 71 -95 110
-12 23 -46 66 -75 96 -30 30 -58 66 -62 81 -7 29 -25 53 -40 53 -5 0 -15 9
-23 20 -8 11 -18 20 -23 20 -12 0 -31 21 -47 49 -14 26 -22 36 -107 127 -32
34 -65 72 -73 84 -8 13 -25 33 -36 45 -12 12 -30 37 -39 55 -9 18 -27 43 -39
56 -37 40 -44 50 -75 112 -17 34 -31 73 -31 87 0 14 -4 25 -9 25 -5 0 -12 18
-16 40 -4 22 -10 40 -15 40 -4 0 -8 10 -8 23 0 25 -16 93 -27 120 -5 12 -2 17
9 17 9 0 16 5 16 10 0 6 7 10 15 10 8 0 15 5 15 10 0 6 6 10 13 10 8 0 19 12
25 26 10 20 9 28 -2 40 -8 8 -17 14 -21 14 -4 0 -24 18 -45 40 -21 22 -43 40
-48 40 -6 0 -13 18 -17 40 -4 22 -10 40 -14 40 -10 0 -12 101 -2 135 4 17 5
55 1 85 -5 42 -4 58 8 69 9 10 12 27 9 52 -4 28 0 44 14 60 12 15 16 30 12 50
-6 31 13 89 30 89 6 0 7 19 3 50 -4 28 -3 50 2 50 12 0 42 81 51 140 4 25 13
55 19 67 7 12 12 33 12 47 0 15 6 26 14 26 7 0 19 15 26 33 6 17 18 47 26 65
13 30 13 69 -2 140 -2 12 -11 22 -20 22 -25 0 -40 22 -48 69 -8 51 -31 99 -59
123 -13 12 -18 25 -14 39 3 13 0 28 -9 36 -8 8 -13 23 -10 32 2 9 7 42 11 74
l6 57 -2515 0 -2516 0 0 -1917z"/>
<path fill="#ffffff" stroke="000000" stroke-width="0.01" d="M1 35383 c-1 -109 3 -173 9 -173 6 0
10 4 10 9 0 5 7 16 15 25 8 8 19 43 24 77 7 51 5 71 -11 113 -10 28 -16 61
-13 74 4 15 1 22 -9 22 -8 0 -17 6 -19 13 -3 6 -6 -66 -6 -160z"/>
<path fill="#ffffff" stroke="000000" stroke-width="0.01" d="M14850 33300 c0 -5 -7 -10 -15 -10 -8
0 -15 -4 -15 -10 0 -5 -7 -10 -15 -10 -8 0 -15 -4 -15 -10 0 -5 -5 -10 -11
-10 -9 0 -58 -48 -128 -126 -39 -44 -63 -117 -81 -256 -5 -36 -16 -80 -24 -97
-9 -16 -16 -36 -16 -44 0 -8 -9 -24 -20 -37 -24 -27 -24 -34 -7 -52 22 -22 37
-55 37 -82 0 -21 5 -26 25 -26 14 0 25 5 25 10 0 16 47 11 54 -6 3 -9 6 -39 6
-67 0 -29 9 -103 19 -164 11 -62 17 -128 14 -146 -3 -23 1 -45 13 -68 14 -25
19 -58 20 -129 1 -57 10 -129 22 -180 43 -176 45 -199 27 -322 -10 -62 -23
-162 -29 -223 -6 -60 -15 -115 -19 -122 -10 -16 13 -63 30 -63 16 0 55 -37 71
-67 13 -24 36 -90 51 -149 6 -22 20 -51 30 -63 13 -15 22 -44 26 -89 3 -37 12
-94 20 -127 7 -33 19 -98 25 -145 21 -165 40 -285 49 -317 5 -17 17 -87 26
-155 15 -112 30 -185 95 -465 17 -72 21 -107 15 -161 -8 -84 8 -178 42 -246
27 -53 45 -76 62 -76 6 0 15 -19 21 -42 7 -24 18 -63 27 -88 9 -26 21 -128 29
-240 7 -107 16 -212 19 -232 7 -39 34 -78 54 -78 7 0 30 -18 51 -40 21 -22 48
-40 59 -40 12 0 21 -4 21 -10 0 -5 7 -10 15 -10 8 0 15 -4 15 -10 0 -5 7 -10
15 -10 8 0 15 -4 15 -10 0 -5 9 -10 20 -10 11 0 20 -4 20 -10 0 -5 9 -10 20
-10 11 0 20 -4 20 -10 0 -5 7 -10 15 -10 16 0 16 1 40 -145 9 -55 21 -112 27
-127 6 -17 8 -57 3 -102 -7 -83 -2 -99 49 -151 17 -18 38 -42 46 -54 26 -40
47 -61 59 -61 6 0 11 -4 11 -10 0 -5 9 -10 20 -10 11 0 20 -4 20 -10 0 -6 32
-10 75 -10 43 0 75 4 75 10 0 6 9 10 20 10 11 0 20 5 20 10 0 6 9 10 20 10 11
0 20 5 20 10 0 6 23 10 50 10 28 0 50 -4 50 -10 0 -5 9 -10 20 -10 11 0 20 -4
20 -10 0 -5 11 -10 25 -10 14 0 25 -4 25 -10 0 -5 8 -10 18 -10 10 0 24 -9 32
-20 8 -11 20 -20 27 -20 7 0 13 -4 13 -10 0 -5 7 -10 15 -10 8 0 15 -4 15 -10
0 -5 14 -10 30 -10 17 0 30 -4 30 -10 0 -5 20 -10 45 -10 25 0 45 -4 45 -10 0
-5 14 -10 30 -10 17 0 30 -4 30 -10 0 -5 8 -10 18 -10 10 0 24 -9 32 -20 8
-11 18 -20 23 -20 5 0 22 -13 37 -30 15 -16 33 -30 39 -30 6 0 11 -4 11 -8 0
-14 36 -52 49 -52 6 0 11 -4 11 -10 0 -5 7 -10 15 -10 8 0 15 -4 15 -10 0 -5
7 -10 15 -10 8 0 15 -4 15 -10 0 -5 9 -10 20 -10 11 0 20 -4 20 -10 0 -5 11
-10 25 -10 14 0 25 -4 25 -10 0 -5 16 -10 35 -10 19 0 35 -4 35 -10 0 -5 9
-10 20 -10 11 0 20 -4 20 -10 0 -5 5 -10 10 -10 33 0 95 -99 86 -136 -4 -13
-1 -45 5 -71 12 -48 55 -144 69 -153 4 -3 22 -34 40 -70 18 -36 36 -67 40 -70
16 -11 90 -171 90 -194 0 -14 7 -31 15 -40 8 -8 15 -32 15 -56 0 -35 6 -47 45
-85 24 -25 49 -45 54 -45 16 0 32 -56 25 -85 -4 -16 -21 -43 -38 -60 -28 -28
-46 -62 -100 -188 -9 -21 -21 -43 -26 -50 -38 -45 -50 -61 -50 -67 0 -12 -37
-50 -49 -50 -6 0 -11 -4 -11 -10 0 -5 -9 -10 -20 -10 -11 0 -20 -4 -20 -10 0
-5 -5 -10 -11 -10 -6 0 -28 -18 -49 -40 -21 -22 -41 -40 -45 -40 -9 0 -85 -80
-85 -90 0 -5 -6 -15 -14 -22 -7 -8 -21 -29 -30 -47 -10 -18 -45 -61 -79 -95
-34 -35 -69 -73 -77 -84 -8 -12 -19 -22 -25 -22 -6 0 -17 -9 -25 -21 -26 -37
-68 -79 -78 -79 -6 0 -14 -9 -17 -20 -3 -11 -10 -20 -14 -20 -4 0 -16 -18 -26
-40 -10 -22 -21 -40 -25 -40 -4 0 -12 -11 -18 -25 -13 -27 -17 -33 -72 -95
-54 -61 -57 -64 -80 -110 -21 -41 -62 -90 -75 -90 -4 0 -24 -18 -45 -40 -21
-22 -41 -40 -45 -40 -14 0 -55 -51 -80 -101 -15 -29 -33 -59 -41 -67 -8 -7
-14 -18 -14 -23 0 -5 -7 -9 -16 -9 -16 0 -76 -58 -104 -100 -24 -36 -67 -80
-78 -80 -6 0 -13 -9 -17 -19 -9 -29 -60 -81 -79 -81 -9 0 -16 -4 -16 -10 0 -5
-7 -10 -15 -10 -8 0 -15 -4 -15 -10 0 -5 -5 -10 -10 -10 -34 0 -134 -152 -153
-230 -8 -33 -27 -57 -122 -154 -91 -93 -111 -132 -135 -266 -6 -36 -16 -66
-21 -68 -5 -2 -9 -10 -9 -18 0 -17 -37 -92 -54 -110 -6 -6 -18 -22 -26 -34 -8
-12 -23 -31 -32 -42 -10 -12 -18 -24 -18 -28 0 -17 -39 -50 -59 -50 -11 0 -21
-4 -21 -10 0 -5 -9 -10 -20 -10 -11 0 -20 -4 -20 -10 0 -5 -13 -10 -30 -10
-16 0 -30 -4 -30 -10 0 -5 -6 -10 -13 -10 -7 0 -19 -9 -27 -21 -8 -11 -23 -30
-32 -41 -10 -12 -18 -25 -18 -30 0 -4 -7 -8 -15 -8 -8 0 -15 -4 -15 -10 0 -5
-6 -10 -12 -10 -7 -1 -29 -19 -48 -41 -19 -22 -50 -55 -67 -74 -22 -23 -33
-44 -33 -64 0 -31 28 -101 41 -101 34 0 30 -271 -6 -340 -10 -19 -24 -40 -31
-47 -24 -24 -36 -95 -32 -178 4 -69 10 -91 45 -160 22 -44 44 -96 48 -115 4
-19 11 -37 15 -40 10 -7 71 -129 80 -161 4 -14 2 -59 -5 -100 -7 -41 -16 -130
-19 -199 -4 -69 -11 -142 -17 -162 -27 -107 -31 -118 -44 -118 -8 0 -15 -4
-15 -10 0 -5 -13 -10 -30 -10 -47 0 -54 -45 -40 -264 6 -100 9 -189 6 -197 -7
-20 -19 -182 -20 -262 -1 -37 -6 -71 -12 -75 -18 -12 -34 -49 -34 -81 0 -17
-9 -50 -19 -73 -11 -24 -28 -70 -37 -103 -18 -64 -58 -151 -79 -171 -6 -7 -17
-27 -24 -46 -7 -18 -27 -63 -44 -100 l-31 -68 -48 0 c-26 0 -48 -4 -48 -10 0
-5 -9 -10 -20 -10 -11 0 -20 -4 -20 -10 0 -5 -12 -10 -26 -10 -31 0 -64 -34
-64 -64 0 -36 19 -92 40 -116 11 -13 20 -27 20 -32 0 -4 5 -8 11 -8 16 0 45
-34 57 -68 6 -15 15 -86 20 -158 6 -71 18 -154 28 -183 17 -53 17 -53 -9 -109
-18 -40 -31 -96 -42 -187 -29 -223 -51 -370 -70 -460 -8 -38 -21 -113 -30
-165 -9 -52 -27 -120 -40 -150 -26 -61 -51 -191 -60 -315 -6 -82 -24 -180 -52
-274 -12 -43 -14 -74 -8 -150 9 -115 9 -153 -3 -160 -24 -15 -91 -173 -106
-250 -18 -88 -37 -136 -66 -161 -26 -23 -37 -50 -50 -119 -6 -35 -22 -86 -35
-115 -37 -79 -56 -143 -71 -241 -8 -49 -18 -92 -22 -95 -4 -3 -13 -22 -20 -42
-19 -55 9 -138 47 -138 6 0 11 -4 11 -8 0 -8 9 -21 49 -68 5 -7 25 -43 44 -80
26 -52 33 -78 30 -105 -3 -25 0 -41 12 -53 9 -9 26 -40 36 -69 18 -47 19 -68
13 -231 -7 -177 -20 -249 -53 -288 -39 -45 -51 -62 -56 -79 -4 -11 -10 -19
-15 -19 -5 0 -14 -17 -20 -38 -9 -34 -18 -49 -60 -99 -5 -7 -10 -22 -10 -33 0
-21 26 -80 40 -90 3 -3 14 -31 24 -62 16 -53 44 -98 60 -98 35 0 78 -107 95
-233 6 -43 15 -86 20 -95 4 -9 14 -42 21 -72 24 -103 95 -220 135 -220 8 0 15
-4 15 -10 0 -5 9 -10 20 -10 11 0 20 -4 20 -10 0 -5 14 -10 31 -10 35 0 49
-12 74 -59 24 -47 60 -81 85 -81 12 0 27 -6 35 -13 22 -23 63 -111 70 -153 8
-46 31 -118 47 -147 14 -26 21 -35 88 -106 30 -32 62 -68 70 -80 8 -11 22 -21
32 -21 10 0 18 -4 18 -10 0 -5 11 -10 25 -10 14 0 25 -4 25 -10 0 -5 14 -10
30 -10 17 0 30 -4 30 -10 0 -5 25 -10 55 -10 30 0 55 -4 55 -10 0 -5 18 -10
40 -10 22 0 40 5 40 10 0 6 9 10 20 10 11 0 20 5 20 10 0 6 11 10 25 10 14 0
25 5 25 10 0 6 9 10 20 10 11 0 20 -4 20 -10 0 -5 7 -10 15 -10 8 0 15 -4 15
-10 0 -5 7 -10 15 -10 8 0 15 -4 15 -10 0 -5 7 -10 15 -10 8 0 15 -4 15 -10 0
-5 5 -10 11 -10 15 0 34 -21 54 -60 10 -19 21 -37 25 -40 4 -3 18 -25 30 -50
12 -25 26 -47 30 -50 14 -9 56 -104 73 -163 10 -31 25 -83 34 -115 9 -31 24
-64 33 -72 43 -38 66 -116 90 -305 13 -94 41 -177 74 -211 6 -6 18 -21 26 -33
8 -11 18 -21 23 -21 5 0 22 -13 37 -30 15 -16 32 -30 37 -30 5 0 15 -9 23 -20
14 -20 60 -28 60 -12 0 14 36 52 49 52 6 0 11 5 11 10 0 6 6 10 14 10 18 0 25
19 41 100 8 36 21 85 30 110 16 42 16 61 0 135 -5 22 -1 36 13 53 11 12 23 22
27 22 4 0 20 14 35 30 21 23 37 30 64 30 20 0 36 -4 36 -10 0 -5 7 -10 15 -10
8 0 15 -4 15 -10 0 -5 14 -10 30 -10 17 0 30 -4 30 -10 0 -5 7 -10 15 -10 8 0
15 5 15 10 0 6 11 10 25 10 14 0 25 5 25 10 0 6 16 10 35 10 40 0 72 -26 100
-80 19 -37 24 -43 78 -101 33 -37 37 -46 37 -95 0 -38 8 -71 29 -116 16 -35
37 -82 47 -105 9 -24 21 -43 25 -43 4 0 11 -9 14 -20 3 -11 12 -20 19 -20 8 0
19 -13 26 -30 7 -16 16 -30 19 -30 13 0 43 -74 57 -139 7 -35 16 -112 20 -170
4 -67 15 -132 29 -176 31 -94 45 -185 45 -284 0 -83 -9 -113 -40 -141 -10 -8
-30 -40 -46 -70 -24 -47 -29 -71 -34 -160 -5 -72 -12 -116 -25 -140 -20 -39
-39 -60 -54 -60 -6 0 -11 -4 -11 -8 0 -5 -9 -20 -20 -33 -11 -13 -30 -36 -42
-51 -13 -15 -29 -28 -35 -28 -7 0 -13 -4 -13 -10 0 -5 -7 -10 -15 -10 -8 0
-15 -4 -15 -10 0 -5 -6 -10 -13 -10 -7 0 -23 -21 -35 -46 -12 -25 -27 -51 -33
-58 -39 -47 -68 -76 -76 -76 -5 0 -15 -9 -23 -21 -26 -38 -68 -79 -79 -79 -6
0 -11 -4 -11 -10 0 -5 -5 -10 -11 -10 -10 0 -48 -37 -119 -120 -19 -22 -40
-46 -46 -53 -6 -7 -19 -28 -29 -47 -20 -38 -39 -60 -52 -60 -5 0 -17 -16 -26
-36 -10 -19 -22 -40 -27 -47 -42 -49 -50 -62 -50 -77 0 -10 -13 -32 -29 -49
-40 -43 -72 -148 -69 -231 1 -50 -4 -75 -21 -109 -23 -45 -63 -91 -79 -91 -5
0 -17 -18 -27 -41 -25 -54 -68 -99 -94 -99 -12 0 -21 -4 -21 -10 0 -5 -11 -10
-25 -10 -14 0 -25 -4 -25 -10 0 -5 -5 -10 -11 -10 -16 0 -34 -21 -60 -71 -37
-71 -27 -230 18 -277 19 -20 33 -81 33 -145 0 -64 10 -90 50 -127 36 -34 88
-137 96 -192 4 -24 19 -68 34 -98 23 -47 29 -81 44 -230 9 -96 16 -262 16
-368 0 -151 4 -204 16 -243 9 -27 21 -49 26 -49 11 0 48 -39 48 -50 0 -4 8
-16 18 -28 9 -11 24 -30 32 -42 8 -12 21 -28 28 -36 6 -7 12 -17 12 -23 0 -21
24 -61 37 -61 7 0 13 -4 13 -10 0 -5 7 -10 16 -10 20 0 44 -24 44 -44 0 -8 6
-21 14 -29 8 -7 35 -55 61 -106 25 -51 60 -108 78 -126 48 -51 57 -63 57 -78
0 -8 9 -25 20 -38 11 -13 24 -29 28 -35 5 -5 15 -21 22 -34 23 -43 37 -50 94
-50 31 0 56 -4 56 -10 0 -5 16 -10 35 -10 19 0 35 -4 35 -10 0 -5 20 -10 45
-10 25 0 45 -4 45 -10 0 -5 7 -10 15 -10 8 0 15 -4 15 -10 0 -5 9 -10 20 -10
11 0 20 -4 20 -10 0 -5 7 -10 16 -10 19 0 70 -52 79 -81 5 -16 16 -19 71 -19
36 0 64 -4 64 -10 0 -5 18 -10 40 -10 22 0 40 -4 40 -10 0 -5 11 -10 25 -10
14 0 25 -4 25 -10 0 -5 23 -10 50 -10 28 0 50 -4 50 -10 0 -5 16 -10 35 -10
19 0 35 -4 35 -10 0 -5 13 -10 28 -10 16 0 34 -8 42 -20 8 -12 26 -20 42 -20
15 0 28 -4 28 -10 0 -5 20 -10 45 -10 25 0 45 -4 45 -10 0 -5 11 -10 25 -10
14 0 25 -4 25 -10 0 -5 9 -10 20 -10 11 0 20 -4 20 -10 0 -5 11 -10 25 -10 14
0 25 -4 25 -10 0 -5 7 -10 16 -10 8 0 37 -22 64 -50 27 -27 53 -50 59 -50 6 0
11 -4 11 -10 0 -5 6 -10 13 -10 17 0 44 -56 52 -106 8 -50 25 -94 36 -94 4 0
11 -9 14 -20 4 -13 15 -20 31 -20 17 0 41 -16 74 -50 27 -27 53 -50 59 -50 6
0 11 -4 11 -10 0 -5 5 -10 11 -10 6 0 24 -13 39 -30 15 -16 35 -30 44 -30 9 0
16 -4 16 -10 0 -6 30 -10 70 -10 40 0 70 -4 70 -10 0 -5 25 -10 55 -10 30 0
55 -4 55 -10 0 -5 16 -10 35 -10 19 0 35 -4 35 -10 0 -5 14 -10 30 -10 17 0
30 -4 30 -10 0 -5 11 -10 25 -10 14 0 25 -4 25 -10 0 -5 16 -10 35 -10 19 0
35 -4 35 -10 0 -5 10 -10 21 -10 20 0 59 -33 59 -50 0 -12 37 -50 49 -50 6 0
11 -4 11 -10 0 -5 7 -10 15 -10 8 0 15 5 15 10 0 6 20 10 45 10 25 0 45 5 45
10 0 6 7 10 15 10 8 0 15 5 15 10 0 6 7 10 15 10 8 0 15 5 15 10 0 6 7 10 16
10 28 0 72 59 93 125 20 65 39 95 60 95 6 0 11 5 11 10 0 6 11 10 25 10 14 0
25 5 25 10 0 6 9 10 20 10 11 0 20 5 20 10 0 6 7 10 15 10 8 0 15 5 15 10 0 6
35 10 85 10 50 0 85 4 85 10 0 6 7 10 15 10 8 0 15 5 15 10 0 6 6 10 13 10 7
0 19 9 27 20 8 11 22 20 32 20 10 0 18 5 18 10 0 6 6 10 13 10 7 0 19 9 27 20
8 11 24 20 36 20 27 0 36 21 28 68 -3 23 1 54 11 82 9 25 21 61 26 80 18 64
31 90 45 90 8 0 14 5 14 10 0 6 6 10 13 10 7 0 19 9 27 21 8 11 23 30 33 41
24 29 21 46 -12 77 -16 15 -48 65 -71 111 -23 46 -55 96 -70 110 -15 14 -35
41 -45 60 -10 19 -23 39 -29 46 -6 6 -18 21 -26 33 -8 11 -20 21 -27 21 -7 0
-13 4 -13 9 0 13 -56 71 -69 71 -6 0 -11 5 -11 10 0 6 -8 10 -18 10 -10 0 -24
9 -32 21 -8 11 -23 30 -32 41 -10 12 -18 25 -18 30 0 4 -7 8 -15 8 -8 0 -15 5
-15 10 0 6 -11 10 -25 10 -14 0 -25 5 -25 10 0 6 -9 10 -20 10 -11 0 -20 5
-20 10 0 6 -11 10 -25 10 -14 0 -25 5 -25 10 0 6 -5 10 -10 10 -19 0 -61 50
-71 82 -14 50 -9 184 12 312 26 156 42 186 99 186 57 0 62 15 49 137 -12 103
-11 110 9 150 12 23 22 47 22 53 0 23 -30 40 -69 40 -23 0 -41 5 -41 10 0 6
-16 10 -35 10 -19 0 -35 5 -35 10 0 6 -27 10 -60 10 -33 0 -60 4 -60 10 0 6
-7 10 -15 10 -20 0 -19 -60 0 -115 24 -66 18 -145 -11 -145 -8 0 -14 -4 -14
-10 0 -5 -13 -10 -30 -10 -16 0 -30 -4 -30 -10 0 -5 -5 -10 -11 -10 -13 0 -49
-38 -49 -52 0 -4 -7 -8 -15 -8 -8 0 -15 -4 -15 -10 0 -5 -9 -10 -20 -10 -11 0
-20 -4 -20 -10 0 -5 -5 -10 -11 -10 -6 0 -24 -13 -39 -30 -15 -16 -33 -30 -39
-30 -6 0 -11 -4 -11 -10 0 -5 -9 -10 -20 -10 -11 0 -20 -4 -20 -10 0 -5 -11
-10 -24 -10 -16 0 -27 -7 -31 -20 -3 -11 -13 -20 -21 -20 -8 0 -14 -4 -14 -10
0 -5 -13 -10 -30 -10 -16 0 -30 -4 -30 -10 0 -5 -7 -10 -15 -10 -8 0 -15 5
-15 10 0 6 -7 10 -16 10 -19 0 -50 33 -59 61 -4 11 -15 19 -26 19 -10 0 -19 5
-19 10 0 6 -7 10 -16 10 -16 0 -55 38 -84 80 -23 34 -67 80 -77 80 -5 0 -15
10 -23 21 -8 12 -41 48 -72 81 -32 32 -58 63 -58 69 0 5 -7 9 -15 9 -8 0 -15
5 -15 10 0 6 -7 10 -15 10 -8 0 -15 5 -15 10 0 6 -11 10 -25 10 -14 0 -25 5
-25 10 0 6 -9 10 -20 10 -11 0 -20 5 -20 10 0 6 -9 10 -20 10 -11 0 -20 5 -20
10 0 6 -5 10 -10 10 -16 0 -76 63 -95 100 -18 35 -59 80 -72 80 -5 0 -15 9
-23 20 -8 11 -20 20 -27 20 -7 0 -13 5 -13 10 0 6 -5 10 -11 10 -6 0 -32 23
-59 50 -27 28 -53 50 -59 50 -6 0 -11 5 -11 10 0 6 -5 10 -11 10 -9 0 -38 28
-77 75 -5 6 -18 27 -27 45 -18 34 -22 41 -67 91 -15 16 -30 39 -33 50 -4 10
-10 19 -14 19 -4 0 -18 22 -31 50 -13 27 -26 50 -30 50 -4 0 -12 11 -18 25 -7
14 -18 32 -24 41 -7 8 -24 28 -38 44 -14 16 -36 43 -50 60 -14 17 -35 42 -47
54 -34 37 -63 102 -63 141 0 44 -19 125 -34 143 -6 7 -27 30 -46 52 -58 65
-60 68 -60 89 0 25 31 91 43 91 15 0 38 29 48 62 6 18 11 72 12 119 2 78 5 88
29 112 15 15 32 27 38 27 5 0 10 5 10 10 0 6 6 10 13 10 8 0 22 19 33 42 10
23 29 52 41 64 12 12 38 54 58 95 20 40 42 78 48 84 7 7 19 22 27 34 8 11 25
21 37 21 13 0 23 5 23 10 0 6 7 10 15 10 8 0 15 5 15 10 0 6 5 10 10 10 16 0
96 83 114 118 8 16 18 49 22 73 4 24 15 60 25 81 29 58 49 120 49 158 0 19 7
64 16 100 32 138 35 179 19 258 -9 41 -13 84 -10 96 15 50 28 76 41 76 8 0 14
5 14 10 0 6 9 10 20 10 43 0 79 58 105 170 24 100 42 147 69 177 31 35 36 44
36 65 -1 13 -7 34 -15 48 -32 56 -9 186 40 236 14 14 25 29 25 34 0 5 20 29
44 54 24 24 51 58 60 74 28 54 17 242 -14 242 -4 0 -15 37 -25 83 -21 98 -43
170 -54 177 -17 11 -50 89 -61 146 -11 51 -10 65 5 104 24 66 36 129 28 159
-16 68 -103 211 -129 211 -3 0 -19 14 -34 30 -15 17 -33 30 -38 30 -6 0 -14 9
-17 20 -3 11 -10 20 -15 20 -5 0 -11 9 -15 19 -3 11 -18 34 -33 50 -15 17 -37
43 -50 58 -12 15 -31 39 -42 52 -11 13 -20 28 -20 32 0 4 -18 26 -40 49 -22
23 -40 46 -40 51 0 4 -20 28 -44 53 -24 24 -52 58 -61 76 -9 18 -27 43 -39 55
-11 12 -28 32 -36 44 -8 11 -20 21 -27 21 -7 0 -13 5 -13 10 0 6 -11 10 -25
10 -14 0 -25 5 -25 10 0 6 -13 10 -30 10 -16 0 -30 5 -30 10 0 6 -6 10 -13 10
-7 0 -19 9 -27 21 -8 11 -22 29 -30 39 -8 10 -22 28 -30 40 -8 13 -25 33 -37
45 -12 13 -25 39 -28 59 -7 36 -53 96 -74 96 -6 0 -11 5 -11 10 0 6 -9 10 -20
10 -11 0 -20 5 -20 10 0 6 -16 10 -35 10 -19 0 -35 5 -35 10 0 6 -7 10 -16 10
-8 0 -37 23 -64 50 -27 28 -53 50 -59 50 -6 0 -11 5 -11 10 0 6 -7 10 -15 10
-8 0 -15 5 -15 10 0 6 -9 10 -20 10 -11 0 -20 5 -20 10 0 6 -17 10 -38 10 -36
0 -40 3 -57 43 -31 75 -35 88 -35 108 0 11 -9 37 -20 58 -19 39 -29 63 -70
176 -32 89 -62 155 -72 155 -4 0 -8 7 -8 15 0 25 -23 65 -37 65 -7 0 -13 5
-13 10 0 6 -8 10 -19 10 -24 0 -37 33 -56 135 -7 44 -19 106 -25 137 -9 48 -8
62 6 89 14 27 14 38 4 69 -10 31 -10 42 5 70 14 26 16 50 12 104 -4 64 6 116
23 116 12 0 30 50 30 84 0 23 -9 44 -27 65 -62 69 -70 83 -73 131 -5 64 0 79
35 115 52 51 75 133 73 250 -2 80 1 100 22 144 13 28 29 51 37 51 7 0 13 5 13
10 0 6 9 10 20 10 11 0 20 5 20 10 0 6 7 10 15 10 8 0 15 -4 15 -10 0 -5 7
-10 15 -10 8 0 15 -4 15 -10 0 -5 5 -10 11 -10 6 0 32 -22 59 -50 49 -50 49
-50 114 -50 37 0 66 4 66 10 0 6 14 10 30 10 17 0 30 5 30 10 0 6 9 10 20 10
11 0 20 4 20 9 0 5 14 24 31 42 30 33 31 35 24 101 -8 81 -1 108 27 108 11 0
33 14 48 30 15 17 33 30 39 30 6 0 11 5 11 10 0 6 32 10 75 10 43 0 75 -4 75
-10 0 -5 5 -10 11 -10 12 0 49 -38 49 -50 0 -13 57 -70 69 -70 6 0 11 -4 11
-10 0 -5 20 -10 45 -10 25 0 45 -4 45 -10 0 -5 6 -10 13 -10 6 0 23 -14 37
-31 14 -17 39 -45 57 -64 17 -18 46 -61 63 -95 17 -34 42 -73 55 -86 13 -13
26 -33 30 -44 3 -11 13 -20 21 -20 8 0 14 -4 14 -10 0 -5 23 -10 50 -10 28 0
50 5 50 10 0 6 11 10 25 10 14 0 25 5 25 10 0 6 23 10 50 10 28 0 50 5 50 10
0 6 19 10 43 10 36 1 47 6 77 41 80 91 109 119 122 119 7 0 20 9 28 20 8 11
20 20 27 20 7 0 13 5 13 10 0 6 16 10 35 10 19 0 35 5 35 10 0 6 5 10 11 10 6
0 32 23 59 50 27 28 53 50 59 50 6 0 11 5 11 10 0 6 23 10 50 10 28 0 50 5 50
10 0 6 7 10 15 10 8 0 15 -4 15 -10 0 -5 16 -10 35 -10 19 0 35 -4 35 -10 0
-5 11 -10 25 -10 14 0 25 -4 25 -10 0 -5 7 -10 15 -10 8 0 15 -4 15 -10 0 -5
5 -10 11 -10 17 0 105 -95 119 -129 7 -17 16 -31 20 -31 6 0 20 -29 67 -140
24 -56 41 -112 48 -160 4 -25 18 -89 31 -144 37 -148 44 -190 54 -316 4 -64
13 -134 19 -156 12 -43 41 -84 60 -84 6 0 11 -4 11 -10 0 -5 11 -10 25 -10 14
0 25 -4 25 -10 0 -5 6 -10 13 -10 7 0 19 -10 27 -21 8 -12 20 -27 26 -33 17
-18 44 -73 44 -89 0 -18 34 -57 49 -57 6 0 11 -4 11 -10 0 -5 16 -10 36 -10
44 0 53 -9 99 -100 47 -92 54 -100 104 -100 23 0 41 -4 41 -10 0 -5 23 -10 50
-10 28 0 50 -4 50 -10 0 -5 20 -10 45 -10 25 0 45 5 45 10 0 6 9 10 19 10 11
0 22 6 24 13 4 9 6 9 6 0 1 -7 9 -13 19 -13 10 0 24 -9 32 -20 10 -14 26 -20
52 -20 21 0 38 -4 38 -10 0 -20 23 -9 60 30 21 22 43 40 49 40 27 0 20 80 -9
100 -14 10 -58 107 -65 143 -4 20 -11 37 -15 37 -18 0 -19 89 -1 138 21 55 38
226 26 261 -3 11 -11 21 -17 21 -14 0 -48 40 -48 57 0 31 -57 123 -76 123 -12
0 -44 43 -51 67 -3 14 -2 45 1 71 19 134 19 147 -5 193 -23 42 -24 51 -21 229
2 128 7 198 18 228 7 23 14 49 14 56 0 14 -33 56 -45 56 -9 0 -65 60 -65 70 0
4 -8 16 -17 28 -10 11 -25 30 -33 42 -8 13 -25 33 -37 45 -12 13 -43 65 -69
116 -26 52 -54 101 -64 109 -28 25 -48 72 -65 159 -22 105 -22 118 -1 349 21
234 51 342 95 342 6 0 11 5 11 10 0 6 12 10 26 10 35 0 51 19 56 66 3 21 8 46
12 55 7 17 -42 79 -63 79 -6 0 -11 5 -11 10 0 6 -20 10 -45 10 -25 0 -45 5
-45 10 0 6 -7 10 -15 10 -8 0 -15 5 -15 10 0 6 -5 10 -11 10 -12 0 -54 42 -79
80 -27 39 -47 60 -59 60 -6 0 -11 5 -11 10 0 6 -9 10 -20 10 -11 0 -20 -4 -20
-10 0 -5 -9 -10 -20 -10 -11 0 -20 -4 -20 -10 0 -5 -8 -10 -19 -10 -25 0 -36
-33 -55 -170 -9 -63 -25 -153 -36 -200 -39 -162 -39 -157 -19 -233 18 -70 18
-105 -2 -172 -4 -16 -11 -42 -13 -56 -9 -42 -66 -94 -66 -59 0 6 -8 10 -18 10
-10 0 -24 9 -32 20 -8 11 -20 20 -27 20 -7 0 -13 5 -13 10 0 6 -7 10 -15 10
-8 0 -15 5 -15 10 0 6 -7 10 -15 10 -8 0 -15 5 -15 10 0 6 -5 10 -11 10 -6 0
-24 14 -39 30 -15 17 -31 30 -35 30 -4 0 -20 14 -35 30 -15 17 -32 30 -37 30
-5 0 -15 9 -23 20 -8 11 -19 20 -25 20 -6 0 -17 10 -25 21 -8 12 -20 27 -26
33 -7 7 -26 41 -44 75 -29 58 -70 111 -86 111 -3 0 -19 14 -34 30 -15 17 -35
30 -44 30 -9 0 -16 5 -16 10 0 6 -37 10 -90 10 -53 0 -90 4 -90 10 0 6 -16 10
-35 10 -19 0 -35 -4 -35 -10 0 -5 -16 -10 -35 -10 -19 0 -35 -4 -35 -10 0 -5
-11 -10 -25 -10 -14 0 -25 5 -25 10 0 6 -7 10 -15 10 -8 0 -15 5 -15 10 0 6
-5 10 -11 10 -6 0 -24 14 -39 30 -15 17 -33 30 -39 30 -6 0 -11 5 -11 10 0 6
-9 10 -20 10 -11 0 -20 5 -20 10 0 6 -13 10 -30 10 -16 0 -30 5 -30 10 0 6
-25 10 -55 10 -30 0 -55 -4 -55 -10 0 -16 -22 -11 -40 10 -16 18 -33 55 -60
127 -14 37 -42 73 -58 73 -14 0 -22 25 -22 66 0 19 -11 69 -24 112 -22 67 -48
156 -76 257 -47 167 -99 768 -92 1065 2 101 9 148 34 245 17 66 34 156 38 200
4 44 13 142 20 218 12 126 12 145 -5 215 -10 42 -24 91 -31 107 -7 17 -24 116
-38 220 -20 146 -24 204 -17 250 4 33 7 105 5 160 -1 57 3 132 11 175 8 41 24
127 36 189 11 63 29 141 40 173 20 65 44 176 55 255 3 29 14 62 23 73 42 55
91 100 110 100 12 0 21 5 21 10 0 6 23 10 50 10 28 0 50 5 50 10 0 6 9 10 20
10 11 0 20 5 20 10 0 6 6 10 14 10 18 0 40 54 33 82 -3 13 -15 48 -27 78 -50
127 -50 140 6 365 59 236 96 335 126 335 10 0 18 5 18 10 0 6 7 10 15 10 8 0
15 -4 15 -10 0 -5 11 -10 25 -10 14 0 25 -4 25 -10 0 -5 7 -10 15 -10 8 0 15
-4 15 -10 0 -5 9 -10 20 -10 11 0 20 -4 20 -10 0 -5 6 -10 13 -10 7 0 19 -9
27 -20 11 -15 26 -20 62 -20 26 0 48 5 48 10 0 6 20 10 45 10 25 0 45 5 45 10
0 6 16 10 35 10 19 0 35 5 35 10 0 6 7 10 15 10 8 0 15 5 15 10 0 6 11 10 25
10 14 0 25 5 25 10 0 6 7 10 15 10 8 0 15 5 15 10 0 6 30 10 70 10 40 0 70 -4
70 -10 0 -5 5 -10 11 -10 13 0 49 -38 49 -52 0 -4 7 -8 15 -8 8 0 15 -4 15
-10 0 -5 19 -10 43 -10 31 0 46 -5 57 -20 19 -27 27 -25 60 10 15 17 32 30 37
30 5 0 15 9 23 20 8 11 25 20 37 20 13 0 23 5 23 10 0 6 7 10 15 10 8 0 15 5
15 10 0 6 14 10 30 10 17 0 30 5 30 10 0 6 14 10 30 10 17 0 30 -4 30 -10 0
-5 9 -10 21 -10 25 0 41 -15 64 -60 25 -49 39 -60 75 -60 42 0 60 20 60 69 0
41 17 91 31 91 4 0 17 31 29 70 13 41 33 82 51 101 16 17 31 41 34 53 25 126
41 173 69 202 6 6 18 22 26 34 8 12 26 35 40 50 38 44 60 73 60 82 0 4 25 8
55 8 30 0 55 -4 55 -10 0 -20 72 -11 91 12 46 52 44 22 39 1078 0 114 10 180
29 180 19 0 33 97 28 189 -5 96 -25 161 -62 197 -7 7 -15 37 -19 66 -17 126
-57 244 -96 278 -22 20 -56 86 -65 130 -4 19 -20 62 -35 95 -36 77 -54 125
-76 200 -10 33 -30 85 -45 115 -15 31 -36 100 -48 155 -24 111 -42 178 -66
245 -18 50 -27 121 -50 390 -15 189 -51 366 -89 438 -10 19 -26 60 -36 92 -25
78 -46 116 -83 154 -30 29 -46 60 -77 143 -16 42 -43 73 -64 73 -9 0 -16 5
-16 10 0 6 -7 10 -16 10 -9 0 -29 14 -44 30 -24 26 -35 30 -79 30 -28 0 -51 5
-51 10 0 6 -16 10 -36 10 -38 0 -74 -28 -74 -57 0 -16 -27 -71 -44 -89 -6 -6
-18 -21 -26 -33 -15 -21 -60 -30 -60 -11 0 6 -27 10 -60 10 -33 0 -60 4 -60
10 0 6 -7 10 -15 10 -8 0 -15 5 -15 10 0 6 -13 10 -28 10 -17 0 -33 8 -42 21
-30 43 -69 79 -85 79 -26 0 -46 26 -60 80 -7 27 -19 56 -27 64 -7 7 -20 24
-28 36 -28 42 -88 100 -104 100 -9 0 -16 5 -16 10 0 6 -13 10 -30 10 -16 0
-30 5 -30 10 0 6 -9 10 -19 10 -11 0 -22 6 -25 13 -5 10 -7 10 -12 0 -7 -15
-84 -18 -84 -3 0 6 -7 10 -15 10 -8 0 -15 5 -15 10 0 6 -7 10 -15 10 -8 0 -15
5 -15 10 0 6 -9 10 -20 10 -11 0 -20 5 -20 10 0 6 -7 10 -15 10 -8 0 -15 5
-15 10 0 6 -6 10 -13 10 -7 0 -19 9 -27 20 -8 11 -20 20 -27 20 -7 0 -13 5
-13 10 0 6 -8 10 -18 10 -10 0 -24 9 -32 20 -8 11 -20 20 -27 20 -7 0 -13 5
-13 10 0 6 -9 10 -20 10 -11 0 -20 4 -20 9 0 13 -56 71 -69 71 -6 0 -11 5 -11
10 0 6 -5 10 -11 10 -13 0 -90 81 -113 119 -5 7 -21 63 -37 124 -15 60 -32
113 -37 116 -5 3 -17 21 -27 40 -18 36 -59 81 -72 81 -5 0 -15 10 -23 21 -8
12 -25 32 -37 44 -11 12 -31 42 -43 66 -13 24 -26 46 -31 49 -4 3 -22 47 -38
98 -29 86 -64 142 -91 142 -5 0 -10 5 -10 10 0 6 -9 10 -20 10 -11 0 -20 5
-20 10 0 6 -6 10 -13 10 -13 0 -37 47 -68 129 -13 36 -100 131 -120 131 -12 0
-49 38 -49 50 0 7 -22 34 -80 97 -19 22 -36 54 -60 121 -7 17 -16 32 -20 32
-4 0 -13 14 -20 30 -7 17 -16 30 -21 30 -4 0 -11 9 -14 20 -3 11 -13 20 -21
20 -8 0 -14 5 -14 10 0 6 -7 10 -15 10 -8 0 -15 5 -15 10 0 6 -5 10 -10 10 -6
0 -32 21 -58 47 -53 53 -50 42 -71 321 -13 161 -22 201 -61 242 -17 18 -30 36
-30 40 0 5 -6 15 -14 23 -17 17 -125 229 -138 272 -5 17 -13 80 -18 140 -6 91
-5 115 7 140 9 17 19 32 23 35 32 22 40 136 15 205 -8 22 -14 74 -15 116 0 59
-4 81 -19 97 -10 12 -23 22 -30 22 -6 0 -11 5 -11 10 0 6 -7 10 -15 10 -8 0
-15 4 -15 9 0 5 -6 16 -13 23 -7 7 -21 39 -31 71 -10 31 -21 57 -25 57 -18 0
-31 50 -19 75 6 14 14 25 18 25 4 0 13 14 20 30 19 45 7 127 -28 197 -17 32
-35 82 -40 109 -6 27 -18 74 -27 104 -9 30 -26 95 -37 145 -11 49 -29 107 -39
127 -10 20 -19 57 -19 82 0 35 -6 50 -29 75 -16 17 -34 31 -40 31 -6 0 -11 5
-11 10 0 6 -11 10 -25 10 -14 0 -25 -4 -25 -10 0 -5 -25 -10 -55 -10 -30 0
-55 5 -55 10 0 6 -16 10 -35 10 -19 0 -35 5 -35 10 0 6 -16 10 -35 10 -19 0
-35 5 -35 10 0 6 -5 10 -11 10 -6 0 -24 14 -39 30 -15 17 -33 30 -39 30 -6 0
-11 5 -11 10 0 6 -35 10 -86 10 l-86 0 -38 40 c-21 22 -43 40 -49 40 -6 0 -11
5 -11 10 0 6 -18 10 -40 10 -22 0 -40 5 -40 10 0 6 -11 10 -25 10 -14 0 -25
-4 -25 -10z"/>
<path fill="#ffffff" stroke="000000" stroke-width="0.01" d="M18650 23340 c0 -5 6 -10 13 -10 13 0
38 -47 52 -98 4 -13 4 -41 0 -62 -5 -30 -11 -40 -26 -40 -10 0 -19 -4 -19 -10
0 -5 -13 -10 -28 -10 -25 0 -32 8 -67 80 -40 83 -41 102 -3 145 15 16 78 20
78 5z"/>
<path fill="#ffffff" stroke="000000" stroke-width="0.01" d="M15960 15920 c0 -5 6 -10 13 -10 7 0
35 -46 62 -101 28 -56 58 -111 68 -122 27 -31 17 -136 -17 -170 -26 -26 -46
-76 -57 -149 -7 -40 -23 -94 -36 -120 -12 -26 -23 -54 -23 -63 0 -8 -4 -15 -8
-15 -5 0 -17 -18 -27 -40 -10 -22 -21 -40 -25 -40 -4 0 -15 -18 -25 -41 -55
-120 -145 -133 -132 -19 7 57 -5 108 -33 140 -11 12 -22 31 -25 41 -4 11 -10
19 -14 19 -11 0 -38 68 -46 115 -26 154 -1 385 42 385 7 0 13 5 13 10 0 6 9
10 21 10 12 0 34 14 49 30 15 17 35 30 44 30 9 0 16 5 16 10 0 6 9 10 20 10
11 0 20 5 20 10 0 6 7 10 15 10 8 0 15 4 15 9 0 11 52 70 63 71 4 0 7 -4 7
-10z"/>
<path fill="#ffffff" stroke="000000" stroke-width="0.01" d="M7661 13979 c0 -85 3 -148 6 -141 2 6
9 12 14 12 14 0 11 -78 -3 -83 -10 -4 -10 -8 1 -15 10 -7 12 -23 8 -57 -3 -30
-1 -42 4 -34 8 12 11 12 19 -1 6 -8 9 -26 9 -40 -4 -51 1 -90 11 -90 6 0 10
18 10 40 0 33 3 40 20 40 15 0 20 7 20 28 0 27 -20 70 -20 45 0 -7 -4 -13 -10
-13 -10 0 -11 41 -3 118 3 28 9 42 19 42 8 0 14 5 14 10 0 6 6 10 14 10 15 0
27 45 19 67 -8 21 -25 15 -18 -7 4 -11 2 -20 -4 -20 -6 0 -11 14 -11 30 0 20
5 30 15 30 8 0 15 3 15 6 0 3 -7 12 -15 20 -8 9 -15 30 -16 47 0 18 -3 26 -6
20 -10 -26 -21 -12 -27 37 -5 39 -11 50 -25 50 -20 0 -49 -52 -32 -58 6 -2 12
-27 12 -55 2 -49 2 -50 9 -17 7 31 7 29 7 -17 -1 -29 -5 -53 -9 -53 -4 0 -8 5
-8 10 0 6 -4 10 -9 10 -5 0 -7 -18 -4 -40 3 -22 1 -40 -4 -40 -5 0 -10 57 -11
127 -1 70 -5 129 -7 132 -3 2 -5 -65 -4 -150z"/>
<path fill="#ffffff" stroke="000000" stroke-width="0.01" d="M20462 9483 c-6 -16 -14 -48 -17 -73
-12 -80 -78 -260 -96 -260 -3 0 -12 -13 -19 -30 -7 -16 -16 -30 -21 -30 -5 0
-9 -7 -9 -15 0 -24 -49 -115 -76 -142 -13 -13 -24 -28 -24 -33 0 -6 -7 -10
-15 -10 -8 0 -15 -6 -15 -12 0 -53 -58 -148 -89 -148 -6 0 -11 -4 -11 -9 0 -5
-6 -16 -14 -23 -18 -19 -56 -94 -56 -112 0 -7 -13 -28 -29 -44 -19 -21 -30
-46 -34 -77 -4 -25 -14 -59 -22 -75 -14 -26 -14 -33 -1 -58 8 -15 12 -41 10
-57 -2 -17 -1 -21 2 -11 4 11 12 26 20 34 8 8 14 34 14 62 0 43 5 53 39 89 22
23 44 41 49 41 12 0 29 39 37 84 4 21 13 36 21 36 8 0 14 5 14 10 0 6 9 10 21
10 12 0 34 14 49 30 15 17 33 30 39 30 6 0 11 5 11 10 0 6 23 10 50 10 28 0
50 4 50 9 0 5 18 28 40 51 22 23 40 45 40 50 0 5 21 31 48 59 65 70 67 72 97
132 25 49 27 60 23 148 -3 78 -9 106 -30 146 -14 28 -28 69 -32 92 -7 45 -35
113 -47 113 -3 0 -11 -12 -17 -27z"/>
</g>
</svg>
