<?xml version="1.0" standalone="no"?>
<!DOCTYPE svg PUBLIC "-//W3C//DTD SVG 20010904//EN"
 "http://www.w3.org/TR/2001/REC-SVG-20010904/DTD/svg10.dtd">
<svg version="1.0" xmlns="http://www.w3.org/2000/svg"
 width="3506.000000pt" height="3950.000000pt" viewBox="0 0 3506.000000 3950.000000"
 preserveAspectRatio="xMidYMid meet">
<metadata>
Created by potrace 1.15, written by Peter Selinger 2001-2017
</metadata>
<g transform="translate(0.000000,3950.000000) scale(0.100000,-0.100000)"
fill="#ffffff" stroke="000000" stroke-width="0.01">
<path fill="#ffffff" stroke="000000" stroke-width="0.01" d="M663 39478 c3 -13 9 -45 13 -73 3 -27
11 -58 16 -67 5 -10 15 -77 24 -150 8 -73 19 -158 24 -188 6 -30 10 -188 11
-350 1 -305 3 -291 -42 -462 -5 -21 -15 -38 -20 -38 -6 0 -24 -13 -39 -30 -15
-16 -31 -30 -35 -30 -12 0 -64 -60 -70 -81 -4 -10 -10 -19 -15 -19 -5 0 -11
-9 -15 -20 -3 -11 -23 -38 -43 -60 -92 -99 -94 -105 -71 -210 10 -47 18 -101
19 -120 0 -19 13 -72 29 -116 22 -64 38 -91 74 -128 26 -26 47 -51 47 -56 0
-5 15 -25 34 -44 19 -19 49 -62 66 -96 17 -34 42 -73 55 -86 15 -15 26 -41 31
-71 3 -27 11 -57 17 -67 5 -11 15 -45 22 -75 21 -93 44 -164 53 -170 15 -10
40 -64 47 -104 4 -22 13 -37 21 -37 8 0 14 -4 14 -10 0 -5 7 -10 15 -10 8 0
15 -7 15 -15 0 -19 27 -74 46 -92 7 -7 23 -13 36 -13 13 0 30 -9 38 -20 8 -11
19 -20 24 -20 25 0 66 -81 66 -133 0 -10 8 -32 17 -50 10 -19 18 -59 19 -99 1
-40 7 -73 15 -81 8 -8 21 -24 29 -36 8 -11 20 -21 27 -21 7 0 13 -4 13 -10 0
-5 7 -10 15 -10 8 0 15 -4 15 -10 0 -5 7 -10 15 -10 8 0 15 -4 15 -10 0 -5 7
-10 15 -10 8 0 15 -4 15 -10 0 -5 7 -10 15 -10 8 0 15 -4 15 -10 0 -5 7 -10
15 -10 11 0 14 -7 9 -24 -5 -20 3 -33 40 -70 25 -26 48 -59 51 -74 4 -15 10
-46 16 -69 5 -23 9 -54 9 -68 0 -28 40 -75 63 -75 8 0 20 -13 27 -30 7 -16 16
-30 21 -30 4 0 10 -9 14 -19 7 -24 59 -81 72 -81 17 0 33 -51 40 -126 4 -52
10 -74 19 -74 8 0 14 -4 14 -10 0 -5 11 -10 25 -10 14 0 25 -4 25 -8 0 -11 35
-52 44 -52 20 0 106 -105 116 -140 11 -40 10 -44 -36 -188 -12 -36 -12 -45 -1
-57 8 -7 19 -28 26 -47 7 -18 19 -48 27 -66 8 -18 14 -44 14 -57 0 -20 5 -25
23 -25 18 0 28 -9 40 -37 17 -38 39 -126 52 -197 3 -21 12 -52 20 -70 42 -100
59 -136 66 -136 4 0 10 -27 14 -60 4 -33 13 -66 20 -73 46 -46 67 -222 39
-331 -23 -94 -34 -116 -57 -116 -25 0 -54 -33 -66 -76 -8 -31 -71 -104 -88
-104 -5 0 -15 -9 -23 -20 -8 -11 -20 -20 -26 -20 -7 0 -15 -6 -17 -12 -4 -10
-6 -10 -6 0 -1 14 -71 17 -71 2 0 -5 -13 -10 -30 -10 -16 0 -30 -4 -30 -10 0
-5 -9 -10 -20 -10 -11 0 -20 -4 -20 -10 0 -5 -9 -10 -20 -10 -11 0 -20 -4 -20
-10 0 -5 -7 -10 -15 -10 -8 0 -15 -4 -15 -10 0 -5 -7 -10 -15 -10 -8 0 -15 -4
-15 -10 0 -5 -11 -10 -25 -10 -14 0 -25 -4 -25 -10 0 -5 -18 -10 -40 -10 -22
0 -40 -4 -40 -10 0 -5 -13 -10 -30 -10 -16 0 -30 -4 -30 -10 0 -5 -25 -10 -55
-10 -30 0 -55 -4 -55 -10 0 -5 -11 -10 -25 -10 -14 0 -25 -4 -25 -10 0 -5 -7
-10 -15 -10 -8 0 -15 5 -15 10 0 6 -16 10 -35 10 -19 0 -35 5 -35 10 0 6 -28
10 -65 10 -37 0 -65 -4 -65 -10 0 -5 -7 -10 -16 -10 -19 0 -50 -33 -59 -61 -4
-11 -10 -19 -15 -19 -5 0 -11 -8 -15 -19 -8 -28 -40 -61 -58 -61 -8 0 -18 -6
-20 -12 -4 -10 -6 -10 -6 0 -1 14 -51 17 -51 2 0 -5 -11 -10 -25 -10 -14 0
-25 -4 -25 -10 0 -5 -14 -10 -31 -10 -22 0 -40 -9 -59 -30 -17 -18 -38 -30
-54 -30 -14 0 -26 -4 -26 -10 0 -6 -27 -10 -60 -10 -33 0 -60 -4 -60 -10 0 -5
-7 -10 -15 -10 -8 0 -15 -4 -15 -10 0 -5 -11 -10 -25 -10 -14 0 -25 -4 -25
-10 0 -5 -9 -10 -21 -10 -15 0 -19 -5 -15 -17 2 -10 8 -46 11 -80 l7 -63 35 0
c27 0 42 -8 64 -32 41 -46 45 -51 59 -78 15 -27 22 -36 73 -91 20 -22 40 -53
43 -67 14 -58 60 -132 82 -132 16 0 21 -26 27 -148 6 -104 4 -123 -15 -172
-11 -30 -32 -86 -45 -125 -23 -69 -29 -89 -65 -215 -10 -36 -31 -99 -46 -140
-14 -41 -32 -95 -40 -120 -7 -25 -31 -97 -54 -160 -23 -63 -45 -126 -49 -140
-12 -37 -91 -191 -105 -206 -7 -7 -19 -26 -26 -43 -7 -17 -16 -31 -20 -31 -4
0 -15 -18 -25 -40 -10 -22 -21 -40 -24 -40 -4 0 -13 -21 -20 -47 -20 -69 -43
-113 -58 -113 -7 0 -13 -4 -13 -10 0 -5 -6 -10 -13 -10 -7 0 -19 -9 -27 -21
-8 -12 -27 -34 -42 -51 -15 -16 -35 -56 -45 -89 -9 -32 -23 -59 -30 -59 -6 0
-15 -9 -18 -20 -3 -11 -10 -20 -15 -20 -5 0 -11 -8 -15 -19 -3 -10 -14 -28
-25 -40 -10 -12 -21 -39 -25 -60 -3 -21 -15 -44 -26 -51 -19 -14 -19 -124 -19
-9928 0 -8578 2 -9915 14 -9928 8 -8 19 -14 25 -14 6 0 11 -4 11 -10 0 -5 6
-10 13 -10 7 0 19 -9 27 -20 8 -11 20 -20 27 -20 7 0 13 -4 13 -10 0 -5 6 -10
13 -10 7 0 19 -9 27 -20 8 -11 18 -20 23 -20 16 0 56 -49 83 -101 14 -30 30
-56 34 -59 4 -3 18 -25 30 -50 12 -25 26 -47 31 -50 11 -7 89 -246 89 -271 0
-11 9 -38 21 -61 32 -62 59 -155 71 -243 8 -58 21 -101 50 -158 21 -43 37 -81
34 -85 -7 -12 -36 -177 -47 -267 -5 -44 -12 -88 -15 -97 -4 -15 1 -18 25 -18
17 0 31 -4 31 -10 0 -5 16 -10 35 -10 19 0 35 -4 35 -10 0 -5 14 -10 30 -10
17 0 30 -4 30 -10 0 -5 14 -10 30 -10 17 0 30 -4 30 -10 0 -5 20 -10 45 -10
25 0 45 5 45 10 0 6 9 10 20 10 11 0 20 5 20 10 0 6 9 10 20 10 11 0 20 5 20
10 0 6 9 10 20 10 11 0 20 5 20 10 0 6 11 10 24 10 13 0 26 5 28 12 2 6 10 -4
17 -23 7 -19 23 -58 37 -87 15 -34 24 -71 24 -104 0 -40 5 -55 22 -70 20 -17
22 -27 19 -97 -1 -44 -9 -103 -16 -132 -11 -40 -13 -88 -8 -192 5 -121 1 -242
-23 -604 -4 -60 -11 -88 -25 -105 -10 -13 -23 -28 -27 -34 -5 -5 -15 -21 -22
-34 -7 -13 -22 -34 -34 -46 -41 -45 -45 -53 -57 -118 -9 -52 -8 -90 2 -169 7
-56 12 -117 12 -136 -1 -33 32 -81 57 -81 5 0 10 -4 10 -10 0 -5 14 -10 30
-10 17 0 30 -4 30 -10 0 -5 10 -10 21 -10 20 0 59 -33 59 -50 0 -13 57 -70 69
-70 6 0 11 -4 11 -10 0 -5 7 -10 15 -10 8 0 15 -4 15 -10 0 -5 7 -10 15 -10 8
0 15 -4 15 -10 0 -5 7 -10 15 -10 8 0 15 -4 15 -10 0 -5 7 -10 15 -10 8 0 15
-4 15 -10 0 -5 7 -10 15 -10 8 0 15 -4 15 -10 0 -5 7 -10 15 -10 8 0 15 -4 15
-10 0 -5 7 -10 15 -10 8 0 15 -4 15 -10 0 -5 7 -10 15 -10 8 0 15 -4 15 -10 0
-5 5 -10 11 -10 24 0 39 -32 55 -116 20 -110 71 -319 86 -356 6 -16 14 -28 18
-28 4 0 13 -13 20 -30 7 -16 16 -30 20 -30 4 0 13 -13 20 -30 7 -16 16 -30 20
-30 4 0 12 -11 18 -25 7 -14 17 -31 22 -38 23 -27 46 -56 60 -77 8 -12 23 -31
33 -43 10 -11 20 -30 22 -41 7 -33 44 -236 51 -281 11 -74 25 -115 37 -115 7
0 19 -9 27 -20 8 -11 19 -20 25 -20 6 0 17 -9 25 -20 8 -11 20 -20 27 -20 7 0
13 -4 13 -10 0 -5 5 -10 11 -10 18 0 64 -55 82 -99 9 -23 24 -59 34 -81 9 -22
19 -40 23 -40 3 0 19 -27 35 -60 16 -33 32 -60 35 -60 15 0 30 -54 30 -108 0
-79 46 -475 58 -498 5 -11 12 -50 15 -88 4 -37 15 -94 26 -125 10 -31 42 -130
71 -221 62 -199 73 -227 157 -400 36 -74 69 -146 74 -160 4 -14 17 -49 28 -78
16 -43 23 -105 36 -310 9 -142 20 -267 25 -280 10 -22 3 -47 -22 -76 -40 -49
-48 -61 -53 -77 -4 -11 -10 -19 -14 -19 -5 0 -14 -14 -21 -30 -7 -17 -16 -30
-20 -30 -4 0 -12 -11 -18 -25 -7 -14 -17 -31 -22 -38 -39 -46 -50 -62 -55 -78
-4 -11 -10 -19 -15 -19 -5 0 -12 -9 -15 -20 -3 -11 -13 -27 -22 -35 -8 -9 -25
-56 -38 -104 -27 -106 -24 -102 -95 -181 -19 -22 -40 -46 -47 -54 -11 -13 -6
-46 24 -137 4 -16 -21 -78 -37 -89 -21 -14 -80 -156 -100 -240 -26 -107 -33
-124 -66 -157 -13 -13 -24 -28 -24 -33 0 -6 -8 -10 -18 -10 -49 0 -89 -173
-118 -514 -4 -44 -15 -101 -25 -128 l-17 -48 1510 0 1510 0 -7 49 c-6 48 2 78
29 107 6 6 18 22 26 34 8 12 22 30 30 40 8 10 22 28 30 40 8 12 22 30 30 40 8
10 22 28 30 40 8 12 20 28 26 34 31 33 67 125 72 183 5 61 -10 123 -29 123
-13 0 -11 34 5 99 7 31 19 84 26 119 11 55 15 62 36 62 13 0 24 -4 24 -10 0
-5 7 -10 15 -10 8 0 15 -4 15 -10 0 -5 7 -10 15 -10 8 0 15 -4 15 -10 0 -5 9
-10 20 -10 11 0 20 -4 20 -10 0 -5 7 -10 15 -10 8 0 15 -4 15 -10 0 -5 18 -10
40 -10 22 0 40 5 40 10 0 6 9 10 20 10 11 0 20 5 20 10 0 6 5 10 11 10 6 0 28
18 49 40 21 22 42 40 47 40 5 0 15 9 23 20 8 11 19 20 25 20 6 0 17 9 25 20 8
11 20 20 27 20 19 0 22 28 28 250 3 113 6 221 7 240 2 19 -1 70 -5 113 -7 66
-6 77 8 77 8 0 15 5 15 10 0 6 7 10 16 10 53 0 62 115 15 208 -23 46 -30 76
-35 154 -7 95 -6 98 13 98 12 0 21 5 21 10 0 6 7 10 16 10 42 0 67 85 60 205
-3 44 -5 92 -5 106 -1 14 -10 36 -21 49 -12 14 -18 31 -15 44 3 11 -4 46 -16
76 -11 30 -25 70 -30 87 -6 18 -16 33 -24 33 -8 0 -15 5 -15 10 0 6 -7 10 -15
10 -8 0 -15 5 -15 10 0 6 -7 10 -15 10 -8 0 -15 5 -15 10 0 6 -7 10 -15 10 -8
0 -15 5 -15 10 0 6 -5 10 -10 10 -19 0 -58 46 -86 101 -14 30 -30 56 -34 59
-4 3 -20 30 -35 60 -15 30 -31 57 -35 60 -4 3 -20 30 -35 60 -15 30 -31 57
-35 60 -4 3 -18 25 -30 50 -12 25 -26 47 -30 50 -4 3 -15 21 -25 40 -10 19
-21 37 -25 40 -4 3 -15 21 -25 40 -10 18 -23 40 -31 47 -15 15 -54 17 -54 3 0
-5 -11 -10 -25 -10 -14 0 -25 -4 -25 -10 0 -5 -9 -10 -20 -10 -11 0 -20 -4
-20 -10 0 -5 -9 -10 -20 -10 -11 0 -20 -4 -20 -10 0 -5 -9 -10 -20 -10 -11 0
-20 -4 -20 -10 0 -5 -9 -10 -20 -10 -11 0 -20 -4 -20 -10 0 -5 -9 -10 -20 -10
-11 0 -20 -4 -20 -10 0 -5 -7 -10 -15 -10 -11 0 -14 7 -10 23 2 12 12 60 20
107 9 47 18 95 21 108 2 12 0 22 -6 22 -5 0 -10 -4 -10 -10 0 -5 -6 -10 -13
-10 -7 0 -19 -9 -27 -20 -8 -11 -20 -20 -27 -20 -7 0 -13 -4 -13 -10 0 -5 -18
-10 -40 -10 -22 0 -40 5 -40 10 0 6 -13 10 -30 10 -16 0 -30 5 -30 10 0 6 -7
10 -15 10 -19 0 -19 14 -1 32 7 8 21 29 31 48 10 19 24 40 31 48 8 7 14 17 14
21 0 12 -31 49 -110 131 -125 131 -130 138 -130 181 0 38 -1 39 -35 39 -19 0
-35 -4 -35 -10 0 -6 -55 -10 -146 -10 l-147 0 5 -230 c4 -217 3 -230 -14 -230
-10 0 -18 -4 -18 -10 0 -5 -13 -10 -29 -10 -21 0 -32 6 -36 20 -6 20 -78 100
-90 100 -3 0 -28 23 -55 50 -27 28 -51 50 -55 50 -14 0 -165 163 -171 185 -3
13 2 58 12 100 l18 75 138 0 c85 0 138 -4 138 -10 0 -5 19 -10 43 -10 l43 0
33 138 c19 75 40 150 48 165 8 16 11 32 7 35 -4 4 -9 1 -11 -5 -3 -7 -15 -13
-29 -13 -26 0 -29 8 -39 108 -9 88 -11 92 -56 92 -21 0 -39 5 -39 10 0 6 -16
10 -35 10 -19 0 -35 2 -35 5 0 3 18 40 39 83 39 77 65 192 43 192 -5 0 -15 14
-22 30 -15 35 -63 90 -79 90 -6 0 -11 5 -11 10 0 6 -9 10 -20 10 -18 0 -20 7
-20 58 0 45 -5 65 -20 82 -11 13 -20 27 -20 31 0 4 -6 14 -14 21 -21 21 -62
108 -71 148 -9 40 -41 107 -61 128 -8 7 -14 17 -14 21 0 7 -9 20 -49 67 -5 6
-19 30 -30 52 -20 39 -20 44 -6 84 12 36 13 60 4 150 -13 125 -7 138 60 138
35 0 41 3 47 25 7 29 5 38 -27 115 -24 58 -26 90 -14 227 6 64 4 85 -6 96 -8
8 -21 25 -29 37 -8 12 -23 31 -33 42 -9 12 -17 24 -17 28 0 13 -37 50 -50 50
-15 0 -10 51 14 157 16 71 13 102 -13 123 -15 12 -71 213 -85 305 -13 87 -13
109 -1 170 61 304 85 474 85 592 0 76 3 93 15 93 8 0 15 5 15 10 0 6 9 10 20
10 24 0 24 8 5 80 -8 30 -15 57 -14 60 0 13 38 -67 39 -82 0 -35 17 -17 55 62
21 44 43 80 47 80 4 0 8 5 8 10 0 6 -9 10 -19 10 -11 0 -23 9 -26 20 -5 17
-15 20 -71 20 -36 0 -64 4 -64 10 0 6 -18 10 -40 10 -22 0 -40 5 -40 10 0 6
-10 10 -23 10 -12 0 -29 9 -37 21 -8 12 -26 34 -40 50 -14 15 -36 42 -50 59
-14 17 -36 44 -50 59 -14 16 -32 39 -40 51 -13 20 -33 46 -58 76 -5 5 -15 21
-22 33 -12 23 -31 44 -146 164 l-51 54 -11 100 c-10 93 -15 108 -72 224 -35
68 -66 126 -70 129 -10 7 -50 87 -50 100 0 6 -6 17 -12 24 -7 8 -20 24 -28 36
-8 12 -26 35 -40 50 -27 31 -46 55 -70 90 -8 12 -26 35 -40 50 -14 15 -32 38
-40 50 -8 12 -26 35 -40 50 -14 15 -32 38 -40 50 -8 12 -22 30 -31 40 -8 11
-24 37 -34 60 -10 22 -21 40 -25 40 -4 0 -17 23 -30 50 -13 28 -27 50 -30 50
-4 0 -13 14 -20 30 -7 17 -16 30 -20 30 -17 0 -31 56 -25 104 4 29 0 102 -9
166 -8 63 -22 166 -30 228 l-16 113 26 51 c14 29 31 57 38 64 27 32 35 44 56
85 13 24 26 46 30 49 4 3 22 34 40 70 18 36 36 67 40 70 4 3 20 30 35 60 15
30 31 57 35 60 4 3 17 25 30 50 21 40 23 62 29 265 6 220 3 245 -28 245 -6 0
-11 5 -11 10 0 6 -7 10 -15 10 -8 0 -15 5 -15 10 0 6 -11 10 -25 10 -14 0 -25
5 -25 10 0 6 -11 10 -25 10 -14 0 -25 5 -25 10 0 6 -11 10 -25 10 -14 0 -25 5
-25 12 0 7 -8 2 -17 -11 -10 -13 -28 -33 -40 -46 -13 -13 -23 -29 -23 -34 0
-6 -10 -31 -22 -56 -22 -45 -22 -45 -75 -45 -29 0 -53 -4 -53 -10 0 -5 -25
-10 -55 -10 -30 0 -55 -4 -55 -10 0 -5 -22 -10 -49 -10 -30 0 -51 -5 -54 -12
-4 -13 -25 6 -57 52 -8 12 -22 30 -30 40 -8 10 -22 28 -30 40 -8 12 -22 30
-30 40 -8 10 -22 28 -30 40 -8 12 -26 35 -40 50 -14 15 -32 38 -40 50 -14 21
-23 32 -70 90 -47 58 -56 69 -70 90 -8 13 -24 33 -36 45 -12 12 -24 42 -28 71
-4 27 -14 81 -21 119 -7 39 -21 108 -29 155 -25 131 -25 130 -46 130 -11 0
-20 5 -20 10 0 6 -7 10 -15 10 -8 0 -15 5 -15 10 0 6 -9 10 -20 10 -11 0 -20
5 -20 10 0 6 -8 10 -18 10 -10 0 -24 9 -32 21 -8 11 -22 29 -31 39 -8 11 -24
37 -34 60 -10 22 -21 40 -25 40 -4 0 -13 14 -20 30 -7 17 -16 30 -20 30 -4 0
-13 14 -20 30 -7 17 -16 30 -20 30 -4 0 -15 18 -25 40 -10 22 -21 40 -25 40
-3 0 -14 16 -23 35 -17 35 -16 36 5 59 13 13 30 33 38 46 8 12 22 30 30 40 38
48 50 65 50 72 0 13 48 9 53 -4 4 -10 6 -10 6 0 1 6 8 12 16 12 8 0 15 5 15
10 0 6 9 10 20 10 11 0 20 5 20 10 0 6 7 10 15 10 8 0 15 5 15 10 0 6 6 10 13
10 8 0 22 19 32 43 9 23 24 59 33 80 8 21 24 47 34 59 10 12 18 29 18 39 0 10
32 51 70 91 102 106 106 111 114 141 3 15 10 27 15 27 5 0 14 15 21 33 6 17
29 70 50 117 21 47 46 104 56 128 9 23 22 42 27 42 6 0 8 27 4 72 -4 51 -1 91
10 137 16 61 48 111 73 111 5 0 10 5 10 10 0 6 5 10 11 10 6 0 24 14 39 30 15
17 32 30 37 30 5 0 15 9 23 20 8 11 19 20 25 20 6 0 17 9 25 21 8 12 27 35 43
53 15 17 31 36 37 43 17 20 49 96 60 141 6 24 17 42 25 42 7 0 16 9 20 20 8
26 80 100 97 100 7 0 20 9 28 21 8 11 22 29 30 39 8 10 22 28 30 39 8 12 20
21 27 21 7 0 13 5 13 10 0 6 6 10 13 10 9 0 17 25 25 72 10 64 8 83 -10 155
l-20 82 21 23 c26 28 67 77 101 118 54 67 180 190 195 190 8 0 15 5 15 10 0 6
9 10 20 10 11 0 20 5 20 10 0 6 7 10 15 10 8 0 15 5 15 12 0 11 23 -12 50 -52
32 -47 48 -60 74 -60 14 0 26 -4 26 -10 0 -5 23 -10 50 -10 54 0 58 -3 35 -26
-15 -16 -20 -69 -9 -98 7 -17 44 -22 44 -6 0 6 11 10 24 10 33 0 40 27 27 103
-6 34 -13 83 -17 110 -3 32 -10 47 -20 47 -8 0 -14 4 -14 9 0 19 -99 111 -119
111 -12 0 -21 5 -21 10 0 6 -13 10 -30 10 -16 0 -30 5 -30 10 0 6 -9 10 -20
10 -13 0 -52 32 -100 80 -60 61 -82 90 -90 123 -7 23 -19 64 -27 90 -14 44
-14 51 1 87 9 22 23 59 32 83 9 23 22 57 30 75 8 18 14 39 14 46 0 14 33 56
44 56 13 0 95 89 111 121 10 18 24 39 31 47 8 7 14 17 14 22 0 4 14 23 30 41
42 47 46 52 60 79 17 31 23 38 102 120 37 39 71 70 75 70 5 0 15 9 23 20 11
15 26 20 62 20 26 0 48 5 48 10 0 6 27 10 60 10 33 0 60 4 60 10 0 6 20 10 44
10 36 0 46 4 51 20 3 11 10 20 14 20 5 0 14 14 21 30 9 21 19 30 36 30 13 0
24 5 24 10 0 6 18 10 40 10 22 0 40 5 40 10 0 6 9 10 20 10 11 0 20 5 20 10 0
6 11 10 25 10 14 0 25 5 25 10 0 6 9 10 20 10 11 0 20 5 20 10 0 6 9 10 20 10
11 0 20 5 20 10 0 6 14 10 30 10 17 0 30 5 30 10 0 6 14 10 30 10 17 0 30 5
30 10 0 6 7 10 15 10 8 0 15 5 15 10 0 6 7 10 15 10 8 0 15 5 15 10 0 6 47 10
120 10 73 0 120 -4 120 -10 0 -6 45 -10 115 -10 70 0 115 4 115 10 0 6 28 10
65 10 37 0 65 4 65 10 0 6 7 10 15 10 8 0 15 5 15 10 0 6 6 10 13 10 7 0 19 9
27 20 8 11 20 20 27 20 7 0 13 5 13 10 0 6 7 10 15 10 8 0 15 5 15 10 0 6 9
10 20 10 11 0 20 5 20 10 0 6 18 10 40 10 22 0 40 5 40 10 0 6 11 10 25 10 16
0 25 6 25 16 0 25 -26 44 -59 44 -17 0 -31 5 -31 10 0 6 -18 10 -40 10 -22 0
-40 5 -40 10 0 6 -22 10 -50 10 -27 0 -50 -4 -50 -10 0 -5 -9 -10 -20 -10 -11
0 -20 -4 -20 -10 0 -5 -9 -10 -20 -10 -11 0 -20 5 -20 10 0 6 -6 10 -13 10 -7
0 -19 9 -27 20 -8 11 -20 20 -27 20 -7 0 -13 5 -13 10 0 6 -9 10 -20 10 -11 0
-20 5 -20 10 0 6 -7 10 -15 10 -8 0 -15 5 -15 10 0 6 -11 10 -25 10 -14 0 -25
5 -25 10 0 6 -9 10 -20 10 -11 0 -20 5 -20 10 0 6 -11 10 -25 10 -14 0 -25 5
-25 10 0 6 -7 10 -15 10 -11 0 -15 12 -15 45 0 61 -27 115 -57 115 -13 0 -23
5 -23 10 0 6 -19 10 -43 10 l-43 0 -17 -58 c-9 -32 -17 -76 -17 -97 0 -22 -8
-81 -17 -132 l-17 -93 -38 0 c-21 0 -38 5 -38 10 0 6 -5 10 -11 10 -17 0 -35
23 -69 90 -26 51 -31 71 -26 101 6 35 -9 89 -23 89 -4 0 -31 49 -61 110 -53
107 -55 110 -87 110 -18 0 -33 -4 -33 -10 0 -5 -7 -10 -15 -10 -8 0 -15 -4
-15 -10 0 -5 -7 -10 -15 -10 -8 0 -15 -4 -15 -10 0 -6 -28 -10 -65 -10 -37 0
-65 4 -65 10 0 6 -55 10 -145 10 -90 0 -145 4 -145 10 0 6 -13 10 -30 10 -16
0 -30 5 -30 10 0 6 -16 10 -35 10 -19 0 -35 5 -35 10 0 6 -13 10 -30 10 -16 0
-30 5 -30 10 0 6 -23 10 -50 10 -50 0 -52 -1 -130 -80 -44 -44 -84 -80 -90
-80 -5 0 -10 -4 -10 -10 0 -5 -11 -10 -25 -10 -14 0 -25 -4 -25 -10 0 -5 -11
-10 -25 -10 -14 0 -25 -4 -25 -10 0 -5 -11 -10 -25 -10 -14 0 -25 -4 -25 -10
0 -18 -35 -11 -50 10 -8 11 -19 20 -25 20 -6 0 -17 9 -25 20 -12 16 -26 20
-72 20 -32 0 -58 4 -58 10 0 6 -28 10 -65 10 -37 0 -65 4 -65 10 0 6 -16 10
-35 10 -19 0 -35 4 -35 8 0 9 -26 44 -57 77 -13 13 -23 29 -23 35 0 6 27 65
61 132 l61 122 -7 143 c-4 86 -11 143 -17 143 -6 0 -8 12 -5 28 36 165 57 273
57 302 0 19 7 60 16 90 19 69 54 194 54 198 0 1 -7 2 -15 2 -8 0 -15 5 -15 10
0 6 -6 10 -13 10 -7 0 -19 9 -27 20 -8 11 -22 20 -32 20 -10 0 -18 5 -18 10 0
6 -5 10 -11 10 -13 0 -49 -38 -49 -52 0 -4 -29 -8 -65 -8 -37 0 -65 4 -65 10
0 6 -11 10 -25 10 -14 0 -25 4 -25 8 0 5 -9 20 -20 33 -20 25 -47 58 -78 96
-9 11 -24 31 -32 43 -8 12 -20 28 -26 34 -17 18 -64 113 -64 130 0 8 7 21 15
30 14 14 14 20 -6 58 -12 24 -25 45 -29 48 -4 3 -20 29 -35 59 -15 30 -33 61
-41 69 -8 7 -14 17 -14 22 0 10 -55 70 -64 70 -8 0 -131 126 -166 170 -14 17
-39 46 -57 65 -17 18 -41 52 -54 76 -12 24 -25 46 -29 49 -4 3 -17 25 -30 49
-12 25 -27 50 -34 57 -6 7 -22 27 -36 44 -14 17 -35 41 -46 54 -13 14 -28 54
-39 102 -9 43 -23 99 -30 124 -8 25 -23 110 -35 190 -12 80 -32 177 -45 215
-48 144 -67 266 -63 408 2 110 0 143 -17 195 -14 45 -24 62 -37 62 -10 0 -18
5 -18 10 0 6 -7 10 -15 10 -8 0 -15 5 -15 10 0 6 -9 10 -20 10 -11 0 -20 4
-20 9 0 5 -6 16 -14 23 -40 41 -83 158 -96 261 -5 43 -15 84 -22 91 -8 7 -22
33 -32 57 -42 101 -60 139 -66 139 -3 0 -12 21 -19 48 -8 26 -24 79 -37 117
-42 130 -43 141 -29 196 15 55 6 79 -29 79 -9 0 -16 7 -16 15 0 9 -17 50 -39
93 -35 71 -53 133 -96 332 -34 157 -68 296 -78 315 -6 11 -18 27 -27 35 -9 8
-25 31 -35 50 -10 19 -21 37 -25 40 -4 3 -21 33 -38 66 -34 68 -34 58 8 204
10 36 24 84 30 108 6 25 17 42 25 42 8 0 15 -4 15 -10 0 -16 37 -12 44 5 3 9
-6 49 -19 90 -24 70 -25 85 -25 301 0 373 14 528 65 729 91 356 100 385 117
385 19 0 38 31 118 191 46 90 86 166 90 169 4 3 18 25 30 50 12 25 26 47 30
50 10 7 70 127 70 140 0 6 6 17 13 24 6 8 19 24 27 36 8 12 27 35 41 51 21 23
28 45 38 121 7 51 16 104 21 118 4 14 27 86 50 160 24 74 53 168 66 208 13 40
24 77 24 82 0 13 227 240 240 240 5 0 10 5 10 10 0 6 9 10 20 10 11 0 20 5 20
10 0 6 11 10 25 10 14 0 25 5 25 10 0 6 11 10 25 10 14 0 25 5 25 10 0 6 11
10 25 10 14 0 25 4 25 9 0 5 18 29 40 53 55 59 165 183 228 255 17 21 46 53
62 72 17 18 30 37 30 41 0 5 6 15 14 23 8 7 31 47 51 87 20 40 43 80 51 87 8
8 14 19 14 24 0 5 7 9 15 9 8 0 15 5 15 10 0 6 7 10 15 10 8 0 15 5 15 10 0 6
7 10 15 10 8 0 15 5 15 10 0 6 7 10 15 10 8 0 15 5 15 10 0 6 7 10 15 10 8 0
15 5 15 10 0 6 5 10 11 10 6 0 24 14 39 30 15 17 32 30 37 30 5 0 15 9 23 20
8 11 19 20 25 20 6 0 17 9 25 20 8 11 19 20 25 20 6 0 17 9 25 20 8 11 19 20
25 20 6 0 17 9 25 20 8 11 19 20 25 20 6 0 35 50 65 110 30 61 58 110 61 110
4 0 10 8 14 19 12 40 41 61 84 61 22 0 41 5 41 10 0 6 20 10 45 10 25 0 45 5
45 10 0 6 18 10 40 10 22 0 40 5 40 10 0 6 20 10 45 10 25 0 45 5 45 10 0 6
20 10 45 10 25 0 45 5 45 10 0 6 18 10 40 10 22 0 40 5 40 10 0 6 11 10 25 10
14 0 25 5 25 10 0 6 9 10 20 10 11 0 20 5 20 10 0 6 11 10 25 10 14 0 25 5 25
10 0 6 8 10 19 10 15 0 20 10 26 57 11 86 87 223 124 223 6 0 15 19 21 43 6
23 15 57 20 74 10 38 32 63 54 63 21 0 20 14 -4 80 -25 67 -20 100 15 100 14
0 25 5 25 10 0 6 11 10 23 10 18 0 28 -10 42 -40 14 -30 24 -40 42 -40 12 0
23 -4 23 -10 0 -5 9 -10 19 -10 11 0 22 -6 25 -12 5 -10 7 -10 12 0 3 6 12 12
20 12 20 0 64 45 64 65 0 10 9 15 28 15 16 0 34 8 42 20 8 11 18 20 23 20 5 0
22 14 37 30 15 17 32 30 37 30 5 0 15 9 23 20 8 11 22 20 32 20 10 0 18 5 18
10 0 6 11 10 25 10 14 0 25 5 25 10 0 6 18 10 40 10 22 0 40 5 40 10 0 6 24
10 54 10 40 0 55 4 60 16 3 9 3 20 0 26 -15 23 -12 152 4 185 9 18 19 33 22
33 4 0 15 18 25 40 10 22 21 40 25 40 4 0 15 18 25 40 14 30 24 40 42 40 39 0
133 113 133 160 0 6 11 22 25 36 14 14 25 29 25 34 0 6 7 10 15 10 8 0 15 -4
15 -10 0 -5 7 -10 15 -10 8 0 15 -6 15 -12 1 -7 8 1 17 17 9 17 19 32 23 35
21 15 30 50 18 74 -8 20 -8 32 0 51 16 34 15 35 -8 35 -11 0 -20 5 -20 10 0 6
-9 10 -20 10 -11 0 -20 -4 -20 -10 0 -5 -7 -10 -15 -10 -8 0 -15 -4 -15 -10 0
-5 -11 -10 -25 -10 -14 0 -25 5 -25 10 0 6 -9 10 -20 10 -11 0 -20 5 -20 10 0
6 -9 10 -20 10 -11 0 -20 5 -20 10 0 6 -7 10 -15 10 -8 0 -15 5 -15 10 0 6
-10 10 -21 10 -18 0 -21 4 -16 28 4 15 14 61 23 102 34 161 39 205 46 485 3
118 -3 145 -31 145 -6 0 -11 5 -11 10 0 6 -6 10 -13 10 -7 0 -19 9 -27 20 -8
11 -20 20 -27 20 -7 0 -13 5 -13 10 0 6 -5 10 -11 10 -13 0 -49 38 -49 52 0 4
7 8 15 8 8 0 15 5 15 10 0 6 14 10 30 10 17 0 30 5 30 10 0 6 11 10 25 10 14
0 25 5 25 10 0 6 11 10 25 10 14 0 25 5 25 10 0 6 11 10 25 10 14 0 25 5 25
10 0 6 6 10 14 10 8 0 17 8 21 19 6 21 39 61 50 61 4 0 20 14 35 30 15 17 32
30 37 30 12 0 68 116 78 159 4 19 13 40 20 47 16 16 29 108 15 112 -19 7 -11
78 11 103 18 20 20 31 14 69 -10 57 -9 96 4 140 5 19 14 85 19 145 6 61 15
130 20 155 6 25 13 108 17 185 6 132 5 142 -14 165 -11 14 -30 36 -41 50 -11
14 -29 36 -40 49 -25 30 -25 41 -1 41 34 0 41 45 12 78 -24 29 -58 28 -67 0
-6 -19 -8 -17 -20 18 -43 129 -46 163 -39 354 4 108 13 202 20 225 8 22 25 87
40 145 14 58 35 126 47 153 18 40 26 47 49 47 19 0 30 6 34 20 3 11 12 26 19
32 9 10 10 33 3 98 -13 124 -15 140 -16 197 -1 31 -7 58 -16 67 -8 8 -15 19
-15 25 0 17 -43 101 -52 101 -4 0 -8 7 -8 15 0 9 -16 47 -35 85 -21 42 -35 84
-35 107 0 21 -7 56 -15 78 -10 29 -12 63 -8 121 3 44 0 148 -7 231 -11 134
-10 153 4 181 21 40 20 54 -3 81 -13 15 -21 45 -26 99 -4 42 -17 109 -30 147
-65 200 -83 275 -66 275 18 0 13 26 -18 92 -17 35 -36 83 -44 108 -8 25 -22
63 -30 86 -9 23 -23 83 -32 134 -9 51 -25 110 -36 131 -23 45 -24 114 -7 269
21 195 -11 390 -76 455 -31 31 -30 28 -10 67 14 26 14 41 4 112 -7 44 -14 153
-16 241 -3 88 -5 171 -6 185 0 14 8 49 20 78 11 28 23 85 27 126 7 70 6 74
-19 99 -31 31 -32 37 -6 37 11 0 20 5 20 10 0 6 -18 10 -40 10 -22 0 -40 -4
-40 -10 0 -5 -11 -10 -25 -10 -14 0 -25 -4 -25 -10 0 -5 -11 -10 -25 -10 -14
0 -25 -4 -25 -10 0 -5 -7 -10 -15 -10 -8 0 -15 -4 -15 -10 0 -5 -9 -10 -20
-10 -11 0 -20 -4 -20 -10 0 -5 -7 -10 -15 -10 -8 0 -15 -4 -15 -10 0 -5 -9
-10 -19 -10 -11 0 -22 -6 -24 -12 -4 -10 -8 -9 -17 2 -9 11 -13 12 -17 3 -2
-7 -13 -13 -23 -13 -10 0 -21 6 -23 13 -8 18 -24 -8 -32 -52 -6 -34 -140 -311
-155 -321 -4 -3 -24 -38 -45 -79 -20 -41 -42 -80 -49 -86 -6 -7 -20 -31 -30
-54 -11 -22 -25 -41 -33 -41 -7 0 -13 -4 -13 -10 0 -5 -13 -10 -30 -10 -16 0
-30 -4 -30 -10 0 -5 -6 -10 -14 -10 -8 0 -17 -6 -19 -12 -4 -10 -8 -9 -16 2
-6 8 -16 23 -23 34 -7 10 -18 24 -24 30 -6 6 -15 20 -22 31 -6 11 -12 14 -12
8 0 -15 -30 -18 -30 -4 0 5 -13 23 -30 41 -17 18 -30 36 -30 41 0 5 -7 9 -16
9 -8 0 -21 6 -29 13 -22 23 -55 95 -55 122 0 22 -4 25 -35 25 -19 0 -35 4 -35
9 0 5 -7 17 -16 26 -20 20 -44 107 -44 163 0 38 -2 42 -25 42 -23 0 -25 3 -19
28 11 44 73 162 100 189 13 13 24 28 24 33 0 6 7 10 16 10 9 0 29 14 44 30 15
17 37 30 49 30 12 0 21 5 21 10 0 6 11 10 25 10 14 0 25 5 25 10 0 6 9 10 20
10 11 0 20 5 20 10 0 6 7 10 15 10 8 0 15 5 15 10 0 6 27 10 60 10 33 0 60 4
60 10 0 6 9 10 20 10 11 0 20 -4 20 -10 0 -5 25 -10 55 -10 30 0 55 -4 55 -10
0 -6 44 -10 111 -10 110 0 111 0 139 30 15 17 31 30 35 30 18 0 65 75 65 104
0 8 6 21 13 28 7 7 16 22 19 33 4 11 16 46 28 79 18 46 20 63 11 82 l-11 24
-1691 0 -1691 0 5 -22z"/>
<path fill="#ffffff" stroke="000000" stroke-width="0.01" d="M2183 18993 c5 -89 1 -127 -10 -95 -3
6 -13 12 -24 12 -10 0 -19 5 -19 10 0 6 -5 10 -11 10 -28 0 -37 26 -26 73 6
26 15 47 21 47 7 0 18 9 26 20 28 39 37 23 43 -77z"/>
<path fill="#ffffff" stroke="000000" stroke-width="0.01" d="M2940 553 c22 -89 40 -166 40 -172 0
-5 -18 -28 -39 -50 -29 -31 -47 -41 -70 -41 -17 0 -31 -5 -31 -11 0 -6 -13 3
-30 21 -16 18 -30 42 -30 54 0 20 17 86 61 239 11 39 26 92 32 116 14 55 15
53 67 -156z"/>
<path fill="#ffffff" stroke="000000" stroke-width="0.01" d="M4860 32887 c0 -14 42 -112 50 -117 12
-8 3 -40 -12 -40 -17 0 -38 -28 -32 -44 3 -9 14 -16 24 -16 11 0 20 -10 24
-30 5 -28 8 -30 51 -30 25 0 45 4 45 9 0 5 7 17 16 26 22 21 36 99 28 148 -4
28 -11 37 -25 37 -10 0 -19 5 -19 10 0 6 -16 10 -35 10 -19 0 -35 5 -35 10 0
6 -13 10 -30 10 -16 0 -30 5 -30 10 0 6 -4 10 -10 10 -5 0 -10 -1 -10 -3z"/>
<path fill="#ffffff" stroke="000000" stroke-width="0.01" d="M1672 4303 l-64 -65 7 -71 c7 -67 20
-97 44 -97 6 0 11 -4 11 -10 0 -5 9 -10 20 -10 11 0 20 -4 20 -10 0 -5 23 -10
50 -10 28 0 50 5 50 10 0 6 18 10 40 10 22 0 40 5 40 10 0 6 16 10 35 10 32 0
35 3 45 43 6 23 17 62 25 87 7 25 18 65 25 90 6 25 13 53 16 63 5 16 -6 17
-148 16 l-153 -1 -63 -65z"/>
</g>
</svg>
