<?xml version="1.0" standalone="no"?>
<!DOCTYPE svg PUBLIC "-//W3C//DTD SVG 20010904//EN"
 "http://www.w3.org/TR/2001/REC-SVG-20010904/DTD/svg10.dtd">
<svg version="1.0" xmlns="http://www.w3.org/2000/svg"
 width="3506.000000pt" height="3950.000000pt" viewBox="0 0 3506.000000 3950.000000"
 preserveAspectRatio="xMidYMid meet">
<metadata>
Created by potrace 1.15, written by Peter Selinger 2001-2017
</metadata>
<g transform="translate(0.000000,3950.000000) scale(0.100000,-0.100000)"
fill="#ffffff" stroke="000000" stroke-width="0.01">
<path fill="#ffffff" stroke="000000" stroke-width="0.01" d="M4143 37896 c-16 -18 -36 -133 -29
-162 5 -17 13 -24 31 -24 14 0 25 5 25 10 0 6 7 10 15 10 24 0 21 130 -4 158
-21 25 -22 26 -38 8z"/>
<path fill="#ffffff" stroke="000000" stroke-width="0.01" d="M4120 37628 c-8 -38 -15 -197 -19 -403
l-6 -341 -27 -27 c-14 -14 -29 -36 -33 -47 -10 -30 -20 -25 -41 22 -10 23 -39
63 -64 89 -53 55 -80 90 -80 101 0 4 -13 8 -29 8 -27 0 -28 -2 -35 -61 -19
-191 22 -590 91 -864 14 -55 31 -136 38 -180 15 -86 29 -146 70 -295 15 -52
34 -122 42 -155 9 -33 19 -62 23 -65 12 -8 80 -148 80 -164 0 -7 14 -28 30
-46 17 -18 30 -36 30 -40 0 -10 116 -130 125 -130 4 0 20 -13 35 -30 15 -16
33 -30 39 -30 6 0 11 -4 11 -10 0 -5 11 -10 25 -10 14 0 25 -4 25 -10 0 -5 6
-10 13 -10 7 0 19 -9 27 -20 8 -11 20 -20 27 -20 7 0 13 -6 13 -12 2 -33 49
84 55 135 4 31 11 57 16 57 5 0 9 -4 9 -10 0 -5 9 -10 20 -10 11 0 20 7 20 15
0 9 9 34 20 56 l21 39 -25 25 c-14 14 -31 25 -38 25 -9 0 -14 17 -15 53 -1 29
-10 75 -20 102 -15 44 -17 89 -18 392 l0 341 -22 20 c-13 11 -23 24 -23 29 0
31 -44 143 -56 143 -8 0 -14 5 -14 10 0 6 -5 10 -11 10 -12 0 -39 25 -39 37 0
41 -43 123 -64 123 -10 0 -31 22 -43 45 -16 31 -47 186 -44 227 1 20 -11 72
-25 115 -23 68 -26 89 -21 160 6 78 26 139 51 155 7 5 13 70 16 180 5 163 4
174 -15 194 -11 11 -31 43 -44 72 -16 35 -30 52 -43 52 -10 0 -18 5 -18 10 0
6 -6 10 -14 10 -9 0 -18 -22 -26 -62z"/>
<path fill="#ffffff" stroke="000000" stroke-width="0.01" d="M1470 37080 c0 -5 -22 -10 -50 -10 -27
0 -50 -4 -50 -10 0 -5 -9 -10 -20 -10 -11 0 -20 -4 -20 -10 0 -5 -9 -10 -20
-10 -11 0 -20 -4 -20 -10 0 -5 -9 -10 -20 -10 -11 0 -20 -4 -20 -10 0 -5 -7
-10 -15 -10 -8 0 -15 -4 -15 -10 0 -5 -7 -10 -15 -10 -8 0 -15 -4 -15 -10 0
-5 -7 -10 -15 -10 -8 0 -15 -4 -15 -10 0 -5 -6 -10 -13 -10 -7 0 -19 -9 -27
-20 -8 -11 -20 -20 -27 -20 -7 0 -13 -4 -13 -8 0 -5 -8 -19 -19 -30 -10 -12
-24 -48 -31 -80 -13 -65 -6 -109 34 -202 14 -30 30 -70 36 -87 7 -18 20 -41
29 -52 9 -10 23 -29 31 -40 8 -12 20 -21 27 -21 7 0 13 -4 13 -10 0 -5 6 -10
14 -10 27 0 68 -136 73 -245 5 -125 8 -135 38 -135 14 0 25 -4 25 -10 0 -5 7
-10 16 -10 9 0 29 -13 44 -30 15 -16 34 -30 42 -30 8 0 25 -23 39 -52 13 -28
36 -64 50 -79 27 -29 51 -91 64 -163 6 -38 25 -66 43 -66 5 0 15 -13 22 -30 7
-16 20 -38 29 -49 9 -10 23 -29 31 -40 8 -12 23 -21 33 -21 10 0 24 -6 31 -13
35 -35 65 -132 58 -189 -3 -30 -1 -38 12 -38 9 0 16 -4 16 -10 0 -5 11 -10 25
-10 20 0 26 -7 35 -40 7 -25 17 -40 27 -40 18 0 49 -33 58 -61 4 -12 16 -19
31 -19 14 0 32 -6 40 -14 17 -18 30 -166 14 -166 -6 0 -8 -10 -4 -24 3 -15 -4
-42 -20 -74 -30 -60 -31 -62 -11 -62 8 0 15 -9 15 -20 0 -11 7 -20 15 -20 10
0 15 -10 15 -31 0 -43 30 -129 45 -129 16 0 24 -18 41 -100 7 -36 38 -117 68
-180 50 -104 107 -268 121 -345 4 -16 10 -68 14 -115 5 -47 16 -104 25 -128
16 -42 15 -44 -10 -95 -15 -28 -30 -53 -35 -55 -5 -2 -9 -12 -9 -23 0 -10 -6
-19 -13 -19 -8 0 -24 -23 -37 -51 -14 -28 -31 -59 -40 -69 -8 -10 -22 -28 -30
-40 -8 -12 -23 -31 -32 -42 -10 -12 -18 -24 -18 -28 0 -15 -38 -50 -54 -50 -9
0 -16 -4 -16 -10 0 -5 -6 -10 -14 -10 -8 0 -18 -9 -21 -20 -6 -17 -15 -20 -76
-20 -39 0 -69 -4 -69 -10 0 -5 -9 -10 -20 -10 -11 0 -20 -4 -20 -10 0 -5 -11
-10 -25 -10 -14 0 -25 -4 -25 -10 0 -5 -9 -10 -20 -10 -11 0 -20 -4 -20 -10 0
-5 -9 -10 -20 -10 -11 0 -20 -4 -20 -10 0 -5 -16 -10 -35 -10 -19 0 -35 -4
-35 -10 0 -5 -11 -10 -25 -10 -14 0 -25 -4 -25 -10 0 -5 -18 -10 -40 -10 -22
0 -40 -4 -40 -10 0 -5 -15 -10 -33 -10 -21 0 -38 -7 -47 -20 -10 -14 -26 -20
-52 -20 -21 0 -38 -4 -38 -10 0 -5 -14 -10 -31 -10 -22 0 -40 9 -62 33 -19 20
-32 27 -34 20 -3 -7 -18 -13 -34 -13 -16 0 -29 -4 -29 -10 0 -5 -5 -10 -11
-10 -18 0 -36 -24 -78 -108 -22 -44 -46 -110 -53 -146 -8 -40 -18 -66 -25 -66
-7 0 -13 -4 -13 -10 0 -5 -5 -10 -11 -10 -55 0 -50 -131 7 -188 8 -7 14 -17
14 -21 0 -13 37 -51 49 -51 19 0 39 -24 55 -66 34 -93 42 -110 63 -131 12 -12
24 -32 28 -43 3 -11 10 -20 14 -20 5 0 14 -13 21 -30 7 -16 19 -30 26 -30 8 0
14 -4 14 -10 0 -5 7 -10 15 -10 8 0 15 -4 15 -10 0 -5 6 -10 14 -10 15 0 29
-30 46 -100 33 -130 105 -280 135 -280 4 0 20 -13 35 -30 15 -16 35 -30 44
-30 9 0 16 -4 16 -10 0 -5 7 -10 15 -10 8 0 15 -4 15 -10 0 -5 7 -10 15 -10 8
0 15 -4 15 -10 0 -5 7 -10 15 -10 8 0 15 -4 15 -10 0 -5 11 -10 25 -10 14 0
25 -4 25 -10 0 -5 16 -10 35 -10 19 0 35 -4 35 -10 0 -6 77 -10 210 -10 133 0
210 4 210 10 0 6 14 10 30 10 17 0 30 5 30 10 0 6 9 10 20 10 11 0 20 5 20 10
0 6 5 10 11 10 6 0 28 18 49 40 29 30 46 40 69 40 17 0 31 5 31 10 0 6 7 10
15 10 8 0 15 5 15 10 0 6 8 10 18 10 10 0 24 9 32 20 8 11 19 20 25 20 5 1 25
18 43 38 76 86 88 101 102 122 8 12 27 36 43 52 15 17 27 34 27 38 0 5 6 15
14 23 8 7 33 51 56 97 40 79 61 110 75 110 4 0 24 18 45 40 21 22 44 40 50 40
7 0 25 14 40 30 15 17 33 30 39 30 6 0 11 4 11 8 0 14 36 52 49 52 6 0 11 5
11 10 0 6 9 10 20 10 11 0 20 5 20 10 0 6 7 10 15 10 8 0 15 5 15 10 0 6 7 10
15 10 8 0 15 4 15 8 0 5 8 18 18 30 9 11 24 30 32 42 8 12 21 29 29 37 12 13
13 27 2 92 -6 42 -16 121 -21 176 -8 90 -7 109 16 205 14 58 27 115 30 127 2
12 11 28 19 37 12 11 16 47 19 153 7 295 40 571 75 642 10 20 24 74 30 121 22
160 49 210 114 210 31 0 35 3 40 33 6 31 -5 171 -19 250 -5 30 -10 37 -29 37
-13 0 -26 -6 -29 -12 -3 -7 -5 16 -4 52 1 57 -3 74 -36 139 -21 40 -48 84 -62
98 -14 14 -24 36 -24 53 0 17 -4 30 -8 30 -5 0 -17 18 -27 40 -10 22 -22 40
-26 40 -4 0 -11 9 -14 20 -3 11 -13 20 -21 20 -8 0 -14 10 -14 24 0 34 -10 56
-25 56 -7 0 -18 12 -24 28 -15 36 -31 125 -24 135 3 4 -5 17 -17 27 -13 11
-29 47 -40 87 -10 37 -33 106 -50 153 -18 47 -43 116 -57 154 -13 38 -32 77
-42 85 -10 9 -26 32 -36 51 -10 18 -24 40 -31 48 -8 7 -14 17 -14 21 0 13 -36
51 -48 51 -6 0 -14 9 -17 20 -3 11 -13 20 -21 20 -8 0 -14 5 -14 10 0 6 -7 10
-15 10 -8 0 -15 5 -15 10 0 6 -6 10 -13 10 -7 0 -19 9 -27 21 -8 11 -23 30
-32 41 -10 12 -18 25 -18 30 0 4 -7 8 -15 8 -8 0 -15 5 -15 10 0 6 -6 10 -13
10 -7 0 -19 9 -27 20 -8 11 -20 20 -27 20 -7 0 -13 5 -13 10 0 6 -7 10 -15 10
-8 0 -15 5 -15 10 0 6 -8 10 -18 10 -10 0 -24 9 -32 20 -8 11 -18 20 -23 20
-13 0 -65 58 -72 81 -4 10 -14 19 -23 19 -10 0 -24 9 -32 20 -8 11 -22 20 -32
20 -10 0 -18 5 -18 10 0 6 -11 10 -24 10 -17 0 -27 9 -36 31 -7 17 -35 53 -62
81 -26 27 -48 54 -48 59 0 5 -7 9 -15 9 -8 0 -15 5 -15 10 0 6 -6 10 -13 10
-7 0 -19 9 -27 20 -8 11 -19 20 -25 20 -6 0 -17 9 -25 20 -8 11 -18 20 -23 20
-5 0 -22 14 -37 30 -15 17 -31 30 -35 30 -4 0 -20 14 -35 30 -15 17 -35 30
-43 30 -9 0 -19 9 -22 20 -3 11 -15 20 -26 20 -10 0 -19 5 -19 10 0 6 -7 10
-16 10 -21 0 -54 37 -54 60 0 17 -32 60 -45 60 -4 0 -20 14 -35 30 -15 17 -37
30 -49 30 -12 0 -21 5 -21 10 0 6 -9 10 -20 10 -11 0 -20 5 -20 10 0 6 -9 10
-20 10 -11 0 -20 5 -20 10 0 6 -11 10 -25 10 -14 0 -25 5 -25 10 0 6 -18 10
-40 10 -22 0 -40 5 -40 10 0 6 -9 10 -20 10 -11 0 -20 -4 -20 -10z"/>
<path fill="#ffffff" stroke="000000" stroke-width="0.01" d="M120 28120 c0 -6 -27 -10 -60 -10 l-60
0 0 -1140 c0 -753 3 -1140 10 -1140 6 0 10 5 10 10 0 6 6 10 14 10 7 0 16 12
19 28 24 108 69 326 77 367 15 74 30 105 51 105 11 0 19 5 19 10 0 6 10 10 21
10 23 0 55 30 64 61 4 11 10 19 14 19 4 0 18 23 31 50 13 28 26 50 30 50 14 0
39 78 55 170 13 79 42 240 72 410 4 19 11 40 17 47 6 7 16 18 22 26 15 18 58
330 50 362 -4 14 -11 25 -17 25 -6 0 -24 14 -39 30 -15 17 -32 30 -37 30 -5 0
-15 9 -23 20 -8 11 -19 20 -25 20 -6 0 -17 9 -25 20 -8 11 -19 20 -25 20 -6 0
-17 9 -25 20 -8 11 -18 20 -23 20 -11 0 -31 20 -44 45 -6 11 -20 63 -31 115
-11 52 -26 119 -33 148 l-12 52 -49 0 c-26 0 -48 -4 -48 -10z"/>
<path fill="#ffffff" stroke="000000" stroke-width="0.01" d="M2 25020 l0 -355 18 70 c32 119 32 115
15 115 -8 0 -15 9 -15 20 0 15 7 20 26 20 24 0 25 2 20 38 -3 20 -15 109 -27
197 -35 271 -37 267 -37 -105z"/>
<path fill="#ffffff" stroke="000000" stroke-width="0.01" d="M0 22606 l0 -1706 93 -94 c112 -115
117 -121 117 -141 0 -13 -40 -223 -56 -294 -5 -23 -4 -23 24 7 17 18 34 32 39
32 5 0 15 9 23 20 8 11 18 20 23 20 5 0 22 14 37 30 15 17 31 30 35 30 4 0 20
14 35 30 19 21 37 30 59 30 17 0 31 -4 31 -10 0 -5 9 -10 20 -10 11 0 20 -4
20 -10 0 -5 9 -10 20 -10 11 0 20 -4 20 -10 0 -5 9 -10 20 -10 11 0 20 -4 20
-10 0 -5 9 -10 20 -10 11 0 20 -4 20 -10 0 -5 9 -10 20 -10 11 0 20 -4 20 -10
0 -5 11 -10 25 -10 14 0 25 -4 25 -10 0 -5 9 -10 20 -10 11 0 20 -4 20 -10 0
-5 9 -10 20 -10 11 0 20 -4 20 -10 0 -5 7 -10 15 -10 8 0 15 -4 15 -10 0 -5 9
-10 20 -10 11 0 20 -4 20 -10 0 -5 7 -10 15 -10 8 0 15 -4 15 -10 0 -5 7 -10
15 -10 8 0 15 -4 15 -10 0 -5 9 -10 20 -10 11 0 20 -4 20 -10 0 -5 7 -10 15
-10 8 0 15 -4 15 -10 0 -5 9 -10 20 -10 11 0 20 -4 20 -10 0 -5 16 -10 35 -10
19 0 35 -4 35 -10 0 -5 14 -10 30 -10 17 0 30 -4 30 -10 0 -5 11 -10 25 -10
14 0 25 -4 25 -10 0 -5 15 -10 34 -10 28 0 36 5 46 30 7 17 16 30 20 30 4 0
15 18 25 40 10 22 21 40 25 40 9 0 30 46 30 65 0 7 -17 32 -37 54 -59 63 -58
62 -119 182 -31 63 -60 116 -64 119 -4 3 -33 56 -64 119 -32 62 -68 124 -81
137 -15 15 -26 42 -31 71 -4 26 -11 52 -16 57 -24 30 -45 56 -58 76 -8 12 -22
30 -30 40 -8 10 -22 28 -30 40 -8 12 -22 30 -30 40 -8 10 -22 28 -30 40 -8 12
-23 31 -32 42 -10 12 -18 24 -18 28 0 6 -14 25 -51 68 -8 10 -7 28 6 70 29 95
43 136 56 165 11 25 9 36 -28 115 -54 115 -65 143 -94 234 -13 43 -30 78 -36
78 -7 0 -13 -4 -13 -10 0 -5 -11 -10 -25 -10 -14 0 -25 -4 -25 -10 0 -5 -9
-10 -20 -10 -11 0 -20 -4 -20 -10 0 -5 -11 -10 -25 -10 -14 0 -25 -4 -25 -10
0 -5 -9 -10 -20 -10 -11 0 -20 -4 -20 -10 0 -5 -11 -10 -25 -10 -14 0 -25 -4
-25 -10 0 -5 -11 -10 -25 -10 -14 0 -25 -4 -25 -10 0 -5 -9 -10 -20 -10 -11 0
-20 -4 -20 -10 0 -5 -11 -10 -25 -10 -14 0 -25 -4 -25 -10 0 -5 -9 -10 -20
-10 -11 0 -20 -4 -20 -10 0 -5 -11 -10 -25 -10 -14 0 -25 -4 -25 -10 0 -5 -11
-10 -24 -10 -13 0 -26 -6 -29 -12 -2 -7 -7 -11 -10 -8 -3 3 1 37 9 75 25 121
106 518 116 573 10 51 11 52 44 52 19 0 34 -4 34 -10 0 -5 16 -10 35 -10 19 0
35 -4 35 -10 0 -5 16 -10 35 -10 19 0 35 -4 35 -10 0 -5 16 -10 35 -10 19 0
35 -4 35 -10 0 -5 16 -10 35 -10 20 0 35 -5 35 -12 0 -6 2 -9 5 -7 9 10 -16
185 -32 222 l-16 37 -69 0 c-39 0 -68 4 -68 10 0 6 -48 10 -125 10 -77 0 -125
4 -125 10 0 6 9 10 20 10 11 0 20 5 20 10 0 6 9 10 20 10 11 0 20 5 20 10 0 6
9 10 20 10 11 0 20 5 20 10 0 6 9 10 20 10 11 0 20 5 20 10 0 6 9 10 20 10 11
0 20 5 20 10 0 6 9 10 20 10 11 0 20 5 20 10 0 6 9 10 20 10 11 0 20 5 20 10
0 6 11 10 25 10 37 0 40 34 12 121 -14 40 -30 105 -36 142 -13 73 -17 85 -91
247 -27 58 -55 123 -63 145 -18 49 -100 390 -102 425 -3 42 -17 93 -29 107
-25 28 -34 40 -46 63 -7 13 -17 29 -22 34 -4 6 -17 22 -28 35 -20 24 -20 20
-20 -1683z"/>
<path fill="#ffffff" stroke="000000" stroke-width="0.01" d="M1 13578 c-1 -1926 0 -2121 15 -2155
23 -54 91 -207 126 -282 l30 -65 -13 -123 -12 -123 -43 0 c-24 0 -44 -4 -44
-10 0 -5 -13 -10 -30 -10 l-30 0 0 -190 c0 -183 1 -190 20 -190 11 0 20 -4 20
-10 0 -5 11 -10 25 -10 14 0 25 -4 25 -10 0 -5 11 -10 25 -10 14 0 25 -4 25
-10 0 -5 14 -10 30 -10 17 0 30 -4 30 -10 0 -5 14 -10 30 -10 17 0 30 -4 30
-10 0 -5 11 -10 25 -10 14 0 25 -4 25 -10 0 -5 14 -10 30 -10 17 0 30 -4 30
-10 0 -5 11 -10 25 -10 14 0 25 -6 25 -12 0 -7 10 -78 21 -157 17 -114 26
-150 43 -168 94 -102 93 -100 57 -172 -33 -64 -33 -64 9 -171 12 -30 30 -83
42 -117 11 -35 32 -76 46 -92 46 -51 63 -75 69 -101 7 -29 82 -183 93 -190 4
-3 22 -34 40 -69 39 -78 51 -91 84 -91 14 0 26 -4 26 -10 0 -5 11 -10 25 -10
14 0 25 -4 25 -10 0 -5 14 -10 30 -10 17 0 30 -4 30 -10 0 -5 14 -10 30 -10
17 0 30 -4 30 -10 0 -5 16 -10 35 -10 19 0 35 -4 35 -10 0 -5 13 -10 28 -10
36 0 41 -10 78 -162 15 -65 32 -118 36 -118 15 0 288 280 288 296 0 23 -30
181 -46 239 -13 49 -52 164 -114 335 -37 100 -52 151 -87 280 -23 88 -37 151
-79 350 -52 243 -64 290 -84 340 -12 30 -25 66 -30 80 -5 14 -18 50 -29 80
-12 30 -21 60 -21 67 0 6 17 30 37 52 21 22 49 54 63 71 25 31 52 63 110 130
49 57 89 104 100 117 5 6 22 37 37 67 18 37 33 56 45 56 10 0 18 5 18 10 0 6
11 10 25 10 14 0 25 5 25 10 0 6 11 10 25 10 14 0 25 5 25 10 0 6 11 10 25 10
14 0 25 5 25 10 0 6 9 10 20 10 11 0 20 5 20 10 0 6 11 10 25 10 14 0 25 5 25
10 0 6 11 10 25 10 14 0 25 5 25 10 0 6 9 10 20 10 11 0 20 5 20 10 0 6 11 10
25 10 14 0 25 5 25 10 0 6 8 10 19 10 11 0 23 12 31 30 7 17 16 30 20 30 4 0
12 11 18 25 7 14 21 36 32 48 88 96 94 107 60 107 -11 0 -20 -4 -20 -10 0 -6
-32 -10 -75 -10 -41 0 -75 4 -75 8 0 5 -8 18 -17 30 -10 11 -25 30 -33 42 -8
12 -23 31 -32 42 -10 12 -18 24 -18 28 0 4 -8 16 -17 28 -10 11 -25 30 -33 42
-14 20 -34 46 -58 76 -5 5 -15 21 -22 34 -14 26 -18 31 -57 76 -16 18 -35 42
-43 54 -8 12 -23 32 -32 43 -10 12 -28 35 -40 50 -13 16 -71 78 -130 138 -60
60 -108 115 -108 122 0 7 5 57 10 112 15 149 14 221 -5 309 -16 76 -31 106
-54 106 -6 0 -11 5 -11 10 0 6 -8 10 -18 10 -12 0 -25 14 -37 40 -10 22 -21
40 -25 40 -4 0 -15 18 -25 40 -10 22 -21 40 -25 40 -4 0 -13 14 -20 30 -7 17
-16 30 -20 30 -4 0 -13 14 -20 30 -7 17 -16 30 -20 30 -4 0 -13 14 -20 30 -7
17 -16 30 -20 30 -4 0 -15 18 -25 40 -10 22 -21 40 -25 40 -4 0 -13 14 -20 30
-7 17 -16 30 -21 30 -5 0 -9 8 -9 18 0 17 10 33 52 84 10 12 18 25 18 30 0 4
5 8 11 8 6 0 24 14 39 30 15 17 32 30 37 30 5 0 15 9 23 20 8 11 18 20 23 20
5 0 22 14 37 30 15 17 35 30 44 30 9 0 16 5 16 10 0 6 14 10 30 10 17 0 30 5
30 10 0 6 6 10 14 10 8 0 18 9 21 20 3 11 10 20 14 20 11 0 35 116 28 135 -7
17 11 65 25 65 4 0 8 7 8 16 0 17 23 44 37 44 5 0 15 9 23 20 8 11 18 20 23
20 26 0 66 90 83 187 8 49 30 116 50 155 9 17 20 75 25 130 10 104 24 144 65
185 13 13 24 30 24 38 0 7 3 20 6 29 5 12 0 16 -20 16 -14 0 -26 5 -26 10 0 6
-13 10 -29 10 -22 0 -31 6 -41 30 -15 36 -43 70 -59 70 -6 0 -11 5 -11 10 0 6
-20 10 -45 10 -25 0 -45 -4 -45 -10 0 -5 -11 -10 -25 -10 -14 0 -25 -4 -25
-10 0 -5 -11 -10 -25 -10 -14 0 -25 -4 -25 -10 0 -5 -7 -10 -15 -10 -8 0 -15
-4 -15 -9 0 -18 -79 -91 -98 -91 -12 0 -24 11 -32 30 -7 17 -16 30 -21 30 -19
0 -19 45 1 101 22 61 21 116 -1 143 -24 28 -45 56 -59 76 -8 12 -22 30 -30 40
-8 10 -22 28 -30 40 -8 12 -22 30 -30 40 -8 10 -22 28 -30 40 -8 12 -22 30
-30 40 -8 10 -22 28 -30 40 -8 12 -22 30 -30 40 -8 10 -22 28 -30 40 -8 12
-31 39 -50 60 -19 21 -42 47 -50 59 -13 19 -24 21 -112 21 -59 0 -98 4 -98 10
0 6 -47 10 -120 10 -73 0 -120 4 -120 10 0 6 -45 10 -115 10 -70 0 -115 4
-115 10 0 6 -9 10 -19 10 -11 0 -22 6 -24 13 -3 6 -6 -941 -6 -2105z"/>
<path fill="#ffffff" stroke="000000" stroke-width="0.01" d="M1336 8388 c-7 -32 -15 -386 -9 -370 3
6 9 12 15 12 5 0 23 14 38 30 15 17 31 30 35 30 4 0 24 18 45 40 21 22 41 40
44 40 8 0 96 87 96 95 0 3 -9 5 -20 5 -11 0 -20 5 -20 10 0 6 -7 10 -15 10 -8
0 -15 5 -15 10 0 6 -9 10 -20 10 -11 0 -20 5 -20 10 0 6 -7 10 -15 10 -8 0
-15 5 -15 10 0 6 -7 10 -15 10 -8 0 -15 5 -15 10 0 6 -9 10 -20 10 -11 0 -20
5 -20 10 0 6 -7 10 -15 10 -8 0 -15 5 -15 10 0 20 -20 10 -24 -12z"/>
<path fill="#ffffff" stroke="000000" stroke-width="0.01" d="M1305 7162 c-6 -167 -9 -194 -26 -213
-23 -27 -24 -39 -4 -39 8 0 15 -4 15 -10 0 -5 14 -10 30 -10 17 0 30 5 30 10
0 6 18 10 40 10 22 0 40 1 40 3 0 1 9 26 19 55 19 50 19 54 2 100 -10 26 -45
101 -78 167 l-60 119 -8 -192z"/>
<path fill="#ffffff" stroke="000000" stroke-width="0.01" d="M5030 260 c0 -5 -20 -10 -45 -10 -25 0
-45 -4 -45 -10 0 -5 -22 -10 -50 -10 -27 0 -50 -4 -50 -10 0 -5 -22 -10 -50
-10 -27 0 -50 -4 -50 -10 0 -5 -20 -10 -45 -10 -25 0 -45 -4 -45 -10 0 -5 -13
-10 -30 -10 -16 0 -30 -4 -30 -10 0 -5 -11 -10 -25 -10 -14 0 -25 -4 -25 -10
0 -5 -11 -10 -25 -10 -14 0 -25 -4 -25 -10 0 -6 -32 -10 -75 -10 -43 0 -75 -4
-75 -10 0 -6 -40 -10 -100 -10 -60 0 -100 -4 -100 -10 0 -5 -16 -10 -35 -10
-19 0 -35 5 -35 10 0 6 -9 10 -20 10 -11 0 -20 5 -20 10 0 6 -7 10 -15 10 -8
0 -15 5 -15 10 0 6 -9 10 -20 10 -11 0 -20 5 -20 10 0 6 -9 10 -20 10 -11 0
-20 5 -20 10 0 6 -7 10 -15 10 -8 0 -15 -4 -15 -10 0 -5 -20 -10 -45 -10 -25
0 -45 -4 -45 -10 0 -5 -25 -10 -55 -10 -30 0 -55 -4 -55 -10 0 -5 -25 -10 -55
-10 -30 0 -55 -4 -55 -10 0 -5 -8 -10 -18 -10 -10 0 -24 -10 -32 -21 -8 -12
-25 -32 -38 -45 l-23 -24 721 0 c718 0 720 0 720 20 0 12 5 26 10 33 38 45 50
61 50 67 0 4 8 16 18 28 9 11 24 30 32 42 8 12 23 31 33 42 22 27 22 38 -3 38
-11 0 -20 -4 -20 -10z"/>
</g>
</svg>
