<?xml version="1.0" standalone="no"?>
<!DOCTYPE svg PUBLIC "-//W3C//DTD SVG 20010904//EN"
 "http://www.w3.org/TR/2001/REC-SVG-20010904/DTD/svg10.dtd">
<svg version="1.0" xmlns="http://www.w3.org/2000/svg"
 width="3506.000000pt" height="3950.000000pt" viewBox="0 0 3506.000000 3950.000000"
 preserveAspectRatio="xMidYMid meet">
<metadata>
Created by potrace 1.15, written by Peter Selinger 2001-2017
</metadata>
<g transform="translate(0.000000,3950.000000) scale(0.100000,-0.100000)"
fill="#ffffff" stroke="000000" stroke-width="0.01">
<path fill="#ffffff" stroke="000000" stroke-width="0.01" d="M1590 36520 c0 -5 -16 -10 -35 -10 -19
0 -35 -4 -35 -10 0 -5 -6 -10 -13 -10 -13 0 -27 -26 -57 -107 -7 -18 -21 -43
-31 -55 -10 -13 -23 -28 -27 -34 -26 -31 -33 -54 -21 -76 7 -13 16 -26 22 -29
5 -4 5 -15 -2 -28 -9 -16 -8 -28 8 -59 11 -21 22 -54 26 -75 7 -38 34 -77 54
-77 6 0 11 -4 11 -10 0 -5 9 -10 19 -10 11 0 22 -8 26 -19 3 -10 14 -29 25
-41 11 -13 24 -38 29 -57 5 -18 22 -46 38 -61 32 -30 53 -83 53 -130 0 -25 4
-32 20 -32 13 0 20 -7 20 -18 0 -11 8 -28 18 -40 9 -11 24 -30 32 -42 8 -13
25 -33 38 -46 12 -13 22 -35 22 -49 0 -18 5 -25 19 -25 12 0 23 -12 31 -32 23
-65 64 -148 71 -148 4 0 10 -9 14 -19 3 -11 19 -34 36 -52 16 -17 29 -35 29
-40 0 -5 7 -9 15 -9 8 0 15 -4 15 -8 0 -17 37 -52 54 -52 10 0 23 -6 30 -13
16 -16 27 -177 14 -201 -5 -10 -11 -43 -12 -74 -1 -31 -6 -65 -10 -74 -6 -13
-4 -18 7 -18 8 0 18 -6 20 -12 4 -10 8 -9 16 2 7 10 9 -4 8 -51 -1 -50 2 -70
15 -82 9 -9 21 -17 27 -17 5 0 13 -9 16 -20 3 -11 11 -20 16 -20 5 0 9 -17 9
-37 1 -21 8 -56 16 -78 8 -22 19 -52 24 -68 5 -15 16 -34 24 -43 9 -8 16 -22
16 -30 0 -8 9 -32 20 -53 11 -22 22 -59 26 -83 8 -52 28 -93 61 -126 21 -21
23 -30 18 -63 -6 -35 -5 -39 14 -39 12 0 21 -4 21 -10 0 -5 -7 -10 -15 -10
-10 0 -14 -12 -14 -42 0 -24 -3 -69 -7 -100 -4 -42 -3 -58 6 -58 9 0 11 10 7
30 -5 22 -3 30 7 30 17 0 26 -22 26 -66 0 -24 5 -34 15 -34 23 0 20 -72 -5
-100 -11 -13 -20 -34 -20 -47 0 -37 -26 -83 -77 -137 -12 -13 -36 -52 -53 -86
-17 -34 -40 -72 -51 -84 -10 -11 -36 -40 -58 -63 -21 -23 -44 -55 -51 -72 -7
-17 -19 -31 -26 -31 -8 0 -14 -4 -14 -10 0 -5 -13 -10 -30 -10 -16 0 -30 -4
-30 -10 0 -5 -13 -10 -30 -10 -16 0 -30 -4 -30 -10 0 -6 -27 -10 -60 -10 -33
0 -60 -4 -60 -10 0 -5 -13 -10 -30 -10 -16 0 -30 -4 -30 -10 0 -5 -6 -10 -13
-10 -14 0 -37 -40 -37 -65 0 -8 -7 -15 -15 -15 -8 0 -15 -4 -15 -10 0 -14 -27
-12 -34 3 -5 10 -7 10 -12 0 -3 -7 -12 -13 -20 -13 -8 0 -14 -4 -14 -10 0 -5
-9 -10 -19 -10 -11 0 -22 -6 -24 -12 -4 -10 -6 -10 -6 0 -1 6 -8 12 -16 12 -8
0 -15 5 -15 10 0 21 -43 8 -71 -21 -28 -30 -39 -69 -20 -69 5 0 13 -9 16 -20
3 -11 12 -20 19 -20 6 0 28 -35 49 -77 34 -72 37 -86 39 -185 3 -94 6 -109 24
-125 23 -20 74 -114 74 -136 0 -8 9 -25 20 -38 11 -13 30 -36 42 -51 13 -15
27 -28 31 -28 5 0 22 -13 37 -30 15 -16 32 -30 37 -30 5 0 15 -9 23 -20 8 -11
25 -20 37 -20 13 0 23 -4 23 -10 0 -6 37 -10 90 -10 53 0 90 -4 90 -10 0 -5 7
-10 15 -10 8 0 15 5 15 10 0 6 20 10 45 10 25 0 45 5 45 10 0 6 11 10 25 10
14 0 25 5 25 10 0 6 11 10 25 10 14 0 25 5 25 10 0 6 7 10 15 10 8 0 15 5 15
10 0 6 11 10 25 10 14 0 25 5 25 10 0 6 7 10 15 10 8 0 15 5 15 10 0 6 5 10
11 10 6 0 28 18 49 40 21 22 43 40 49 40 6 0 11 5 11 10 0 6 7 10 15 10 8 0
15 5 15 10 0 6 9 10 20 10 11 0 20 5 20 10 0 6 8 10 18 10 10 0 24 9 32 20 8
11 20 20 27 20 7 0 13 5 13 10 0 6 11 10 25 10 14 0 25 5 25 10 0 6 9 10 20
10 11 0 20 5 20 10 0 6 5 10 11 10 17 0 43 33 64 80 10 22 22 40 28 40 15 0
47 41 47 62 0 10 4 18 8 18 4 0 14 21 21 48 8 26 27 72 42 103 46 92 94 405
119 774 13 196 30 354 41 395 14 54 42 369 34 394 -20 65 -32 496 -24 841 2
82 -2 101 -40 215 -23 68 -46 127 -50 130 -4 3 -13 14 -19 25 -6 11 -12 14
-12 8 0 -7 -4 -13 -10 -13 -5 0 -10 16 -10 36 0 40 -12 67 -46 101 -13 13 -24
28 -24 32 0 4 -8 17 -17 29 -10 11 -25 30 -33 42 -29 43 -89 100 -104 100 -9
0 -16 5 -16 10 0 6 -9 10 -20 10 -11 0 -20 5 -20 10 0 6 -9 10 -19 10 -11 0
-22 8 -26 19 -6 21 -39 61 -49 61 -4 0 -25 18 -46 40 -21 22 -43 40 -49 40 -6
0 -11 5 -11 10 0 6 -5 10 -11 10 -6 0 -24 14 -39 30 -15 17 -33 30 -39 30 -6
0 -11 5 -11 10 0 6 -6 10 -14 10 -8 0 -18 9 -21 20 -3 11 -13 20 -21 20 -8 0
-14 5 -14 10 0 6 -7 10 -15 10 -8 0 -15 5 -15 10 0 6 -7 10 -15 10 -8 0 -15 5
-15 10 0 6 -9 10 -20 10 -11 0 -20 5 -20 10 0 6 -8 10 -18 10 -10 0 -24 9 -32
20 -8 11 -20 20 -27 20 -7 0 -13 5 -13 10 0 6 -7 10 -15 10 -8 0 -15 5 -15 10
0 6 -7 10 -15 10 -8 0 -15 4 -15 9 0 13 -56 71 -69 71 -6 0 -11 5 -11 10 0 6
-7 10 -15 10 -8 0 -15 5 -15 10 0 6 -7 10 -15 10 -8 0 -15 5 -15 10 0 6 -7 10
-15 10 -8 0 -15 5 -15 10 0 6 -6 10 -13 10 -7 0 -19 9 -27 20 -8 11 -20 20
-27 20 -7 0 -13 5 -13 10 0 6 -6 10 -13 10 -7 0 -19 9 -27 20 -8 11 -20 20
-27 20 -7 0 -13 5 -13 10 0 6 -7 10 -15 10 -8 0 -15 5 -15 10 0 6 -11 10 -25
10 -14 0 -25 5 -25 10 0 6 -9 10 -20 10 -11 0 -20 5 -20 10 0 6 -11 10 -25 10
-14 0 -25 5 -25 10 0 6 -7 10 -15 10 -8 0 -15 5 -15 10 0 6 -28 10 -65 10 -37
0 -65 -4 -65 -10z"/>
<path fill="#ffffff" stroke="000000" stroke-width="0.01" d="M0 26860 c0 -383 0 -390 20 -390 11 0
20 5 20 10 0 6 9 10 19 10 15 0 21 10 26 43 4 23 13 74 20 112 8 39 23 120 34
180 11 61 30 161 41 223 19 99 20 114 6 127 -8 8 -19 15 -25 15 -6 0 -11 5
-11 10 0 6 -7 10 -15 10 -8 0 -15 5 -15 10 0 6 -22 10 -50 10 -27 0 -50 5 -50
10 0 6 -4 10 -10 10 -6 0 -10 -137 -10 -390z"/>
<path fill="#ffffff" stroke="000000" stroke-width="0.01" d="M13 23915 c-10 -11 -13 -85 -13 -300 0
-247 2 -285 15 -285 8 0 15 -4 15 -10 0 -5 9 -10 20 -10 11 0 20 -4 20 -10 0
-5 11 -10 25 -10 14 0 25 -4 25 -10 0 -5 9 -10 20 -10 11 0 20 -4 20 -10 0 -5
11 -10 25 -10 14 0 25 -4 25 -10 0 -5 9 -10 20 -10 11 0 20 -4 20 -10 0 -5 9
-10 20 -10 11 0 20 1 20 3 0 3 -33 90 -60 157 -11 28 -29 74 -41 103 -11 28
-22 63 -24 77 -1 14 -9 41 -18 60 -9 19 -28 82 -42 140 -44 179 -45 180 -63
180 -9 -1 -23 -7 -29 -15z"/>
<path fill="#ffffff" stroke="000000" stroke-width="0.01" d="M730 13699 c-14 -17 -41 -48 -60 -69
-19 -22 -51 -58 -70 -80 -19 -22 -51 -58 -70 -80 -19 -22 -41 -46 -47 -54 -9
-11 -13 -67 -14 -198 0 -101 -4 -250 -8 -333 -7 -140 -6 -153 13 -192 11 -24
23 -43 26 -43 11 0 47 -89 70 -170 12 -41 27 -95 35 -120 7 -25 18 -64 25 -87
6 -26 17 -43 25 -43 8 0 15 -4 15 -10 0 -5 6 -10 13 -10 7 0 19 -9 27 -20 8
-11 20 -20 27 -20 7 0 13 -4 13 -10 0 -5 7 -10 15 -10 8 0 15 -4 15 -10 0 -5
7 -10 15 -10 8 0 15 -4 15 -10 0 -5 7 -10 15 -10 8 0 15 -4 15 -10 0 -5 7 -10
15 -10 8 0 15 -4 15 -10 0 -5 7 -10 15 -10 8 0 15 -4 15 -10 0 -6 38 -10 95
-10 57 0 95 -4 95 -10 0 -5 9 -10 20 -10 11 0 20 -4 20 -10 0 -5 11 -10 25
-10 14 0 25 -4 25 -10 0 -5 9 -10 20 -10 11 0 20 -4 20 -10 0 -5 9 -10 19 -10
11 0 21 -6 24 -12 2 -7 8 -10 12 -6 4 3 -41 54 -100 113 -103 104 -106 108
-101 143 3 21 11 105 17 187 l11 150 -36 109 c-34 102 -36 114 -30 190 5 73 4
83 -15 105 -11 13 -23 32 -26 42 -4 11 -10 19 -14 19 -5 0 -14 14 -21 30 -7
17 -16 30 -20 30 -4 0 -13 14 -20 30 -7 17 -16 30 -20 30 -4 0 -15 18 -25 40
-10 22 -21 40 -25 40 -4 0 -13 14 -20 30 -7 17 -16 30 -20 30 -4 0 -13 14 -20
30 -7 17 -16 30 -20 30 -4 0 -12 11 -18 25 -11 23 -8 29 23 60 19 19 37 35 40
35 3 0 22 16 41 35 l35 36 -29 27 c-16 15 -47 62 -68 104 l-39 77 -25 -30z"/>
</g>
</svg>
