<?xml version="1.0" standalone="no"?>
<!DOCTYPE svg PUBLIC "-//W3C//DTD SVG 20010904//EN"
 "http://www.w3.org/TR/2001/REC-SVG-20010904/DTD/svg10.dtd">
<svg version="1.0" xmlns="http://www.w3.org/2000/svg"
 width="3506.000000pt" height="3950.000000pt" viewBox="0 0 3506.000000 3950.000000"
 preserveAspectRatio="xMidYMid meet">
<metadata>
Created by potrace 1.15, written by Peter Selinger 2001-2017
</metadata>
<g transform="translate(0.000000,3950.000000) scale(0.100000,-0.100000)"
fill="#ffffff" stroke="000000" stroke-width="0.01">
<path fill="#ffffff" stroke="000000" stroke-width="0.01" d="M0 37685 l0 -1815 50 0 c28 0 50 -4 50
-10 0 -5 20 -10 45 -10 25 0 45 -4 45 -10 0 -5 8 -10 18 -10 10 0 24 -9 32
-20 8 -12 26 -20 42 -20 15 0 28 -4 28 -10 0 -5 16 -10 35 -10 19 0 35 -4 35
-10 0 -5 9 -10 20 -10 11 0 20 -4 20 -10 0 -5 20 -10 45 -10 25 0 45 -4 45
-10 0 -5 8 -10 19 -10 14 0 20 -10 25 -47 3 -26 2 -49 -3 -52 -4 -3 -16 -21
-26 -40 -9 -19 -27 -44 -39 -57 -37 -40 -45 -52 -63 -88 -9 -20 -22 -36 -29
-36 -6 0 -17 -13 -24 -30 -7 -16 -16 -30 -20 -30 -4 0 -8 -10 -8 -22 0 -29
-16 -95 -30 -128 -24 -56 -41 -125 -32 -128 23 -8 -2 -62 -28 -62 -12 0 -34
-49 -26 -61 3 -6 -4 -18 -15 -28 -12 -11 -19 -25 -16 -34 4 -8 -1 -21 -9 -30
-9 -8 -22 -34 -30 -58 -13 -37 -13 -55 0 -148 8 -58 19 -129 25 -158 8 -39 7
-58 -2 -74 -15 -28 -55 -69 -68 -69 -5 0 -12 -6 -14 -12 -4 -10 -6 -10 -6 0
-1 14 -51 17 -51 2 0 -5 -9 -10 -20 -10 -20 0 -20 -7 -20 -14426 0 -12489 2
-14427 14 -14440 8 -8 19 -14 25 -14 6 0 11 -4 11 -10 0 -5 6 -10 14 -10 8 0
17 -9 21 -19 3 -11 19 -34 35 -51 16 -17 32 -40 35 -51 4 -10 10 -19 15 -19 5
0 12 -9 15 -20 3 -11 13 -20 21 -20 8 0 14 -4 14 -9 0 -13 56 -71 69 -71 6 0
11 -19 11 -45 0 -39 -5 -51 -35 -81 -19 -19 -35 -39 -35 -44 0 -6 -9 -10 -20
-10 -11 0 -20 -4 -20 -10 0 -5 -6 -10 -14 -10 -8 0 -16 -7 -20 -15 -6 -18 2
-45 15 -45 15 0 10 -49 -7 -83 -19 -36 -38 -57 -53 -57 -6 0 -11 -4 -11 -10 0
-5 -7 -10 -15 -10 -8 0 -15 5 -15 12 0 6 -8 1 -19 -10 -10 -12 -23 -22 -29
-22 -5 0 -13 -7 -16 -16 -3 -9 -6 -506 -6 -1104 0 -1080 2 -1140 32 -1140 4 0
8 -7 8 -15 0 -17 84 -105 100 -105 5 0 10 -4 10 -10 0 -5 11 -10 25 -10 14 0
25 -4 25 -10 0 -5 9 -10 20 -10 11 0 20 -4 20 -8 0 -5 8 -18 17 -30 10 -11 25
-30 33 -41 8 -12 20 -21 27 -21 7 0 13 -4 13 -10 0 -5 7 -10 15 -10 8 0 15 -4
15 -10 0 -5 10 -10 21 -10 24 0 55 -31 64 -64 11 -40 38 -96 46 -96 5 0 11
-22 15 -50 4 -27 10 -50 14 -50 11 0 30 -49 30 -80 0 -16 7 -44 15 -62 8 -18
19 -52 25 -75 7 -28 27 -59 60 -93 40 -41 50 -59 56 -98 9 -62 26 -95 80 -148
32 -32 51 -44 73 -44 21 0 32 -6 36 -19 10 -32 61 -81 84 -81 12 0 21 -4 21
-10 0 -5 11 -10 25 -10 14 0 25 -4 25 -10 0 -5 7 -10 15 -10 8 0 15 -4 15 -10
0 -5 7 -10 15 -10 8 0 15 -4 15 -10 0 -5 6 -10 13 -10 7 0 19 -9 27 -20 8 -11
21 -20 30 -20 9 0 22 -9 30 -20 8 -11 18 -20 23 -20 16 0 56 -49 82 -101 15
-29 33 -59 41 -67 8 -7 14 -17 14 -21 0 -12 36 -51 47 -51 5 0 18 -17 28 -37
15 -28 20 -61 21 -128 1 -116 1 -115 20 -115 42 0 53 -48 34 -151 -13 -70 -29
-109 -46 -109 -18 0 -27 -34 -19 -79 4 -23 0 -62 -9 -99 -9 -33 -16 -63 -16
-66 0 -3 1131 -5 2513 -5 1381 1 2502 4 2490 6 -15 3 -23 12 -24 26 0 12 -3
16 -6 10 -10 -26 -23 -12 -23 26 0 29 -7 47 -29 70 -16 17 -33 31 -39 31 -5 0
-18 24 -27 53 -22 65 -23 242 -2 284 8 16 17 40 21 56 3 15 12 27 19 27 7 0
19 9 27 20 8 11 19 20 26 20 13 0 31 36 39 84 4 20 11 36 15 36 4 0 13 14 20
30 7 17 16 30 21 30 4 0 11 9 14 20 3 11 12 20 20 20 8 0 17 9 20 20 3 11 13
20 21 20 8 0 14 10 14 23 0 12 7 42 15 65 10 27 13 57 9 78 -5 27 -3 34 10 34
10 0 19 15 26 43 19 74 60 188 71 197 4 3 16 24 28 47 15 30 21 61 21 108 0
36 4 65 9 65 5 0 14 14 21 30 7 17 16 30 20 30 11 0 31 50 24 61 -3 5 2 16 10
25 9 8 16 20 16 25 0 13 -17 11 -24 -3 -3 -7 -4 12 -2 43 4 49 26 114 45 129
7 6 24 50 51 132 11 32 24 66 29 76 7 13 7 31 1 52 -8 27 -6 36 9 49 44 39 56
81 55 195 -1 59 -6 111 -11 115 -6 3 -16 31 -23 61 -7 30 -19 67 -26 82 -8 15
-14 58 -14 97 0 38 -3 76 -6 85 -7 17 -54 22 -54 6 0 -5 -7 -10 -15 -10 -8 0
-15 -4 -15 -10 0 -5 -9 -10 -20 -10 -11 0 -20 4 -20 9 0 5 -13 22 -28 39 -23
24 -31 46 -41 114 -15 106 -19 118 -37 118 -8 0 -14 5 -14 10 0 6 -9 10 -20
10 -11 0 -20 5 -20 10 0 6 -5 10 -11 10 -12 0 -49 38 -49 50 0 13 -57 70 -69
70 -6 0 -11 5 -11 10 0 6 -11 10 -25 10 -14 0 -25 5 -25 10 0 6 -9 10 -20 10
-11 0 -20 5 -20 10 0 6 -7 10 -15 10 -8 0 -15 5 -15 10 0 6 -7 10 -15 10 -8 0
-15 5 -15 10 0 6 -6 10 -14 10 -7 0 -32 18 -55 40 -22 22 -46 40 -51 40 -6 0
-10 5 -10 10 0 6 -11 10 -25 10 -14 0 -25 5 -25 10 0 6 -23 10 -51 10 -48 0
-51 1 -46 23 2 12 8 30 12 39 5 14 2 18 -14 18 -12 0 -21 5 -21 10 0 6 -7 10
-16 10 -14 0 -28 12 -82 74 -16 18 -52 46 -60 46 -9 1 -69 71 -102 120 -8 12
-31 39 -50 60 -19 21 -42 47 -50 59 -8 11 -19 21 -24 21 -13 0 -42 36 -54 68
-6 15 -16 55 -22 90 -7 34 -16 62 -21 62 -10 0 1 74 13 78 4 2 8 12 8 23 0 14
-7 19 -30 19 -16 0 -30 -4 -30 -10 0 -17 -22 -11 -41 11 -10 12 -21 42 -24 67
-10 78 -15 92 -30 92 -8 0 -15 5 -15 10 0 6 -15 10 -34 10 -34 0 -42 10 -61
76 -8 30 -39 64 -59 64 -9 0 -16 5 -16 10 0 6 -5 10 -11 10 -16 0 -45 35 -58
70 -6 17 -16 43 -22 60 -6 16 -15 30 -20 30 -4 0 -11 9 -14 20 -5 14 -15 20
-38 20 -31 0 -33 3 -55 73 -12 39 -22 80 -22 90 0 11 -8 17 -21 17 -22 0 -22
-2 -3 73 3 15 -2 31 -15 46 -12 13 -21 28 -21 33 0 4 -15 8 -34 8 -38 0 -46
12 -46 70 0 21 -3 45 -6 54 -7 17 -34 22 -34 6 0 -5 -13 -10 -30 -10 -16 0
-30 5 -30 10 0 6 -7 10 -15 10 -8 0 -15 4 -15 9 0 5 -8 17 -17 26 -14 14 -15
22 -5 46 7 16 17 42 24 58 10 24 9 32 -5 46 -9 9 -17 21 -17 26 0 5 -9 9 -19
9 -11 0 -22 8 -26 19 -5 16 -13 28 -54 77 -5 6 -11 28 -14 50 -7 56 -37 134
-51 134 -17 0 -72 122 -92 200 -27 112 -52 179 -78 206 -6 6 -18 22 -26 34 -8
13 -25 33 -36 45 -43 44 -57 86 -57 166 1 59 6 86 26 125 27 55 35 96 43 222
3 48 14 120 24 161 13 51 16 80 9 92 -5 10 -9 27 -9 39 0 11 -9 39 -20 61 -19
36 -20 55 -18 207 3 167 3 168 -22 194 -41 44 -47 53 -75 109 -15 30 -31 56
-35 59 -4 3 -22 33 -39 68 -30 60 -31 65 -21 122 11 59 7 81 -22 114 -38 47
-48 60 -48 63 0 21 62 116 101 154 27 26 49 55 49 63 0 9 7 16 15 16 8 0 15 4
15 8 0 5 9 19 20 32 11 13 20 33 20 46 0 32 21 74 37 74 7 0 13 5 13 10 0 6 8
10 18 10 20 0 42 38 42 71 0 21 17 60 30 69 23 16 38 68 30 108 -4 23 -5 54
-2 68 5 30 -27 184 -39 184 -4 0 -11 9 -14 20 -3 11 -12 20 -19 20 -15 0 -35
43 -68 145 -12 39 -26 72 -29 75 -22 17 -51 103 -60 173 -6 45 -14 96 -19 112
-5 17 -14 68 -20 115 -6 47 -18 123 -27 169 -10 58 -13 109 -9 162 8 82 0 149
-16 149 -19 0 -38 29 -38 57 0 15 7 53 15 83 19 70 19 123 0 159 -34 67 -48
122 -56 221 -11 138 -32 244 -52 265 -10 9 -17 20 -17 25 0 4 -13 22 -30 40
-16 17 -34 49 -40 69 -5 21 -18 48 -29 60 -10 12 -24 35 -31 51 -7 17 -16 30
-20 30 -4 0 -13 14 -20 30 -7 17 -16 30 -21 30 -4 0 -11 9 -14 20 -3 11 -11
20 -16 20 -5 0 -43 33 -84 74 -52 52 -85 97 -111 148 -20 40 -40 75 -44 78
-13 9 -40 68 -40 88 0 26 -32 125 -42 133 -5 3 -12 19 -17 35 -5 16 -19 54
-31 84 -39 100 -41 110 -23 144 9 17 25 39 37 49 17 15 18 22 9 47 -7 19 -8
45 -2 76 10 50 5 84 -12 84 -10 0 -39 24 -39 33 0 2 9 14 20 27 15 17 20 37
20 80 0 43 5 63 20 80 23 27 25 46 8 64 -7 8 -20 23 -28 35 -16 24 -74 30 -84
9 -5 -10 -7 -10 -12 0 -3 6 -21 12 -40 12 -19 0 -34 5 -34 10 0 6 -9 10 -20
10 -11 0 -20 4 -20 8 0 5 -8 19 -19 30 -15 18 -29 22 -76 22 -47 0 -56 3 -51
15 3 8 9 21 12 29 3 8 -6 25 -19 38 -14 14 -33 40 -42 58 -9 18 -30 46 -46 64
-109 116 -129 136 -138 136 -6 0 -11 5 -11 10 0 6 -7 10 -16 10 -17 0 -54 36
-54 52 0 4 -9 8 -20 8 -11 0 -20 5 -20 10 0 6 -7 10 -16 10 -9 0 -29 14 -44
30 -15 17 -33 30 -39 30 -11 0 -31 62 -31 95 1 11 7 31 15 45 15 26 19 77 9
104 -3 9 -17 16 -31 16 -30 0 -53 21 -53 48 0 38 11 52 41 52 16 0 29 5 29 10
0 6 9 10 20 10 13 0 20 7 20 20 0 11 -4 20 -10 20 -5 0 -10 12 -10 26 0 14 -7
32 -15 40 -22 22 -19 34 8 34 15 0 28 9 35 23 6 12 11 16 11 10 2 -25 19 -13
25 17 5 25 10 30 35 30 21 0 32 6 36 20 3 11 11 20 17 20 12 0 48 39 48 52 0
4 7 8 15 8 8 0 15 5 15 10 0 6 7 10 15 10 8 0 15 5 15 10 0 6 9 10 20 10 11 0
20 5 20 10 0 6 16 10 35 10 19 0 35 5 35 10 0 6 9 10 20 10 11 0 20 5 20 10 0
6 8 10 19 10 13 0 20 9 24 30 5 21 12 30 27 30 11 0 20 5 20 10 0 6 18 10 40
10 22 0 40 5 40 10 0 6 7 10 15 10 8 0 15 5 15 10 0 6 11 10 25 10 14 0 25 5
25 10 0 6 9 10 20 10 11 0 20 5 20 10 0 6 7 10 15 10 8 0 15 5 15 10 0 6 9 10
20 10 11 0 20 5 20 10 0 6 13 10 28 10 24 0 32 7 47 40 10 23 25 40 34 40 9 0
23 9 31 20 8 11 20 20 27 20 7 0 13 4 13 8 0 19 38 52 59 52 14 0 42 20 71 50
27 28 53 50 57 50 5 0 15 9 23 20 8 11 20 20 27 20 7 0 13 5 13 10 0 6 15 10
33 10 21 0 38 7 47 20 8 11 18 20 23 20 11 0 67 59 67 70 0 12 57 70 69 70 6
0 11 5 11 10 0 6 9 10 20 10 11 0 20 5 20 10 0 6 9 10 20 10 11 0 20 5 20 10
0 6 7 10 15 10 8 0 15 5 15 10 0 6 10 10 21 10 20 0 59 33 59 50 0 4 16 25 35
46 19 21 35 45 35 53 1 21 24 51 40 51 7 0 10 3 7 7 -4 3 2 16 13 28 20 22 50
95 50 125 0 9 9 29 20 43 11 14 20 30 20 36 0 5 24 35 54 66 48 49 96 136 96
176 0 12 120 252 130 259 4 3 17 25 30 50 12 25 28 52 35 60 7 8 29 44 48 80
23 44 42 66 56 68 11 2 21 8 21 13 0 5 7 9 15 9 8 0 15 9 15 20 0 11 7 20 15
20 8 0 15 8 15 18 0 11 9 29 20 42 13 14 20 37 20 62 0 21 5 38 10 38 6 0 10
17 10 38 0 25 7 48 20 62 11 13 20 26 20 30 0 6 12 22 50 67 5 7 15 24 22 38
6 14 17 25 23 25 7 0 20 18 30 40 10 22 23 40 29 40 7 0 18 9 26 20 8 11 20
20 27 20 7 0 13 5 13 10 0 6 15 10 34 10 26 0 36 -5 41 -20 3 -11 12 -20 18
-20 7 0 19 -9 27 -20 8 -11 20 -20 27 -20 7 0 13 -4 13 -10 0 -5 9 -10 20 -10
11 0 20 -4 20 -10 0 -5 7 -10 16 -10 36 0 94 -91 94 -147 0 -7 9 -13 20 -13
11 0 20 -4 20 -10 0 -5 20 -10 45 -10 25 0 45 -4 45 -10 0 -5 7 -10 16 -10 9
0 25 -9 34 -20 19 -22 35 -115 24 -143 -4 -11 -1 -17 9 -17 16 0 30 -27 21
-41 -7 -12 20 -39 40 -39 11 0 17 -15 22 -50 5 -34 11 -50 21 -50 10 0 13 -6
9 -15 -3 -9 1 -35 9 -58 8 -23 15 -52 15 -64 0 -15 6 -23 18 -23 30 0 86 -133
114 -273 7 -34 19 -68 26 -76 7 -7 11 -20 8 -28 -6 -15 27 -87 50 -110 7 -7
16 -22 19 -33 3 -11 11 -20 17 -20 12 0 48 -39 48 -52 0 -4 6 -8 13 -8 7 0 19
-9 27 -20 8 -11 22 -20 32 -20 10 0 18 -4 18 -10 0 -5 6 -10 14 -10 8 0 18 -9
21 -20 3 -11 13 -20 21 -20 8 0 17 -13 21 -30 3 -16 9 -30 14 -30 4 0 11 -10
14 -22 16 -56 28 -78 46 -78 10 0 20 -10 24 -22 11 -40 38 -98 45 -98 4 0 13
-14 20 -30 7 -16 16 -30 21 -30 4 0 11 -9 14 -20 3 -11 11 -20 16 -20 13 0 31
-18 47 -45 6 -11 12 -14 12 -7 0 8 22 12 75 12 43 0 75 4 75 10 0 6 14 10 30
10 17 0 30 5 30 10 0 6 7 10 15 10 8 0 15 5 15 10 0 6 11 10 24 10 16 0 27 7
31 20 3 11 13 20 21 20 8 0 14 5 14 10 0 6 11 10 25 10 14 0 25 5 25 10 0 6
14 10 30 10 23 0 30 4 30 20 0 13 7 20 20 20 11 0 20 5 20 10 0 6 9 10 20 10
11 0 20 5 20 10 0 6 11 10 25 10 14 0 25 5 25 10 0 6 7 10 15 10 8 0 15 5 15
10 0 6 9 10 20 10 11 0 20 5 20 10 0 6 20 10 45 10 25 0 45 5 45 10 0 6 9 10
20 10 11 0 20 5 20 10 0 6 9 10 20 10 11 0 20 5 20 10 0 6 9 10 20 10 11 0 20
5 20 10 0 6 19 10 43 10 31 0 46 5 57 20 10 14 26 20 52 20 21 0 38 5 38 10 0
6 9 10 20 10 11 0 20 5 20 10 0 6 16 10 35 10 19 0 35 4 35 8 0 5 9 19 19 31
14 16 21 18 24 9 4 -10 6 -10 6 0 1 6 12 12 26 12 14 0 25 6 25 13 0 8 3 7 10
-3 7 -12 12 -10 30 10 18 21 23 22 31 10 8 -11 12 -12 16 -2 2 6 18 12 34 12
16 0 29 5 29 10 0 6 7 10 15 10 8 0 15 5 15 10 0 6 20 10 44 10 26 0 46 5 49
13 4 10 6 10 6 0 1 -7 14 -13 30 -13 16 0 32 -6 34 -12 4 -10 8 -9 16 2 9 12
11 11 11 -7 0 -16 6 -23 20 -23 11 0 20 6 21 13 0 6 5 2 11 -10 10 -21 18 -23
91 -23 69 0 82 3 98 22 11 11 19 29 19 40 0 14 8 18 33 18 21 0 38 7 47 20 10
14 16 16 22 7 6 -9 8 -9 8 1 0 6 7 12 15 12 8 0 15 5 15 10 0 6 14 10 30 10
17 0 30 5 30 10 0 6 6 10 13 10 7 0 19 9 27 20 8 11 20 20 27 20 7 0 13 5 13
10 0 6 5 10 11 10 27 0 41 31 34 75 l-6 45 40 0 c22 0 42 6 45 13 5 10 7 10
12 0 6 -14 44 -18 44 -5 0 13 36 52 48 52 6 0 13 6 15 13 4 9 6 9 6 0 1 -15
31 -18 31 -4 0 5 17 27 38 49 58 63 72 84 73 112 3 70 9 97 30 141 12 27 26
49 31 49 4 0 8 9 8 21 0 12 7 48 16 81 8 33 16 87 16 119 0 33 5 59 9 59 5 0
9 5 9 10 0 6 -7 10 -15 10 -18 0 -18 2 -3 35 6 14 16 25 23 25 7 0 11 19 11
50 0 28 -3 50 -6 50 -12 0 -30 49 -24 65 4 8 1 15 -5 15 -6 0 -11 7 -11 15 0
19 -57 133 -76 152 -8 8 -14 18 -14 23 0 5 -6 15 -14 22 -46 47 -55 104 -32
221 8 40 13 101 12 137 -1 36 2 68 8 72 5 3 2 13 -8 23 -9 10 -20 30 -23 46
-3 16 -9 29 -14 29 -4 0 -10 8 -14 19 -9 28 -40 61 -59 61 -9 0 -16 8 -16 20
0 11 -6 20 -13 20 -7 0 -19 9 -27 20 -8 11 -20 20 -27 20 -7 0 -13 5 -13 10 0
6 -5 10 -11 10 -17 0 -49 40 -49 62 0 10 -5 18 -11 18 -13 0 -49 38 -49 52 0
4 -7 8 -15 8 -8 0 -15 5 -15 10 0 6 -7 10 -15 10 -8 0 -15 5 -15 10 0 6 -7 10
-15 10 -8 0 -15 5 -15 10 0 6 -6 10 -14 10 -8 0 -17 6 -20 13 -5 10 -7 10 -12
0 -3 -7 -14 -13 -24 -13 -10 0 -22 -9 -25 -20 -3 -11 -13 -20 -21 -20 -8 0
-14 -4 -14 -10 0 -5 -9 -10 -20 -10 -16 0 -20 7 -20 30 0 20 -5 30 -15 30 -8
0 -15 -4 -15 -10 0 -5 -14 -10 -31 -10 -30 0 -31 2 -25 30 4 23 2 30 -11 30
-18 0 -53 -37 -53 -57 0 -21 -46 -63 -70 -63 -11 0 -20 5 -20 10 0 6 -12 10
-26 10 -26 0 -54 20 -54 40 0 14 -46 60 -60 60 -5 0 -10 5 -10 10 0 6 -9 10
-20 10 -11 0 -20 5 -20 10 0 6 -7 10 -15 10 -8 0 -15 5 -15 10 0 6 -27 10 -60
10 -33 0 -60 4 -60 10 0 6 -6 10 -13 10 -11 0 -37 39 -37 55 0 3 12 5 26 5 33
0 53 21 53 56 0 65 9 176 15 181 3 4 6 0 6 -8 0 -11 2 -11 10 1 15 23 12 30
-15 30 -20 0 -25 5 -25 25 0 23 -57 95 -75 95 -12 0 -173 173 -205 220 -8 12
-27 36 -42 52 -16 17 -28 34 -28 38 0 4 -14 22 -30 40 -17 18 -30 36 -30 40 0
4 -13 22 -29 39 -17 18 -33 41 -36 52 -4 10 -12 19 -20 19 -8 0 -17 9 -20 20
-3 11 -12 20 -19 20 -7 0 -19 23 -26 51 -8 28 -16 46 -18 40 -5 -14 -46 28
-67 70 -10 18 -24 39 -31 47 -8 7 -14 18 -14 23 0 5 -5 9 -11 9 -5 0 -37 27
-69 60 -32 33 -64 60 -69 60 -6 0 -11 4 -11 9 0 18 -58 72 -63 59 -3 -7 -6 -3
-6 10 -1 12 -7 22 -14 22 -7 0 -19 9 -27 20 -8 11 -20 20 -27 20 -7 0 -13 5
-13 10 0 6 -7 10 -16 10 -17 0 -54 36 -54 52 0 4 -9 8 -20 8 -11 0 -20 5 -20
10 0 6 -7 10 -15 10 -8 0 -15 5 -15 10 0 6 -7 10 -15 10 -8 0 -15 5 -15 10 0
6 -11 10 -25 10 -14 0 -25 5 -25 10 0 6 -11 10 -25 10 -14 0 -25 5 -25 10 0 6
-7 10 -15 10 -8 0 -15 5 -15 10 0 6 -9 10 -20 10 -11 0 -20 5 -20 10 0 6 -11
10 -25 10 -14 0 -25 5 -25 10 0 6 -16 10 -35 10 -19 0 -35 5 -35 10 0 6 -52
10 -135 10 -83 0 -135 4 -135 10 0 15 -60 12 -60 -2 -1 -7 -8 0 -17 17 -19 35
-38 55 -52 55 -6 0 -11 5 -11 10 0 6 -7 10 -15 10 -8 0 -15 -4 -15 -10 0 -5
-13 -10 -29 -10 -16 0 -32 -6 -34 -12 -4 -10 -6 -10 -6 0 -1 6 -8 12 -16 12
-8 0 -15 -6 -15 -12 0 -9 -4 -8 -11 2 -8 11 -12 12 -16 3 -3 -9 -32 -13 -94
-13 -53 0 -89 -4 -89 -10 0 -5 -8 -10 -19 -10 -11 0 -23 -12 -31 -30 -7 -16
-19 -30 -26 -30 -8 0 -14 -4 -14 -10 0 -22 -34 -8 -70 30 -25 26 -47 40 -63
40 -14 0 -28 6 -30 13 -4 9 -8 8 -16 -3 -7 -10 -11 -11 -11 -2 0 8 -20 12 -65
12 -61 0 -65 2 -66 23 0 19 -2 18 -16 -10 l-16 -32 -30 32 c-19 20 -32 27 -34
20 -5 -15 -83 -18 -83 -3 0 6 -13 10 -30 10 -16 0 -30 5 -30 10 0 6 -6 10 -14
10 -8 0 -17 6 -19 13 -4 9 -6 9 -6 0 -1 -21 -29 -15 -36 7 -7 21 -25 28 -25
10 0 -18 -35 -11 -50 10 -11 15 -26 20 -57 20 -24 0 -43 5 -43 10 0 6 -6 10
-14 10 -8 0 -18 9 -21 20 -3 11 -11 20 -17 20 -6 0 -19 10 -29 22 -11 11 -19
16 -19 10 0 -20 -52 -13 -71 10 -11 11 -19 25 -19 30 0 4 -7 8 -15 8 -8 0 -15
-4 -15 -10 0 -5 -4 -10 -10 -10 -5 0 -10 9 -10 20 0 16 -7 20 -31 20 -22 0
-40 9 -60 31 -16 17 -29 35 -29 40 0 5 -10 9 -23 9 -12 0 -29 9 -37 20 -9 13
-26 20 -47 20 -18 0 -33 5 -33 10 0 6 -5 10 -11 10 -15 0 -66 56 -74 81 -4 10
-10 19 -15 19 -5 0 -12 9 -15 20 -4 13 -15 20 -30 20 -15 0 -26 7 -30 20 -4
13 -15 20 -31 20 -13 0 -24 5 -24 10 0 6 -11 10 -25 10 -14 0 -25 5 -25 10 0
6 -7 10 -15 10 -8 0 -15 5 -15 10 0 6 -8 10 -18 10 -10 0 -24 9 -32 20 -8 11
-22 20 -32 20 -10 0 -18 5 -18 10 0 6 -7 10 -15 10 -8 0 -15 5 -15 10 0 6 -9
10 -20 10 -11 0 -20 5 -20 10 0 6 -9 10 -20 10 -11 0 -20 5 -20 10 0 6 -6 10
-13 10 -7 0 -19 9 -27 20 -8 11 -22 20 -32 20 -10 0 -18 6 -18 13 0 8 -4 7
-10 -3 -6 -10 -10 -11 -10 -2 0 6 -7 12 -15 12 -10 0 -15 10 -15 30 0 19 -5
30 -14 30 -8 0 -18 9 -21 20 -3 11 -13 20 -21 20 -8 0 -14 5 -14 10 0 6 -9 10
-20 10 -11 0 -20 5 -20 10 0 6 -9 10 -20 10 -11 0 -20 5 -20 10 0 6 -5 10 -11
10 -6 0 -24 14 -39 30 -15 17 -33 30 -39 30 -6 0 -11 5 -11 10 0 6 -5 10 -11
10 -6 0 -32 23 -59 50 -27 28 -53 50 -59 50 -6 0 -11 5 -11 10 0 6 -11 10 -25
10 -14 0 -25 5 -25 10 0 6 -6 10 -13 10 -7 0 -19 9 -27 20 -8 11 -19 20 -25
20 -6 0 -17 9 -25 20 -8 11 -19 20 -24 20 -19 0 -46 43 -40 66 8 29 -16 54
-50 54 -14 0 -26 5 -26 10 0 6 -7 10 -15 10 -8 0 -15 5 -15 10 0 6 -6 10 -13
10 -7 0 -19 9 -27 20 -8 11 -18 20 -23 20 -5 0 -22 14 -37 30 -15 17 -33 30
-38 30 -6 0 -14 9 -17 20 -3 11 -13 20 -21 20 -8 0 -14 5 -14 10 0 6 -6 10
-13 10 -7 0 -19 9 -27 20 -8 11 -26 20 -40 20 -15 0 -32 9 -40 21 -8 11 -23
30 -32 41 -10 12 -18 24 -18 28 0 12 -37 50 -49 50 -6 0 -11 5 -11 10 0 6 -9
10 -20 10 -11 0 -20 5 -20 10 0 6 -11 10 -25 10 -14 0 -25 5 -25 10 0 6 -7 10
-15 10 -8 0 -15 5 -15 10 0 6 -9 10 -20 10 -11 0 -20 5 -20 10 0 6 -7 10 -15
10 -8 0 -15 5 -15 10 0 6 -7 10 -15 10 -8 0 -15 5 -15 10 0 6 -7 10 -15 10 -8
0 -15 5 -15 10 0 6 -7 10 -15 10 -8 0 -15 5 -15 10 0 6 -9 10 -20 10 -11 0
-20 5 -20 10 0 6 -11 10 -25 10 -14 0 -25 5 -25 10 0 6 -7 10 -15 10 -8 0 -15
5 -15 10 0 6 -7 10 -15 10 -8 0 -15 4 -15 8 0 5 -8 18 -17 30 -10 11 -25 30
-33 41 -10 15 -25 21 -52 21 -21 0 -38 5 -38 10 0 6 -18 10 -39 10 -30 0 -41
5 -46 19 -8 25 -40 61 -54 61 -19 0 -41 26 -41 49 0 33 -22 71 -42 71 -10 0
-18 5 -18 10 0 6 -6 10 -13 10 -7 0 -19 9 -27 20 -8 11 -20 20 -27 20 -7 0
-13 5 -13 10 0 6 -10 10 -21 10 -32 0 -59 37 -59 81 0 20 5 39 10 41 7 2 7 26
0 76 -10 70 -4 105 20 122 4 3 15 39 25 80 10 41 24 87 31 102 8 15 14 38 14
51 0 23 -29 67 -45 67 -26 0 -66 95 -50 120 3 5 -1 23 -10 39 -8 17 -15 50
-15 76 0 33 -4 45 -15 45 -8 0 -19 16 -25 40 -6 22 -15 40 -21 40 -15 0 -34
21 -53 57 -20 39 -20 38 -1 57 13 13 14 20 4 38 -7 12 -18 29 -26 36 -7 8 -11
22 -9 31 3 9 1 23 -4 31 -6 10 -10 11 -10 3 0 -19 -37 -16 -44 3 -3 9 -6 25
-6 36 0 11 -14 33 -30 48 -24 22 -30 36 -30 70 0 23 -6 48 -14 56 -8 7 -17 19
-20 26 -5 10 -7 10 -12 1 -3 -7 -12 -13 -19 -13 -16 0 -30 33 -16 38 21 7 11
22 -14 22 -14 0 -25 5 -25 10 0 6 -13 10 -30 10 -16 0 -30 5 -30 10 0 6 -17
10 -38 10 -32 0 -41 5 -50 25 -7 14 -12 32 -12 40 0 8 -7 15 -15 15 -8 0 -15
5 -15 10 0 6 -13 10 -30 10 -16 0 -30 5 -30 10 0 6 -11 10 -24 10 -13 0 -27 7
-30 16 -8 22 -8 24 8 24 8 0 18 9 21 20 3 11 14 20 23 20 10 0 24 9 32 20 8
11 21 20 30 20 9 0 22 9 30 20 8 11 20 20 27 20 7 0 17 16 22 36 5 20 19 43
30 53 11 10 27 40 36 67 27 83 37 104 49 104 6 0 18 9 26 20 8 11 20 20 27 20
7 0 13 5 13 10 0 6 14 10 31 10 30 0 61 24 99 79 9 13 25 21 42 21 15 0 28 5
28 10 0 6 11 10 25 10 14 0 25 5 25 10 0 6 11 10 25 10 14 0 25 5 25 10 0 6
11 10 25 10 14 0 25 5 25 10 0 6 11 10 25 10 14 0 25 5 25 10 0 6 20 10 45 10
25 0 45 5 45 10 0 6 12 10 26 10 17 0 40 15 72 50 64 68 67 71 92 121 13 24
26 46 30 49 18 13 30 53 30 104 0 45 4 60 24 79 13 13 33 42 45 64 17 34 18
45 9 71 -10 25 -9 33 5 47 9 9 17 23 17 31 0 8 15 30 33 49 47 50 55 60 74 99
9 20 21 36 26 36 11 0 47 39 47 52 0 4 7 8 15 8 8 0 15 4 15 8 0 5 8 18 17 30
10 11 25 30 33 41 8 12 19 21 25 21 6 0 17 9 25 20 8 11 22 20 32 20 9 0 19 8
23 19 13 43 75 84 75 49 0 -6 8 -1 19 10 10 12 23 22 29 22 6 0 14 9 17 20 4
13 15 20 31 20 40 0 51 18 46 75 l-5 50 22 -24 c23 -26 27 -41 11 -41 -5 0
-10 -4 -10 -10 0 -5 7 -10 15 -10 8 0 15 9 15 20 0 11 6 20 14 20 8 0 17 6 20
13 5 10 7 10 12 0 7 -15 34 -17 34 -3 0 6 13 10 28 10 16 0 34 8 42 20 9 13
26 20 47 20 23 0 33 5 33 15 0 9 10 26 23 39 12 13 29 33 37 45 8 11 20 21 27
21 6 0 15 9 18 20 7 22 -2 60 -14 60 -4 0 -16 18 -26 40 -13 28 -21 37 -27 28
-4 -7 -8 -8 -9 -3 -7 61 -8 93 -4 111 6 28 39 64 59 64 11 0 16 9 16 30 0 30
14 41 23 18 4 -10 6 -10 6 0 1 6 14 12 30 12 22 0 31 6 41 30 7 17 16 30 21
30 4 0 11 9 14 20 3 11 13 20 22 20 12 0 14 7 10 30 -4 18 -2 30 4 30 19 0 39
28 39 54 0 14 5 26 11 26 7 0 8 14 4 40 -4 24 -3 40 3 40 5 0 15 14 22 30 7
17 18 30 25 30 7 0 15 14 19 30 3 18 12 30 21 30 8 0 15 5 15 10 0 6 7 10 15
10 8 0 15 9 15 20 0 15 7 20 25 20 20 0 27 6 32 31 4 19 9 26 13 18 6 -9 15
-5 34 14 22 22 25 30 16 47 -9 18 -5 26 29 60 23 21 41 46 41 54 0 11 9 16 30
16 17 0 30 5 30 10 0 6 5 10 11 10 13 0 49 38 49 52 0 4 7 8 15 8 8 0 15 5 15
10 0 6 6 10 14 10 12 0 30 39 57 128 5 17 16 32 22 32 15 0 57 82 57 111 0 20
21 49 36 49 10 0 43 40 49 61 4 11 11 19 16 19 5 0 9 12 9 26 0 27 15 60 37
82 8 8 13 36 14 65 0 152 -1 182 -10 185 -6 2 -15 21 -21 42 -6 22 -17 45 -24
53 -8 7 -24 33 -36 58 -13 24 -31 51 -40 59 -21 18 -94 163 -104 205 -4 17 -9
37 -12 46 -2 9 5 26 16 39 13 14 18 30 14 39 -8 18 -6 116 2 144 3 9 12 17 20
17 8 0 14 5 14 10 0 6 5 10 11 10 20 0 35 25 48 75 27 112 32 125 46 125 8 0
15 5 15 10 0 6 5 10 11 10 17 0 43 33 64 80 14 30 24 40 42 40 12 0 23 5 23
10 0 6 9 10 20 10 11 0 20 5 20 10 0 6 5 10 11 10 13 0 49 38 49 52 0 4 7 8
15 8 8 0 15 5 15 10 0 6 9 10 20 10 11 0 20 5 20 10 0 6 9 10 20 10 11 0 20 5
20 10 0 6 11 10 24 10 16 0 27 7 31 20 3 11 10 20 15 20 5 0 11 8 15 19 9 28
40 61 59 61 9 0 16 5 16 10 0 6 9 10 20 10 11 0 20 5 20 10 0 6 7 10 15 10 8
0 15 5 15 10 0 6 9 10 20 10 11 0 20 5 20 10 0 6 6 10 13 10 7 0 19 9 27 20 8
11 20 20 27 20 7 0 13 5 13 10 0 6 7 10 15 10 8 0 15 5 15 10 0 6 9 10 20 10
11 0 20 5 20 10 0 6 16 10 35 10 19 0 35 5 35 10 0 6 6 10 13 10 7 0 19 9 27
20 8 11 22 20 32 20 10 0 18 5 18 10 0 6 7 10 15 10 8 0 15 5 15 10 0 6 16 10
35 10 19 0 35 5 35 10 0 6 9 10 20 10 11 0 20 5 20 10 0 6 7 10 15 10 8 0 15
5 15 10 0 6 6 10 13 10 7 0 19 9 27 20 8 11 22 20 32 20 10 0 18 5 18 10 0 6
9 10 20 10 11 0 20 5 20 10 0 6 7 10 15 10 8 0 15 5 15 10 0 6 6 10 13 10 7 0
19 9 27 20 8 11 20 20 27 20 7 0 13 5 13 10 0 6 8 10 18 10 10 0 24 9 32 20 8
12 26 20 42 20 15 0 28 5 28 10 0 6 7 10 15 10 8 0 15 5 15 10 0 6 11 10 24
10 26 0 44 29 25 41 -9 5 -8 11 4 23 23 23 47 20 48 -6 0 -20 2 -19 16 10 9
17 23 32 31 32 14 0 52 36 52 50 0 4 9 18 21 31 17 19 20 32 15 66 -6 45 0 73
16 73 19 0 38 29 44 72 4 23 11 52 17 63 5 10 11 36 13 57 2 21 10 50 18 66
11 21 12 39 5 80 -11 57 -4 78 37 119 24 24 74 32 74 11 0 -9 4 -8 10 2 5 8
10 30 10 48 0 33 18 62 39 62 6 0 11 5 11 10 0 6 6 10 13 10 7 0 19 9 27 20 8
11 20 20 27 20 7 0 13 5 13 10 0 6 5 10 11 10 14 0 46 36 54 61 4 11 16 19 28
19 13 0 29 9 37 20 8 11 19 20 25 20 6 0 35 49 64 109 54 108 54 109 48 179
-5 59 -3 74 12 91 10 12 26 21 35 21 10 0 16 9 17 23 0 12 3 16 6 10 5 -15 43
-18 43 -4 0 5 7 17 16 25 14 14 14 18 0 31 -8 8 -18 24 -21 35 -4 13 -15 20
-31 20 -13 0 -24 5 -24 10 0 6 -7 10 -15 10 -8 0 -15 5 -15 10 0 6 -13 10 -29
10 -21 0 -32 6 -36 20 -7 22 -55 29 -55 8 -1 -7 -7 -1 -15 13 -12 22 -12 31 0
65 8 21 14 56 15 77 0 20 5 37 10 37 6 0 10 14 10 30 0 17 5 30 10 30 6 0 10
9 10 19 0 11 6 26 13 33 8 7 17 26 21 41 3 15 13 27 20 27 17 0 31 33 17 38
-19 6 -12 40 12 65 29 28 42 110 22 131 -11 11 -11 21 1 57 11 31 14 63 9 109
-3 36 -1 81 4 99 6 19 7 37 3 40 -5 4 -8 32 -9 64 0 50 2 57 19 57 15 0 18 4
13 18 -29 68 -30 73 -16 81 10 7 10 14 -4 41 -10 19 -13 35 -7 39 8 6 32 45
32 54 0 2 -9 14 -20 27 -11 13 -20 34 -20 47 0 13 -11 35 -24 48 -20 20 -24
31 -19 60 4 28 1 39 -14 53 -26 22 -73 115 -73 143 0 12 -10 30 -22 41 -17 14
-19 21 -10 27 10 6 11 13 1 34 -7 15 -16 27 -21 27 -21 0 -55 49 -72 103 -10
31 -21 57 -25 57 -11 0 -52 90 -45 101 9 16 -5 59 -20 59 -7 0 -19 14 -26 30
-7 17 -16 30 -20 30 -4 0 -12 12 -19 26 -10 23 -9 29 10 45 19 16 20 20 6 34
-9 8 -18 15 -22 15 -4 0 -13 7 -21 15 -11 11 -12 19 -4 34 13 26 13 31 -5 31
-8 0 -15 5 -15 10 0 6 -6 10 -14 10 -19 0 -34 42 -46 135 -6 44 -15 82 -20 83
-15 5 -11 72 6 117 9 22 18 50 21 63 3 13 13 22 24 22 11 0 19 5 19 10 0 6 10
10 21 10 20 0 21 4 15 47 -3 26 -10 49 -15 52 -4 4 -16 21 -25 39 -15 29 -15
34 -2 47 8 8 17 15 21 15 13 0 32 26 39 53 9 39 -1 67 -25 67 -10 0 -19 5 -19
10 0 6 -6 10 -14 10 -7 0 -19 14 -26 30 -7 17 -19 30 -27 30 -8 0 -22 7 -30
16 -14 13 -14 17 -2 24 11 7 9 13 -10 29 -21 18 -22 22 -8 36 9 8 20 15 26 15
6 0 11 5 11 10 0 6 7 10 16 10 13 0 15 8 10 48 -10 74 -7 123 9 138 7 8 16 14
20 14 8 0 35 26 35 34 0 3 -7 6 -15 6 -11 0 -15 12 -15 50 0 46 2 50 24 50 19
0 26 8 39 47 11 33 12 50 5 54 -19 12 15 119 38 119 8 0 16 12 19 28 3 15 13
49 21 77 9 32 11 51 5 53 -6 2 -15 20 -21 41 -5 21 -19 49 -31 62 -11 13 -23
36 -26 51 -3 16 -9 28 -14 28 -5 0 -9 6 -9 13 0 27 -22 87 -31 87 -16 0 -41
29 -34 39 8 14 -26 81 -41 81 -7 0 -16 9 -19 20 -3 11 -10 20 -14 20 -11 0
-31 47 -31 75 0 13 -4 25 -9 27 -5 2 -23 32 -41 68 -18 35 -45 76 -60 90 -39
36 -75 110 -60 120 9 6 2 18 -23 44 -20 20 -39 36 -43 36 -7 0 -53 50 -74 80
-8 12 -26 35 -40 50 -14 15 -32 37 -40 49 -8 12 -18 21 -23 21 -12 0 -57 47
-57 60 0 33 -84 140 -109 140 -5 0 -13 9 -16 20 -3 11 -10 20 -15 20 -5 0 -11
8 -15 19 -7 24 -39 61 -53 61 -6 0 -13 9 -17 19 -3 11 -18 33 -33 50 -46 50
-63 75 -69 101 -3 13 -16 34 -27 47 -34 37 -42 47 -49 68 -15 49 -39 110 -62
155 -14 27 -25 56 -25 64 0 8 -4 16 -10 18 -5 2 -12 42 -14 91 -3 79 -2 87 15
87 11 0 19 5 19 10 0 6 11 10 25 10 14 0 25 5 25 10 0 6 7 10 15 10 12 0 14 7
9 27 -7 27 -26 53 -39 53 -17 0 -66 66 -75 101 -6 21 -14 39 -19 39 -4 0 -15
15 -23 34 -15 31 -15 39 -1 92 10 39 13 76 8 112 -6 46 -4 56 14 71 18 15 20
26 15 63 -5 34 -2 48 11 61 12 12 15 26 10 46 -4 20 0 42 15 72 15 29 20 53
17 75 -4 23 0 39 14 55 10 12 19 28 19 36 0 8 7 28 16 44 33 65 26 319 -10
319 -5 0 -6 25 -3 60 4 33 3 60 -2 60 -5 0 -14 14 -21 30 -7 17 -16 30 -20 30
-4 0 -11 21 -14 48 -3 26 -7 60 -9 75 -2 16 -9 32 -16 36 -8 6 -9 25 -1 78 11
79 18 103 31 103 5 0 9 7 9 15 0 13 -284 15 -2495 15 l-2495 0 0 -1815z"/>
<path fill="#ffffff" stroke="000000" stroke-width="0.01" d="M15300 33020 c0 -5 -6 -10 -13 -10 -7
0 -19 -9 -27 -20 -8 -11 -20 -20 -27 -20 -7 0 -13 -4 -13 -10 0 -5 -7 -10 -15
-10 -8 0 -15 -4 -15 -10 0 -5 -7 -10 -15 -10 -8 0 -15 -4 -15 -10 0 -5 -6 -10
-14 -10 -7 0 -19 -13 -26 -30 -7 -16 -16 -30 -21 -30 -4 0 -11 -9 -14 -20 -3
-11 -13 -20 -21 -20 -8 0 -14 -4 -14 -10 0 -5 -7 -10 -15 -10 -8 0 -15 -4 -15
-10 0 -5 -7 -10 -15 -10 -8 0 -15 -4 -15 -10 0 -5 -7 -10 -15 -10 -8 0 -15 -4
-15 -10 0 -5 -9 -10 -20 -10 -11 0 -20 -4 -20 -10 0 -5 -11 -10 -25 -10 -14 0
-25 -4 -25 -10 0 -5 -9 -10 -20 -10 -11 0 -20 -4 -20 -10 0 -5 -7 -10 -15 -10
-8 0 -15 -7 -15 -15 0 -8 -6 -29 -14 -47 -8 -18 -22 -52 -32 -75 -9 -24 -20
-43 -24 -43 -4 0 -13 -13 -20 -30 -10 -24 -9 -57 5 -177 10 -82 25 -161 34
-178 10 -20 16 -61 17 -125 1 -101 8 -163 28 -275 10 -58 13 -239 7 -426 -1
-14 -10 -36 -21 -49 -12 -13 -20 -37 -20 -57 0 -19 -4 -43 -10 -53 -13 -25 -3
-50 21 -50 10 0 19 -4 19 -10 0 -5 5 -10 11 -10 27 0 60 -59 79 -140 15 -65
25 -86 56 -117 14 -14 25 -39 28 -65 22 -194 29 -267 36 -363 9 -114 27 -228
54 -330 8 -33 20 -99 25 -147 6 -48 15 -96 21 -107 5 -11 10 -31 10 -46 0 -28
52 -241 76 -313 8 -25 14 -84 15 -140 1 -164 18 -232 59 -232 12 0 70 -57 70
-69 0 -3 6 -49 14 -101 8 -52 19 -178 26 -280 6 -102 13 -194 16 -206 4 -25
37 -64 54 -64 6 0 25 -13 40 -30 17 -18 38 -30 54 -30 14 0 26 -4 26 -10 0 -5
6 -10 13 -10 7 0 19 -9 27 -20 8 -11 22 -20 32 -20 10 0 18 -4 18 -10 0 -5 14
-10 30 -10 17 0 30 -4 30 -10 0 -5 6 -10 13 -10 30 0 70 -136 87 -295 6 -55
13 -119 16 -142 5 -41 31 -83 53 -83 6 0 11 -4 11 -10 0 -5 6 -10 14 -10 7 0
19 -14 26 -30 7 -17 25 -44 40 -60 23 -25 36 -30 74 -30 25 0 46 5 46 10 0 6
7 10 15 10 8 0 15 5 15 10 0 6 14 10 30 10 17 0 30 5 30 10 0 6 9 10 20 10 11
0 20 5 20 10 0 6 16 10 35 10 19 0 35 -4 35 -10 0 -5 7 -10 15 -10 8 0 15 -4
15 -10 0 -5 7 -10 15 -10 8 0 15 -4 15 -10 0 -5 7 -10 15 -10 8 0 15 -4 15
-10 0 -5 9 -10 20 -10 11 0 20 -4 20 -10 0 -5 9 -10 20 -10 11 0 20 -4 20 -10
0 -5 7 -10 15 -10 8 0 15 -4 15 -10 0 -5 9 -10 20 -10 11 0 20 -4 20 -10 0 -5
11 -10 25 -10 14 0 25 -4 25 -10 0 -5 9 -10 20 -10 11 0 20 -4 20 -10 0 -5 18
-10 40 -10 22 0 40 -4 40 -10 0 -5 14 -10 30 -10 17 0 30 -4 30 -10 0 -5 8
-10 18 -10 10 0 24 -9 32 -21 8 -12 26 -34 40 -50 14 -15 36 -42 50 -58 14
-17 31 -31 38 -31 6 0 12 -4 12 -10 0 -5 7 -10 15 -10 8 0 15 -4 15 -10 0 -5
9 -10 20 -10 11 0 20 -4 20 -10 0 -5 9 -10 20 -10 11 0 20 -4 20 -10 0 -5 7
-10 15 -10 8 0 15 -4 15 -10 0 -5 11 -10 25 -10 14 0 25 -4 25 -10 0 -5 9 -10
20 -10 11 0 20 -4 20 -10 0 -5 7 -10 15 -10 8 0 15 -4 15 -10 0 -5 5 -10 10
-10 16 0 56 -42 76 -81 10 -20 19 -61 20 -99 3 -62 34 -167 52 -179 5 -3 22
-31 37 -61 15 -30 31 -57 35 -60 4 -3 15 -21 25 -40 10 -19 21 -37 25 -40 4
-3 24 -38 45 -79 20 -41 43 -81 51 -88 8 -8 14 -34 14 -59 0 -25 5 -55 11 -66
13 -24 55 -68 65 -68 13 0 44 -43 46 -64 3 -52 -14 -107 -46 -143 -6 -7 -17
-20 -25 -28 -13 -17 -44 -91 -62 -152 -5 -18 -16 -38 -23 -46 -7 -7 -21 -28
-31 -46 -22 -43 -59 -81 -80 -81 -8 0 -15 -4 -15 -10 0 -5 -11 -10 -25 -10
-14 0 -25 -4 -25 -10 0 -5 -6 -10 -13 -10 -7 0 -19 -9 -27 -20 -8 -11 -20 -20
-27 -20 -7 0 -13 -4 -13 -10 0 -5 -7 -10 -15 -10 -8 0 -15 -4 -15 -10 0 -5 -5
-10 -11 -10 -19 0 -36 -25 -83 -119 -36 -71 -64 -109 -121 -167 -41 -40 -77
-74 -81 -74 -3 0 -23 -18 -44 -40 -21 -22 -41 -40 -45 -40 -13 0 -62 -59 -75
-90 -7 -16 -16 -30 -20 -30 -4 0 -13 -13 -20 -30 -7 -16 -16 -30 -21 -30 -4 0
-11 -9 -14 -21 -4 -11 -26 -40 -50 -64 -24 -24 -56 -67 -70 -96 -29 -57 -47
-79 -64 -79 -6 0 -11 -4 -11 -10 0 -5 -5 -10 -11 -10 -6 0 -24 -13 -39 -30
-15 -16 -32 -30 -37 -30 -5 0 -15 -10 -23 -21 -8 -12 -20 -27 -27 -34 -6 -6
-28 -45 -48 -85 -38 -76 -56 -100 -74 -100 -6 0 -11 -4 -11 -10 0 -5 -5 -10
-11 -10 -12 0 -32 -21 -59 -60 -8 -12 -31 -39 -50 -60 -19 -21 -42 -48 -50
-60 -25 -37 -67 -80 -79 -80 -6 0 -11 -4 -11 -10 0 -5 -5 -10 -11 -10 -10 0
-108 -98 -142 -142 -10 -12 -21 -34 -24 -48 -9 -36 -71 -158 -94 -183 -32 -36
-93 -105 -106 -120 -30 -37 -113 -250 -113 -291 0 -7 -9 -23 -20 -36 -11 -13
-20 -27 -20 -31 0 -4 -17 -26 -37 -48 -21 -22 -49 -54 -63 -70 -14 -17 -31
-31 -37 -31 -7 0 -13 -4 -13 -10 0 -5 -13 -10 -30 -10 -16 0 -30 -4 -30 -10 0
-5 -13 -10 -30 -10 -16 0 -30 -4 -30 -10 0 -5 -5 -10 -11 -10 -11 0 -53 -41
-79 -79 -8 -12 -20 -21 -27 -21 -7 0 -13 -4 -13 -10 0 -5 -6 -10 -13 -10 -7 0
-19 -9 -27 -21 -8 -12 -27 -35 -41 -51 -15 -17 -32 -36 -38 -44 -21 -26 -4
-93 35 -132 16 -16 17 -30 4 -179 -10 -122 -23 -185 -44 -206 -62 -62 -61
-187 2 -314 22 -43 43 -94 47 -113 8 -36 32 -91 45 -100 13 -9 33 -53 45 -101
10 -37 10 -65 0 -135 -7 -49 -11 -134 -10 -189 5 -164 -18 -337 -50 -369 -28
-27 -47 -102 -66 -251 -35 -278 -39 -310 -39 -370 -1 -33 -8 -78 -16 -100 -9
-22 -19 -60 -23 -85 -4 -25 -13 -56 -21 -70 -7 -13 -19 -45 -26 -70 -20 -68
-63 -189 -79 -220 -16 -32 -38 -94 -55 -157 -6 -26 -17 -43 -25 -43 -8 0 -15
-4 -15 -10 0 -5 -11 -10 -25 -10 -14 0 -25 -4 -25 -10 0 -6 -27 -10 -60 -10
-33 0 -60 -4 -60 -10 0 -5 -12 -10 -26 -10 -42 0 -67 -36 -60 -88 3 -24 11
-49 18 -56 7 -8 20 -23 28 -35 8 -11 19 -21 24 -21 20 0 45 -45 51 -88 3 -26
10 -77 15 -114 6 -37 10 -85 10 -108 0 -22 9 -59 21 -82 16 -32 19 -51 14 -84
-3 -24 -10 -44 -14 -44 -22 0 -38 -70 -66 -300 -9 -69 -20 -141 -25 -160 -6
-19 -10 -53 -10 -75 0 -72 -57 -352 -80 -396 -25 -45 -50 -164 -60 -284 -12
-135 -27 -241 -42 -300 -26 -107 -31 -149 -19 -198 21 -92 15 -129 -38 -235
-32 -64 -54 -126 -65 -181 -19 -92 -27 -113 -60 -147 -43 -45 -54 -67 -61
-119 -3 -30 -15 -78 -26 -107 -10 -29 -19 -69 -19 -88 0 -45 -17 -106 -34
-123 -8 -7 -17 -29 -21 -48 -4 -19 -15 -50 -25 -69 -9 -19 -20 -48 -24 -64 -8
-31 9 -86 26 -86 11 0 88 -78 88 -89 0 -4 8 -17 18 -29 9 -11 24 -30 32 -42 8
-12 21 -28 28 -36 6 -7 12 -31 12 -54 0 -44 17 -70 45 -70 14 0 16 -6 10 -27
-9 -37 -9 -66 4 -138 7 -44 7 -69 -1 -92 -9 -24 -9 -49 -2 -90 19 -107 0 -258
-38 -297 -7 -7 -20 -24 -28 -36 -8 -13 -29 -37 -47 -55 -17 -18 -39 -48 -48
-66 -10 -18 -24 -40 -32 -48 -18 -17 -14 -66 15 -168 18 -66 55 -123 80 -123
19 0 60 -127 77 -240 10 -66 50 -180 91 -262 40 -79 55 -98 78 -98 9 0 16 -4
16 -10 0 -5 11 -10 25 -10 14 0 25 -4 25 -10 0 -5 14 -10 31 -10 35 0 49 -12
74 -60 20 -39 39 -60 54 -60 6 0 11 -4 11 -10 0 -5 11 -10 25 -10 14 0 25 -4
25 -9 0 -5 13 -23 29 -40 18 -19 39 -63 56 -118 30 -94 68 -178 91 -201 8 -7
14 -18 14 -23 0 -5 5 -9 11 -9 6 0 32 -22 59 -50 40 -42 55 -50 84 -50 20 0
36 -4 36 -10 0 -5 11 -10 25 -10 14 0 25 -4 25 -10 0 -6 35 -10 85 -10 50 0
85 4 85 10 0 6 38 10 95 10 57 0 95 -4 95 -10 0 -5 8 -10 18 -10 10 0 24 -9
32 -20 8 -11 19 -20 24 -20 8 0 17 -9 68 -73 13 -16 33 -38 44 -51 25 -26 43
-58 54 -95 5 -14 17 -49 28 -77 11 -29 25 -76 32 -105 12 -52 32 -100 51 -123
40 -48 49 -61 54 -77 4 -11 10 -19 14 -19 4 0 16 -19 25 -42 33 -79 111 -241
122 -253 7 -6 24 -35 39 -64 41 -81 65 -101 123 -101 47 0 48 1 70 45 28 58
29 124 2 155 -11 13 -20 29 -20 37 0 16 27 71 44 89 6 6 18 21 26 33 8 11 20
21 27 21 7 0 13 5 13 10 0 6 11 10 25 10 14 0 25 5 25 10 0 6 14 10 30 10 17
0 30 -4 30 -10 0 -5 11 -10 25 -10 14 0 25 -4 25 -10 0 -5 11 -10 25 -10 14 0
25 -4 25 -10 0 -5 11 -10 25 -10 14 0 25 5 25 10 0 6 8 10 18 10 10 0 24 9 32
20 15 21 70 28 70 10 0 -5 5 -10 11 -10 18 0 109 -100 115 -128 10 -42 34 -84
64 -112 39 -37 52 -66 55 -129 4 -76 28 -175 47 -195 9 -9 24 -16 34 -16 19 0
50 -32 59 -61 4 -11 10 -19 15 -19 4 0 11 -17 15 -37 3 -20 23 -68 43 -107
l37 -71 1 -155 c0 -119 4 -164 16 -195 17 -42 38 -198 38 -280 0 -54 -28 -113
-75 -161 -42 -42 -57 -91 -43 -141 14 -52 4 -112 -33 -185 -17 -35 -35 -65
-39 -68 -4 -3 -13 -16 -20 -29 -13 -25 -28 -43 -97 -115 -23 -24 -49 -59 -58
-76 -18 -35 -22 -40 -66 -90 -16 -18 -29 -36 -29 -41 0 -5 -5 -9 -11 -9 -5 0
-37 -27 -69 -60 -32 -33 -66 -60 -74 -60 -9 0 -16 -4 -16 -10 0 -5 -6 -10 -12
-10 -7 0 -24 -14 -38 -31 -14 -16 -45 -52 -70 -79 -67 -73 -65 -70 -114 -169
-25 -50 -46 -104 -46 -120 0 -36 -9 -61 -22 -61 -5 0 -26 -18 -46 -40 -76 -82
-98 -121 -82 -149 18 -35 10 -111 -12 -111 -15 0 -64 -56 -78 -90 -7 -16 -17
-30 -22 -30 -14 0 -33 -22 -53 -60 -10 -19 -23 -39 -29 -46 -6 -6 -18 -21 -26
-33 -8 -11 -20 -21 -27 -21 -7 0 -13 -4 -13 -10 0 -5 -13 -10 -30 -10 -16 0
-30 -4 -30 -10 0 -5 -5 -10 -11 -10 -34 0 -59 -56 -66 -148 -5 -66 -3 -84 15
-118 26 -51 46 -158 38 -206 -7 -43 1 -68 20 -68 8 0 14 -4 14 -10 0 -5 7 -10
15 -10 8 0 15 -4 15 -10 0 -5 6 -10 14 -10 7 0 19 -12 25 -27 9 -23 41 -181
41 -205 0 -4 11 -18 24 -31 13 -13 31 -38 40 -55 25 -48 48 -343 46 -580 -2
-209 5 -262 38 -262 23 0 50 -37 57 -81 4 -21 10 -39 14 -39 8 0 51 -85 51
-101 0 -14 26 -39 41 -39 12 0 49 -38 49 -50 0 -5 13 -22 29 -39 17 -18 33
-41 36 -52 4 -11 15 -19 28 -19 13 0 29 -9 37 -20 8 -11 22 -20 32 -20 22 0
33 -41 19 -68 -11 -20 -6 -52 8 -52 9 0 41 -66 41 -84 0 -8 13 -28 29 -45 22
-24 38 -31 65 -31 20 0 36 -4 36 -10 0 -5 9 -10 20 -10 11 0 20 -4 20 -10 0
-5 11 -10 25 -10 14 0 25 -4 25 -10 0 -5 7 -10 15 -10 8 0 15 -4 15 -10 0 -5
11 -10 25 -10 14 0 25 -4 25 -10 0 -5 18 -10 40 -10 22 0 40 -4 40 -10 0 -5 7
-10 15 -10 8 0 15 -4 15 -10 0 -5 9 -10 20 -10 11 0 20 -4 20 -10 0 -5 10 -10
21 -10 27 0 59 -35 66 -72 5 -27 7 -28 74 -28 39 0 69 -4 69 -10 0 -5 20 -10
45 -10 25 0 45 -4 45 -10 0 -5 9 -10 20 -10 11 0 20 -4 20 -10 0 -5 25 -10 55
-10 30 0 55 -4 55 -10 0 -5 21 -10 46 -10 38 0 51 -5 74 -30 25 -26 35 -30 84
-30 31 0 56 -4 56 -10 0 -5 11 -10 25 -10 14 0 25 -4 25 -10 0 -5 11 -10 25
-10 14 0 25 -4 25 -10 0 -5 9 -10 20 -10 11 0 20 -4 20 -10 0 -5 11 -10 25
-10 14 0 25 -4 25 -10 0 -5 6 -10 13 -10 7 0 19 -9 27 -21 28 -39 47 -59 59
-59 6 0 11 -4 11 -10 0 -5 7 -10 16 -10 32 0 70 -62 79 -131 13 -91 11 -89 58
-89 42 0 44 -1 67 -50 13 -28 29 -50 37 -50 7 0 13 -4 13 -10 0 -5 18 -10 40
-10 37 0 40 -2 50 -40 11 -40 11 -40 60 -40 28 0 50 -4 50 -10 0 -5 14 -10 30
-10 25 0 44 14 100 72 39 40 92 96 119 124 27 29 54 61 60 73 16 30 3 146 -19
171 -10 11 -23 34 -30 50 -7 17 -16 30 -20 30 -4 0 -13 14 -20 30 -7 17 -17
30 -22 30 -12 0 -88 78 -88 90 0 5 -6 15 -14 23 -8 7 -31 47 -51 88 -21 41
-41 76 -45 79 -4 3 -15 20 -25 39 -20 40 -13 121 11 121 8 0 14 5 14 10 0 6
11 10 25 10 14 0 25 5 25 10 0 6 7 10 15 10 8 0 15 -4 15 -10 0 -5 14 -10 30
-10 17 0 30 5 30 10 0 6 23 10 50 10 28 0 50 5 50 10 0 6 7 10 15 10 8 0 15 5
15 10 0 6 6 10 13 10 7 0 19 9 27 20 8 11 20 20 27 20 7 0 13 5 13 10 0 6 7
10 15 10 8 0 15 5 15 10 0 6 16 10 35 10 19 0 35 5 35 10 0 6 16 10 35 10 19
0 35 5 35 10 0 6 9 10 20 10 11 0 20 5 20 10 0 6 11 10 25 10 14 0 25 5 25 10
0 6 23 10 50 10 33 0 50 4 50 13 0 9 3 8 9 -2 7 -11 10 -9 16 8 3 11 10 21 14
21 5 0 14 14 21 30 7 17 16 30 19 30 4 0 15 15 23 34 14 29 15 38 3 72 -8 22
-14 54 -15 72 0 18 -9 50 -20 72 -11 22 -20 59 -20 85 0 26 -5 45 -11 45 -6 0
-24 14 -39 30 -22 24 -36 30 -69 30 -23 0 -41 -4 -41 -10 0 -5 -9 -10 -20 -10
-11 0 -20 -4 -20 -10 0 -5 -7 -10 -15 -10 -8 0 -15 -4 -15 -10 0 -5 -9 -10
-20 -10 -11 0 -20 -4 -20 -10 0 -6 -34 -10 -83 -10 -71 0 -85 3 -97 20 -8 11
-20 20 -27 20 -7 0 -13 5 -13 10 0 6 -11 10 -25 10 -14 0 -25 5 -25 10 0 6
-13 10 -28 10 -17 0 -33 8 -42 21 -31 43 -69 79 -85 79 -17 0 -95 74 -95 91 0
5 -5 9 -11 9 -6 0 -24 14 -39 30 -15 17 -33 30 -39 30 -6 0 -11 5 -11 10 0 6
-7 10 -16 10 -15 0 -114 94 -114 109 0 17 -39 51 -59 51 -11 0 -21 5 -21 10 0
6 -5 10 -11 10 -6 0 -28 18 -49 40 -21 22 -43 40 -49 40 -6 0 -11 5 -11 10 0
6 -5 10 -10 10 -19 0 -62 50 -71 84 -10 35 -40 76 -55 76 -5 0 -16 9 -24 20
-8 11 -20 20 -27 20 -7 0 -13 5 -13 10 0 6 -9 10 -20 10 -11 0 -20 5 -20 10 0
6 -9 10 -21 10 -25 0 -41 15 -64 60 -19 37 -39 60 -52 60 -5 0 -15 9 -23 21
-8 11 -22 29 -30 39 -8 10 -22 28 -30 40 -8 12 -23 31 -32 42 -10 12 -18 25
-18 29 0 4 -11 19 -24 32 -14 14 -41 58 -62 98 -20 41 -40 76 -44 79 -4 3 -13
16 -20 29 -14 27 -16 30 -57 78 -16 18 -39 46 -53 63 -44 54 -78 90 -85 90
-14 0 -37 31 -46 62 -5 18 -7 54 -4 79 7 52 -9 94 -51 136 -13 13 -24 28 -24
33 0 6 -7 10 -15 10 -8 0 -15 5 -15 10 0 6 -11 10 -23 10 -27 0 -47 34 -47 80
0 32 19 80 31 80 4 0 10 8 14 19 3 10 14 28 24 40 10 11 24 49 31 83 21 109
29 134 50 158 11 13 20 27 20 32 0 4 7 8 15 8 8 0 15 5 15 10 0 6 7 10 16 10
8 0 21 6 29 13 21 21 53 90 60 131 4 21 18 48 30 61 13 12 35 46 50 75 27 54
66 100 85 100 5 0 10 5 10 10 0 6 5 10 11 10 19 0 68 60 78 96 10 35 32 64 49
64 5 0 15 15 21 33 7 17 30 70 52 116 29 60 43 105 48 154 4 37 12 72 18 75
35 23 50 123 29 187 -21 60 -21 157 0 198 20 37 38 57 54 57 26 0 76 85 110
189 10 31 29 81 42 111 19 47 22 69 20 157 -4 124 8 172 55 219 40 40 73 120
73 177 0 21 7 51 15 67 11 22 14 48 9 102 -10 131 -35 213 -74 248 -9 8 -29
38 -44 67 -20 41 -26 67 -26 117 0 35 4 66 9 68 17 6 62 111 68 157 4 35 0 57
-14 87 -11 21 -23 51 -26 65 -7 26 -58 89 -72 89 -4 0 -20 14 -35 30 -15 17
-32 30 -37 30 -5 0 -15 9 -23 21 -8 11 -23 30 -32 41 -10 11 -20 29 -23 39 -4
11 -10 19 -15 19 -5 0 -12 9 -15 20 -4 11 -17 31 -30 44 -13 13 -31 38 -40 56
-9 18 -31 47 -48 65 -18 18 -39 42 -47 55 -8 13 -34 42 -57 65 -23 24 -49 58
-58 75 -19 36 -21 40 -64 88 -19 20 -38 32 -55 32 -14 0 -26 5 -26 10 0 6 -16
10 -35 10 -19 0 -35 5 -35 10 0 6 -6 10 -14 10 -8 0 -18 9 -21 20 -3 11 -10
20 -15 20 -5 0 -12 9 -15 20 -4 11 -29 43 -56 71 -35 36 -49 58 -49 79 0 28
-47 90 -69 90 -6 0 -11 5 -11 10 0 6 -13 10 -30 10 -16 0 -30 5 -30 10 0 6
-11 10 -25 10 -14 0 -25 5 -25 10 0 6 -9 10 -20 10 -11 0 -20 5 -20 10 0 6 -5
10 -11 10 -6 0 -32 23 -59 50 -27 28 -56 50 -64 50 -9 0 -16 5 -16 10 0 6 -20
10 -45 10 -25 0 -45 5 -45 10 0 6 -6 10 -13 10 -8 0 -21 17 -30 38 -15 36 -20
52 -48 152 -7 25 -25 70 -39 100 -15 30 -34 81 -44 112 -25 80 -43 98 -100 98
-26 0 -53 6 -61 13 -20 21 -55 94 -55 117 0 27 -26 77 -56 107 -27 27 -28 34
-14 82 8 29 5 42 -26 104 -40 78 -55 97 -78 97 -9 0 -16 5 -16 10 0 6 -9 10
-20 10 -11 0 -20 5 -20 10 0 6 -11 10 -25 10 -14 0 -25 5 -25 10 0 6 -13 10
-30 10 -16 0 -30 5 -30 10 0 6 -9 10 -20 10 -11 0 -20 5 -20 10 0 6 -7 10 -15
10 -8 0 -15 5 -15 10 0 6 -13 10 -30 10 -16 0 -30 5 -30 10 0 6 -5 10 -11 10
-25 0 -43 36 -50 100 -7 60 -46 164 -69 180 -30 21 -70 171 -70 269 0 75 18
168 47 234 12 28 22 37 40 37 12 0 23 5 23 10 0 6 7 10 16 10 16 0 54 36 54
50 0 13 57 70 69 70 6 0 11 5 11 10 0 6 6 10 13 10 7 0 19 9 27 20 8 11 20 20
27 20 7 0 13 5 13 10 0 6 23 10 50 10 28 0 50 5 50 10 0 6 21 10 46 10 39 0
51 -5 75 -31 16 -17 29 -26 29 -20 0 6 15 11 33 11 31 0 36 5 57 51 29 62 52
89 74 89 9 0 16 5 16 10 0 6 55 10 145 10 90 0 145 4 145 10 0 6 16 10 36 10
41 0 54 10 84 70 23 45 26 49 71 100 16 18 29 36 29 41 0 5 9 9 19 9 11 0 22
6 25 13 5 10 7 10 12 0 7 -15 64 -18 64 -3 0 6 9 10 20 10 11 0 20 5 20 10 0
6 27 10 60 10 33 0 60 -4 60 -10 0 -5 7 -10 15 -10 8 0 15 -4 15 -10 0 -5 7
-10 15 -10 8 0 15 -4 15 -10 0 -5 5 -10 11 -10 12 0 54 -43 79 -80 41 -61 67
-80 109 -80 23 0 41 -4 41 -10 0 -5 5 -10 11 -10 14 0 32 -19 49 -50 15 -27
22 -36 72 -90 20 -22 40 -49 43 -60 4 -11 10 -20 14 -20 4 0 16 -18 26 -40 17
-38 20 -40 62 -40 23 0 43 -4 43 -10 0 -6 40 -10 100 -10 60 0 100 4 100 10 0
6 9 10 20 10 11 0 20 5 20 10 0 6 9 10 20 10 11 0 20 5 20 10 0 6 7 10 16 10
17 0 35 18 64 60 8 13 35 44 60 70 25 26 52 57 60 69 8 11 20 21 27 21 7 0 13
5 13 10 0 6 7 10 15 10 8 0 15 5 15 10 0 6 18 10 40 10 22 0 40 5 40 10 0 6 6
10 13 10 7 0 19 9 27 20 8 11 22 20 32 20 10 0 18 5 18 10 0 6 11 10 25 10 14
0 25 5 25 10 0 6 32 10 75 10 43 0 75 -4 75 -10 0 -5 11 -10 25 -10 14 0 25
-4 25 -10 0 -5 7 -10 15 -10 8 0 15 -4 15 -10 0 -5 9 -10 20 -10 11 0 20 -4
20 -10 0 -5 5 -10 11 -10 13 0 69 -58 69 -71 0 -4 11 -19 24 -32 68 -68 152
-302 222 -621 9 -39 26 -90 39 -115 12 -26 30 -82 39 -126 25 -125 34 -151 65
-184 29 -31 51 -40 51 -21 0 6 20 10 45 10 25 0 45 5 45 10 0 6 14 10 31 10
23 0 40 10 69 40 21 22 42 49 45 60 4 11 13 20 21 20 8 0 14 5 14 10 0 6 9 10
20 10 11 0 20 5 20 10 0 6 7 10 15 10 8 0 15 5 15 10 0 6 7 10 15 10 8 0 15 5
15 10 0 6 5 10 10 10 14 0 54 40 70 71 7 13 21 53 31 89 24 90 54 167 73 185
21 22 20 47 -3 73 -18 21 -38 143 -26 161 2 5 5 98 6 208 2 197 1 199 -25 252
-15 29 -36 63 -47 75 -75 82 -89 106 -130 215 -7 18 -33 54 -58 80 -26 26 -55
68 -65 92 -10 24 -25 60 -34 79 -17 38 -26 260 -11 260 5 0 11 11 15 24 4 19
-1 31 -19 50 -19 19 -26 39 -31 95 l-7 71 -80 0 c-46 0 -79 -4 -79 -10 0 -5
-6 -10 -14 -10 -9 0 -15 -23 -20 -82 -8 -102 -19 -147 -53 -220 -24 -51 -30
-58 -56 -58 -19 0 -38 10 -57 30 -15 17 -33 30 -39 30 -6 0 -11 5 -11 10 0 6
-8 10 -18 10 -10 0 -24 10 -32 21 -20 29 -127 139 -135 139 -4 0 -20 14 -35
30 -15 17 -33 30 -39 30 -6 0 -11 5 -11 10 0 6 -5 10 -11 10 -6 0 -27 18 -47
40 -50 54 -57 63 -72 90 -7 14 -18 30 -24 36 -6 6 -18 21 -26 33 -8 11 -20 21
-27 21 -7 0 -13 5 -13 10 0 6 -7 10 -15 10 -8 0 -15 5 -15 10 0 6 -25 10 -55
10 -30 0 -55 5 -55 10 0 6 -57 10 -150 10 -93 0 -150 4 -150 10 0 6 -9 10 -20
10 -11 0 -20 5 -20 10 0 6 -6 10 -13 10 -7 0 -19 9 -27 20 -8 11 -20 20 -27
20 -7 0 -13 5 -13 10 0 6 -16 10 -35 10 -19 0 -35 5 -35 10 0 6 -18 10 -40 10
-22 0 -40 5 -40 10 0 6 -23 10 -50 10 -65 0 -93 26 -120 110 -22 70 -37 100
-60 120 -28 25 -40 56 -40 107 0 49 -13 106 -48 203 -19 54 -51 189 -72 305
-7 33 -15 121 -20 195 -5 74 -14 194 -19 265 -39 484 -36 547 33 793 20 73 41
296 39 413 -1 91 -4 101 -42 176 l-40 80 -12 184 c-7 101 -12 195 -12 209 7
245 16 377 29 435 8 39 19 106 24 150 4 44 15 98 23 120 9 22 16 54 17 71 0
17 9 60 20 94 11 34 20 71 20 81 0 10 4 28 10 41 5 13 14 42 20 65 6 22 23 55
38 72 15 17 38 44 52 60 20 24 33 30 63 31 20 0 37 5 37 10 0 6 16 10 35 10
19 0 35 5 35 10 0 6 7 10 15 10 8 0 15 5 15 10 0 6 6 10 14 10 15 0 26 21 26
51 0 25 -47 119 -70 139 -26 23 -40 55 -40 91 0 51 50 354 77 469 15 60 76
198 93 210 4 3 20 29 35 59 37 75 48 84 66 59 35 -49 47 -58 83 -58 20 0 36
-4 36 -10 0 -5 11 -10 25 -10 14 0 25 -4 25 -10 0 -5 7 -10 15 -10 8 0 15 -4
15 -10 0 -5 7 -10 15 -10 8 0 15 -4 15 -10 0 -18 55 -11 70 10 8 11 21 20 29
20 37 0 85 116 96 235 9 90 12 100 45 136 44 49 46 53 65 89 10 19 23 40 31
47 15 15 84 18 84 3 0 -5 6 -10 13 -10 7 0 27 -28 43 -61 32 -67 55 -99 73
-99 6 0 11 -4 11 -10 0 -5 7 -10 16 -10 9 0 29 -13 44 -30 17 -18 38 -30 54
-30 14 0 26 -4 26 -10 0 -5 7 -10 15 -10 8 0 15 5 15 10 0 6 9 10 20 10 11 0
20 5 20 10 0 6 20 10 45 10 25 0 45 -4 45 -10 0 -5 14 -10 31 -10 23 0 40 -10
69 -40 21 -22 43 -40 49 -40 6 0 11 -4 11 -10 0 -5 6 -10 13 -10 13 0 40 -47
60 -105 5 -16 10 -64 11 -106 1 -56 6 -80 18 -92 38 -38 53 -16 97 143 10 36
26 85 35 110 9 25 25 70 35 101 11 30 44 106 76 168 37 75 58 130 62 165 3 28
12 64 20 80 16 31 77 96 90 96 5 0 15 9 23 20 8 11 20 20 27 20 7 0 13 5 13
10 0 15 57 12 63 -2 4 -10 6 -10 6 0 1 6 12 12 26 12 14 0 25 6 26 13 1 6 0
113 -2 237 -5 302 -4 329 9 520 15 197 16 203 46 233 13 13 29 33 35 45 17 32
13 99 -9 142 -11 22 -20 53 -20 70 0 17 -9 49 -21 71 -11 22 -24 75 -29 117
-14 117 -40 201 -74 239 -6 7 -16 19 -23 27 -35 42 -132 260 -152 341 -24 101
-40 145 -51 145 -4 0 -10 10 -13 23 -8 32 -73 273 -90 332 -8 28 -24 70 -37
94 -19 38 -23 69 -30 200 -11 205 -28 316 -55 371 -12 25 -29 72 -39 105 -17
60 -41 122 -78 205 -12 25 -26 66 -33 92 -7 26 -20 54 -28 62 -8 8 -22 39 -31
68 -29 94 -68 168 -88 168 -10 0 -18 5 -18 10 0 6 -6 10 -13 10 -7 0 -19 9
-27 20 -8 11 -20 20 -27 20 -7 0 -13 5 -13 10 0 6 -7 10 -15 10 -8 0 -15 -4
-15 -10 0 -5 -11 -10 -25 -10 -14 0 -25 -4 -25 -10 0 -5 -7 -10 -15 -10 -8 0
-15 -4 -15 -10 0 -5 -5 -10 -11 -10 -10 0 -34 -24 -75 -73 -6 -7 -17 -24 -24
-37 -25 -47 -80 -88 -80 -60 0 6 -9 10 -20 10 -11 0 -20 5 -20 10 0 6 -16 10
-35 10 -19 0 -35 5 -35 10 0 6 -7 10 -15 10 -8 0 -15 5 -15 10 0 6 -7 10 -15
10 -8 0 -15 5 -15 10 0 6 -11 10 -25 10 -14 0 -25 5 -25 10 0 6 -5 10 -11 10
-12 0 -49 38 -49 50 0 12 -37 50 -49 50 -6 0 -11 5 -11 10 0 6 -5 10 -11 10
-26 0 -69 78 -69 127 0 6 -21 34 -47 61 -27 27 -55 59 -63 71 -8 11 -25 21
-37 21 -13 0 -23 5 -23 10 0 6 -30 10 -70 10 -40 0 -70 4 -70 10 0 6 -11 10
-25 10 -14 0 -25 5 -25 10 0 6 -7 10 -15 10 -8 0 -15 5 -15 10 0 6 -7 10 -15
10 -8 0 -15 5 -15 10 0 6 -7 10 -15 10 -8 0 -15 5 -15 10 0 6 -7 10 -15 10 -8
0 -15 5 -15 10 0 6 -5 10 -11 10 -6 0 -24 14 -39 30 -15 17 -35 30 -44 30 -9
0 -16 5 -16 10 0 6 -7 10 -15 10 -8 0 -15 5 -15 10 0 6 -7 10 -15 10 -8 0 -15
5 -15 10 0 6 -8 10 -18 10 -10 0 -24 9 -32 21 -28 39 -47 59 -59 59 -6 0 -11
5 -11 10 0 6 -5 10 -11 10 -11 0 -75 64 -99 100 -8 12 -20 28 -26 34 -6 7 -15
28 -19 47 -19 85 -62 199 -76 199 -4 0 -11 9 -14 20 -4 11 -32 47 -63 80 -75
78 -76 80 -102 131 -13 24 -26 46 -30 49 -4 3 -18 25 -30 50 -12 25 -26 47
-30 50 -17 12 -31 54 -26 75 6 23 -21 65 -43 65 -6 0 -11 5 -11 10 0 6 -16 10
-36 10 -27 0 -43 7 -64 30 -39 42 -83 42 -100 -1 -12 -27 -11 -36 8 -75 27
-55 32 -174 7 -174 -8 0 -15 -4 -15 -10 0 -14 -27 -12 -34 3 -5 10 -7 10 -12
0 -13 -30 -42 -7 -61 47 -7 19 -15 71 -18 115 -3 44 -8 90 -10 101 -6 29 26
64 59 64 14 0 26 5 26 10 0 6 7 10 15 10 8 0 15 -4 15 -10 0 -5 14 -10 30 -10
17 0 30 -5 30 -12 0 -6 9 -1 20 12 11 13 20 25 20 27 0 2 -12 27 -26 55 -28
56 -46 78 -63 78 -6 0 -11 5 -11 10 0 6 -7 10 -16 10 -19 0 -70 52 -79 81 -4
10 -10 19 -15 19 -5 0 -11 8 -15 19 -7 24 -39 61 -52 61 -6 0 -16 15 -23 33
-29 78 -75 167 -87 167 -7 0 -13 5 -13 10 0 6 -9 10 -20 10 -11 0 -20 5 -20
10 0 6 -5 10 -11 10 -21 0 -117 112 -124 145 -7 32 -25 259 -25 312 0 71 -17
119 -55 157 -19 19 -55 76 -81 127 -25 51 -60 106 -76 121 -45 42 -69 119 -62
195 8 74 -8 123 -38 123 -11 0 -33 14 -48 30 -15 17 -32 30 -37 30 -11 0 -33
44 -33 64 0 7 8 23 19 34 15 19 29 22 86 22 57 0 71 3 87 22 23 27 32 61 24
91 -4 12 -11 61 -16 109 -8 85 -22 118 -50 118 -26 0 -67 60 -79 116 -14 60
-29 84 -54 84 -19 0 -27 22 -27 75 0 34 6 50 30 75 21 23 30 42 30 67 0 34
-15 73 -32 84 -10 6 -28 69 -58 204 -10 44 -27 107 -39 140 -11 33 -23 72 -26
88 -3 15 -10 27 -17 27 -16 0 -41 32 -68 89 -13 28 -28 51 -33 51 -11 0 -47
39 -47 52 0 4 -9 8 -20 8 -11 0 -20 5 -20 10 0 6 -22 10 -50 10 -27 0 -50 5
-50 10 0 6 -27 10 -60 10 -33 0 -60 -4 -60 -10z"/>
</g>
</svg>
