<?xml version="1.0" standalone="no"?>
<!DOCTYPE svg PUBLIC "-//W3C//DTD SVG 20010904//EN"
 "http://www.w3.org/TR/2001/REC-SVG-20010904/DTD/svg10.dtd">
<svg version="1.0" xmlns="http://www.w3.org/2000/svg"
 width="3506.000000pt" height="3950.000000pt" viewBox="0 0 3506.000000 3950.000000"
 preserveAspectRatio="xMidYMid meet">
<metadata>
Created by potrace 1.15, written by Peter Selinger 2001-2017
</metadata>
<g transform="translate(0.000000,3950.000000) scale(0.100000,-0.100000)"
fill="#ffffff" stroke="000000" stroke-width="0.01">
<path fill="#ffffff" stroke="000000" stroke-width="0.01" d="M1740 36121 c0 -5 -6 -16 -14 -23 -7
-8 -23 -33 -35 -56 l-21 -42 46 -92 c25 -50 52 -97 60 -105 13 -13 34 -75 34
-100 0 -7 11 -23 25 -37 17 -17 25 -36 25 -61 0 -19 4 -35 8 -35 11 0 52 -87
52 -111 0 -29 28 -79 61 -110 23 -21 31 -40 37 -87 6 -44 15 -66 35 -86 14
-14 30 -26 35 -26 5 0 19 -22 32 -50 13 -27 28 -50 35 -50 6 0 17 -9 25 -20 8
-11 23 -20 33 -20 41 0 46 -20 26 -111 -32 -149 -19 -349 23 -349 10 0 18 -4
18 -10 0 -5 11 -10 25 -10 19 0 26 -7 34 -37 6 -21 11 -58 11 -83 0 -69 18
-117 57 -156 25 -25 33 -41 30 -56 -3 -12 3 -38 14 -59 10 -21 19 -52 19 -69
0 -17 6 -38 13 -46 39 -47 87 -94 95 -94 5 0 17 -17 26 -37 18 -41 13 -97 -19
-189 -11 -32 -12 -51 -5 -64 5 -10 7 -26 4 -34 -4 -12 0 -16 15 -16 20 0 21
-4 21 -139 0 -181 4 -201 41 -201 17 0 29 5 29 13 0 8 4 7 11 -3 8 -11 12 -12
16 -2 2 6 11 12 19 12 8 0 14 5 14 10 0 6 30 10 71 10 60 0 75 -3 90 -21 l18
-21 7 26 c3 15 4 35 1 47 -3 11 -1 34 5 52 6 18 14 57 18 87 4 30 17 82 29
115 11 33 23 72 26 88 3 17 12 27 24 27 28 0 81 137 81 214 1 22 6 57 13 76
26 72 -5 402 -49 540 -8 25 -21 65 -29 90 -7 25 -23 70 -35 100 -12 30 -24 64
-28 75 -3 11 -10 25 -15 31 -40 49 -67 74 -81 74 -9 0 -16 5 -16 10 0 6 -7 10
-16 10 -9 0 -29 14 -44 30 -15 17 -32 30 -37 30 -5 0 -17 16 -26 36 -10 19
-22 40 -27 47 -40 47 -50 62 -55 78 -4 11 -10 19 -14 19 -4 0 -18 23 -31 50
-13 28 -28 50 -33 50 -18 0 -67 63 -67 87 0 13 -10 34 -22 47 -13 13 -30 33
-38 46 -8 12 -20 28 -26 34 -6 7 -19 27 -29 46 -10 19 -24 40 -31 48 -8 7 -17
25 -21 40 -6 27 -45 72 -61 72 -5 0 -12 14 -15 30 -5 21 -12 30 -27 30 -21 0
-38 39 -25 59 3 6 -5 22 -19 36 -15 14 -26 30 -26 35 0 6 -8 10 -18 10 -10 0
-24 9 -32 21 -26 38 -68 79 -79 79 -6 0 -11 5 -11 10 0 6 -6 10 -14 10 -8 0
-18 9 -21 20 -3 11 -12 20 -18 20 -7 0 -19 9 -27 20 -8 11 -20 20 -27 20 -7 0
-13 5 -13 10 0 6 -22 10 -49 10 -41 0 -51 4 -56 20 -5 16 -15 20 -46 20 -21 0
-39 -4 -39 -9z"/>
<path fill="#ffffff" stroke="000000" stroke-width="0.01" d="M2932 33218 c-6 -21 -18 -45 -26 -54
-13 -13 -16 -34 -15 -102 1 -48 6 -100 10 -115 5 -17 4 -34 -1 -40 -6 -7 -24
-27 -40 -46 -17 -19 -28 -41 -25 -48 3 -8 5 -17 5 -19 0 -2 8 -4 18 -4 12 0
28 20 46 58 24 48 30 76 37 172 5 63 11 126 14 141 4 14 2 41 -3 60 l-9 34
-11 -37z"/>
</g>
</svg>
