<?xml version="1.0" standalone="no"?>
<!DOCTYPE svg PUBLIC "-//W3C//DTD SVG 20010904//EN"
 "http://www.w3.org/TR/2001/REC-SVG-20010904/DTD/svg10.dtd">
<svg version="1.0" xmlns="http://www.w3.org/2000/svg"
 width="3506.000000pt" height="3950.000000pt" viewBox="0 0 3506.000000 3950.000000"
 preserveAspectRatio="xMidYMid meet">
<metadata>
Created by potrace 1.15, written by Peter Selinger 2001-2017
</metadata>
<g transform="translate(0.000000,3950.000000) scale(0.100000,-0.100000)"
fill="#ffffff" stroke="000000" stroke-width="0.01">
<path fill="#ffffff" stroke="000000" stroke-width="0.01" d="M0 22229 c0 -13056 3 -17276 12 -17292
6 -12 20 -30 31 -39 24 -22 17 -57 -18 -92 l-25 -25 0 -1301 c0 -1189 1 -1304
16 -1333 10 -18 25 -39 35 -48 11 -9 19 -24 19 -33 0 -9 7 -16 15 -16 8 0 15
-4 15 -10 0 -5 6 -10 13 -10 7 0 19 -9 27 -20 8 -11 20 -20 27 -20 6 0 15 -9
18 -20 3 -11 15 -20 25 -20 10 0 22 -9 25 -20 3 -11 13 -20 21 -20 8 0 14 -7
14 -15 0 -9 11 -27 24 -40 14 -13 27 -34 31 -45 3 -11 11 -20 16 -20 5 0 9
-11 9 -25 0 -24 44 -124 60 -135 4 -3 15 -21 25 -40 10 -19 21 -37 24 -40 12
-9 31 -82 46 -180 21 -132 58 -260 76 -260 4 0 11 -9 14 -20 3 -11 11 -20 16
-20 13 0 89 -78 89 -91 0 -5 7 -9 15 -9 8 0 15 -4 15 -10 0 -5 8 -10 18 -10
10 0 24 -9 32 -20 8 -11 22 -20 32 -20 10 0 18 -4 18 -10 0 -5 7 -10 16 -10 9
0 29 -13 44 -30 15 -16 35 -30 44 -30 9 0 16 -6 16 -12 1 -7 7 -2 15 12 8 14
14 20 15 14 0 -6 8 -20 18 -32 9 -11 24 -30 32 -42 33 -48 48 -60 76 -60 18 0
35 -8 44 -20 8 -11 19 -20 25 -20 6 0 17 -9 25 -20 8 -11 19 -20 25 -20 6 0
17 -9 25 -20 8 -11 19 -20 26 -20 6 0 19 -18 29 -40 10 -22 24 -40 31 -40 7 0
16 -9 19 -20 3 -11 13 -20 21 -20 20 0 94 -77 94 -96 0 -29 -32 -76 -93 -139
-82 -84 -80 -82 -121 -164 l-36 -71 2755 0 2756 0 -16 30 c-15 28 -14 33 10
80 21 41 23 54 14 71 -8 16 -8 23 0 29 13 7 4 40 -11 40 -17 0 -39 29 -49 62
-13 46 -11 58 7 58 11 0 14 5 9 18 -22 53 -45 118 -45 129 0 7 8 13 19 13 24
0 37 60 20 91 -8 17 -8 23 1 29 7 5 10 17 7 29 -3 12 4 45 15 74 11 28 23 63
28 77 13 40 33 80 40 80 4 0 15 19 24 43 32 77 180 377 187 377 4 0 9 13 12
29 3 16 12 35 20 43 8 8 22 30 32 48 10 19 21 37 25 40 20 14 78 151 83 198 6
50 24 82 46 82 6 0 11 5 11 10 0 6 5 10 11 10 14 0 46 36 54 61 4 11 12 19 19
19 8 0 19 15 26 33 6 17 18 47 26 65 8 18 14 45 14 60 0 15 8 47 16 72 18 49
37 240 37 360 0 57 -6 86 -21 117 -22 42 -45 102 -63 161 -6 17 -14 32 -19 32
-5 0 -12 9 -15 20 -3 11 -12 20 -20 20 -8 0 -17 9 -20 20 -3 11 -15 20 -26 20
-10 0 -19 5 -19 10 0 6 -6 10 -13 10 -7 0 -19 9 -27 20 -8 11 -22 20 -32 20
-10 0 -18 5 -18 10 0 6 -7 10 -15 10 -8 0 -15 5 -15 10 0 6 -5 10 -11 10 -17
0 -49 40 -49 62 0 10 -5 18 -10 18 -13 0 -9 112 4 122 6 4 5 21 -2 45 -6 21
-14 50 -17 66 -3 15 -12 27 -20 27 -8 0 -15 4 -15 9 0 5 -18 28 -40 51 -22 23
-40 46 -40 51 0 5 -6 9 -14 9 -7 0 -19 14 -26 31 -13 31 -102 129 -117 129 -5
0 -15 9 -23 20 -8 11 -20 20 -27 20 -7 0 -13 5 -13 10 0 6 -7 10 -15 10 -8 0
-15 5 -15 10 0 6 -7 10 -15 10 -8 0 -15 5 -15 10 0 6 -7 10 -15 10 -8 0 -15 5
-15 10 0 6 -8 10 -18 10 -10 0 -24 9 -32 20 -8 11 -20 20 -27 20 -7 0 -13 5
-13 10 0 6 -9 10 -20 10 -11 0 -20 5 -20 10 0 6 -7 10 -15 10 -8 0 -15 5 -15
10 0 6 -9 10 -20 10 -11 0 -20 5 -20 10 0 6 -9 10 -20 10 -11 0 -20 5 -20 10
0 6 -7 10 -15 10 -8 0 -15 5 -15 10 0 6 -9 10 -20 10 -11 0 -20 5 -20 10 0 6
-9 10 -20 10 -11 0 -20 5 -20 10 0 6 -5 10 -11 10 -21 0 -36 27 -43 75 -9 65
-25 105 -42 105 -8 0 -14 5 -14 10 0 6 -7 10 -15 10 -8 0 -15 5 -15 10 0 6 -9
10 -21 10 -25 0 -53 26 -44 40 13 20 -4 60 -25 60 -11 0 -20 -6 -20 -12 -1 -7
-8 0 -16 16 -23 41 -87 103 -92 88 -2 -7 -8 -12 -14 -12 -14 0 -46 37 -53 61
-4 11 -14 19 -23 19 -10 0 -24 9 -32 20 -8 11 -21 20 -28 20 -7 0 -31 18 -52
40 -21 22 -42 40 -47 40 -5 0 -15 9 -23 20 -8 11 -18 20 -23 20 -5 0 -22 14
-37 30 -15 17 -33 30 -39 30 -6 0 -11 5 -11 10 0 6 -7 10 -15 10 -8 0 -15 5
-15 10 0 6 -9 10 -20 10 -11 0 -20 5 -20 10 0 6 -6 10 -13 10 -7 0 -19 9 -27
20 -8 11 -19 20 -24 20 -17 0 -46 43 -57 84 -14 57 -30 96 -39 96 -4 0 -10 13
-13 28 -3 16 -19 43 -35 61 -48 54 -49 55 -88 132 -20 41 -40 76 -44 79 -4 3
-24 38 -45 79 -20 41 -43 80 -50 88 -8 7 -17 22 -20 33 -3 11 -10 20 -15 20
-5 0 -14 18 -20 40 -6 22 -21 50 -34 63 -28 28 -56 79 -56 102 0 8 -4 15 -10
15 -5 0 -10 7 -10 15 0 22 -29 77 -50 95 -33 29 -69 118 -85 210 -9 51 -27
115 -41 142 -14 27 -38 90 -54 139 -16 49 -35 96 -42 104 -45 53 -67 75 -77
75 -6 0 -11 5 -11 10 0 6 -9 10 -19 10 -11 0 -23 9 -26 20 -4 11 -17 32 -31
45 -47 47 -35 73 89 201 170 174 195 202 213 235 9 18 23 39 30 47 8 7 14 22
14 33 0 10 4 19 10 19 5 0 14 17 19 38 20 69 10 182 -15 182 -22 0 -17 45 11
100 26 50 33 100 15 100 -5 0 -10 19 -10 43 0 31 3 38 10 27 5 -8 10 -11 10
-7 0 9 -18 45 -31 61 -38 47 -69 76 -82 76 -9 0 -18 8 -22 19 -7 23 -39 61
-51 61 -5 0 -16 9 -24 20 -8 11 -20 20 -27 20 -7 0 -13 4 -13 9 0 5 -13 23
-30 41 -16 18 -30 36 -30 41 0 5 -11 9 -25 9 -14 0 -25 5 -25 10 0 6 -7 10
-16 10 -23 0 -45 26 -38 44 4 10 1 16 -8 16 -7 0 -20 9 -28 20 -8 11 -19 20
-25 20 -6 0 -17 9 -25 20 -8 11 -18 20 -23 20 -5 0 -22 14 -38 31 -23 25 -29
40 -29 76 0 24 5 54 11 65 12 23 75 88 84 88 4 0 24 18 45 40 21 22 42 40 47
40 4 1 24 19 43 41 19 21 51 57 70 78 19 21 42 49 50 61 8 13 25 33 37 45 38
40 93 164 93 213 0 27 -23 107 -50 172 -39 94 -46 120 -31 129 10 7 12 21 7
55 -6 38 -11 46 -28 46 -33 0 -58 37 -58 86 0 49 17 94 36 94 14 0 19 15 29
75 7 47 -5 109 -35 185 -12 30 -27 75 -34 100 -7 25 -23 64 -34 87 -12 23 -22
49 -22 58 0 8 -4 15 -9 15 -5 0 -19 32 -31 71 -26 81 -23 154 6 210 19 36 35
100 36 137 0 12 6 22 14 22 9 0 14 11 14 31 0 16 7 52 16 79 17 54 11 115 -20
195 -8 22 -15 57 -16 77 0 48 -21 138 -32 138 -4 0 -8 11 -8 24 0 37 -11 61
-21 45 -5 -8 -11 2 -19 29 -6 23 -15 42 -20 42 -6 0 -10 28 -10 63 0 68 -11
119 -32 142 -29 32 -35 42 -42 68 -3 15 -13 27 -20 27 -24 0 -28 31 -6 50 35
30 30 40 -72 150 -20 22 -40 49 -43 60 -4 11 -10 20 -15 20 -4 0 -10 15 -13
33 -3 17 -11 52 -17 77 -6 25 -12 55 -12 68 0 12 -4 22 -8 22 -4 0 -11 15 -15
33 -4 17 -9 26 -12 20 -2 -7 -12 -13 -20 -13 -12 0 -14 7 -9 30 4 22 2 30 -9
30 -17 0 -20 17 -4 22 5 2 7 11 4 21 -8 18 -25 23 -25 7 0 -5 -6 -10 -14 -10
-17 0 -31 33 -17 38 16 5 13 22 -4 22 -8 0 -15 5 -15 10 0 6 -5 10 -11 10 -27
0 -54 47 -63 112 -4 26 -14 54 -22 62 -8 8 -14 23 -15 33 0 10 -3 13 -6 6 -7
-20 -19 -15 -31 12 -16 34 -15 35 8 35 16 0 19 5 15 25 -3 14 -7 36 -10 50 -3
14 -12 25 -20 25 -8 0 -15 7 -15 16 0 18 -23 44 -39 44 -6 0 -11 5 -11 10 0 6
-5 10 -11 10 -7 0 -20 9 -29 21 l-18 20 -7 -20 c-12 -40 -22 -21 -27 52 -3 39
-13 92 -22 117 -18 51 -21 132 -6 160 10 20 -5 70 -21 70 -5 0 -13 19 -19 43
-17 68 -31 96 -61 128 -16 17 -29 35 -29 40 0 5 -7 9 -15 9 -8 0 -15 5 -15 10
0 6 -7 10 -15 10 -8 0 -15 4 -15 8 0 14 -36 52 -49 52 -6 0 -11 4 -11 8 0 13
-36 52 -46 52 -5 0 -16 9 -24 20 -8 11 -19 20 -25 20 -6 0 -17 9 -25 20 -8 11
-22 20 -32 20 -10 0 -18 5 -18 10 0 6 -6 10 -13 10 -7 0 -19 9 -27 20 -8 11
-21 20 -30 20 -9 0 -22 10 -30 21 -25 36 -108 119 -119 119 -6 0 -11 5 -11 10
0 6 -7 10 -16 10 -9 0 -29 14 -44 30 -15 17 -33 30 -39 30 -6 0 -11 5 -11 10
0 6 -7 10 -15 10 -8 0 -15 5 -15 10 0 6 -6 10 -13 10 -8 0 -24 23 -37 50 -13
28 -29 50 -36 50 -19 0 -25 30 -10 46 8 8 19 14 25 14 6 0 11 4 11 8 0 14 36
52 49 52 6 0 11 5 11 10 0 6 9 10 20 10 11 0 20 5 20 10 0 6 11 10 25 10 14 0
25 5 25 10 0 6 11 10 25 10 14 0 25 5 25 10 0 6 14 10 30 10 17 0 30 5 30 10
0 6 14 10 30 10 17 0 30 5 30 10 0 6 11 10 25 10 14 0 25 5 25 10 0 6 14 10
30 10 17 0 30 5 30 10 0 6 11 10 25 10 14 0 25 5 25 10 0 6 14 10 30 10 17 0
30 5 30 10 0 6 11 10 25 10 14 0 25 5 25 10 0 6 14 10 30 10 17 0 30 5 30 10
0 6 11 10 25 10 14 0 25 5 25 10 0 6 11 10 25 10 14 0 25 5 25 10 0 6 11 10
25 10 14 0 25 5 25 10 0 6 7 10 15 10 8 0 15 5 15 10 0 6 9 10 20 10 11 0 20
5 20 10 0 6 7 10 15 10 8 0 15 5 15 10 0 6 7 10 15 10 8 0 15 5 15 10 0 6 9
10 20 10 11 0 20 5 20 10 0 6 7 10 15 10 8 0 15 5 15 10 0 6 7 10 15 10 8 0
15 5 15 10 0 6 9 10 20 10 11 0 20 5 20 10 0 6 7 10 15 10 8 0 15 5 15 10 0 6
7 10 15 10 8 0 15 5 15 10 0 6 7 10 15 10 8 0 15 5 15 10 0 6 9 10 20 10 11 0
20 5 20 10 0 6 7 10 15 10 8 0 15 5 15 10 0 6 7 10 15 10 8 0 15 5 15 10 0 6
7 10 15 10 8 0 15 5 15 10 0 6 7 10 15 10 8 0 15 5 15 10 0 6 8 10 18 10 10 0
24 9 32 20 8 11 22 20 32 20 10 0 18 5 18 10 0 6 7 10 15 10 8 0 15 5 15 10 0
6 7 10 15 10 8 0 15 5 15 10 0 6 7 10 15 10 8 0 15 5 15 10 0 6 6 10 13 10 7
0 19 9 27 20 8 11 18 20 23 20 5 0 22 14 37 30 15 17 31 30 35 30 9 0 105 100
105 110 0 4 12 22 28 39 15 16 38 44 52 61 14 17 36 44 50 59 14 16 32 39 40
51 17 25 48 62 100 119 19 21 42 49 50 61 8 12 26 35 40 50 14 15 32 38 40 50
8 12 23 31 33 42 9 12 17 24 17 28 0 5 12 21 28 38 15 16 34 40 42 52 8 12 23
31 32 42 10 11 20 29 23 39 4 11 10 19 15 19 5 0 11 8 15 19 5 16 14 29 54 77
5 6 19 31 31 55 13 24 26 46 30 49 4 3 15 21 25 40 10 18 23 39 29 46 6 6 18
21 26 33 8 11 19 21 25 21 6 0 17 9 25 20 8 11 21 20 30 20 9 0 22 9 30 20 8
11 20 20 27 20 7 0 13 5 13 10 0 6 5 10 11 10 16 0 39 26 39 44 0 10 9 16 25
16 14 0 25 -4 25 -10 0 -5 14 -10 30 -10 17 0 30 5 30 10 0 6 14 10 30 10 17
0 30 -4 30 -10 0 -5 23 -10 50 -10 28 0 50 -4 50 -10 0 -5 5 -10 11 -10 18 0
50 -42 56 -72 3 -16 9 -28 14 -28 5 0 9 -9 9 -20 0 -16 7 -20 30 -20 21 0 30
-5 30 -16 0 -9 13 -29 30 -44 22 -21 30 -37 30 -63 0 -20 4 -37 9 -39 5 -1 12
-55 16 -118 3 -63 7 -128 8 -145 4 -54 27 -95 54 -95 25 0 78 -44 69 -59 -3
-4 -1 -24 5 -44 8 -30 15 -37 34 -37 14 0 25 -4 25 -8 0 -10 26 -44 73 -94 20
-22 37 -44 37 -49 0 -5 6 -9 13 -9 7 0 19 -9 27 -20 8 -11 20 -20 27 -20 6 0
15 -9 18 -20 3 -11 14 -20 23 -20 10 0 24 -9 32 -20 8 -11 22 -20 32 -20 12 0
18 -8 18 -25 0 -46 21 -75 53 -75 36 0 53 -18 91 -99 21 -43 35 -61 49 -61 26
0 42 -20 44 -58 2 -36 28 -71 36 -49 4 9 6 9 6 0 1 -8 15 -13 36 -13 19 0 35
-4 35 -10 0 -5 16 -10 35 -10 31 0 36 3 42 30 4 21 11 30 24 30 11 0 19 5 19
10 0 6 7 10 15 10 10 0 15 10 15 28 0 16 8 38 18 50 9 11 24 30 32 41 8 12 22
21 31 21 10 0 19 6 21 12 5 15 26 -3 46 -37 6 -11 12 -14 12 -7 0 8 18 12 54
12 47 0 56 -3 61 -21 6 -17 9 -19 16 -8 7 12 9 11 9 -1 0 -13 1 -13 10 0 8 12
10 10 11 -10 0 -14 3 -19 6 -12 6 14 33 16 33 2 0 -6 28 -10 64 -10 42 0 66
-4 69 -12 4 -10 6 -10 6 0 1 14 51 17 51 2 0 -5 7 -10 16 -10 39 0 50 -50 45
-205 -3 -71 9 -142 19 -125 15 25 23 -37 16 -129 -3 -47 -5 -228 -5 -401 1
-377 1 -369 -6 -397 -4 -19 -1 -23 20 -23 14 0 25 -4 25 -10 0 -5 13 -10 29
-10 16 0 32 -6 34 -13 4 -9 6 -9 6 1 1 8 25 12 85 12 76 0 85 -2 91 -20 3 -11
13 -20 21 -20 8 0 14 -4 14 -8 0 -20 39 -52 63 -52 25 0 42 -23 31 -41 -3 -5
2 -17 11 -26 14 -14 18 -14 27 -2 7 10 8 8 3 -8 -5 -19 -2 -23 18 -23 27 0 37
-16 37 -61 0 -17 5 -40 11 -51 15 -28 96 -108 109 -108 5 0 10 -4 10 -10 0 -5
11 -10 25 -10 14 0 25 -4 25 -10 0 -5 6 -10 13 -10 6 0 22 -13 35 -28 40 -48
57 -70 72 -92 8 -13 26 -34 39 -47 26 -27 57 -126 41 -131 -17 -6 -11 -71 10
-112 11 -22 20 -54 20 -72 0 -22 7 -39 20 -48 14 -10 20 -26 20 -52 0 -31 4
-38 19 -38 21 0 31 -19 31 -55 0 -13 5 -25 10 -27 14 -4 41 -132 29 -136 -5
-2 -9 -12 -9 -23 0 -12 -7 -19 -20 -19 -11 0 -20 -4 -20 -10 0 -5 -6 -10 -13
-10 -7 0 -19 -9 -27 -20 -8 -11 -20 -20 -27 -20 -7 0 -13 -8 -13 -18 0 -10 -9
-24 -20 -32 -22 -16 -27 -46 -9 -52 9 -3 9 -9 0 -25 -6 -12 -11 -67 -11 -127
0 -58 -4 -106 -10 -108 -14 -5 -16 -171 -2 -176 7 -2 12 -12 12 -23 0 -10 5
-19 10 -19 6 0 10 -11 10 -26 0 -18 18 -42 60 -84 33 -32 60 -66 60 -74 0 -9
9 -16 20 -16 12 0 20 -7 20 -16 0 -20 24 -44 44 -44 9 0 16 -4 16 -10 0 -16
129 -12 146 4 22 23 18 66 -6 66 -11 0 -20 5 -20 10 0 6 -18 10 -40 10 -22 0
-40 5 -40 10 0 6 -13 10 -30 10 -16 0 -30 5 -30 10 0 6 -11 10 -25 10 -29 0
-75 40 -75 65 0 8 -4 15 -10 15 -5 0 -10 9 -10 20 0 11 -4 20 -10 20 -5 0 -10
9 -10 20 0 11 -4 20 -10 20 -5 0 -10 9 -10 20 0 11 -4 20 -10 20 -5 0 -10 18
-10 40 0 25 5 40 13 40 6 0 17 15 24 33 25 71 42 111 43 100 0 -7 7 -13 15
-13 8 0 15 -4 15 -10 0 -5 7 -10 16 -10 34 0 66 -57 85 -150 8 -36 19 -71 26
-78 7 -7 13 -18 13 -23 0 -5 7 -9 15 -9 8 0 15 -4 15 -10 0 -5 9 -10 20 -10
11 0 20 -4 20 -10 0 -5 10 -10 21 -10 25 0 59 -35 59 -62 0 -10 -7 -18 -15
-18 -8 0 -15 -6 -15 -14 0 -26 12 -46 27 -46 21 0 43 -25 43 -50 0 -28 29 -58
39 -42 9 14 31 -30 52 -100 7 -27 16 -48 19 -48 3 0 6 -30 7 -67 1 -38 6 -69
12 -71 6 -2 11 -12 11 -23 0 -12 7 -19 20 -19 13 0 20 -7 20 -20 0 -11 5 -20
10 -20 6 0 10 -13 10 -30 0 -16 -4 -30 -10 -30 -20 0 -9 -33 21 -61 35 -32 64
-103 74 -181 4 -29 13 -65 21 -79 7 -14 10 -36 7 -47 -7 -30 5 -72 21 -72 15
0 26 -43 26 -105 0 -51 8 -75 24 -75 11 0 30 -35 80 -153 9 -21 16 -62 16 -92
0 -30 4 -55 9 -55 5 0 11 -13 15 -30 3 -18 12 -30 21 -30 8 0 15 -8 15 -18 0
-10 9 -24 20 -32 11 -8 20 -20 20 -28 0 -23 68 -82 95 -82 14 0 25 -4 25 -10
0 -5 7 -10 15 -10 25 0 65 -46 65 -75 0 -18 -5 -25 -20 -25 -11 0 -20 -4 -20
-10 0 -5 7 -10 15 -10 8 0 15 -4 15 -10 0 -5 7 -10 15 -10 9 0 15 -10 16 -22
0 -13 3 -17 6 -10 2 6 11 12 19 12 8 0 14 5 14 10 0 6 5 10 10 10 6 0 10 -9
10 -20 0 -11 5 -20 10 -20 6 0 10 -13 10 -30 0 -16 5 -30 10 -30 6 0 10 -8 10
-18 0 -11 8 -29 19 -40 19 -23 41 -29 41 -12 0 6 -6 10 -14 10 -8 0 -17 7 -20
16 -11 28 1 28 29 0 l27 -27 -21 -18 c-29 -26 -26 -31 17 -31 27 0 42 -6 52
-21 33 -46 53 -64 57 -51 10 28 33 12 33 -24 0 -40 19 -64 50 -64 12 0 39 -18
60 -40 21 -22 46 -40 54 -40 9 0 16 -8 16 -20 0 -13 7 -20 20 -20 11 0 20 -4
20 -10 0 -5 7 -10 15 -10 18 0 65 -44 65 -60 0 -6 11 -22 25 -36 26 -26 32
-44 15 -44 -5 0 -10 -4 -10 -10 0 -5 16 -10 35 -10 28 0 35 -4 35 -20 0 -11 5
-20 10 -20 6 0 10 -12 10 -26 0 -26 20 -54 39 -54 6 0 11 -4 11 -10 0 -5 9
-10 20 -10 11 0 20 -4 20 -9 0 -20 79 -91 102 -91 13 0 30 -9 38 -20 8 -11 21
-20 30 -20 9 0 22 -10 30 -21 8 -12 20 -27 26 -33 7 -7 10 -25 7 -39 -4 -22
-2 -27 16 -27 11 0 21 -4 21 -8 0 -14 36 -52 49 -52 8 0 10 -8 6 -20 -5 -16
-2 -20 17 -20 13 0 30 -9 38 -20 8 -11 22 -20 32 -20 11 0 18 -7 18 -20 0 -11
7 -20 15 -20 8 0 15 -4 15 -10 0 -5 6 -10 13 -10 7 0 19 -9 27 -21 31 -44 48
-59 66 -59 11 0 30 -14 44 -31 60 -73 100 -109 119 -109 11 0 22 -9 26 -20 5
-16 15 -20 46 -20 36 0 46 -7 109 -70 38 -39 74 -70 80 -70 17 0 40 -26 40
-44 0 -9 4 -16 9 -16 5 0 11 -13 15 -30 3 -18 12 -30 21 -30 8 0 15 -9 15 -20
0 -11 5 -20 11 -20 6 0 8 -8 4 -19 -3 -11 1 -25 10 -34 8 -9 15 -23 15 -31 0
-9 5 -16 10 -16 6 0 10 -13 10 -30 0 -16 5 -30 10 -30 6 0 10 -27 10 -60 0
-33 4 -60 10 -60 6 0 10 -22 10 -50 0 -27 5 -50 10 -50 6 0 10 -30 10 -70 0
-40 4 -70 10 -70 6 0 10 -13 10 -30 0 -22 5 -30 18 -30 14 0 21 -13 30 -51 7
-28 12 -68 12 -90 0 -21 5 -39 10 -39 6 0 10 -13 10 -30 0 -16 5 -30 10 -30 6
0 10 -9 10 -20 0 -11 5 -20 10 -20 6 0 10 -26 10 -59 0 -33 4 -61 9 -63 6 -1
10 -28 10 -58 0 -30 0 -77 1 -104 0 -28 4 -53 10 -56 5 -3 15 -36 22 -73 7
-37 16 -67 20 -67 5 0 8 -18 8 -40 0 -22 4 -40 8 -40 4 0 9 -32 10 -70 2 -43
-1 -70 -8 -70 -5 0 -10 -9 -10 -20 0 -11 5 -20 10 -20 6 0 10 -9 10 -20 0 -11
5 -20 10 -20 6 0 10 -8 10 -18 0 -10 9 -24 20 -32 11 -8 20 -22 20 -32 0 -11
7 -18 20 -18 12 0 20 -7 20 -16 0 -31 27 -44 90 -44 56 0 65 3 90 30 33 35 40
37 40 10 0 -11 5 -20 10 -20 6 0 10 9 10 20 0 17 7 20 40 20 22 0 40 -4 40
-10 0 -15 29 -12 46 4 8 8 14 31 14 50 l0 36 -60 0 c-33 0 -60 4 -60 10 0 6
-13 10 -30 10 -16 0 -30 5 -30 10 0 6 -9 10 -20 10 -11 0 -20 5 -20 10 0 6 -7
10 -16 10 -23 0 -44 25 -44 52 0 13 -9 30 -20 38 -12 8 -20 26 -20 42 0 15 -4
28 -10 28 -5 0 -10 9 -10 20 0 11 -4 20 -10 20 -5 0 -10 18 -10 40 0 22 -4 40
-10 40 -5 0 -10 14 -10 30 0 17 5 30 10 30 6 0 10 23 10 50 0 28 -4 50 -10 50
-5 0 -10 18 -10 40 0 22 -4 40 -10 40 -5 0 -10 23 -10 50 0 43 3 50 20 50 11
0 20 5 20 10 0 6 9 10 20 10 11 0 20 5 20 10 0 6 9 10 20 10 15 0 20 7 20 26
0 29 21 54 44 54 9 0 16 5 16 10 0 6 9 10 20 10 11 0 20 -4 20 -10 0 -5 5 -10
10 -10 6 0 10 14 10 30 0 27 -3 30 -30 30 -16 0 -30 -4 -30 -10 0 -5 -9 -10
-20 -10 -11 0 -20 -4 -20 -10 0 -5 -11 -10 -25 -10 -14 0 -25 -4 -25 -10 0 -5
-11 -10 -25 -10 -14 0 -25 -4 -25 -10 0 -5 -18 -10 -40 -10 -33 0 -40 3 -40
20 0 11 -4 20 -10 20 -5 0 -10 18 -10 40 0 22 -4 40 -10 40 -5 0 -10 22 -10
48 0 36 -5 51 -20 62 -12 8 -20 26 -20 42 0 15 -4 28 -10 28 -5 0 -10 14 -10
30 0 17 -4 30 -10 30 -5 0 -10 18 -10 40 0 22 -4 40 -10 40 -5 0 -10 23 -10
50 0 28 -4 50 -10 50 -5 0 -10 17 -10 38 0 26 -6 42 -20 52 -12 8 -20 26 -20
42 0 15 -4 28 -10 28 -5 0 -10 23 -10 50 0 28 -4 50 -10 50 -5 0 -10 14 -10
30 0 17 -4 30 -10 30 -5 0 -10 14 -10 30 0 17 -4 30 -10 30 -5 0 -10 7 -10 15
0 9 -31 47 -70 85 -38 38 -70 74 -70 80 0 16 -168 180 -184 180 -8 0 -18 9
-21 20 -3 11 -15 20 -25 20 -10 0 -22 9 -25 20 -3 11 -13 20 -21 20 -9 0 -37
23 -64 50 -27 28 -54 50 -60 50 -15 0 -40 25 -40 40 0 14 -46 60 -60 60 -7 0
-29 18 -50 40 -21 22 -46 40 -54 40 -9 0 -16 8 -16 20 0 13 -7 20 -20 20 -11
0 -20 5 -20 10 0 6 -9 10 -20 10 -11 0 -20 5 -20 10 0 6 -9 10 -20 10 -13 0
-20 7 -20 20 0 12 -7 20 -16 20 -20 0 -44 24 -44 44 0 9 -8 16 -20 16 -15 0
-20 7 -20 25 0 18 21 47 75 100 41 41 79 75 84 75 13 0 21 26 21 66 0 19 5 34
10 34 6 0 10 23 10 50 0 28 -4 50 -10 50 -5 0 -10 -8 -10 -18 0 -10 -9 -24
-20 -32 -11 -8 -20 -20 -20 -28 0 -7 -9 -30 -20 -52 -11 -22 -20 -49 -20 -60
0 -30 -49 -78 -60 -59 -7 11 -13 9 -28 -9 -28 -32 -94 -31 -127 3 -14 13 -25
31 -25 40 0 8 -9 15 -20 15 -11 0 -20 5 -20 10 0 6 -7 10 -15 10 -20 0 -65 45
-65 65 0 8 -7 15 -15 15 -18 0 -105 84 -105 100 0 6 -23 33 -50 60 -28 27 -50
54 -50 60 0 6 -22 33 -50 60 -34 33 -50 57 -50 74 0 14 5 26 10 26 6 0 10 5
10 10 0 6 -13 10 -30 10 -16 0 -30 -4 -30 -10 0 -5 -11 -10 -25 -10 -14 0 -25
5 -25 10 0 6 -5 10 -11 10 -13 0 -49 38 -49 52 0 4 -9 8 -20 8 -11 0 -20 4
-20 10 0 5 -11 20 -25 34 -14 14 -25 35 -25 46 0 23 -22 50 -40 50 -6 0 -19 7
-27 16 -14 13 -14 17 -2 24 11 7 9 12 -8 27 -29 25 -21 73 12 73 13 0 26 6 29
13 5 9 7 9 12 0 8 -19 24 -16 45 9 11 11 19 16 19 10 0 -7 14 -12 30 -12 26 0
30 4 30 26 0 42 -21 54 -99 54 -41 0 -71 -4 -71 -10 0 -5 -11 -10 -25 -10 -14
0 -25 -4 -25 -10 0 -5 -9 -10 -20 -10 -11 0 -20 5 -20 10 0 6 -18 10 -40 10
-33 0 -40 -3 -40 -20 0 -11 -2 -20 -5 -20 -11 0 -75 69 -75 81 0 6 -14 24 -30
39 -17 15 -30 34 -30 42 0 7 -9 20 -20 28 -11 8 -20 21 -20 30 0 9 -9 22 -20
30 -16 12 -20 26 -20 72 0 32 4 58 10 58 6 0 10 9 10 20 0 16 7 20 30 20 21 0
30 5 30 16 0 9 13 29 30 44 18 17 30 38 30 54 0 14 5 26 10 26 6 0 10 14 10
30 0 35 -19 39 -40 9 -8 -12 -25 -32 -37 -45 -13 -13 -23 -28 -23 -34 0 -20
-28 -40 -54 -40 -18 0 -26 5 -26 18 0 10 -9 24 -20 32 -11 8 -20 22 -20 31 0
10 -6 20 -12 23 -10 5 -10 7 -1 12 15 7 17 44 3 44 -5 0 -10 9 -10 20 0 11 -4
20 -10 20 -5 0 -10 9 -10 20 0 11 -4 20 -10 20 -5 0 -10 23 -10 50 0 28 -4 50
-10 50 -5 0 -10 18 -10 40 0 33 -3 40 -20 40 -11 0 -20 5 -20 10 0 6 5 10 10
10 6 0 10 9 10 20 0 11 -4 20 -10 20 -5 0 -10 9 -10 20 0 11 -4 20 -10 20 -5
0 -10 14 -10 30 0 17 -4 30 -10 30 -5 0 -10 18 -10 40 0 22 -4 40 -10 40 -5 0
-10 9 -10 20 0 11 -4 20 -10 20 -5 0 -10 14 -10 30 0 17 -4 30 -10 30 -5 0
-10 18 -10 40 0 22 -4 40 -10 40 -6 0 -10 32 -10 75 0 69 -2 78 -27 103 -17
17 -28 22 -31 14 -7 -23 -22 -12 -22 17 0 16 -6 32 -12 35 -10 5 -10 7 -1 12
15 7 17 44 3 44 -18 0 -10 31 15 55 21 22 33 25 90 25 63 0 65 1 65 26 0 33
-21 54 -54 54 -14 0 -26 5 -26 10 0 15 -107 13 -114 -2 -5 -10 -7 -10 -12 0
-3 8 -21 29 -40 47 -29 29 -34 41 -34 80 0 25 -4 45 -10 45 -5 0 -10 14 -10
30 0 17 -4 30 -10 30 -5 0 -10 14 -10 30 0 17 -4 30 -10 30 -5 0 -10 9 -10 20
0 11 -4 20 -10 20 -5 0 -10 9 -10 20 0 11 -4 20 -10 20 -5 0 -10 18 -10 39 0
22 -5 41 -12 43 -8 3 -11 36 -10 111 1 65 -2 107 -8 107 -6 0 -10 9 -10 20 0
11 -4 20 -10 20 -5 0 -10 13 -10 28 0 16 -8 34 -20 42 -12 8 -20 26 -20 42 0
15 -4 28 -10 28 -5 0 -10 18 -10 40 0 22 -4 40 -10 40 -5 0 -10 9 -10 20 0 11
5 20 10 20 6 0 10 30 10 70 0 54 3 70 14 70 17 0 60 131 52 157 -3 10 -2 44 3
77 4 32 5 75 1 96 -7 37 1 126 15 169 6 19 2 21 -28 21 -31 0 -35 -4 -41 -31
-3 -17 -6 -62 -6 -100 0 -62 -2 -69 -20 -69 -13 0 -20 -7 -20 -20 0 -16 -7
-20 -35 -20 -19 0 -35 5 -35 10 0 6 -17 10 -39 10 -35 0 -39 3 -45 30 -3 19
-12 30 -22 30 -9 0 -29 14 -44 30 -15 17 -35 30 -44 30 -9 0 -16 4 -16 8 0 24
-39 52 -74 52 -20 0 -36 5 -36 10 0 6 -7 10 -15 10 -9 0 -18 12 -21 30 -4 17
-10 30 -15 30 -5 0 -9 9 -9 20 0 11 -6 20 -13 20 -8 0 -19 11 -25 25 -12 27
-22 40 -58 78 -11 13 -24 35 -28 50 -4 18 -13 27 -26 27 -11 0 -20 5 -20 10 0
6 -7 10 -15 10 -8 0 -15 4 -15 9 0 5 -17 28 -37 50 -21 22 -54 59 -73 80 -19
22 -39 40 -43 41 -8 0 -35 28 -106 106 -34 37 -38 58 -35 152 3 66 8 98 19
108 20 20 19 68 -1 89 -12 11 -15 26 -11 50 3 19 2 35 -3 37 -11 4 -16 146 -6
176 4 12 11 22 16 22 16 0 19 32 4 47 -11 12 -14 26 -9 52 4 20 10 37 14 39 5
1 6 57 4 122 -3 82 -1 120 6 120 6 0 11 7 11 16 0 23 25 44 54 44 14 0 26 5
26 10 0 6 11 10 24 10 28 0 40 24 26 51 -6 11 -8 23 -5 28 11 19 -8 41 -36 41
-16 0 -29 -4 -29 -10 0 -5 -15 -10 -34 -10 -19 0 -37 -6 -39 -12 -3 -7 -6 37
-6 97 0 61 4 117 9 125 6 10 10 11 10 3 0 -7 7 -13 15 -13 10 0 15 11 16 33 0
17 3 26 6 20 5 -13 83 -19 83 -7 0 3 -7 12 -15 20 -8 9 -15 11 -15 5 0 -17
-27 -13 -34 5 -3 9 -6 40 -6 71 0 48 -2 53 -15 39 -8 -8 -15 -26 -15 -40 0
-29 -14 -35 -24 -10 -3 9 -6 36 -6 60 l0 44 40 0 c32 0 39 4 38 17 -4 47 3
103 13 103 31 0 39 -29 39 -144 0 -76 4 -116 11 -116 16 0 39 -26 39 -44 0
-25 20 -19 21 7 1 12 3 29 4 37 1 8 3 34 4 58 1 35 4 42 21 42 18 0 20 -7 20
-54 0 -82 3 -86 71 -86 33 0 59 4 59 10 0 6 25 10 55 10 30 0 55 5 55 10 0 6
7 10 15 10 8 0 15 9 15 20 0 18 7 20 65 20 37 0 65 4 65 10 0 6 7 10 15 10 8
0 15 3 16 8 7 55 7 92 -1 92 -6 0 -10 5 -10 10 0 6 6 10 13 10 7 0 19 9 27 20
11 15 26 20 57 20 28 0 43 4 43 13 0 8 4 7 10 -3 6 -10 10 -11 10 -2 0 6 7 12
15 12 8 0 15 5 15 10 0 6 9 10 19 10 11 0 23 9 26 20 4 12 15 20 28 20 13 0
29 9 37 20 8 11 22 20 32 20 17 0 18 -15 14 -223 -4 -227 -8 -257 -32 -257
-11 0 -13 -23 -8 -128 4 -70 6 -153 5 -184 -1 -35 4 -68 14 -87 11 -23 13 -36
5 -50 -11 -22 -13 -71 -4 -95 3 -9 15 -16 25 -16 10 0 19 -4 19 -10 0 -5 -7
-10 -15 -10 -11 0 -15 -11 -15 -39 0 -22 -5 -41 -12 -43 -8 -3 -11 -39 -11
-121 1 -88 -2 -121 -13 -131 -15 -16 -20 -137 -15 -438 3 -172 5 -188 21 -188
23 0 32 -46 15 -80 -14 -29 -27 -124 -18 -145 6 -17 63 -21 63 -5 0 6 9 10 21
10 20 0 79 53 79 71 0 5 6 9 14 9 8 0 18 9 21 20 3 11 15 20 25 20 15 0 20 10
26 47 4 27 10 50 13 53 17 13 27 113 18 187 -5 43 -6 125 -4 183 3 58 2 112
-3 120 -9 16 9 90 22 90 5 0 8 9 8 20 0 11 7 20 15 20 8 0 15 -4 15 -8 0 -15
37 -52 51 -52 8 0 21 -9 29 -20 8 -11 25 -20 39 -20 23 0 24 2 18 54 -3 30
-13 68 -22 86 -19 37 -79 100 -95 100 -6 0 -27 16 -46 35 l-35 36 1 107 c0 59
-2 119 -6 134 -4 20 -2 28 7 28 11 0 14 21 12 102 -1 57 -5 133 -8 171 -6 59
-4 67 11 67 14 0 16 7 10 46 -3 26 -6 75 -6 109 0 48 -5 67 -20 85 -11 13 -20
36 -20 52 0 18 -5 28 -15 28 -8 0 -15 5 -15 10 0 6 15 10 33 10 l32 0 1 74 c1
66 4 76 27 100 26 26 28 26 170 26 l145 0 -3 33 c-2 17 -3 35 -4 40 -1 4 -67
7 -147 7 -138 0 -148 1 -165 22 -23 26 -24 51 -3 72 8 9 12 20 9 26 -3 6 1 17
9 26 10 10 14 24 10 39 -6 24 14 55 35 55 6 0 8 12 5 28 -4 19 -1 34 9 44 9 8
20 37 25 64 5 27 13 58 17 69 5 16 5 17 -4 5 -6 -9 -11 -10 -11 -3 0 6 7 18
15 27 8 8 15 26 15 40 0 14 4 26 8 26 5 0 6 27 4 60 -3 40 -1 60 7 60 6 0 11
13 11 29 0 16 5 31 11 33 12 4 20 49 20 105 -1 22 4 33 13 33 18 0 26 22 19
49 -3 11 2 27 11 36 10 11 13 25 9 45 -5 28 -4 30 26 30 36 0 39 15 16 61 -9
16 -13 34 -9 40 4 6 2 14 -4 18 -15 9 -2 61 15 61 9 0 12 6 9 18 -3 9 -6 58
-7 107 -1 50 -5 97 -10 106 -4 9 -4 29 1 45 4 16 9 23 9 15 1 -9 8 -6 21 9 12
14 18 31 14 42 -3 10 -1 18 5 18 6 0 11 18 11 40 0 22 -4 40 -10 40 -5 0 -10
7 -10 15 0 8 -8 30 -17 50 -13 28 -22 35 -45 35 -15 0 -28 5 -28 10 0 6 -7 10
-15 10 -8 0 -15 5 -15 10 0 6 -22 10 -50 10 l-50 0 0 40 c0 28 -4 40 -14 40
-22 0 -29 36 -15 73 6 19 9 46 5 60 -6 25 -11 27 -56 27 -28 0 -50 5 -50 10 0
6 -7 10 -15 10 -8 0 -15 5 -15 10 0 6 9 10 20 10 24 0 26 20 4 63 -23 43 -41
60 -47 44 -4 -9 -6 -9 -6 1 -1 8 -17 12 -46 12 -25 0 -45 5 -45 10 0 6 -9 10
-20 10 -11 0 -20 5 -20 10 0 6 18 10 40 10 22 0 40 4 40 8 0 13 -36 52 -46 52
-5 0 -16 9 -24 21 -8 11 -23 30 -32 41 -10 12 -18 25 -18 30 0 4 -7 8 -15 8
-8 0 -15 5 -15 10 0 6 -8 10 -18 10 -10 0 -24 9 -32 20 -16 23 -75 28 -83 8
-4 -10 -6 -10 -6 0 -1 6 -13 12 -27 12 -17 0 -39 14 -64 40 -21 22 -43 40 -49
40 -6 0 -11 5 -11 10 0 6 -6 10 -14 10 -8 0 -18 9 -21 20 -3 11 -15 20 -26 20
-10 0 -19 5 -19 10 0 6 20 10 45 10 38 0 45 3 45 20 0 11 -7 20 -15 20 -8 0
-15 5 -15 10 0 6 -9 10 -20 10 -11 0 -20 5 -20 10 0 6 -24 10 -54 10 l-54 0 5
38 c4 32 0 43 -25 70 -28 30 -35 32 -95 32 -48 0 -66 4 -71 15 -6 17 2 45 14
45 16 0 20 32 6 46 -10 10 -38 14 -91 14 -53 0 -81 4 -91 14 -23 23 -17 26 47
26 52 0 60 2 55 16 -3 9 -6 18 -6 20 0 2 -6 4 -13 4 -7 0 -19 9 -27 20 -8 11
-19 20 -25 20 -6 0 -17 9 -25 21 -8 12 -26 34 -40 49 -38 44 -60 73 -60 82 0
4 -7 8 -15 8 -8 0 -15 5 -15 10 0 6 -7 10 -15 10 -8 0 -15 5 -15 10 0 6 -9 10
-20 10 -11 0 -20 5 -20 10 0 6 -11 10 -25 10 -16 0 -25 6 -25 16 0 18 -23 44
-39 44 -6 0 -13 11 -16 25 -3 14 -7 36 -10 50 -4 19 -12 25 -30 25 -14 0 -25
5 -25 10 0 6 -9 10 -19 10 -11 0 -23 9 -26 20 -3 11 -13 20 -21 20 -8 0 -14 7
-14 15 0 24 -43 105 -56 105 -7 0 -16 9 -19 20 -4 13 -15 20 -30 20 -15 0 -26
7 -30 20 -3 11 -13 20 -21 20 -20 0 -44 24 -44 44 0 9 -5 16 -11 16 -16 0 -39
26 -39 44 0 9 -6 16 -14 16 -8 0 -18 9 -21 20 -3 11 -11 20 -17 20 -12 0 -48
38 -48 50 0 12 -57 70 -67 70 -11 0 -33 44 -33 65 0 8 -4 15 -10 15 -5 0 -10
-5 -10 -11 0 -19 -26 15 -34 44 -4 18 -13 27 -26 27 -13 0 -20 7 -20 20 0 16
-7 20 -35 20 -19 0 -35 5 -35 10 0 6 -9 10 -20 10 -11 0 -20 5 -20 10 0 6 -9
10 -20 10 -11 0 -20 5 -20 10 0 6 -7 10 -15 10 -8 0 -15 5 -15 10 0 6 -7 10
-15 10 -8 0 -15 5 -15 10 0 6 -7 10 -15 10 -8 0 -15 5 -15 10 0 6 -9 10 -20
10 -11 0 -20 5 -20 10 0 6 -7 10 -15 10 -8 0 -15 5 -15 10 0 6 -7 10 -15 10
-8 0 -15 5 -15 10 0 6 -9 10 -20 10 -11 0 -20 5 -20 10 0 6 -9 10 -20 10 -11
0 -20 5 -20 10 0 6 -25 10 -55 10 -30 0 -55 5 -55 10 0 6 -9 10 -20 10 -11 0
-20 6 -20 13 0 9 -2 9 -8 0 -6 -9 -12 -7 -22 7 -16 23 -75 28 -83 8 -4 -10 -6
-10 -6 0 -1 6 -12 12 -26 12 -17 0 -26 7 -30 23 -8 36 -11 357 -2 357 11 0 9
98 -3 102 -5 2 -10 39 -11 83 -2 125 -28 195 -72 195 -21 0 -35 -49 -17 -60
15 -9 6 -645 -10 -703 -10 -35 -13 -37 -54 -37 -26 0 -46 5 -48 13 -7 21 8
611 16 630 7 15 1 17 -63 17 -41 0 -71 -4 -71 -10 0 -5 7 -10 16 -10 9 0 14
-6 11 -13 -3 -8 -9 -152 -13 -320 l-7 -307 -49 0 c-84 0 -81 -14 -79 353 1
176 4 348 7 381 8 95 3 106 -55 106 -55 0 -61 -7 -61 -75 0 -27 6 -50 16 -60
15 -14 15 -17 -3 -33 -11 -9 -25 -26 -31 -37 -6 -11 -12 -14 -12 -7 0 20 -16
14 -28 -10 -7 -15 -11 -17 -11 -8 -1 13 -2 13 -11 0 -6 -10 -10 -11 -10 -2 0
8 -16 12 -45 12 -25 0 -45 -4 -45 -10 0 -5 -13 -10 -30 -10 -16 0 -30 -4 -30
-10 0 -5 -6 -10 -14 -10 -7 0 -19 -13 -26 -30 -13 -31 -44 -41 -53 -17 -4 9
-6 9 -6 0 -1 -8 -15 -13 -34 -13 -21 0 -38 -7 -47 -20 -8 -11 -20 -20 -27 -20
-7 0 -13 -4 -13 -10 0 -6 -30 -10 -70 -10 -40 0 -70 4 -70 10 0 6 -11 10 -25
10 -14 0 -25 5 -25 10 0 6 -11 10 -25 10 -14 0 -25 5 -25 10 0 6 -24 10 -53
10 -41 0 -56 4 -67 20 -8 11 -22 20 -32 20 -11 0 -18 7 -18 20 0 16 -7 20 -30
20 -16 0 -30 5 -30 10 0 6 -7 10 -15 10 -8 0 -15 5 -15 10 0 6 -7 10 -15 10
-8 0 -15 5 -15 10 0 6 -15 10 -33 10 -21 0 -38 7 -47 20 -8 11 -20 20 -27 20
-7 0 -13 5 -13 10 0 6 -6 10 -13 10 -7 0 -19 9 -27 20 -8 11 -25 20 -37 20
-13 0 -23 5 -23 10 0 6 -7 10 -15 10 -8 0 -15 5 -15 10 0 6 -9 10 -20 10 -11
0 -20 5 -20 10 0 6 -7 10 -15 10 -8 0 -15 5 -15 10 0 6 -6 10 -14 10 -8 0 -17
6 -19 13 -4 9 -6 9 -6 0 -1 -14 -61 -18 -61 -5 0 16 -37 52 -53 52 -9 0 -19 9
-22 20 -4 14 -15 20 -36 20 -16 0 -29 5 -29 10 0 6 -10 10 -23 10 -12 0 -29 9
-37 20 -8 11 -24 20 -35 20 -11 0 -27 9 -35 20 -8 11 -20 20 -27 20 -7 0 -13
5 -13 10 0 6 -7 10 -16 10 -8 0 -33 18 -54 40 -21 22 -43 40 -49 40 -6 0 -11
5 -11 10 0 6 -7 10 -15 10 -8 0 -15 5 -15 10 0 6 -7 10 -15 10 -8 0 -15 5 -15
10 0 6 -5 10 -11 10 -6 0 -24 14 -39 30 -15 17 -33 30 -39 30 -6 0 -11 5 -11
10 0 6 -6 10 -13 10 -7 0 -19 10 -27 21 -25 36 -88 99 -99 99 -5 0 -12 9 -16
19 -11 36 -61 81 -89 81 -21 0 -28 6 -33 30 -3 17 -9 30 -14 30 -4 0 -11 9
-14 20 -3 11 -15 20 -25 20 -10 0 -21 8 -25 19 -3 10 -13 28 -23 39 -9 11 -24
30 -32 41 -8 12 -22 21 -32 21 -10 0 -18 4 -18 9 0 5 -18 28 -40 51 -22 23
-40 50 -40 59 0 10 -9 28 -20 41 -11 13 -25 42 -31 64 -16 65 -31 97 -56 122
-15 15 -23 35 -23 59 0 21 -5 35 -13 35 -12 0 -29 40 -49 118 -6 23 -15 42
-20 42 -4 0 -8 18 -8 40 0 22 -4 40 -8 40 -5 0 -16 16 -26 36 -13 27 -16 58
-15 120 2 46 7 84 12 84 20 0 -2 147 -30 204 -15 31 -31 56 -36 56 -5 0 -22
14 -37 30 -15 17 -37 30 -47 30 -14 0 -25 12 -35 38 -50 120 -51 122 -73 122
-15 0 -27 11 -38 35 -23 48 -33 115 -19 124 27 17 5 148 -31 186 -7 7 -19 23
-27 35 -8 13 -25 33 -38 46 -12 13 -22 28 -22 34 0 23 -30 40 -69 40 -23 0
-41 5 -41 10 0 6 -7 10 -15 10 -19 0 -148 127 -140 139 8 13 -5 41 -19 41 -6
0 -18 9 -26 20 -8 11 -22 20 -32 20 -10 0 -18 5 -18 10 0 6 -6 10 -13 10 -7 0
-19 10 -27 21 -8 12 -32 39 -53 61 -20 22 -37 44 -37 49 0 5 -11 9 -25 9 -14
0 -25 5 -25 10 0 6 -13 10 -29 10 -22 0 -31 6 -41 30 -7 17 -19 30 -28 30 -17
0 -49 34 -57 61 -4 11 -10 19 -15 19 -5 0 -11 8 -15 19 -9 28 -40 61 -59 61
-9 0 -16 5 -16 10 0 6 -9 10 -20 10 -11 0 -20 5 -20 10 0 6 -7 10 -15 10 -8 0
-15 5 -15 10 0 6 -9 10 -20 10 -17 0 -19 5 -14 33 16 90 24 107 49 107 14 0
25 5 25 10 0 6 9 10 20 10 11 0 20 5 20 10 0 6 18 10 40 10 22 0 40 5 40 10 0
6 33 10 78 10 66 0 80 3 92 20 8 11 20 20 27 20 7 0 13 5 13 10 0 6 16 10 35
10 25 0 35 4 35 15 0 20 45 65 65 65 8 0 15 5 15 10 0 6 14 10 30 10 17 0 30
5 30 10 0 6 14 10 30 10 17 0 30 5 30 10 0 6 14 10 30 10 17 0 30 5 30 10 0 6
6 10 13 10 7 0 19 9 27 20 8 11 20 20 27 20 7 0 13 5 13 10 0 6 14 10 30 10
17 0 30 5 30 10 0 6 6 10 13 10 7 0 19 9 27 20 8 11 20 20 27 20 7 0 13 5 13
10 0 6 6 10 14 10 16 0 26 21 26 56 0 15 6 24 15 24 8 0 15 5 15 10 0 6 7 10
16 10 11 0 14 5 10 16 -9 24 28 84 52 84 5 0 15 14 22 30 11 26 18 30 49 30
25 0 41 6 51 20 8 11 23 20 33 20 11 0 32 14 47 30 15 17 35 30 44 30 9 0 16
5 16 10 0 6 8 10 18 10 10 0 24 9 32 20 8 11 22 20 32 20 10 0 18 5 18 10 0 6
7 10 16 10 8 0 33 18 54 40 21 22 43 40 49 40 6 0 11 5 11 10 0 6 6 10 13 10
7 0 19 9 27 20 8 11 25 20 37 20 13 0 23 5 23 10 0 6 7 10 15 10 8 0 15 5 15
10 0 6 13 10 28 10 16 0 34 8 42 20 11 15 26 20 62 20 26 0 48 5 48 10 0 6 13
10 28 10 16 0 34 8 42 20 13 18 26 20 132 20 108 0 117 -1 123 -20 4 -13 15
-20 31 -20 36 0 50 -18 65 -85 7 -32 15 -53 17 -47 2 7 12 12 23 12 10 0 19 5
19 10 0 6 14 10 30 10 17 0 30 5 30 10 0 6 9 10 21 10 15 0 19 5 15 18 -3 9
-7 41 -8 70 -2 48 -4 52 -26 52 -18 0 -22 4 -18 15 3 8 9 22 12 30 4 10 0 15
-14 15 -14 0 -21 9 -25 30 -4 17 -13 30 -20 30 -13 0 -37 40 -37 61 0 5 -12
22 -26 36 -21 21 -25 32 -20 58 5 24 0 47 -16 79 -12 25 -26 46 -30 46 -4 0
-8 9 -8 20 0 13 -7 20 -20 20 -24 0 -26 22 -8 80 10 31 18 40 35 40 13 0 24 8
28 20 3 11 14 20 24 20 11 0 25 15 36 40 21 47 47 80 63 80 6 0 14 9 17 20 3
11 14 27 22 36 9 9 20 43 25 76 7 53 24 88 44 88 16 0 44 45 44 72 0 21 5 28
19 28 18 0 30 21 46 77 3 13 13 30 22 39 10 9 17 34 17 60 1 37 4 44 21 44 17
0 21 7 22 43 2 72 20 203 30 223 6 10 11 43 11 73 1 42 -3 58 -19 71 -35 31
-23 110 17 110 13 0 24 5 24 10 0 6 -9 10 -20 10 -15 0 -20 7 -20 29 0 16 4
31 9 33 14 5 26 118 12 118 -6 0 -11 14 -11 30 0 19 5 30 14 30 10 0 15 17 18
58 5 74 -6 113 -42 152 -16 17 -32 40 -35 51 -4 10 -10 19 -14 19 -5 0 -11 14
-14 30 -4 18 -13 30 -22 30 -9 0 -18 12 -21 30 -4 17 -12 30 -20 30 -7 0 -15
8 -19 19 -3 10 -14 29 -25 41 -11 13 -25 40 -30 61 -6 21 -15 39 -20 41 -5 2
-4 20 5 43 8 22 14 52 15 68 0 15 5 27 10 27 6 0 10 7 10 15 0 25 23 65 37 65
7 0 13 7 13 16 0 8 18 33 40 54 22 21 40 46 40 54 0 9 7 16 15 16 8 0 15 4 15
8 0 16 37 52 54 52 9 0 16 4 16 9 0 5 18 28 40 51 22 23 40 46 40 51 0 5 6 9
13 9 7 0 19 9 27 20 8 11 20 20 28 20 7 0 35 23 62 50 33 34 57 50 74 50 14 0
26 5 26 10 0 6 9 10 20 10 11 0 20 5 20 10 0 6 16 10 35 10 19 0 35 5 35 10 0
6 7 10 16 10 9 0 29 14 44 30 15 17 35 30 44 30 9 0 16 5 16 10 0 6 7 10 15
10 8 0 15 5 15 10 0 6 18 10 40 10 22 0 40 5 40 10 0 6 5 10 11 10 13 0 49 38
49 52 0 4 7 8 15 8 8 0 15 5 15 10 0 6 8 10 18 10 10 0 24 9 32 20 12 16 26
20 72 20 32 0 58 4 58 10 0 6 7 10 15 10 8 0 15 5 15 10 0 6 7 10 15 10 8 0
15 4 15 9 0 18 59 71 79 71 12 0 21 5 21 10 0 6 7 10 15 10 8 0 15 5 15 10 0
6 7 10 15 10 8 0 15 5 15 10 0 6 9 10 20 10 11 0 20 5 20 10 0 6 21 10 46 10
41 0 50 4 94 50 27 28 56 50 64 50 9 0 16 5 16 10 0 6 11 10 25 10 14 0 25 5
25 10 0 6 6 10 13 10 13 0 37 40 37 61 0 11 25 39 35 39 9 0 29 21 43 45 6 11
12 14 12 8 0 -20 24 -15 40 7 8 11 20 20 26 20 6 0 17 14 24 30 7 17 16 30 21
30 5 0 9 9 9 20 0 16 7 20 35 20 21 0 35 5 35 13 0 8 4 7 11 -3 9 -12 10 -12
5 4 -4 12 1 25 15 37 11 10 18 23 14 29 -8 13 18 40 40 40 12 0 15 5 11 17 -4
9 -2 19 4 23 16 10 43 108 44 156 0 22 -7 58 -16 80 -50 118 -59 191 -31 249
13 28 22 35 45 35 15 0 28 5 28 10 0 6 16 10 36 10 40 0 58 13 67 51 9 35 43
74 51 57 3 -7 3 -3 1 8 -4 14 4 31 23 52 15 16 36 48 47 71 10 23 22 41 27 41
4 0 8 9 8 20 0 11 3 20 8 20 7 0 9 4 62 163 23 71 36 95 42 85 7 -10 8 -8 4 5
-8 26 5 111 15 95 6 -9 9 -6 9 10 0 12 -5 22 -11 22 -7 0 -9 11 -6 27 3 15 1
35 -4 45 -5 9 -11 36 -13 60 -5 54 -17 101 -26 108 -4 3 -2 34 6 70 7 36 15
89 16 118 1 28 5 52 8 52 3 0 14 27 23 60 20 66 29 78 22 28 l-5 -33 10 29 c5
16 13 32 18 35 5 3 26 40 47 81 21 41 42 78 46 81 17 10 49 114 44 139 -3 14
2 43 10 65 l16 40 -6 -35 c-3 -25 -2 -31 5 -20 5 8 7 35 5 60 -3 25 -1 83 3
130 5 47 10 70 11 51 0 -19 3 -32 6 -29 3 3 0 57 -6 119 -7 63 -11 155 -10
204 1 50 -2 95 -6 102 -5 6 -7 -26 -6 -70 l1 -82 -8 95 c-5 52 -7 104 -4 115
4 15 3 17 -4 6 -8 -11 -13 -4 -22 30 -7 24 -13 59 -15 77 -1 18 -6 36 -10 40
-4 4 -4 -4 -1 -18 6 -19 5 -21 -3 -10 -6 8 -8 25 -4 38 3 13 0 43 -6 65 -42
145 -44 155 -31 137 8 -12 9 -8 4 15 -8 36 -23 68 -37 77 -6 3 -11 19 -12 35
-4 48 -17 103 -25 103 -4 0 -11 26 -15 58 -4 31 -11 59 -15 62 -5 3 -16 42
-25 88 -9 45 -25 104 -35 130 -10 26 -24 63 -32 82 -7 19 -16 37 -19 40 -9 8
-30 50 -39 79 -21 67 -50 132 -64 146 -9 9 -16 25 -16 35 0 11 -11 30 -25 44
-14 14 -25 37 -25 51 0 16 -6 25 -16 25 -11 0 -13 6 -9 19 4 13 -2 27 -18 43
-13 13 -26 32 -29 43 -16 51 -49 129 -57 134 -5 3 -12 23 -16 44 -4 20 -11 37
-15 37 -21 0 -57 127 -64 230 -3 36 -5 66 -5 68 -1 1 -10 2 -21 2 -25 0 -25
12 0 80 11 30 20 57 20 60 0 3 5 -2 11 -10 8 -11 9 -8 4 15 -11 44 -7 128 6
136 7 4 10 21 7 40 -3 21 0 38 9 47 8 8 12 21 9 28 -6 16 13 64 25 64 4 0 11
9 14 20 3 11 12 20 20 20 16 0 25 22 25 61 0 16 29 88 65 159 36 71 65 142 65
156 0 14 7 54 16 88 9 36 14 78 10 103 -6 42 -81 205 -97 211 -5 2 -9 10 -9
19 0 15 -23 43 -35 43 -10 0 -65 60 -65 71 0 5 -5 9 -11 9 -17 0 -48 39 -56
69 -6 25 -45 71 -60 71 -5 0 -15 9 -23 20 -8 11 -20 20 -27 20 -7 0 -13 5 -13
10 0 6 -7 10 -15 10 -8 0 -15 4 -15 8 0 17 -38 52 -55 52 -17 0 -55 35 -55 51
0 5 -15 24 -34 42 -49 50 -59 73 -51 123 3 24 10 44 16 44 14 0 11 77 -5 92
-7 8 -21 29 -31 47 -9 18 -35 52 -58 76 -23 23 -49 52 -57 64 -27 40 -44 62
-82 102 -20 22 -40 48 -43 59 -4 11 -13 20 -21 20 -8 0 -14 4 -14 9 0 5 -18
28 -40 51 -22 23 -40 45 -40 50 0 4 -13 22 -29 40 -46 52 -50 58 -63 85 -6 14
-14 25 -18 25 -10 0 -26 42 -46 120 -21 84 -15 183 13 208 32 28 42 92 32 205
-12 138 -30 258 -41 281 -14 26 -176 186 -189 186 -33 0 -58 55 -69 150 -9 81
-6 110 12 110 26 0 39 33 42 107 2 43 4 81 5 86 0 4 11 7 24 7 12 0 29 9 37
21 32 45 48 59 69 59 27 0 71 42 71 69 0 34 12 51 35 51 15 0 26 8 30 19 8 26
60 81 75 81 15 0 47 35 55 61 4 11 12 19 19 19 27 0 80 161 81 245 l0 60
-2852 3 -2853 2 0 -17271z"/>
<path fill="#ffffff" stroke="000000" stroke-width="0.01" d="M15930 34780 c0 -5 -9 -10 -19 -10 -11
0 -23 -9 -26 -20 -3 -11 -10 -20 -15 -20 -5 0 -12 -9 -15 -20 -5 -15 -15 -20
-40 -20 -25 0 -35 -5 -40 -20 -5 -16 -15 -20 -51 -20 -24 0 -44 5 -44 10 0 6
-18 10 -40 10 -22 0 -40 5 -40 10 0 6 -9 10 -20 10 -11 0 -20 5 -20 10 0 6 -7
10 -15 10 -8 0 -15 5 -15 10 0 6 -13 10 -30 10 -16 0 -30 5 -30 10 0 6 -7 10
-15 10 -8 0 -15 -4 -15 -10 0 -5 -7 -10 -16 -10 -8 0 -21 -6 -28 -13 -35 -34
-76 -150 -76 -214 0 -24 -11 -43 -49 -82 -43 -44 -55 -51 -88 -51 -27 0 -43
-6 -53 -20 -8 -11 -20 -20 -27 -20 -7 0 -13 -4 -13 -10 0 -6 -30 -10 -71 -10
-66 0 -73 2 -99 30 -15 17 -35 30 -44 30 -9 0 -16 5 -16 10 0 6 -16 10 -35 10
-19 0 -35 -4 -35 -10 0 -5 -9 -10 -20 -10 -11 0 -20 -4 -20 -10 0 -5 -9 -10
-20 -10 -11 0 -20 -4 -20 -10 0 -5 -8 -10 -18 -10 -10 0 -24 -9 -32 -20 -8
-11 -18 -20 -23 -20 -9 0 -68 -60 -99 -101 -10 -12 -20 -43 -23 -68 -8 -61
-19 -105 -44 -171 -24 -63 -61 -231 -54 -242 2 -4 -1 -72 -7 -149 l-11 -142
-70 -139 c-56 -111 -70 -150 -71 -188 -1 -26 4 -54 10 -61 7 -8 25 -29 41 -46
16 -18 32 -49 36 -70 4 -20 16 -55 27 -76 11 -22 17 -49 14 -60 -3 -11 4 -37
15 -58 10 -21 19 -45 19 -54 0 -8 6 -15 13 -15 7 0 27 -28 43 -62 16 -34 39
-72 51 -84 12 -12 25 -38 28 -58 4 -20 11 -36 15 -36 17 0 28 -51 23 -111 -11
-141 -9 -159 53 -404 8 -33 16 -71 18 -85 1 -14 8 -34 14 -46 6 -11 14 -59 18
-106 5 -71 3 -97 -14 -154 -11 -38 -28 -115 -37 -172 -25 -154 -4 -253 68
-326 18 -18 42 -54 54 -81 26 -60 73 -208 73 -230 0 -9 7 -29 15 -45 8 -16 20
-64 26 -107 6 -43 24 -132 41 -198 17 -66 34 -151 38 -190 26 -232 39 -333 48
-355 15 -35 40 -179 48 -272 3 -43 10 -78 15 -78 5 0 9 -39 9 -87 0 -101 21
-213 56 -293 13 -30 31 -84 39 -120 9 -36 22 -81 30 -100 27 -65 57 -244 64
-388 4 -79 12 -147 18 -150 5 -4 13 -19 16 -33 4 -14 16 -36 27 -49 12 -13 20
-37 20 -57 0 -37 23 -89 50 -113 26 -23 61 -97 54 -114 -3 -9 -12 -16 -20 -16
-17 0 -28 -42 -20 -75 3 -13 17 -35 30 -48 13 -13 32 -39 41 -57 9 -18 31 -48
48 -66 64 -68 75 -82 92 -115 10 -19 21 -36 25 -39 4 -3 15 -20 24 -39 10 -18
33 -49 52 -68 19 -18 34 -38 34 -43 0 -6 6 -10 13 -10 7 0 19 -9 27 -20 8 -11
22 -20 32 -20 10 0 18 -4 18 -10 0 -5 9 -10 20 -10 11 0 20 -4 20 -10 0 -5 7
-10 15 -10 8 0 15 -4 15 -10 0 -5 7 -10 15 -10 8 0 15 -4 15 -10 0 -5 7 -10
15 -10 8 0 15 -4 15 -10 0 -5 5 -10 11 -10 6 0 28 -18 49 -40 21 -22 46 -40
54 -40 9 0 16 -4 16 -10 0 -5 18 -10 40 -10 22 0 40 -4 40 -10 0 -5 23 -10 50
-10 28 0 50 5 50 10 0 6 43 10 110 10 67 0 110 4 110 10 0 6 28 10 65 10 37 0
65 -4 65 -10 0 -5 7 -10 15 -10 8 0 15 -4 15 -10 0 -5 7 -10 15 -10 8 0 15 -4
15 -10 0 -5 7 -10 15 -10 8 0 15 -4 15 -10 0 -5 7 -10 15 -10 8 0 15 -4 15
-10 0 -5 9 -10 20 -10 11 0 20 -4 20 -10 0 -5 7 -10 15 -10 8 0 15 -4 15 -10
0 -5 7 -10 15 -10 8 0 15 -4 15 -10 0 -5 7 -10 15 -10 8 0 15 -4 15 -10 0 -5
11 -10 25 -10 14 0 25 -4 25 -10 0 -5 9 -10 20 -10 11 0 20 -4 20 -10 0 -5 9
-10 20 -10 11 0 20 -4 20 -10 0 -5 11 -10 25 -10 14 0 25 -4 25 -10 0 -5 21
-10 46 -10 39 0 50 -5 74 -31 49 -56 52 -60 70 -109 18 -48 25 -59 67 -104 12
-13 42 -64 66 -113 39 -76 46 -100 51 -172 4 -54 14 -97 27 -124 16 -30 19
-50 15 -80 -10 -59 -30 -92 -109 -171 -40 -40 -79 -83 -87 -95 -14 -21 -34
-47 -59 -77 -5 -6 -24 -40 -42 -75 -17 -35 -35 -66 -39 -69 -4 -3 -33 -57 -65
-120 -32 -63 -61 -117 -65 -120 -4 -3 -22 -34 -40 -70 -18 -36 -36 -67 -40
-70 -4 -3 -18 -25 -30 -50 -12 -25 -26 -47 -30 -50 -4 -3 -17 -25 -30 -49 -12
-24 -26 -49 -31 -55 -40 -47 -49 -60 -49 -67 0 -10 -77 -89 -87 -89 -5 0 -15
-9 -23 -21 -8 -12 -27 -35 -42 -53 -16 -17 -43 -48 -60 -69 -50 -58 -206 -217
-213 -217 -4 0 -24 -18 -45 -40 -21 -22 -41 -40 -45 -40 -4 0 -24 -18 -45 -40
-21 -22 -42 -40 -47 -40 -5 0 -15 -9 -23 -20 -8 -11 -20 -20 -27 -20 -7 0 -13
-4 -13 -10 0 -5 -11 -10 -25 -10 -14 0 -25 -4 -25 -10 0 -5 -9 -10 -20 -10
-11 0 -20 -4 -20 -10 0 -5 -11 -10 -25 -10 -14 0 -25 -4 -25 -10 0 -5 -7 -10
-15 -10 -8 0 -15 -4 -15 -10 0 -5 -7 -10 -15 -10 -8 0 -15 -4 -15 -10 0 -5 -7
-10 -15 -10 -8 0 -15 -4 -15 -10 0 -5 -9 -10 -20 -10 -11 0 -20 -4 -20 -10 0
-5 -9 -10 -20 -10 -11 0 -20 -4 -20 -10 0 -5 -9 -10 -20 -10 -11 0 -20 -4 -20
-10 0 -5 -7 -10 -15 -10 -18 0 -77 -56 -95 -90 -14 -27 -33 -189 -34 -301 -1
-72 -3 -78 -33 -106 -31 -29 -51 -71 -77 -163 -7 -25 -18 -56 -25 -67 -6 -12
-11 -36 -11 -53 0 -17 -5 -41 -11 -52 -12 -23 -75 -88 -84 -88 -3 0 -50 -45
-105 -100 -55 -55 -104 -100 -110 -100 -5 0 -10 -4 -10 -8 0 -18 -121 -152
-137 -152 -5 0 -15 -9 -23 -20 -8 -11 -18 -20 -23 -20 -20 0 -87 -84 -97 -121
-14 -52 -4 -122 28 -184 20 -40 27 -69 30 -140 4 -88 3 -91 -24 -122 -16 -17
-36 -40 -44 -52 -8 -12 -22 -21 -32 -21 -10 0 -18 -4 -18 -10 0 -5 -13 -10
-30 -10 -16 0 -30 5 -30 10 0 6 -16 10 -35 10 -19 0 -35 5 -35 10 0 6 -9 10
-20 10 -11 0 -20 5 -20 10 0 6 -5 10 -11 10 -15 0 -49 39 -49 57 0 21 -32 51
-38 35 -6 -18 -79 -92 -91 -92 -6 0 -11 -4 -11 -10 0 -7 -152 -10 -435 -10
-283 0 -435 3 -435 10 0 6 -112 10 -315 10 -203 0 -315 -4 -315 -10 0 -5 -16
-10 -35 -10 -19 0 -35 -4 -35 -10 0 -5 -13 -10 -30 -10 -16 0 -30 5 -30 10 0
6 -20 10 -45 10 -25 0 -45 -4 -45 -10 0 -6 -37 -10 -90 -10 -53 0 -90 4 -90
10 0 6 -62 10 -165 10 -103 0 -165 4 -165 10 0 6 -18 10 -40 10 -22 0 -40 5
-40 10 0 6 -16 10 -36 10 -27 0 -43 7 -64 30 -15 17 -37 30 -49 30 -12 0 -21
5 -21 10 0 6 -5 10 -11 10 -6 0 -24 14 -39 30 -15 17 -33 30 -39 30 -6 0 -11
5 -11 10 0 6 -6 10 -13 10 -7 0 -19 9 -27 20 -8 11 -19 20 -25 20 -5 0 -21 14
-35 31 -49 60 -119 129 -129 129 -6 0 -11 5 -11 10 0 6 -7 10 -15 10 -8 0 -15
5 -15 10 0 6 -9 10 -20 10 -11 0 -20 5 -20 10 0 6 -7 10 -15 10 -8 0 -15 5
-15 10 0 6 -6 10 -13 10 -7 0 -19 10 -27 21 -20 29 -127 139 -135 139 -4 0
-20 14 -35 30 -15 17 -32 30 -37 30 -5 0 -15 9 -23 20 -12 16 -26 20 -72 20
-32 0 -58 4 -58 10 0 6 -38 10 -95 10 -57 0 -95 -4 -95 -10 0 -5 -7 -10 -15
-10 -8 0 -15 -4 -15 -10 0 -5 -16 -10 -35 -10 -19 0 -35 -4 -35 -10 0 -5 -13
-10 -30 -10 -16 0 -30 -4 -30 -10 0 -5 -13 -10 -30 -10 -26 0 -31 -5 -40 -40
-9 -33 -15 -40 -35 -40 -19 0 -26 -7 -31 -27 -16 -66 -51 -113 -83 -113 -12 0
-21 -4 -21 -10 0 -5 -9 -10 -20 -10 -11 0 -20 -4 -20 -10 0 -5 -7 -10 -15 -10
-12 0 -15 -16 -15 -85 0 -49 -5 -92 -11 -99 -6 -8 -24 -28 -40 -46 -16 -18
-29 -36 -29 -41 0 -5 -8 -9 -19 -9 -12 0 -20 -9 -24 -28 -3 -15 -14 -37 -25
-50 -11 -12 -25 -36 -32 -52 -7 -17 -16 -30 -19 -30 -4 0 -5 -27 -3 -60 3 -40
1 -60 -7 -60 -6 0 -11 5 -11 10 0 26 -29 5 -45 -32 -31 -76 -35 -89 -35 -108
0 -29 -22 -70 -37 -70 -7 0 -13 -4 -13 -10 0 -6 -28 -10 -65 -10 -37 0 -65 -4
-65 -10 0 -5 -7 -10 -15 -10 -8 0 -15 5 -15 10 0 6 -11 10 -25 10 -14 0 -25 5
-25 10 0 6 -6 10 -13 10 -7 0 -19 9 -27 20 -8 11 -18 20 -23 20 -5 0 -22 14
-37 30 -15 17 -35 30 -44 30 -9 0 -16 7 -16 16 0 18 -23 44 -39 44 -6 0 -11 5
-11 10 0 6 -11 10 -25 10 -14 0 -25 5 -25 10 0 6 -7 10 -15 10 -8 0 -15 -9
-15 -20 0 -11 -5 -20 -11 -20 -18 0 -69 60 -69 81 0 10 -7 19 -15 19 -8 0 -15
5 -15 10 0 6 -7 10 -15 10 -8 0 -15 5 -15 10 0 6 -7 10 -15 10 -8 0 -15 5 -15
10 0 6 -6 10 -13 10 -7 0 -19 9 -27 20 -8 11 -22 20 -32 20 -10 0 -18 5 -18
10 0 18 -18 11 -25 -10 -6 -18 -15 -20 -86 -20 -46 0 -79 4 -79 10 0 6 -7 10
-15 10 -8 0 -15 5 -15 10 0 6 -6 10 -14 10 -8 0 -17 6 -20 13 -5 10 -7 10 -12
0 -7 -15 -94 -18 -94 -3 0 6 -27 10 -60 10 -33 0 -60 4 -60 10 0 6 -8 10 -18
10 -10 0 -24 9 -32 20 -8 11 -20 20 -27 20 -7 0 -13 5 -13 10 0 6 -7 10 -16
10 -9 0 -29 14 -44 30 -15 17 -37 30 -49 30 -12 0 -21 5 -21 10 0 6 -7 10 -15
10 -8 0 -15 5 -15 10 0 6 -7 10 -15 10 -8 0 -15 5 -15 10 0 6 -6 10 -13 10 -7
0 -19 9 -27 20 -8 11 -19 20 -25 20 -6 0 -17 9 -25 20 -8 11 -20 20 -27 20 -7
0 -13 5 -13 10 0 6 -8 10 -18 10 -10 0 -24 9 -32 20 -8 11 -20 20 -27 20 -7 0
-13 5 -13 10 0 6 -7 10 -16 10 -9 0 -29 14 -44 30 -15 17 -36 30 -47 30 -10 0
-25 9 -33 20 -8 11 -22 20 -32 20 -10 0 -18 5 -18 10 0 6 -6 10 -14 10 -8 0
-18 9 -21 20 -4 13 -15 20 -31 20 -13 0 -24 5 -24 10 0 6 -6 10 -14 10 -8 0
-18 9 -21 20 -3 11 -12 20 -18 20 -7 0 -19 9 -27 20 -8 11 -20 20 -27 20 -7 0
-13 5 -13 10 0 6 -11 10 -25 10 -14 0 -25 4 -25 9 0 14 -116 131 -129 131 -6
0 -11 5 -11 10 0 6 -7 10 -15 10 -8 0 -15 5 -15 10 0 6 -6 10 -13 10 -7 0 -19
9 -27 20 -8 11 -19 20 -25 20 -6 0 -17 9 -25 20 -8 11 -18 20 -23 20 -4 0 -35
27 -67 60 -32 33 -63 60 -67 60 -4 0 -19 14 -33 31 -48 57 -78 89 -85 89 -10
0 -85 80 -85 91 0 5 -6 9 -13 9 -7 0 -19 9 -27 20 -8 11 -20 20 -27 20 -6 0
-14 8 -18 19 -6 21 -39 61 -49 61 -4 0 -34 27 -66 60 -32 33 -66 60 -74 60 -9
0 -16 5 -16 10 0 6 -7 10 -15 10 -8 0 -15 5 -15 10 0 6 -9 10 -20 10 -11 0
-20 5 -20 10 0 6 -11 10 -25 10 -14 0 -25 5 -25 10 0 6 -22 10 -50 10 -27 0
-50 5 -50 10 0 6 -11 10 -25 10 -14 0 -25 -4 -25 -10 0 -18 -45 -10 -60 11
-36 50 -48 59 -84 59 -20 0 -36 -4 -36 -10 0 -5 -16 -10 -35 -10 -19 0 -35 -4
-35 -10 0 -5 -7 -10 -15 -10 -8 0 -15 5 -15 10 0 6 -11 10 -25 10 -14 0 -25 5
-25 10 0 6 -9 10 -20 10 -11 0 -20 5 -20 10 0 6 -5 10 -11 10 -6 0 -24 14 -39
30 -15 17 -31 30 -35 30 -4 0 -20 14 -35 30 -15 17 -35 30 -44 30 -9 0 -16 5
-16 10 0 6 -5 10 -11 10 -16 0 -34 22 -59 71 -28 55 -29 56 -40 39 -6 -11 -10
-7 -16 15 -8 32 -26 55 -43 55 -6 0 -11 -4 -11 -10 0 -18 -18 -11 -25 10 -3
11 -13 20 -21 20 -8 0 -14 5 -14 10 0 6 -7 10 -15 10 -8 0 -15 4 -15 9 0 16
-58 71 -74 71 -9 0 -16 5 -16 10 0 6 -14 10 -31 10 -22 0 -40 9 -59 30 -15 17
-31 30 -34 30 -4 0 -38 32 -76 70 l-69 70 -111 0 c-67 0 -110 4 -110 10 0 6
-18 10 -40 10 -22 0 -40 5 -40 10 0 6 -13 10 -30 10 -16 0 -30 -4 -30 -10 0
-5 -9 -10 -20 -10 -13 0 -20 -7 -20 -18 0 -11 -9 -29 -20 -42 -13 -15 -18 -31
-14 -44 4 -15 3 -17 -4 -7 -8 11 -11 9 -17 -8 -3 -11 -12 -21 -20 -21 -7 0
-16 -6 -19 -12 -5 -10 -7 -10 -12 0 -3 6 -14 12 -24 12 -10 0 -20 6 -22 12 -3
9 -9 8 -21 -4 -9 -9 -17 -18 -17 -21 0 -10 38 -47 49 -47 6 0 11 -4 11 -10 0
-5 9 -10 20 -10 11 0 20 -4 20 -10 0 -5 11 -10 25 -10 14 0 25 -4 25 -10 0 -5
11 -10 25 -10 14 0 25 -4 25 -10 0 -5 23 -10 50 -10 28 0 50 5 50 10 0 6 33
10 78 10 66 0 80 -3 92 -20 8 -11 20 -20 27 -20 7 0 13 -4 13 -10 0 -5 9 -10
20 -10 11 0 20 -4 20 -10 0 -5 11 -10 25 -10 14 0 25 -4 25 -10 0 -5 7 -10 15
-10 8 0 15 -4 15 -10 0 -5 9 -10 20 -10 11 0 20 -4 20 -10 0 -5 7 -10 15 -10
8 0 15 -4 15 -10 0 -5 7 -10 15 -10 8 0 15 -4 15 -10 0 -5 9 -10 20 -10 11 0
20 -4 20 -10 0 -5 9 -10 20 -10 11 0 20 -4 20 -10 0 -5 11 -10 25 -10 14 0 25
-4 25 -10 0 -5 7 -10 15 -10 8 0 15 -4 15 -10 0 -5 14 -10 30 -10 17 0 30 -4
30 -10 0 -5 5 -10 11 -10 6 0 24 -13 39 -30 19 -21 37 -30 59 -30 17 0 31 -4
31 -10 0 -5 6 -10 13 -10 7 0 19 -9 27 -20 8 -11 23 -20 33 -20 23 0 39 -16
62 -60 10 -19 21 -37 25 -40 4 -3 15 -21 25 -40 29 -56 37 -60 124 -60 l81 0
0 -30 c0 -25 -4 -30 -25 -30 -14 0 -25 5 -25 10 0 6 -13 10 -30 10 -16 0 -30
-4 -30 -10 0 -5 -7 -10 -15 -10 -8 0 -15 -4 -15 -10 0 -5 5 -10 11 -10 6 0 24
-14 40 -31 22 -23 29 -41 29 -70 0 -28 4 -39 15 -39 8 0 15 -4 15 -10 0 -5 22
-10 49 -10 50 0 67 13 55 44 -3 8 -1 31 5 51 8 29 7 44 -3 64 -24 47 -29 89
-12 106 16 17 66 21 66 5 0 -5 11 -10 25 -10 14 0 25 -4 25 -10 0 -5 16 -10
35 -10 19 0 35 -4 35 -10 0 -5 8 -10 18 -10 10 0 24 -9 32 -20 8 -11 20 -20
27 -20 7 0 13 -4 13 -10 0 -5 18 -10 40 -10 22 0 40 -4 40 -10 0 -5 9 -10 20
-10 11 0 20 -4 20 -10 0 -5 11 -10 25 -10 14 0 25 -4 25 -10 0 -5 9 -10 20
-10 11 0 20 -4 20 -10 0 -5 14 -10 30 -10 17 0 30 -4 30 -10 0 -5 6 -10 13
-10 7 0 19 -9 27 -20 8 -11 18 -20 23 -20 5 0 22 -13 37 -30 15 -16 33 -30 39
-30 6 0 11 -4 11 -10 0 -5 7 -10 15 -10 8 0 15 -4 15 -10 0 -5 5 -10 10 -10
25 0 61 -51 67 -95 3 -28 11 -45 19 -45 8 0 14 -4 14 -10 0 -5 5 -10 11 -10 6
0 24 -13 39 -30 15 -16 33 -30 39 -30 6 0 11 -4 11 -10 0 -5 9 -10 20 -10 11
0 20 -4 20 -10 0 -5 9 -10 20 -10 11 0 20 -4 20 -10 0 -5 7 -10 15 -10 8 0 15
-4 15 -10 0 -5 9 -10 20 -10 11 0 20 -4 20 -10 0 -5 7 -10 15 -10 8 0 15 -4
15 -10 0 -5 7 -10 15 -10 8 0 15 -4 15 -10 0 -5 6 -10 13 -10 7 0 19 -9 27
-20 8 -11 18 -20 23 -20 5 0 22 -13 37 -30 15 -16 33 -30 40 -30 7 0 25 -13
40 -30 15 -16 37 -30 49 -30 12 0 21 -4 21 -9 0 -13 56 -71 69 -71 6 0 11 -4
11 -10 0 -5 12 -10 26 -10 26 0 54 -20 54 -40 0 -14 25 -40 39 -40 6 0 11 -4
11 -10 0 -5 7 -10 15 -10 8 0 15 -4 15 -10 0 -5 9 -10 20 -10 11 0 20 -4 20
-10 0 -5 7 -10 16 -10 11 0 14 -6 9 -20 -5 -14 -2 -20 9 -20 9 0 16 -4 16 -10
0 -5 7 -10 15 -10 8 0 15 -4 15 -10 0 -5 7 -10 15 -10 8 0 15 -4 15 -10 0 -5
7 -10 15 -10 8 0 15 -4 15 -10 0 -5 7 -10 15 -10 8 0 15 -4 15 -10 0 -5 7 -10
15 -10 8 0 15 -4 15 -10 0 -5 7 -10 15 -10 8 0 15 -4 15 -10 0 -5 7 -10 15
-10 8 0 15 -4 15 -10 0 -5 7 -10 15 -10 8 0 15 -4 15 -10 0 -5 7 -10 15 -10 8
0 15 -4 15 -10 0 -5 7 -10 15 -10 8 0 15 -4 15 -10 0 -5 7 -10 15 -10 8 0 15
-4 15 -10 0 -5 7 -10 15 -10 8 0 15 -4 15 -10 0 -5 7 -10 15 -10 8 0 15 -4 15
-10 0 -5 7 -10 15 -10 8 0 15 -4 15 -10 0 -5 8 -10 18 -10 10 0 24 -9 32 -20
8 -11 19 -20 25 -20 6 0 17 -9 25 -20 8 -11 20 -20 27 -20 7 0 13 -4 13 -10 0
-5 11 -10 25 -10 14 0 25 -4 25 -9 0 -5 12 -23 28 -40 15 -16 38 -44 52 -60
14 -17 33 -31 43 -31 9 0 17 -4 17 -10 0 -5 7 -10 15 -10 8 0 15 -4 15 -10 0
-5 6 -10 13 -10 7 0 19 -9 27 -20 8 -11 20 -20 27 -20 7 0 13 -4 13 -10 0 -5
7 -10 15 -10 8 0 15 -4 15 -10 0 -5 7 -10 15 -10 9 0 51 -36 95 -80 44 -44 84
-80 90 -80 5 0 10 -7 10 -15 0 -8 20 -56 44 -107 24 -51 52 -112 62 -135 15
-38 21 -43 49 -43 29 0 32 -3 32 -32 2 -94 16 -168 33 -168 4 0 13 -13 20 -30
7 -16 16 -30 21 -30 12 0 23 -91 11 -99 -5 -3 -8 -18 -5 -34 4 -20 11 -27 28
-27 20 0 24 -7 33 -57 7 -39 7 -64 0 -77 -6 -10 -8 -39 -5 -62 4 -41 3 -44
-19 -44 -21 0 -24 -5 -24 -40 0 -33 3 -40 20 -40 19 0 19 -6 16 -142 -2 -79
-4 -187 -5 -240 -1 -98 -1 -98 -26 -98 -25 0 -31 -13 -19 -44 3 -9 14 -16 23
-16 15 0 17 -14 15 -137 -1 -89 -6 -139 -13 -141 -21 -7 -11 -102 11 -102 12
0 48 39 48 52 0 4 41 8 90 8 53 0 90 -4 90 -10 0 -20 33 -9 61 21 16 17 29 35
29 40 0 5 7 9 15 9 8 0 15 5 15 10 0 6 7 10 15 10 8 0 15 5 15 10 0 6 14 10
30 10 17 0 30 5 30 10 0 6 7 10 15 10 8 0 15 5 15 10 0 6 5 10 11 10 11 0 53
41 79 79 8 12 20 21 27 21 7 0 13 9 13 20 0 11 5 20 10 20 6 0 10 9 10 20 0
13 7 20 20 20 11 0 20 5 20 10 0 6 7 10 16 10 9 0 29 14 44 30 20 21 37 30 60
30 33 0 70 30 70 56 0 24 -33 84 -47 84 -7 0 -13 5 -13 10 0 6 -5 10 -10 10
-14 0 -54 40 -70 69 -14 28 -4 118 16 138 34 35 40 123 14 216 -10 34 -14 37
-45 37 l-35 0 0 56 c0 30 5 65 11 76 9 16 9 39 0 87 -6 36 -12 146 -15 244
l-4 177 38 0 c34 0 38 3 44 33 3 17 16 62 27 100 16 52 25 67 40 67 10 0 19 4
19 9 0 5 6 16 13 23 19 21 38 81 27 88 -12 7 7 80 20 80 6 0 10 11 10 24 0 32
36 144 52 160 7 8 20 24 28 36 8 13 25 33 38 46 31 32 60 129 54 181 -3 37 0
46 30 77 47 50 57 62 70 91 6 14 14 25 18 25 6 0 69 130 90 188 7 17 19 32 26
32 8 0 14 5 14 10 0 6 37 10 90 10 53 0 90 -4 90 -10 0 -5 9 -10 20 -10 11 0
20 5 20 10 0 6 7 10 15 10 8 0 15 -9 15 -20 0 -11 7 -20 15 -20 8 0 15 -4 15
-10 0 -5 5 -10 11 -10 13 0 49 -38 49 -52 0 -4 7 -8 15 -8 8 0 15 -4 15 -10 0
-5 6 -10 13 -10 7 0 19 -9 27 -20 8 -11 20 -20 27 -20 7 0 13 -4 13 -8 0 -13
36 -52 47 -52 11 0 33 -43 33 -64 0 -15 26 -47 130 -165 17 -18 30 -39 30 -47
0 -24 54 -124 67 -124 7 0 13 -4 13 -10 0 -5 9 -10 20 -10 11 0 20 -4 20 -10
0 -5 11 -10 24 -10 13 0 27 -6 29 -12 4 -10 6 -10 6 0 1 15 121 17 121 2 0 -5
25 -10 55 -10 30 0 55 5 55 10 0 6 32 10 76 10 71 0 75 -1 69 -20 -5 -16 -2
-20 15 -20 25 0 50 22 50 44 0 11 9 16 26 16 24 0 26 -3 21 -30 l-6 -30 219 0
c140 0 220 4 220 10 0 6 9 10 20 10 11 0 20 5 20 10 0 22 53 9 80 -20 27 -29
80 -42 80 -20 0 6 16 10 35 10 19 0 35 5 35 10 0 6 37 10 90 10 53 0 90 -4 90
-10 0 -6 93 -10 260 -10 167 0 260 -4 260 -10 0 -5 22 -10 49 -10 30 0 51 -5
54 -12 4 -10 6 -10 6 0 1 15 91 17 91 2 0 -5 16 -10 35 -10 19 0 35 5 35 10 0
6 14 10 30 10 17 0 30 -4 30 -10 0 -5 18 -10 40 -10 22 0 40 -4 40 -10 0 -5
16 -10 35 -10 19 0 35 -4 35 -10 0 -5 14 -10 30 -10 17 0 30 -4 30 -10 0 -5
14 -10 30 -10 17 0 30 -4 30 -10 0 -5 14 -10 30 -10 17 0 30 -4 30 -10 0 -5
14 -10 31 -10 38 0 64 -27 74 -77 3 -20 12 -41 18 -48 7 -7 19 -22 27 -34 8
-11 20 -21 27 -21 7 0 13 -4 13 -10 0 -5 7 -10 15 -10 8 0 15 -4 15 -10 0 -6
28 -10 65 -10 37 0 65 4 65 10 0 6 9 10 20 10 11 0 20 5 20 10 0 6 8 10 18 10
34 0 54 -64 47 -147 -7 -73 5 -133 27 -133 15 0 69 -62 65 -74 -2 -6 -17 -65
-32 -131 -15 -66 -33 -135 -41 -153 -17 -39 -18 -74 -4 -122 7 -24 6 -69 -2
-145 -11 -101 -19 -374 -17 -601 1 -119 -36 -230 -97 -291 -13 -13 -24 -28
-24 -33 0 -5 -6 -15 -14 -22 -19 -19 -46 -74 -46 -93 0 -8 -4 -15 -9 -15 -5 0
-14 -13 -21 -30 -11 -26 -20 -39 -59 -86 -5 -6 -17 -26 -26 -44 -20 -38 -24
-44 -85 -109 -25 -27 -52 -59 -60 -71 -8 -12 -20 -28 -26 -34 -31 -32 -64
-127 -64 -183 0 -24 4 -43 9 -43 5 0 13 -9 16 -20 3 -11 13 -20 22 -20 16 0
35 -18 63 -60 8 -13 25 -33 36 -45 57 -58 59 -70 56 -340 -2 -264 -17 -396
-51 -464 -30 -60 -56 -195 -70 -366 -6 -83 -15 -124 -34 -165 -24 -53 -50
-146 -66 -240 -5 -25 -15 -81 -24 -125 -26 -134 -47 -307 -47 -396 0 -61 -6
-99 -21 -139 -55 -143 -109 -307 -113 -340 -4 -35 -37 -100 -51 -100 -11 0
-28 -34 -69 -135 -18 -44 -46 -166 -46 -202 0 -13 -3 -23 -7 -23 -5 0 -8 -35
-7 -78 0 -60 -4 -87 -22 -122 -29 -59 -37 -100 -35 -179 1 -63 23 -162 55
-246 8 -22 15 -50 16 -61 0 -30 32 -126 46 -141 6 -6 16 -26 23 -45 7 -18 20
-50 29 -71 14 -34 14 -44 -1 -115 -9 -42 -19 -98 -21 -123 -6 -54 -15 -76
-102 -257 -88 -181 -86 -230 8 -325 30 -29 60 -68 67 -85 8 -18 17 -32 22 -32
4 0 13 -17 19 -38 5 -22 18 -49 29 -61 10 -12 23 -34 29 -49 21 -55 70 -229
87 -307 10 -44 24 -96 33 -115 38 -91 76 -170 82 -170 4 0 15 -18 25 -40 10
-22 22 -40 26 -40 4 0 10 -10 14 -22 3 -13 27 -67 52 -120 45 -94 49 -98 79
-98 18 0 35 6 37 13 4 10 6 10 6 0 1 -7 6 -13 11 -13 26 0 102 -95 145 -180
43 -85 119 -180 145 -180 5 0 10 -4 10 -10 0 -5 6 -10 13 -10 7 0 19 -9 27
-20 8 -11 19 -20 25 -20 6 0 17 -9 25 -20 8 -11 20 -20 27 -20 7 0 13 -4 13
-10 0 -5 9 -10 20 -10 11 0 20 -4 20 -10 0 -5 11 -10 25 -10 14 0 25 -4 25
-10 0 -5 18 -10 40 -10 22 0 40 -4 40 -10 0 -5 7 -10 15 -10 8 0 15 -4 15 -10
0 -5 5 -10 11 -10 13 0 129 -117 129 -131 0 -5 25 -9 55 -9 30 0 55 -4 55 -10
0 -5 9 -10 20 -10 11 0 20 -4 20 -10 0 -5 6 -10 13 -10 7 0 19 -9 27 -21 8
-11 23 -30 33 -41 9 -12 17 -25 17 -29 0 -4 23 -31 50 -59 28 -28 50 -53 50
-55 0 -13 -25 -55 -32 -55 -30 0 -88 -113 -88 -170 0 -41 20 -91 46 -118 8 -7
14 -18 14 -23 0 -5 6 -9 13 -9 7 0 19 -10 27 -21 8 -12 20 -27 26 -33 33 -34
79 -151 114 -283 6 -25 26 -58 49 -82 21 -22 44 -54 50 -73 7 -18 21 -53 32
-78 10 -25 26 -70 34 -100 9 -30 23 -71 32 -90 8 -19 23 -60 33 -91 10 -31 28
-75 39 -97 12 -23 25 -72 31 -110 12 -83 18 -102 35 -102 7 0 16 -6 18 -12 4
-10 6 -10 6 0 1 7 14 12 31 12 17 0 30 5 30 10 0 6 7 10 15 10 8 0 15 5 15 10
0 6 7 10 15 10 23 0 65 46 77 83 12 40 28 190 35 327 4 99 -3 178 -26 280 -16
71 13 310 46 374 31 61 45 76 72 76 12 0 21 5 21 10 0 6 33 10 80 10 47 0 80
4 80 10 0 6 20 10 45 10 25 0 45 -4 45 -10 0 -5 8 -10 18 -10 10 0 24 -10 32
-21 8 -12 20 -27 26 -33 17 -18 54 -93 54 -110 0 -8 4 -16 9 -18 5 -2 30 -45
55 -97 26 -51 52 -98 57 -105 41 -49 49 -61 49 -73 0 -8 9 -31 20 -53 15 -30
22 -72 29 -177 5 -76 16 -158 24 -183 9 -25 19 -70 22 -100 4 -30 13 -73 20
-95 10 -32 10 -51 0 -100 -7 -33 -17 -71 -23 -85 -35 -88 -46 -110 -52 -110
-4 0 -10 -13 -13 -29 -3 -16 -12 -35 -20 -42 -7 -8 -17 -26 -20 -40 -4 -14
-16 -36 -27 -49 -11 -13 -25 -40 -30 -62 -6 -21 -15 -38 -20 -38 -5 0 -12 -9
-15 -20 -7 -22 -99 -120 -112 -120 -5 0 -15 -9 -23 -20 -8 -11 -20 -20 -27
-20 -7 0 -13 -4 -13 -10 0 -5 -7 -10 -15 -10 -8 0 -15 -4 -15 -10 0 -5 -6 -10
-13 -10 -7 0 -19 -9 -27 -20 -8 -12 -26 -20 -42 -20 -15 0 -28 -4 -28 -10 0
-5 -16 -10 -35 -10 -19 0 -35 5 -35 10 0 6 -19 10 -42 10 -36 -1 -47 -6 -68
-31 -14 -17 -39 -45 -57 -64 -46 -48 -70 -99 -123 -256 -24 -72 -66 -155 -93
-185 -33 -35 -43 -48 -57 -74 -7 -13 -23 -34 -36 -47 -13 -13 -24 -28 -24 -32
0 -4 -9 -19 -20 -32 -11 -13 -30 -37 -42 -52 -13 -16 -33 -39 -44 -51 -56 -59
-59 -81 -38 -252 5 -47 2 -59 -41 -144 -26 -51 -52 -99 -58 -105 -7 -7 -19
-23 -27 -35 -8 -12 -20 -28 -26 -34 -7 -7 -24 -37 -39 -66 -35 -69 -43 -149
-20 -210 34 -93 46 -147 49 -225 5 -104 19 -155 56 -197 42 -46 46 -51 60 -79
7 -13 16 -26 20 -29 4 -3 23 -34 41 -70 32 -61 34 -71 37 -180 1 -63 4 -159 7
-213 4 -77 1 -114 -14 -174 -11 -42 -24 -79 -29 -82 -5 -3 -21 -30 -36 -59
-30 -59 -28 -105 5 -143 10 -12 19 -26 19 -31 0 -4 7 -8 15 -8 8 0 15 -4 15
-10 0 -5 5 -10 11 -10 6 0 24 -13 39 -30 15 -16 32 -30 37 -30 5 0 15 -9 23
-20 8 -11 20 -20 27 -20 7 0 13 -4 13 -10 0 -5 5 -10 10 -10 6 0 51 -40 100
-90 49 -49 94 -90 100 -90 5 0 10 -4 10 -8 0 -5 8 -18 18 -30 9 -11 24 -30 32
-42 8 -12 23 -31 33 -42 9 -12 17 -33 17 -48 0 -24 8 -37 50 -87 5 -7 15 -24
22 -38 6 -14 14 -25 18 -25 4 0 13 -13 20 -30 7 -16 16 -30 21 -30 4 0 10 -9
14 -19 3 -11 18 -34 33 -50 15 -17 38 -44 52 -61 41 -51 138 -150 147 -150 5
0 15 -9 23 -20 8 -11 20 -20 27 -20 7 0 13 -4 13 -10 0 -5 14 -10 30 -10 17 0
30 5 30 10 0 6 9 10 20 10 11 0 20 -4 20 -10 0 -5 16 -10 35 -10 19 0 35 -4
35 -10 0 -5 5 -10 11 -10 6 0 28 -18 49 -40 21 -22 48 -40 59 -40 12 0 21 -4
21 -10 0 -5 16 -10 35 -10 19 0 35 -4 35 -10 0 -6 30 -10 70 -10 40 0 70 -4
70 -10 0 -5 18 -10 40 -10 22 0 40 -4 40 -10 0 -5 20 -10 45 -10 25 0 45 -4
45 -10 0 -5 21 -10 46 -10 38 0 51 -5 74 -30 17 -18 38 -30 54 -30 14 0 26 -4
26 -10 0 -5 7 -10 15 -10 8 0 15 -4 15 -10 0 -5 7 -10 15 -10 8 0 15 -4 15
-10 0 -5 8 -10 18 -10 10 0 24 -9 32 -20 8 -11 22 -20 32 -20 10 0 18 -4 18
-10 0 -5 7 -10 15 -10 8 0 15 -4 15 -10 0 -5 7 -10 15 -10 8 0 15 -4 15 -10 0
-5 9 -10 20 -10 11 0 20 -4 20 -8 0 -5 8 -18 18 -30 9 -11 24 -30 32 -42 29
-43 89 -100 104 -100 9 0 16 -4 16 -9 0 -11 75 -91 85 -91 3 0 28 -22 55 -50
27 -27 53 -50 59 -50 6 0 11 -4 11 -8 0 -13 36 -52 46 -52 5 0 16 -9 24 -20 8
-11 20 -20 27 -20 7 0 13 -4 13 -10 0 -5 9 -10 20 -10 11 0 20 -4 20 -10 0 -5
7 -10 15 -10 8 0 15 -4 15 -10 0 -5 7 -10 15 -10 8 0 15 -4 15 -10 0 -5 20
-10 44 -10 39 0 45 -3 56 -30 15 -36 43 -70 59 -70 6 0 11 -4 11 -10 0 -5 7
-10 16 -10 9 0 29 -13 44 -30 15 -16 35 -30 44 -30 9 0 16 -4 16 -10 0 -5 9
-10 20 -10 11 0 20 -4 20 -10 0 -5 7 -10 15 -10 8 0 15 5 15 10 0 6 14 10 30
10 17 0 30 -4 30 -10 0 -5 6 -10 13 -10 6 0 23 -14 37 -31 49 -59 139 -149
149 -149 6 0 11 -4 11 -10 0 -5 7 -10 16 -10 19 0 54 -37 54 -57 0 -26 28 -43
70 -43 36 0 41 2 35 18 -28 67 -29 70 -13 86 9 9 20 16 24 16 14 0 44 44 53
76 11 39 33 64 56 64 9 0 43 -27 75 -60 32 -33 64 -60 69 -60 6 0 11 -4 11
-10 0 -6 50 -10 130 -10 80 0 130 4 130 10 0 6 9 10 20 10 11 0 20 5 20 10 0
6 5 10 11 10 6 0 28 18 49 40 21 22 43 40 49 40 6 0 11 5 11 10 0 6 5 10 10
10 16 0 76 63 95 100 14 27 16 48 10 117 -6 75 -5 83 10 83 28 0 57 41 51 71
-12 60 78 98 102 43 9 -19 9 -31 1 -46 -15 -27 -5 -114 15 -133 17 -17 46 -20
46 -5 0 6 7 10 15 10 8 0 15 4 15 9 0 5 7 17 16 25 10 11 18 47 24 106 5 49
11 93 14 98 9 14 -13 179 -34 263 -11 43 -20 104 -20 136 0 88 -28 230 -57
287 -14 28 -29 53 -33 56 -4 3 -13 16 -20 29 -15 29 -24 41 -67 86 -17 18 -46
61 -63 95 -17 35 -36 68 -41 74 -39 47 -49 60 -49 66 0 11 -56 70 -67 70 -5 0
-15 9 -23 20 -8 11 -22 20 -32 20 -10 0 -18 5 -18 10 0 6 -6 10 -13 10 -7 0
-19 9 -27 20 -8 11 -20 20 -27 20 -7 0 -13 5 -13 10 0 6 -7 10 -15 10 -8 0
-15 4 -15 8 0 18 -38 52 -59 52 -11 0 -21 5 -21 10 0 6 -9 10 -20 10 -11 0
-20 5 -20 10 0 6 -7 10 -15 10 -8 0 -15 5 -15 10 0 6 -7 10 -15 10 -8 0 -15 5
-15 10 0 6 -7 10 -15 10 -8 0 -15 5 -15 10 0 6 -7 10 -15 10 -8 0 -15 5 -15
10 0 6 -9 10 -19 10 -10 0 -21 7 -25 15 -7 20 14 65 31 65 7 0 13 5 13 10 0 6
17 10 38 10 36 0 40 -3 62 -50 19 -41 28 -50 50 -50 15 0 32 9 40 21 8 12 20
27 26 33 7 7 22 32 34 56 26 52 26 51 120 149 41 43 82 88 90 101 8 12 23 31
32 42 18 21 51 120 67 198 5 25 19 70 31 100 12 30 26 77 32 104 5 28 19 68
30 90 29 57 33 137 13 240 -24 118 -16 286 15 366 40 98 69 185 70 202 0 10
40 58 89 107 49 50 92 99 96 111 3 11 10 20 15 20 5 0 11 9 15 20 8 24 79 100
94 100 6 0 11 5 11 10 0 6 5 10 11 10 13 0 109 98 109 111 0 5 7 9 15 9 8 0
15 5 15 10 0 6 5 10 11 10 17 0 49 40 49 62 0 10 7 18 15 18 8 0 15 5 15 10 0
6 7 10 15 10 8 0 15 5 15 10 0 6 9 10 20 10 11 0 20 5 20 10 0 6 7 10 15 10 8
0 15 5 15 10 0 6 9 10 20 10 11 0 20 5 20 10 0 6 7 10 16 10 20 0 37 17 58 58
22 42 22 66 3 185 -13 77 -15 147 -11 330 4 187 2 251 -12 331 -13 79 -14 110
-6 150 20 95 23 161 9 251 -10 67 -12 128 -6 240 11 195 11 195 54 195 19 0
35 5 35 10 0 6 9 10 20 10 11 0 20 5 20 10 0 6 7 10 15 10 42 0 132 137 161
245 8 28 14 90 14 138 0 85 10 117 37 117 5 0 15 10 23 21 8 12 20 27 25 33
12 14 35 77 35 98 0 28 39 139 55 154 8 9 18 27 21 42 4 15 17 48 30 74 29 58
30 88 4 118 -11 13 -20 29 -20 36 0 24 -23 64 -37 64 -7 0 -13 5 -13 10 0 6
-8 10 -18 10 -32 0 -53 62 -46 133 5 54 3 65 -15 86 -12 13 -21 28 -21 33 0 4
-9 8 -20 8 -11 0 -20 5 -20 10 0 6 -7 10 -15 10 -8 0 -15 5 -15 10 0 6 -7 10
-15 10 -8 0 -15 4 -15 9 0 5 -13 23 -30 41 -16 18 -30 36 -30 41 0 5 -5 9 -11
9 -7 0 -20 9 -29 20 -15 17 -17 37 -15 118 3 103 12 162 26 162 4 0 13 16 18
36 8 27 6 47 -5 80 -16 49 -7 107 28 178 21 41 81 106 98 106 5 0 10 5 10 10
0 6 9 10 20 10 11 0 20 5 20 10 0 6 5 10 11 10 20 0 36 25 43 69 5 32 17 53
47 82 22 21 44 51 49 66 5 16 16 46 24 68 15 40 21 150 10 179 -3 9 -11 16
-16 16 -6 0 -23 14 -38 30 -15 17 -33 30 -39 30 -6 0 -11 5 -11 10 0 6 -9 10
-20 10 -11 0 -20 5 -20 10 0 6 -11 10 -25 10 -14 0 -25 5 -25 10 0 6 -24 10
-53 10 -41 0 -56 4 -67 20 -9 13 -26 20 -47 20 -18 0 -33 5 -33 10 0 6 -9 10
-20 10 -11 0 -20 5 -20 10 0 6 -9 10 -20 10 -11 0 -20 5 -20 10 0 6 -7 10 -15
10 -8 0 -15 5 -15 10 0 6 -8 10 -18 10 -10 0 -24 9 -32 20 -8 11 -22 20 -32
20 -10 0 -18 5 -18 10 0 6 -6 10 -13 10 -7 0 -19 9 -27 20 -8 11 -19 20 -24
20 -12 0 -44 38 -51 61 -4 11 -12 19 -18 19 -7 0 -19 9 -27 20 -8 11 -19 20
-25 20 -12 0 -45 62 -45 84 0 19 -35 56 -54 56 -9 0 -16 5 -16 10 0 6 -16 10
-36 10 -41 0 -74 29 -74 64 0 31 -28 128 -38 135 -5 3 -17 22 -27 41 -10 19
-21 37 -25 40 -4 3 -22 34 -40 70 -36 71 -70 186 -70 239 0 19 -9 61 -21 93
-11 32 -26 95 -34 140 -18 115 -84 298 -107 298 -4 0 -8 7 -8 15 0 31 -31 80
-86 139 -43 45 -50 61 -64 136 -6 35 -25 90 -42 123 -34 69 -34 79 8 237 26
97 27 109 16 182 -6 42 -20 95 -32 117 -11 22 -20 56 -20 75 0 27 -9 44 -40
76 -22 23 -40 46 -40 51 0 5 -5 9 -11 9 -11 0 -95 84 -119 120 -8 12 -20 28
-26 34 -7 7 -22 32 -34 57 -13 24 -26 46 -29 49 -11 8 -30 78 -46 170 -9 47
-23 109 -32 138 -36 124 8 392 77 472 15 17 31 20 109 20 54 0 91 -4 91 -10 0
-5 25 -10 55 -10 30 0 55 5 55 10 0 6 6 10 13 10 16 0 37 41 37 71 0 20 -23
71 -44 96 -36 44 -187 193 -196 193 -5 0 -10 5 -10 10 0 6 -7 10 -15 10 -8 0
-15 5 -15 10 0 6 -9 10 -20 10 -11 0 -20 5 -20 10 0 6 -7 10 -15 10 -8 0 -15
5 -15 10 0 6 -9 10 -20 10 -11 0 -20 5 -20 10 0 6 -7 10 -15 10 -8 0 -15 5
-15 10 0 6 -9 10 -20 10 -11 0 -20 5 -20 10 0 6 -7 10 -15 10 -8 0 -15 5 -15
10 0 6 -6 10 -13 10 -7 0 -19 9 -27 21 -8 11 -22 29 -30 39 -8 10 -22 28 -30
39 -8 12 -20 21 -27 21 -7 0 -13 5 -13 10 0 6 -7 10 -15 10 -8 0 -15 5 -15 10
0 6 -9 10 -20 10 -11 0 -20 5 -20 10 0 6 -22 10 -50 10 -27 0 -50 -4 -50 -10
0 -5 -6 -10 -13 -10 -7 0 -19 -10 -27 -21 -8 -12 -20 -27 -27 -34 -31 -32 -46
-101 -48 -210 -1 -119 -11 -195 -26 -195 -5 0 -6 -13 -2 -30 3 -16 2 -30 -3
-30 -5 0 -10 -21 -10 -48 -1 -26 -9 -74 -19 -107 -9 -33 -21 -80 -26 -105 -16
-76 -18 -80 -51 -80 -20 0 -39 9 -58 30 -15 17 -31 30 -35 30 -3 0 -27 22 -53
50 -60 63 -67 71 -82 100 -14 26 -24 39 -57 74 -12 13 -36 52 -53 87 -18 34
-37 68 -44 75 -6 6 -18 22 -26 34 -8 13 -25 33 -37 45 -12 12 -33 46 -48 76
-29 57 -47 79 -64 79 -6 0 -11 5 -11 10 0 6 -22 10 -50 10 -27 0 -50 5 -50 10
0 6 -25 10 -55 10 -30 0 -55 -4 -55 -10 0 -5 -16 -10 -35 -10 -19 0 -35 -4
-35 -10 0 -5 -25 -10 -55 -10 -30 0 -55 5 -55 10 0 6 -7 10 -15 10 -8 0 -15 5
-15 10 0 6 -7 10 -15 10 -8 0 -15 5 -15 10 0 6 -9 10 -20 10 -11 0 -20 5 -20
10 0 6 -11 10 -25 10 -14 0 -25 5 -25 10 0 6 -11 10 -25 10 -14 0 -25 5 -25
10 0 6 -8 10 -18 10 -10 0 -24 9 -32 20 -8 11 -20 20 -27 20 -7 0 -13 5 -13
10 0 6 -5 10 -11 10 -10 0 -34 24 -75 73 -20 23 -44 76 -64 135 -11 31 -33 95
-49 142 -17 47 -37 123 -46 170 -8 47 -22 117 -30 155 -7 39 -17 93 -20 120
-3 28 -11 64 -17 81 -8 22 -7 59 2 135 16 132 16 158 -6 296 -15 99 -16 126
-5 219 6 58 18 120 26 137 19 44 43 199 51 337 4 63 13 135 22 160 21 63 18
516 -4 645 -8 49 -17 92 -20 96 -2 4 -8 94 -13 200 -8 168 -7 197 7 226 9 18
19 33 23 33 9 0 26 47 34 94 4 22 26 79 51 128 24 48 44 96 44 107 0 36 34
126 57 149 13 13 34 22 53 22 16 0 30 5 30 10 0 6 18 10 40 10 22 0 40 -4 40
-10 0 -5 7 -10 15 -10 8 0 15 5 15 10 0 14 37 12 43 -2 4 -10 6 -10 6 0 1 7
16 12 41 12 22 0 40 5 40 10 0 6 20 10 45 10 25 0 45 5 45 10 0 6 14 10 30 10
17 0 30 -4 30 -10 0 -15 59 -12 75 3 43 44 98 201 111 322 5 43 21 88 57 160
43 84 51 110 52 160 3 104 4 105 94 105 l78 0 22 -52 c66 -151 70 -166 77
-248 7 -92 12 -126 44 -270 12 -52 25 -127 30 -167 9 -70 28 -123 56 -151 8
-7 14 -18 14 -23 0 -5 9 -9 20 -9 11 0 20 -4 20 -10 0 -5 9 -10 20 -10 11 0
20 -4 20 -10 0 -5 7 -10 15 -10 8 0 15 -4 15 -10 0 -5 6 -10 14 -10 8 0 17 -6
20 -12 5 -10 7 -10 12 0 3 6 10 12 16 12 14 0 48 40 48 57 0 7 11 35 24 61 13
27 27 66 31 88 4 21 10 50 15 64 5 14 18 59 30 100 26 91 50 150 62 150 4 0 8
7 8 15 0 18 56 132 74 151 6 6 18 22 26 34 14 20 34 47 59 76 5 6 19 31 31 55
13 24 26 46 30 49 4 3 15 20 24 38 10 19 42 58 72 88 41 42 61 54 84 54 16 0
30 5 30 10 0 6 16 10 35 10 19 0 35 -4 35 -10 0 -5 21 -10 46 -10 38 0 51 -5
74 -30 15 -16 33 -30 39 -30 6 0 11 -4 11 -10 0 -5 7 -10 15 -10 8 0 15 -4 15
-10 0 -5 7 -10 15 -10 8 0 15 -4 15 -10 0 -5 7 -10 15 -10 8 0 15 -4 15 -10 0
-5 14 -10 30 -10 17 0 30 -4 30 -10 0 -5 11 -10 25 -10 14 0 25 5 25 10 0 6
16 10 35 10 19 0 35 5 35 10 0 6 11 10 25 10 14 0 25 5 25 10 0 6 7 10 15 10
8 0 15 5 15 10 0 6 11 10 25 10 14 0 25 5 25 10 0 6 11 10 25 10 14 0 25 5 25
10 0 6 7 10 16 10 11 0 14 5 10 16 -3 9 -6 18 -6 20 0 2 -5 4 -11 4 -22 0 -41
33 -54 93 -8 34 -24 105 -36 157 -28 123 -34 218 -19 289 9 44 9 67 0 100 -11
44 0 101 21 101 9 0 29 65 29 97 0 12 -7 28 -14 36 -8 8 -22 55 -30 104 -14
81 -14 101 0 209 15 113 22 144 61 267 9 29 20 109 24 182 18 294 44 538 63
590 21 55 20 88 -4 115 -11 13 -20 27 -20 31 0 5 -53 62 -117 127 -65 66 -125
129 -133 141 -8 13 -23 32 -32 43 -10 11 -20 29 -23 39 -4 11 -10 19 -14 19
-5 0 -14 14 -21 30 -7 17 -16 30 -20 30 -3 0 -17 23 -30 50 -13 28 -26 50 -30
50 -3 0 -19 27 -35 60 -16 33 -32 60 -37 60 -4 0 -8 7 -8 15 0 8 -13 43 -29
77 -62 134 -96 243 -197 638 -25 96 -52 195 -61 220 -30 82 -28 753 3 1075 9
92 -32 232 -82 283 -8 7 -14 17 -14 21 0 13 -36 51 -49 51 -6 0 -11 5 -11 10
0 6 -6 10 -13 10 -7 0 -19 9 -27 20 -10 14 -26 20 -52 20 -21 0 -38 -4 -38
-10 0 -15 -77 -12 -83 3 -4 10 -6 10 -6 0 -1 -8 -14 -13 -31 -13 -16 0 -30 -4
-30 -10 0 -6 -35 -10 -86 -10 -93 0 -100 -3 -129 -60 -19 -37 -39 -60 -52 -60
-5 0 -15 -9 -23 -20 -8 -11 -22 -20 -32 -20 -10 0 -18 -4 -18 -10 0 -5 -11
-10 -25 -10 -14 0 -25 -4 -25 -10 0 -6 -32 -10 -75 -10 -43 0 -75 4 -75 10 0
6 -22 10 -50 10 -27 0 -50 5 -50 10 0 6 -20 10 -45 10 -25 0 -45 5 -45 10 0 6
-9 10 -20 10 -11 0 -20 5 -20 10 0 6 -11 10 -25 10 -14 0 -25 5 -25 10 0 6 -7
10 -15 10 -8 0 -15 5 -15 10 0 6 -7 10 -15 10 -8 0 -15 5 -15 10 0 6 -7 10
-15 10 -8 0 -15 5 -15 10 0 6 -9 10 -20 10 -11 0 -20 5 -20 10 0 6 -7 10 -15
10 -8 0 -15 5 -15 10 0 6 -13 10 -30 10 -16 0 -30 5 -30 10 0 6 -7 10 -15 10
-8 0 -15 5 -15 10 0 6 -11 10 -25 10 -14 0 -25 5 -25 10 0 6 -13 10 -30 10
-16 0 -30 5 -30 10 0 6 -22 10 -50 10 -27 0 -50 5 -50 10 0 6 -11 10 -25 10
-14 0 -25 5 -25 10 0 6 -11 10 -25 10 -14 0 -25 5 -25 10 0 6 -7 10 -15 10 -8
0 -15 5 -15 10 0 6 -13 10 -28 10 -16 0 -34 8 -42 20 -8 11 -21 20 -28 20 -8
0 -27 14 -42 30 -15 17 -33 30 -39 30 -6 0 -11 5 -11 10 0 6 -5 10 -10 10 -6
0 -31 21 -56 46 -46 46 -84 124 -84 172 0 49 -79 267 -110 305 -32 39 -69 77
-75 77 -13 0 -105 102 -105 116 0 8 -16 46 -36 85 -35 71 -73 119 -94 119 -5
0 -10 5 -10 10 0 6 -7 10 -15 10 -8 0 -15 5 -15 10 0 6 -6 10 -14 10 -8 0 -18
9 -21 20 -3 11 -12 26 -20 33 -7 8 -27 42 -45 76 -29 58 -70 111 -85 111 -11
0 -32 25 -50 60 -10 19 -24 40 -31 48 -8 7 -14 18 -14 23 0 5 -6 9 -13 9 -7 0
-19 9 -27 20 -8 11 -20 20 -27 20 -7 0 -17 19 -23 43 -6 23 -17 57 -25 75 -15
33 -25 45 -145 170 -39 40 -70 79 -70 86 0 25 -34 121 -48 135 -11 11 -13 30
-8 76 3 34 1 97 -5 141 -10 78 -50 214 -69 237 -5 7 -23 28 -40 47 -17 19 -34
40 -39 45 -4 6 -14 36 -21 65 -7 30 -23 87 -35 125 -41 127 -40 183 5 235 29
33 41 84 28 123 -5 17 -14 48 -18 67 -5 19 -15 53 -24 75 -8 22 -15 60 -16 84
0 24 -5 73 -11 109 -10 58 -16 69 -65 117 l-53 54 6 148 6 148 -46 90 c-47 94
-74 201 -96 372 -6 44 -19 101 -30 125 -10 23 -27 63 -37 87 -19 45 -84 121
-103 121 -6 0 -11 5 -11 10 0 6 -6 10 -13 10 -8 0 -24 22 -36 49 -29 61 -22
91 20 91 16 0 29 5 29 10 0 6 7 10 15 10 8 0 15 5 15 10 0 6 6 10 14 10 8 0
18 9 21 20 3 11 10 20 14 20 4 0 25 39 48 88 84 181 89 192 133 342 12 41 33
107 45 145 40 121 44 225 10 225 -25 0 -37 80 -44 275 -4 105 -10 195 -14 202
-4 7 2 31 13 54 25 48 20 89 -10 89 -11 0 -20 -4 -20 -10z"/>
<path fill="#ffffff" stroke="000000" stroke-width="0.01" d="M17290 15960 c0 -5 23 -10 50 -10 28 0
50 -4 50 -10 0 -5 11 -10 25 -10 14 0 25 -4 25 -10 0 -5 9 -10 20 -10 11 0 20
-4 20 -10 0 -5 6 -10 13 -10 7 0 19 -9 27 -21 8 -11 22 -30 31 -40 9 -11 22
-34 29 -52 31 -84 47 -113 81 -148 21 -22 42 -39 48 -39 6 0 11 -4 11 -10 0
-5 11 -10 25 -10 14 0 25 -4 25 -10 0 -6 28 -10 65 -10 37 0 65 -4 65 -10 0
-5 16 -10 35 -10 19 0 35 5 35 10 0 6 11 10 25 10 14 0 25 5 25 10 0 6 7 10
15 10 8 0 15 5 15 10 0 6 7 10 15 10 8 0 15 5 15 10 0 6 7 10 15 10 8 0 15 5
15 10 0 6 7 10 15 10 8 0 15 5 15 10 0 6 8 10 18 10 10 0 24 9 32 20 8 11 20
20 27 20 7 0 13 5 13 10 0 6 9 10 20 10 11 0 20 5 20 10 0 6 23 10 50 10 28 0
50 5 50 10 0 6 9 10 21 10 12 0 34 14 49 30 15 17 33 30 39 30 6 0 11 5 11 10
0 6 11 10 25 10 14 0 25 5 25 10 0 6 18 10 40 10 22 0 40 5 40 10 0 6 18 10
40 10 22 0 40 -4 40 -10 0 -5 5 -10 11 -10 15 0 86 -76 94 -100 4 -11 10 -20
14 -20 4 0 18 -22 31 -50 13 -27 26 -50 30 -50 6 0 31 -52 58 -121 28 -70 51
-234 57 -399 10 -259 17 -303 60 -345 19 -19 39 -35 45 -35 5 0 10 -4 10 -10
0 -5 6 -10 13 -10 7 0 19 -9 27 -20 8 -11 19 -20 25 -20 6 0 17 -9 25 -20 8
-11 20 -20 27 -20 7 0 13 -4 13 -10 0 -5 9 -10 20 -10 11 0 20 -4 20 -10 0 -5
23 -10 50 -10 28 0 50 -4 50 -10 0 -5 7 -10 16 -10 16 0 94 -75 94 -90 0 -16
118 -130 134 -130 9 0 16 -4 16 -10 0 -5 9 -10 20 -10 11 0 20 -4 20 -10 0 -5
7 -10 15 -10 8 0 15 -4 15 -10 0 -5 9 -10 20 -10 11 0 20 -4 20 -10 0 -5 16
-10 35 -10 19 0 35 -4 35 -10 0 -5 9 -10 20 -10 11 0 20 -4 20 -10 0 -5 20
-10 45 -10 25 0 45 -4 45 -10 0 -5 11 -10 25 -10 14 0 25 -4 25 -10 0 -5 6
-10 13 -10 7 0 19 -9 27 -20 8 -11 19 -20 25 -20 6 0 17 -9 25 -20 8 -11 20
-20 27 -20 7 0 13 -4 13 -10 0 -5 11 -10 25 -10 14 0 25 -4 25 -10 0 -6 27
-10 60 -10 33 0 60 -4 60 -10 0 -5 11 -10 25 -10 14 0 25 -4 25 -10 0 -5 6
-10 13 -10 7 0 19 -9 27 -20 8 -11 20 -20 27 -20 7 0 13 -4 13 -10 0 -5 5 -10
11 -10 6 0 27 -18 47 -40 50 -54 57 -63 72 -90 7 -12 27 -38 46 -56 27 -28 41
-34 74 -34 30 0 47 -7 65 -25 14 -13 25 -29 25 -34 0 -21 65 -141 76 -141 7 0
15 -7 18 -16 9 -24 7 -64 -3 -64 -5 0 -12 -8 -16 -19 -5 -16 -14 -29 -54 -77
-5 -6 -17 -26 -26 -45 -10 -19 -21 -36 -25 -39 -24 -16 -48 -92 -60 -185 -4
-33 -18 -85 -30 -115 -12 -30 -33 -86 -46 -123 -26 -72 -58 -140 -77 -164 -35
-41 -107 -113 -114 -113 -5 0 -15 -9 -23 -21 -8 -11 -23 -30 -32 -41 -23 -27
-32 -94 -29 -203 8 -241 6 -248 -65 -329 -18 -19 -62 -110 -80 -163 -12 -36
-14 -63 -9 -108 12 -92 14 -378 5 -492 -7 -77 -6 -121 5 -185 25 -140 18 -275
-15 -298 -13 -9 -59 -106 -61 -131 -2 -13 1 -45 5 -72 6 -34 4 -65 -7 -110
-18 -70 -25 -246 -11 -268 5 -8 10 -34 11 -59 21 -451 20 -447 64 -530 38 -73
33 -156 -15 -249 -36 -70 -37 -78 -35 -160 2 -68 -2 -97 -19 -141 -12 -30 -22
-62 -22 -70 0 -28 -21 -89 -34 -103 -8 -7 -24 -33 -36 -58 -13 -24 -26 -46
-30 -49 -4 -3 -15 -21 -25 -40 -10 -19 -21 -37 -25 -40 -13 -9 -41 -70 -61
-133 -11 -34 -23 -64 -28 -67 -12 -7 -57 -99 -65 -132 -3 -15 -32 -54 -64 -87
-31 -33 -73 -79 -92 -101 -19 -22 -45 -51 -57 -64 -12 -13 -33 -47 -48 -77
-15 -29 -32 -58 -39 -65 -6 -6 -18 -21 -26 -33 -8 -11 -20 -21 -27 -21 -7 0
-13 -4 -13 -10 0 -5 -5 -10 -10 -10 -22 0 -56 -47 -74 -102 -9 -31 -26 -67
-37 -79 -10 -12 -19 -26 -19 -31 0 -4 -7 -8 -15 -8 -8 0 -15 -4 -15 -10 0 -5
-7 -10 -15 -10 -8 0 -15 -4 -15 -10 0 -5 -7 -10 -15 -10 -8 0 -15 -4 -15 -10
0 -5 -9 -10 -20 -10 -11 0 -20 -4 -20 -10 0 -5 -6 -10 -13 -10 -7 0 -19 -10
-27 -21 -8 -12 -21 -27 -28 -35 -12 -12 -35 -79 -47 -136 -4 -19 -12 -28 -25
-28 -11 0 -20 -4 -20 -10 0 -5 -9 -10 -20 -10 -11 0 -20 -4 -20 -10 0 -5 -7
-10 -15 -10 -8 0 -15 -4 -15 -10 0 -5 -7 -10 -15 -10 -8 0 -15 -4 -15 -8 0
-23 -123 -152 -144 -152 -9 0 -16 -4 -16 -10 0 -5 -18 -10 -40 -10 -22 0 -40
-4 -40 -10 0 -5 -9 -10 -20 -10 -11 0 -20 5 -20 10 0 6 -11 10 -25 10 -14 0
-25 5 -25 10 0 6 -6 10 -13 10 -7 0 -19 9 -27 20 -8 11 -18 20 -23 20 -4 0
-48 41 -97 90 -49 50 -93 90 -97 90 -5 0 -15 9 -23 20 -8 11 -20 20 -27 20 -7
0 -13 5 -13 10 0 6 -7 10 -15 10 -8 0 -15 5 -15 10 0 6 -5 10 -11 10 -6 0 -24
14 -39 30 -15 17 -31 30 -35 30 -3 0 -28 23 -55 50 -27 28 -52 50 -55 50 -4 0
-20 13 -35 30 -15 17 -32 30 -37 30 -5 0 -15 9 -23 20 -8 11 -20 20 -27 20 -7
0 -13 5 -13 10 0 6 -7 10 -15 10 -8 0 -15 5 -15 10 0 6 -6 10 -13 10 -7 0 -19
9 -27 20 -8 11 -22 20 -32 20 -9 0 -20 9 -23 20 -3 11 -11 20 -16 20 -6 0 -27
18 -47 40 -50 54 -57 63 -72 90 -7 13 -17 29 -22 34 -40 49 -48 60 -48 67 0 4
-11 19 -24 32 -13 13 -32 39 -41 57 -9 18 -21 38 -26 44 -25 30 -45 56 -59 76
-8 13 -35 44 -60 70 -65 70 -80 91 -89 130 -32 133 -41 171 -54 215 -9 28 -21
65 -28 83 -11 26 -11 38 0 65 42 104 54 136 65 177 13 46 53 131 66 140 4 3
13 16 20 29 7 13 21 34 31 45 60 66 79 89 79 97 0 5 6 9 13 9 7 0 19 9 27 20
8 11 20 20 27 20 7 0 13 5 13 10 0 6 18 10 40 10 22 0 40 5 40 10 0 6 9 10 20
10 11 0 20 5 20 10 0 6 5 10 10 10 17 0 57 44 78 86 24 49 39 109 62 249 32
192 48 262 79 353 23 65 31 108 31 156 0 75 7 94 56 143 19 18 34 38 34 43 0
4 17 27 38 49 20 22 43 47 50 56 8 9 19 64 26 123 11 90 19 119 50 181 21 41
44 81 52 88 25 26 37 94 25 145 -10 46 -6 108 8 108 13 0 38 65 54 140 32 153
35 171 25 209 -6 22 -6 57 -1 87 13 71 2 207 -18 226 -9 9 -22 30 -29 47 -7
17 -16 31 -21 31 -5 0 -9 16 -9 35 0 19 -4 44 -9 57 -35 88 -60 202 -64 294
-6 132 -18 156 -127 274 -30 33 -71 77 -90 99 -19 22 -39 40 -43 41 -5 0 -26
18 -47 40 -21 22 -43 40 -49 40 -6 0 -11 4 -11 8 0 11 -26 44 -80 102 -25 27
-56 63 -70 80 -14 17 -35 41 -46 54 -12 12 -27 33 -34 46 -14 25 -18 31 -59
78 -14 16 -33 39 -41 51 -8 12 -19 21 -25 21 -6 0 -17 9 -25 20 -8 11 -20 20
-27 20 -7 0 -13 5 -13 10 0 6 -11 10 -25 10 -14 0 -25 5 -25 10 0 6 -7 10 -15
10 -28 0 -63 45 -115 150 -28 56 -57 109 -63 117 -39 46 -107 113 -116 113 -6
0 -11 5 -11 10 0 6 -7 10 -15 10 -8 0 -15 5 -15 10 0 6 -9 10 -20 10 -11 0
-20 5 -20 10 0 6 -7 10 -15 10 -8 0 -15 5 -15 10 0 6 -5 10 -10 10 -6 0 -42
32 -80 70 -38 39 -74 70 -80 70 -5 0 -10 5 -10 10 0 6 -6 10 -14 10 -7 0 -19
14 -26 30 -7 17 -16 30 -20 30 -17 0 -107 266 -129 385 -5 28 -16 79 -25 115
-8 36 -20 112 -27 170 -6 58 -18 124 -26 147 -20 62 -19 243 2 323 12 43 19
115 21 209 3 147 17 235 40 258 15 15 104 18 104 3 0 -5 16 -10 35 -10 19 0
35 -4 35 -10 0 -5 20 -10 45 -10 25 0 45 -4 45 -10 0 -6 30 -10 70 -10 70 0
71 0 115 44 51 51 112 165 121 228 10 61 37 108 63 108 6 0 11 5 11 10 0 6 30
10 70 10 40 0 70 -4 70 -10z"/>
</g>
</svg>
