<?xml version="1.0" standalone="no"?>
<!DOCTYPE svg PUBLIC "-//W3C//DTD SVG 20010904//EN"
 "http://www.w3.org/TR/2001/REC-SVG-20010904/DTD/svg10.dtd">
<svg version="1.0" xmlns="http://www.w3.org/2000/svg"
 width="3950.000000pt" height="3506.000000pt" viewBox="0 0 3950.000000 3506.000000"
 preserveAspectRatio="xMidYMid meet">
<metadata>
Created by potrace 1.16, written by Peter Selinger 2001-2019
</metadata>
<g transform="translate(0.000000,3506.000000) scale(0.100000,-0.100000)"
fill="#ffffff" stroke="#000000" stroke-width="5.00">
<path d="M22586 8462 c-4 -4 -112 -29 -156 -37 -73 -12 -115 -24 -118 -34 -2
-6 -12 -11 -23 -11 -10 0 -19 -6 -19 -13 0 -8 -18 -22 -40 -32 -27 -12 -40
-24 -40 -38 0 -21 -50 -73 -81 -82 -10 -4 -19 -10 -19 -15 0 -5 -9 -12 -20
-15 -11 -3 -20 -11 -20 -16 0 -6 -22 -32 -50 -59 -27 -27 -50 -53 -50 -59 0
-6 -4 -11 -10 -11 -5 0 -10 -7 -10 -15 0 -8 -4 -15 -10 -15 -5 0 -10 -9 -10
-20 0 -11 -4 -20 -10 -20 -5 0 -10 -6 -10 -13 0 -7 -9 -19 -20 -27 -11 -8 -20
-20 -20 -27 0 -7 -4 -13 -10 -13 -5 0 -10 -5 -10 -11 0 -6 -13 -24 -30 -39
-16 -15 -30 -33 -30 -39 0 -6 -4 -11 -10 -11 -5 0 -10 -5 -10 -10 0 -6 -31
-42 -70 -80 -38 -38 -70 -74 -70 -80 0 -5 -4 -10 -10 -10 -5 0 -10 -7 -10 -15
0 -8 -4 -15 -10 -15 -5 0 -10 -7 -10 -15 0 -8 -4 -15 -10 -15 -5 0 -10 -7 -10
-15 0 -8 -4 -15 -10 -15 -6 0 -10 -30 -10 -70 0 -67 -2 -72 -34 -105 -49 -49
-161 -102 -242 -115 -38 -6 -85 -17 -104 -25 -49 -20 -258 -48 -298 -40 -22 4
-37 1 -48 -10 -8 -8 -29 -15 -45 -15 -29 0 -29 0 -29 -60 0 -33 -4 -60 -10
-60 -5 0 -10 -11 -10 -25 0 -14 -4 -25 -10 -25 -5 0 -10 -11 -10 -25 0 -14 -4
-25 -10 -25 -5 0 -10 -7 -10 -15 0 -8 -4 -15 -10 -15 -5 0 -10 -11 -10 -25 0
-14 -4 -25 -10 -25 -5 0 -10 -7 -10 -15 0 -8 -4 -15 -10 -15 -5 0 -10 -22 -10
-50 0 -27 -4 -50 -10 -50 -5 0 -10 -11 -10 -24 0 -13 -6 -27 -12 -30 -10 -5
-10 -7 0 -12 8 -4 3 -15 -18 -34 -16 -15 -30 -33 -30 -38 0 -6 -9 -14 -20 -17
-13 -4 -20 -15 -20 -31 0 -13 -4 -24 -10 -24 -5 0 -10 -16 -10 -36 0 -27 -7
-43 -30 -64 -32 -30 -37 -45 -17 -53 10 -4 10 -6 0 -6 -8 -1 -13 -15 -13 -36
0 -28 -4 -35 -19 -35 -21 0 -81 -51 -81 -69 0 -6 -4 -11 -10 -11 -5 0 -10 -7
-10 -15 0 -8 -4 -15 -10 -15 -5 0 -10 -9 -10 -20 0 -11 -4 -20 -10 -20 -5 0
-10 -9 -10 -20 0 -11 -4 -20 -10 -20 -5 0 -10 -16 -10 -35 0 -19 5 -35 10 -35
6 0 10 -13 10 -30 0 -16 5 -30 10 -30 6 0 10 -7 10 -15 0 -8 5 -15 10 -15 6 0
10 -9 10 -20 0 -11 5 -20 10 -20 6 0 10 -9 10 -20 0 -11 5 -20 10 -20 6 0 10
-7 10 -15 0 -8 5 -15 10 -15 6 0 10 -7 10 -15 0 -8 5 -15 10 -15 6 0 10 -13
10 -30 0 -16 5 -30 10 -30 6 0 10 -13 10 -28 0 -16 8 -34 20 -42 12 -8 20 -26
20 -42 0 -15 5 -28 10 -28 6 0 10 -13 10 -30 0 -16 5 -30 10 -30 6 0 10 -11
10 -24 0 -17 9 -27 30 -36 17 -7 30 -20 30 -29 0 -9 9 -23 20 -31 11 -8 20
-20 20 -27 0 -7 5 -13 10 -13 6 0 10 -7 10 -15 0 -8 5 -15 10 -15 6 0 10 -28
10 -65 0 -37 4 -65 10 -65 6 0 10 -11 10 -25 0 -14 5 -25 10 -25 6 0 10 -18
10 -40 0 -22 -4 -40 -10 -40 -6 0 -10 -30 -10 -70 0 -40 -4 -70 -10 -70 -5 0
-10 -9 -10 -20 0 -11 -4 -20 -10 -20 -5 0 -10 -18 -10 -40 0 -22 -4 -40 -10
-40 -5 0 -10 -18 -10 -40 0 -22 -4 -40 -10 -40 -5 0 -10 -9 -10 -19 0 -12 -9
-22 -22 -26 -52 -15 -78 -28 -78 -41 0 -8 -4 -14 -10 -14 -5 0 -10 -9 -10 -20
0 -11 -4 -20 -10 -20 -5 0 -10 -7 -10 -15 0 -8 -4 -15 -9 -15 -5 0 -16 -6 -23
-14 -8 -8 -38 -26 -67 -41 -56 -28 -58 -30 -158 -122 -70 -66 -104 -93 -115
-93 -4 0 -8 -5 -8 -11 0 -11 -63 -74 -100 -99 -12 -8 -31 -23 -42 -32 -11 -10
-29 -20 -39 -23 -11 -4 -19 -11 -19 -17 0 -5 -13 -23 -30 -38 -16 -15 -30 -33
-30 -39 0 -6 -4 -11 -8 -11 -5 0 -19 -9 -32 -20 -13 -11 -29 -20 -37 -20 -17
0 -92 -38 -110 -55 -7 -8 -13 -27 -13 -44 0 -17 -4 -31 -10 -31 -5 0 -10 -16
-10 -35 0 -19 -4 -35 -10 -35 -5 0 -10 -13 -10 -30 0 -16 -4 -30 -10 -30 -5 0
-10 -7 -10 -15 0 -8 -4 -15 -10 -15 -5 0 -10 -7 -10 -15 0 -8 -4 -15 -10 -15
-5 0 -10 -7 -10 -15 0 -8 -4 -15 -10 -15 -5 0 -10 -5 -10 -11 0 -6 -13 -24
-30 -39 -16 -15 -30 -31 -30 -35 0 -4 -13 -20 -30 -35 -16 -15 -30 -33 -30
-39 0 -6 -4 -11 -10 -11 -5 0 -10 -9 -10 -20 0 -11 -4 -20 -10 -20 -5 0 -10
-9 -10 -20 0 -11 -4 -20 -10 -20 -5 0 -10 -7 -10 -15 0 -8 -4 -15 -10 -15 -5
0 -10 -7 -10 -15 0 -8 -4 -15 -10 -15 -5 0 -10 -7 -10 -15 0 -8 -4 -15 -10
-15 -5 0 -10 -11 -10 -25 0 -14 -4 -25 -10 -25 -5 0 -10 -9 -10 -20 0 -11 -4
-20 -10 -20 -5 0 -10 -7 -10 -15 0 -8 -4 -15 -10 -15 -5 0 -10 -11 -10 -25 0
-14 -4 -25 -10 -25 -5 0 -10 5 -10 10 0 6 -4 10 -10 10 -5 0 -10 -20 -10 -45
0 -25 -4 -45 -10 -45 -5 0 -10 -11 -10 -25 0 -14 -4 -25 -10 -25 -5 0 -10 -7
-10 -15 0 -8 -4 -15 -10 -15 -5 0 -10 -11 -10 -25 0 -14 -4 -25 -10 -25 -5 0
-10 -9 -10 -20 0 -29 -78 -104 -140 -135 -29 -15 -59 -32 -67 -38 -43 -37 -93
-87 -93 -94 0 -5 -9 -15 -20 -23 -11 -8 -20 -19 -20 -24 0 -13 -39 -44 -64
-51 -50 -14 -76 -28 -76 -41 0 -8 -4 -14 -10 -14 -5 0 -10 -7 -10 -15 0 -8 -4
-15 -10 -15 -5 0 -10 -9 -10 -20 0 -11 -4 -20 -10 -20 -5 0 -10 -11 -10 -25 0
-14 -4 -25 -10 -25 -5 0 -10 -11 -10 -25 0 -14 -4 -25 -10 -25 -5 0 -10 -7
-10 -15 0 -8 -4 -15 -10 -15 -5 0 -10 -9 -10 -20 0 -11 -4 -20 -10 -20 -5 0
-10 -5 -10 -11 0 -10 -90 -100 -149 -149 -17 -14 -31 -31 -31 -37 0 -7 -4 -13
-10 -13 -5 0 -10 -7 -10 -15 0 -8 -4 -15 -10 -15 -5 0 -10 -6 -10 -13 0 -7 -9
-19 -20 -27 -11 -8 -20 -20 -20 -27 0 -7 -4 -13 -10 -13 -5 0 -10 -18 -10 -40
0 -22 5 -40 10 -40 6 0 10 -7 10 -15 0 -8 5 -15 10 -15 6 0 10 -5 10 -11 0 -6
18 -28 40 -49 44 -42 51 -75 20 -85 -11 -3 -20 -13 -20 -21 0 -8 -4 -14 -10
-14 -5 0 -10 -5 -10 -11 0 -6 -18 -28 -40 -49 -22 -21 -40 -43 -40 -49 0 -6
-4 -11 -10 -11 -5 0 -10 -20 -10 -45 0 -25 5 -45 10 -45 6 0 10 -11 10 -25 0
-22 -4 -25 -36 -25 -19 0 -44 5 -55 10 -14 8 -28 6 -58 -10 -44 -22 -97 -41
-181 -64 -65 -17 -132 -41 -169 -60 -47 -24 -89 -29 -106 -12 -8 8 -15 22 -15
30 0 9 -4 16 -10 16 -5 0 -10 9 -10 20 0 13 -9 21 -27 25 -95 20 -172 53 -209
90 -13 13 -34 26 -46 30 -29 8 -88 31 -150 58 -40 17 -52 18 -73 9 -14 -7 -37
-12 -50 -12 -14 0 -25 -6 -25 -13 0 -7 -27 -26 -60 -42 -45 -22 -60 -34 -60
-50 0 -11 -9 -27 -20 -35 -11 -8 -20 -18 -20 -23 0 -5 -13 -22 -30 -37 -16
-15 -30 -33 -30 -39 0 -6 -4 -11 -10 -11 -5 0 -10 -18 -10 -40 0 -22 -4 -40
-10 -40 -6 0 -10 -28 -10 -65 0 -37 -4 -65 -10 -65 -5 0 -10 -6 -10 -13 0 -8
-24 -24 -52 -36 -29 -13 -118 -54 -197 -93 -160 -77 -211 -89 -281 -64 -50 17
-90 21 -90 7 0 -5 -13 -14 -30 -21 -35 -14 -70 -43 -70 -57 0 -6 -13 -16 -30
-23 -16 -7 -30 -17 -30 -22 0 -5 -37 -9 -82 -9 -310 0 -291 1 -309 -21 l-18
-20 -25 25 c-14 14 -36 28 -48 32 -13 3 -44 16 -70 27 -38 17 -48 27 -48 45 0
13 -4 23 -10 23 -5 0 -10 14 -10 30 0 17 -4 30 -10 30 -5 0 -10 6 -10 13 0 7
-9 19 -20 27 -11 8 -20 19 -20 25 0 6 -9 17 -20 25 -11 8 -20 18 -20 23 0 20
-82 85 -148 116 -59 28 -72 39 -72 58 0 13 -4 23 -10 23 -5 0 -10 7 -10 15 0
8 -4 15 -10 15 -5 0 -10 7 -10 15 0 8 -4 15 -10 15 -5 0 -10 8 -10 18 0 13
-14 25 -42 36 -121 50 -108 42 -189 118 -51 49 -97 68 -162 68 -26 0 -45 7
-61 23 -13 12 -33 29 -46 37 -35 23 -80 67 -80 77 0 5 -22 19 -50 31 -27 12
-73 32 -102 45 -29 12 -66 36 -84 53 -17 18 -41 37 -52 43 -17 9 -191 41 -224
41 -5 0 -8 7 -8 15 0 8 -4 15 -10 15 -5 0 -10 5 -10 11 0 14 -58 69 -74 69 -7
0 -7 3 1 8 9 6 7 12 -8 22 -12 8 -30 23 -41 33 -39 33 -78 18 -78 -29 0 -34
-1 -34 -45 -34 -60 0 -95 17 -95 47 0 12 -4 23 -10 23 -5 0 -10 9 -10 20 0 24
0 24 -128 5 l-102 -15 -61 30 c-33 17 -84 34 -112 37 -35 4 -59 14 -75 30 -12
12 -31 23 -42 23 -10 0 -26 7 -35 16 -15 16 -28 16 -97 -2 -22 -5 -28 -3 -28
10 0 9 -4 16 -10 16 -5 0 -10 11 -10 25 0 14 -1 25 -2 26 -2 0 -46 3 -98 5
-112 5 -203 20 -241 40 -19 9 -43 12 -73 8 -38 -6 -46 -4 -46 10 0 9 -4 16
-10 16 -5 0 -10 7 -10 15 0 8 -5 15 -11 15 -10 0 68 79 112 113 31 23 39 22
119 -18 38 -19 71 -35 74 -35 2 0 23 18 45 39 27 26 41 48 41 65 0 14 5 26 10
26 6 0 10 6 10 14 0 8 6 17 13 20 10 5 10 7 0 12 -7 3 -13 12 -13 20 0 8 -9
14 -20 14 -11 0 -20 6 -20 13 0 7 -10 19 -21 27 -12 8 -27 21 -35 28 -7 7 -39
12 -78 12 -43 0 -69 5 -79 14 -8 8 -31 18 -51 21 -20 4 -36 11 -36 15 0 5 -9
12 -20 15 -11 3 -20 13 -20 21 0 8 -4 14 -10 14 -5 0 -10 9 -10 20 0 11 -4 20
-10 20 -5 0 -10 9 -10 19 0 10 -7 22 -16 25 -23 9 -24 8 -24 -18 0 -19 -7 -25
-35 -30 -24 -5 -40 -3 -49 6 -7 7 -23 20 -35 28 -11 8 -21 20 -21 27 0 7 -4
13 -10 13 -5 0 -10 5 -10 11 0 39 -91 68 -157 50 -23 -7 -39 -7 -41 -1 -2 5
-16 7 -31 4 -15 -3 -50 1 -76 11 -39 13 -50 13 -56 3 -13 -20 -164 -27 -216
-9 -40 12 -58 31 -31 31 6 0 0 10 -13 21 -16 15 -20 23 -11 26 6 3 12 11 12
20 0 23 29 46 52 40 21 -6 48 12 48 32 0 6 5 11 10 11 6 0 10 9 10 20 0 11 5
20 10 20 6 0 10 9 10 20 0 11 5 20 12 20 6 0 9 2 6 5 -3 3 -27 -2 -54 -11 -29
-10 -63 -14 -88 -11 -25 4 -60 0 -88 -10 -43 -14 -48 -19 -48 -44 0 -32 -5
-35 -24 -16 -8 6 -24 19 -36 27 -39 27 -60 47 -60 59 0 6 -4 11 -10 11 -5 0
-10 25 -10 56 0 57 -7 71 -50 94 -33 17 -39 23 -136 118 -70 69 -95 86 -142
101 -31 10 -74 27 -94 37 -37 17 -38 19 -38 71 0 29 -4 53 -10 53 -5 0 -10 9
-10 20 0 11 -4 20 -10 20 -5 0 -10 15 -10 33 0 22 -7 37 -21 47 -11 8 -29 22
-39 30 -10 8 -28 22 -39 30 -12 8 -21 20 -21 27 0 6 -9 15 -20 18 -11 3 -20
10 -20 14 0 4 -31 22 -70 41 -38 19 -70 39 -70 46 0 7 -9 16 -20 19 -11 3 -20
10 -20 14 0 5 -14 14 -30 21 -16 7 -30 16 -30 20 0 4 -19 14 -42 23 -141 50
-158 60 -158 93 0 27 -39 54 -81 54 -30 0 -45 8 -78 39 -23 22 -41 45 -41 51
0 20 -27 40 -54 40 -16 0 -26 -6 -26 -15 0 -21 -46 -30 -64 -13 -8 8 -28 21
-45 28 -25 10 -31 18 -31 41 0 16 -4 29 -10 29 -5 0 -10 16 -10 35 0 19 5 35
10 35 6 0 10 9 10 21 0 12 14 34 30 49 17 15 30 33 30 39 0 6 5 11 10 11 6 0
10 12 10 26 0 31 21 54 50 54 48 0 70 71 30 100 -25 18 -25 32 -1 49 23 17 11
34 -32 45 -20 5 -27 12 -27 31 0 14 -4 25 -10 25 -5 0 -10 25 -10 55 0 30 -4
55 -10 55 -5 0 -10 14 -10 30 0 17 -4 30 -10 30 -5 0 -10 7 -10 15 0 8 -4 15
-10 15 -5 0 -10 9 -10 20 0 11 -4 20 -10 20 -5 0 -10 7 -10 15 0 8 -4 15 -10
15 -5 0 -10 7 -10 15 0 8 -4 15 -10 15 -5 0 -10 6 -10 14 0 7 -13 19 -30 26
-18 8 -30 20 -30 31 0 11 -4 19 -10 19 -5 0 -10 7 -10 15 0 8 -4 15 -10 15 -5
0 -10 11 -10 25 0 14 -4 25 -10 25 -5 0 -10 9 -10 20 0 11 -4 20 -10 20 -5 0
-10 5 -10 10 0 27 -74 82 -137 102 l-66 21 -44 -22 c-48 -23 -41 -26 -114 42
-22 20 -44 37 -49 37 -12 0 -70 56 -70 68 0 9 -30 24 -77 37 -32 9 -71 -4 -52
-16 10 -7 7 -8 -11 -5 -79 15 -80 15 -80 46 0 17 -4 30 -10 30 -5 0 -10 6 -10
13 0 7 -9 19 -20 27 -11 8 -20 20 -20 27 0 7 -4 13 -10 13 -5 0 -10 22 -10 48
0 36 -5 51 -20 62 -11 8 -20 19 -20 25 0 6 -16 19 -36 28 -19 10 -40 22 -47
27 -56 47 -62 50 -111 50 -28 0 -68 -5 -88 -11 l-38 -10 0 -63 c0 -68 0 -67
-62 -86 -27 -8 -85 3 -157 32 -27 10 -35 10 -38 1 -7 -20 -70 -15 -116 8 -31
16 -75 25 -162 33 -71 6 -125 15 -133 23 -7 7 -35 13 -61 13 -34 0 -55 6 -71
20 -13 11 -27 20 -31 20 -4 0 -15 8 -24 17 -18 18 -77 19 -365 9 -130 -4 -319
-28 -343 -43 -36 -22 -157 -139 -157 -152 0 -6 -4 -11 -8 -11 -9 0 -44 -26
-76 -56 -27 -26 -49 -38 -107 -59 -115 -42 -202 -62 -389 -90 -52 -8 -106 -18
-120 -21 -14 -4 -61 -8 -105 -9 -47 0 -99 -8 -125 -18 -57 -21 -112 -22 -152
-1 -23 12 -39 14 -67 7 -43 -11 -206 2 -274 22 -44 13 -51 13 -92 -7 -25 -12
-45 -27 -45 -34 0 -15 -25 -25 -45 -18 -9 4 -15 0 -15 -9 0 -29 -49 -38 -195
-37 -16 0 -88 -2 -160 -4 -97 -3 -142 0 -177 11 -27 9 -48 19 -48 24 0 15
-109 10 -142 -7 -17 -9 -44 -14 -61 -11 -23 3 -37 -2 -54 -19 -13 -13 -23 -28
-23 -34 0 -5 -4 -10 -10 -10 -5 0 -10 -13 -10 -30 0 -27 -3 -30 -30 -30 -16 0
-30 -4 -30 -10 0 -5 -7 -10 -15 -10 -20 0 -85 -32 -85 -42 0 -4 -24 -8 -54 -8
-58 0 -86 -7 -86 -21 0 -5 9 -9 20 -9 11 0 20 -7 20 -15 0 -8 -4 -15 -10 -15
-5 0 -10 -13 -10 -30 0 -16 -4 -30 -10 -30 -5 0 -10 7 -10 15 0 8 -4 15 -10
15 -5 0 -10 -14 -10 -31 0 -29 -29 -69 -50 -69 -4 0 -18 -9 -31 -20 -13 -11
-35 -29 -49 -40 -14 -11 -36 -29 -49 -40 -31 -25 -83 -40 -146 -40 -27 -1 -66
-7 -86 -14 -19 -7 -51 -11 -70 -8 -44 5 -109 -12 -136 -35 -12 -10 -31 -25
-42 -33 -12 -8 -21 -25 -21 -41 0 -20 -7 -30 -30 -39 -18 -8 -30 -20 -30 -31
0 -11 -4 -19 -10 -19 -5 0 -10 -5 -10 -11 0 -34 -70 -57 -210 -68 -111 -10
-271 -41 -330 -65 -19 -8 -68 -24 -107 -36 -40 -12 -73 -25 -73 -29 0 -4 -20
-17 -45 -29 -37 -18 -61 -21 -144 -21 -55 1 -105 -2 -111 -6 -7 -4 -15 -3 -19
2 -3 6 -24 20 -47 31 -38 19 -45 20 -90 8 -27 -7 -68 -23 -91 -34 -100 -52
-115 -53 -324 -38 -136 11 -208 12 -246 5 -44 -8 -56 -7 -69 5 -19 20 -81 20
-114 1 -32 -19 -55 -19 -74 0 -12 13 -25 13 -78 4 -35 -6 -83 -12 -108 -13
-25 -2 -68 -15 -97 -29 -29 -15 -59 -27 -68 -27 -8 0 -15 -4 -15 -10 0 -5 -9
-10 -20 -10 -11 0 -20 -4 -20 -10 0 -5 -22 -12 -50 -16 -27 -4 -60 -15 -72
-25 -13 -10 -28 -23 -35 -29 -21 -18 -43 -11 -43 13 0 18 -9 25 -47 36 -27 8
-61 21 -78 29 -16 9 -47 19 -68 22 l-37 7 0 -2323 0 -2324 994 0 c829 0 997 2
1008 14 46 45 154 65 189 35 12 -10 30 -21 40 -24 11 -4 19 -11 19 -16 0 -14
52 -10 80 6 14 8 45 15 70 15 25 1 63 8 85 16 22 9 53 18 70 21 28 6 55 24 55
38 0 12 26 33 70 55 24 12 50 29 58 36 7 8 22 14 32 14 10 0 20 5 22 10 4 14
104 40 155 40 58 0 143 21 143 36 0 6 14 17 30 24 17 7 30 18 30 24 0 6 9 18
20 26 11 8 20 22 20 32 0 10 5 18 10 18 6 0 10 7 10 16 0 8 23 38 51 65 28 27
46 49 40 49 -6 0 -11 4 -11 8 0 8 33 24 108 53 12 5 28 14 35 19 62 53 77 61
77 41 0 -25 34 -18 66 14 19 19 39 35 44 35 6 0 10 8 10 19 0 13 9 20 30 25
18 3 30 12 30 21 0 8 5 15 10 15 6 0 10 7 10 15 0 8 5 15 10 15 6 0 10 6 10
13 0 7 9 19 20 27 11 8 20 20 20 27 0 6 9 15 20 18 11 3 20 12 20 18 0 7 14
23 31 37 58 49 89 78 89 85 0 14 43 45 62 45 10 0 18 4 18 8 0 11 66 42 90 42
11 0 36 7 57 16 116 50 152 64 188 76 46 15 65 30 65 52 0 9 5 16 10 16 6 0
10 9 10 21 0 25 15 41 60 64 19 10 50 35 70 55 48 50 230 142 356 181 19 5 49
5 80 0 30 -6 50 -6 52 0 2 5 13 9 25 9 38 0 93 19 118 41 18 15 31 19 60 14
27 -5 41 -2 54 12 15 15 33 17 104 15 68 -2 98 2 141 19 30 12 65 23 77 26 13
3 23 12 23 19 0 8 5 14 10 14 6 0 10 7 10 15 0 8 5 15 10 15 6 0 10 14 10 30
0 17 5 30 10 30 6 0 10 6 10 14 0 18 22 26 68 26 58 0 98 -15 136 -52 19 -18
53 -49 75 -68 24 -21 40 -44 41 -57 0 -13 4 -23 8 -23 17 0 52 -38 52 -56 0
-11 9 -26 20 -34 21 -15 29 -80 10 -80 -5 0 -10 -20 -10 -45 0 -25 5 -45 10
-45 6 0 10 -13 10 -30 0 -16 -4 -30 -10 -30 -5 0 -10 -7 -10 -15 0 -8 -4 -15
-10 -15 -5 0 -10 -9 -10 -20 0 -11 -4 -20 -10 -20 -5 0 -10 -11 -10 -25 0 -14
-4 -25 -10 -25 -5 0 -10 -25 -10 -55 0 -30 5 -55 10 -55 6 0 10 -11 10 -25 0
-14 5 -25 10 -25 6 0 10 -7 10 -15 0 -8 5 -15 10 -15 6 0 10 -10 10 -23 0 -12
9 -29 20 -37 11 -8 20 -20 20 -27 0 -7 4 -13 9 -13 5 0 23 -13 41 -30 18 -16
27 -30 21 -30 -6 0 -11 -13 -11 -30 0 -16 5 -30 10 -30 6 0 10 7 10 15 0 8 5
15 10 15 6 0 10 -9 10 -20 0 -11 5 -20 10 -20 6 0 10 -18 10 -40 0 -22 5 -40
10 -40 14 0 12 -27 -2 -34 -10 -5 -10 -7 0 -12 6 -3 12 -17 12 -30 0 -13 5
-24 10 -24 6 0 10 -11 10 -25 0 -14 5 -25 10 -25 6 0 10 -7 10 -15 0 -8 5 -15
10 -15 6 0 10 -7 10 -15 0 -8 5 -15 10 -15 6 0 10 -11 10 -25 0 -14 5 -25 10
-25 6 0 10 -13 10 -30 0 -16 5 -30 10 -30 6 0 10 -9 10 -20 0 -11 5 -20 10
-20 6 0 10 -6 10 -13 0 -7 9 -19 20 -27 11 -8 20 -19 20 -24 0 -10 39 -46 52
-46 4 0 8 -14 8 -31 0 -34 12 -49 59 -74 19 -9 43 -26 55 -36 67 -61 89 -79
107 -84 15 -5 19 -16 19 -51 l0 -44 11774 0 c6476 0 11781 3 11790 6 9 3 16
10 16 16 0 17 25 35 96 71 70 35 134 47 187 34 15 -4 38 -9 51 -12 14 -3 31
-11 38 -19 11 -10 28 -11 77 -5 47 7 69 6 89 -5 15 -7 52 -19 82 -26 30 -7 73
-22 95 -34 39 -21 49 -21 743 -24 475 -2 702 1 702 8 0 5 -4 10 -10 10 -5 0
-10 7 -10 15 0 8 -4 15 -10 15 -5 0 -10 25 -10 55 0 30 -4 55 -10 55 -5 0 -10
11 -10 25 0 14 -4 25 -10 25 -5 0 -10 9 -10 20 0 11 -4 20 -10 20 -5 0 -10 7
-10 15 0 8 -4 15 -10 15 -5 0 -10 7 -10 15 0 8 -4 15 -10 15 -5 0 -10 14 -10
30 0 17 -4 30 -10 30 -5 0 -10 16 -10 35 0 19 -4 35 -10 35 -5 0 -10 14 -10
30 0 24 14 44 66 96 63 64 67 66 104 60 50 -8 70 1 70 30 0 13 5 24 10 24 6 0
10 7 10 16 0 11 5 14 16 10 9 -3 18 -6 20 -6 2 0 4 -7 4 -15 0 -8 -4 -15 -10
-15 -5 0 -10 -7 -10 -15 0 -8 -4 -15 -10 -15 -5 0 -10 -7 -10 -15 0 -18 74
-39 113 -31 50 10 147 -32 147 -63 0 -6 5 -11 10 -11 6 0 10 -13 10 -30 0 -16
5 -30 10 -30 6 0 10 -6 10 -13 0 -11 20 -14 80 -15 74 -2 80 0 80 18 0 11 5
20 10 20 6 0 10 7 10 15 0 8 5 15 10 15 6 0 10 7 10 15 0 8 5 15 10 15 6 0 10
6 10 14 0 7 10 16 23 19 12 2 30 8 40 12 12 5 17 3 17 -9 0 -9 5 -16 10 -16 6
0 10 -7 10 -15 0 -8 5 -15 10 -15 6 0 10 -7 10 -15 0 -8 5 -15 10 -15 6 0 10
-6 10 -13 0 -7 10 -19 21 -27 12 -8 38 -31 59 -50 21 -19 47 -42 59 -50 11 -8
21 -19 21 -25 0 -6 9 -17 20 -25 11 -8 20 -19 20 -25 0 -6 9 -17 20 -25 11 -8
20 -22 20 -32 0 -10 5 -18 10 -18 6 0 10 -9 10 -20 0 -11 5 -20 10 -20 6 0 10
-6 10 -13 0 -6 17 -17 37 -24 32 -10 43 -9 75 8 20 10 53 19 73 19 19 0 35 4
35 8 0 5 32 23 70 42 57 27 70 38 70 57 0 13 5 23 10 23 6 0 10 14 10 31 0 52
17 60 109 49 79 -9 112 -20 139 -47 7 -7 20 -13 28 -13 18 0 44 24 44 39 0 6
5 11 10 11 6 0 10 11 10 25 0 29 8 32 139 39 71 4 101 1 123 -10 25 -13 31
-13 58 1 37 19 60 19 60 1 0 -21 32 -28 87 -21 27 3 67 8 91 11 l42 5 0 -35
c0 -20 5 -36 10 -36 6 0 10 -11 10 -25 0 -14 5 -25 10 -25 6 0 10 -9 10 -20 0
-11 5 -20 10 -20 6 0 10 -5 10 -11 0 -6 18 -28 40 -49 22 -21 40 -42 40 -47 0
-5 9 -15 20 -23 11 -8 20 -19 20 -25 0 -6 10 -17 21 -25 12 -8 27 -20 33 -26
35 -33 54 -34 600 -34 437 0 546 3 546 13 0 7 9 19 20 27 11 8 20 19 20 24 0
17 41 44 93 60 86 28 107 38 107 52 0 8 5 14 10 14 6 0 10 5 10 11 0 17 22 33
65 47 87 29 95 34 95 58 0 13 5 24 10 24 6 0 10 5 10 11 0 6 8 18 17 27 13 14
40 18 137 20 120 2 189 15 214 38 6 7 12 29 12 48 0 20 5 36 10 36 6 0 10 16
10 35 0 19 5 35 10 35 6 0 10 7 10 15 0 8 5 15 10 15 6 0 10 5 10 11 0 6 18
28 40 49 26 25 40 47 40 64 0 20 5 26 23 26 32 0 97 -19 97 -29 0 -15 74 -40
138 -46 74 -8 178 2 195 19 7 7 23 15 37 19 25 6 49 22 100 67 15 14 38 32 50
40 37 25 80 67 80 79 0 6 5 11 10 11 6 0 10 7 10 15 0 8 5 15 10 15 6 0 10 7
10 15 0 8 5 15 10 15 6 0 10 7 10 15 0 8 5 15 10 15 6 0 10 6 10 13 0 7 9 19
20 27 11 8 20 22 20 32 0 10 5 18 10 18 6 0 10 11 10 25 0 14 5 25 10 25 6 0
10 14 10 30 0 17 5 30 10 30 6 0 10 7 10 15 0 8 5 15 10 15 6 0 10 7 10 15 0
8 5 15 10 15 6 0 10 7 10 15 0 8 5 15 10 15 6 0 10 14 10 30 0 17 5 30 10 30
6 0 10 9 10 20 0 11 5 20 10 20 6 0 10 7 10 15 0 8 5 15 10 15 6 0 10 9 10 20
0 11 5 20 10 20 6 0 10 9 10 20 0 21 17 28 157 56 12 2 40 21 62 41 22 21 46
43 53 48 8 6 77 10 163 11 160 0 305 24 305 51 0 23 46 26 88 4 33 -17 45 -18
77 -10 45 13 124 5 204 -20 35 -11 76 -16 109 -13 l52 4 -2 1941 -3 1942 -125
16 c-159 20 -180 29 -180 81 0 28 -4 38 -15 38 -14 0 -72 25 -85 37 -2 2 2 8
10 13 10 7 11 10 3 10 -7 0 -13 7 -13 15 0 8 -4 15 -10 15 -5 0 -10 8 -10 19
0 15 -10 20 -57 26 -62 8 -89 18 -113 45 -21 23 -54 40 -80 40 -23 0 -50 21
-50 39 0 6 -4 11 -10 11 -5 0 -10 7 -10 15 0 11 -13 15 -54 15 -30 0 -61 3
-70 6 -23 9 -20 57 4 74 11 8 20 20 20 27 0 7 5 13 10 13 6 0 10 20 10 44 0
46 -9 56 -56 56 -13 0 -24 5 -24 11 0 15 -21 34 -57 53 -33 17 -83 22 -83 8 0
-4 -20 -18 -45 -30 -46 -22 -75 -21 -75 4 0 8 -4 14 -10 14 -5 0 -10 6 -10 13
0 7 -9 19 -20 27 -11 8 -20 18 -20 23 0 28 -109 97 -153 97 -21 0 -34 8 -84
50 -7 6 -33 13 -58 17 -25 3 -45 9 -45 13 0 3 -22 17 -49 30 -49 22 -51 22
-101 6 -72 -23 -90 -16 -90 38 0 39 -3 45 -29 56 -29 12 -71 6 -71 -9 0 -5
-13 -14 -30 -21 -16 -7 -30 -16 -30 -21 0 -11 -68 -29 -113 -29 -43 0 -165 58
-204 96 -13 13 -28 24 -33 24 -5 0 -15 6 -22 14 -57 56 -188 79 -280 49 -40
-13 -48 -19 -48 -40 0 -29 -16 -47 -51 -56 -14 -4 -36 -16 -50 -27 -13 -11
-36 -30 -51 -42 -15 -13 -28 -29 -28 -35 0 -7 -4 -13 -8 -13 -17 0 -52 -38
-52 -56 0 -11 -9 -26 -20 -34 -11 -8 -20 -20 -20 -27 0 -7 -7 -13 -15 -13 -25
0 -65 -23 -65 -37 0 -7 -4 -13 -10 -13 -5 0 -10 -7 -10 -15 0 -8 -4 -15 -10
-15 -5 0 -10 -6 -10 -14 0 -8 -9 -18 -20 -21 -13 -4 -20 -15 -20 -31 0 -13 -4
-24 -10 -24 -5 0 -10 -8 -10 -18 0 -10 -9 -24 -20 -32 -11 -8 -20 -19 -20 -25
0 -6 -9 -17 -20 -25 -11 -8 -20 -20 -20 -27 0 -6 -9 -14 -19 -18 -11 -3 -33
-18 -49 -33 -17 -15 -39 -34 -51 -42 -12 -8 -21 -19 -21 -25 0 -6 -9 -17 -20
-25 -11 -8 -20 -18 -20 -23 0 -5 -13 -22 -30 -37 -16 -15 -30 -32 -30 -37 0
-5 -9 -15 -20 -23 -11 -8 -20 -20 -20 -27 0 -7 -4 -13 -10 -13 -5 0 -10 -4
-10 -10 0 -5 -18 -29 -40 -51 -22 -23 -40 -45 -40 -50 0 -4 -9 -11 -21 -14
-11 -4 -46 -33 -78 -65 -47 -47 -69 -61 -119 -76 -34 -10 -62 -23 -62 -28 0
-12 -38 -44 -61 -51 -11 -4 -19 -10 -19 -15 0 -11 -65 -30 -102 -30 -42 0 -78
-20 -78 -44 0 -12 -10 -28 -21 -36 -12 -8 -38 -31 -59 -50 -21 -19 -48 -42
-60 -50 -12 -8 -28 -20 -35 -27 -6 -6 -45 -28 -85 -48 -81 -41 -100 -56 -100
-80 0 -9 -11 -27 -25 -40 -20 -21 -34 -25 -80 -25 -30 0 -55 -4 -55 -9 0 -5
-9 -13 -20 -16 -11 -3 -20 -13 -20 -21 0 -8 -4 -14 -10 -14 -5 0 -10 -8 -10
-19 0 -14 -14 -23 -52 -35 -92 -29 -108 -38 -108 -57 0 -11 -4 -19 -10 -19 -5
0 -10 -9 -10 -20 0 -11 -7 -20 -15 -20 -9 0 -29 -7 -45 -15 -28 -14 -33 -14
-80 10 -61 31 -60 31 -60 0 0 -14 -4 -25 -10 -25 -5 0 -10 -9 -10 -20 0 -11
-4 -20 -10 -20 -5 0 -10 -14 -10 -31 0 -33 -25 -63 -61 -74 -11 -4 -19 -10
-19 -15 0 -5 -8 -11 -19 -15 -16 -5 -28 -13 -77 -53 -53 -45 -144 -40 -144 7
0 6 -7 11 -16 11 -18 0 -44 -24 -44 -41 0 -15 -39 -49 -57 -49 -15 0 -88 -35
-110 -53 -8 -7 -35 -32 -60 -56 -42 -41 -51 -45 -97 -46 -168 -3 -172 -4 -205
-34 -17 -16 -31 -34 -31 -41 0 -18 -23 -37 -55 -43 -104 -21 -146 -31 -195
-45 -72 -21 -118 -21 -168 2 -40 18 -42 18 -174 -8 -192 -39 -331 -53 -370
-38 -18 6 -34 8 -37 3 -4 -5 -43 -14 -89 -20 -45 -6 -90 -15 -100 -20 -9 -5
-51 -12 -92 -15 -41 -4 -97 -11 -125 -16 -27 -6 -98 -16 -157 -25 -64 -8 -124
-23 -149 -35 -54 -28 -248 -37 -318 -15 -26 8 -64 19 -87 25 -22 5 -52 19 -65
30 -13 11 -29 24 -35 28 -5 5 -21 15 -34 22 -14 7 -30 18 -36 24 -6 6 -21 18
-33 26 -11 8 -21 20 -21 27 0 7 -4 13 -8 13 -5 0 -19 8 -30 19 -17 14 -33 17
-69 14 -38 -4 -53 -1 -70 15 -13 11 -23 26 -23 34 0 16 -39 28 -91 28 -16 0
-29 3 -29 8 0 4 -16 12 -36 18 -30 10 -44 8 -87 -8 -29 -11 -63 -23 -77 -27
-14 -5 -44 -18 -67 -29 -23 -12 -74 -27 -115 -33 -70 -12 -119 -29 -144 -53
-6 -6 -22 -18 -34 -26 -12 -8 -28 -21 -35 -27 -25 -24 -152 -38 -218 -24 -36
7 -62 9 -66 3 -16 -24 -57 -32 -158 -32 -111 0 -163 -9 -187 -32 -7 -7 -24
-20 -36 -28 -12 -8 -28 -20 -34 -26 -6 -6 -44 -16 -84 -22 -40 -7 -106 -23
-146 -37 -41 -14 -83 -25 -93 -25 -18 -1 -100 -29 -203 -69 -30 -12 -81 -31
-112 -41 -62 -20 -63 -21 -138 -90 -27 -25 -63 -56 -80 -70 -17 -14 -37 -30
-44 -36 -25 -23 -136 -74 -159 -74 -13 0 -34 -9 -47 -20 -22 -19 -47 -26 -80
-21 -40 6 -160 7 -160 2 0 -4 -58 -36 -130 -71 -71 -35 -130 -68 -130 -74 0
-12 -40 -46 -54 -46 -46 0 -126 -43 -126 -66 0 -5 -9 -16 -20 -24 -11 -8 -20
-20 -20 -27 0 -17 -205 -5 -244 14 -35 18 -76 58 -76 74 0 17 -39 49 -67 54
-13 3 -34 7 -47 10 -24 5 -66 -22 -66 -43 0 -5 -7 -12 -15 -16 -18 -6 -45 2
-45 15 0 12 -78 31 -100 24 -13 -4 -20 -15 -20 -31 0 -13 -4 -24 -10 -24 -5 0
-10 -20 -10 -44 0 -26 -5 -46 -12 -49 -10 -4 -10 -6 0 -6 6 -1 12 -8 12 -16 0
-8 5 -15 10 -15 6 0 10 -9 10 -20 0 -11 5 -20 10 -20 6 0 10 -20 10 -44 0 -36
-4 -46 -20 -51 -11 -3 -20 -13 -20 -21 0 -8 -4 -14 -10 -14 -5 0 -10 -13 -10
-30 0 -16 -4 -30 -10 -30 -5 0 -10 -6 -10 -13 0 -7 -9 -19 -20 -27 -21 -15
-29 -80 -10 -80 6 0 10 -5 10 -11 0 -6 18 -28 40 -49 44 -42 50 -60 22 -60
-11 0 -29 -9 -42 -20 -38 -33 -70 -37 -121 -15 -11 4 -26 -2 -42 -18 -34 -35
-100 -67 -137 -67 -35 0 -67 -14 -90 -40 -8 -9 -37 -20 -65 -23 -27 -3 -78
-15 -112 -26 -47 -15 -70 -18 -94 -11 -25 8 -41 4 -82 -16 -45 -23 -64 -26
-180 -29 -77 -2 -132 -7 -136 -14 -4 -5 -25 -13 -48 -17 -32 -5 -46 -2 -58 10
-9 8 -34 20 -55 26 -29 8 -40 16 -40 30 0 10 6 21 13 23 6 3 -3 8 -20 12 -18
4 -33 11 -33 16 0 4 -9 11 -20 14 -11 3 -20 13 -20 20 0 19 -66 36 -112 29
-38 -6 -68 10 -68 36 0 7 -13 25 -30 40 -16 15 -30 33 -30 39 0 15 -34 14
-100 -4 -94 -25 -192 -16 -238 23 -11 9 -30 24 -42 32 -48 33 -60 48 -60 78 0
22 -6 32 -20 37 -14 4 -20 15 -20 36 0 16 -4 29 -10 29 -5 0 -10 9 -10 21 0
27 -75 98 -111 106 -16 3 -29 11 -29 18 0 16 -22 25 -60 25 -37 0 -60 9 -60
24 0 6 -9 18 -20 26 -11 8 -20 26 -20 40 0 14 -9 32 -20 40 -14 10 -20 26 -20
55 0 29 6 45 20 55 11 8 20 18 20 23 0 13 23 33 60 52 19 10 40 23 47 31 15
15 18 84 3 84 -15 0 -13 117 3 123 10 4 10 6 0 6 -8 1 -13 14 -13 31 0 17 -4
30 -10 30 -5 0 -10 11 -10 25 0 14 -4 25 -10 25 -5 0 -10 9 -10 20 0 11 -4 20
-10 20 -5 0 -10 11 -10 25 0 14 -4 25 -10 25 -5 0 -10 7 -10 15 0 8 -4 15 -10
15 -5 0 -10 8 -10 18 0 10 -9 24 -20 32 -11 8 -20 20 -20 27 0 7 -4 13 -10 13
-5 0 -10 5 -10 11 0 18 -32 41 -99 73 -55 27 -61 33 -61 61 0 19 -7 36 -20 45
-11 8 -20 19 -20 25 0 6 -9 17 -20 25 -11 8 -20 24 -20 36 0 15 -9 25 -30 33
-16 6 -44 16 -62 23 -17 6 -51 31 -74 55 -24 24 -50 43 -58 43 -8 0 -16 5 -18
10 -4 12 -126 40 -144 33 -6 -2 -26 10 -43 27 -19 17 -44 30 -60 30 -38 1 -95
23 -122 49 -65 59 -92 81 -100 81 -5 0 -9 6 -9 13 0 7 -9 19 -20 27 -11 8 -20
18 -20 22 0 21 -94 101 -128 110 -56 14 -92 29 -92 39 0 5 -7 9 -15 9 -19 0
-133 57 -152 76 -8 8 -26 16 -41 20 -137 28 -172 40 -172 59 0 17 -57 27 -94
16 -106 -32 -230 -34 -288 -5 -15 8 -41 14 -58 14 -40 0 -123 43 -166 86 -19
19 -39 34 -44 34 -6 0 -10 6 -10 14 0 8 -6 17 -12 20 -10 5 -10 7 0 12 6 3 12
12 12 20 0 8 5 14 10 14 6 0 10 5 10 10 0 30 90 90 135 90 22 0 25 4 25 35 0
19 5 35 10 35 6 0 10 5 10 11 0 6 14 24 30 39 17 15 30 35 30 43 0 9 6 18 13
20 10 4 10 6 0 6 -15 1 -18 51 -3 51 15 0 12 67 -2 74 -10 5 -10 7 0 12 6 3
12 11 12 18 0 6 9 18 20 26 21 15 27 40 10 40 -5 0 -10 5 -10 11 0 6 -13 24
-30 39 -36 34 -43 95 -11 105 10 3 29 14 41 25 34 30 83 40 215 46 123 5 189
18 214 42 7 7 26 16 42 19 16 3 29 9 29 14 0 4 9 11 20 14 11 3 27 13 35 22
10 9 44 18 94 22 75 6 111 22 111 50 0 13 45 25 60 16 13 -8 40 18 40 39 0 9
5 16 10 16 6 0 10 6 10 14 0 8 9 18 20 21 11 3 20 12 20 18 0 7 21 19 48 26
26 8 50 18 53 23 11 16 106 45 136 41 22 -4 57 9 132 47 57 28 114 61 127 73
35 33 48 43 73 57 30 15 131 116 131 130 0 5 5 10 10 10 6 0 10 35 10 85 0 50
-4 85 -10 85 -5 0 -10 18 -10 40 0 22 -4 40 -10 40 -5 0 -10 9 -10 20 0 11 -4
20 -10 20 -5 0 -10 5 -10 11 0 18 -60 69 -89 76 -14 3 -42 14 -61 23 -28 14
-75 19 -228 24 -194 6 -221 11 -253 48 -20 22 -36 23 -100 2 -27 -9 -61 -14
-76 -11 -15 3 -40 -1 -56 -9 -27 -15 -100 -14 -198 2 -20 3 -55 0 -78 -6 -32
-8 -53 -8 -97 4 -31 8 -62 12 -70 9 -15 -6 -74 15 -74 26 0 16 -86 31 -120 21
-19 -5 -51 -10 -70 -10 -41 0 -133 31 -154 52 -7 8 -40 20 -72 27 -64 15 -84
29 -84 60 0 12 -4 21 -10 21 -19 0 -10 51 14 75 13 13 43 33 67 46 40 21 56
22 184 21 77 -1 163 3 190 9 82 19 135 52 135 83 0 9 5 16 10 16 6 0 10 7 10
15 0 8 6 15 13 15 8 0 7 4 -3 10 -10 6 -11 10 -2 10 6 0 12 11 12 25 0 14 5
25 10 25 6 0 10 14 10 30 0 17 5 30 10 30 14 0 12 27 -2 33 -10 4 -10 6 0 6 6
1 12 7 12 15 0 19 50 27 67 11 7 -8 13 -18 13 -24 0 -17 46 -24 71 -11 29 16
73 60 59 60 -14 0 -13 57 3 63 8 3 5 11 -10 24 -13 11 -23 30 -23 42 0 11 -4
21 -10 21 -5 0 -10 23 -10 50 0 28 5 50 10 50 6 0 10 11 10 25 0 27 30 64 68
84 30 16 88 14 106 -4 15 -16 43 -19 70 -9 25 10 22 95 -4 114 -12 9 -20 26
-20 44 0 26 -30 66 -50 66 -12 0 -50 37 -50 49 0 6 -4 11 -9 11 -5 0 -17 8
-27 17 -13 13 -19 14 -22 5 -6 -19 -33 -14 -53 10 -20 22 -30 24 -159 33 -41
3 -93 11 -115 17 -38 10 -191 18 -199 10z"/>
</g>
</svg>
