<?xml version="1.0" standalone="no"?>
<!DOCTYPE svg PUBLIC "-//W3C//DTD SVG 20010904//EN"
 "http://www.w3.org/TR/2001/REC-SVG-20010904/DTD/svg10.dtd">
<svg version="1.0" xmlns="http://www.w3.org/2000/svg"
 width="3950.000000pt" height="3506.000000pt" viewBox="0 0 3950.000000 3506.000000"
 preserveAspectRatio="xMidYMid meet">
<metadata>
Created by potrace 1.16, written by Peter Selinger 2001-2019
</metadata>
<g transform="translate(0.000000,3506.000000) scale(0.100000,-0.100000)"
fill="#ffffff" stroke="#000000" stroke-width="5.00">
<path d="M24163 15103 c-7 -2 -13 -11 -13 -19 0 -8 -4 -14 -10 -14 -5 0 -10
-6 -10 -14 0 -9 -15 -17 -40 -21 -23 -4 -53 -19 -71 -36 -35 -33 -49 -36 -49
-13 0 11 -6 14 -20 10 -11 -3 -29 -9 -40 -12 -17 -5 -20 -14 -20 -70 0 -44 -4
-64 -12 -64 -7 -1 -2 -7 12 -15 40 -23 86 -17 158 19 37 18 79 36 93 39 38 10
69 41 69 71 0 14 5 26 10 26 6 0 10 9 10 19 0 11 6 22 13 24 10 4 10 6 0 6 -7
1 -13 12 -13 24 0 16 -9 28 -25 35 -14 7 -27 12 -28 11 -1 0 -8 -3 -14 -6z"/>
<path d="M21553 14767 c-25 -5 -43 -16 -43 -23 0 -8 -4 -14 -10 -14 -25 0 -6
-28 28 -43 116 -50 202 -47 202 8 0 23 -46 65 -83 76 -36 10 -37 10 -94 -4z"/>
<path d="M22635 14773 c-52 -10 -63 -14 -83 -31 -22 -19 -31 -72 -12 -72 6 0
10 -17 10 -38 0 -26 6 -42 20 -52 13 -10 16 -16 8 -21 -17 -11 69 -32 120 -31
29 1 60 -7 93 -23 38 -20 75 -27 166 -35 65 -6 156 -17 203 -24 105 -16 130
-8 130 41 0 36 -11 52 -50 73 -30 16 -40 24 -95 77 -65 63 -195 125 -270 129
-137 8 -221 10 -240 7z"/>
<path d="M23025 8958 c-16 -5 -50 -15 -75 -23 -25 -7 -70 -22 -100 -33 -30
-11 -97 -28 -149 -38 -93 -17 -94 -17 -188 6 -142 34 -214 20 -289 -56 -19
-18 -34 -36 -34 -40 0 -3 -13 -19 -30 -34 -16 -15 -30 -33 -30 -39 0 -6 -4
-11 -10 -11 -5 0 -10 -7 -10 -15 0 -8 -4 -15 -10 -15 -5 0 -10 -16 -10 -35 0
-19 -4 -35 -10 -35 -5 0 -10 -7 -10 -15 0 -8 -4 -15 -10 -15 -5 0 -10 -6 -10
-14 0 -8 -6 -17 -12 -19 -10 -4 -10 -6 0 -6 14 -1 17 -31 2 -31 -5 0 -10 -7
-10 -15 0 -8 5 -15 10 -15 6 0 10 -32 10 -75 0 -43 -4 -75 -10 -75 -5 0 -10
-5 -10 -11 0 -6 -13 -24 -30 -39 -16 -15 -30 -33 -30 -39 0 -6 -4 -11 -10 -11
-5 0 -10 -8 -10 -18 0 -10 -9 -24 -20 -32 -11 -8 -20 -20 -20 -27 0 -7 -4 -13
-10 -13 -5 0 -10 -7 -10 -15 0 -8 -4 -15 -10 -15 -5 0 -10 -13 -10 -30 0 -16
-4 -30 -10 -30 -5 0 -10 -9 -10 -20 0 -11 -4 -20 -10 -20 -5 0 -10 -5 -10 -11
0 -15 -56 -66 -81 -74 -10 -4 -19 -11 -19 -16 0 -5 -7 -9 -15 -9 -16 0 -85
-63 -85 -77 0 -5 -9 -15 -20 -23 -11 -8 -20 -18 -20 -23 0 -11 -59 -67 -70
-67 -10 0 -70 -56 -70 -65 0 -4 -13 -20 -30 -35 -16 -15 -30 -33 -30 -39 0 -6
-4 -11 -10 -11 -6 0 -10 -33 -10 -80 0 -72 -3 -84 -24 -104 -27 -28 -66 -48
-121 -64 -58 -16 -316 -45 -415 -47 -68 -1 -94 -6 -129 -24 -45 -24 -71 -44
-71 -56 0 -4 -13 -20 -30 -35 -16 -15 -30 -35 -30 -44 0 -9 -4 -16 -10 -16 -5
0 -10 -9 -10 -20 0 -11 -4 -20 -10 -20 -5 0 -10 -11 -10 -25 0 -14 -4 -25 -10
-25 -6 0 -10 -40 -10 -99 0 -70 -4 -101 -12 -105 -10 -5 -10 -7 0 -12 7 -3 12
-25 12 -53 0 -35 -5 -50 -20 -61 -11 -8 -20 -22 -20 -32 0 -9 -9 -20 -20 -23
-11 -3 -20 -13 -20 -21 0 -8 -4 -14 -10 -14 -5 0 -10 -20 -10 -45 0 -43 -1
-45 -28 -45 -30 0 -72 -29 -72 -49 0 -6 -4 -11 -10 -11 -5 0 -10 -9 -10 -20 0
-11 -4 -20 -10 -20 -5 0 -10 -6 -10 -13 0 -7 -9 -19 -20 -27 -11 -8 -20 -20
-20 -27 0 -7 -4 -13 -10 -13 -5 0 -10 -7 -10 -15 0 -8 -4 -15 -10 -15 -5 0
-10 -7 -10 -15 0 -8 -4 -15 -10 -15 -6 0 -10 -43 -10 -110 0 -67 4 -110 10
-110 6 0 10 -20 10 -45 0 -25 5 -45 10 -45 6 0 10 -11 10 -25 0 -14 5 -25 10
-25 6 0 10 -14 10 -31 0 -23 10 -40 40 -69 22 -21 40 -46 40 -54 0 -9 5 -16
10 -16 6 0 10 -9 10 -20 0 -11 5 -20 10 -20 6 0 10 -9 10 -20 0 -11 5 -20 10
-20 6 0 10 -13 10 -30 0 -16 5 -30 10 -30 6 0 10 -9 10 -19 0 -11 6 -22 13
-24 10 -4 10 -6 0 -6 -30 -2 8 -71 39 -71 4 0 8 -8 8 -18 0 -10 9 -24 20 -32
11 -8 20 -20 20 -27 0 -7 5 -13 10 -13 6 0 10 -9 10 -20 0 -11 5 -20 10 -20 6
0 10 -32 10 -75 0 -43 -4 -75 -10 -75 -6 0 -10 -30 -10 -70 0 -40 4 -70 10
-70 6 0 10 -13 10 -30 0 -16 -4 -30 -10 -30 -5 0 -10 -9 -10 -20 0 -11 -4 -20
-10 -20 -5 0 -10 -9 -10 -20 0 -11 -4 -20 -10 -20 -5 0 -10 -7 -10 -15 0 -8
-4 -15 -10 -15 -5 0 -10 -7 -10 -15 0 -8 -4 -15 -10 -15 -5 0 -10 -7 -10 -15
0 -8 -4 -15 -10 -15 -5 0 -10 -9 -10 -20 0 -11 -4 -20 -10 -20 -5 0 -10 -6
-10 -13 0 -7 -9 -19 -21 -27 -12 -8 -34 -27 -51 -42 -16 -15 -38 -30 -49 -33
-10 -4 -19 -15 -19 -26 0 -10 -4 -19 -10 -19 -5 0 -10 -9 -10 -20 0 -11 -4
-20 -10 -20 -5 0 -10 -5 -10 -11 0 -24 -72 -69 -110 -69 -21 0 -90 -61 -90
-80 0 -5 -4 -10 -10 -10 -5 0 -10 -7 -10 -15 0 -8 -4 -15 -10 -15 -5 0 -10
-11 -10 -23 0 -18 -10 -28 -40 -42 -22 -10 -40 -22 -40 -27 0 -4 -7 -8 -15 -8
-32 0 -65 -23 -65 -47 0 -12 -4 -23 -10 -23 -5 0 -10 -9 -10 -20 0 -11 -4 -20
-10 -20 -5 0 -10 -6 -10 -14 0 -8 -9 -18 -20 -21 -11 -3 -26 -12 -33 -20 -7
-7 -37 -25 -66 -40 -30 -15 -64 -36 -76 -48 -12 -12 -32 -29 -44 -37 -11 -8
-21 -20 -21 -27 0 -7 -4 -13 -10 -13 -6 0 -10 -27 -10 -60 0 -33 -4 -60 -10
-60 -5 0 -10 -7 -10 -15 0 -8 -4 -15 -10 -15 -5 0 -10 -7 -10 -15 0 -8 -4 -15
-10 -15 -5 0 -10 -10 -10 -23 0 -12 -9 -29 -20 -37 -11 -8 -20 -19 -20 -25 0
-6 -9 -17 -20 -25 -11 -8 -20 -18 -20 -23 0 -11 -59 -67 -71 -67 -5 0 -9 -16
-9 -35 0 -19 -4 -35 -8 -35 -14 0 -52 -36 -52 -49 0 -6 -4 -11 -10 -11 -5 0
-10 -7 -10 -15 0 -8 -4 -15 -10 -15 -5 0 -10 -9 -10 -20 0 -11 -4 -20 -10 -20
-5 0 -10 -7 -10 -16 0 -16 -55 -74 -71 -74 -5 0 -9 -6 -9 -13 0 -7 -9 -19 -20
-27 -11 -8 -20 -22 -20 -32 0 -10 -4 -18 -10 -18 -5 0 -10 -9 -10 -20 0 -11
-4 -20 -10 -20 -5 0 -10 -9 -10 -20 0 -11 -4 -20 -10 -20 -5 0 -10 -11 -10
-25 0 -14 -4 -25 -10 -25 -5 0 -10 -25 -10 -56 0 -59 -16 -85 -61 -99 -11 -4
-19 -10 -19 -14 0 -4 -18 -16 -40 -26 -22 -10 -40 -22 -40 -26 0 -4 -8 -10
-19 -14 -25 -8 -61 -40 -61 -54 0 -6 -4 -11 -10 -11 -5 0 -10 -5 -10 -11 0
-20 -70 -69 -100 -69 -16 0 -60 -47 -60 -65 0 -8 -4 -15 -10 -15 -5 0 -10 -9
-10 -20 0 -11 -4 -20 -10 -20 -5 0 -10 -7 -10 -15 0 -8 -4 -15 -10 -15 -5 0
-10 -18 -10 -40 0 -22 -4 -40 -10 -40 -5 0 -10 -9 -10 -20 0 -11 -4 -20 -10
-20 -5 0 -10 -7 -10 -16 0 -15 -31 -47 -117 -122 -91 -78 -103 -91 -103 -112
0 -21 -32 -57 -79 -90 -12 -8 -21 -19 -21 -25 0 -6 -9 -17 -20 -25 -11 -8 -20
-22 -20 -32 0 -10 -4 -18 -10 -18 -5 0 -10 -13 -10 -29 0 -16 -6 -32 -12 -35
-10 -5 -10 -7 0 -12 6 -3 12 -21 12 -40 0 -19 5 -34 10 -34 6 0 10 -7 10 -15
0 -8 5 -15 10 -15 6 0 10 -7 10 -15 0 -8 5 -15 10 -15 6 0 10 -7 10 -15 0 -8
-4 -15 -10 -15 -5 0 -10 -11 -10 -25 0 -14 -4 -25 -10 -25 -5 0 -10 -5 -10
-11 0 -6 -22 -32 -50 -59 -27 -27 -50 -54 -50 -60 0 -18 -22 -36 -80 -65 -30
-15 -66 -40 -81 -56 -22 -23 -40 -31 -95 -39 -38 -5 -72 -10 -75 -10 -9 0 -49
-36 -49 -44 0 -9 -26 -36 -34 -36 -3 0 -6 11 -6 25 0 14 -4 25 -10 25 -5 0
-10 8 -10 18 0 21 -51 47 -114 57 -22 4 -93 33 -158 66 -65 32 -124 59 -133
59 -8 0 -30 16 -49 35 -20 19 -40 35 -46 35 -14 0 -230 -109 -245 -123 -7 -7
-22 -19 -34 -27 -11 -8 -21 -18 -21 -23 0 -5 -18 -26 -40 -47 -22 -21 -40 -48
-40 -59 0 -12 -4 -21 -10 -21 -5 0 -10 -9 -10 -20 0 -11 -4 -20 -10 -20 -5 0
-10 -20 -10 -45 0 -25 -4 -45 -10 -45 -5 0 -10 -20 -10 -45 0 -25 -4 -45 -10
-45 -5 0 -10 -7 -10 -15 0 -10 -16 -16 -50 -21 -32 -4 -50 -11 -50 -20 0 -8
-4 -14 -10 -14 -5 0 -20 -11 -33 -24 -14 -14 -41 -28 -61 -31 -20 -4 -36 -11
-36 -15 0 -11 -47 -29 -105 -39 -56 -11 -194 3 -262 25 -45 14 -73 10 -73 -11
0 -7 -6 -16 -12 -19 -10 -5 -10 -7 0 -12 6 -3 12 -20 12 -38 0 -28 -6 -35 -43
-53 -40 -19 -49 -20 -123 -9 -45 6 -88 18 -96 26 -9 8 -25 22 -37 30 -11 8
-21 20 -21 27 0 7 -4 13 -10 13 -5 0 -10 9 -10 20 0 22 -3 23 -81 20 -30 -1
-78 6 -107 15 -51 17 -52 18 -52 56 0 22 -4 39 -10 39 -5 0 -10 9 -10 20 0 11
-4 20 -10 20 -5 0 -10 7 -10 15 0 8 -4 15 -10 15 -5 0 -10 7 -10 15 0 8 -4 15
-10 15 -5 0 -10 8 -10 18 0 10 -9 24 -20 32 -11 8 -20 20 -20 26 0 16 -23 24
-49 17 -32 -8 -71 5 -71 25 0 10 -9 24 -20 32 -11 8 -20 20 -20 27 0 7 -4 13
-10 13 -5 0 -10 6 -10 14 0 8 -9 18 -20 21 -11 3 -20 10 -20 15 0 14 -39 23
-105 25 -34 0 -74 8 -92 18 -18 9 -39 17 -47 17 -8 0 -37 22 -65 49 l-51 50 0
95 c0 86 -2 95 -20 101 -11 3 -20 10 -20 14 0 4 -18 16 -40 26 -35 16 -47 17
-93 6 -46 -10 -58 -9 -107 10 -30 12 -74 28 -97 36 -24 9 -43 22 -43 29 0 8
-4 14 -10 14 -5 0 -10 7 -10 15 0 8 -4 15 -10 15 -5 0 -10 7 -10 15 0 8 -7 15
-15 15 -17 0 -117 48 -125 60 -3 4 -25 17 -49 30 -38 19 -49 20 -87 11 -63
-16 -79 -14 -113 16 -50 45 -55 49 -76 55 -11 4 -45 16 -75 27 -30 12 -65 21
-77 21 -20 0 -23 -5 -23 -39 0 -31 -4 -41 -20 -46 -11 -3 -20 -13 -20 -22 0
-10 -6 -13 -16 -9 -9 3 -18 6 -20 6 -2 0 -4 7 -4 15 0 8 -4 15 -10 15 -5 0
-10 7 -10 15 0 8 5 15 10 15 6 0 10 15 10 34 0 30 -4 34 -32 40 -61 12 -168
48 -168 56 0 5 -9 12 -20 15 -15 5 -20 15 -20 41 0 19 -4 34 -10 34 -20 0 -9
52 16 77 22 22 35 26 75 25 26 0 57 -6 69 -12 32 -17 70 27 70 80 0 22 5 40
10 40 6 0 10 11 10 25 0 14 -4 25 -10 25 -5 0 -10 9 -10 20 0 11 -4 20 -10 20
-5 0 -10 11 -10 25 0 14 -4 25 -10 25 -5 0 -10 9 -10 20 0 24 -74 101 -118
124 -17 9 -51 16 -77 16 -34 0 -45 4 -45 16 0 13 7 15 43 9 l42 -7 -24 21
c-13 11 -32 21 -42 21 -9 0 -19 4 -21 10 -1 5 -51 17 -110 27 -88 14 -108 20
-108 34 0 10 -14 22 -32 29 -18 6 -47 17 -63 24 -17 8 -45 17 -64 21 -32 7
-81 44 -81 62 0 5 -9 15 -20 23 -11 8 -20 20 -20 27 0 7 -4 13 -10 13 -5 0
-10 9 -10 20 0 11 -4 20 -10 20 -5 0 -10 5 -10 11 0 16 -55 64 -90 79 -25 10
-30 18 -30 46 0 19 -4 34 -10 34 -5 0 -10 7 -10 15 0 8 -4 15 -10 15 -5 0 -10
5 -10 11 0 16 -34 44 -70 59 -17 7 -30 16 -30 20 0 4 -18 15 -40 25 -38 17
-40 20 -40 62 0 37 -6 49 -35 78 -19 19 -40 35 -46 35 -6 0 -19 8 -28 19 -9
10 -40 31 -70 46 -30 15 -61 33 -68 41 -15 15 -32 19 -105 29 -40 5 -48 3 -48
-9 0 -9 -4 -16 -10 -16 -5 0 -10 -8 -10 -18 0 -12 -14 -25 -40 -37 -22 -10
-40 -24 -40 -32 0 -7 -7 -13 -15 -13 -9 0 -38 -11 -65 -25 -27 -14 -56 -25
-64 -25 -8 0 -21 -6 -28 -14 -18 -18 -104 -61 -157 -80 -37 -12 -46 -12 -112
11 -79 26 -145 58 -167 79 -7 8 -20 14 -28 14 -8 0 -37 11 -64 25 -27 14 -54
25 -60 25 -6 0 -22 10 -35 23 -43 40 -53 46 -139 89 -47 23 -86 49 -86 56 0
14 -26 40 -90 92 -17 14 -37 30 -44 36 -7 7 -32 22 -57 34 -24 13 -46 26 -49
30 -3 4 -25 17 -49 30 -25 12 -50 27 -57 34 -6 6 -22 18 -34 26 -13 8 -33 25
-46 38 -13 12 -28 22 -33 22 -6 0 -25 6 -43 14 -30 13 -56 23 -145 56 -18 7
-33 19 -33 26 0 8 -4 14 -10 14 -5 0 -10 8 -10 18 0 10 -10 24 -21 32 -12 8
-27 20 -34 27 -6 6 -37 14 -68 18 l-57 7 0 38 c0 30 -5 40 -20 45 -11 3 -20
10 -20 15 0 5 -9 12 -20 15 -11 3 -20 11 -20 16 0 6 -7 17 -15 25 -13 13 -18
12 -40 -10 -14 -14 -35 -26 -45 -26 -17 0 -20 7 -20 40 0 22 5 40 10 40 6 0
10 6 10 14 0 9 18 16 50 20 41 5 50 10 50 26 0 11 5 20 10 20 6 0 10 7 10 15
0 8 5 15 10 15 6 0 10 28 10 64 0 42 4 66 13 70 9 5 9 7 0 12 -9 4 -13 28 -13
70 0 36 -4 64 -10 64 -5 0 -10 9 -10 20 0 11 -4 20 -10 20 -5 0 -10 11 -10 25
0 14 -4 25 -10 25 -5 0 -10 7 -10 15 0 8 -4 15 -10 15 -5 0 -10 9 -10 20 0 11
-4 20 -10 20 -5 0 -10 9 -10 20 0 11 -4 20 -10 20 -5 0 -10 9 -10 20 0 11 -4
20 -10 20 -5 0 -10 7 -10 15 0 8 -4 15 -10 15 -5 0 -10 7 -10 15 0 8 -4 15
-10 15 -5 0 -10 10 -10 23 0 12 -9 29 -20 37 -11 8 -20 22 -20 32 0 10 -4 18
-10 18 -5 0 -10 9 -10 20 0 11 -4 20 -10 20 -5 0 -10 9 -10 20 0 11 -4 20 -10
20 -5 0 -10 6 -10 13 0 7 -9 19 -20 27 -13 9 -20 26 -20 47 0 18 -4 33 -10 33
-5 0 -10 9 -10 20 0 11 -4 20 -9 20 -5 0 -23 12 -40 28 -17 15 -38 33 -47 41
-25 22 -114 51 -186 61 -37 5 -86 18 -110 29 -24 11 -58 25 -77 32 -18 7 -43
22 -56 34 -21 22 -147 55 -208 55 -20 0 -27 5 -27 20 0 11 -4 20 -10 20 -5 0
-10 7 -10 15 0 8 -4 15 -10 15 -6 0 -10 31 -10 73 0 61 -3 75 -20 87 -11 8
-20 20 -20 27 0 7 -4 13 -10 13 -5 0 -10 5 -10 11 0 16 -28 41 -39 35 -14 -9
-41 4 -41 20 0 22 -79 38 -175 35 -49 -1 -98 -4 -107 -7 -15 -4 -18 1 -18 29
0 23 -6 37 -16 41 -23 9 -24 8 -24 -14 0 -11 5 -20 10 -20 6 0 10 -11 10 -24
0 -13 6 -27 13 -29 9 -4 9 -6 0 -6 -9 -1 -13 -18 -13 -51 0 -27 -4 -50 -10
-50 -5 0 -10 -6 -10 -14 0 -23 -25 -26 -82 -8 -36 11 -82 15 -144 14 -50 -2
-124 4 -165 12 -41 8 -96 17 -124 21 -82 11 -200 36 -205 45 -12 19 -113 60
-147 60 -21 0 -58 7 -83 16 -57 20 -194 5 -159 -17 9 -6 -4 -9 -38 -9 -35 0
-57 5 -68 17 -10 10 -19 12 -23 6 -4 -5 -29 -10 -57 -10 -42 0 -100 -9 -241
-38 -11 -3 -30 -12 -41 -22 -12 -10 -31 -25 -42 -33 -12 -8 -21 -18 -21 -23 0
-5 -13 -22 -30 -37 -16 -15 -30 -33 -30 -39 0 -6 -4 -11 -10 -11 -5 0 -20 -11
-33 -24 -34 -34 -81 -56 -117 -56 -38 0 -67 -14 -100 -50 -43 -45 -272 -91
-475 -96 -93 -2 -165 -20 -165 -41 0 -23 -44 -24 -110 -3 -56 18 -71 19 -117
9 -41 -10 -59 -9 -80 0 -15 7 -65 15 -111 18 -71 5 -88 10 -109 31 -18 17 -31
22 -49 18 -13 -4 -24 -13 -24 -21 0 -8 -4 -15 -10 -15 -5 0 -10 -6 -10 -13 0
-14 -40 -37 -65 -37 -8 0 -15 -4 -15 -9 0 -6 -20 -13 -44 -16 -44 -7 -75 3
-104 32 -19 19 -45 16 -72 -7 -27 -24 -51 -25 -105 -5 -22 8 -66 14 -97 15
-44 0 -58 4 -58 15 0 24 -77 39 -189 36 -97 -2 -153 -16 -171 -41 -3 -4 -16
-13 -29 -20 -14 -7 -30 -17 -35 -22 -49 -40 -60 -48 -68 -48 -4 0 -8 -7 -8
-15 0 -8 -4 -15 -8 -15 -5 0 -18 -8 -30 -17 -11 -10 -30 -25 -41 -33 -12 -8
-21 -24 -21 -35 0 -16 -13 -28 -52 -46 -72 -34 -108 -70 -108 -108 0 -17 -4
-31 -10 -31 -5 0 -10 -6 -10 -13 0 -13 -119 -77 -144 -77 -7 0 -23 -9 -35 -20
-13 -10 -44 -22 -69 -25 -26 -3 -56 -9 -67 -12 -11 -3 -45 -9 -75 -13 -64 -9
-153 -41 -175 -64 -9 -9 -21 -16 -26 -16 -5 0 -9 -9 -9 -20 0 -11 -4 -20 -10
-20 -5 0 -10 -5 -10 -11 0 -15 -56 -66 -81 -74 -10 -4 -19 -12 -19 -19 0 -20
-141 -78 -240 -100 -36 -8 -90 -21 -120 -29 -30 -8 -92 -23 -138 -32 -46 -10
-92 -27 -104 -37 -12 -10 -29 -18 -38 -18 -9 0 -27 -9 -40 -20 -12 -11 -31
-22 -41 -25 -11 -4 -19 -12 -19 -18 0 -18 -155 -21 -172 -4 -7 8 -26 17 -41
21 -20 5 -27 3 -27 -9 0 -18 -2 -18 -35 -3 -14 6 -25 17 -25 25 0 29 -70 13
-173 -38 -109 -55 -151 -63 -202 -36 -27 13 -159 33 -240 36 -16 0 -68 6 -115
12 -47 6 -128 12 -180 14 -52 3 -104 5 -115 5 -36 1 -89 -13 -104 -28 -11 -10
-27 -13 -58 -8 -29 4 -58 0 -86 -10 -23 -9 -71 -20 -107 -24 -36 -5 -94 -15
-130 -24 -78 -18 -187 -12 -240 14 -19 10 -50 21 -68 25 l-32 7 0 -2381 0
-2381 1283 0 c1270 0 1284 0 1307 20 13 11 27 20 32 20 4 0 8 8 8 19 0 18 21
30 78 46 12 3 22 13 22 21 0 8 4 14 9 14 5 0 16 6 24 14 15 16 146 46 199 46
66 0 148 37 148 67 0 11 43 33 64 33 17 0 76 54 76 69 0 6 5 11 10 11 6 0 10
7 10 15 0 8 5 15 10 15 6 0 10 6 10 13 0 6 14 23 31 37 16 14 48 42 70 62 21
20 48 40 59 43 11 4 20 11 20 16 0 5 16 9 36 9 22 0 43 7 53 18 15 16 45 30
118 56 18 6 33 15 33 21 0 5 13 20 28 33 15 12 38 31 51 42 13 11 28 20 33 20
4 0 8 5 8 11 0 12 42 54 80 79 12 8 30 22 40 30 9 8 54 33 99 55 44 21 81 45
81 52 0 7 4 13 10 13 5 0 20 11 33 24 32 32 80 56 111 56 13 0 31 6 38 14 8 8
39 26 68 41 29 15 59 32 66 39 6 6 21 18 33 26 11 8 21 22 21 32 0 10 5 18 10
18 19 0 10 39 -10 45 -11 3 -20 13 -20 22 0 13 8 15 46 9 45 -6 74 7 74 33 0
6 5 11 10 11 6 0 10 8 10 19 0 21 32 36 98 46 23 4 42 10 42 14 0 14 100 55
133 54 17 0 55 -6 82 -12 51 -12 105 -1 105 21 0 5 19 6 45 3 33 -6 48 -3 60
8 8 9 15 18 15 22 0 17 36 39 88 52 41 11 80 13 142 9 92 -7 90 -8 161 56 17
15 39 30 50 33 10 4 19 10 19 14 0 5 14 11 30 14 25 6 30 11 30 37 0 16 5 30
10 30 6 0 10 9 10 19 0 20 18 31 50 31 27 0 90 -31 90 -45 0 -6 10 -17 21 -25
59 -41 99 -89 99 -119 0 -17 4 -31 8 -31 5 0 19 -8 30 -19 20 -17 22 -28 22
-121 0 -93 -2 -104 -22 -121 -11 -11 -25 -19 -30 -19 -4 0 -8 -8 -8 -19 0 -11
-12 -23 -30 -31 -29 -12 -30 -15 -30 -71 0 -33 4 -59 10 -59 6 0 10 -7 10 -15
0 -8 5 -15 10 -15 6 0 10 -5 10 -11 0 -16 26 -39 44 -39 9 0 16 -7 16 -15 0
-8 5 -15 10 -15 6 0 10 -13 10 -30 0 -16 5 -30 10 -30 6 0 10 -7 10 -15 0 -8
4 -15 8 -15 14 0 52 -36 52 -49 0 -6 5 -11 10 -11 6 0 10 -9 10 -20 0 -11 5
-20 10 -20 6 0 10 -7 10 -15 0 -8 5 -15 10 -15 18 0 11 -45 -9 -60 -20 -13
-20 -14 0 -30 10 -10 19 -29 19 -44 0 -14 5 -26 10 -26 6 0 10 -9 10 -20 0
-11 5 -20 10 -20 6 0 10 -13 10 -30 0 -16 5 -30 10 -30 6 0 10 -9 10 -20 0
-11 5 -20 10 -20 6 0 10 -11 10 -25 0 -14 5 -25 10 -25 6 0 10 -11 10 -25 0
-14 5 -25 10 -25 6 0 10 -9 10 -21 0 -12 14 -34 30 -49 17 -15 30 -34 30 -40
0 -14 38 -50 52 -50 4 0 8 -9 8 -20 0 -11 5 -20 10 -20 6 0 10 -9 10 -20 0
-11 4 -20 8 -20 5 0 19 -9 32 -20 13 -11 35 -23 49 -27 14 -3 40 -21 58 -39
28 -28 33 -41 33 -79 l0 -45 13080 0 c12821 0 13080 0 13080 19 0 13 -9 20
-32 24 -66 11 -114 25 -150 42 -33 16 -38 23 -38 52 0 18 -4 33 -10 33 -5 0
-10 16 -10 35 0 19 -4 35 -10 35 -5 0 -10 13 -10 28 0 16 -8 34 -20 42 -11 8
-20 22 -20 30 0 18 97 67 202 101 60 20 68 21 82 6 9 -8 16 -27 16 -41 0 -14
5 -26 10 -26 6 0 10 -6 10 -13 0 -21 67 -49 90 -37 10 5 44 10 74 10 53 0 56
1 56 25 0 14 5 25 10 25 6 0 10 9 10 20 0 14 7 20 21 20 27 0 166 -47 185 -63
57 -48 74 -68 74 -86 0 -12 4 -21 8 -21 14 0 52 -36 52 -49 0 -6 5 -11 10 -11
6 0 10 -11 10 -25 0 -14 5 -25 10 -25 6 0 10 -11 10 -25 0 -14 5 -25 10 -25 6
0 10 -7 10 -15 0 -8 5 -15 10 -15 6 0 10 -11 10 -24 0 -21 5 -24 48 -28 57 -5
92 1 92 14 0 6 10 19 23 30 17 16 31 19 65 14 28 -4 48 -1 57 7 33 29 46 37
105 67 67 34 90 52 90 69 0 6 5 11 10 11 6 0 10 9 10 20 0 11 5 20 10 20 6 0
10 9 10 19 0 28 25 33 73 15 23 -9 59 -22 80 -30 31 -12 41 -12 51 -2 8 7 23
20 35 28 11 8 21 23 21 33 0 33 25 47 87 47 64 0 166 -24 171 -40 2 -5 22 -10
45 -10 23 0 67 -9 97 -21 30 -12 72 -28 94 -35 44 -17 66 -36 66 -58 0 -9 5
-16 10 -16 6 0 10 -7 10 -15 0 -8 5 -15 10 -15 6 0 10 -7 10 -15 0 -8 5 -15
10 -15 6 0 10 -7 10 -15 0 -8 4 -15 8 -15 5 0 18 -8 30 -18 11 -9 30 -24 41
-32 12 -8 21 -19 21 -26 0 -31 50 -34 680 -34 556 0 634 2 667 16 148 63 273
130 273 146 0 10 5 18 10 18 6 0 10 9 10 20 0 13 7 20 18 20 27 0 62 34 62 59
0 11 5 21 10 21 6 0 10 7 10 15 0 19 34 19 123 1 62 -13 71 -13 120 6 28 11
67 24 85 29 17 6 32 16 32 24 0 8 5 15 10 15 6 0 10 16 10 35 0 19 5 35 10 35
6 0 10 20 10 45 0 25 5 45 10 45 6 0 10 16 10 36 l0 37 68 -7 c45 -4 90 -1
137 9 39 8 108 15 155 15 97 0 185 25 226 64 6 6 22 18 34 26 12 8 30 22 40
30 10 8 28 22 40 30 12 8 31 23 42 33 12 9 25 17 30 17 4 0 8 7 8 15 0 8 5 15
10 15 6 0 10 7 10 15 0 8 5 15 10 15 6 0 10 6 10 13 0 7 9 19 20 27 11 8 20
20 20 27 0 7 5 13 10 13 6 0 10 9 10 20 0 11 5 20 10 20 6 0 10 6 10 13 0 7 9
19 20 27 11 8 20 25 20 37 0 13 5 23 10 23 6 0 10 7 10 15 0 8 5 15 10 15 6 0
10 6 10 13 0 7 9 19 20 27 11 8 20 25 20 37 0 13 5 23 10 23 6 0 10 7 10 15 0
8 5 15 10 15 6 0 10 20 10 45 0 25 5 45 10 45 6 0 10 11 10 25 0 14 5 25 10
25 6 0 10 6 10 13 0 15 73 51 138 67 23 6 42 15 42 19 0 5 14 14 30 21 17 7
30 17 30 22 0 30 32 40 153 44 174 5 327 25 327 41 0 7 5 13 10 13 6 0 10 7
10 15 0 8 5 15 10 15 6 0 10 -4 10 -8 0 -4 20 -18 45 -30 41 -20 49 -21 124
-10 74 11 85 10 145 -10 36 -12 88 -22 120 -22 l56 0 -1 2203 c0 1211 -3 2195
-6 2187 -14 -34 -32 -40 -127 -40 -78 0 -96 3 -96 15 0 22 -37 27 -113 16 -43
-6 -116 -6 -205 0 -163 12 -182 15 -182 33 0 16 -22 26 -57 26 l-26 0 21 19
c17 14 22 30 22 65 0 25 -4 46 -10 46 -5 0 -10 15 -10 33 0 31 -2 33 -52 44
-29 6 -79 21 -112 33 l-58 22 -49 -23 c-27 -12 -49 -26 -49 -31 0 -4 -9 -8
-20 -8 -13 0 -20 7 -20 20 0 11 -4 20 -10 20 -5 0 -10 14 -10 31 0 38 -18 56
-78 79 -26 10 -63 24 -82 32 -19 7 -40 18 -46 23 -6 6 -21 17 -33 25 -11 8
-21 20 -21 27 0 13 -15 18 -88 28 -44 6 -122 39 -133 57 -4 6 -15 6 -29 -2
-13 -7 -35 -16 -49 -20 -14 -4 -34 -11 -43 -15 -15 -6 -18 -1 -18 32 0 36 -3
40 -45 61 -38 18 -50 20 -68 11 -12 -7 -25 -16 -29 -22 -11 -18 -126 -36 -163
-26 -19 6 -35 14 -35 19 0 5 -19 14 -42 20 -80 21 -71 16 -134 69 -6 5 -26 17
-45 26 -19 10 -37 22 -40 27 -6 10 -248 18 -291 11 -16 -3 -28 -12 -28 -19 0
-8 -4 -14 -10 -14 -5 0 -10 -17 -10 -38 0 -37 -1 -39 -71 -73 -88 -42 -129
-78 -129 -113 0 -14 -4 -26 -10 -26 -5 0 -10 -7 -10 -16 0 -21 -20 -39 -51
-47 -14 -4 -36 -16 -49 -27 -13 -11 -27 -20 -32 -20 -4 0 -8 -7 -8 -15 0 -8
-4 -15 -10 -15 -5 0 -10 -11 -10 -25 0 -14 -4 -25 -10 -25 -5 0 -10 -16 -10
-35 0 -29 -4 -36 -27 -41 -30 -8 -53 -26 -53 -43 0 -6 -4 -11 -10 -11 -5 0
-10 -6 -10 -13 0 -7 -9 -19 -20 -27 -11 -8 -20 -19 -20 -25 0 -5 -14 -21 -31
-35 -61 -51 -109 -99 -109 -109 0 -6 -4 -11 -10 -11 -5 0 -10 -7 -10 -15 0 -8
-4 -15 -10 -15 -5 0 -10 -6 -10 -14 0 -8 -9 -18 -20 -21 -11 -3 -20 -13 -20
-21 0 -8 -4 -14 -10 -14 -5 0 -10 -7 -10 -15 0 -8 -4 -15 -10 -15 -5 0 -10 -7
-10 -15 0 -8 -4 -15 -10 -15 -5 0 -10 -4 -10 -10 0 -18 -43 -60 -62 -60 -10 0
-47 -29 -82 -65 -38 -37 -90 -77 -126 -95 -34 -17 -77 -46 -95 -63 -57 -54
-61 -56 -129 -63 -36 -4 -66 -10 -66 -14 0 -4 -13 -13 -30 -20 -16 -7 -30 -17
-30 -22 0 -11 -107 -116 -140 -138 -13 -8 -33 -25 -45 -36 -12 -12 -37 -30
-56 -39 -18 -10 -39 -24 -47 -31 -7 -8 -17 -14 -21 -14 -12 0 -51 -36 -51 -47
0 -6 -15 -16 -32 -23 -18 -6 -49 -18 -68 -25 -19 -7 -50 -19 -67 -25 -18 -7
-33 -19 -33 -26 0 -8 -4 -14 -10 -14 -5 0 -10 -5 -10 -11 0 -18 -25 -36 -61
-44 -60 -13 -119 -50 -119 -74 0 -6 -4 -11 -10 -11 -5 0 -10 -7 -10 -15 0 -23
-36 -18 -63 9 -22 22 -59 46 -71 46 -3 0 -6 -7 -6 -15 0 -8 -4 -15 -10 -15 -5
0 -10 -7 -10 -15 0 -8 -4 -15 -10 -15 -5 0 -10 -9 -10 -20 0 -11 -4 -20 -10
-20 -5 0 -10 -16 -10 -35 0 -19 -4 -35 -10 -35 -5 0 -10 -7 -10 -16 0 -16 -58
-76 -100 -104 -12 -8 -28 -20 -34 -26 -28 -27 -56 -35 -78 -23 -13 7 -25 15
-28 19 -5 7 -65 40 -73 40 -4 0 -36 -26 -93 -79 -29 -26 -72 -47 -113 -56 -37
-8 -61 -26 -61 -46 0 -16 -39 -48 -64 -54 -12 -3 -63 -9 -114 -14 -58 -6 -98
-16 -108 -25 -8 -9 -33 -20 -54 -26 -36 -10 -40 -14 -40 -44 0 -27 -6 -35 -37
-51 -21 -10 -63 -22 -93 -26 -30 -4 -79 -14 -108 -22 -49 -14 -56 -14 -105 4
-57 22 -57 22 -375 -22 -135 -19 -182 -19 -182 1 0 25 -77 10 -100 -19 -13
-17 -226 -55 -425 -76 -143 -15 -168 -20 -235 -52 -69 -32 -79 -34 -115 -24
-22 6 -83 13 -135 16 -52 2 -114 9 -136 13 -40 9 -94 50 -94 72 0 5 -4 10 -8
10 -8 0 -20 9 -68 49 -6 5 -26 17 -44 26 -19 10 -40 24 -48 31 -8 8 -35 14
-67 14 -66 0 -85 7 -85 31 0 10 -4 19 -10 19 -5 0 -10 7 -10 15 0 9 -9 15 -22
15 -13 0 -56 9 -95 19 l-73 19 -87 -24 c-164 -43 -359 -112 -386 -134 -67 -57
-62 -55 -169 -69 -36 -5 -103 -7 -147 -4 -50 4 -81 2 -81 -4 0 -22 -56 -33
-171 -33 -111 0 -122 -2 -144 -23 -13 -12 -30 -27 -37 -32 -18 -14 -81 -33
-156 -45 -34 -6 -90 -20 -125 -32 -34 -11 -82 -24 -107 -28 -25 -5 -83 -21
-130 -38 -47 -16 -110 -37 -140 -46 -71 -21 -150 -57 -150 -68 0 -4 -16 -8
-36 -8 -60 0 -124 -49 -124 -95 0 -14 -4 -25 -10 -25 -5 0 -10 -6 -10 -14 0
-8 -9 -18 -20 -21 -11 -3 -20 -11 -20 -16 0 -5 -7 -9 -15 -9 -9 0 -44 -15 -78
-32 -56 -30 -69 -32 -144 -31 -76 2 -84 0 -111 -25 -16 -15 -51 -37 -78 -48
-88 -39 -149 -63 -171 -69 -18 -5 -23 -14 -23 -39 0 -33 -1 -33 -55 -39 -48
-5 -60 -11 -93 -45 -53 -55 -71 -62 -161 -62 -83 0 -131 13 -131 37 0 7 -4 13
-10 13 -5 0 -10 7 -10 15 0 8 -4 15 -10 15 -5 0 -10 8 -10 19 0 21 -32 37
-103 50 -67 12 -117 -4 -117 -38 0 -14 -8 -14 -25 2 -8 6 -21 17 -28 23 -8 7
-45 16 -83 22 -38 5 -77 13 -86 17 -15 6 -18 2 -18 -19 0 -14 5 -26 10 -26 6
0 10 -27 10 -60 0 -33 -4 -60 -10 -60 -5 0 -10 -6 -10 -13 0 -8 -10 -19 -22
-25 -13 -6 -17 -11 -10 -11 6 -1 12 -10 12 -20 0 -11 9 -23 20 -26 11 -3 20
-13 20 -21 0 -8 5 -14 10 -14 6 0 10 -7 10 -15 0 -8 -4 -15 -10 -15 -5 0 -10
-7 -10 -15 0 -8 -4 -15 -10 -15 -5 0 -10 -22 -10 -49 0 -45 -2 -49 -28 -54
-16 -3 -43 -19 -60 -35 -28 -26 -32 -37 -32 -81 0 -28 5 -51 10 -51 6 0 10 -9
10 -20 0 -11 5 -20 10 -20 6 0 10 -4 10 -10 0 -5 -7 -10 -16 -10 -9 0 -24 -8
-33 -19 -20 -23 -74 -51 -99 -51 -28 0 -125 -32 -139 -46 -7 -7 -13 -17 -13
-23 0 -6 -19 -11 -42 -11 -24 0 -72 -7 -108 -16 -121 -28 -165 -36 -215 -38
-87 -5 -93 -6 -107 -20 -37 -36 -128 -62 -128 -35 0 26 -27 38 -61 29 -48 -14
-75 -12 -93 6 -19 19 -69 34 -112 34 -39 0 -74 30 -74 63 0 17 -7 28 -20 32
-11 3 -20 10 -20 15 0 5 -9 12 -20 15 -20 6 -28 35 -10 35 6 0 10 5 10 10 0 6
-18 10 -40 10 -34 0 -40 3 -40 21 0 29 -37 60 -64 54 -11 -2 -52 -11 -91 -19
-38 -8 -88 -22 -110 -30 -53 -20 -87 -20 -113 1 -45 38 -66 53 -74 53 -4 0 -8
17 -8 38 0 26 -6 42 -20 52 -13 9 -20 26 -20 47 0 18 -4 33 -10 33 -5 0 -10 5
-10 10 0 27 -73 80 -110 80 -21 0 -50 21 -50 37 0 5 -9 15 -20 23 -11 8 -20
21 -20 30 0 9 -9 22 -20 30 -21 15 -29 80 -10 80 6 0 10 14 10 30 0 17 5 30
10 30 6 0 10 11 10 25 0 14 4 25 9 25 5 0 28 18 50 39 31 29 41 47 41 70 0 17
-4 31 -10 31 -5 0 -10 14 -10 30 0 17 -4 30 -10 30 -5 0 -10 20 -10 45 0 25
-4 45 -10 45 -5 0 -10 8 -10 18 0 10 -9 24 -20 32 -11 8 -20 20 -20 27 0 7 -4
13 -10 13 -15 0 -12 47 3 53 10 4 10 6 0 6 -8 1 -13 15 -13 35 0 32 -2 35 -40
41 -25 4 -40 12 -40 21 0 8 -4 14 -10 14 -5 0 -10 6 -10 14 0 8 -9 18 -20 21
-15 5 -20 15 -20 39 0 27 -6 35 -35 49 -20 9 -42 17 -50 17 -11 0 -15 13 -15
49 0 41 -4 51 -20 56 -11 3 -20 10 -20 14 0 4 -27 20 -60 36 -52 25 -60 32
-60 57 0 15 -4 28 -10 28 -5 0 -10 6 -10 14 0 17 -22 26 -61 26 -37 0 -62 13
-105 54 -18 17 -39 36 -46 41 -15 12 -80 32 -123 38 -16 3 -55 15 -85 27 -30
12 -76 28 -102 35 -28 8 -60 27 -82 48 -19 19 -44 38 -56 42 -11 3 -20 15 -20
26 0 10 -4 19 -10 19 -5 0 -10 5 -10 11 0 6 -15 24 -32 40 -46 41 -51 45 -79
59 -13 7 -26 16 -29 20 -8 12 -128 70 -143 70 -20 0 -57 35 -57 54 0 18 -16
22 -22 5 -2 -7 -15 -6 -38 4 -19 9 -50 21 -67 27 -36 14 -45 40 -13 40 11 0
20 5 20 10 0 6 -12 10 -27 10 -30 0 -133 17 -178 30 -73 20 -112 22 -129 4
-14 -13 -27 -15 -69 -10 -29 4 -106 10 -171 13 -127 5 -146 12 -146 56 0 18
-9 28 -40 42 -26 12 -40 25 -40 37 0 10 5 18 10 18 6 0 10 5 10 10 0 21 48 59
119 94 39 20 77 36 86 36 9 0 15 9 15 23 0 12 9 29 20 37 11 8 20 22 20 31 0
9 14 22 30 29 17 7 30 16 30 21 0 4 9 11 20 14 11 3 20 13 20 21 0 8 5 14 10
14 6 0 10 38 10 95 0 57 4 95 10 95 6 0 10 13 10 29 0 29 -12 38 -77 56 -61
17 22 86 84 70 44 -11 82 -7 99 10 9 8 27 15 40 15 29 0 63 16 84 40 8 9 26
23 39 30 14 7 30 17 35 22 6 4 22 18 36 29 22 18 33 20 87 15 50 -5 71 -2 107
14 25 11 66 29 91 40 25 11 52 20 60 20 8 0 15 4 15 9 0 5 9 13 20 16 11 3 20
13 20 21 0 8 7 14 16 14 9 0 24 8 33 18 24 28 60 45 111 53 25 4 77 19 115 33
39 14 78 25 87 26 9 0 23 6 30 14 8 7 29 21 47 31 19 9 44 27 57 39 35 32 48
42 74 56 13 7 33 21 44 31 85 77 106 99 106 113 0 9 5 16 10 16 6 0 10 9 10
20 0 11 5 20 10 20 6 0 10 7 10 15 0 8 5 15 10 15 6 0 10 6 10 13 0 6 14 23
31 37 64 53 89 78 89 89 0 6 5 11 10 11 6 0 10 6 10 14 0 8 6 17 13 19 10 4
10 6 0 6 -15 1 -18 41 -3 41 6 0 10 16 10 35 0 19 -4 35 -10 35 -5 0 -10 10
-10 23 0 12 -9 29 -20 37 -11 8 -20 20 -20 27 0 7 -4 13 -10 13 -14 0 -12 38
3 43 8 3 5 11 -10 24 -13 11 -23 26 -23 32 0 28 -48 58 -120 75 -41 9 -88 21
-105 26 -32 9 -282 26 -326 22 -29 -3 -69 27 -69 52 0 10 -6 24 -14 32 -17 17
-63 19 -68 2 -6 -16 -58 -1 -58 17 0 8 -5 15 -12 15 -6 0 -1 9 12 20 13 11 27
20 32 20 4 0 8 6 8 14 0 8 6 17 13 19 9 4 8 8 -3 16 -43 30 -50 37 -50 50 0
18 37 50 67 57 13 4 42 4 64 0 29 -5 49 -1 77 13 21 11 55 22 75 26 33 6 37
11 37 36 0 16 -4 29 -10 29 -5 0 -10 20 -10 45 0 25 5 45 10 45 6 0 10 16 10
35 0 19 -4 35 -10 35 -5 0 -10 18 -10 40 0 22 5 40 10 40 6 0 10 25 10 55 0
30 -4 55 -10 55 -5 0 -10 11 -10 25 0 14 -4 25 -10 25 -6 0 -10 49 -10 126 l0
125 -60 59 c-33 32 -60 64 -60 69 0 6 -4 11 -10 11 -5 0 -10 14 -10 30 0 17
-4 30 -10 30 -5 0 -10 7 -10 15 0 8 -4 15 -10 15 -5 0 -10 7 -10 15 0 8 -4 15
-10 15 -5 0 -10 16 -10 35 0 19 -4 35 -10 35 -5 0 -10 9 -10 20 0 11 -4 20
-10 20 -5 0 -10 7 -10 15 0 8 -4 15 -10 15 -5 0 -10 12 -10 26 0 16 -12 37
-30 54 -16 15 -30 32 -30 37 0 8 -144 80 -237 119 -24 9 -43 20 -43 24 0 27
-141 40 -205 18z"/>
</g>
</svg>
