<?xml version="1.0" standalone="no"?>
<!DOCTYPE svg PUBLIC "-//W3C//DTD SVG 20010904//EN"
 "http://www.w3.org/TR/2001/REC-SVG-20010904/DTD/svg10.dtd">
<svg version="1.0" xmlns="http://www.w3.org/2000/svg"
 width="3506.000000pt" height="3950.000000pt" viewBox="0 0 3506.000000 3950.000000"
 preserveAspectRatio="xMidYMid meet">
<metadata>
Created by potrace 1.15, written by Peter Selinger 2001-2017
</metadata>
<g transform="translate(0.000000,3950.000000) scale(0.100000,-0.100000)"
fill="#ffffff" stroke="000000" stroke-width="0.01">
<path fill="#ffffff" stroke="000000" stroke-width="0.01" d="M0 19750 l0 -19750 17530 0 17530 0 0
19750 0 19750 -17530 0 -17530 0 0 -19750z"/>
<path fill="#ffffff" stroke="000000" stroke-width="0.01" d="M26514 11007 c31 -32 46 -60 46 -91 0
-22 4 -26 30 -26 17 0 30 5 30 10 0 6 7 10 15 10 8 0 15 5 15 10 0 6 9 10 20
10 11 0 20 6 21 13 0 10 2 10 6 0 2 -7 13 -13 24 -13 11 0 34 -15 52 -32 29
-30 32 -39 34 -94 0 -34 6 -70 11 -80 10 -19 7 -40 -17 -144 -12 -52 -32 -90
-48 -90 -7 0 -13 -8 -13 -18 0 -11 -9 -29 -20 -42 -11 -12 -22 -31 -25 -41 -4
-11 -11 -19 -16 -19 -5 0 -9 -9 -9 -20 0 -11 -7 -20 -15 -20 -8 0 -15 -9 -15
-20 0 -11 -4 -20 -9 -20 -5 0 -13 -9 -16 -20 -3 -11 -13 -20 -21 -20 -9 0 -14
-11 -14 -30 0 -16 -4 -30 -10 -30 -5 0 -10 -8 -10 -18 0 -11 -9 -29 -20 -42
-11 -13 -20 -27 -20 -32 0 -4 -7 -8 -15 -8 -8 0 -15 -4 -15 -10 0 -5 -5 -10
-11 -10 -13 0 -49 -38 -49 -52 0 -4 -5 -8 -11 -8 -17 0 -35 -23 -43 -53 -5
-20 -12 -27 -31 -27 -14 0 -25 5 -25 10 0 14 -27 12 -33 -2 -4 -13 -47 26 -47
44 0 4 -9 8 -20 8 -13 0 -20 7 -20 19 0 11 -7 26 -15 35 -8 8 -15 21 -15 30 0
8 -6 21 -12 28 -15 16 -34 64 -55 137 -11 43 -12 67 -4 115 12 67 7 96 -29
166 -51 99 -64 210 -30 251 11 13 23 29 28 34 5 6 12 23 16 38 5 20 13 27 31
27 14 0 25 5 25 10 0 6 55 10 144 10 127 0 145 2 151 17 3 10 1 19 -4 21 -17
6 -13 56 7 80 22 28 47 28 76 -1z"/>
<path fill="#ffffff" stroke="000000" stroke-width="0.01" d="M25470 10980 c0 -5 16 -10 35 -10 19 0
35 -4 35 -10 0 -5 11 -10 25 -10 14 0 25 -4 25 -10 0 -5 6 -10 13 -10 7 0 19
-9 27 -20 8 -11 20 -20 27 -20 7 0 13 -6 14 -12 0 -10 2 -10 6 0 6 14 53 17
53 2 0 -5 11 -10 24 -10 13 0 27 -6 29 -12 4 -10 8 -9 16 2 7 10 11 11 11 3 0
-7 5 -13 11 -13 13 0 32 -19 47 -46 8 -16 8 -31 1 -55 -6 -19 -12 -45 -14 -59
-8 -53 -22 -106 -34 -128 -6 -12 -10 -26 -7 -31 3 -4 1 -24 -4 -43 -12 -42
-50 -89 -57 -70 -6 14 -33 16 -33 2 0 -17 -25 -11 -40 10 -8 11 -20 20 -27 20
-7 0 -13 5 -13 12 0 6 -9 1 -20 -12 -11 -13 -20 -18 -20 -12 0 7 -11 12 -25
12 -14 0 -25 5 -25 10 0 6 -11 10 -25 10 -14 0 -25 -4 -25 -10 0 -6 -26 -10
-58 -10 -46 0 -60 4 -72 20 -8 11 -24 20 -35 20 -11 0 -27 9 -35 20 -8 11 -20
20 -27 20 -7 0 -13 5 -13 10 0 6 -7 10 -15 10 -8 0 -15 5 -15 10 0 6 14 10 30
10 17 0 30 5 30 10 0 6 10 10 21 10 35 0 59 37 59 89 0 35 -5 50 -20 61 -11 8
-20 22 -20 32 0 10 -4 18 -9 18 -12 0 -19 70 -10 103 8 30 31 57 48 57 6 0 11
5 11 10 0 6 9 10 20 10 11 0 20 5 20 10 0 6 14 10 30 10 17 0 30 -4 30 -10z"/>
<path fill="#ffffff" stroke="000000" stroke-width="0.01" d="M27870 10260 c0 -5 14 -10 30 -10 17 0
30 5 30 10 0 6 11 10 25 10 14 0 25 -6 25 -12 0 -9 4 -8 11 2 8 11 12 12 16 3
2 -7 13 -13 24 -13 10 0 19 -4 19 -10 0 -5 11 -10 25 -10 14 0 25 -4 25 -10 0
-5 10 -10 23 -10 12 0 29 -9 37 -20 8 -11 18 -20 23 -20 5 0 26 -18 47 -40 21
-22 45 -40 52 -40 7 0 20 -9 28 -20 8 -11 20 -20 27 -20 7 0 13 -4 13 -10 0
-5 5 -10 10 -10 6 0 42 -31 80 -70 67 -68 70 -70 120 -70 27 0 50 5 50 10 0 6
23 10 50 10 28 0 50 -4 50 -10 0 -5 7 -10 15 -10 8 0 15 -4 15 -10 0 -5 9 -10
19 -10 11 0 23 -9 26 -20 3 -11 13 -20 21 -20 8 0 14 -4 14 -10 0 -5 7 -10 15
-10 8 0 15 -4 15 -10 0 -5 18 -10 40 -10 22 0 40 -4 40 -10 0 -5 16 -10 35
-10 19 0 35 -4 35 -10 0 -5 14 -10 30 -10 17 0 30 -4 30 -10 0 -5 9 -10 20
-10 11 0 20 -4 20 -10 0 -5 5 -10 11 -10 16 0 39 -26 39 -44 0 -23 17 -20 25
4 7 21 25 28 25 10 0 -6 45 -10 116 -10 l115 0 49 -50 c27 -27 54 -50 60 -50
6 0 33 -22 60 -50 47 -48 70 -61 70 -40 0 6 14 10 30 10 17 0 30 -4 30 -10 0
-5 7 -10 15 -10 8 0 15 -4 15 -10 0 -5 16 -10 35 -10 19 0 35 -4 35 -10 0 -5
16 -10 35 -10 19 0 35 -4 35 -10 0 -5 7 -10 15 -10 8 0 15 -4 15 -10 0 -5 5
-10 10 -10 6 0 27 -16 46 -36 33 -32 49 -69 71 -161 3 -13 11 -23 18 -23 14 0
25 -22 25 -52 0 -11 18 -37 40 -58 44 -42 48 -50 25 -50 -8 0 -15 -4 -15 -10
0 -5 5 -10 10 -10 6 0 10 -9 10 -20 0 -15 7 -20 29 -20 21 0 32 -6 36 -20 3
-11 13 -20 21 -20 8 0 14 -4 14 -10 0 -5 20 -10 45 -10 25 0 45 -4 45 -10 0
-5 9 -10 20 -10 11 0 20 -4 20 -10 0 -5 7 -10 15 -10 8 0 15 -4 15 -10 0 -5 5
-10 11 -10 17 0 35 -23 64 -80 26 -51 28 -64 30 -195 2 -112 -1 -151 -16 -197
-10 -32 -21 -73 -25 -93 -3 -19 -10 -35 -15 -35 -5 0 -9 -9 -9 -20 0 -15 -7
-20 -26 -20 -35 0 -56 -24 -53 -63 5 -73 -2 -115 -21 -137 -11 -13 -20 -27
-20 -32 0 -4 -13 -8 -30 -8 -23 0 -30 -4 -30 -20 0 -13 -7 -20 -20 -20 -11 0
-20 -4 -20 -10 0 -15 70 -12 70 3 0 6 5 4 11 -6 5 -9 8 -21 5 -25 -7 -12 22
-91 39 -109 8 -8 15 -27 15 -43 0 -16 7 -35 15 -44 8 -8 15 -22 15 -30 0 -9 5
-16 10 -16 6 0 10 -9 10 -19 0 -11 5 -21 11 -23 8 -3 4 -18 -10 -46 -19 -38
-20 -44 -7 -57 8 -8 22 -15 30 -15 9 0 16 -4 16 -10 0 -5 9 -10 20 -10 11 0
20 -6 20 -14 0 -25 -12 -46 -26 -46 -8 0 -14 -9 -14 -20 0 -11 5 -20 11 -20 6
0 8 -7 5 -15 -3 -8 -9 -22 -12 -30 -4 -11 0 -15 15 -15 12 0 21 -4 21 -10 0
-5 8 -10 18 -10 10 0 24 -9 32 -20 8 -11 20 -20 27 -20 7 0 13 -4 13 -10 0 -5
7 -10 15 -10 8 0 15 -4 15 -8 0 -5 9 -19 20 -32 41 -47 52 -161 26 -255 -41
-142 -75 -205 -110 -205 -9 0 -16 -4 -16 -10 0 -5 -14 -10 -31 -10 -22 0 -40
-9 -59 -30 -28 -30 -50 -39 -50 -20 0 6 -7 10 -15 10 -8 0 -15 -4 -15 -10 0
-5 -7 -10 -15 -10 -19 0 -32 -50 -15 -60 8 -5 10 -17 6 -34 -6 -24 -4 -26 30
-26 34 0 74 -27 74 -50 0 -5 14 -22 30 -40 35 -38 34 -33 14 -72 -26 -51 -35
-91 -23 -99 16 -10 2 -59 -16 -59 -8 0 -15 -4 -15 -10 0 -5 -7 -10 -15 -10
-24 0 -106 -87 -99 -105 4 -10 0 -15 -15 -15 -12 0 -21 -4 -21 -10 0 -6 -26
-10 -58 -10 -46 0 -60 -4 -72 -20 -8 -11 -22 -20 -32 -20 -12 0 -18 -8 -18
-24 0 -44 -10 -56 -46 -56 -19 0 -34 -4 -34 -10 0 -5 -9 -10 -20 -10 -11 0
-20 -4 -20 -10 0 -5 -6 -10 -14 -10 -8 0 -18 -9 -21 -20 -4 -13 -15 -20 -31
-20 -13 0 -24 -4 -24 -10 0 -5 -9 -10 -20 -10 -11 0 -20 -4 -20 -10 0 -5 -11
-10 -25 -10 -14 0 -25 -4 -25 -10 0 -6 -32 -10 -75 -10 -43 0 -75 4 -75 10 0
6 -16 10 -35 10 -19 0 -35 5 -35 10 0 6 -18 10 -40 10 -22 0 -40 5 -40 11 0 6
-8 3 -17 -7 -13 -13 -14 -19 -5 -22 6 -2 12 -10 12 -18 0 -17 64 -84 80 -84
17 0 12 -26 -17 -85 -24 -48 -31 -55 -56 -55 -35 0 -59 -23 -63 -58 -12 -121
-17 -152 -31 -184 -18 -43 -32 -47 -53 -18 -15 20 -60 28 -60 10 0 -19 -53
-10 -73 13 -13 15 -21 18 -24 10 -3 -7 -11 -13 -19 -13 -8 0 -14 -4 -14 -10 0
-5 -7 -10 -15 -10 -8 0 -15 -4 -15 -10 0 -5 -7 -10 -15 -10 -8 0 -15 -4 -15
-10 0 -5 -13 -10 -30 -10 -16 0 -30 -4 -30 -10 0 -5 -22 -10 -50 -10 -27 0
-50 -4 -50 -10 0 -6 -30 -10 -69 -10 -46 0 -71 -4 -75 -12 -5 -10 -7 -10 -12
0 -7 14 -34 16 -34 2 0 -5 -7 -10 -15 -10 -8 0 -15 -4 -15 -10 0 -5 -7 -10
-15 -10 -8 0 -15 5 -15 10 0 6 -11 10 -25 10 -14 0 -25 5 -25 10 0 6 -11 10
-25 10 -14 0 -25 5 -25 10 0 6 -7 10 -16 10 -14 0 -37 22 -112 106 -11 11 -22
32 -25 46 -4 15 -13 33 -21 40 -7 8 -24 34 -36 58 -22 43 -43 70 -55 70 -15 0
-56 53 -71 92 -33 92 -37 116 -21 133 9 8 18 15 22 15 10 0 30 22 43 47 7 12
12 58 12 102 0 79 21 151 43 151 8 0 43 35 76 76 12 14 -13 130 -32 149 -9 8
-19 24 -22 35 -3 11 -13 20 -21 20 -8 0 -14 5 -14 10 0 6 -7 10 -15 10 -8 0
-15 5 -15 10 0 23 -18 8 -23 -20 -5 -21 -12 -30 -27 -30 -11 0 -20 -4 -20 -10
0 -5 -31 -41 -70 -80 -38 -39 -70 -75 -70 -80 0 -6 -16 -10 -35 -10 -28 0 -35
-4 -35 -20 0 -11 -6 -20 -13 -20 -7 0 -19 -9 -27 -20 -8 -11 -20 -20 -27 -20
-8 0 -16 -13 -19 -30 -5 -23 -12 -30 -30 -30 -13 0 -24 -4 -24 -9 0 -5 -18
-28 -40 -51 -22 -23 -40 -48 -40 -55 0 -8 -5 -26 -12 -40 -14 -30 -54 -34 -63
-6 -7 23 -39 61 -52 61 -5 0 -24 32 -43 70 -19 39 -37 70 -40 70 -4 0 -15 18
-25 40 -10 22 -22 40 -26 40 -4 0 -11 9 -14 20 -3 11 -12 20 -19 20 -14 0 -66
102 -66 131 0 12 13 33 30 49 56 52 49 140 -10 140 -12 0 -36 15 -53 33 -19
20 -32 27 -34 20 -5 -15 -33 -17 -33 -3 0 6 -16 10 -35 10 -19 0 -35 2 -35 4
0 2 -3 11 -6 20 -5 13 1 16 30 16 29 0 36 4 36 20 0 11 7 20 15 20 8 0 15 5
15 10 0 6 9 10 20 10 11 0 20 5 20 10 0 6 7 10 16 10 9 0 29 14 44 30 15 17
33 30 39 30 13 0 13 3 5 24 -3 9 -12 16 -20 16 -8 0 -14 5 -14 10 0 6 5 10 11
10 6 0 17 7 25 15 13 13 12 18 -10 40 -14 14 -30 25 -36 25 -5 0 -10 5 -10 10
0 6 -9 10 -19 10 -11 0 -23 9 -26 20 -3 11 -10 20 -14 20 -7 0 -31 43 -31 55
0 3 6 5 14 5 8 0 17 6 20 13 5 10 7 10 12 0 7 -15 44 -17 44 -3 0 6 37 10 90
10 53 0 90 4 90 10 0 6 32 10 75 10 73 0 75 1 75 24 0 37 -10 56 -31 56 -10 0
-19 5 -19 10 0 6 -11 10 -25 10 -14 0 -25 5 -25 10 0 6 -5 10 -11 10 -16 0
-39 26 -39 44 0 9 -4 16 -9 16 -5 0 -14 14 -21 30 -7 17 -17 30 -22 30 -6 0
-8 12 -5 27 5 28 -12 53 -36 53 -8 0 -20 14 -27 30 -7 17 -16 30 -21 30 -5 0
-9 9 -9 20 0 11 -6 20 -13 20 -17 0 -55 81 -67 145 -11 56 -20 282 -13 302 3
7 11 13 19 13 8 0 14 9 14 19 0 11 6 26 13 33 13 14 36 68 44 106 3 12 9 22
13 22 15 0 17 75 4 102 -17 34 -17 38 0 38 8 0 18 9 21 20 3 11 10 20 14 20 5
0 6 20 4 44 -4 30 -1 50 8 60 44 49 47 56 23 56 -11 0 -14 6 -9 20 5 15 2 20
-12 20 -17 0 -19 8 -17 88 1 51 -4 103 -12 127 -8 22 -14 59 -14 83 0 23 -4
42 -10 42 -5 0 -9 8 -8 18 3 40 -3 62 -17 62 -8 0 -15 2 -15 4 0 2 -3 11 -6
20 -4 11 -1 16 11 16 9 0 23 7 31 15 13 13 12 19 -6 54 -24 48 -26 71 -5 71
17 0 19 12 5 54 -5 17 -12 43 -15 59 -3 16 -12 27 -21 27 -11 0 -14 5 -9 18
15 36 18 54 8 61 -15 10 -45 115 -33 119 18 6 11 22 -10 22 -16 0 -20 7 -20
36 0 19 -5 45 -12 57 -10 19 -16 69 -20 167 -3 73 5 240 12 240 4 0 10 12 13
28 10 51 39 72 96 72 28 0 51 5 51 10 0 6 11 10 24 10 15 0 27 7 31 19 9 28
40 61 59 61 9 0 16 5 16 10 0 6 6 10 14 10 8 0 17 8 21 19 11 36 41 61 74 61
17 0 31 5 31 10 0 6 9 10 20 10 11 0 20 -4 20 -10z"/>
<path fill="#ffffff" stroke="000000" stroke-width="0.01" d="M25881 7248 c21 -24 22 -25 23 -90 1
-27 -2 -48 -7 -48 -4 0 -4 -12 -1 -27 7 -27 105 -133 123 -133 5 0 13 -9 16
-20 3 -11 11 -20 17 -20 12 0 48 -39 48 -52 0 -4 -13 -8 -29 -8 -16 0 -32 -6
-34 -12 -4 -10 -8 -9 -17 2 -9 11 -13 12 -17 3 -2 -7 -12 -13 -22 -13 -9 0
-23 -9 -31 -20 -8 -11 -25 -20 -37 -20 -13 0 -23 -4 -23 -10 0 -6 -27 -10 -60
-10 -33 0 -60 4 -60 10 0 6 -6 10 -13 10 -7 0 -19 9 -27 20 -8 11 -19 20 -26
20 -6 0 -19 18 -29 40 -10 22 -21 40 -25 40 -8 0 -27 40 -46 100 -28 86 -36
100 -55 100 -21 0 -22 1 -13 24 7 17 54 22 54 6 0 -5 7 -10 15 -10 8 0 15 5
15 10 0 6 25 10 55 10 30 0 55 -4 55 -10 0 -24 28 -7 34 20 4 22 11 30 27 30
16 0 19 4 14 18 -4 9 -10 27 -12 40 -5 20 -1 22 32 22 26 0 43 -7 56 -22z"/>
<path fill="#ffffff" stroke="000000" stroke-width="0.01" d="M32550 6280 c0 -5 9 -10 20 -10 11 0
20 -4 20 -10 0 -5 10 -10 23 -10 12 0 29 -9 37 -20 8 -11 20 -20 27 -20 6 0
15 -9 18 -20 3 -11 13 -20 21 -20 8 0 14 -6 15 -12 0 -10 2 -10 6 0 2 6 20 12
39 12 19 0 34 5 34 10 0 6 11 10 25 10 14 0 25 5 25 10 0 6 11 10 25 10 14 0
25 5 25 10 0 18 45 10 60 -10 8 -11 18 -20 23 -20 13 0 53 -44 59 -65 4 -11
16 -45 28 -75 38 -94 41 -128 17 -177 -12 -24 -25 -43 -29 -43 -4 0 -8 -9 -8
-20 0 -11 -4 -20 -10 -20 -14 0 -13 -43 2 -75 6 -14 18 -25 26 -25 17 0 12
-43 -12 -109 -17 -43 -14 -69 4 -41 7 10 10 11 10 3 0 -7 9 -13 20 -13 11 0
20 6 21 13 0 10 2 10 6 0 3 -8 24 -13 54 -13 36 0 49 -4 49 -15 0 -32 23 -65
47 -65 12 0 23 -6 24 -12 0 -7 5 -3 11 10 6 12 17 22 25 22 7 0 13 5 13 10 0
6 7 10 15 10 8 0 15 5 15 10 0 19 62 11 81 -11 18 -21 18 -20 29 20 6 24 17
41 25 41 8 0 15 5 15 10 0 6 9 10 19 10 11 0 22 6 25 13 5 10 7 10 12 0 3 -7
12 -13 20 -13 8 0 14 -4 14 -10 0 -5 6 -10 13 -10 7 0 19 -9 27 -20 11 -16 26
-20 67 -20 29 0 53 -4 53 -10 0 -5 9 -10 20 -10 11 0 20 -4 20 -10 0 -5 5 -10
11 -10 21 0 49 -43 49 -74 0 -17 7 -50 15 -73 8 -23 12 -49 9 -58 -4 -10 0
-15 15 -15 12 0 21 5 21 10 0 6 4 10 9 10 12 0 28 -44 45 -125 60 -286 87
-381 116 -415 11 -12 22 -31 25 -41 8 -25 22 -24 30 1 4 13 15 20 31 20 13 0
24 5 24 10 0 6 14 10 30 10 17 0 30 -4 30 -10 0 -5 9 -10 19 -10 11 0 23 -9
26 -20 6 -20 45 -29 45 -10 0 6 11 10 25 10 14 0 25 5 25 10 0 6 11 10 25 10
14 0 25 5 25 10 0 15 19 12 38 -6 13 -14 14 -21 3 -48 -7 -17 -18 -49 -24 -71
-5 -22 -14 -42 -18 -45 -5 -3 -10 -37 -12 -76 -3 -43 -12 -85 -25 -109 -11
-22 -23 -56 -27 -75 -4 -19 -12 -38 -18 -42 -6 -4 7 -23 31 -46 30 -29 42 -49
42 -69 0 -38 -17 -95 -31 -104 -13 -7 31 -59 50 -59 19 0 29 -65 18 -114 -6
-25 -14 -46 -19 -46 -4 0 -8 -9 -8 -20 0 -11 -4 -20 -10 -20 -5 0 -10 -9 -10
-20 0 -11 5 -20 11 -20 6 0 23 -13 38 -29 27 -29 27 -30 25 -162 -1 -143 14
-248 40 -274 11 -12 15 -34 14 -88 -1 -40 4 -82 10 -94 19 -35 15 -53 -13 -53
-14 0 -25 -4 -25 -10 0 -5 -13 -10 -30 -10 -16 0 -30 -4 -30 -10 0 -5 -13 -10
-30 -10 -16 0 -30 -4 -30 -10 0 -5 -22 -10 -50 -10 -27 0 -50 -4 -50 -10 0 -5
-20 -10 -45 -10 -25 0 -45 -4 -45 -10 0 -5 -11 -10 -25 -10 -14 0 -25 -4 -25
-10 0 -6 -29 -10 -66 -10 -56 0 -70 -4 -85 -22 -11 -11 -19 -25 -19 -30 0 -4
-21 -8 -46 -8 -27 0 -43 -4 -39 -10 3 -5 -1 -10 -9 -10 -9 0 -16 -4 -16 -10 0
-5 -22 -10 -50 -10 -27 0 -50 5 -50 10 0 6 -9 10 -20 10 -11 0 -20 5 -20 10 0
6 -6 10 -14 10 -8 0 -18 9 -21 20 -3 11 -11 20 -17 20 -12 0 -48 39 -48 52 0
4 -7 8 -15 8 -8 0 -15 5 -15 10 0 6 -6 10 -14 10 -8 0 -18 9 -21 20 -6 20 -25
28 -25 11 0 -13 -56 -71 -69 -71 -6 0 -11 -4 -11 -10 0 -5 -9 -10 -20 -10 -11
0 -20 5 -20 10 0 14 -27 12 -34 -2 -5 -10 -7 -10 -12 0 -3 6 -12 12 -20 12 -8
0 -14 5 -14 10 0 6 -6 10 -14 10 -7 0 -19 14 -26 30 -7 17 -16 30 -20 30 -12
0 -18 -72 -9 -97 6 -15 5 -23 -2 -23 -6 0 -9 -9 -6 -20 5 -18 0 -20 -55 -20
-37 0 -57 -4 -53 -10 4 -6 -5 -10 -19 -10 -14 0 -26 5 -26 10 0 6 -11 10 -25
10 -14 0 -25 5 -25 10 0 6 -7 10 -15 10 -8 0 -15 5 -15 10 0 6 -7 10 -15 10
-8 0 -15 5 -15 10 0 6 -9 10 -20 10 -11 0 -20 5 -20 10 0 6 -18 10 -40 10 -22
0 -40 5 -40 10 0 6 -9 10 -20 10 -11 0 -20 5 -20 10 0 6 -6 10 -14 10 -8 0
-18 9 -21 20 -4 14 -15 20 -36 20 -16 0 -29 5 -29 10 0 6 -5 10 -11 10 -24 0
-51 44 -45 72 5 25 2 28 -20 28 -17 0 -23 -4 -18 -12 4 -7 -20 15 -54 50 -33
34 -66 62 -74 62 -7 0 -20 9 -28 20 -8 11 -19 20 -25 20 -6 0 -17 9 -25 20 -8
11 -25 20 -37 20 -13 0 -23 5 -23 10 0 6 -9 10 -20 10 -11 0 -20 5 -20 10 0 6
-7 10 -15 10 -8 0 -15 5 -15 10 0 6 -9 10 -20 10 -11 0 -20 5 -20 10 0 6 -9
10 -20 10 -11 0 -20 5 -20 10 0 6 -9 10 -20 10 -11 0 -20 -4 -20 -10 0 -5 -7
-10 -15 -10 -8 0 -15 -4 -15 -10 0 -5 -9 -10 -20 -10 -11 0 -20 5 -20 10 0 6
-7 10 -15 10 -8 0 -15 -8 -15 -18 0 -11 -9 -29 -20 -42 -11 -13 -20 -18 -20
-12 0 7 -6 12 -13 12 -7 0 -19 9 -27 20 -8 11 -18 20 -23 20 -4 0 -30 23 -57
50 -38 39 -56 50 -79 50 -17 0 -31 5 -31 10 0 6 -13 10 -30 10 -16 0 -30 5
-30 10 0 6 -7 10 -15 10 -8 0 -15 -4 -15 -10 0 -5 -13 -10 -30 -10 -16 0 -30
5 -30 10 0 6 -9 10 -20 10 -11 0 -20 5 -20 10 0 6 -7 10 -15 10 -8 0 -15 5
-15 10 0 6 -7 10 -15 10 -8 0 -15 5 -15 10 0 6 -11 10 -25 10 -14 0 -25 5 -25
10 0 6 -7 10 -15 10 -8 0 -15 -4 -15 -10 0 -5 -25 -10 -55 -10 -30 0 -55 5
-55 10 0 6 -9 10 -20 10 -11 0 -20 4 -20 8 0 5 -8 18 -17 30 -10 11 -25 30
-33 41 -8 12 -20 21 -27 21 -7 0 -13 4 -13 8 0 14 -36 52 -49 52 -17 0 -188
175 -196 200 -3 11 -10 20 -14 20 -12 0 -32 -50 -25 -61 9 -16 -5 -59 -20 -59
-7 0 -18 -10 -24 -22 -6 -13 -11 -17 -11 -10 -1 6 -8 12 -16 12 -8 0 -15 5
-15 10 0 6 -9 10 -20 10 -11 0 -20 5 -20 10 0 6 -9 10 -20 10 -11 0 -20 5 -20
10 0 6 -9 10 -20 10 -11 0 -20 5 -20 10 0 6 -7 10 -15 10 -8 0 -15 5 -15 10 0
6 -7 10 -15 10 -8 0 -15 5 -15 10 0 6 -5 10 -11 10 -12 0 -32 21 -59 60 -8 12
-23 31 -32 42 -10 12 -18 24 -19 27 0 3 -5 42 -10 86 -11 92 -12 131 -4 163 5
20 2 22 -40 22 -25 0 -45 5 -45 10 0 6 -7 10 -15 10 -8 0 -15 5 -15 10 0 6 -9
10 -20 10 -11 0 -20 5 -20 10 0 6 -7 10 -16 10 -22 0 -44 25 -44 50 0 36 43
67 52 38 3 -7 8 9 11 35 7 48 36 94 45 69 2 -6 10 -12 18 -12 8 0 14 -4 14
-10 0 -5 7 -10 15 -10 8 0 15 5 15 10 0 18 35 11 50 -10 10 -14 26 -20 51 -20
33 0 37 3 43 30 4 24 11 30 30 30 16 0 27 7 31 20 3 11 13 20 21 20 8 0 14 5
14 10 0 6 9 10 20 10 11 0 20 -4 20 -10 0 -5 9 -10 20 -10 11 0 20 -4 20 -10
0 -5 16 -10 35 -10 19 0 35 -4 35 -10 0 -5 7 -10 15 -10 8 0 15 -4 15 -10 0
-6 27 -10 60 -10 33 0 60 -4 60 -10 0 -5 10 -10 23 -10 12 0 29 -9 37 -20 8
-11 20 -20 27 -20 7 0 13 -4 13 -10 0 -5 9 -10 20 -10 11 0 20 -4 20 -10 0 -5
16 -10 36 -10 35 0 36 1 30 30 -3 17 -9 44 -12 60 -5 25 -3 30 13 30 10 0 25
-9 33 -20 8 -11 18 -20 23 -20 11 0 4 75 -11 115 -6 17 -17 51 -24 78 -7 26
-15 47 -19 47 -18 0 -20 80 -3 127 19 54 23 141 7 151 -13 9 -27 58 -29 107
-1 22 -5 66 -9 97 -5 39 -4 67 5 88 12 29 30 41 30 20 0 -5 7 -10 15 -10 8 0
15 -4 15 -10 0 -5 7 -10 15 -10 8 0 15 -4 15 -10 0 -5 9 -10 20 -10 20 0 31
28 45 118 5 32 11 42 26 42 10 0 19 5 19 10 0 6 16 10 35 10 19 0 35 5 35 10
0 6 9 10 20 10 11 0 20 4 20 9 0 5 13 23 29 40 17 18 33 41 36 52 4 10 13 19
21 19 8 0 14 5 14 10 0 6 14 10 30 10 17 0 30 5 30 10 0 18 35 11 50 -10 8
-11 20 -20 27 -20 7 0 13 -4 13 -10 0 -5 9 -10 20 -10 11 0 20 -4 20 -10 0 -5
11 -10 25 -10 14 0 25 5 25 10 0 6 14 10 30 10 17 0 30 5 30 10 0 6 18 10 40
10 22 0 40 -4 40 -10 0 -5 7 -10 15 -10 8 0 15 -4 15 -10 0 -5 9 -10 19 -10
11 0 22 -6 25 -12 3 -7 3 0 -1 15 -4 20 0 32 16 46 11 10 21 28 21 40 0 12 8
38 19 59 10 21 23 79 29 137 13 119 25 164 52 195 11 13 24 38 29 56 10 37 32
64 53 64 7 0 24 14 38 30 23 27 31 29 88 30 35 0 62 -4 62 -10z"/>
</g>
</svg>
