<?xml version="1.0" standalone="no"?>
<!DOCTYPE svg PUBLIC "-//W3C//DTD SVG 20010904//EN"
 "http://www.w3.org/TR/2001/REC-SVG-20010904/DTD/svg10.dtd">
<svg version="1.0" xmlns="http://www.w3.org/2000/svg"
 width="3950.000000pt" height="3506.000000pt" viewBox="0 0 3950.000000 3506.000000"
 preserveAspectRatio="xMidYMid meet">
<metadata>
Created by potrace 1.16, written by Peter Selinger 2001-2019
</metadata>
<g transform="translate(0.000000,3506.000000) scale(0.100000,-0.100000)"
fill="#ffffff" stroke="#000000" stroke-width="5.00">
<path d="M0 34676 l0 -383 38 -7 c63 -10 101 -7 140 13 20 10 56 21 80 25 30
4 53 17 78 41 49 49 74 45 141 -21 38 -38 39 -39 73 -19 14 8 46 14 71 15 46
0 89 24 89 49 0 6 5 11 10 11 6 0 10 6 10 13 0 7 9 19 20 27 11 8 20 20 20 28
0 20 26 42 50 42 19 0 70 40 70 55 0 12 29 35 44 35 9 0 16 5 16 10 0 7 18 8
50 4 49 -6 50 -6 50 19 0 14 6 28 13 30 6 3 -10 6 -36 6 -29 1 -54 -5 -62 -13
-18 -18 -246 -14 -287 5 -24 11 -28 18 -28 56 0 23 5 43 10 43 6 0 10 11 10
25 0 14 5 25 10 25 6 0 10 7 10 15 0 11 12 15 45 15 59 0 135 38 135 68 0 6 7
13 16 16 27 11 44 -19 44 -78 0 -31 5 -56 10 -56 6 0 10 -11 10 -25 0 -14 5
-25 10 -25 6 0 10 7 10 15 0 8 5 15 10 15 6 0 10 33 10 80 0 79 0 80 28 85 15
3 41 10 57 16 17 6 55 15 85 20 30 5 71 13 90 19 50 14 138 12 185 -5 59 -21
108 -19 125 5 12 16 26 20 77 20 75 0 113 -15 113 -44 0 -18 11 -25 63 -40 91
-28 143 -32 161 -13 9 9 16 19 16 23 0 3 10 15 22 25 31 27 79 23 193 -17 162
-57 168 -58 246 -45 52 8 75 8 91 0 13 -7 41 -9 71 -6 35 5 58 2 80 -10 20
-10 61 -16 117 -18 71 -1 94 -6 143 -30 31 -16 57 -35 57 -42 0 -7 5 -13 10
-13 6 0 10 -25 10 -55 0 -30 -4 -55 -10 -55 -5 0 -10 -7 -10 -15 0 -8 -4 -15
-10 -15 -5 0 -10 -7 -10 -15 0 -8 -4 -15 -10 -15 -5 0 -10 -7 -10 -15 0 -8 -4
-15 -10 -15 -5 0 -10 -7 -10 -15 0 -8 -4 -15 -10 -15 -5 0 -10 -7 -10 -15 0
-8 -4 -15 -10 -15 -5 0 -10 -5 -10 -11 0 -16 -39 -48 -67 -55 -27 -7 -82 -1
-140 16 -48 14 -93 7 -93 -15 0 -8 -4 -15 -10 -15 -5 0 -10 -5 -10 -11 0 -6
-13 -24 -30 -39 -16 -15 -30 -33 -30 -38 0 -12 -15 -17 -73 -27 -27 -4 -52
-19 -83 -50 -24 -25 -44 -49 -44 -55 0 -5 -4 -10 -10 -10 -5 0 -10 -9 -10 -20
0 -11 -4 -20 -10 -20 -5 0 -10 -9 -10 -20 0 -11 -4 -20 -10 -20 -5 0 -10 -9
-10 -20 0 -11 -4 -20 -10 -20 -5 0 -10 -7 -10 -15 0 -8 -4 -15 -10 -15 -5 0
-10 -6 -10 -13 0 -7 -9 -19 -20 -27 -11 -8 -20 -19 -20 -25 0 -6 -9 -17 -20
-25 -11 -8 -20 -20 -20 -27 0 -7 -4 -13 -10 -13 -16 0 -190 -178 -190 -195 0
-8 -4 -15 -10 -15 -5 0 -10 -7 -10 -16 0 -20 -17 -37 -60 -59 -19 -10 -40 -24
-48 -31 -7 -8 -20 -14 -28 -14 -16 0 -148 -64 -171 -83 -35 -30 -133 -127
-133 -132 0 -6 -35 -40 -75 -73 -54 -45 -206 -77 -320 -67 -44 4 -100 14 -124
22 -30 10 -61 13 -93 9 -47 -7 -48 -6 -48 20 0 24 50 84 70 84 5 0 31 22 59
49 35 34 51 58 51 75 0 14 5 26 10 26 6 0 10 16 10 35 0 19 -4 35 -10 35 -5 0
-10 7 -10 15 0 8 -4 15 -8 15 -5 0 -19 9 -32 20 -48 42 -203 64 -256 37 -16
-8 -55 -18 -87 -22 -31 -4 -57 -11 -57 -15 0 -4 -14 -13 -30 -20 -17 -7 -30
-18 -30 -24 0 -6 -9 -18 -20 -26 -11 -8 -20 -20 -20 -27 0 -7 -4 -13 -10 -13
-5 0 -10 -7 -10 -15 0 -8 -4 -15 -10 -15 -5 0 -10 -13 -10 -30 0 -16 -4 -30
-10 -30 -5 0 -10 -7 -10 -15 0 -8 -4 -15 -10 -15 -6 0 -10 -28 -10 -65 0 -37
-4 -65 -10 -65 -5 0 -10 -11 -10 -25 0 -14 -4 -25 -10 -25 -5 0 -10 -9 -10
-20 0 -11 -4 -20 -10 -20 -5 0 -10 -6 -10 -13 0 -7 -9 -19 -20 -27 -11 -8 -20
-20 -20 -27 0 -7 -4 -13 -8 -13 -8 0 -23 -11 -69 -50 -24 -20 -100 -40 -155
-40 l-58 0 0 -16515 0 -16515 19750 0 19750 0 0 15250 c0 13150 -2 15250 -14
15250 -8 0 -16 5 -18 11 -3 9 -10 9 -27 -1 -16 -8 -26 -9 -30 -2 -11 18 -61 2
-61 -19 0 -29 -8 -25 -65 29 -29 26 -34 27 -80 5 -25 -12 -35 -23 -35 -39 0
-14 -8 -25 -20 -29 -20 -6 -29 -45 -10 -45 6 0 10 -7 10 -15 0 -8 5 -15 10
-15 6 0 10 -18 10 -39 0 -38 1 -39 43 -47 23 -4 36 -9 29 -11 -6 -3 -12 -13
-12 -24 0 -10 -4 -19 -10 -19 -5 0 -10 -7 -10 -15 0 -8 -4 -15 -10 -15 -5 0
-10 -9 -10 -20 0 -11 5 -20 10 -20 18 0 10 -45 -10 -60 -11 -8 -20 -23 -20
-34 0 -18 -35 -56 -52 -56 -4 0 -8 -11 -8 -25 0 -14 -4 -25 -10 -25 -5 0 -10
-7 -10 -15 0 -8 5 -15 10 -15 17 0 11 -22 -12 -41 -11 -11 -16 -19 -10 -19 7
0 12 -7 12 -15 0 -8 -4 -15 -10 -15 -5 0 -10 -8 -10 -18 0 -10 -9 -24 -20 -32
-11 -8 -20 -20 -20 -27 0 -7 -4 -13 -10 -13 -5 0 -10 -7 -10 -16 0 -11 -6 -14
-20 -9 -18 6 -20 2 -20 -34 0 -37 -3 -41 -24 -41 -37 0 -56 -10 -56 -31 0 -12
-7 -19 -20 -19 -15 0 -20 -7 -20 -25 0 -14 -6 -25 -12 -25 -10 0 -10 -2 0 -9
10 -6 5 -11 -17 -21 -22 -9 -31 -19 -31 -36 0 -31 13 -30 44 1 31 31 56 24 56
-16 0 -26 -3 -29 -34 -29 -54 0 -66 -8 -66 -46 0 -19 5 -34 10 -34 15 0 12
-30 -2 -30 -7 0 -4 -6 7 -12 39 -23 45 -34 24 -49 -10 -7 -19 -19 -19 -27 0
-7 -7 -21 -16 -29 -13 -13 -32 -15 -110 -10 -89 6 -94 5 -94 -13 0 -11 -4 -20
-10 -20 -5 0 -10 -9 -10 -20 0 -11 -4 -20 -10 -20 -5 0 -10 -9 -10 -20 0 -30
-67 -44 -205 -45 -120 0 -157 -9 -202 -49 -51 -45 -73 -55 -133 -61 -28 -3
-63 -12 -78 -20 -27 -16 -27 -16 -2 -10 14 4 33 9 42 11 10 3 34 1 54 -5 43
-12 82 4 126 51 39 42 125 50 189 18 24 -13 46 -26 49 -30 14 -20 75 -40 127
-41 87 -2 93 -5 93 -46 0 -34 -28 -73 -52 -73 -4 0 -8 -6 -8 -14 0 -7 -13 -19
-30 -26 -17 -7 -30 -16 -30 -19 0 -19 -229 -101 -280 -101 -38 0 -80 20 -80
37 0 7 5 13 10 13 6 0 10 7 10 15 0 8 5 15 10 15 6 0 10 6 10 13 0 7 9 19 20
27 11 8 20 20 20 27 0 7 5 13 10 13 6 0 10 9 10 20 0 30 -26 24 -64 -12 -18
-18 -43 -40 -55 -48 -14 -10 -21 -25 -21 -47 0 -18 -4 -33 -10 -33 -5 0 -10
-8 -10 -19 0 -11 -12 -23 -30 -31 -18 -8 -30 -20 -30 -31 0 -11 -4 -19 -9 -19
-5 0 -23 -13 -40 -29 -31 -29 -40 -51 -21 -51 6 0 10 -7 10 -15 0 -8 5 -15 10
-15 6 0 10 -9 10 -20 0 -11 5 -20 10 -20 24 0 8 -38 -20 -50 -17 -7 -30 -16
-30 -21 0 -4 -10 -11 -21 -14 -17 -6 -19 -9 -8 -17 11 -7 11 -11 2 -15 -7 -2
-13 -9 -13 -15 0 -16 -23 -34 -53 -42 -16 -4 -27 -13 -27 -24 0 -10 -9 -24
-20 -32 -11 -8 -20 -20 -20 -27 0 -6 -9 -15 -20 -18 -11 -3 -20 -13 -20 -21 0
-8 -4 -14 -8 -14 -9 0 -44 -26 -77 -57 -13 -13 -31 -23 -40 -23 -8 0 -15 -7
-15 -15 0 -8 -4 -15 -9 -15 -5 0 -16 -6 -23 -14 -8 -7 -29 -21 -48 -31 -19
-10 -47 -31 -61 -46 -15 -16 -32 -29 -38 -29 -7 0 -23 -11 -37 -25 -14 -14
-39 -28 -55 -32 -16 -3 -29 -9 -29 -13 0 -4 -14 -13 -30 -20 -30 -12 -30 -13
-10 -30 19 -17 19 -17 -23 -23 -72 -11 -116 -27 -142 -52 -13 -14 -35 -25 -48
-25 -13 0 -34 -9 -47 -20 -13 -11 -31 -20 -42 -20 -10 0 -18 -7 -18 -15 0 -8
-9 -15 -20 -15 -11 0 -20 -4 -20 -9 0 -5 -13 -14 -30 -21 -16 -7 -30 -16 -30
-21 0 -5 -7 -9 -15 -9 -9 0 -38 -11 -65 -25 -27 -14 -56 -25 -65 -25 -8 0 -15
-4 -15 -9 0 -5 -10 -11 -22 -14 -13 -3 -48 -15 -78 -26 -135 -53 -200 -71
-259 -71 -34 0 -61 4 -61 10 0 5 -24 12 -52 16 -46 6 -50 8 -30 17 12 6 22 18
22 29 0 10 5 18 10 18 6 0 10 9 10 20 0 11 5 20 10 20 6 0 10 6 10 14 0 8 9
18 20 21 35 11 25 42 -16 50 -38 7 -64 25 -64 44 0 6 5 11 10 11 6 0 10 7 10
16 0 14 -8 15 -57 9 -32 -4 -70 -13 -85 -21 -35 -18 -58 -18 -58 1 0 8 5 15
10 15 6 0 10 12 10 26 0 29 25 55 70 74 17 7 30 18 30 25 0 6 23 22 50 35 28
13 50 30 50 37 0 15 23 43 35 43 9 0 85 78 85 86 0 10 41 43 61 49 11 4 19 11
19 16 0 5 9 9 20 9 11 0 20 4 20 9 0 5 14 14 30 21 17 7 30 18 30 25 0 8 6 16
12 19 11 5 11 7 1 12 -7 3 -13 21 -13 40 0 19 -4 34 -10 34 -5 0 -10 -4 -10
-8 0 -15 -45 -30 -76 -26 -16 2 -23 1 -16 -2 20 -9 14 -26 -8 -19 -26 8 -60
-3 -60 -20 0 -7 -7 -16 -16 -19 -22 -8 -24 -8 -24 9 0 11 -8 13 -30 9 -23 -5
-30 -3 -30 10 0 9 -4 16 -10 16 -5 0 -10 9 -10 20 0 11 -4 20 -9 20 -5 0 -17
7 -25 15 -12 12 -20 13 -35 6 -11 -6 -27 -8 -35 -5 -19 7 -21 40 -3 47 10 4
10 6 0 6 -9 1 -13 23 -13 76 0 43 -4 75 -10 75 -5 0 -10 11 -10 25 0 14 5 25
10 25 6 0 10 9 10 20 0 11 -4 20 -10 20 -5 0 -10 11 -10 25 0 14 5 25 10 25 6
0 10 6 10 14 0 7 14 19 30 26 21 9 30 19 30 36 0 13 5 24 10 24 6 0 10 14 10
30 0 17 5 30 10 30 6 0 10 8 10 18 0 11 10 24 23 30 20 10 19 11 -15 11 -58 1
-68 9 -68 52 0 21 5 39 10 39 6 0 10 20 10 44 0 41 2 44 33 51 17 4 26 9 20
12 -15 6 -18 63 -3 63 6 0 10 7 10 15 0 8 5 15 10 15 6 0 10 11 10 24 0 26 20
39 45 30 9 -4 15 0 15 9 0 8 14 20 30 27 17 7 30 16 30 20 0 4 18 15 40 25 22
10 40 21 40 25 0 3 27 19 60 35 33 16 60 32 60 37 0 4 9 8 20 8 11 0 20 4 20
8 0 5 27 21 60 37 33 16 60 32 60 37 0 4 7 8 15 8 9 0 27 11 40 24 13 14 34
27 45 31 11 3 20 10 20 14 0 4 36 25 80 46 44 21 80 43 80 47 0 12 -68 10 -91
-2 -13 -7 -25 -8 -37 -1 -12 7 -13 10 -3 11 10 0 7 6 -7 19 -24 20 -30 66 -10
74 10 4 9 8 -2 17 -11 9 -12 13 -2 17 6 2 12 16 12 29 0 13 5 24 10 24 6 0 10
10 10 23 0 12 9 29 20 37 11 8 20 19 20 25 0 6 9 17 20 25 11 8 20 20 20 27 0
7 5 13 10 13 6 0 10 7 10 15 0 8 5 15 10 15 6 0 10 6 10 14 0 8 9 18 20 21 11
3 20 13 20 21 0 16 135 154 150 154 6 0 10 6 10 14 0 7 13 19 30 26 17 7 30
19 30 26 0 8 4 14 8 14 5 0 19 9 32 20 13 11 29 20 37 20 15 0 43 23 43 35 0
6 32 37 76 74 7 6 18 11 24 11 6 0 22 10 35 23 33 31 68 57 77 57 4 0 8 6 8
14 0 8 9 17 19 21 25 7 81 59 81 74 0 5 16 14 35 20 34 9 85 51 85 71 0 5 4
10 8 10 8 0 19 8 68 48 5 5 21 15 35 22 13 7 26 16 29 20 11 16 111 60 137 61
l28 1 -28 8 c-28 8 -125 -14 -137 -31 -3 -4 -22 -10 -43 -14 -21 -4 -45 -14
-53 -22 -13 -13 -21 -13 -59 -2 -40 12 -61 29 -35 29 6 0 10 7 10 15 0 8 5 15
10 15 6 0 10 11 10 25 0 14 5 25 10 25 6 0 10 11 10 25 0 14 5 25 10 25 6 0
10 9 10 20 0 11 5 20 10 20 6 0 10 7 10 15 0 8 4 15 8 15 5 0 20 9 33 21 19
17 21 22 9 29 -8 6 -18 10 -22 10 -12 0 -9 30 2 30 6 0 10 9 10 20 0 13 7 20
20 20 16 0 20 7 20 30 0 17 5 30 10 30 6 0 10 7 10 15 0 8 5 15 10 15 6 0 10
7 10 15 0 8 5 15 10 15 6 0 10 11 10 25 0 14 4 25 9 25 5 0 23 13 40 29 31 29
40 51 21 51 -18 0 -10 29 10 35 13 4 20 15 20 30 0 15 7 26 20 30 11 3 20 13
20 21 0 8 5 14 10 14 6 0 10 7 10 15 0 8 9 15 20 15 16 0 20 7 20 30 0 17 -5
30 -12 30 -6 0 -1 8 10 19 13 10 22 30 22 45 0 28 20 56 40 56 6 0 18 6 26 14
11 11 11 16 1 20 -9 5 -9 7 1 12 6 3 12 12 12 20 0 8 5 14 10 14 6 0 10 9 10
20 0 11 -6 20 -12 20 -9 0 -8 3 2 9 8 6 27 7 42 4 27 -5 28 -4 28 31 0 20 -4
36 -10 36 -5 0 -10 20 -10 45 0 38 3 45 20 45 16 0 20 7 20 35 0 19 5 35 10
35 6 0 10 9 10 19 0 19 21 33 43 27 6 -1 9 -1 5 1 -19 11 -5 25 19 20 33 -6
53 1 53 19 0 9 11 14 29 14 16 0 37 7 45 16 9 8 20 13 26 9 5 -3 20 0 32 7 13
7 63 13 113 14 56 1 122 9 175 23 50 14 97 20 115 17 16 -4 62 -1 102 5 62 10
74 9 87 -4 9 -9 16 -23 16 -32 0 -12 6 -15 20 -10 12 4 20 2 20 -5 0 -6 18
-29 41 -51 41 -40 108 -66 138 -53 12 5 9 9 -15 14 -48 11 -104 72 -104 113 0
25 -6 37 -22 45 -13 6 -17 11 -10 11 6 1 12 8 12 16 0 8 5 15 10 15 6 0 10 7
10 15 0 8 5 15 10 15 6 0 10 14 10 30 0 17 5 30 10 30 6 0 10 27 10 60 0 57
-1 60 -27 66 -31 8 -53 27 -53 44 0 17 -26 40 -44 40 -9 0 -16 4 -16 9 0 5
-13 14 -30 21 -16 7 -30 19 -30 26 0 8 -7 14 -15 14 -9 0 -35 19 -58 43 -23
23 -62 51 -85 61 -32 15 -42 25 -42 43 0 12 -4 23 -10 23 -5 0 -10 6 -10 14 0
8 -9 18 -20 21 -11 3 -20 12 -20 20 0 16 -33 30 -38 16 -2 -6 -8 -11 -13 -11
-5 0 -9 47 -9 105 0 77 3 105 13 105 8 0 7 4 -3 10 -21 14 -30 12 -30 -5 0 -8
-4 -15 -10 -15 -5 0 -10 -22 -10 -50 0 -27 -4 -50 -10 -50 -5 0 -10 -9 -10
-20 0 -22 -20 -26 -52 -9 -24 13 -68 55 -68 64 0 12 -26 33 -68 54 -52 26
-112 21 -112 -10 0 -11 5 -19 10 -19 23 0 9 -38 -17 -48 -76 -29 -73 -31 -73
52 0 68 11 98 23 64 2 -8 8 -9 13 -4 5 5 4 11 -4 13 -7 3 -12 23 -12 49 0 24
-4 44 -10 44 -5 0 -10 13 -10 29 0 16 -6 32 -12 34 -10 4 -9 8 2 17 11 9 12
13 3 17 -7 2 -13 13 -13 23 0 10 6 21 13 24 10 5 10 7 -1 12 -7 3 -12 24 -12
50 0 24 -4 44 -10 44 -15 0 -12 57 3 63 9 4 9 6 0 6 -9 1 -13 20 -13 61 0 33
-4 60 -10 60 -5 0 -10 18 -10 40 0 22 5 40 10 40 6 0 10 14 10 30 0 17 5 30
10 30 6 0 10 11 10 25 0 14 5 25 10 25 6 0 10 7 10 15 0 8 4 15 9 15 5 0 16 7
25 15 8 9 32 17 53 19 21 2 50 9 63 17 16 9 61 14 130 15 89 1 234 19 331 40
17 4 32 0 43 -12 10 -9 33 -18 51 -20 19 -1 44 -5 57 -9 17 -5 19 -4 8 4 -22
15 -5 24 20 11 28 -15 144 -4 163 14 7 7 30 17 52 22 l40 10 3 497 2 497
-5099 0 c-2805 0 -5106 -3 -5115 -6 -18 -7 -23 -64 -6 -64 6 0 10 -11 10 -25
0 -14 -4 -25 -10 -25 -5 0 -10 -20 -10 -45 0 -25 -4 -45 -10 -45 -5 0 -10 -6
-10 -14 0 -8 -9 -18 -20 -21 -11 -3 -20 -10 -20 -14 0 -5 -13 -14 -30 -21 -16
-7 -30 -16 -30 -20 0 -12 -138 -34 -190 -31 -65 4 -110 32 -110 67 0 19 -36
54 -57 54 -8 0 -25 11 -39 25 -14 14 -29 25 -34 25 -6 0 -10 7 -10 15 0 8 -4
15 -10 15 -5 0 -10 9 -10 19 0 11 -6 22 -12 25 -10 5 -10 7 0 12 19 9 14 24
-8 24 -15 0 -20 7 -20 25 l0 25 -170 0 c-93 0 -170 -4 -170 -8 0 -4 9 -14 20
-22 21 -15 28 -50 10 -50 -5 0 -10 -9 -10 -20 0 -11 -4 -20 -10 -20 -5 0 -10
-6 -10 -14 0 -8 -6 -17 -12 -19 -10 -4 -9 -6 1 -6 17 -1 -22 -38 -50 -46 -11
-4 -19 -11 -19 -17 0 -14 -57 -66 -81 -73 -10 -4 -19 -10 -19 -14 0 -15 -51
-31 -95 -31 -25 0 -45 -5 -45 -10 0 -6 -10 -21 -23 -34 -18 -18 -34 -23 -70
-22 -26 1 -47 5 -47 10 0 4 -6 6 -14 3 -8 -3 -31 -1 -50 4 -26 7 -36 16 -36
29 0 11 -4 20 -10 20 -5 0 -10 6 -10 13 0 7 -9 19 -20 27 -21 15 -29 80 -10
80 6 0 10 23 10 50 0 28 5 50 10 50 6 0 10 7 10 15 0 8 4 15 10 15 5 0 20 11
33 24 31 31 60 46 89 46 13 0 30 5 38 10 10 6 -643 9 -1850 9 -1026 0 -1859
-3 -1853 -6 8 -3 13 -23 13 -49 0 -24 5 -44 10 -44 6 0 10 -11 10 -25 0 -14 5
-25 10 -25 6 0 10 -6 10 -14 0 -8 9 -18 20 -21 16 -5 20 -15 20 -56 0 -51 8
-59 34 -33 14 14 18 14 31 0 18 -18 20 -72 3 -80 -10 -5 -10 -7 0 -12 6 -3 12
-14 12 -25 0 -10 5 -19 10 -19 21 0 9 -18 -20 -30 -16 -7 -30 -19 -30 -26 0
-8 -4 -14 -10 -14 -5 0 -10 -7 -10 -15 0 -8 -4 -15 -10 -15 -5 0 -10 -6 -10
-14 0 -8 -9 -18 -20 -21 -21 -7 -28 -25 -10 -25 18 0 11 -18 -10 -25 -20 -6
-28 -35 -10 -35 6 0 10 -4 10 -10 0 -5 -9 -10 -20 -10 -15 0 -20 -7 -20 -24 0
-16 -7 -27 -20 -31 -11 -3 -20 -12 -20 -20 0 -8 -8 -16 -19 -20 -28 -9 -61
-40 -61 -59 0 -11 -9 -16 -26 -16 -24 0 -64 -16 -74 -30 -8 -11 -137 -40 -180
-40 -22 0 -40 -4 -40 -8 0 -18 -125 -5 -168 17 -23 12 -47 19 -51 16 -16 -9
-41 7 -41 26 0 14 -7 19 -30 19 -25 0 -30 -4 -30 -25 0 -14 -4 -25 -10 -25 -5
0 -10 7 -10 15 0 8 -4 15 -8 15 -8 0 -23 11 -69 50 -7 5 -23 10 -37 10 -27 0
-86 50 -86 74 0 9 -4 16 -10 16 -5 0 -10 6 -10 14 0 7 -14 19 -30 26 -17 7
-45 26 -61 41 -17 16 -35 29 -40 29 -5 0 -9 9 -9 20 0 11 -4 20 -10 20 -5 0
-10 7 -10 15 0 8 -4 15 -8 15 -14 0 -52 36 -52 49 0 6 -4 11 -10 11 -5 0 -10
18 -10 40 0 22 5 40 10 40 6 0 10 11 10 25 0 14 5 25 10 25 6 0 10 5 10 11 0
9 68 78 147 149 12 11 29 17 38 14 10 -4 15 0 15 11 0 14 6 16 30 12 27 -6 30
-4 30 18 0 16 6 25 15 25 9 0 34 9 56 20 22 12 44 18 49 15 5 -3 20 -1 32 6
76 41 243 39 -3954 38 -2202 0 -3997 -3 -3990 -6 19 -7 14 -47 -7 -63 -20 -13
-20 -14 2 -33 15 -13 31 -17 49 -13 20 4 28 1 28 -8 0 -7 13 -16 30 -19 21 -5
30 -12 30 -27 0 -13 7 -20 19 -20 11 0 21 -4 23 -10 2 -5 26 -11 53 -14 28 -2
53 -4 58 -5 11 -2 8 -41 -3 -41 -5 0 -10 -13 -10 -30 0 -16 -4 -30 -8 -30 -5
0 -18 -8 -30 -17 -49 -41 -67 -53 -79 -53 -8 0 -25 -10 -38 -22 -13 -13 -30
-28 -37 -34 -18 -14 -222 -10 -268 5 -39 13 -180 12 -180 -1 0 -4 -9 -8 -19
-8 -11 0 -21 -5 -23 -10 -4 -13 -56 -16 -83 -6 -16 6 -17 6 -5 -3 12 -9 11
-11 -7 -11 -13 0 -23 -5 -23 -11 0 -6 -6 -9 -14 -6 -19 7 -82 -10 -99 -27 -7
-8 -29 -12 -50 -11 -27 3 -37 -1 -37 -11 0 -8 -3 -14 -7 -15 -5 -1 -25 -3 -45
-4 -20 -2 -46 -9 -57 -14 -23 -13 -81 7 -60 20 8 4 4 9 -10 14 -21 6 -29 25
-11 25 6 0 10 5 10 10 0 6 -13 10 -29 10 -16 0 -36 7 -45 15 -11 11 -29 15
-63 12 -46 -4 -103 -24 -103 -36 0 -3 -39 -5 -88 -5 -127 2 -129 3 -145 19
-19 18 -76 20 -147 5 -30 -7 -81 -10 -114 -7 -37 3 -64 1 -73 -6 -7 -7 -27
-23 -43 -37 -16 -14 -42 -35 -57 -48 -15 -12 -39 -31 -52 -42 -13 -11 -32 -22
-42 -25 -11 -4 -19 -10 -19 -14 0 -4 -18 -16 -40 -26 -22 -10 -40 -21 -40 -25
0 -4 -11 -12 -25 -18 -14 -7 -31 -17 -38 -22 -45 -39 -61 -50 -68 -50 -4 0
-14 -6 -21 -14 -8 -7 -34 -24 -58 -36 -24 -12 -50 -27 -57 -34 -7 -6 -31 -27
-53 -46 -82 -71 -120 -109 -120 -119 0 -6 11 -13 25 -17 32 -8 243 13 316 32
36 9 78 12 115 8 40 -4 79 -1 122 10 39 10 113 18 198 19 97 2 138 7 143 16 7
10 13 10 30 2 13 -8 27 -8 39 -2 9 5 35 7 57 5 22 -1 59 4 82 11 59 20 73 12
73 -41 0 -42 1 -43 43 -55 23 -7 59 -12 80 -11 20 0 37 -3 37 -8 0 -5 9 -12
20 -15 11 -3 20 -13 20 -21 0 -19 15 -18 35 2 12 12 26 15 60 9 25 -3 45 -10
45 -16 0 -5 5 -9 10 -9 6 0 10 9 10 20 0 11 -6 20 -12 20 -9 0 -8 4 2 10 8 5
24 9 35 9 11 0 14 -3 8 -6 -19 -7 -16 -21 7 -28 13 -4 20 -15 20 -31 0 -13 5
-24 10 -24 6 0 10 -7 10 -15 0 -8 -4 -15 -10 -15 -5 0 -10 -11 -10 -25 0 -18
5 -25 20 -25 11 0 20 7 20 15 0 10 10 15 30 15 20 0 30 -5 30 -15 0 -8 5 -15
10 -15 6 0 10 -7 10 -15 0 -19 27 -19 60 0 34 19 33 19 70 -15 18 -16 40 -30
50 -30 25 0 60 -34 60 -59 0 -11 -4 -21 -10 -21 -5 0 -10 -11 -10 -25 0 -14
-4 -25 -10 -25 -5 0 -10 -6 -10 -14 0 -8 -9 -18 -20 -21 -11 -3 -20 -12 -20
-20 0 -7 -6 -16 -12 -18 -10 -4 -9 -8 2 -17 12 -9 11 -10 -7 -5 -14 4 -23 2
-23 -5 0 -19 -28 -41 -68 -52 -20 -6 -31 -13 -25 -15 17 -6 -9 -33 -31 -33 -9
0 -16 -7 -16 -15 0 -8 -4 -15 -10 -15 -5 0 -10 -5 -10 -11 0 -18 -28 -39 -44
-33 -11 4 -16 0 -16 -14 0 -26 -26 -30 -167 -27 -105 3 -113 2 -113 -16 0 -10
-4 -19 -10 -19 -5 0 -10 -11 -10 -25 0 -22 -4 -25 -34 -25 -19 0 -43 -3 -53
-6 -13 -4 -15 -3 -4 4 16 11 -131 28 -150 17 -6 -4 -15 -2 -20 6 -6 11 -12 9
-26 -7 -13 -15 -36 -23 -80 -28 -53 -6 -69 -4 -104 15 -24 12 -48 26 -55 33
-6 6 -21 18 -33 26 -11 8 -21 18 -21 23 0 24 -57 57 -100 57 -26 0 -212 -84
-244 -111 -47 -40 -61 -49 -77 -54 -11 -4 -19 -10 -19 -14 0 -5 -55 -18 -122
-31 -68 -12 -166 -33 -219 -46 -52 -13 -122 -26 -155 -30 -32 -4 -62 -11 -65
-16 -10 -16 -106 -45 -172 -52 -98 -11 -187 22 -187 68 0 9 -4 16 -10 16 -5 0
-10 23 -10 50 0 28 -4 50 -10 50 -6 0 -10 27 -10 60 0 33 4 60 10 60 14 0 12
19 -3 35 -25 24 -151 82 -196 89 -24 4 -56 13 -72 21 -15 8 -46 15 -68 15 -59
0 -71 8 -71 46 0 19 5 34 11 34 6 0 3 8 -7 17 -22 23 -110 31 -222 21 -48 -5
-104 -6 -124 -2 -40 6 -98 52 -98 77 0 12 -19 27 -36 27 -2 0 -4 -11 -4 -25 0
-14 -4 -25 -10 -25 -5 0 -10 -7 -10 -15 0 -17 -18 -22 -123 -30 -51 -4 -90 -2
-112 6 -46 17 -53 6 -20 -27 26 -26 35 -28 119 -31 50 -2 101 -6 114 -9 36 -7
27 -39 -15 -57 -64 -27 -110 -36 -257 -47 -77 -6 -166 -15 -196 -21 -155 -29
-238 -41 -370 -50 -187 -13 -493 -7 -540 12 -53 21 -100 72 -100 109 0 16 5
30 10 30 6 0 10 11 10 25 0 14 5 25 10 25 6 0 10 7 10 15 0 8 5 15 10 15 6 0
10 14 10 30 0 17 5 30 10 30 6 0 10 14 10 30 0 21 -5 30 -16 30 -8 0 -22 7
-31 16 -9 8 -22 13 -30 10 -8 -4 -33 -9 -56 -13 -27 -4 -52 -17 -74 -40 -22
-22 -43 -33 -62 -33 -29 0 -71 29 -71 49 0 6 -4 11 -10 11 -5 0 -10 9 -10 20
0 11 -4 20 -10 20 -5 0 -10 11 -10 25 0 14 -4 25 -10 25 -5 0 -10 6 -10 14 0
8 -9 18 -20 21 -11 3 -20 10 -20 15 0 5 -9 12 -20 15 -11 4 -32 18 -47 33 -19
19 -41 28 -85 34 -32 4 -73 15 -90 24 -35 18 -98 78 -98 94 0 5 -4 10 -10 10
-5 0 -10 7 -10 15 0 8 -4 15 -10 15 -5 0 -10 25 -10 55 0 30 5 55 10 55 6 0
10 11 10 25 0 14 5 25 10 25 6 0 10 40 10 100 0 60 4 100 10 100 6 0 10 27 10
60 0 33 4 60 10 60 6 0 10 14 10 30 0 17 5 30 10 30 6 0 10 16 10 35 0 19 5
35 10 35 6 0 10 25 10 55 0 30 5 55 10 55 6 0 10 28 10 65 0 37 4 65 10 65 6
0 10 16 10 35 0 19 5 35 10 35 6 0 10 11 10 25 l0 25 -505 0 -506 0 -34 -32
c-49 -48 -58 -54 -105 -78 -24 -12 -49 -27 -57 -34 -59 -53 -93 -66 -168 -66
-36 0 -65 -4 -65 -9 0 -5 -13 -14 -30 -21 -16 -7 -30 -16 -30 -21 0 -5 -9 -9
-20 -9 -11 0 -20 -4 -20 -9 0 -5 -13 -14 -30 -21 -16 -7 -30 -17 -30 -22 0 -5
-11 -19 -24 -32 -57 -58 -145 -80 -309 -75 -128 3 -227 -7 -227 -23 0 -14 -57
-66 -81 -73 -10 -4 -19 -10 -19 -14 0 -5 -13 -14 -30 -20 -16 -6 -43 -16 -60
-22 -19 -7 -30 -18 -30 -30 0 -11 -4 -19 -10 -19 -5 0 -10 -7 -10 -15 0 -8 -4
-15 -10 -15 -5 0 -10 -7 -10 -15 0 -8 -4 -15 -10 -15 -5 0 -10 -7 -10 -15 0
-8 -4 -15 -10 -15 -5 0 -10 -7 -10 -15 0 -8 -4 -15 -10 -15 -5 0 -10 -5 -10
-11 0 -28 -81 -70 -267 -139 -18 -7 -33 -18 -33 -24 0 -6 -9 -18 -20 -26 -11
-8 -20 -22 -20 -32 0 -10 -4 -18 -10 -18 -5 0 -10 -8 -10 -18 0 -10 -9 -24
-20 -32 -11 -8 -20 -20 -20 -27 0 -7 -4 -13 -9 -13 -5 0 -16 -7 -24 -14 -8 -8
-57 -23 -108 -32 -52 -9 -116 -21 -144 -26 -27 -6 -92 -12 -144 -15 -115 -5
-151 6 -151 48 0 16 5 29 10 29 6 0 10 8 10 18 0 10 9 24 20 32 11 8 20 18 20
23 0 5 13 22 30 37 16 15 30 32 30 37 0 5 9 15 20 23 11 8 20 20 20 27 0 6 9
15 20 18 11 3 20 11 20 16 0 5 8 9 18 9 33 0 62 34 62 74 0 20 5 36 10 36 6 0
10 16 10 35 0 19 5 35 10 35 6 0 10 18 10 39 0 31 -4 41 -20 46 -11 3 -20 10
-20 15 0 5 -9 12 -20 15 -12 4 -36 22 -54 40 -41 41 -60 51 -114 59 -34 5 -52
1 -90 -18 -47 -24 -116 -36 -312 -56 -41 -5 -97 -13 -124 -19 -28 -6 -68 -13
-90 -16 -23 -2 -61 -9 -86 -14 -71 -16 -149 -12 -230 10 -41 11 -115 30 -165
41 -49 11 -111 31 -137 44 -105 53 -130 57 -350 59 -177 1 -213 4 -248 20 -36
16 -55 45 -30 45 6 0 10 27 10 60 0 33 4 60 10 60 6 0 10 11 10 25 0 14 5 25
10 25 6 0 10 9 10 20 0 11 5 20 10 20 6 0 10 5 10 10 0 6 10 21 23 34 20 20
51 31 155 52 14 3 22 12 22 24 0 11 5 20 10 20 6 0 10 5 10 10 0 7 -755 10
-2245 10 l-2245 0 0 -384z m34638 198 c8 -8 27 -18 43 -21 16 -3 29 -9 29 -13
0 -4 14 -13 30 -20 17 -7 30 -16 30 -21 0 -5 7 -9 15 -9 9 0 43 -14 76 -31 46
-23 78 -31 128 -34 36 -1 82 -10 101 -19 19 -8 54 -20 77 -26 23 -6 49 -18 58
-27 10 -10 19 -12 23 -6 7 10 168 38 277 49 33 3 82 10 109 16 37 8 58 7 89
-3 31 -10 41 -11 45 -1 7 22 75 31 176 24 120 -9 208 -1 296 28 41 13 99 23
155 25 50 2 103 8 118 14 16 6 39 11 51 11 23 0 66 -30 66 -46 0 -5 9 -16 20
-24 11 -8 20 -22 20 -32 0 -10 5 -18 10 -18 6 0 10 -7 10 -15 0 -8 5 -15 10
-15 6 0 10 -5 10 -11 0 -14 19 -32 50 -49 13 -7 30 -18 37 -24 51 -43 73 -66
73 -78 0 -7 9 -20 20 -28 11 -8 20 -20 20 -27 0 -7 5 -13 10 -13 6 0 10 -7 10
-15 0 -8 7 -15 16 -15 18 0 44 -24 44 -40 0 -7 6 -10 13 -7 6 3 19 8 28 12 9
3 23 0 31 -8 8 -8 28 -22 46 -31 33 -17 206 -76 223 -76 6 0 15 -5 22 -10 47
-39 62 -50 78 -55 11 -4 19 -15 19 -26 0 -10 7 -19 15 -19 25 0 65 -23 65 -37
0 -7 9 -13 19 -13 11 0 26 -6 33 -14 8 -7 49 -22 91 -31 42 -10 77 -22 77 -27
0 -4 12 -8 26 -8 44 0 114 -52 114 -85 0 -8 5 -15 10 -15 6 0 10 -11 10 -25 0
-14 5 -25 10 -25 6 0 10 -16 10 -35 0 -19 5 -35 10 -35 6 0 10 -7 10 -15 0 -8
-4 -15 -10 -15 -6 0 -10 -30 -10 -70 0 -40 -4 -70 -10 -70 -5 0 -10 -13 -10
-30 0 -16 -4 -30 -10 -30 -5 0 -10 -13 -10 -30 0 -16 -4 -30 -10 -30 -5 0 -10
-9 -10 -21 0 -31 -57 -81 -83 -73 -80 25 -177 -2 -177 -50 0 -9 -4 -16 -10
-16 -5 0 -10 -7 -10 -15 0 -19 -34 -20 -52 -1 -20 20 -114 66 -134 66 -14 0
-14 -3 4 -19 12 -10 22 -23 22 -30 0 -6 4 -11 8 -11 14 0 52 -36 52 -49 0 -6
5 -11 10 -11 15 0 13 -100 -2 -101 -10 0 -10 -2 0 -6 14 -6 16 -33 2 -33 -5 0
-10 -9 -10 -20 0 -11 5 -20 10 -20 6 0 10 -22 10 -50 0 -33 -4 -50 -12 -50 -9
0 -8 -4 2 -10 10 -6 11 -10 3 -10 -7 0 -13 -12 -13 -26 0 -16 -12 -37 -30 -54
-16 -15 -30 -33 -30 -40 0 -7 -13 -25 -30 -40 -16 -15 -30 -33 -30 -39 0 -6
-4 -11 -10 -11 -5 0 -10 -7 -10 -15 0 -8 -4 -15 -10 -15 -5 0 -10 -5 -10 -11
0 -6 -13 -24 -30 -39 -16 -15 -30 -35 -30 -44 0 -9 -4 -16 -10 -16 -5 0 -10
-11 -10 -25 0 -14 -4 -25 -10 -25 -5 0 -10 -15 -10 -34 0 -36 -12 -46 -56 -46
-21 0 -24 -5 -24 -35 0 -19 -4 -35 -8 -35 -5 0 -19 -9 -32 -20 l-23 -20 61 6
c51 6 62 4 62 -8 0 -8 -10 -20 -22 -26 l-23 -11 23 0 c15 -1 22 -7 22 -21 0
-11 5 -20 10 -20 6 0 10 -13 10 -30 0 -26 -4 -30 -27 -30 -16 0 -35 -5 -43
-10 -13 -8 -13 -10 2 -10 27 0 68 -22 68 -37 0 -7 5 -13 10 -13 14 0 12 -27
-2 -34 -10 -5 -10 -7 0 -12 14 -7 16 -34 2 -34 -5 0 -10 -7 -10 -15 0 -8 5
-15 10 -15 6 0 10 -22 10 -50 0 -27 -4 -50 -10 -50 -5 0 -10 -18 -10 -40 0
-22 -4 -40 -10 -40 -24 0 -8 -38 21 -50 28 -12 29 -14 12 -23 -28 -15 -29 -17
-13 -28 11 -8 12 -12 3 -16 -7 -2 -13 -17 -13 -33 0 -16 6 -31 13 -34 10 -5
10 -7 0 -12 -8 -3 -13 -25 -13 -55 0 -27 -4 -49 -10 -49 -5 0 -10 -6 -10 -14
0 -8 -9 -18 -20 -21 -11 -3 -20 -15 -20 -26 0 -10 -4 -19 -10 -19 -5 0 -10 -7
-10 -16 0 -8 -22 -37 -50 -64 -42 -40 -50 -55 -50 -84 0 -20 -4 -36 -10 -36
-5 0 -10 -5 -10 -11 0 -6 -14 -24 -31 -40 -24 -22 -36 -27 -60 -22 -18 3 -29
1 -29 -6 0 -6 5 -11 10 -11 22 0 9 -53 -20 -80 -16 -15 -30 -31 -30 -35 0 -12
-29 -35 -44 -35 -9 0 -16 -5 -16 -11 0 -13 -78 -89 -91 -89 -5 0 -9 -5 -9 -11
0 -11 -19 -29 -103 -101 -21 -18 -68 -62 -106 -98 -38 -36 -78 -72 -90 -80
-11 -8 -21 -21 -21 -29 0 -16 -34 -48 -61 -56 -11 -4 -19 -10 -19 -15 0 -5 -9
-12 -20 -15 -11 -3 -20 -13 -20 -21 0 -8 -4 -14 -8 -14 -5 0 -20 -9 -33 -20
-41 -33 -44 -36 -56 -43 -18 -11 -103 34 -103 55 0 10 -4 18 -10 18 -5 0 -10
-9 -10 -20 0 -11 5 -20 10 -20 6 0 10 -6 10 -13 0 -7 9 -19 20 -27 11 -8 20
-21 20 -28 0 -14 -56 -72 -70 -72 -11 0 -70 -56 -70 -67 0 -5 -9 -15 -21 -23
-11 -8 -30 -23 -41 -32 -11 -10 -29 -20 -39 -23 -11 -4 -19 -10 -19 -14 0 -4
-18 -16 -40 -26 -22 -10 -40 -22 -40 -27 0 -4 -9 -8 -19 -8 -11 0 -26 -7 -35
-15 -8 -8 -22 -15 -30 -15 -9 0 -16 -4 -16 -8 0 -10 -85 -52 -105 -52 -8 0
-15 -4 -15 -9 0 -5 -15 -11 -32 -14 -18 -3 -67 -14 -108 -26 -89 -25 -220 -39
-220 -24 0 16 -47 31 -133 43 -43 5 -80 10 -81 10 -2 0 -14 9 -27 20 -13 11
-37 30 -52 42 -59 49 -87 76 -87 88 0 20 -27 40 -54 40 -14 0 -26 -4 -26 -10
0 -6 -26 -10 -58 -10 -45 0 -65 -5 -82 -20 -13 -11 -32 -20 -43 -20 -11 0 -35
-5 -52 -11 -38 -14 -85 -5 -85 16 0 8 -4 15 -10 15 -6 0 -10 32 -10 75 0 71
-1 75 -22 76 l-23 0 23 11 c17 9 22 20 22 50 0 21 5 38 10 38 6 0 10 9 10 20
0 11 -4 20 -10 20 -5 0 -10 7 -10 15 0 8 -4 15 -10 15 -5 0 -10 5 -10 11 0 6
-18 28 -40 49 -22 21 -40 46 -40 54 0 9 -4 16 -10 16 -5 0 -10 9 -10 20 0 11
-4 20 -10 20 -15 0 -12 77 3 83 6 3 -3 6 -20 6 -18 1 -33 5 -33 10 0 5 -12 9
-27 8 -16 -1 -48 0 -73 1 -35 2 -42 5 -30 13 11 8 12 12 3 16 -7 2 -13 13 -13
24 0 10 -6 19 -12 20 -10 0 -10 2 0 6 17 7 15 71 -4 90 -10 10 -26 14 -47 11
-45 -7 -57 0 -57 33 0 22 -6 30 -25 35 -14 3 -35 4 -46 1 -15 -4 -31 4 -55 28
-19 19 -34 39 -34 45 0 5 -4 10 -10 10 -6 0 -10 28 -10 65 0 37 -4 65 -10 65
-5 0 -10 14 -10 30 0 17 -4 30 -10 30 -5 0 -10 7 -10 15 0 8 -4 15 -10 15 -5
0 -10 11 -10 25 0 14 -4 25 -10 25 -5 0 -10 8 -10 18 0 12 -26 30 -85 60 -47
23 -94 42 -104 42 -35 0 -51 12 -51 36 0 13 -4 24 -10 24 -5 0 -10 6 -10 14 0
8 -9 18 -20 21 -11 3 -20 12 -20 20 0 8 -9 17 -20 20 -21 7 -29 55 -10 55 18
0 11 18 -10 25 -11 4 -20 15 -20 26 0 23 -22 49 -42 49 -8 0 -20 -9 -28 -20
-17 -24 -30 -26 -30 -5 0 8 -4 15 -10 15 -5 0 -10 7 -10 15 0 8 -4 15 -10 15
-5 0 -10 -5 -10 -11 0 -13 -33 -9 -135 13 -69 15 -85 26 -85 62 0 19 -5 26
-19 26 -11 0 -26 6 -33 14 -8 7 -29 21 -48 31 -19 10 -40 24 -48 31 -7 8 -18
14 -23 14 -5 0 -9 6 -9 14 0 8 -9 18 -20 21 -14 4 -20 15 -20 35 0 20 -6 31
-20 35 -16 5 -20 15 -20 46 0 21 -4 39 -10 39 -5 0 -10 6 -10 14 0 8 -9 18
-20 21 -12 4 -20 15 -20 29 0 17 -9 27 -30 36 -16 7 -30 19 -30 26 0 8 -4 14
-10 14 -5 0 -10 18 -10 40 0 22 -4 40 -10 40 -5 0 -10 14 -10 30 0 17 -5 30
-12 31 -10 0 -10 2 0 6 22 9 13 30 -20 44 -17 7 -26 15 -20 17 7 2 12 19 12
38 0 28 -4 35 -25 39 -14 3 -36 7 -50 10 -26 6 -34 30 -12 38 9 4 8 8 -3 17
-11 9 -12 13 -2 17 6 2 12 20 12 40 l0 35 -40 -7 c-46 -8 -80 1 -80 20 0 17
-33 28 -59 20 -11 -3 -25 1 -34 10 -17 17 -87 21 -87 5 0 -5 -11 -10 -25 -10
-27 0 -75 19 -75 30 0 4 -13 13 -30 20 -16 7 -30 19 -30 26 0 8 -4 14 -10 14
-5 0 -10 7 -10 15 0 8 5 15 10 15 6 0 10 14 10 30 0 17 5 30 10 30 6 0 10 13
10 30 0 26 5 31 39 40 22 6 41 14 43 19 5 12 58 23 58 11 0 -5 5 -10 10 -10 6
0 10 6 10 14 0 16 13 21 78 31 23 4 42 11 42 16 0 5 14 9 30 9 25 0 30 4 30
25 0 14 5 25 10 25 6 0 10 7 10 15 0 8 7 15 15 15 8 0 43 13 77 29 118 54 139
61 189 61 49 0 79 -15 79 -39 0 -6 5 -11 10 -11 6 0 10 -16 10 -35 0 -19 5
-35 10 -35 6 0 10 28 10 65 0 37 4 65 10 65 6 0 10 9 10 20 0 11 4 20 8 20 16
0 52 37 52 53 0 9 9 19 20 22 11 3 20 13 20 21 0 20 27 47 40 39 9 -6 18 0 54
32 7 6 30 15 50 18 20 4 36 11 36 15 0 4 14 13 30 20 20 8 30 19 30 34 0 24
55 57 117 70 33 8 38 5 88 -42 l25 -23 25 25 c14 14 25 30 25 36 0 6 17 9 43
6 65 -6 77 -14 77 -52 0 -27 4 -34 20 -34 15 0 20 7 20 28 0 16 8 34 20 42 11
8 20 20 20 27 0 7 5 13 10 13 6 0 10 9 10 20 0 11 5 20 10 20 18 0 10 29 -10
35 -11 3 -20 13 -20 21 0 8 -4 14 -10 14 -5 0 -10 7 -10 15 0 8 -4 15 -10 15
-15 0 -12 47 3 53 9 4 8 8 -3 16 -12 8 -11 13 8 29 12 11 22 24 22 31 0 6 4
11 10 11 5 0 20 11 34 25 14 14 35 25 46 25 40 0 110 53 110 84 0 15 55 36 93
36 10 0 28 5 40 12 12 6 33 13 47 15 55 7 124 20 113 22 -7 0 -13 8 -13 16 0
8 -4 15 -10 15 -23 0 -7 21 20 27 17 3 30 9 30 14 0 5 9 9 20 9 11 0 20 5 20
10 0 6 10 10 23 11 12 0 16 3 10 6 -22 8 -15 34 17 63 30 28 39 50 20 50 -5 0
-10 12 -10 26 0 25 2 25 41 19 40 -7 99 9 99 26 0 5 9 9 20 9 11 0 20 4 20 8
0 12 47 32 75 32 22 0 25 5 25 35 0 19 -4 35 -10 35 -5 0 -10 14 -10 30 0 17
-4 30 -10 30 -6 0 -10 33 -10 78 0 68 3 79 21 92 12 8 27 20 33 26 38 36 102
40 134 8z m-6285 -460 c12 -4 17 -16 17 -44 0 -30 5 -40 20 -45 16 -5 20 -15
20 -48 0 -31 5 -47 20 -57 18 -13 20 -26 20 -130 0 -104 -2 -117 -20 -130 -11
-8 -20 -22 -20 -32 0 -10 -4 -18 -10 -18 -5 0 -10 -7 -10 -15 0 -11 -11 -15
-36 -15 -49 0 -104 32 -104 59 0 6 -4 11 -10 11 -5 0 -10 7 -10 15 0 8 -4 15
-10 15 -5 0 -10 7 -10 15 0 8 -4 15 -10 15 -5 0 -10 5 -10 10 0 6 -12 22 -26
37 -24 24 -28 24 -67 13 -23 -7 -57 -14 -74 -17 -29 -4 -33 -2 -33 16 0 12 -4
21 -10 21 -5 0 -10 14 -10 30 0 17 -4 30 -10 30 -6 0 -10 30 -10 70 0 40 4 70
10 70 6 0 10 8 10 18 0 20 47 46 120 68 25 7 61 19 81 26 37 14 152 22 182 12z
m-7209 -10 c43 -6 46 -9 46 -35 0 -16 5 -29 10 -29 6 0 10 -20 10 -45 0 -25 5
-45 10 -45 6 0 10 -18 10 -40 0 -22 5 -40 10 -40 6 0 10 -9 10 -20 0 -11 5
-20 10 -20 6 0 10 -9 10 -20 0 -11 5 -20 10 -20 6 0 10 -7 10 -15 0 -8 5 -15
10 -15 6 0 10 -6 10 -13 0 -7 9 -19 20 -27 11 -8 20 -20 20 -27 0 -6 9 -15 20
-18 11 -3 20 -10 20 -14 0 -5 14 -14 30 -21 28 -12 42 -40 20 -40 -17 0 -11
-32 10 -50 11 -10 34 -23 50 -30 26 -11 30 -18 30 -52 0 -35 -2 -39 -20 -33
-15 5 -20 2 -20 -12 0 -22 -101 -76 -125 -67 -8 4 -15 2 -15 -3 0 -16 -44 -31
-73 -26 -16 3 -27 1 -27 -6 0 -6 -9 -11 -20 -11 -11 0 -20 -7 -20 -15 0 -11
-8 -13 -30 -8 -27 5 -30 3 -30 -20 0 -22 -6 -26 -40 -32 -22 -4 -40 -11 -40
-17 0 -7 -15 -9 -40 -5 -29 4 -40 2 -40 -8 0 -8 -17 -16 -42 -20 -62 -9 -238
-66 -238 -76 0 -5 -7 -9 -15 -9 -29 0 -85 -34 -85 -52 0 -10 5 -18 10 -18 6 0
10 -16 10 -35 0 -19 5 -35 10 -35 6 0 10 -5 10 -11 0 -12 38 -49 50 -49 5 0
22 -13 40 -30 18 -16 36 -30 41 -30 5 0 9 -5 9 -11 0 -18 28 -39 44 -33 11 4
16 1 16 -10 0 -9 7 -16 15 -16 28 0 65 -24 65 -42 0 -10 -4 -18 -10 -18 -5 0
-10 -11 -10 -25 0 -14 -4 -25 -10 -25 -5 0 -10 -8 -10 -18 0 -10 -9 -24 -20
-32 -11 -8 -20 -22 -20 -32 0 -10 -4 -18 -10 -18 -5 0 -10 -11 -10 -25 0 -14
-4 -25 -10 -25 -5 0 -10 -14 -10 -30 0 -26 -5 -31 -30 -36 -25 -5 -30 -11 -30
-34 0 -23 -5 -29 -30 -33 -28 -6 -30 -9 -30 -52 0 -25 -4 -45 -10 -45 -5 0
-10 -6 -10 -13 0 -13 -59 -47 -81 -47 -5 0 -21 -11 -35 -25 -14 -14 -32 -25
-40 -25 -23 0 -44 -26 -44 -54 0 -19 -6 -27 -22 -30 -13 -3 -35 -7 -50 -11
-17 -3 -28 -12 -28 -22 0 -12 -8 -15 -38 -11 -26 4 -42 1 -52 -10 -10 -12 -11
-17 -2 -20 7 -2 12 -11 12 -19 0 -9 -6 -13 -15 -9 -21 8 -45 -3 -45 -20 0 -8
-4 -14 -10 -14 -5 0 -10 -7 -10 -15 0 -8 -9 -15 -20 -15 -13 0 -20 -7 -20 -19
0 -11 -9 -23 -20 -26 -11 -3 -20 -15 -20 -26 0 -35 -53 -24 -100 21 -48 47
-60 49 -60 15 0 -14 -4 -25 -10 -25 -5 0 -10 -9 -10 -21 0 -27 -24 -51 -44
-43 -9 3 -16 1 -16 -4 0 -6 -9 -14 -20 -17 -11 -3 -20 -13 -20 -22 0 -10 -6
-13 -16 -9 -37 14 -93 17 -113 7 -17 -10 -25 -9 -37 4 -20 19 -48 19 -68 0
-10 -11 -43 -17 -101 -21 -73 -4 -85 -3 -85 10 0 9 -4 16 -10 16 -5 0 -10 6
-10 13 0 18 -73 51 -96 43 -26 -8 -54 11 -36 23 9 5 -7 10 -43 14 -53 5 -137
-14 -247 -58 -15 -6 -18 -1 -18 30 0 41 -20 68 -44 59 -19 -7 -21 -40 -3 -48
10 -5 10 -7 0 -12 -7 -3 -13 -17 -13 -30 0 -13 -4 -24 -9 -24 -5 0 -23 -13
-40 -29 -18 -17 -41 -33 -52 -36 -10 -4 -19 -13 -19 -21 0 -8 -4 -14 -10 -14
-5 0 -10 -6 -10 -14 0 -20 -21 -25 -125 -28 -124 -3 -135 -6 -135 -33 0 -15
-8 -26 -21 -30 -17 -6 -19 -9 -8 -16 10 -6 11 -9 2 -9 -7 0 -13 -7 -13 -15 0
-21 -45 -30 -88 -17 -21 6 -49 14 -64 17 -16 3 -28 12 -28 20 0 8 -9 15 -20
15 -11 0 -20 -7 -20 -15 0 -8 5 -15 10 -15 6 0 10 -13 10 -28 0 -16 8 -34 20
-42 11 -8 20 -22 20 -31 0 -10 6 -20 13 -23 6 -3 2 -3 -10 0 -17 4 -23 1 -23
-11 0 -11 -6 -15 -17 -11 -10 3 -25 1 -33 -4 -10 -6 -11 -10 -2 -10 6 0 12 -4
12 -10 0 -20 -51 -10 -76 15 -14 14 -29 25 -34 25 -6 0 -10 6 -10 14 0 17 -22
26 -64 26 -33 0 -76 -28 -76 -49 0 -6 -4 -11 -10 -11 -5 0 -10 -9 -10 -20 0
-11 -4 -20 -10 -20 -6 0 -10 -28 -10 -65 0 -45 -4 -65 -12 -66 -7 -1 -20 -3
-28 -4 -8 -1 -21 -3 -27 -4 -7 0 -13 -8 -13 -16 0 -17 -2 -18 -24 -9 -9 3 -16
12 -16 20 0 8 -2 14 -4 14 -2 0 -11 3 -20 6 -11 4 -16 1 -16 -10 0 -9 -4 -16
-10 -16 -5 0 -10 -6 -10 -13 0 -19 -44 -37 -90 -37 -55 0 -90 18 -90 47 0 12
5 23 10 23 6 0 10 7 10 15 0 8 5 15 10 15 6 0 10 9 10 20 0 11 6 20 13 21 10
0 10 2 0 6 -7 2 -13 11 -13 19 0 8 6 14 13 15 10 0 10 2 0 6 -21 8 -16 67 7
83 11 8 20 25 20 37 0 24 15 32 22 11 3 -8 14 -3 31 14 19 19 27 38 27 62 0
19 6 36 13 39 8 3 5 11 -10 24 -13 11 -23 29 -23 39 0 11 -9 26 -21 34 -36 25
-79 68 -79 78 0 13 -27 23 -45 16 -11 -5 -15 1 -15 20 0 25 -3 26 -50 26 -43
0 -50 3 -50 20 0 11 5 20 12 20 6 0 1 8 -10 19 -22 18 -31 71 -12 71 6 0 10 7
10 15 0 8 5 15 10 15 6 0 10 14 10 30 0 17 5 30 10 30 6 0 10 11 10 24 0 13 6
27 13 30 10 5 10 7 0 12 -8 3 -13 24 -13 51 0 37 5 50 30 73 22 21 30 37 30
63 0 27 5 37 20 42 11 3 20 11 20 16 0 5 9 9 20 9 15 0 20 7 20 25 0 14 5 25
10 25 6 0 10 7 10 15 0 8 7 15 15 15 17 0 85 63 85 79 0 14 36 23 60 16 11 -4
20 -2 20 4 0 19 56 12 80 -9 13 -11 27 -20 32 -20 4 0 8 -7 8 -15 0 -8 5 -15
10 -15 6 0 10 -6 10 -13 0 -7 9 -19 20 -27 12 -9 20 -26 20 -44 0 -27 -12 -42
-59 -76 -12 -8 -21 -20 -21 -27 0 -7 -4 -13 -10 -13 -5 0 -10 -11 -10 -25 0
-14 -4 -25 -10 -25 -5 0 -10 -13 -10 -30 0 -23 4 -30 20 -30 11 0 20 7 20 15
0 8 5 15 10 15 6 0 10 7 10 16 0 21 56 73 86 80 33 8 74 -3 74 -21 0 -8 5 -15
10 -15 6 0 10 -5 10 -11 0 -12 38 -49 50 -49 15 0 70 -58 70 -74 0 -9 5 -16
10 -16 6 0 10 9 10 20 0 11 6 20 13 21 10 0 10 2 0 6 -7 2 -13 10 -13 18 0 7
-13 18 -30 25 -16 7 -30 19 -30 26 0 8 -4 14 -10 14 -5 0 -10 7 -10 15 0 8 -4
15 -10 15 -5 0 -10 9 -10 19 0 11 -9 23 -20 26 -11 3 -20 12 -20 18 0 7 -9 19
-20 27 -15 11 -20 26 -20 57 0 24 -4 43 -10 43 -5 0 -10 7 -10 15 0 8 -4 15
-10 15 -5 0 -10 5 -10 11 0 7 -10 20 -22 30 -20 18 -21 19 -1 19 22 0 63 31
63 49 0 6 5 11 10 11 6 0 10 7 10 15 0 8 5 15 10 15 6 0 10 11 10 25 0 14 5
25 10 25 6 0 10 9 10 21 0 15 5 19 16 15 16 -6 68 17 93 42 12 11 13 16 3 20
-14 4 -17 52 -2 52 5 0 20 -11 34 -25 19 -19 42 -27 93 -35 37 -5 71 -10 76
-10 4 0 7 -7 7 -15 0 -9 12 -18 30 -21 17 -4 30 -13 30 -20 0 -8 10 -14 23
-14 19 -1 20 -2 5 -11 -13 -7 -28 -4 -57 11 -51 26 -51 26 -51 -9 0 -16 -6
-32 -12 -35 -10 -5 -10 -7 0 -12 6 -3 12 -12 12 -19 0 -8 9 -17 20 -20 11 -3
20 -15 20 -26 0 -10 5 -19 10 -19 6 0 10 -11 10 -25 0 -14 5 -25 10 -25 6 0
10 -9 10 -19 0 -11 6 -22 13 -24 6 -3 -7 -6 -31 -6 -39 -1 -42 -3 -28 -16 14
-14 18 -14 45 0 17 8 37 15 46 15 8 0 15 9 15 19 0 11 9 23 20 26 11 3 20 15
20 26 0 10 5 19 10 19 6 0 10 14 10 31 0 33 42 82 81 94 10 4 19 11 19 16 0 5
9 9 20 9 16 0 20 7 20 30 0 17 5 30 10 30 6 0 10 7 10 15 0 8 5 15 10 15 6 0
10 11 10 24 0 13 6 27 13 30 10 5 10 7 0 12 -7 3 -13 21 -13 40 0 30 -4 35
-30 41 -28 5 -43 23 -20 23 6 0 10 7 10 15 0 8 5 15 10 15 6 0 10 11 10 24 0
13 6 27 13 29 6 3 1 6 -13 7 -25 1 -25 1 -4 13 19 10 20 14 7 26 -8 7 -26 11
-41 8 -44 -9 -102 -31 -102 -39 0 -5 -4 -8 -10 -8 -5 0 -10 11 -10 25 0 14 -4
25 -10 25 -5 0 -10 -18 -10 -40 0 -22 -4 -40 -10 -40 -5 0 -10 -9 -10 -21 0
-16 -4 -19 -20 -14 -16 5 -20 2 -20 -18 0 -35 -26 -41 -54 -14 -13 12 -33 29
-45 37 -21 15 -30 70 -11 70 6 0 10 5 10 11 0 19 30 41 82 60 34 12 54 15 58
9 13 -21 40 2 40 34 0 21 7 37 21 46 11 8 30 23 41 33 12 9 25 17 30 17 4 0 8
7 8 15 0 8 5 15 10 15 6 0 10 7 10 15 0 8 5 15 10 15 6 0 10 7 10 15 0 8 5 15
10 15 6 0 10 9 10 20 0 11 5 20 10 20 6 0 10 7 10 15 0 8 5 15 10 15 6 0 10 7
10 15 0 8 5 15 10 15 6 0 10 9 10 20 0 11 7 20 15 20 9 0 27 11 41 25 30 30
64 26 102 -12 12 -12 32 -23 42 -23 22 0 27 15 8 24 -7 4 2 4 20 1 17 -2 32
-1 32 4 0 5 12 11 28 14 35 7 78 43 60 50 -7 3 5 3 27 0 44 -6 57 -13 38 -20
-20 -7 -15 -23 7 -23 11 0 20 5 20 10 0 6 5 10 10 10 6 0 10 -9 10 -20 0 -11
6 -20 13 -21 10 0 10 -2 0 -6 -15 -6 -17 -33 -3 -33 6 0 10 -11 10 -25 0 -14
-6 -25 -12 -25 -9 0 -8 -4 2 -10 13 -9 13 -11 0 -20 -11 -7 4 -10 50 -10 70 0
140 15 140 30 0 6 9 10 20 10 35 0 100 24 100 37 0 9 18 13 59 13 51 0 63 -4
90 -29 21 -20 31 -38 31 -59 0 -25 5 -30 30 -35 21 -5 30 -12 30 -27 0 -11 -6
-20 -12 -21 -7 0 -3 -5 10 -11 12 -6 22 -19 22 -30 0 -11 7 -18 20 -18 11 0
20 -7 20 -15 0 -8 5 -15 10 -15 6 0 10 -9 10 -20 0 -11 5 -20 10 -20 6 0 10
-6 10 -13 0 -7 9 -19 20 -27 11 -8 20 -20 20 -27 0 -7 4 -13 8 -13 8 0 23 -11
69 -50 7 -5 28 -17 47 -27 20 -9 36 -22 36 -29 0 -7 9 -16 20 -19 11 -3 20
-13 20 -21 0 -8 5 -14 10 -14 6 0 10 7 10 16 0 11 5 14 16 10 8 -3 23 1 31 10
14 13 14 17 2 25 -8 5 -22 6 -31 3 -15 -4 -18 1 -18 25 0 17 -4 31 -10 31 -5
0 -10 8 -10 19 0 11 -12 23 -30 31 -16 7 -30 16 -30 21 0 4 -9 11 -20 14 -11
3 -20 13 -20 21 0 8 -4 14 -10 14 -5 0 -10 9 -10 20 0 11 -4 20 -10 20 -5 0
-10 9 -10 20 0 11 -4 20 -10 20 -6 0 -10 28 -10 65 0 37 4 65 10 65 6 0 10 16
10 35 0 19 5 35 10 35 6 0 10 11 10 25 0 14 5 25 10 25 6 0 10 7 10 15 0 8 5
15 10 15 6 0 10 7 10 15 0 8 5 15 10 15 6 0 10 7 10 15 0 8 5 15 10 15 6 0 10
9 10 21 0 11 18 38 40 59 22 21 40 43 40 48 0 5 14 15 30 22 17 7 30 16 30 20
0 4 14 13 30 20 17 7 30 17 30 22 0 15 68 78 85 78 8 0 15 4 15 8 0 13 68 42
84 36 7 -3 21 3 31 12 12 13 32 17 71 16 51 -1 54 0 54 23 0 14 -6 25 -12 25
-19 1 34 29 55 30 9 0 17 6 17 13 0 18 63 47 88 40 11 -2 33 2 48 11 31 16
118 21 198 10z m6050 -10 c9 -3 16 -10 16 -16 0 -10 25 -38 34 -38 3 0 6 9 6
20 0 11 5 20 10 20 6 0 10 -16 10 -35 0 -19 -4 -35 -10 -35 -5 0 -10 -9 -10
-19 0 -11 -9 -23 -20 -26 -11 -3 -20 -11 -20 -16 0 -5 -7 -9 -15 -9 -19 0 -74
-27 -93 -46 -7 -8 -21 -14 -31 -14 -10 0 -28 -9 -41 -20 -13 -11 -35 -23 -49
-26 -43 -9 -54 -12 -101 -29 -26 -10 -59 -14 -77 -11 -30 4 -33 2 -33 -20 0
-15 -6 -24 -15 -24 -19 0 -74 27 -92 46 -15 15 -17 34 -3 34 6 0 10 6 10 14 0
17 24 28 45 20 8 -4 15 -1 15 5 0 6 11 11 25 11 37 0 75 21 75 42 0 10 5 18
10 18 6 0 10 8 10 18 0 10 9 24 21 32 12 8 35 27 51 43 17 15 38 27 47 27 9 1
32 9 51 20 35 19 139 27 174 14z m-4444 -154 c0 -22 -4 -40 -8 -40 -5 0 -19
-9 -32 -20 -15 -13 -18 -20 -9 -20 11 0 11 -2 -1 -10 -8 -5 -28 -9 -45 -9 -16
0 -24 3 -17 6 14 6 16 33 2 33 -5 0 -10 7 -10 16 0 11 -5 14 -17 9 -39 -16
-46 -15 -19 1 16 9 40 27 54 41 19 19 32 24 53 19 16 -3 29 -1 29 4 0 6 5 10
10 10 6 0 10 -18 10 -40z m-19085 -622 c24 -11 36 -48 15 -48 -5 0 -10 -9 -10
-21 0 -33 -26 -52 -65 -46 -19 3 -35 2 -37 -2 -7 -19 -56 -20 -77 -2 -11 10
-21 22 -21 26 0 9 40 45 50 45 5 0 22 14 40 30 34 32 63 37 105 18z m19033
-455 c8 -8 9 -13 3 -13 -6 0 -11 -11 -11 -24 0 -16 -7 -27 -20 -31 -23 -7 -26
-21 -7 -28 6 -3 2 -6 -10 -6 -16 -1 -23 -7 -23 -20 0 -11 -9 -23 -20 -26 -11
-3 -20 -13 -20 -21 0 -8 -7 -14 -15 -14 -25 0 -65 -23 -65 -37 0 -7 -11 -13
-25 -13 -27 0 -75 -19 -75 -30 0 -4 -17 -11 -37 -15 -20 -4 -53 -15 -73 -25
-21 -11 -47 -16 -63 -13 -15 3 -27 1 -27 -4 0 -4 -18 -8 -40 -8 -22 0 -40 3
-40 7 0 5 5 8 10 8 6 0 10 11 10 25 0 14 5 25 10 25 6 0 10 14 10 30 0 17 5
30 10 30 6 0 10 9 10 20 0 13 7 20 19 20 11 0 26 7 35 15 8 8 21 15 30 15 8 0
21 6 29 14 18 19 173 96 191 96 8 0 21 6 28 13 33 33 147 40 176 10z m8712
-1618 c0 -69 3 -95 13 -95 8 0 7 -4 -3 -10 -10 -6 -11 -10 -2 -10 8 0 12 -18
12 -55 0 -43 3 -55 15 -55 15 0 24 -6 58 -36 30 -26 61 -35 122 -32 36 1 65 6
65 10 0 4 5 8 10 8 6 0 10 -9 10 -20 0 -11 5 -20 10 -20 6 0 10 5 10 11 0 34
49 48 95 27 21 -9 32 -8 61 5 19 9 37 17 39 17 3 0 5 -22 5 -48 0 -48 0 -48
-52 -74 -51 -26 -52 -27 -21 -27 17 -1 38 -8 47 -16 16 -16 46 -20 46 -6 0 15
33 23 41 10 5 -9 11 -8 23 4 9 8 16 20 16 25 0 5 15 9 33 9 41 1 107 -15 107
-26 0 -5 21 -9 47 -8 35 0 53 6 71 24 12 12 27 23 32 23 6 0 10 14 10 31 0 36
12 49 66 77 102 52 295 59 469 18 38 -9 82 -16 97 -16 24 0 28 -4 28 -30 0
-27 2 -29 30 -23 l30 6 0 -82 c0 -47 4 -81 10 -81 6 0 10 -11 10 -25 0 -18 5
-25 20 -25 11 0 20 -4 20 -10 0 -5 5 -10 10 -10 6 0 10 10 10 21 0 18 5 20 27
16 42 -8 93 25 93 59 0 20 39 57 54 50 46 -19 46 -19 46 12 0 18 6 32 16 36
27 10 44 7 44 -10 0 -9 14 -29 30 -44 17 -15 30 -33 30 -39 0 -6 5 -11 10 -11
6 0 10 -16 10 -35 0 -19 -4 -35 -10 -35 -5 0 -10 -20 -10 -45 0 -43 1 -45 24
-39 26 6 62 -9 87 -38 9 -10 24 -18 33 -18 10 0 16 -9 16 -25 0 -14 5 -25 10
-25 6 0 10 -6 10 -14 0 -8 9 -18 20 -21 11 -3 20 -13 20 -21 0 -8 5 -14 10
-14 6 0 10 -7 10 -15 0 -9 10 -15 28 -16 15 -1 47 -2 71 -3 25 -1 49 3 56 11
8 7 20 13 28 13 9 0 17 5 19 11 5 14 38 0 38 -17 0 -8 -4 -14 -10 -14 -6 0
-10 -43 -10 -110 0 -67 -4 -110 -10 -110 -15 0 -13 -110 3 -111 10 0 10 -2 0
-6 -19 -7 -16 -27 7 -43 11 -8 20 -20 20 -28 0 -24 25 -40 53 -35 20 4 27 1
27 -11 0 -9 5 -16 10 -16 6 0 10 -9 10 -20 0 -12 7 -20 16 -20 22 0 44 -25 44
-49 0 -12 5 -21 10 -21 6 0 10 -13 10 -30 0 -16 5 -30 10 -30 6 0 10 -7 10
-15 0 -8 5 -15 10 -15 15 0 12 -58 -2 -63 -9 -3 -6 -11 10 -24 12 -11 22 -25
22 -31 0 -14 22 -21 102 -32 92 -13 278 -105 278 -137 0 -5 9 -15 21 -23 43
-30 79 -68 79 -84 0 -9 4 -16 8 -16 5 0 19 -8 30 -19 18 -15 22 -29 22 -75 0
-31 5 -56 10 -56 6 0 10 -13 10 -29 0 -22 6 -31 30 -41 18 -8 30 -20 30 -31 0
-11 5 -19 10 -19 6 0 10 -15 10 -34 0 -26 5 -36 20 -41 11 -3 20 -14 20 -24 0
-11 12 -24 30 -31 17 -7 30 -19 30 -26 0 -8 9 -14 21 -14 19 0 94 -21 152 -42
15 -6 27 -16 27 -23 0 -17 21 -24 53 -18 37 7 87 -15 87 -38 0 -15 6 -17 38
-12 20 3 39 10 40 15 6 14 42 9 42 -7 0 -8 -4 -15 -10 -15 -14 0 -12 -27 3
-34 10 -5 10 -7 0 -12 -7 -3 -13 -12 -13 -20 0 -8 -4 -14 -10 -14 -5 0 -10 -7
-10 -15 0 -8 -4 -15 -10 -15 -5 0 -10 -13 -10 -28 0 -16 -8 -34 -20 -42 -11
-8 -20 -26 -20 -40 0 -14 -9 -32 -20 -40 -11 -8 -20 -25 -20 -37 0 -13 -4 -23
-10 -23 -5 0 -10 -9 -10 -20 0 -11 -4 -20 -10 -20 -5 0 -10 -13 -10 -28 0 -16
-8 -34 -20 -42 -11 -8 -20 -21 -20 -30 0 -9 -9 -22 -20 -30 -11 -8 -20 -22
-20 -32 0 -10 -4 -18 -10 -18 -5 0 -10 -9 -10 -20 0 -11 -4 -20 -10 -20 -14 0
-12 -37 3 -44 10 -5 10 -7 0 -12 -7 -3 -13 -17 -13 -30 0 -13 -4 -24 -10 -24
-5 0 -10 -9 -10 -20 0 -11 -4 -20 -8 -20 -14 0 -52 -36 -52 -49 0 -6 -4 -11
-10 -11 -5 0 -10 -7 -10 -16 0 -10 5 -14 15 -10 8 3 22 9 30 12 25 10 20 -78
-5 -96 -11 -8 -20 -20 -20 -27 0 -7 -4 -13 -10 -13 -5 0 -10 -7 -10 -15 0 -8
-4 -15 -10 -15 -5 0 -10 -18 -10 -40 0 -22 -4 -40 -10 -40 -5 0 -10 -18 -10
-40 0 -22 5 -40 10 -40 6 0 10 7 10 15 0 8 5 15 10 15 6 0 10 7 10 15 0 8 5
15 10 15 6 0 10 5 10 11 0 6 14 24 30 39 17 15 30 33 30 39 0 6 9 11 20 11 11
0 20 -6 20 -13 0 -7 9 -19 20 -27 21 -15 27 -40 10 -40 -5 0 -10 -8 -10 -18 0
-10 -9 -24 -20 -32 -11 -8 -20 -22 -20 -32 0 -10 -5 -18 -12 -18 -6 0 -9 -2
-6 -5 8 -8 38 6 38 17 0 16 53 58 74 58 3 0 6 -25 6 -55 0 -30 -4 -55 -10 -55
-5 0 -10 -7 -10 -15 0 -8 -4 -15 -10 -15 -5 0 -10 -9 -10 -20 0 -11 -4 -20
-10 -20 -5 0 -10 -7 -10 -15 0 -8 -4 -15 -10 -15 -5 0 -10 -7 -10 -15 0 -8 -4
-15 -10 -15 -5 0 -10 -6 -10 -14 0 -8 -9 -18 -20 -21 -11 -3 -20 -12 -20 -18
0 -7 -9 -19 -20 -27 -11 -8 -20 -20 -20 -27 0 -7 -4 -13 -10 -13 -5 0 -10 -7
-10 -15 0 -8 -4 -15 -10 -15 -5 0 -10 -7 -10 -15 0 -8 -4 -15 -10 -15 -5 0
-10 -11 -10 -25 0 -14 -4 -25 -10 -25 -5 0 -10 -13 -10 -30 0 -16 -4 -30 -10
-30 -5 0 -10 -9 -10 -20 0 -11 -4 -20 -10 -20 -5 0 -10 -7 -10 -15 0 -8 -4
-15 -10 -15 -5 0 -10 -9 -10 -19 0 -11 -9 -23 -20 -26 -14 -4 -20 -15 -20 -36
0 -16 -4 -29 -10 -29 -5 0 -10 -9 -10 -20 0 -11 -4 -20 -10 -20 -5 0 -10 -11
-10 -25 0 -14 -4 -25 -10 -25 -5 0 -10 -10 -10 -21 0 -24 -35 -59 -57 -59 -19
0 -43 -25 -43 -44 0 -9 -4 -16 -10 -16 -5 0 -10 -9 -10 -20 0 -11 -4 -20 -10
-20 -5 0 -10 -7 -10 -15 0 -8 -4 -15 -10 -15 -5 0 -10 -9 -10 -20 0 -11 -4
-20 -10 -20 -5 0 -10 -7 -10 -15 0 -8 -4 -15 -10 -15 -5 0 -10 -10 -10 -21 0
-27 -33 -56 -76 -68 -18 -5 -44 -20 -57 -33 -13 -12 -34 -30 -47 -38 -20 -13
-45 -33 -76 -58 -5 -5 -21 -15 -34 -22 -23 -12 -35 -21 -63 -46 -34 -30 -64
-35 -139 -25 -5 1 -8 7 -8 15 0 17 -24 28 -45 20 -18 -7 -20 -60 -2 -68 9 -5
9 -7 0 -12 -22 -10 -73 -62 -73 -73 0 -6 -4 -11 -10 -11 -5 0 -10 -7 -10 -15
0 -8 -4 -15 -10 -15 -5 0 -10 -5 -10 -11 0 -10 -93 -103 -150 -149 -54 -44
-90 -78 -90 -85 0 -10 -60 -65 -71 -65 -5 0 -9 -6 -9 -13 0 -7 -10 -19 -21
-27 -12 -8 -28 -21 -36 -29 -8 -7 -23 -11 -37 -7 -18 4 -33 -2 -56 -23 -47
-42 -54 -47 -77 -60 -28 -15 -26 -15 -61 17 -16 15 -40 34 -52 42 -13 8 -33
25 -46 38 -28 27 -34 28 -34 2 0 -11 5 -20 10 -20 6 0 10 -9 10 -21 0 -11 22
-42 50 -69 55 -54 60 -66 30 -75 -11 -3 -20 -13 -20 -21 0 -8 -9 -14 -20 -14
-11 0 -20 7 -20 15 0 17 -2 18 -24 9 -9 -3 -16 -15 -16 -26 0 -26 -46 -69 -99
-93 -23 -10 -41 -22 -41 -28 0 -11 -39 -47 -52 -47 -4 0 -8 -6 -8 -13 0 -7 -9
-19 -20 -27 -22 -16 -27 -50 -7 -51 10 0 10 -2 0 -6 -7 -2 -13 -11 -13 -19 0
-8 -4 -14 -10 -14 -5 0 -10 -7 -10 -15 0 -8 -4 -15 -10 -15 -5 0 -10 -7 -10
-15 0 -8 -4 -15 -10 -15 -5 0 -10 -7 -10 -16 0 -16 -55 -74 -71 -74 -5 0 -9
-7 -9 -15 0 -8 -4 -15 -10 -15 -5 0 -10 -13 -10 -30 0 -16 5 -30 10 -30 6 0
10 -7 10 -15 0 -8 -4 -15 -10 -15 -5 0 -10 -7 -10 -15 0 -8 -4 -15 -10 -15 -5
0 -10 -7 -10 -15 0 -8 -4 -15 -10 -15 -5 0 -10 -11 -10 -24 0 -16 -7 -27 -20
-31 -11 -3 -20 -10 -20 -15 0 -5 -9 -12 -20 -15 -11 -3 -20 -13 -20 -21 0 -8
-4 -14 -10 -14 -5 0 -10 -9 -10 -20 0 -11 -4 -20 -10 -20 -5 0 -10 -7 -10 -15
0 -9 -9 -15 -25 -15 -26 0 -75 -19 -75 -30 0 -13 75 -42 124 -47 28 -3 68 -14
88 -24 21 -11 44 -19 53 -19 22 0 18 -28 -5 -35 -22 -7 -27 -25 -7 -26 10 0
10 -2 0 -6 -15 -6 -17 -33 -3 -33 6 0 10 -7 10 -16 0 -17 -18 -35 -60 -64 -12
-8 -28 -21 -36 -27 -7 -7 -32 -13 -56 -13 -53 0 -81 -14 -49 -25 41 -13 27
-23 -74 -57 -22 -7 -46 -19 -53 -25 -7 -7 -18 -13 -23 -13 -5 0 -9 -4 -9 -10
0 -16 28 -12 72 11 28 14 43 18 46 10 2 -6 15 -11 28 -11 39 0 94 -35 94 -59
0 -6 -4 -11 -10 -11 -5 0 -10 -11 -10 -24 0 -13 -6 -27 -12 -30 -7 -3 -3 -3
10 0 18 4 22 1 22 -20 0 -14 -4 -26 -10 -26 -5 0 -20 -10 -32 -23 -13 -13 -33
-29 -43 -35 -11 -6 -14 -12 -7 -12 6 0 12 -7 12 -15 0 -17 -16 -21 -22 -5 -4
12 -78 -7 -78 -20 0 -6 -10 -10 -22 -11 -13 0 -17 -3 -10 -6 6 -2 12 -11 12
-20 0 -10 6 -12 20 -8 27 9 26 -16 -1 -35 -12 -8 -27 -20 -34 -27 -7 -7 -33
-20 -56 -29 -119 -44 -175 -63 -187 -64 -23 0 -42 27 -42 59 0 24 -4 31 -20
31 -15 0 -20 7 -20 25 0 14 -4 25 -10 25 -5 0 -10 25 -10 55 0 37 -4 55 -12
55 -9 0 -8 3 2 10 18 11 8 23 -14 14 -9 -3 -16 -15 -16 -25 0 -21 -16 -26 -22
-7 -3 9 -9 8 -22 -5 -10 -9 -26 -17 -37 -17 -10 0 -19 -5 -19 -11 0 -7 -12 -9
-32 -6 -51 9 -113 -7 -142 -36 -15 -15 -31 -27 -36 -27 -6 0 -10 -9 -10 -20 0
-11 -4 -20 -10 -20 -5 0 -10 -6 -10 -13 0 -25 -109 -65 -122 -45 -5 10 -14 10
-40 -1 -45 -19 -118 -26 -118 -12 0 6 5 11 10 11 6 0 10 11 10 25 0 14 5 25
10 25 6 0 10 20 10 45 0 25 -4 45 -10 45 -5 0 -10 11 -10 23 0 26 -39 51 -65
41 -10 -4 -15 0 -15 10 0 9 5 16 10 16 6 0 10 7 10 15 0 8 5 15 10 15 6 0 10
7 10 15 0 8 5 15 10 15 6 0 10 16 10 35 0 19 -4 35 -10 35 -5 0 -10 -13 -10
-30 0 -16 -4 -30 -10 -30 -5 0 -10 -7 -10 -15 0 -18 -52 -33 -58 -17 -9 28
-22 8 -22 -33 0 -25 5 -45 10 -45 6 0 10 -18 10 -39 0 -31 -4 -41 -20 -46 -11
-3 -20 -10 -20 -14 0 -5 -13 -14 -30 -21 -16 -7 -30 -16 -30 -21 0 -5 -12 -12
-27 -15 -16 -4 -48 -17 -73 -29 -25 -13 -76 -27 -115 -33 -38 -6 -113 -18
-165 -27 -56 -10 -120 -14 -157 -11 -42 3 -63 2 -63 -6 0 -6 -11 -8 -27 -5
-15 3 -36 1 -46 -4 -9 -6 -33 -7 -52 -3 -32 6 -35 9 -35 40 0 19 5 34 10 34 6
0 10 24 10 54 0 46 3 56 20 61 11 3 20 11 20 16 0 5 7 9 16 9 8 0 23 7 31 16
14 13 14 17 2 25 -8 5 -22 6 -31 3 -12 -3 -18 0 -18 10 0 9 -4 16 -10 16 -6 0
-10 28 -10 63 0 51 -4 65 -20 77 -21 15 -28 50 -10 50 15 0 12 30 -2 31 -10 0
-10 2 0 6 14 6 17 73 2 73 -14 0 -12 38 3 43 8 3 5 11 -10 24 -29 26 -30 60
-1 69 20 6 20 7 3 16 -12 8 -20 7 -26 -3 -4 -7 -12 -10 -16 -5 -4 5 -3 10 2
13 34 12 38 21 21 39 -15 15 -19 15 -28 3 -7 -10 -11 -11 -14 -2 -3 6 -36 21
-75 33 -54 17 -69 26 -69 41 0 10 5 19 10 19 6 0 10 7 10 15 0 8 8 15 18 15
10 0 24 9 32 20 8 11 22 20 32 20 11 0 18 7 18 20 0 11 5 20 10 20 6 0 10 16
10 35 0 21 5 35 13 35 6 0 3 6 -8 12 -11 7 -26 18 -33 25 -7 7 -18 13 -23 13
-5 0 -9 12 -9 26 0 21 4 24 20 19 19 -6 20 -2 20 114 0 111 1 120 20 126 11 3
20 15 20 26 0 10 6 19 13 19 8 0 7 4 -3 11 -11 8 -12 12 -2 16 8 3 12 31 12
89 0 49 4 84 10 84 6 0 10 6 10 13 0 7 9 19 20 27 21 15 28 50 10 50 -5 0 -10
25 -10 55 0 30 5 55 10 55 6 0 10 9 10 20 0 11 -4 20 -10 20 -5 0 -10 11 -10
26 0 18 18 42 60 84 33 32 60 64 60 69 0 6 5 11 10 11 6 0 10 5 10 11 0 7 10
20 22 30 24 21 17 25 -15 7 -25 -13 -47 -34 -47 -44 0 -7 -26 -31 -60 -54 -43
-29 -80 -68 -80 -84 0 -9 -4 -16 -10 -16 -5 0 -10 -7 -10 -16 0 -11 -6 -14
-20 -9 -14 5 -20 2 -20 -9 0 -9 5 -16 10 -16 6 0 10 -22 10 -50 0 -27 5 -50
10 -50 6 0 10 -9 10 -20 0 -11 -4 -20 -10 -20 -5 0 -10 -11 -10 -25 0 -14 -4
-25 -10 -25 -5 0 -10 -7 -10 -15 0 -8 -9 -15 -20 -15 -13 0 -20 -7 -20 -20 0
-11 -4 -20 -10 -20 -5 0 -10 -9 -10 -20 0 -11 -4 -20 -10 -20 -5 0 -10 -7 -10
-15 0 -8 -4 -15 -10 -15 -5 0 -10 -7 -10 -15 0 -8 -4 -15 -8 -15 -16 0 -52
-37 -52 -54 0 -9 -4 -16 -10 -16 -5 0 -10 -13 -10 -30 0 -16 -4 -30 -10 -30
-5 0 -10 -20 -10 -44 0 -36 -4 -46 -20 -51 -11 -3 -20 -13 -20 -21 0 -8 -4
-14 -10 -14 -5 0 -10 -9 -10 -20 0 -11 -4 -20 -10 -20 -6 0 -10 -28 -10 -65 0
-37 -4 -65 -10 -65 -5 0 -10 -9 -10 -20 0 -13 -9 -21 -27 -25 -16 -3 -42 -10
-59 -15 -44 -14 -54 -12 -54 8 0 28 -73 59 -103 44 -12 -6 -16 -11 -9 -11 6
-1 12 -8 12 -16 0 -8 5 -15 10 -15 6 0 10 -16 10 -36 0 -29 -3 -35 -16 -30
-16 6 -44 -15 -44 -33 0 -6 -4 -11 -10 -11 -5 0 -10 -11 -10 -25 0 -14 -4 -25
-10 -25 -5 0 -21 -11 -35 -26 -14 -14 -30 -22 -36 -19 -5 4 -18 -3 -28 -14
-10 -12 -26 -21 -35 -21 -10 0 -16 -9 -16 -25 0 -14 -4 -25 -10 -25 -5 0 -10
-16 -10 -35 0 -19 -4 -35 -10 -35 -5 0 -10 -16 -10 -35 0 -19 5 -35 10 -35 6
0 10 -7 10 -15 0 -8 -4 -15 -10 -15 -5 0 -10 -9 -10 -20 0 -15 -9 -22 -30 -26
-16 -4 -30 -10 -30 -14 0 -4 -30 -13 -66 -19 -64 -12 -94 -28 -94 -50 0 -6 -4
-11 -9 -11 -11 0 -91 75 -91 85 0 13 -31 37 -38 30 -4 -4 -1 -10 6 -12 6 -3
12 -16 12 -29 0 -13 5 -24 10 -24 6 0 10 -9 10 -20 0 -11 5 -20 10 -20 6 0 10
-11 10 -25 0 -14 5 -25 10 -25 20 0 9 -27 -15 -38 -31 -14 -52 -15 -57 -4 -1
5 -20 7 -40 4 -28 -3 -38 -9 -38 -21 0 -25 -44 -43 -120 -48 -68 -5 -120 -19
-120 -34 0 -5 -15 -9 -32 -8 -18 0 -53 -5 -78 -11 -71 -19 -155 -23 -181 -9
-17 9 -24 9 -27 0 -2 -6 -16 -11 -31 -11 -15 0 -33 -9 -41 -20 -8 -11 -22 -20
-32 -20 -9 0 -28 -11 -42 -25 -21 -21 -28 -23 -58 -15 -45 14 -58 12 -58 -4 0
-8 -9 -18 -20 -21 -11 -3 -20 -12 -20 -19 0 -9 -22 -15 -67 -20 -38 -3 -90 -8
-118 -11 -27 -3 -68 -7 -90 -9 -28 -3 -54 3 -87 20 -75 38 -129 54 -186 54
-48 0 -179 26 -260 51 -17 6 -42 7 -53 4 -12 -4 -39 0 -63 10 -22 10 -58 24
-78 33 -21 8 -38 19 -38 24 0 4 -7 8 -15 8 -9 0 -27 10 -40 23 -13 12 -36 32
-52 45 -15 12 -39 31 -52 42 -13 11 -28 20 -33 20 -4 0 -8 6 -8 13 0 7 -9 19
-20 27 -11 8 -20 20 -20 27 0 7 -4 13 -10 13 -5 0 -10 7 -10 15 0 8 -4 15 -10
15 -5 0 -10 20 -10 45 0 25 -4 45 -10 45 -15 0 -12 70 3 71 10 0 10 2 0 6 -15
6 -18 93 -3 93 6 0 10 11 10 25 0 14 5 25 10 25 6 0 10 27 10 60 0 33 4 60 10
60 6 0 10 18 10 40 0 22 5 40 10 40 6 0 10 9 10 20 0 11 5 20 10 20 6 0 10 10
10 23 0 12 9 29 20 37 11 8 20 22 20 32 0 10 5 18 10 18 6 0 10 15 10 33 0 21
7 38 20 47 11 8 20 20 20 27 0 7 6 13 13 13 6 0 29 5 50 11 29 8 37 15 37 33
0 29 -24 40 -52 25 -23 -12 -39 -2 -18 11 13 8 12 10 -3 10 -10 0 -25 6 -33
14 -16 16 -19 76 -4 76 6 0 10 8 10 18 0 24 40 42 93 42 49 0 78 13 52 24 -9
3 -21 4 -26 1 -4 -3 -26 3 -48 15 -22 11 -45 20 -51 20 -6 0 -18 6 -26 14 -7
8 -19 17 -26 20 -10 5 -10 7 0 12 14 7 16 54 2 54 -5 0 -10 9 -10 20 0 11 5
20 10 20 6 0 10 27 10 60 0 41 -4 60 -12 60 -9 0 -8 4 2 10 10 6 11 10 3 10
-9 0 -13 16 -13 45 0 25 -4 45 -10 45 -27 0 -5 21 33 31 l42 12 -32 9 c-23 6
-33 15 -33 28 0 11 -4 20 -10 20 -5 0 -10 7 -10 15 0 8 -6 15 -12 16 -10 0
-10 2 0 6 14 6 16 33 2 33 -5 0 -10 11 -10 25 0 14 -4 25 -10 25 -5 0 -10 25
-10 55 0 30 -4 55 -10 55 -25 0 -6 28 33 48 38 20 32 22 -21 7 -30 -8 -62 27
-62 69 0 20 -4 36 -10 36 -5 0 -10 9 -10 19 0 11 -9 23 -20 26 -11 3 -20 11
-20 16 0 16 -27 39 -44 39 -11 0 -16 9 -16 28 0 16 -8 34 -20 42 -21 15 -28
50 -10 50 6 0 10 7 10 15 0 8 5 15 10 15 6 0 10 30 10 71 0 66 2 73 30 99 17
15 30 33 30 39 0 6 5 11 10 11 6 0 10 5 10 11 0 13 38 49 51 49 4 0 14 -7 23
-15 21 -22 26 -19 26 16 0 20 -8 39 -22 52 -16 13 -19 21 -10 24 6 3 12 9 12
15 0 5 14 23 30 38 17 15 30 33 30 39 0 6 5 11 10 11 6 0 10 -6 10 -14 0 -11
9 -13 34 -9 18 3 43 0 54 -6 30 -16 52 -4 52 30 0 16 -4 29 -10 29 -5 0 -10
11 -10 25 0 14 -4 25 -10 25 -5 0 -10 13 -10 28 0 16 -8 34 -20 42 -17 12 -20
26 -20 82 0 39 -4 68 -10 68 -6 0 -10 35 -10 85 0 50 4 85 10 85 6 0 10 16 10
35 0 19 5 35 10 35 6 0 10 20 10 45 0 25 5 45 10 45 6 0 10 15 10 34 0 28 5
36 30 46 29 12 41 30 20 30 -5 0 -10 7 -10 15 0 8 5 15 10 15 6 0 10 9 10 20
0 11 5 20 10 20 6 0 10 17 10 38 0 30 5 41 23 50 12 6 16 11 10 11 -10 1 -13
51 -13 215 0 206 1 215 20 221 11 4 20 15 20 26 0 11 6 27 14 35 17 16 46 19
46 4 0 -5 9 -10 20 -10 17 0 20 7 20 53 0 42 4 56 21 67 11 8 30 22 40 31 11
9 33 22 49 29 17 7 30 19 30 26 0 8 9 14 20 14 11 0 20 6 20 14 0 8 8 17 19
21 10 3 28 14 41 25 12 10 47 26 78 35 31 9 84 25 117 36 89 30 195 51 221 45
12 -3 24 -1 26 4 2 6 29 14 61 17 48 5 57 3 57 -10 0 -9 9 -19 20 -22 18 -6
20 -15 20 -85 0 -53 -4 -80 -12 -83 -7 -3 6 -6 30 -6 40 -1 42 -2 42 -32 0
-26 3 -30 18 -24 9 4 27 10 40 12 20 5 22 2 22 -41 0 -25 -4 -46 -10 -46 -15
0 -12 -19 4 -36 17 -16 46 -19 46 -4 0 6 9 10 20 10 14 0 20 -7 20 -24 0 -13
6 -27 13 -29 9 -4 8 -8 -3 -16 -12 -9 -11 -11 8 -11 12 0 22 5 22 10 0 6 5 10
10 10 6 0 10 -7 10 -15 0 -8 9 -15 20 -15 11 0 20 5 20 10 0 6 5 10 10 10 6 0
10 -16 10 -35 0 -19 5 -35 10 -35 6 0 10 -11 10 -25 0 -14 -4 -25 -10 -25 -5
0 -10 -9 -10 -20 0 -11 -4 -20 -10 -20 -5 0 -10 -6 -10 -14 0 -8 -6 -16 -12
-19 -8 -2 -9 -8 -4 -13 5 -5 11 -4 13 4 3 6 13 12 24 12 10 0 19 5 19 10 0 6
9 10 20 10 16 0 20 7 20 30 0 17 5 30 10 30 6 0 10 7 10 15 0 8 5 15 10 15 6
0 10 11 10 25 0 14 5 25 10 25 6 0 10 9 10 20 0 11 -4 20 -10 20 -5 0 -10 7
-10 15 0 8 -4 15 -10 15 -15 0 -13 90 3 91 10 0 10 2 0 6 -8 3 -13 23 -13 48
0 25 -5 46 -12 49 -10 5 -10 7 0 12 6 3 12 10 12 15 0 19 51 61 85 70 65 18
30 49 -56 49 -28 0 -29 1 -29 55 0 30 -4 55 -10 55 -6 0 -10 37 -10 90 0 53
-4 90 -10 90 -5 0 -10 6 -10 13 0 15 -41 37 -70 37 -28 0 -50 11 -50 25 0 17
23 25 49 18 43 -11 111 26 111 61 0 9 5 16 10 16 6 0 10 8 10 18 0 10 9 24 20
32 11 8 20 20 20 27 0 7 5 13 10 13 6 0 10 11 10 24 0 13 6 26 12 28 17 6 -14
38 -36 38 -11 0 -16 9 -16 30 0 17 -4 30 -10 30 -5 0 -10 11 -10 25 0 14 -4
25 -10 25 -5 0 -10 7 -10 15 0 8 5 15 10 15 6 0 10 6 10 14 0 18 20 25 53 19
25 -5 27 -3 27 27 0 37 14 53 55 65 27 8 28 9 8 12 -25 5 -32 33 -8 33 8 0 30
8 50 17 24 12 31 19 23 25 -10 6 -10 8 0 8 6 0 12 7 12 15 0 8 -4 15 -10 15
-5 0 -10 7 -10 15 0 8 -4 15 -8 15 -14 0 -52 36 -52 49 0 6 -4 11 -10 11 -5 0
-10 6 -10 14 0 13 25 26 78 41 24 7 82 -11 82 -26 0 -4 21 -11 48 -15 65 -9
112 -36 112 -63 0 -6 5 -11 10 -11 6 0 10 -7 10 -15 0 -8 4 -15 9 -15 5 0 16
7 25 15 8 8 22 15 30 15 23 0 20 17 -4 25 -14 4 -20 15 -20 36 0 16 -4 29 -10
29 -5 0 -10 7 -10 15 0 8 -4 15 -10 15 -5 0 -10 11 -10 24 0 16 -7 27 -20 31
-11 3 -20 13 -20 21 0 8 -4 14 -10 14 -5 0 -10 6 -10 14 0 19 41 25 97 15 26
-5 69 -6 95 -3 33 5 48 3 48 -5 0 -6 5 -11 10 -11 6 0 10 9 10 20 0 11 -5 20
-11 20 -6 0 -4 7 5 15 8 8 26 15 40 15 14 0 26 5 26 10 0 6 -4 10 -10 10 -21
0 -9 32 26 66 36 36 58 40 107 19 15 -6 17 -1 17 34 0 23 5 41 10 41 6 0 10
14 10 31 0 30 30 69 52 69 4 0 8 11 8 25 0 14 5 25 10 25 6 0 10 7 10 16 0 20
24 44 44 44 11 0 16 9 16 28 0 16 8 34 20 42 11 8 20 22 20 32 0 10 5 18 10
18 6 0 10 18 10 40 0 22 2 40 5 40 19 0 55 -26 55 -40 0 -10 13 -23 30 -30 30
-13 40 -30 18 -30 -7 -1 1 -8 17 -17 17 -9 32 -19 35 -22 3 -3 19 -6 35 -7 17
0 47 -4 68 -8 35 -8 37 -7 37 18 0 14 -4 26 -10 26 -5 0 -10 6 -10 13 0 7 -9
19 -20 27 -17 12 -20 26 -20 91 0 72 1 76 27 88 18 8 28 9 33 1 3 -6 20 -14
36 -19 16 -5 37 -12 47 -16 12 -5 17 -2 17 9 0 9 5 16 10 16 6 0 10 -6 10 -14
0 -14 21 -26 46 -26 8 0 14 9 14 19 0 20 32 39 38 22 9 -26 22 -8 22 29 0 22
5 40 10 40 6 0 10 -7 10 -15 0 -8 5 -15 10 -15 6 0 10 4 10 9 0 5 14 11 30 15
18 3 30 12 30 21 0 8 4 15 9 15 5 0 23 13 40 29 18 17 41 33 52 36 10 4 19 15
19 25 0 13 10 20 36 25 44 8 84 25 84 37 0 4 9 8 20 8 11 0 20 5 20 10 0 6 8
10 18 10 21 0 62 32 62 48 0 6 8 13 19 17 16 5 31 16 78 55 7 5 21 10 32 10
29 0 51 11 51 25 0 6 18 20 40 30 30 13 40 24 40 41 0 14 8 25 20 29 11 3 20
10 20 14 0 16 59 33 110 33 42 0 50 3 50 19 0 12 7 19 20 19 16 0 20 -7 20
-31 0 -20 8 -39 22 -50 24 -22 28 -22 48 -8 11 8 12 12 3 16 -8 3 -13 23 -13
48 0 39 7 52 33 54 4 1 7 -42 7 -94z m-27966 -58 c40 -20 66 -56 66 -90 0 -29
-5 -37 -30 -47 -21 -9 -30 -19 -30 -36 0 -13 -4 -24 -10 -24 -5 0 -10 -7 -10
-15 0 -8 -4 -15 -10 -15 -5 0 -10 -7 -10 -15 0 -8 -4 -15 -10 -15 -5 0 -10 -6
-10 -14 0 -7 -12 -16 -28 -19 -15 -3 -38 -15 -51 -26 -13 -12 -32 -21 -42 -21
-19 0 -99 72 -99 89 0 6 -4 11 -10 11 -5 0 -10 5 -10 10 0 6 -16 27 -35 46
l-36 35 -27 -29 c-35 -37 -63 -52 -101 -52 -47 0 -61 9 -61 42 0 29 43 80 100
118 12 8 28 20 34 26 22 21 71 41 116 48 41 6 146 -10 193 -29 10 -4 17 -3 17
4 0 37 43 45 94 18z m3714 -2289 c26 -6 53 -18 60 -25 7 -7 18 -13 23 -13 5 0
9 -9 9 -20 0 -11 5 -20 10 -20 6 0 10 -37 10 -90 0 -53 -4 -90 -10 -90 -5 0
-10 -9 -10 -20 0 -11 -4 -20 -10 -20 -5 0 -10 -7 -10 -15 0 -8 -4 -15 -10 -15
-5 0 -10 -7 -10 -15 0 -8 -4 -15 -10 -15 -5 0 -10 -11 -10 -25 0 -14 5 -25 10
-25 6 0 10 -7 10 -15 0 -8 5 -15 10 -15 6 0 10 -38 10 -95 0 -57 4 -95 10 -95
6 0 10 -47 10 -120 0 -73 4 -120 10 -120 6 0 10 -22 10 -50 0 -27 -4 -50 -10
-50 -5 0 -10 -22 -10 -50 0 -27 -4 -50 -10 -50 -5 0 -10 -20 -10 -45 0 -25 -4
-45 -10 -45 -5 0 -10 -5 -10 -10 0 -14 -46 -60 -60 -60 -6 0 -32 -11 -59 -24
-75 -39 -199 -60 -312 -53 -93 5 -128 15 -157 44 -7 7 -20 13 -28 13 -22 0
-94 39 -120 65 -15 15 -24 36 -24 55 0 27 -3 30 -29 30 -20 0 -42 -12 -70 -37
-59 -55 -68 -62 -96 -75 -14 -6 -25 -17 -25 -25 0 -7 -4 -13 -10 -13 -5 0 -10
-19 -10 -41 0 -41 -26 -79 -54 -79 -6 0 -28 -5 -48 -11 -31 -8 -38 -15 -38
-34 0 -14 5 -25 10 -25 6 0 10 -7 10 -15 0 -8 5 -15 10 -15 6 0 10 -13 10 -30
0 -16 -4 -30 -10 -30 -5 0 -10 -5 -10 -11 0 -19 -95 -104 -138 -123 -27 -12
-42 -26 -42 -38 0 -10 -4 -18 -10 -18 -5 0 -10 -7 -10 -15 0 -8 -4 -15 -10
-15 -5 0 -10 -5 -10 -11 0 -17 -33 -43 -80 -64 -22 -10 -40 -21 -40 -25 0 -4
-19 -15 -42 -24 -24 -10 -67 -29 -97 -42 -70 -33 -194 -74 -220 -74 -12 0 -21
-4 -21 -8 0 -11 -83 -50 -153 -73 -33 -11 -83 -18 -115 -17 -31 1 -67 -4 -79
-10 -12 -7 -31 -12 -43 -12 -11 0 -43 -11 -70 -25 -27 -14 -54 -25 -60 -25
-14 0 -60 -46 -60 -59 0 -5 -9 -13 -20 -16 -11 -3 -20 -10 -20 -14 0 -14 -52
-31 -90 -31 -101 2 -227 -14 -264 -32 -21 -11 -64 -28 -95 -37 -49 -16 -93
-27 -245 -61 -51 -11 -66 -4 -66 32 0 29 -19 58 -39 58 -6 0 -35 12 -66 27
-38 19 -55 33 -55 46 0 21 31 53 61 62 11 4 19 11 19 17 0 14 37 46 61 53 11
4 19 13 19 21 0 8 5 14 10 14 6 0 10 7 10 16 0 22 49 66 99 89 31 14 41 24 41
42 0 12 5 23 10 23 6 0 10 7 10 15 0 8 4 15 8 15 8 0 26 13 71 51 18 16 80 38
108 39 32 0 53 11 53 26 0 8 5 14 10 14 6 0 10 11 10 25 0 14 5 25 10 25 6 0
10 7 10 15 0 8 5 15 10 15 6 0 10 7 10 15 0 8 5 15 10 15 6 0 10 6 10 13 0 7
9 19 20 27 11 8 20 20 20 27 0 7 5 13 10 13 6 0 10 5 10 10 0 16 43 56 81 75
19 10 45 30 59 45 14 15 41 35 59 45 36 18 48 27 86 63 13 12 29 22 35 22 26
0 100 48 100 65 0 22 77 65 115 65 56 0 177 48 423 166 83 40 145 64 166 64
19 0 41 7 50 15 8 8 19 15 26 15 13 0 167 77 187 93 7 7 20 18 28 25 21 19 72
32 122 32 37 0 48 6 87 44 24 25 68 57 97 71 68 35 79 47 79 84 0 17 5 31 10
31 6 0 10 6 10 13 0 8 23 24 50 37 46 22 64 40 40 40 -5 0 -10 6 -10 13 0 7
-9 19 -20 27 -11 8 -20 22 -20 32 0 10 -4 18 -10 18 -5 0 -10 9 -10 20 0 11
-4 20 -10 20 -5 0 -10 7 -10 15 0 8 5 15 10 15 6 0 10 6 10 14 0 7 14 19 30
26 17 7 30 16 30 20 0 4 18 15 40 25 22 10 40 22 40 27 0 4 7 8 15 8 15 0 25
6 59 37 19 17 88 42 176 63 41 10 95 26 120 35 90 35 179 43 258 23z m31259
-704 c14 -13 14 -17 2 -25 -12 -8 -12 -10 1 -19 12 -8 11 -10 -7 -10 -13 0
-23 -5 -23 -11 0 -6 -7 -8 -16 -5 -16 6 -44 -15 -44 -33 0 -6 -4 -11 -10 -11
-5 0 -10 -11 -10 -24 0 -16 -7 -27 -20 -31 -11 -3 -20 -11 -20 -17 0 -11 -58
-68 -70 -68 -4 0 -23 -14 -41 -31 -18 -16 -45 -33 -61 -36 -15 -3 -28 -12 -28
-19 0 -8 -9 -14 -20 -14 -11 0 -20 7 -20 15 0 8 -4 15 -10 15 -17 0 -11 18 9
25 24 7 61 39 61 53 0 6 9 14 20 17 11 3 20 10 20 15 0 5 9 12 20 15 11 3 20
13 20 21 0 8 5 14 10 14 6 0 10 5 10 11 0 15 76 86 100 94 11 4 20 11 20 16 0
5 7 9 16 9 18 0 44 23 44 39 0 16 29 13 47 -5z m-407 -376 c0 -10 -4 -18 -10
-18 -5 0 -10 -10 -10 -21 0 -19 -4 -21 -30 -15 -17 3 -30 1 -30 -4 0 -6 5 -10
12 -10 26 0 -36 -39 -73 -45 -24 -4 -39 -12 -39 -21 0 -8 -9 -14 -20 -14 -11
0 -20 -4 -20 -8 0 -7 -63 -42 -75 -42 -14 0 -2 38 15 50 11 8 20 20 20 27 0 8
14 13 40 13 29 0 40 4 40 15 0 8 5 15 10 15 6 0 10 6 10 14 0 15 23 27 43 22
6 -1 9 -1 5 1 -30 17 31 60 84 60 20 0 28 -5 28 -19z m-340 -1039 c0 -6 7 -9
15 -5 28 10 45 -5 45 -40 0 -19 -4 -34 -10 -34 -5 0 -10 -9 -10 -20 0 -16 -7
-20 -32 -21 -24 -1 -27 -3 -10 -6 17 -3 22 -11 22 -34 0 -16 5 -29 10 -29 6 0
10 -9 10 -20 0 -11 -4 -20 -10 -20 -5 0 -10 -9 -10 -20 0 -11 -4 -20 -10 -20
-5 0 -10 -13 -10 -28 0 -16 -8 -34 -20 -42 -17 -12 -20 -26 -20 -97 0 -49 4
-83 10 -83 6 0 10 -11 10 -24 0 -16 7 -27 20 -31 11 -3 20 -15 20 -26 0 -10 5
-19 10 -19 6 0 10 -6 10 -14 0 -8 6 -17 13 -20 9 -5 9 -7 0 -12 -20 -9 -73
-61 -73 -71 0 -10 -43 -33 -61 -33 -10 0 -24 -10 -64 -47 -14 -13 -31 -20 -39
-17 -11 4 -16 0 -16 -13 0 -14 -13 -22 -47 -33 -53 -15 -73 -30 -73 -54 0 -9
-6 -16 -12 -16 -9 0 -8 -4 2 -10 12 -8 11 -10 -7 -10 -13 0 -23 -6 -23 -13 0
-8 -18 -22 -40 -32 -25 -11 -40 -25 -40 -36 0 -10 -9 -21 -20 -24 -15 -5 -20
-15 -20 -41 0 -19 -4 -34 -10 -34 -5 0 -10 -7 -10 -15 0 -8 -4 -15 -9 -15 -5
0 -16 7 -25 15 -21 22 -46 19 -46 -5 0 -15 -9 -22 -30 -26 -16 -4 -30 -13 -30
-20 0 -8 -7 -14 -15 -14 -9 0 -21 -5 -28 -10 -46 -39 -61 -50 -69 -50 -4 0 -8
-6 -8 -13 0 -11 -39 -37 -55 -37 -3 0 -5 18 -5 40 0 43 0 43 -24 34 -11 -4
-16 -19 -16 -45 0 -24 -5 -39 -12 -40 -10 0 -10 -2 -1 -6 13 -5 -41 -63 -87
-93 -13 -8 -38 -29 -55 -47 -38 -37 -105 -73 -135 -73 -12 0 -32 -11 -46 -25
-14 -14 -33 -25 -44 -25 -10 0 -20 -4 -22 -9 -4 -12 -215 -115 -263 -128 -40
-11 -161 -35 -180 -36 -5 0 -29 1 -52 1 -41 2 -43 4 -43 32 0 17 -5 30 -12 31
-10 0 -10 2 0 6 20 8 14 51 -8 58 -14 4 -20 15 -20 36 0 20 -5 29 -16 29 -8 0
-22 7 -30 15 -8 8 -32 19 -52 24 -50 13 -229 13 -253 0 -19 -10 -23 -8 -62 27
-7 6 -28 19 -46 29 -18 9 -48 31 -66 49 -32 33 -34 33 -112 30 -43 -1 -85 1
-93 6 -11 7 -12 10 -2 10 22 0 -9 25 -40 33 -15 4 -33 14 -42 22 -8 8 -23 15
-33 16 -10 0 -13 3 -5 6 18 7 15 43 -4 43 -15 0 -44 23 -44 34 0 3 9 6 20 6
11 0 20 5 20 10 0 6 -4 10 -10 10 -5 0 -10 7 -10 15 0 16 -43 31 -60 20 -13
-8 -40 18 -40 39 0 9 -4 16 -10 16 -18 0 -10 42 12 61 11 11 24 19 28 19 6 0
22 12 67 50 7 5 19 10 28 10 8 0 15 6 15 13 0 14 40 37 65 37 8 0 15 6 15 13
0 16 62 47 95 47 14 0 25 5 25 10 0 6 9 10 19 10 11 0 26 6 33 13 7 6 29 18
48 25 19 8 57 22 84 33 27 10 52 23 55 27 3 5 20 12 36 14 33 6 97 30 105 39
3 3 17 9 33 13 15 3 27 11 27 16 0 6 11 10 25 10 25 0 85 25 95 40 3 4 52 31
110 60 58 29 107 56 108 61 2 5 12 9 23 9 32 0 99 24 99 36 0 14 46 35 64 28
7 -3 20 1 28 9 34 34 82 49 152 49 40 -1 72 -6 74 -11 8 -23 22 -10 22 19 0
23 -4 30 -20 30 -11 0 -20 5 -20 11 0 6 9 8 20 4 12 -4 20 -2 20 5 0 8 10 10
27 7 16 -3 50 3 78 14 30 11 51 15 53 9 6 -17 22 -11 22 9 0 12 9 20 27 24 33
6 53 -1 53 -18 0 -14 22 -25 48 -24 11 0 12 2 5 6 -21 8 -15 29 12 41 34 16
35 15 35 -8 0 -11 5 -20 10 -20 6 0 10 11 10 23 0 16 9 28 25 35 38 17 55 15
55 -8 0 -13 7 -20 20 -20 11 0 20 7 20 15 0 8 5 15 10 15 6 0 10 9 10 20 0 11
4 20 8 20 4 0 14 -9 22 -20 17 -24 30 -26 30 -4 0 11 5 14 18 9 71 -30 70 -30
90 -7 14 16 31 22 61 22 42 0 71 17 71 41 0 8 15 10 50 7 50 -5 50 -5 50 24
l0 30 58 -7 c47 -5 62 -3 74 9 9 8 35 22 58 30 37 13 45 13 57 0 19 -18 20
-18 49 11 14 14 20 25 14 25 -5 0 -10 7 -10 15 0 8 5 15 10 15 6 0 10 -5 10
-11z m-20980 -2919 c0 -5 18 -14 40 -20 22 -6 40 -15 40 -20 0 -6 5 -10 10
-10 6 0 10 6 10 13 0 24 45 37 82 26 45 -14 147 -26 246 -28 44 -1 52 -4 52
-20 0 -23 -11 -27 -100 -37 -76 -9 -274 -6 -278 4 -1 4 -38 6 -82 4 -76 -4
-80 -3 -80 17 0 12 -4 21 -10 21 -5 0 -10 -4 -10 -10 0 -5 -9 -10 -20 -10 -11
0 -20 2 -20 5 0 13 50 55 65 55 8 0 15 5 15 10 0 6 9 10 20 10 11 0 20 -4 20
-10z m-281 -118 c3 -5 44 -17 90 -26 47 -10 96 -23 110 -30 14 -7 38 -16 54
-20 25 -6 39 -26 17 -26 -5 0 -10 -7 -10 -15 0 -18 12 -18 99 -5 153 24 181
32 181 50 0 24 47 32 81 15 28 -15 142 -37 174 -34 42 4 65 -1 65 -16 0 -8 -6
-15 -12 -16 -10 0 -10 -2 0 -6 6 -2 12 -11 12 -19 0 -8 5 -14 10 -14 6 0 10
-9 10 -20 0 -11 5 -20 10 -20 6 0 10 11 10 25 0 28 -20 25 218 28 67 1 122 -1
122 -5 0 -5 14 -8 30 -8 23 0 30 -5 30 -19 0 -22 -30 -37 -40 -21 -5 8 -15 8
-33 -1 -21 -9 -33 -9 -52 -1 -38 17 -111 15 -130 -4 -9 -10 -24 -14 -37 -11
-12 3 -34 -1 -51 -9 -23 -13 -31 -13 -37 -3 -6 9 -12 9 -24 -4 -12 -11 -13
-17 -3 -20 6 -3 -5 -6 -27 -6 -24 -1 -45 -8 -55 -19 -9 -11 -29 -26 -46 -35
l-30 -16 26 -1 c15 0 53 8 85 19 129 41 305 49 552 24 l62 -6 0 -37 c0 -34 -3
-38 -51 -60 l-50 -24 32 -17 c31 -16 32 -17 11 -23 -13 -4 -22 -16 -22 -27 0
-10 -4 -19 -10 -19 -6 0 -10 -30 -10 -70 0 -40 -4 -70 -10 -70 -5 0 -10 -4
-10 -10 0 -5 9 -10 20 -10 11 0 20 -7 20 -15 0 -8 5 -15 10 -15 6 0 10 -11 10
-25 0 -14 -4 -25 -10 -25 -5 0 -10 -7 -10 -15 0 -8 -4 -15 -10 -15 -5 0 -10
-13 -10 -30 0 -23 -4 -30 -20 -30 -11 0 -20 -4 -20 -10 0 -5 9 -10 20 -10 16
0 20 -7 20 -35 0 -19 5 -35 10 -35 19 0 11 -65 -10 -80 -11 -8 -20 -22 -20
-32 0 -9 -9 -20 -20 -23 -21 -7 -28 -25 -10 -25 17 0 11 -37 -7 -44 -9 -4 -42
-4 -73 0 l-55 6 24 -21 c13 -11 29 -21 35 -21 6 -1 -2 -8 -17 -16 -37 -20
-137 -31 -137 -15 0 15 -37 14 -42 -1 -3 -9 -9 -8 -21 4 -10 9 -26 20 -37 23
-11 3 -20 15 -20 26 0 16 -7 19 -47 19 -27 1 -59 7 -73 15 -14 8 -42 14 -62
15 -20 0 -43 6 -50 13 -7 7 -33 19 -58 27 -43 14 -83 40 -61 40 6 0 11 9 11
20 0 11 5 20 10 20 6 0 10 9 10 19 0 11 6 22 13 24 6 3 1 6 -13 6 -18 1 -21 4
-11 10 10 6 1 11 -28 16 -22 4 -41 11 -41 16 0 5 -10 9 -22 9 -19 0 -20 -2 -8
-10 12 -8 10 -10 -10 -11 l-25 -1 25 -8 c16 -6 7 -7 -27 -3 -42 4 -53 3 -53
-9 0 -8 -22 -25 -50 -38 -27 -13 -50 -28 -50 -33 0 -5 -13 -7 -29 -4 -21 4
-36 0 -52 -14 -13 -11 -36 -23 -51 -26 -26 -5 -41 -33 -18 -33 6 0 10 5 10 10
0 6 9 10 20 10 26 0 25 -16 -3 -44 -56 -56 -97 -56 -97 0 0 32 -2 34 -32 34
-24 0 -29 -3 -18 -10 12 -7 10 -12 -9 -29 -13 -12 -29 -21 -35 -21 -6 0 -4 5
4 10 11 7 3 10 -30 11 -25 1 -35 4 -22 6 12 2 22 11 22 19 0 17 -5 17 -31 4
-20 -11 -50 -1 -77 27 -18 18 -32 17 -32 -3 0 -11 -5 -14 -16 -10 -10 4 -23
-2 -34 -14 -11 -13 -24 -18 -35 -14 -13 5 -14 9 -3 15 8 5 -7 9 -39 9 l-53 0
0 -44 c0 -40 2 -44 30 -49 37 -8 41 -39 8 -55 -13 -6 -17 -11 -10 -11 6 -1 12
-12 12 -26 0 -14 5 -25 10 -25 6 0 10 -6 10 -13 0 -17 42 -37 75 -37 30 0 33
-16 5 -25 -11 -3 -20 -15 -20 -26 0 -10 -6 -19 -12 -20 -10 0 -10 -2 0 -6 6
-2 12 -11 12 -19 0 -8 4 -14 8 -14 14 0 52 -36 52 -49 0 -6 -7 -11 -15 -11
-24 0 -85 33 -85 46 0 6 -12 14 -27 17 -28 5 -73 -10 -73 -25 0 -13 -26 -38
-40 -38 -21 0 -40 28 -40 59 0 17 -3 31 -6 31 -10 0 -34 -28 -34 -39 0 -6 -4
-11 -10 -11 -5 0 -10 7 -10 15 0 8 -9 15 -20 15 -11 0 -20 -4 -20 -10 0 -5 -4
-10 -10 -10 -5 0 -10 11 -10 25 0 14 -4 25 -10 25 -5 0 -10 9 -10 21 0 16 -4
19 -20 14 -27 -9 -60 3 -60 21 0 8 10 14 23 15 l22 0 -22 11 c-14 7 -23 20
-23 35 0 12 -4 23 -10 23 -5 0 -10 7 -10 15 0 8 -9 15 -20 15 -11 0 -20 6 -20
14 0 18 -20 25 -54 19 -21 -4 -24 -8 -14 -15 10 -7 10 -11 1 -15 -7 -2 -13
-16 -13 -30 0 -20 4 -23 20 -18 16 5 20 2 20 -19 0 -21 5 -26 24 -26 13 0 32
-3 40 -6 14 -5 13 -9 -6 -26 -16 -14 -19 -22 -10 -25 6 -3 12 -15 12 -28 0
-19 -8 -26 -37 -34 -21 -6 -44 -11 -50 -11 -7 0 -13 -4 -13 -10 0 -11 -39 -13
-64 -4 -24 9 -21 66 4 84 27 20 25 30 -6 30 -29 0 -67 31 -46 38 6 2 12 12 12
23 0 10 5 19 10 19 6 0 10 7 10 15 0 8 -4 15 -10 15 -5 0 -10 11 -10 25 0 14
-4 25 -10 25 -5 0 -10 7 -10 15 0 8 -4 15 -10 15 -5 0 -10 -7 -10 -15 0 -8 -6
-15 -12 -15 -10 0 -9 -3 1 -9 11 -7 9 -10 -8 -16 -11 -3 -21 -13 -21 -22 0
-14 -35 -53 -47 -53 -3 0 -11 6 -19 14 -16 17 -19 46 -4 46 6 0 10 11 10 25 0
14 -4 25 -10 25 -5 0 -10 16 -10 35 0 19 -4 35 -8 35 -5 0 -19 8 -30 19 -17
14 -22 30 -22 70 0 28 5 51 10 51 14 0 12 47 -2 54 -10 5 -10 7 1 12 11 5 11
8 0 15 -10 6 -11 9 -1 9 20 0 13 28 -9 35 -17 6 -19 9 -8 16 10 6 11 9 2 9 -8
0 -13 13 -13 30 0 17 -5 30 -12 31 -7 0 -3 5 10 11 12 6 22 17 22 25 0 25 25
41 53 36 16 -3 27 -1 27 6 0 6 -6 11 -12 12 -10 0 -10 2 0 6 6 2 12 16 12 29
0 13 6 24 13 25 6 0 2 5 -10 11 -25 12 -33 67 -10 69 10 0 10 2 0 6 -15 6 -17
43 -3 43 6 0 10 7 10 16 0 30 41 56 77 49 21 -4 43 0 62 10 17 8 50 15 76 15
25 0 45 5 45 10 0 6 9 10 20 10 11 0 20 -4 20 -10 0 -16 15 -12 40 10 13 11
31 20 42 20 10 0 18 5 18 11 0 6 18 28 40 49 34 32 40 45 40 79 l0 40 -72 -5
c-40 -2 -88 -9 -107 -14 -38 -10 -106 -4 -166 15 -22 7 -53 11 -68 8 -25 -5
-27 -3 -27 26 0 18 -5 31 -12 32 -10 0 -10 2 0 6 6 2 12 14 12 25 0 19 4 20
50 14 32 -4 50 -3 50 4 0 5 14 10 30 10 17 0 30 4 30 9 0 14 128 20 161 8 23
-9 32 -9 38 1 11 18 41 4 41 -19 0 -12 7 -19 20 -19 17 0 20 -7 20 -40 0 -22
5 -40 10 -40 6 0 10 16 10 35 0 19 5 35 10 35 6 0 10 9 10 20 0 11 5 20 10 20
6 0 10 -7 10 -15 0 -8 5 -15 10 -15 6 0 10 -7 10 -15 0 -8 2 -15 4 -15 2 0 11
-3 20 -6 11 -4 16 -1 16 10 0 9 -4 16 -10 16 -5 0 -10 4 -10 10 0 13 68 30
177 44 51 7 95 14 97 17 9 8 159 1 165 -9z m1235 -24 c13 -7 21 -7 26 1 3 7
14 9 24 5 34 -13 -20 -41 -97 -50 -109 -12 -206 -3 -176 17 12 8 12 10 -1 18
-10 7 -2 11 30 13 91 7 176 6 194 -4z m427 -489 c19 -17 21 -22 9 -29 -12 -8
-12 -10 3 -10 10 0 25 -7 33 -15 9 -8 27 -18 42 -22 29 -7 144 14 153 28 8 14
87 18 126 7 34 -9 34 -9 14 -27 -12 -10 -21 -26 -21 -35 0 -9 -4 -16 -10 -16
-5 0 -10 -12 -10 -26 0 -14 -6 -32 -14 -40 -18 -17 -26 -18 -26 -3 0 19 -41
49 -67 49 -14 0 -31 -7 -39 -15 -9 -8 -24 -15 -35 -15 -15 0 -19 -7 -19 -35 0
-19 -4 -35 -10 -35 -6 0 -10 -28 -10 -65 0 -37 4 -65 10 -65 23 0 8 -18 -20
-23 -18 -4 -30 -13 -30 -22 0 -8 -7 -15 -15 -15 -17 0 -77 -28 -85 -40 -10
-14 -49 -30 -74 -30 -13 0 -26 -5 -28 -11 -2 -7 -12 -7 -31 2 -21 10 -27 19
-27 46 0 18 -4 33 -10 33 -5 0 -10 10 -10 23 0 12 -9 29 -20 37 -29 21 -25 28
20 40 29 8 40 16 40 30 0 11 5 20 10 20 6 0 10 7 10 15 0 8 5 15 10 15 6 0 10
23 10 50 0 28 -4 50 -10 50 -5 0 -10 7 -10 15 0 8 -4 15 -10 15 -5 0 -10 24
-10 54 0 59 7 66 66 66 19 0 34 5 34 10 0 17 36 11 61 -11z m13759 -114 c152
-3 196 -8 249 -24 35 -12 67 -18 72 -16 4 3 26 -3 48 -15 22 -11 48 -20 57
-20 40 0 114 -36 114 -55 0 -13 -62 -65 -77 -65 -19 0 -63 -45 -63 -65 0 -8
-9 -15 -20 -15 -11 0 -20 -7 -20 -15 0 -9 -12 -18 -30 -21 -16 -4 -30 -10 -30
-15 0 -5 -22 -11 -50 -15 -32 -4 -50 -11 -50 -20 0 -8 -6 -14 -12 -15 -10 0
-10 -2 0 -6 6 -2 12 -18 12 -34 0 -16 5 -29 10 -29 6 0 10 -7 10 -15 0 -8 -4
-15 -10 -15 -5 0 -10 -9 -10 -20 0 -20 -39 -38 -58 -26 -16 9 -82 -14 -82 -29
0 -8 5 -15 10 -15 6 0 10 -7 10 -15 0 -8 -16 -19 -40 -25 -22 -6 -40 -17 -40
-25 0 -7 -9 -17 -20 -20 -11 -3 -20 -13 -20 -21 0 -8 -4 -14 -8 -14 -5 0 -18
-8 -30 -17 -11 -10 -30 -25 -42 -33 -12 -8 -28 -20 -34 -26 -24 -23 -56 -34
-100 -34 -25 0 -46 5 -46 10 0 6 -11 10 -24 10 -37 0 -56 10 -56 31 0 10 -4
19 -10 19 -6 0 -10 29 -10 68 0 56 -3 70 -20 82 -11 8 -20 20 -20 26 0 16 -34
28 -38 15 -5 -16 -42 -13 -42 3 0 8 9 18 20 21 24 7 27 35 4 35 -8 0 -22 6
-29 13 -38 33 -47 38 -78 39 -73 2 -102 19 -57 33 11 3 20 12 20 19 0 14 41
36 65 36 8 0 15 7 15 15 0 8 9 15 20 15 16 0 20 7 20 30 0 26 4 30 26 30 31 0
54 21 54 49 0 12 5 21 10 21 6 0 10 -4 10 -10 0 -5 5 -10 10 -10 6 0 10 6 10
13 0 7 9 19 20 27 11 8 20 20 20 27 0 7 4 13 9 13 5 0 27 17 49 38 22 20 49
44 61 52 11 8 21 21 21 28 0 9 6 12 18 7 9 -4 100 -8 202 -10z m-740 -810 c0
-8 5 -15 10 -15 6 0 10 -7 10 -15 0 -22 52 -19 80 5 13 11 34 20 47 20 13 0
33 4 43 10 25 13 50 3 50 -21 0 -10 5 -19 10 -19 6 0 10 -11 10 -25 0 -14 5
-25 10 -25 6 0 10 -6 10 -13 0 -7 9 -19 20 -27 11 -8 20 -20 20 -27 0 -7 6
-13 13 -13 18 -1 -115 -69 -135 -70 -10 0 -18 -4 -18 -8 0 -10 -65 -42 -85
-42 -7 0 -20 -6 -27 -14 -23 -22 -70 -43 -116 -50 -54 -8 -72 8 -72 63 0 23
-4 41 -10 41 -5 0 -10 9 -10 20 0 11 -7 20 -15 20 -22 0 -85 65 -85 87 0 10
10 25 21 33 12 8 27 21 35 28 7 6 20 12 28 12 10 0 16 9 16 24 0 27 14 32 93
35 36 1 47 -3 47 -14z m-24546 -3831 c43 -6 46 -9 46 -36 0 -35 -12 -48 -70
-78 -31 -16 -53 -20 -79 -16 -20 3 -74 11 -121 17 -91 13 -110 24 -110 62 0
38 13 41 256 55 17 1 52 -1 78 -4z m-4671 -3630 c17 -9 37 -23 45 -31 11 -10
26 -12 53 -8 35 6 39 5 39 -14 0 -17 6 -21 35 -21 42 0 85 19 85 37 0 7 9 13
20 13 11 0 20 4 20 9 0 5 10 11 23 14 12 2 29 7 37 9 8 3 12 3 8 1 -22 -12 5
-63 33 -63 6 0 19 -8 28 -17 24 -26 79 -46 133 -48 64 -2 78 -19 78 -94 0 -34
4 -61 10 -61 6 0 10 -9 10 -20 0 -11 -4 -20 -10 -20 -5 0 -10 -13 -10 -29 0
-21 6 -32 20 -36 11 -3 20 -12 20 -20 0 -8 -9 -17 -20 -20 -14 -4 -20 -15 -20
-34 0 -20 -7 -31 -26 -40 -14 -6 -30 -9 -35 -6 -5 3 -14 1 -21 -5 -49 -41 -63
-50 -80 -50 -10 0 -18 3 -18 8 0 7 -69 32 -90 32 -5 0 -10 -7 -10 -15 0 -8 -3
-15 -6 -15 -12 0 -34 29 -34 45 0 26 -24 43 -53 38 -20 -4 -27 -1 -27 11 0 9
-4 16 -10 16 -5 0 -10 9 -10 19 0 11 -9 23 -20 26 -13 4 -20 15 -20 30 0 15
-7 26 -20 30 -11 3 -20 11 -20 16 0 5 -9 9 -20 9 -15 0 -20 7 -20 25 0 27 -18
32 -51 15 -15 -9 -24 -6 -43 12 -14 13 -38 34 -55 48 -29 24 -30 29 -31 103 0
45 4 77 10 77 6 0 10 6 10 14 0 12 9 20 28 25 2 1 17 -6 35 -15z m15 -423 c17
-14 22 -30 22 -68 0 -47 -2 -52 -30 -63 -24 -10 -30 -19 -30 -41 0 -16 5 -29
13 -29 8 0 7 -4 -3 -10 -13 -9 -13 -11 0 -19 20 -14 6 -25 -23 -17 -28 7 -67
39 -67 55 0 6 -4 11 -10 11 -5 0 -10 16 -10 35 0 19 5 35 10 35 6 0 10 7 10
15 0 8 5 15 10 15 6 0 10 7 10 15 0 8 5 15 10 15 6 0 10 13 10 29 0 43 41 55
78 22z m5235 -5653 c12 -6 27 -17 34 -24 15 -15 17 -44 3 -44 -5 0 -10 -5 -10
-11 0 -37 -114 -55 -175 -27 -21 9 -25 18 -25 54 0 49 4 51 95 57 28 2 51 4
53 5 2 1 13 -3 25 -10z m-4880 -29 c12 -7 26 -17 30 -23 6 -8 10 -7 14 2 7 17
43 15 43 -3 0 -8 9 -15 20 -15 11 0 20 5 20 10 0 6 5 10 10 10 6 0 10 -7 10
-15 0 -8 7 -15 15 -15 20 0 65 -22 65 -32 0 -4 -13 -8 -30 -8 -24 0 -30 -4
-30 -21 0 -13 5 -19 13 -16 48 20 47 20 47 -7 0 -14 -4 -26 -10 -26 -5 0 -10
-7 -10 -15 0 -8 5 -15 10 -15 6 0 10 -9 10 -19 0 -19 21 -33 43 -27 6 1 9 1 5
-1 -20 -11 -5 -22 22 -16 26 5 30 2 30 -15 0 -12 -8 -23 -19 -27 -11 -3 -35
-19 -53 -36 -18 -16 -39 -34 -46 -40 -8 -6 -45 -13 -84 -16 -58 -3 -73 -1 -87
14 -11 13 -32 19 -69 19 -86 3 -142 14 -142 29 0 7 -9 17 -20 20 -11 3 -20 10
-20 14 0 12 -47 31 -75 31 -21 0 -25 5 -25 30 0 17 5 30 10 30 6 0 10 9 10 21
0 16 5 19 23 15 12 -3 16 -3 10 0 -7 3 -13 17 -13 30 0 13 -4 24 -10 24 -5 0
-10 -7 -10 -15 0 -8 -4 -15 -10 -15 -5 0 -10 -14 -10 -30 0 -26 -5 -31 -30
-36 -23 -5 -30 -12 -30 -30 0 -20 -4 -23 -40 -21 -37 1 -40 4 -40 29 0 16 -6
28 -12 28 -9 0 -8 4 2 11 11 8 12 12 3 16 -7 2 -13 9 -13 15 0 6 -10 19 -22
29 -18 16 -19 19 -4 19 19 0 46 23 46 39 0 6 9 11 19 11 11 0 21 4 23 9 2 4
24 11 49 15 36 5 50 3 62 -9 22 -21 47 -19 47 5 0 25 13 26 36 3 13 -13 19
-14 22 -5 5 17 22 15 22 -3 0 -17 2 -18 25 -9 13 5 14 9 3 15 -18 12 7 29 45
29 15 0 27 5 27 10 0 14 46 13 73 -1z m4222 -120 c36 -6 65 -15 65 -20 0 -5 5
-9 10 -9 6 0 10 6 10 14 0 17 24 28 45 20 17 -7 21 -54 5 -54 -5 0 -10 -7 -10
-15 0 -8 5 -15 10 -15 6 0 10 -7 10 -15 0 -8 9 -15 20 -15 19 0 20 -7 20 -101
l0 -101 -32 -31 c-23 -21 -29 -32 -19 -35 11 -4 11 -6 0 -13 -10 -6 -11 -9 -1
-9 6 0 12 -4 12 -10 0 -5 -9 -10 -20 -10 -13 0 -20 -7 -20 -19 0 -11 -9 -23
-20 -26 -11 -3 -20 -11 -20 -16 0 -5 -10 -9 -22 -9 -19 0 -20 2 -8 10 21 13 6
12 -25 -2 -20 -9 -25 -18 -25 -45 0 -30 -3 -33 -20 -28 -14 5 -20 2 -20 -9 0
-9 -4 -16 -10 -16 -5 0 -10 -6 -10 -13 0 -14 -60 -47 -85 -47 -8 0 -15 -7 -15
-15 0 -9 -10 -15 -27 -16 -76 -4 -87 -6 -91 -17 -2 -6 -21 -16 -43 -22 -21 -6
-39 -15 -39 -20 0 -6 -7 -10 -15 -10 -15 0 -25 -6 -60 -37 -18 -17 -25 -16
-25 2 0 19 -3 19 -50 -5 -21 -11 -46 -17 -54 -14 -9 3 -16 1 -16 -5 0 -6 -15
-11 -32 -11 -18 0 -58 -7 -88 -16 -68 -19 -136 -27 -217 -27 -35 0 -63 -4 -63
-9 0 -10 -30 -7 -62 7 -13 5 -18 2 -18 -10 0 -15 -9 -17 -70 -13 -52 3 -70 0
-70 -9 0 -7 -9 -13 -20 -13 -11 0 -20 4 -20 9 0 5 -33 10 -72 10 -79 1 -183
13 -210 26 -13 5 -18 19 -18 45 0 21 -6 41 -12 44 -10 5 -10 7 0 12 6 3 12 11
12 18 0 7 23 23 50 36 28 13 50 27 50 31 0 5 18 13 40 19 22 6 40 17 40 25 0
7 9 17 20 20 11 3 20 10 20 15 0 5 10 12 21 15 17 6 19 9 8 16 -10 6 -8 9 9 9
19 0 22 5 22 40 0 25 5 40 13 41 10 0 10 2 0 6 -7 2 -13 16 -13 29 0 17 6 24
20 24 11 0 20 5 20 11 0 16 26 39 44 39 9 0 16 5 16 11 0 6 8 8 18 5 11 -4 23
2 32 14 8 11 22 20 31 20 9 0 26 9 39 20 13 11 27 20 32 20 4 0 8 9 8 20 0 11
5 20 10 20 6 0 10 -7 10 -15 0 -18 38 -20 75 -3 26 12 35 38 13 38 -8 0 -5 5
4 11 10 5 50 11 90 13 40 2 83 4 96 5 18 1 22 7 22 31 0 17 5 30 10 30 6 0 10
11 10 24 0 13 8 27 18 31 41 19 282 40 282 26 0 -7 43 -31 55 -31 3 0 5 7 5
15 0 8 -4 15 -10 15 -5 0 -10 7 -10 15 0 12 15 15 68 16 106 2 167 9 171 20 2
6 9 8 17 5 8 -3 43 -11 79 -17z m-4437 -246 c18 -4 22 -12 22 -43 0 -26 -5
-40 -17 -44 -9 -4 -19 -3 -22 2 -13 20 -74 43 -97 38 -19 -5 -24 -2 -24 14 0
11 1 20 3 20 1 0 20 7 42 15 22 8 47 12 55 8 8 -3 25 -8 38 -10z m4415 -902
c10 -1 9 -41 -2 -41 -5 0 -23 -13 -41 -30 -17 -16 -49 -34 -70 -40 -22 -6 -46
-17 -54 -26 -11 -11 -26 -13 -51 -8 -29 5 -35 3 -35 -11 0 -14 -6 -16 -31 -11
-42 8 -109 -14 -109 -36 0 -10 -4 -18 -10 -18 -5 0 -10 18 -10 39 0 31 4 41
20 46 11 3 20 12 20 19 0 15 25 26 118 53 34 9 62 21 62 25 0 4 9 8 20 8 11 0
20 5 20 10 0 6 18 10 40 10 22 0 40 4 40 9 0 7 32 8 73 2z m24209 -1392 c12
-11 29 -17 40 -13 10 3 18 1 18 -5 0 -6 9 -11 19 -11 11 0 26 -6 34 -14 8 -8
24 -12 40 -9 16 3 27 1 27 -6 0 -6 -4 -11 -10 -11 -5 0 -10 -9 -10 -20 0 -11
5 -20 10 -20 6 0 10 -7 10 -15 0 -8 5 -15 11 -15 6 0 4 -7 -5 -15 -17 -17 -46
-20 -46 -5 0 6 -4 10 -10 10 -5 0 -10 -6 -10 -14 0 -15 -21 -26 -52 -26 -10 0
-26 -7 -34 -15 -9 -8 -29 -15 -45 -15 -26 0 -29 -3 -29 -30 0 -28 -2 -30 -39
-30 -22 0 -41 5 -43 12 -6 17 -98 20 -98 4 0 -7 -15 -19 -32 -28 -38 -17 -108
-13 -108 7 0 8 -9 17 -20 20 -11 3 -20 13 -20 21 0 8 -4 14 -10 14 -5 0 -10 5
-10 10 0 6 9 10 20 10 18 0 20 7 20 80 0 47 -4 80 -10 80 -5 0 -10 7 -10 15 0
16 17 21 100 29 30 3 56 10 58 16 2 6 47 10 113 9 91 -1 112 -4 131 -20z"/>
<path d="M19040 32460 c-19 -4 -29 -8 -22 -9 23 -2 12 -19 -18 -24 -18 -4 -30
-13 -30 -22 0 -8 -4 -15 -9 -15 -5 0 -17 -7 -25 -16 -16 -16 -17 -15 -61 24
-18 16 -25 15 -25 -3 0 -8 -4 -15 -10 -15 -5 0 -10 7 -10 15 0 8 -9 15 -20 15
-15 0 -20 -7 -20 -25 0 -14 -4 -25 -10 -25 -5 0 -10 -10 -10 -21 0 -19 -4 -21
-30 -15 -17 3 -30 1 -30 -4 0 -6 -4 -10 -10 -10 -5 0 -10 18 -10 40 0 22 -4
40 -10 40 -5 0 -10 11 -10 25 0 14 -4 25 -10 25 -5 0 -10 -4 -10 -8 0 -5 -10
-14 -22 -20 -13 -6 -17 -11 -10 -11 14 -1 17 -31 2 -31 -5 0 -10 -7 -10 -15 0
-8 -4 -15 -10 -15 -5 0 -10 -9 -10 -20 0 -11 -4 -20 -10 -20 -5 0 -10 5 -10
10 0 6 -9 10 -20 10 -13 0 -20 -7 -20 -20 0 -11 -6 -20 -12 -20 -9 0 -8 -4 2
-10 13 -8 12 -10 -3 -10 -30 0 -47 -26 -47 -68 0 -42 25 -66 42 -40 6 10 10
10 19 -2 8 -11 12 -12 16 -2 2 6 20 12 39 12 50 0 107 59 72 73 -10 4 -10 6 0
6 6 1 12 10 12 21 0 11 5 20 10 20 6 0 10 -11 10 -25 0 -14 3 -25 6 -25 14 0
34 31 34 54 0 16 6 26 14 26 8 0 21 3 30 6 12 5 16 0 16 -21 0 -18 4 -25 13
-22 47 19 47 19 47 -2 0 -12 5 -21 10 -21 6 0 10 -5 10 -11 0 -21 27 -37 53
-32 23 5 27 10 27 39 0 19 5 34 10 34 6 0 10 16 10 35 0 19 -4 35 -10 35 -5 0
-10 6 -10 14 0 14 21 26 46 26 17 0 19 -37 2 -43 -7 -2 3 -9 22 -15 26 -7 29
-10 13 -11 -18 -1 -23 -7 -23 -27 0 -20 4 -25 16 -20 9 3 27 6 40 6 17 0 24 6
24 20 0 11 5 20 10 20 6 0 10 5 10 11 0 6 -9 8 -20 4 -11 -3 -20 -3 -20 2 0 5
9 15 20 23 15 11 20 26 20 62 0 52 0 53 -70 38z"/>
<path d="M15955 23903 c-11 -2 -30 -6 -42 -9 -19 -4 -23 -11 -23 -43 0 -46 18
-57 58 -37 15 7 39 16 55 20 15 3 27 13 27 21 0 8 5 15 10 15 6 0 10 -4 10
-10 0 -16 15 -12 40 10 29 25 23 32 -19 20 -25 -7 -41 -6 -62 5 -15 8 -29 14
-31 14 -2 -1 -12 -3 -23 -6z"/>
</g>
</svg>
