<?xml version="1.0" standalone="no"?>
<!DOCTYPE svg PUBLIC "-//W3C//DTD SVG 20010904//EN"
 "http://www.w3.org/TR/2001/REC-SVG-20010904/DTD/svg10.dtd">
<svg version="1.0" xmlns="http://www.w3.org/2000/svg"
 width="3950.000000pt" height="3506.000000pt" viewBox="0 0 3950.000000 3506.000000"
 preserveAspectRatio="xMidYMid meet">
<metadata>
Created by potrace 1.16, written by Peter Selinger 2001-2019
</metadata>
<g transform="translate(0.000000,3506.000000) scale(0.100000,-0.100000)"
fill="#ffffff" stroke="#000000" stroke-width="5.00">
<path d="M0 17530 l0 -17530 19750 0 19750 0 0 15603 c0 8581 -4 15597 -8
15591 -4 -6 -23 -19 -42 -29 -19 -10 -37 -21 -40 -25 -8 -11 -81 -46 -112 -54
-16 -3 -28 -11 -28 -16 0 -6 -9 -10 -19 -10 -11 0 -21 -3 -23 -7 -4 -10 -120
-52 -171 -63 -58 -12 -127 17 -127 54 0 9 -8 16 -20 16 -11 0 -20 7 -20 15 0
8 -6 15 -12 15 -9 0 -8 4 2 10 8 5 10 10 4 10 -6 0 -21 9 -33 19 -13 11 -28
22 -34 25 -9 5 -9 8 0 12 7 3 13 21 13 40 0 19 5 34 10 34 6 0 10 7 10 15 0 8
5 15 10 15 6 0 10 8 10 18 0 10 9 24 20 32 11 8 20 18 20 23 0 11 59 67 71 67
5 0 9 7 9 15 0 9 12 18 30 21 17 4 30 10 30 14 0 4 13 10 29 13 16 4 41 18 55
31 24 25 65 44 156 71 41 12 75 25 178 66 l32 13 -2 591 -3 590 -32 10 -33 9
0 93 c0 55 4 93 10 93 6 0 10 9 10 20 0 11 5 20 10 20 6 0 10 28 10 65 0 37
-4 65 -10 65 -5 0 -10 11 -10 25 0 14 -5 25 -11 25 -13 0 9 23 39 39 l22 12 0
874 0 875 -19750 0 -19750 0 0 -17530z m36588 17231 c12 -10 22 -28 22 -40 0
-11 5 -21 10 -21 6 0 10 -9 10 -20 0 -11 5 -20 10 -20 6 0 10 -12 10 -26 0
-14 4 -23 10 -19 6 3 10 -3 10 -14 0 -12 5 -21 10 -21 6 0 10 -7 10 -15 0 -8
5 -15 10 -15 6 0 10 -6 10 -13 0 -7 9 -19 20 -27 11 -8 20 -25 20 -37 0 -13 5
-23 10 -23 6 0 10 -7 10 -15 0 -8 5 -15 10 -15 6 0 10 -10 10 -23 0 -12 9 -29
20 -37 11 -8 20 -25 20 -37 0 -13 5 -23 10 -23 6 0 10 -9 10 -20 0 -14 11 -22
40 -30 33 -9 40 -15 40 -35 0 -14 -4 -25 -10 -25 -5 0 -10 -4 -10 -8 0 -9 131
-42 163 -42 9 0 17 -5 17 -11 0 -6 7 -8 17 -5 9 4 20 1 25 -6 5 -9 10 -10 16
-2 4 6 21 10 37 9 44 -3 45 -4 45 -21 0 -11 5 -14 18 -9 9 4 28 9 42 11 14 2
37 6 53 10 21 5 27 3 27 -10 0 -9 5 -16 10 -16 6 0 10 -9 10 -20 0 -11 5 -20
10 -20 6 0 10 -9 10 -19 0 -11 9 -23 20 -26 11 -4 20 -15 20 -27 0 -17 4 -19
28 -13 60 15 232 -6 232 -29 0 -15 35 -32 84 -41 33 -7 36 -10 36 -41 0 -20 5
-34 13 -35 10 0 10 -2 0 -6 -7 -2 -13 -11 -13 -18 0 -8 -9 -17 -20 -20 -14 -4
-20 -15 -20 -35 0 -24 -5 -31 -27 -36 -16 -4 -30 -10 -33 -13 -3 -3 -21 -12
-40 -19 -19 -8 -57 -23 -85 -33 -133 -52 -224 -69 -400 -74 -55 -1 -117 -6
-137 -10 -40 -8 -52 -25 -17 -25 23 0 106 -24 162 -47 33 -15 52 -43 27 -43
-5 0 -10 -9 -10 -20 0 -11 -4 -20 -10 -20 -5 0 -10 -9 -10 -19 0 -11 -6 -22
-12 -25 -10 -5 -10 -7 1 -12 11 -5 11 -8 0 -15 -10 -6 -11 -9 -1 -9 6 0 12 -7
12 -15 0 -8 -4 -15 -10 -15 -5 0 -10 -11 -10 -25 0 -14 5 -25 10 -25 6 0 10
-11 10 -25 0 -14 6 -25 13 -26 10 0 10 -2 0 -6 -7 -2 -13 -16 -13 -29 0 -13
-4 -24 -10 -24 -6 0 -10 -35 -10 -85 0 -50 4 -85 10 -85 6 0 10 -11 10 -24 0
-13 6 -27 13 -29 9 -4 8 -8 -3 -16 -10 -7 -11 -11 -2 -11 24 0 11 -28 -20 -41
-17 -7 -26 -15 -20 -17 15 -5 16 -42 2 -42 -5 0 -10 -9 -10 -20 0 -11 -4 -20
-10 -20 -5 0 -10 -9 -10 -20 0 -11 -4 -20 -8 -20 -5 0 -20 -9 -33 -21 -19 -17
-21 -22 -9 -29 15 -10 13 -11 -30 -14 -14 -2 -47 -6 -75 -10 l-50 -8 30 -15
c16 -9 35 -22 42 -29 15 -15 18 -84 3 -84 -5 0 -10 -9 -10 -21 0 -35 -27 -51
-97 -57 -52 -4 -62 -7 -47 -15 10 -6 23 -14 29 -19 52 -43 59 -51 48 -55 -15
-6 -17 -33 -3 -33 6 0 10 -13 10 -30 0 -16 -4 -30 -10 -30 -5 0 -10 -4 -10
-10 0 -5 9 -10 20 -10 13 0 20 -7 20 -20 0 -11 -4 -20 -10 -20 -5 0 -10 -7
-10 -15 0 -8 -4 -15 -10 -15 -5 0 -10 -6 -10 -14 0 -8 -9 -18 -20 -21 -11 -3
-20 -11 -20 -16 0 -12 37 -11 75 2 18 7 44 9 58 5 28 -7 36 -30 15 -40 -10 -5
-10 -7 0 -12 6 -3 12 -19 12 -36 0 -34 -31 -68 -62 -68 -10 0 -18 -7 -18 -15
0 -8 -4 -15 -10 -15 -5 0 -10 -7 -10 -15 0 -8 -4 -15 -10 -15 -5 0 -10 -7 -10
-16 0 -17 -36 -54 -52 -54 -4 0 -8 -6 -8 -12 -1 -7 -19 -29 -41 -48 -22 -19
-62 -56 -89 -82 -28 -26 -59 -49 -70 -53 -11 -3 -20 -12 -20 -18 0 -7 -10 -19
-21 -27 -12 -8 -39 -31 -60 -50 -21 -19 -52 -46 -69 -60 -17 -14 -44 -36 -59
-50 -16 -14 -38 -32 -50 -40 -12 -8 -21 -18 -21 -23 0 -5 -6 -14 -12 -21 -7
-7 -22 -25 -33 -39 -11 -15 -28 -27 -37 -27 -12 0 -18 -8 -18 -23 0 -12 -9
-29 -20 -37 -11 -8 -20 -20 -20 -27 0 -8 -12 -13 -30 -13 -20 0 -30 -5 -30
-15 0 -8 -4 -15 -10 -15 -5 0 -10 -9 -10 -20 0 -11 -4 -20 -10 -20 -5 0 -10
-5 -10 -11 0 -6 -18 -28 -40 -49 -22 -21 -40 -44 -40 -50 0 -7 -13 -25 -30
-40 -16 -15 -30 -35 -30 -44 0 -9 -4 -16 -9 -16 -14 0 -71 -56 -71 -70 0 -14
-57 -70 -71 -70 -5 0 -9 -11 -9 -24 0 -16 -7 -27 -20 -31 -11 -3 -20 -13 -20
-21 0 -8 -4 -14 -10 -14 -5 0 -10 -7 -10 -15 0 -8 -4 -15 -10 -15 -5 0 -10 -7
-10 -15 0 -8 -4 -15 -10 -15 -5 0 -10 -4 -10 -10 0 -5 14 -10 30 -10 20 0 30
-5 30 -15 0 -8 -4 -15 -10 -15 -5 0 -10 -14 -10 -31 0 -24 -13 -42 -60 -89
-33 -32 -69 -61 -80 -65 -11 -3 -20 -12 -20 -19 0 -11 -99 -66 -121 -66 -6 0
-17 7 -25 15 -9 8 -33 15 -54 15 -22 0 -40 5 -42 12 -3 9 -9 8 -22 -5 -10 -9
-26 -17 -37 -17 -13 0 -19 -7 -19 -21 0 -33 -27 -53 -111 -84 -72 -27 -142
-45 -172 -45 -27 0 -57 19 -57 37 0 5 -9 15 -20 23 -11 8 -20 19 -20 25 0 14
-95 58 -184 84 l-68 21 -29 -31 c-29 -31 -30 -31 -47 -12 -9 11 -38 26 -64 33
-45 13 -48 17 -48 47 0 19 5 33 13 34 10 0 10 2 0 6 -16 6 -18 123 -3 123 24
0 8 38 -20 50 -16 7 -30 16 -30 21 0 4 -9 11 -20 14 -16 5 -20 15 -20 46 0 21
5 39 10 39 6 0 10 9 10 20 0 11 5 20 10 20 6 0 10 14 10 30 0 17 -4 30 -10 30
-17 0 -11 22 10 40 20 17 20 18 -10 23 -35 7 -39 26 -10 47 25 18 26 30 1 30
-11 0 -27 7 -35 15 -8 9 -26 15 -38 14 -13 -1 -38 -1 -55 -1 -31 2 -33 4 -33
40 l0 39 -77 -2 c-80 -2 -106 5 -133 35 -14 15 -91 60 -105 60 -3 0 -5 -9 -5
-19 0 -25 -28 -35 -46 -16 -9 8 -20 15 -25 15 -5 0 -9 14 -9 30 0 17 5 30 10
30 6 0 10 10 10 21 0 12 10 30 22 40 17 15 18 19 5 19 -34 0 -67 23 -67 47 0
12 -4 23 -10 23 -5 0 -10 7 -10 15 0 8 -4 15 -10 15 -5 0 -10 20 -10 45 0 37
-3 45 -19 45 -21 0 -81 51 -81 69 0 6 -9 11 -20 11 -11 0 -20 5 -20 11 0 8
-17 10 -50 7 -48 -5 -50 -4 -50 19 0 28 -21 53 -44 53 -12 0 -16 10 -16 40 0
22 5 40 10 40 6 0 10 9 10 20 0 11 5 20 10 20 6 0 10 7 10 15 0 8 5 15 10 15
6 0 10 6 10 14 0 8 6 17 13 20 10 5 10 7 0 12 -7 3 -13 14 -13 25 0 24 -8 24
-30 -1 -27 -31 -50 -16 -50 31 0 21 5 39 10 39 6 0 10 7 10 15 0 8 -9 15 -20
15 -11 0 -20 -4 -20 -9 0 -15 -72 -24 -80 -10 -8 12 -100 4 -100 -9 0 -13 -91
-36 -99 -25 -3 6 -27 13 -53 17 -29 4 -48 12 -48 20 0 7 -18 21 -40 31 -23 10
-49 26 -60 34 -10 9 -28 23 -39 31 -12 8 -21 20 -21 27 0 7 -4 13 -10 13 -5 0
-10 6 -10 13 0 7 -9 19 -20 27 -22 16 -27 46 -7 53 6 3 2 6 -10 6 -22 1 -23 5
-23 81 0 44 -4 80 -9 80 -5 0 -23 14 -41 30 -18 17 -41 30 -51 30 -25 0 -24
17 1 25 29 9 24 31 -10 45 -27 11 -30 17 -30 56 0 24 5 44 10 44 6 0 10 8 10
18 0 10 9 24 20 32 11 8 20 26 20 41 0 15 6 30 13 33 10 5 10 7 0 12 -15 7
-17 34 -3 34 6 0 10 7 10 15 0 8 5 15 10 15 6 0 10 7 10 15 0 8 9 15 20 15 13
0 20 7 20 20 0 11 5 20 10 20 6 0 10 7 10 15 0 8 5 15 10 15 6 0 10 7 10 15 0
8 5 15 10 15 6 0 10 7 10 15 0 8 5 15 10 15 6 0 10 15 10 34 0 26 5 36 20 41
12 4 20 15 20 28 0 13 9 29 20 37 14 10 20 26 20 52 0 21 5 38 10 38 6 0 10
13 10 28 0 16 8 34 20 42 11 8 20 23 20 33 0 11 14 32 30 47 17 15 30 33 30
39 0 6 4 11 8 11 18 0 52 38 52 59 0 14 6 21 20 21 13 0 20 7 20 19 0 11 9 23
20 26 11 3 20 11 20 16 0 5 9 9 20 9 11 0 20 5 20 10 0 6 7 10 15 10 20 0 85
-32 85 -42 0 -14 65 -75 98 -92 32 -16 79 -23 55 -8 -9 6 -7 12 7 22 11 8 20
25 20 37 0 27 24 31 46 8 16 -15 88 -21 118 -9 17 7 22 34 6 34 -5 0 -10 11
-10 25 0 21 -5 25 -30 25 -23 0 -30 4 -30 20 0 11 6 20 13 21 10 0 10 2 0 6
-22 8 -15 35 7 28 18 -6 20 -2 20 44 0 28 5 51 10 51 6 0 10 20 10 45 0 38 3
45 20 45 11 0 20 4 20 9 0 5 -9 13 -20 16 -22 7 -28 45 -7 46 10 0 10 2 0 6
-15 6 -18 93 -3 93 6 0 10 7 10 15 0 8 5 15 10 15 6 0 10 7 10 15 0 14 55 34
100 36 14 0 19 3 13 6 -7 2 -13 15 -13 27 0 20 7 24 46 30 26 3 63 6 83 6 56
0 141 26 161 50 10 12 34 26 54 31 19 5 53 27 76 49 37 36 39 39 20 45 -21 7
-21 7 1 26 26 22 52 24 71 6 30 -30 60 -39 111 -32 29 4 61 12 71 17 26 14 66
55 66 68 0 5 5 10 10 10 6 0 10 18 10 40 0 22 -4 40 -10 40 -5 0 -10 6 -10 13
0 7 -9 19 -20 27 -11 8 -20 20 -20 27 0 7 -4 13 -10 13 -5 0 -10 11 -10 25 0
14 -4 25 -10 25 -6 0 -10 27 -10 60 0 33 -4 60 -10 60 -15 0 -12 29 4 46 24
23 146 19 201 -8 25 -12 45 -26 45 -30 0 -4 7 -8 15 -8 9 0 35 -10 58 -22 26
-13 59 -21 87 -20 48 1 100 -14 100 -30 0 -6 16 -7 40 -3 50 8 116 -2 135 -21
13 -13 18 -13 46 2 18 9 67 20 108 25 42 4 103 13 136 19 82 16 181 13 218 -6
18 -10 32 -12 36 -6 9 13 64 23 154 27 157 8 254 23 305 49 35 18 72 27 123
30 90 6 158 19 184 34 27 15 29 15 53 -7z m2162 -3086 c0 -14 -4 -25 -10 -25
-5 0 -10 -5 -10 -11 0 -9 -26 -36 -76 -78 -7 -6 -25 -16 -39 -23 -14 -6 -25
-17 -25 -25 0 -7 -9 -13 -20 -13 -11 0 -20 -4 -20 -9 0 -5 -13 -14 -30 -21
-16 -7 -30 -16 -30 -20 0 -3 -22 -17 -50 -30 -27 -13 -50 -27 -50 -31 0 -5
-15 -12 -32 -18 -18 -5 -51 -16 -73 -24 -22 -8 -57 -17 -77 -20 l-38 -6 0 40
c0 21 5 39 10 39 6 0 10 7 10 15 0 8 5 15 10 15 6 0 10 5 10 11 0 12 20 31 59
59 12 8 21 19 21 25 0 14 63 45 90 45 11 0 39 9 62 19 24 10 67 29 97 42 30
13 60 30 67 37 7 7 39 16 71 21 32 5 61 9 66 10 4 0 7 -10 7 -24z m-7415 -431
c17 -1 36 -2 43 -3 6 0 12 -12 12 -26 0 -14 5 -25 10 -25 6 0 10 -21 10 -46 0
-26 6 -52 14 -60 17 -16 46 -9 46 12 0 8 3 14 6 14 13 0 34 -30 34 -48 0 -11
6 -23 13 -26 10 -5 10 -7 0 -12 -15 -7 -17 -34 -3 -34 6 0 10 -7 10 -16 0 -15
23 -44 34 -44 3 0 6 7 6 15 0 8 5 15 10 15 6 0 10 7 10 15 0 17 2 18 24 9 18
-7 23 -94 6 -94 -5 0 -10 -7 -10 -15 0 -8 5 -15 10 -15 6 0 10 -7 10 -15 0 -8
5 -15 10 -15 6 0 10 -7 10 -15 0 -8 5 -15 10 -15 6 0 10 7 10 15 0 8 4 15 10
15 5 0 21 11 35 26 14 14 29 23 33 20 5 -3 27 2 51 10 37 13 44 13 57 -1 19
-19 29 -19 48 0 12 12 20 13 35 5 29 -15 31 -13 31 20 0 17 5 30 10 30 6 0 10
-10 10 -21 0 -21 34 -59 52 -59 4 0 8 7 8 15 0 8 2 15 5 15 12 0 55 -24 55
-32 0 -4 5 -8 10 -8 6 0 10 9 10 20 0 21 40 38 60 25 11 -7 40 17 40 34 0 6 5
11 10 11 6 0 10 5 10 11 0 13 38 49 52 49 4 0 8 6 8 13 0 17 125 78 145 71 8
-4 15 -1 15 5 0 6 9 11 20 11 11 0 20 6 20 14 0 15 51 28 135 32 28 2 67 5 87
8 27 3 43 -1 59 -15 12 -10 26 -19 31 -19 4 0 8 -7 8 -15 0 -8 5 -15 10 -15 6
0 10 -9 10 -20 0 -11 5 -20 10 -20 6 0 10 -5 10 -11 0 -7 10 -21 23 -32 15
-13 18 -21 10 -24 -7 -3 -13 -16 -13 -29 0 -20 5 -24 30 -24 20 0 30 -5 30
-15 0 -8 9 -15 20 -15 17 0 20 -7 20 -46 0 -41 2 -45 20 -39 16 5 20 2 20 -14
0 -12 5 -21 10 -21 6 0 10 12 10 26 0 40 26 60 62 46 16 -6 36 -8 44 -5 8 3
14 0 14 -6 0 -6 5 -11 10 -11 6 0 10 7 10 15 0 8 5 15 10 15 6 0 10 7 10 15 0
8 5 15 10 15 6 0 10 10 10 23 0 12 9 29 20 37 11 8 20 20 20 27 0 7 5 13 10
13 6 0 10 9 10 20 0 11 2 20 4 20 2 0 11 2 18 5 18 7 58 -27 58 -49 0 -9 5
-16 10 -16 6 0 10 -13 10 -30 0 -16 5 -30 10 -30 6 0 10 -22 10 -50 0 -27 4
-50 8 -50 5 0 19 -8 30 -19 23 -19 30 -51 12 -51 -5 0 -10 -4 -10 -10 0 -5 9
-10 20 -10 11 0 20 -4 20 -10 0 -5 13 -10 29 -10 18 0 41 -11 59 -27 16 -16
39 -35 51 -43 12 -8 21 -20 21 -27 0 -7 5 -13 10 -13 6 0 10 -16 10 -35 0 -28
4 -35 19 -35 11 0 21 5 23 11 5 14 78 1 78 -15 0 -6 9 -18 20 -26 13 -9 20
-26 20 -47 0 -18 5 -33 10 -33 6 0 10 -9 10 -20 0 -11 -4 -20 -10 -20 -15 0
-13 -80 3 -81 10 0 10 -2 0 -6 -15 -6 -17 -33 -3 -33 6 0 10 -13 10 -30 0 -16
5 -30 10 -30 6 0 10 -13 10 -30 0 -16 5 -30 10 -30 6 0 10 -13 10 -28 0 -16 8
-34 20 -42 11 -8 20 -20 20 -27 0 -7 18 -17 40 -23 39 -10 40 -12 40 -54 0
-39 3 -45 30 -56 35 -14 70 -43 70 -57 0 -16 48 -33 95 -33 34 0 50 6 70 26
22 22 27 23 40 10 8 -8 15 -24 15 -35 0 -14 6 -21 18 -21 11 0 28 -8 40 -17
11 -10 30 -25 42 -33 13 -8 45 -36 72 -62 27 -27 54 -48 59 -48 5 0 9 -7 9
-15 0 -8 5 -15 10 -15 6 0 10 -25 10 -55 0 -30 -4 -55 -10 -55 -5 0 -10 -13
-10 -30 0 -16 -4 -30 -10 -30 -5 0 -10 -7 -10 -15 0 -8 -4 -15 -10 -15 -21 0
-9 -18 20 -30 24 -10 30 -19 30 -41 0 -22 5 -29 20 -29 11 0 20 -7 20 -15 0
-8 -4 -15 -10 -15 -5 0 -10 -7 -10 -15 0 -8 5 -15 10 -15 6 0 10 -6 10 -14 0
-16 27 -29 41 -20 5 3 17 0 26 -5 10 -6 12 -11 6 -11 -20 0 -15 -18 7 -25 11
-3 20 -13 20 -21 0 -8 5 -14 10 -14 6 0 10 -9 10 -20 0 -17 7 -20 42 -20 37 0
177 -15 234 -26 23 -4 64 -37 64 -51 0 -11 44 -33 65 -33 8 0 15 -9 15 -20 0
-11 -4 -20 -10 -20 -5 0 -10 -13 -10 -30 0 -16 -4 -30 -10 -30 -5 0 -10 -16
-10 -35 0 -19 -4 -35 -10 -35 -5 0 -10 -11 -10 -25 0 -14 -4 -25 -10 -25 -5 0
-10 -7 -10 -15 0 -8 -4 -15 -10 -15 -5 0 -10 -9 -10 -21 0 -11 -18 -38 -40
-59 -22 -21 -40 -43 -40 -49 0 -6 -4 -11 -10 -11 -5 0 -10 -13 -10 -30 0 -23
-4 -30 -20 -30 -12 0 -20 -7 -20 -16 0 -9 -13 -29 -30 -44 -16 -15 -30 -33
-30 -39 0 -6 -4 -11 -10 -11 -5 0 -10 -6 -10 -13 0 -14 -40 -37 -65 -37 -8 0
-15 -7 -15 -16 0 -9 -13 -29 -30 -44 -16 -15 -30 -33 -30 -39 0 -6 -4 -11 -10
-11 -5 0 -10 -7 -10 -16 0 -11 6 -14 20 -9 16 5 20 2 20 -14 0 -12 -4 -21 -10
-21 -5 0 -10 -13 -10 -30 0 -16 5 -30 10 -30 6 0 10 7 10 15 0 8 2 15 4 15 2
0 11 3 20 6 12 4 16 0 16 -15 0 -12 -4 -21 -10 -21 -5 0 -10 -11 -10 -25 0
-14 5 -25 10 -25 6 0 10 -13 10 -30 0 -16 -4 -30 -10 -30 -5 0 -10 -11 -10
-25 0 -14 -4 -25 -10 -25 -5 0 -10 -9 -10 -20 0 -15 -9 -22 -30 -26 -21 -5
-30 -12 -30 -25 0 -11 -4 -19 -10 -19 -5 0 -10 -6 -10 -14 0 -7 -13 -19 -30
-26 -16 -7 -30 -16 -30 -20 0 -4 -14 -13 -31 -20 -17 -7 -48 -30 -70 -51 -22
-21 -48 -41 -59 -44 -11 -4 -20 -10 -20 -15 0 -5 -20 -12 -45 -15 -34 -6 -48
-3 -60 9 -9 9 -21 16 -26 16 -5 0 -9 7 -9 15 0 8 -9 15 -20 15 -11 0 -20 -7
-20 -15 0 -8 -4 -15 -10 -15 -5 0 -10 -7 -10 -15 0 -8 -4 -15 -10 -15 -5 0
-10 -8 -10 -18 0 -12 -14 -25 -40 -37 -22 -10 -40 -23 -40 -29 0 -7 -9 -18
-20 -26 -11 -8 -20 -19 -20 -25 0 -6 -9 -17 -21 -25 -51 -36 -60 -47 -44 -54
17 -6 45 2 45 14 0 5 9 12 20 15 11 3 20 12 20 19 0 13 81 56 105 56 9 0 15
-10 15 -26 0 -14 6 -32 14 -40 15 -14 46 -9 46 7 0 21 93 100 152 130 35 17
65 35 68 39 3 4 16 13 30 20 17 9 25 10 28 1 5 -16 22 -14 22 4 0 18 36 20 43
3 3 -9 10 -7 23 8 35 39 56 44 107 27 52 -17 61 -39 27 -63 -11 -8 -20 -20
-20 -27 0 -7 -4 -13 -10 -13 -5 0 -10 -9 -10 -20 0 -11 -4 -20 -10 -20 -5 0
-10 -5 -10 -11 0 -13 -58 -69 -71 -69 -5 0 -9 -6 -9 -13 0 -7 -9 -19 -20 -27
-11 -8 -20 -24 -20 -36 0 -12 -6 -25 -12 -28 -10 -5 -10 -7 0 -12 20 -9 14
-65 -10 -85 -11 -11 -25 -19 -30 -19 -4 0 -8 -7 -8 -15 0 -8 -4 -15 -10 -15
-5 0 -10 -7 -10 -15 0 -8 -4 -15 -10 -15 -5 0 -10 -5 -10 -11 0 -13 -38 -49
-52 -49 -4 0 -8 -9 -8 -20 0 -13 -7 -20 -20 -20 -11 0 -20 7 -20 15 0 8 -9 15
-20 15 -11 0 -20 -7 -20 -15 0 -8 -6 -15 -12 -16 -10 0 -10 -2 0 -6 14 -6 16
-33 2 -33 -5 0 -10 -7 -10 -15 0 -8 5 -15 10 -15 6 0 10 5 10 10 0 6 9 10 20
10 35 0 21 -19 -22 -30 -24 -6 -58 -15 -75 -20 -18 -4 -40 -15 -49 -24 -20
-20 -34 -20 -34 -1 0 8 -4 15 -10 15 -5 0 -10 18 -10 40 0 22 -2 40 -5 40 -9
0 -95 -89 -95 -98 0 -4 -9 -14 -20 -22 -11 -8 -20 -18 -20 -23 0 -4 -27 -35
-60 -67 -33 -32 -60 -64 -60 -69 0 -6 -4 -11 -10 -11 -5 0 -10 -5 -10 -11 0
-21 -43 -49 -74 -49 -17 0 -49 -5 -71 -11 l-40 -11 38 -20 c21 -10 42 -16 46
-13 14 8 41 -6 41 -21 0 -8 6 -14 13 -15 10 0 10 -2 0 -6 -7 -2 -13 -16 -13
-29 0 -13 -4 -24 -10 -24 -5 0 -10 -11 -10 -25 0 -14 -4 -25 -10 -25 -5 0 -10
-6 -10 -13 0 -7 -9 -19 -20 -27 -11 -8 -20 -22 -20 -32 0 -9 -9 -20 -20 -23
-11 -3 -20 -14 -20 -23 0 -10 -9 -24 -20 -32 -11 -8 -20 -20 -20 -27 0 -7 -4
-13 -10 -13 -5 0 -10 -6 -10 -13 0 -7 -9 -19 -20 -27 -11 -8 -20 -19 -20 -24
0 -9 -22 -29 -59 -56 -12 -8 -21 -20 -21 -27 0 -6 -8 -14 -19 -18 -10 -3 -29
-14 -42 -25 -40 -33 -43 -35 -79 -49 -58 -22 -88 -25 -105 -8 -8 9 -15 20 -15
26 0 6 -4 11 -10 11 -5 0 -10 11 -10 25 0 14 -4 25 -10 25 -5 0 -10 9 -10 20
0 11 -4 20 -8 20 -5 0 -18 8 -30 18 -11 9 -30 24 -41 32 -24 16 -30 84 -8 94
10 5 10 7 0 12 -15 7 -17 34 -3 34 6 0 10 11 10 25 0 14 5 25 10 25 6 0 10 9
10 20 0 11 5 20 10 20 6 0 10 11 10 24 0 13 6 27 13 29 6 3 0 6 -15 6 -36 1
-78 21 -78 37 0 7 -9 16 -20 19 -11 3 -20 11 -20 16 0 5 -9 9 -20 9 -11 0 -20
4 -20 9 0 5 -16 12 -36 15 -19 4 -41 8 -47 10 -7 1 -9 1 -4 -1 4 -3 7 -11 7
-20 0 -8 18 -32 40 -53 32 -31 40 -46 40 -74 0 -20 -4 -36 -10 -36 -5 0 -10
-7 -10 -15 0 -8 -4 -15 -10 -15 -5 0 -10 -13 -10 -30 0 -16 -4 -30 -10 -30 -5
0 -10 -13 -10 -30 0 -16 5 -30 10 -30 6 0 10 -52 10 -135 0 -83 4 -135 10
-135 6 0 10 -7 10 -15 0 -8 5 -15 10 -15 6 0 10 -7 10 -15 0 -8 5 -15 10 -15
6 0 10 -7 10 -15 0 -8 5 -15 10 -15 6 0 10 -20 10 -45 0 -25 -4 -45 -10 -45
-5 0 -10 -5 -10 -11 0 -16 -34 -44 -70 -59 -17 -7 -30 -17 -30 -22 0 -6 -13
-23 -30 -38 -16 -15 -30 -32 -30 -37 0 -5 -9 -15 -20 -23 -11 -8 -20 -18 -20
-23 0 -5 -13 -22 -30 -37 -16 -15 -30 -33 -30 -39 0 -6 -4 -11 -10 -11 -5 0
-10 -7 -10 -15 0 -8 -4 -15 -10 -15 -5 0 -10 -11 -10 -25 0 -14 -4 -25 -10
-25 -5 0 -10 -7 -10 -16 0 -9 -13 -29 -30 -44 -16 -15 -30 -33 -30 -39 0 -6
-4 -11 -10 -11 -5 0 -10 -9 -10 -20 0 -11 -4 -20 -10 -20 -5 0 -10 -13 -10
-30 0 -16 -4 -30 -10 -30 -5 0 -10 -7 -10 -15 0 -8 -4 -15 -10 -15 -5 0 -10
-7 -10 -15 0 -8 -4 -15 -10 -15 -5 0 -10 -5 -10 -11 0 -6 -13 -24 -30 -39 -16
-15 -30 -36 -30 -47 0 -10 -9 -25 -20 -33 -11 -8 -20 -20 -20 -27 0 -6 -9 -15
-20 -18 -11 -3 -20 -12 -20 -20 0 -8 -9 -17 -20 -20 -11 -3 -20 -10 -20 -15 0
-5 -9 -12 -20 -15 -11 -3 -20 -13 -20 -21 0 -8 -4 -14 -10 -14 -5 0 -10 -7
-10 -15 0 -8 -4 -15 -10 -15 -5 0 -10 -6 -10 -14 0 -8 -9 -18 -20 -21 -11 -3
-20 -13 -20 -21 0 -8 -4 -14 -10 -14 -5 0 -10 -7 -10 -15 0 -8 -4 -15 -10 -15
-5 0 -10 -5 -10 -11 0 -5 -27 -37 -60 -69 -33 -32 -60 -67 -60 -77 0 -10 -9
-25 -21 -33 -11 -8 -30 -23 -41 -32 -11 -10 -29 -20 -39 -23 -11 -4 -19 -13
-19 -21 0 -21 -71 -88 -109 -104 -17 -7 -31 -16 -31 -20 0 -4 -13 -13 -30 -20
-16 -7 -30 -16 -30 -20 0 -4 -13 -10 -30 -13 -18 -4 -30 -13 -30 -22 0 -8 -4
-15 -10 -15 -5 0 -10 -5 -10 -10 0 -20 -71 -80 -94 -80 -3 0 -6 9 -6 20 0 11
-4 20 -10 20 -5 0 -10 14 -10 30 0 17 -4 30 -10 30 -5 0 -10 11 -10 25 0 14 5
25 10 25 6 0 10 9 10 20 0 11 5 20 10 20 6 0 10 7 10 15 0 8 6 15 13 16 10 0
10 2 0 6 -15 6 -18 63 -3 63 14 0 12 38 -2 43 -9 3 -6 11 10 24 12 11 22 28
22 37 0 9 5 16 10 16 6 0 10 11 10 25 0 14 5 25 10 25 6 0 10 6 10 14 0 8 6
16 13 19 6 2 9 8 5 12 -4 4 -14 0 -23 -9 -9 -9 -21 -16 -26 -16 -5 0 -9 -7 -9
-16 0 -9 -14 -29 -30 -44 -25 -23 -44 -30 -97 -36 -47 -5 -68 -3 -71 5 -5 16
-22 14 -22 -3 0 -8 -10 -14 -22 -14 -47 1 -125 -14 -168 -32 -90 -37 -450 -86
-450 -61 0 6 12 8 30 5 27 -6 30 -4 30 19 0 29 -23 41 -52 26 -23 -12 -39 -2
-18 11 10 7 11 10 3 10 -9 0 -13 21 -13 70 0 63 -2 70 -20 70 -16 0 -20 7 -20
30 0 17 -4 30 -10 30 -5 0 -10 9 -10 21 0 16 -4 19 -20 14 -16 -5 -20 -2 -20
14 0 12 -6 21 -12 21 -9 0 -8 4 2 10 10 6 11 10 3 10 -8 0 -13 14 -13 35 0 31
-3 36 -30 42 l-30 6 0 108 c0 66 4 109 10 109 6 0 10 25 10 55 0 30 5 55 10
55 6 0 10 16 10 35 0 19 -4 35 -10 35 -5 0 -10 25 -10 55 0 30 5 55 10 55 6 0
10 8 10 18 0 10 9 24 20 32 20 14 20 14 -3 27 -22 12 -21 12 11 19 31 6 45 23
20 25 -7 0 -3 5 10 11 22 11 30 28 12 28 -5 0 -10 14 -10 30 0 17 5 30 10 30
6 0 10 7 10 15 0 8 5 15 10 15 6 0 10 9 10 20 0 11 5 20 10 20 6 0 10 27 10
60 0 33 4 60 10 60 6 0 10 20 10 45 0 25 5 45 10 45 6 0 10 11 10 25 0 14 5
25 10 25 6 0 10 7 10 15 0 8 7 15 16 15 18 0 44 23 44 39 0 6 5 11 10 11 6 0
10 7 10 15 0 8 5 15 10 15 6 0 10 5 10 11 0 14 36 46 61 54 25 8 24 35 -1 35
-11 0 -20 5 -20 10 0 6 5 10 10 10 6 0 10 7 10 15 0 8 5 15 10 15 6 0 10 9 10
20 0 11 5 20 10 20 6 0 10 12 10 26 0 31 33 63 72 71 16 3 28 12 28 19 0 8 9
14 20 14 11 0 20 7 20 15 0 8 9 15 20 15 11 0 20 5 20 10 0 6 9 10 20 10 11 0
20 7 20 15 0 8 9 15 20 15 11 0 20 7 20 15 0 8 5 15 10 15 6 0 10 9 10 20 0
11 -4 20 -10 20 -5 0 -10 5 -10 11 0 7 7 8 18 4 9 -4 36 -8 60 -9 35 -2 42 1
42 16 0 10 -6 18 -12 19 -10 0 -10 2 0 6 6 2 12 9 12 15 0 15 27 38 44 38 9 0
16 5 16 10 0 12 -37 13 -42 1 -1 -5 -27 -20 -56 -35 -62 -31 -122 -29 -122 5
0 11 -4 19 -10 19 -5 0 -10 -6 -10 -14 0 -10 -20 -15 -72 -18 -73 -5 -148 -32
-148 -53 0 -6 -15 -11 -34 -12 -18 -1 -47 -8 -64 -17 -39 -20 -62 -20 -62 -1
0 20 -47 20 -67 -1 -9 -9 -22 -12 -32 -8 -26 10 -81 13 -81 3 0 -4 -13 -6 -30
-2 -22 4 -30 2 -30 -9 0 -8 -10 -20 -22 -26 -19 -9 -20 -11 -5 -11 10 -1 25 6
34 15 9 8 22 13 30 10 8 -3 21 -6 29 -6 8 0 14 -5 14 -11 0 -22 43 -49 76 -49
18 0 45 -5 59 -12 30 -13 35 -43 6 -33 -10 3 -25 -1 -33 -8 -8 -8 -29 -22 -47
-32 -18 -9 -48 -32 -67 -50 -18 -18 -42 -36 -54 -40 -11 -3 -20 -10 -20 -15 0
-5 -9 -12 -20 -15 -12 -4 -36 -22 -55 -41 -30 -30 -70 -50 -140 -71 -11 -4
-31 -19 -45 -33 -31 -33 -74 -56 -123 -65 -33 -6 -53 -25 -27 -25 6 0 10 -4
10 -9 0 -5 -18 -12 -40 -16 -22 -4 -40 -11 -40 -16 0 -5 -9 -9 -20 -9 -11 0
-20 -4 -20 -8 0 -5 -16 -16 -36 -25 -19 -10 -40 -22 -47 -27 -7 -6 -23 -19
-36 -30 l-23 -19 28 -7 c16 -4 34 -13 41 -20 15 -15 17 -64 3 -64 -5 0 -10 -9
-10 -19 0 -11 -9 -23 -20 -26 -15 -5 -20 -15 -20 -41 0 -29 -9 -44 -50 -84
-27 -27 -50 -56 -50 -64 0 -9 -6 -16 -12 -17 -10 0 -10 -2 0 -6 20 -8 15 -67
-9 -83 -11 -8 -30 -23 -41 -32 -12 -10 -25 -18 -30 -18 -4 0 -8 -9 -8 -19 0
-11 -9 -23 -20 -26 -11 -3 -20 -15 -20 -26 0 -12 -7 -19 -20 -19 -11 0 -20 -7
-20 -15 0 -8 -3 -15 -6 -15 -10 0 -49 23 -56 34 -6 8 -10 8 -15 0 -5 -6 -16
-15 -26 -21 -17 -9 -16 -11 12 -23 29 -12 44 -40 21 -40 -5 0 -10 -13 -10 -28
0 -16 -8 -34 -20 -42 -26 -19 -25 -58 2 -81 l21 -19 -24 -1 c-13 0 -18 -3 -11
-6 13 -5 17 -53 4 -53 -16 0 -52 -37 -52 -54 0 -12 -6 -15 -25 -10 -16 4 -30
0 -40 -10 -9 -9 -29 -16 -45 -16 -16 0 -30 -4 -32 -9 -5 -14 -101 -59 -141
-66 -26 -5 -37 -13 -37 -25 0 -9 -12 -23 -27 -30 -26 -12 -49 -18 -205 -55
-70 -16 -248 -20 -248 -6 0 14 -37 23 -60 16 -18 -6 -20 -15 -20 -82 0 -65 -3
-78 -22 -94 l-21 -19 31 0 c18 0 32 4 32 10 0 5 12 13 27 16 15 4 34 13 41 21
16 15 60 17 82 3 13 -9 13 -11 0 -20 -10 -6 -11 -10 -2 -10 7 0 12 -14 12 -34
0 -26 -5 -36 -20 -41 -11 -3 -20 -15 -20 -25 0 -21 -6 -23 -99 -39 -66 -11
-81 0 -81 58 0 23 -4 41 -10 41 -5 0 -10 -7 -10 -15 0 -8 -4 -15 -10 -15 -5 0
-10 -8 -10 -18 0 -12 -14 -25 -40 -37 -34 -15 -40 -22 -40 -49 0 -21 -7 -37
-21 -46 -12 -8 -28 -21 -36 -29 -8 -8 -23 -11 -39 -7 -42 11 -64 -1 -64 -35 0
-16 -3 -30 -7 -30 -5 -1 -19 -3 -33 -4 -14 -2 -43 -10 -65 -18 -54 -20 -175
-32 -175 -18 0 6 -7 11 -15 11 -9 0 -34 9 -57 21 -66 34 -149 57 -234 64 -79
6 -134 21 -134 35 0 4 -13 13 -30 20 -16 7 -30 19 -30 26 0 8 -4 14 -9 14 -5
0 -17 7 -26 16 -9 10 -33 20 -53 25 -127 27 -161 37 -176 52 -10 9 -21 17 -26
17 -15 0 -70 58 -70 75 0 9 -13 30 -30 45 -16 15 -30 35 -30 44 0 9 -4 16 -10
16 -6 0 -10 42 -10 105 0 63 4 105 10 105 6 0 10 16 10 35 0 19 5 35 10 35 6
0 10 11 10 25 0 14 5 25 10 25 6 0 10 7 10 15 0 8 4 15 10 15 5 0 20 11 33 24
35 35 75 52 136 59 30 4 57 11 61 17 8 12 298 51 327 44 12 -3 31 -1 42 6 17
9 25 8 37 -5 19 -18 16 -19 59 2 25 12 35 23 35 40 0 13 5 23 10 23 6 0 10 7
10 15 0 8 -4 15 -10 15 -5 0 -10 16 -10 35 0 19 -4 35 -10 35 -5 0 -10 9 -10
21 0 12 -13 34 -30 49 -16 15 -30 33 -30 39 0 6 -6 11 -12 12 -10 0 -10 2 0 6
14 6 16 43 2 43 -5 0 -10 5 -10 11 0 16 -26 39 -44 39 -9 0 -16 5 -16 10 0 6
-7 10 -15 10 -18 0 -85 31 -85 40 0 4 -22 17 -50 30 l-50 23 0 99 c0 72 3 98
13 98 9 0 8 3 -2 9 -11 7 -9 10 8 16 12 3 21 15 21 26 0 10 7 19 15 19 9 0 47
16 85 35 38 19 80 35 92 35 13 0 29 4 36 9 21 13 -31 20 -81 10 -41 -8 -182
14 -372 58 -65 15 -115 46 -115 73 0 5 -4 10 -10 10 -6 0 -10 27 -10 60 0 33
4 60 10 60 6 0 10 7 10 15 0 8 7 15 16 15 15 0 44 23 44 35 0 3 -9 3 -20 0
-27 -9 -60 3 -60 21 0 8 5 14 10 14 6 0 10 14 10 30 0 17 4 30 8 30 16 0 56
40 41 41 -10 0 -11 2 -1 6 14 6 16 33 2 33 -5 0 -10 11 -10 25 0 14 5 25 10
25 6 0 10 9 10 19 0 11 6 22 13 24 9 4 9 8 -2 15 -11 8 -9 11 8 17 11 3 21 13
21 21 0 8 7 14 16 14 17 0 44 23 44 39 0 5 9 13 20 16 12 4 20 15 20 28 0 13
9 29 20 37 20 15 28 60 10 60 -5 0 -10 14 -10 30 0 17 -4 30 -10 30 -5 0 -10
14 -10 30 0 17 -5 30 -12 31 -10 0 -10 2 0 6 6 2 12 13 12 24 0 10 5 19 10 19
6 0 10 7 10 15 0 8 -4 15 -10 15 -5 0 -10 18 -10 40 0 22 5 40 10 40 23 0 8
18 -20 24 -18 3 -30 12 -30 21 0 8 -4 15 -10 15 -5 0 -10 23 -10 50 0 28 -4
50 -10 50 -5 0 -10 25 -10 55 0 30 -4 55 -10 55 -6 0 -10 35 -10 85 0 50 4 85
10 85 6 0 10 9 10 20 0 11 5 20 10 20 6 0 10 7 10 15 0 8 9 15 20 15 13 0 20
7 20 20 0 13 7 20 20 20 11 0 20 4 20 8 0 5 18 17 40 27 25 11 40 25 40 36 0
9 6 19 13 22 8 3 3 12 -13 25 -14 12 -30 26 -37 32 -7 5 -19 10 -28 10 -8 0
-15 5 -15 10 0 6 5 10 10 10 6 0 10 15 10 34 0 26 5 36 20 41 11 3 20 11 20
16 0 5 9 9 19 9 11 0 26 7 35 15 8 8 22 15 30 15 9 0 16 5 16 10 0 6 7 10 16
10 8 0 22 6 29 14 8 7 46 16 84 20 147 15 49 42 -117 32 -107 -5 -172 6 -172
29 0 8 -4 15 -10 15 -5 0 -10 11 -10 25 0 14 -4 25 -10 25 -6 0 -10 33 -10 80
0 47 4 80 10 80 6 0 10 6 10 14 0 7 14 19 30 26 17 7 30 16 30 21 0 4 18 13
40 19 24 6 40 17 40 25 0 8 5 15 10 15 6 0 10 9 10 20 0 11 5 20 10 20 6 0 10
9 10 20 0 13 9 22 28 26 15 4 38 19 52 34 14 15 46 33 73 40 26 8 47 20 47 28
0 24 26 40 81 50 42 8 60 7 81 -4 32 -16 58 -18 58 -4 0 6 14 10 30 10 17 0
30 -4 30 -10 0 -5 13 -7 30 -3 26 5 30 3 30 -16 0 -16 8 -23 30 -27 17 -4 30
-10 30 -15 0 -4 9 -11 20 -14 18 -6 20 -15 20 -96 0 -49 3 -89 8 -89 4 1 18 7
32 15 36 21 40 19 40 -20 0 -21 -5 -35 -12 -36 -10 0 -10 -2 0 -6 14 -6 17
-63 2 -63 -5 0 -10 -6 -10 -14 0 -8 -9 -18 -20 -21 -11 -3 -20 -12 -20 -20 0
-8 -9 -17 -20 -20 -11 -4 -32 -18 -46 -32 -29 -28 -118 -65 -140 -56 -8 3 -14
-1 -14 -10 0 -9 -9 -19 -20 -22 -33 -11 -23 -25 18 -25 25 0 48 -7 63 -21 17
-15 33 -19 54 -15 16 2 24 2 18 -1 -15 -6 -17 -33 -3 -33 6 0 10 -7 10 -15 0
-8 -4 -15 -10 -15 -5 0 -10 -7 -10 -15 0 -8 -4 -15 -10 -15 -5 0 -10 -9 -10
-20 0 -11 -4 -20 -10 -20 -5 0 -10 -7 -10 -16 0 -9 -10 -26 -22 -37 -17 -14
-19 -21 -10 -24 7 -3 24 -16 37 -29 13 -13 31 -24 40 -24 8 0 15 -6 15 -14 0
-15 4 -17 76 -35 22 -6 51 -20 64 -31 25 -22 40 -26 40 -10 0 18 17 11 50 -20
39 -37 50 -38 50 -5 0 14 5 25 10 25 6 0 10 -20 10 -45 0 -25 5 -45 10 -45 6
0 10 27 10 60 0 33 4 60 10 60 6 0 10 20 10 45 0 25 5 45 10 45 6 0 10 16 10
36 0 47 30 76 71 67 25 -5 29 -2 29 15 0 16 10 24 40 32 35 9 40 14 40 40 0
17 -5 30 -12 31 -10 0 -10 2 0 6 7 2 12 22 12 44 0 21 5 39 10 39 6 0 10 9 10
20 0 11 5 20 10 20 6 0 10 9 10 20 0 11 5 20 10 20 6 0 10 9 10 20 0 11 5 20
10 20 6 0 10 47 10 120 0 73 -4 120 -10 120 -5 0 -10 18 -10 40 0 22 5 40 10
40 6 0 10 7 10 15 0 8 6 15 13 16 10 0 10 2 0 6 -15 6 -17 33 -3 33 6 0 10 27
10 61 l0 62 40 -6 40 -5 0 64 c0 36 4 64 10 64 6 0 10 9 10 19 0 11 3 21 8 24
4 2 0 2 -8 -1 -50 -15 -60 -14 -60 7 0 11 -4 21 -10 21 -5 0 -10 6 -10 13 0 7
-9 19 -20 27 -14 10 -20 26 -20 52 0 21 -4 38 -10 38 -5 0 -10 7 -10 15 0 8
-4 15 -10 15 -5 0 -10 7 -10 15 0 8 -4 15 -10 15 -5 0 -10 6 -10 14 0 8 -6 16
-12 18 -17 6 14 38 36 38 10 0 16 9 16 26 0 29 21 54 44 54 9 0 16 8 16 20 0
11 -4 20 -10 20 -5 0 -10 9 -10 20 0 11 5 20 10 20 6 0 10 9 10 20 0 11 5 20
10 20 6 0 10 11 10 25 0 14 5 25 10 25 6 0 10 6 10 13 0 7 9 19 20 27 11 8 20
20 20 27 0 7 5 13 10 13 6 0 10 10 10 23 0 12 9 29 20 37 11 8 20 18 20 23 0
18 63 67 79 62 20 -6 52 14 34 22 -18 7 -16 26 2 19 22 -8 51 4 34 15 -20 12
27 49 63 49 22 0 28 5 28 21 0 38 26 53 73 41 37 -10 69 -6 40 5 -20 7 -16 43
5 43 24 1 92 39 70 40 -34 0 -108 43 -108 62 0 10 -4 18 -10 18 -5 0 -10 9
-10 20 0 22 10 24 59 10 24 -7 44 -5 75 6 22 9 51 18 64 21 22 5 31 23 11 23
-6 0 3 14 21 30 18 17 36 30 41 30 14 0 11 48 -3 53 -7 2 6 7 30 11 23 4 42
11 42 16 0 4 14 10 30 14 35 7 42 41 10 51 -11 3 -20 13 -20 21 0 8 9 14 20
14 11 0 20 7 20 15 0 8 5 15 10 15 6 0 10 9 10 19 0 11 9 23 20 26 16 5 20 15
20 56 0 42 3 49 20 49 11 0 20 4 20 9 0 5 9 13 20 16 13 4 20 15 20 31 0 19 4
24 18 20 9 -3 36 -10 60 -16 23 -6 42 -15 42 -21 0 -6 7 -17 15 -25 11 -11 19
-12 34 -4 45 24 111 5 111 -33 0 -8 10 -17 23 -20 12 -2 29 -7 37 -9 8 -3 12
-3 8 -1 -5 3 -8 11 -8 19 0 8 -4 14 -10 14 -5 0 -10 14 -10 31 0 42 32 70 71
62 20 -4 29 -1 29 7 0 14 -38 50 -52 50 -4 0 -8 16 -8 35 0 19 -4 35 -10 35
-5 0 -10 9 -10 20 0 11 2 20 5 20 12 0 55 -24 55 -32 0 -4 9 -8 19 -8 11 0 26
-7 35 -15 21 -22 46 -8 46 26 0 34 0 34 50 9 22 -11 42 -20 45 -20 3 0 5 15 5
34 0 28 5 36 30 46 17 7 30 17 30 22 0 16 29 40 40 33 13 -8 40 19 40 40 0 21
17 38 60 60 19 10 38 22 41 27 6 9 58 30 184 75 66 24 82 28 153 36 15 2 37 9
48 15 62 33 203 66 234 54 8 -3 29 -7 45 -8z"/>
</g>
</svg>
