<?xml version="1.0" standalone="no"?>
<!DOCTYPE svg PUBLIC "-//W3C//DTD SVG 20010904//EN"
 "http://www.w3.org/TR/2001/REC-SVG-20010904/DTD/svg10.dtd">
<svg version="1.0" xmlns="http://www.w3.org/2000/svg"
 width="3950.000000pt" height="3506.000000pt" viewBox="0 0 3950.000000 3506.000000"
 preserveAspectRatio="xMidYMid meet">
<metadata>
Created by potrace 1.16, written by Peter Selinger 2001-2019
</metadata>
<g transform="translate(0.000000,3506.000000) scale(0.100000,-0.100000)"
fill="#ffffff" stroke="#000000" stroke-width="5.00">
<path d="M0 17530 l0 -17530 19750 0 19750 0 0 17530 0 17530 -19750 0 -19750
0 0 -17530z m36554 17164 c18 -7 23 -84 6 -84 -5 0 -10 -7 -10 -15 0 -8 5 -15
10 -15 6 0 10 -11 10 -25 0 -14 5 -25 10 -25 6 0 10 -6 10 -13 0 -7 9 -19 20
-27 11 -8 20 -20 20 -27 0 -7 5 -13 10 -13 6 0 10 -7 10 -15 0 -8 5 -15 10
-15 6 0 10 -9 10 -20 0 -11 5 -20 10 -20 6 0 10 -11 10 -25 0 -14 5 -25 10
-25 6 0 10 -11 10 -25 0 -14 5 -25 10 -25 6 0 10 -7 10 -15 0 -8 5 -15 10 -15
6 0 10 -16 10 -35 0 -19 5 -35 10 -35 6 0 10 -11 10 -25 0 -14 5 -25 10 -25 6
0 10 -7 10 -15 0 -8 5 -15 10 -15 6 0 10 -9 10 -20 0 -13 7 -20 20 -20 11 0
20 -5 20 -11 0 -6 9 -8 20 -4 16 5 20 2 20 -16 0 -19 4 -21 30 -15 17 3 30 2
30 -3 0 -5 32 -9 71 -9 76 0 149 -24 149 -49 0 -14 56 -19 62 -5 5 13 78 2 78
-12 0 -6 -9 -18 -20 -26 -15 -11 -20 -26 -20 -62 0 -41 -3 -48 -20 -48 -11 0
-20 -7 -20 -15 0 -8 -4 -15 -10 -15 -5 0 -10 -6 -10 -14 0 -8 -9 -18 -20 -21
-11 -3 -20 -10 -20 -14 0 -12 -42 -27 -125 -47 -73 -18 -138 -46 -163 -70 -8
-8 -23 -12 -33 -9 -22 7 -59 -2 -59 -15 0 -5 8 -11 19 -15 28 -9 61 -40 61
-58 0 -10 -12 -20 -27 -23 -62 -16 -51 -29 26 -31 42 -2 77 -7 79 -13 2 -5 12
-10 21 -10 52 0 82 -81 41 -110 -21 -15 -27 -40 -10 -40 6 0 10 -13 10 -30 0
-16 5 -30 10 -30 15 0 12 -50 -2 -51 -10 0 -10 -2 0 -6 14 -6 16 -33 2 -33 -5
0 -10 -7 -10 -15 0 -8 5 -15 10 -15 6 0 10 -11 10 -25 0 -14 -4 -25 -10 -25
-5 0 -10 -7 -10 -15 0 -8 -4 -15 -10 -15 -5 0 -10 -6 -10 -13 0 -7 -9 -19 -20
-27 -11 -8 -20 -22 -20 -32 0 -10 -4 -18 -10 -18 -5 0 -10 -9 -10 -20 0 -11
-4 -20 -10 -20 -5 0 -10 -7 -10 -15 0 -8 -4 -15 -10 -15 -5 0 -10 -16 -10 -36
0 -25 -7 -43 -22 -57 -17 -15 -20 -21 -9 -25 11 -4 11 -6 0 -13 -12 -8 -11
-11 1 -19 11 -7 1 -10 -35 -10 -28 -1 -65 -9 -84 -19 -34 -18 -35 -19 -10 -25
60 -17 99 -40 99 -58 0 -10 -4 -18 -10 -18 -5 0 -10 -9 -10 -19 0 -11 -9 -23
-20 -26 -11 -3 -20 -11 -20 -17 0 -5 -14 -23 -30 -38 -29 -27 -29 -29 -10 -35
21 -7 30 -55 10 -55 -5 0 -10 -7 -10 -15 0 -8 -4 -15 -10 -15 -5 0 -10 -7 -10
-15 0 -8 -4 -15 -10 -15 -5 0 -10 -7 -10 -15 0 -8 5 -15 10 -15 6 0 10 -9 10
-20 0 -11 -4 -20 -10 -20 -5 0 -10 -9 -10 -20 0 -11 -4 -20 -10 -20 -5 0 -10
-7 -10 -15 0 -8 -4 -15 -10 -15 -5 0 -10 -7 -10 -15 0 -8 -4 -15 -10 -15 -5 0
-10 -6 -10 -13 0 -7 -9 -19 -20 -27 -22 -16 -27 -40 -7 -41 10 0 10 -2 0 -6
-7 -2 -13 -16 -13 -29 0 -13 -4 -24 -10 -24 -17 0 -11 -22 13 -43 15 -13 18
-21 10 -24 -7 -3 -13 -11 -13 -19 0 -8 6 -14 13 -15 10 0 10 -2 0 -6 -7 -2
-13 -11 -13 -18 0 -7 -6 -16 -12 -19 -7 -3 -1 -3 15 0 45 10 77 -3 77 -31 0
-14 -4 -25 -10 -25 -5 0 -10 -6 -10 -13 0 -7 -9 -19 -20 -27 -11 -8 -20 -23
-20 -33 0 -11 -13 -32 -30 -47 -16 -15 -30 -33 -30 -39 0 -6 -4 -11 -8 -11 -5
0 -19 -9 -32 -20 -13 -11 -31 -20 -42 -20 -10 0 -18 -7 -18 -15 0 -8 -12 -22
-27 -32 -16 -10 -33 -22 -39 -28 -6 -6 -30 -19 -53 -29 -22 -11 -41 -25 -41
-31 0 -7 -13 -18 -30 -25 -16 -7 -30 -19 -30 -26 0 -8 -7 -14 -16 -14 -8 0
-21 -6 -28 -12 -8 -7 -24 -20 -36 -28 -13 -8 -33 -25 -46 -37 -13 -13 -30 -23
-38 -23 -16 0 -96 -73 -96 -88 0 -6 -6 -13 -12 -15 -7 -3 2 -6 20 -6 29 -1 32
-4 32 -31 0 -33 -38 -80 -65 -80 -11 0 -15 -10 -15 -35 0 -31 -3 -36 -30 -41
-25 -6 -30 -11 -30 -36 0 -21 -10 -39 -31 -59 -17 -16 -35 -29 -40 -29 -5 0
-9 -7 -9 -15 0 -8 -4 -15 -10 -15 -5 0 -10 -7 -10 -15 0 -8 -4 -15 -10 -15 -5
0 -10 -6 -10 -13 0 -7 -9 -19 -20 -27 -11 -8 -20 -21 -20 -30 0 -9 -9 -22 -20
-30 -11 -8 -20 -19 -20 -25 0 -6 -9 -17 -20 -25 -11 -8 -20 -19 -20 -24 0 -10
-39 -46 -51 -46 -4 0 -19 -11 -32 -24 -33 -33 -72 -51 -139 -66 -32 -7 -58
-17 -58 -22 0 -23 -89 -88 -120 -88 -12 0 -40 -24 -40 -35 0 -4 -13 -20 -30
-35 -16 -15 -30 -33 -30 -38 0 -35 -194 -19 -220 18 -3 4 -34 22 -70 40 -36
18 -72 40 -80 50 -8 9 -27 20 -42 24 -26 6 -28 10 -28 54 0 36 5 51 20 62 21
15 29 80 10 80 -5 0 -10 7 -10 16 0 23 -38 54 -66 54 -38 0 -54 11 -54 36 0
13 -4 24 -10 24 -15 0 -13 90 3 91 10 0 10 2 0 6 -15 6 -17 33 -3 33 6 0 10 9
10 19 0 11 9 23 20 26 11 4 20 15 20 26 0 26 18 44 53 53 18 4 27 13 27 26 0
11 5 20 10 20 6 0 10 6 10 14 0 8 6 17 13 20 6 3 -11 4 -38 3 -50 -4 -75 8
-75 33 0 7 -8 9 -22 4 -13 -4 -41 -7 -63 -6 -47 2 -95 -15 -95 -33 0 -31 -74
-33 -130 -5 -22 11 -46 20 -55 20 -8 0 -15 4 -15 8 0 15 -47 31 -70 25 -44
-12 -150 42 -150 77 0 5 -4 10 -10 10 -5 0 -10 23 -10 51 0 46 -2 50 -20 44
-11 -3 -20 -2 -20 3 0 5 -18 17 -40 27 -37 17 -40 21 -40 57 0 21 -4 38 -10
38 -5 0 -10 13 -10 29 0 22 -6 31 -30 41 -16 7 -30 19 -30 26 0 8 -4 14 -8 14
-5 0 -19 9 -32 20 -13 11 -29 20 -37 20 -17 0 -43 24 -43 39 0 6 -4 11 -10 11
-5 0 -10 11 -10 25 0 14 -4 25 -10 25 -5 0 -10 19 -10 43 0 31 5 46 20 57 11
8 20 25 20 37 0 13 5 23 10 23 6 0 10 18 10 40 0 22 -4 40 -10 40 -5 0 -10 7
-10 15 0 11 -11 15 -40 15 -39 0 -40 1 -40 35 0 35 -1 36 -42 36 -24 0 -65 0
-93 1 -62 1 -135 -15 -145 -33 -7 -10 -17 -10 -47 -1 -21 6 -50 13 -65 17 -15
3 -33 11 -40 19 -8 7 -34 24 -58 36 -24 12 -50 29 -58 36 -7 8 -18 14 -23 14
-5 0 -9 7 -9 15 0 8 -4 15 -10 15 -5 0 -10 6 -10 14 0 8 -6 16 -12 19 -9 3 -6
11 10 24 12 11 22 30 22 42 0 18 -6 21 -40 21 -22 0 -40 5 -40 10 0 6 6 10 13
11 6 0 2 5 -10 11 -13 6 -23 19 -23 29 0 10 -9 21 -20 24 -20 6 -28 35 -10 35
18 0 10 45 -10 60 -21 15 -28 70 -10 70 6 0 10 7 10 15 0 8 5 15 10 15 6 0 10
14 10 30 0 17 5 30 10 30 6 0 10 6 10 13 0 7 9 19 20 27 13 9 20 26 20 48 0
38 14 56 50 65 36 10 58 27 43 34 -20 8 -15 41 7 48 23 7 26 20 8 29 -10 5
-10 7 0 12 6 3 12 19 12 35 0 16 5 29 10 29 6 0 10 9 10 20 0 11 5 20 10 20 6
0 10 7 10 15 0 8 5 15 10 15 6 0 10 8 10 18 0 10 9 24 21 32 11 8 30 23 41 33
12 9 25 17 30 17 4 0 8 9 8 20 0 11 4 20 10 20 5 0 20 11 34 25 14 14 32 25
41 25 8 0 15 4 15 8 0 12 69 44 115 53 39 7 65 0 91 -25 6 -6 22 -18 34 -26
12 -8 29 -21 37 -29 20 -19 63 -6 63 20 0 11 7 27 15 35 13 14 17 14 31 0 20
-21 54 -21 54 0 0 11 6 14 20 9 15 -5 20 -2 20 13 0 12 14 25 40 37 39 18 39
18 20 35 -11 10 -20 29 -20 43 0 14 -6 28 -12 30 -10 4 -10 8 1 15 11 8 9 11
-9 17 -18 6 -20 9 -9 17 11 7 11 11 2 15 -7 2 -13 11 -13 19 0 8 -4 14 -10 14
-5 0 -10 18 -10 40 0 22 -4 40 -10 40 -5 0 -10 11 -10 25 0 14 5 25 10 25 6 0
10 7 10 15 0 8 5 15 10 15 6 0 10 7 10 15 0 8 9 15 20 15 18 0 20 7 20 58 0
46 -4 60 -20 72 -20 15 -28 60 -10 60 6 0 10 5 10 11 0 22 34 43 79 50 55 8
155 45 159 59 2 6 20 10 41 10 25 0 41 6 51 20 8 11 25 20 38 20 13 0 36 7 52
15 16 9 50 18 75 22 25 3 45 9 45 13 0 4 13 10 29 13 16 3 36 13 45 22 11 12
36 17 81 18 55 2 65 5 65 20 0 10 8 17 20 17 22 0 27 15 8 24 -10 5 -10 7 0
12 6 3 12 13 12 23 0 9 9 23 20 31 11 8 20 20 20 27 0 7 5 13 10 13 6 0 10 22
10 49 0 41 -4 51 -20 56 -11 3 -20 15 -20 26 0 10 -4 19 -10 19 -5 0 -10 9
-10 20 0 11 -4 20 -10 20 -6 0 -10 28 -10 65 l0 65 58 -6 c36 -5 86 -21 136
-46 68 -34 95 -42 196 -53 64 -8 136 -21 160 -29 34 -11 48 -12 64 -3 27 14
105 28 179 30 32 2 61 7 65 13 16 24 97 34 165 20 36 -8 70 -17 76 -20 6 -4
24 0 40 9 17 8 45 15 63 15 32 0 292 27 334 36 11 2 31 13 45 25 21 19 33 21
100 16 46 -3 83 -1 95 6 16 9 60 19 121 26 6 0 18 -2 27 -5z m-5266 -3624 c2
-6 10 -10 19 -10 24 0 43 -26 43 -59 0 -17 5 -31 10 -31 6 0 10 -13 10 -30 0
-16 5 -30 10 -30 6 0 10 -8 10 -18 0 -10 9 -24 20 -32 14 -10 20 -26 20 -50 0
-24 6 -40 20 -50 15 -11 16 -16 7 -23 -9 -7 -9 -10 1 -14 6 -2 12 -13 12 -23
0 -20 33 -37 38 -21 5 16 26 14 67 -6 34 -16 35 -19 35 -70 0 -29 5 -53 10
-53 6 0 10 5 10 10 0 6 7 10 15 10 29 0 65 47 65 83 0 37 12 47 55 47 13 0 25
5 27 12 7 20 58 0 58 -22 0 -11 6 -21 13 -21 6 -1 19 -3 27 -4 8 -1 21 -3 28
-4 6 0 12 -8 12 -16 0 -8 5 -15 10 -15 6 0 10 7 10 15 0 8 5 15 10 15 6 0 10
9 10 19 0 16 5 18 40 14 36 -5 40 -3 40 16 0 11 4 21 8 21 16 0 52 -37 52 -54
0 -9 8 -16 20 -16 11 0 20 7 20 15 0 8 5 15 10 15 6 0 10 16 10 35 0 34 1 35
40 35 29 0 40 4 40 15 0 8 5 15 10 15 6 0 10 7 10 15 0 8 5 15 10 15 6 0 10
11 10 24 0 25 4 27 105 61 116 39 172 46 232 31 31 -8 60 -21 65 -28 8 -10 11
-10 15 0 7 17 23 15 23 -3 0 -8 5 -15 10 -15 6 0 10 -7 10 -15 0 -8 9 -15 20
-15 13 0 20 -7 20 -20 0 -11 5 -20 10 -20 6 0 10 -7 10 -16 0 -16 36 -54 79
-84 15 -10 17 -16 8 -22 -12 -8 18 -13 56 -10 13 1 17 -6 17 -32 0 -19 -6 -36
-12 -39 -7 -2 -10 -7 -7 -11 8 -8 59 14 59 26 0 4 7 8 16 8 23 0 44 25 44 53
0 37 46 50 75 21 18 -18 65 -12 65 9 0 7 9 19 20 27 11 8 20 20 20 26 0 7 7
14 15 18 19 7 65 -13 65 -28 0 -7 9 -18 20 -26 17 -12 20 -26 20 -96 0 -65 3
-83 16 -88 26 -10 40 -7 64 14 13 12 30 18 38 15 7 -3 25 -5 38 -5 14 0 24 -6
24 -14 0 -7 14 -16 30 -19 29 -6 30 -9 30 -57 0 -27 5 -50 10 -50 14 0 12 -37
-2 -44 -10 -5 -10 -7 0 -12 14 -7 16 -54 2 -54 -5 0 -10 -9 -10 -20 0 -11 5
-20 10 -20 6 0 10 -9 10 -20 0 -11 4 -20 9 -20 5 0 23 -13 41 -30 18 -16 39
-30 47 -30 28 0 43 -28 43 -79 0 -28 5 -51 10 -51 6 0 10 -9 10 -20 0 -11 5
-20 10 -20 6 0 10 -20 10 -44 0 -26 5 -47 13 -50 10 -5 10 -7 0 -12 -19 -8
-16 -28 7 -44 13 -9 20 -26 20 -46 0 -30 2 -32 45 -37 30 -5 55 -16 71 -32 15
-15 32 -24 40 -21 19 7 44 -3 44 -18 0 -6 9 -18 20 -26 11 -8 20 -20 20 -26 0
-7 6 -14 14 -17 21 -8 86 12 86 27 0 13 41 36 65 36 7 0 20 -6 27 -13 7 -7 22
-18 33 -25 11 -6 14 -12 8 -12 -7 0 -13 -10 -13 -21 0 -19 4 -21 38 -17 21 3
42 1 48 -6 6 -6 21 -18 33 -26 11 -8 21 -25 21 -37 0 -13 5 -23 10 -23 6 0 10
-9 10 -20 0 -11 -4 -20 -10 -20 -5 0 -10 -9 -10 -20 0 -11 -4 -20 -10 -20 -5
0 -10 -8 -10 -18 0 -10 -9 -24 -20 -32 -32 -23 -29 -31 30 -71 11 -8 12 -12 3
-16 -15 -6 -17 -43 -3 -43 6 0 10 -7 10 -15 0 -8 -4 -15 -10 -15 -19 0 -10
-22 21 -51 17 -16 35 -29 40 -29 5 0 9 -9 9 -20 0 -11 5 -20 10 -20 6 0 10
-13 10 -30 0 -16 5 -30 10 -30 6 0 10 -7 10 -15 0 -8 5 -15 10 -15 6 0 10 -11
10 -25 0 -14 5 -25 10 -25 6 0 10 -9 10 -20 0 -11 5 -20 10 -20 6 0 10 -10 10
-23 0 -12 9 -29 21 -37 11 -8 30 -23 41 -32 12 -10 25 -18 30 -18 4 0 8 -7 8
-15 0 -8 -4 -15 -10 -15 -16 0 -11 -27 6 -34 16 -6 49 8 72 31 19 19 45 16 72
-7 12 -11 31 -22 41 -25 20 -7 26 -25 9 -25 -5 0 -10 -6 -10 -13 0 -7 -9 -19
-20 -27 -11 -8 -20 -18 -20 -23 0 -13 -45 -54 -79 -71 -34 -18 -65 -21 -123
-10 -24 4 -38 2 -38 -4 0 -6 -9 -13 -20 -17 -11 -3 -38 -24 -60 -45 -22 -21
-49 -42 -60 -45 -11 -4 -20 -12 -20 -20 0 -8 -9 -17 -20 -20 -11 -3 -20 -10
-20 -15 0 -5 -9 -12 -20 -15 -11 -3 -20 -12 -20 -20 0 -8 -9 -17 -20 -20 -11
-3 -20 -12 -20 -19 0 -15 -55 -42 -104 -51 -26 -5 -36 -12 -36 -26 0 -11 -4
-19 -10 -19 -5 0 -10 -6 -10 -13 0 -7 -9 -19 -20 -27 -11 -8 -20 -19 -20 -25
0 -6 -10 -17 -21 -25 -35 -24 -139 -128 -139 -139 0 -5 -9 -13 -20 -16 -11 -3
-20 -11 -20 -17 0 -6 -10 -19 -22 -29 -26 -23 -18 -35 12 -19 12 7 30 10 40 7
18 -5 134 14 186 31 38 12 93 4 72 -10 -10 -7 -10 -11 0 -15 14 -6 16 -33 2
-33 -5 0 -10 -7 -10 -15 0 -8 -4 -15 -10 -15 -5 0 -10 -6 -10 -14 0 -8 -9 -18
-20 -21 -11 -3 -20 -11 -20 -17 0 -12 -38 -48 -50 -48 -5 0 -22 -13 -40 -30
-18 -16 -39 -30 -47 -30 -22 0 -43 -26 -43 -54 0 -22 -4 -26 -30 -26 -22 0
-30 -5 -30 -18 0 -10 -9 -24 -21 -32 -12 -8 -35 -27 -51 -42 -17 -16 -34 -28
-39 -28 -5 0 -9 -6 -9 -13 0 -7 -9 -19 -21 -27 -11 -8 -31 -23 -42 -32 -38
-31 -71 -58 -96 -78 -13 -11 -28 -20 -33 -20 -4 0 -8 -11 -8 -25 0 -18 -5 -25
-20 -25 -11 0 -20 -7 -20 -15 0 -8 -4 -15 -10 -15 -5 0 -10 8 -10 18 0 17 -10
19 -100 20 -57 1 -100 -3 -100 -8 0 -6 4 -10 9 -10 5 0 16 -6 23 -13 7 -7 22
-18 32 -24 19 -10 18 -11 -2 -17 -16 -5 -22 -15 -22 -34 0 -16 -8 -34 -20 -42
-16 -12 -20 -26 -20 -76 0 -60 -1 -62 -30 -67 -25 -5 -30 -11 -30 -35 0 -17
-8 -33 -21 -42 -11 -8 -30 -23 -41 -32 -12 -10 -29 -18 -40 -18 -10 0 -18 -4
-18 -8 0 -5 -22 -19 -50 -32 -27 -13 -50 -27 -50 -31 0 -4 -16 -10 -36 -13
-29 -6 -39 -3 -53 13 -10 12 -26 21 -35 21 -9 0 -16 4 -16 9 0 5 -9 13 -20 16
-11 3 -20 15 -20 26 0 10 -4 19 -10 19 -5 0 -10 5 -10 11 0 6 -18 28 -40 49
-22 21 -40 45 -40 52 0 7 -9 20 -20 28 -11 8 -20 22 -20 32 0 10 -4 18 -10 18
-5 0 -10 11 -10 25 0 14 -4 25 -10 25 -5 0 -10 9 -10 20 0 19 -23 29 -108 46
-23 5 -32 12 -32 26 0 18 -4 19 -37 13 -40 -7 -136 -52 -141 -66 -6 -15 -22
-10 -22 6 0 8 -4 15 -10 15 -5 0 -10 18 -10 40 0 22 -4 40 -10 40 -6 0 -10 28
-10 65 0 37 -4 65 -10 65 -5 0 -10 7 -10 15 0 8 5 15 12 15 6 0 9 2 6 5 -11
11 -38 -8 -38 -26 0 -10 -4 -19 -10 -19 -5 0 -10 -5 -10 -11 0 -14 -36 -46
-61 -54 -11 -4 -19 -13 -19 -21 0 -8 -13 -17 -30 -20 -16 -4 -30 -10 -30 -14
0 -4 -18 -15 -40 -25 -22 -10 -40 -21 -40 -24 0 -4 -21 -12 -47 -19 -27 -7
-62 -17 -79 -22 -17 -6 -40 -10 -53 -10 -32 0 -181 -51 -181 -62 0 -6 -8 -7
-17 -4 -9 4 -19 2 -23 -4 -9 -14 -40 -2 -40 16 0 16 -2 16 -24 8 -9 -3 -16
-12 -16 -19 0 -9 -20 -15 -62 -18 -72 -5 -144 -29 -169 -58 -19 -22 -29 -24
-29 -5 0 22 -54 39 -107 32 -26 -3 -58 -7 -70 -7 -17 -1 -23 -7 -23 -25 0 -19
8 -26 43 -36 l42 -12 -45 -6 c-25 -3 -65 -16 -89 -29 -33 -17 -56 -22 -95 -19
-38 3 -55 0 -66 -13 -8 -8 -34 -19 -57 -22 -23 -4 -48 -9 -56 -13 -8 -3 -21 2
-30 10 -22 22 -27 20 -27 -9 0 -20 -5 -25 -25 -25 -27 0 -86 -26 -96 -43 -10
-14 -59 1 -59 18 0 8 -4 15 -10 15 -5 0 -10 -9 -10 -20 0 -11 5 -20 10 -20 6
0 10 -7 10 -15 0 -10 -10 -15 -30 -15 -16 0 -30 -3 -30 -8 0 -22 -105 -40
-157 -27 -16 4 -23 1 -23 -8 0 -10 -18 -16 -57 -20 -31 -3 -59 -10 -62 -15
-11 -17 -72 -19 -114 -5 -31 11 -42 11 -48 2 -5 -9 -22 -10 -61 -4 -29 4 -66
7 -83 6 -16 0 -32 4 -35 10 -9 13 -40 0 -40 -17 0 -8 -9 -14 -20 -14 -16 0
-20 -7 -20 -35 0 -19 4 -35 9 -35 5 0 33 -22 61 -50 28 -27 60 -50 71 -50 10
0 19 -6 19 -13 0 -15 41 -37 70 -37 29 0 50 -11 50 -26 0 -8 5 -14 10 -14 6 0
10 -18 10 -40 0 -22 5 -40 10 -40 23 0 8 -52 -24 -84 -26 -26 -39 -33 -60 -29
-14 3 -26 1 -26 -4 0 -5 -15 -9 -34 -10 -26 -1 -44 -10 -71 -37 -19 -20 -39
-36 -44 -36 -15 0 -51 -37 -51 -52 0 -15 -39 -38 -65 -38 -8 0 -39 -24 -69
-54 -63 -63 -117 -94 -182 -103 -50 -7 -43 -18 18 -28 38 -7 78 -34 78 -54 0
-6 5 -11 10 -11 14 0 12 -27 -2 -34 -10 -5 -10 -7 0 -12 14 -7 16 -44 2 -44
-5 0 -10 -6 -10 -14 0 -8 -9 -18 -20 -21 -16 -5 -20 -15 -20 -53 0 -45 -1 -48
-37 -60 -21 -8 -48 -14 -60 -14 -16 0 -23 -6 -23 -19 0 -10 -4 -19 -10 -19 -5
0 -10 -13 -10 -30 0 -23 -4 -30 -20 -30 -13 0 -20 -7 -20 -19 0 -11 -9 -23
-20 -26 -17 -5 -20 -15 -20 -61 0 -30 5 -54 10 -54 6 0 10 -7 10 -15 0 -8 -4
-15 -10 -15 -5 0 -10 -6 -10 -14 0 -8 -6 -17 -12 -20 -10 -5 -10 -7 0 -12 14
-7 17 -64 2 -64 -5 0 -10 -9 -10 -21 0 -29 -57 -81 -81 -74 -14 5 -19 1 -19
-12 0 -10 -9 -25 -20 -33 -13 -9 -20 -26 -20 -48 0 -47 -4 -50 -135 -99 -68
-25 -185 -1 -185 39 0 10 -4 18 -10 18 -5 0 -10 18 -10 40 0 22 5 40 10 40 6
0 10 9 10 20 0 11 -4 20 -10 20 -5 0 -10 21 -10 46 l0 46 -67 -7 c-38 -4 -86
-14 -108 -21 -87 -30 -253 -1 -287 50 -6 8 -10 7 -16 -2 -9 -13 -42 -6 -42 9
0 5 -9 9 -19 9 -20 0 -81 51 -81 68 0 6 -6 13 -12 16 -10 5 -10 7 0 12 14 7
17 64 2 64 -5 0 -10 9 -10 20 0 11 -4 20 -10 20 -6 0 -10 31 -10 73 0 61 3 75
20 87 11 8 20 20 20 27 0 7 5 13 10 13 6 0 10 14 10 30 0 17 5 30 10 30 6 0
10 22 10 49 0 41 -4 51 -20 56 -11 3 -20 15 -20 26 0 10 -4 19 -10 19 -5 0
-10 14 -10 30 0 17 -4 30 -10 30 -6 0 -10 29 -10 66 0 64 13 94 40 94 6 0 22
10 35 23 42 40 70 58 98 64 15 3 27 9 27 12 0 14 -118 65 -180 77 -123 24
-145 31 -189 54 -49 25 -71 43 -71 59 0 6 -4 11 -10 11 -5 0 -10 11 -10 25 0
14 5 25 10 25 6 0 10 11 10 25 0 14 5 25 10 25 6 0 10 6 10 13 0 7 9 19 20 27
11 8 20 18 20 23 0 8 71 78 129 127 32 27 25 40 -21 40 -16 0 -28 5 -28 10 0
6 -11 10 -25 10 -29 0 -75 20 -75 32 0 5 -11 6 -25 2 -16 -4 -30 0 -40 10 -9
9 -25 16 -36 16 -10 0 -19 4 -19 9 0 5 -9 13 -20 16 -25 8 -29 65 -5 65 9 0
21 5 28 10 49 42 62 50 79 50 10 0 18 5 18 11 0 6 9 8 20 4 11 -4 20 -2 20 4
0 6 22 13 50 17 27 4 60 15 71 25 12 11 34 20 48 20 58 3 78 7 123 23 28 10
58 14 74 10 17 -4 29 -2 34 6 7 11 15 11 48 1 22 -8 45 -10 52 -6 7 4 16 2 20
-5 6 -9 13 -9 28 -1 11 6 28 8 36 5 9 -3 16 -1 16 5 0 6 17 11 40 11 34 0 40
3 40 21 0 22 18 23 61 5 10 -5 27 4 49 24 18 17 46 34 62 37 15 3 28 10 28 16
0 5 20 8 48 5 33 -3 52 0 61 9 7 8 21 11 32 8 15 -5 19 -2 19 14 0 12 4 21 10
21 5 0 20 11 34 25 14 14 32 25 41 25 18 0 21 50 3 51 -10 0 -10 2 0 6 20 8
14 51 -8 58 -11 3 -20 11 -20 16 0 5 -7 9 -15 9 -25 0 -105 43 -105 57 0 7 -4
13 -10 13 -5 0 -10 16 -10 35 0 19 -4 35 -8 35 -14 0 -52 36 -52 49 0 6 -4 11
-10 11 -15 0 -12 67 3 74 10 5 10 7 0 12 -9 4 -13 30 -13 79 0 49 -4 75 -12
79 -10 5 -10 7 0 12 6 3 12 12 12 20 0 8 5 14 10 14 6 0 10 7 10 15 0 8 5 15
10 15 6 0 10 11 10 25 0 14 5 25 10 25 14 0 12 27 -2 33 -9 3 -6 11 10 24 14
13 22 32 22 52 0 17 5 31 10 31 6 0 10 6 10 14 0 8 9 18 20 21 16 5 20 15 20
48 0 31 5 47 20 57 13 9 20 26 20 47 0 18 5 33 10 33 6 0 10 9 10 20 0 11 5
20 10 20 6 0 10 5 10 11 0 6 14 24 30 39 17 15 30 33 30 39 0 6 5 11 10 11 6
0 10 7 10 15 0 8 5 15 10 15 6 0 10 11 10 25 0 14 5 25 10 25 6 0 10 13 10 29
0 21 6 32 20 36 11 3 20 15 20 26 0 12 7 19 20 19 22 0 27 15 8 23 -10 4 -9 8
2 17 11 9 12 13 3 17 -15 6 -17 43 -3 43 6 0 10 16 10 35 0 19 -4 35 -10 35
-5 0 -10 9 -10 20 0 11 -4 20 -10 20 -5 0 -10 14 -10 30 0 17 5 30 10 30 6 0
10 14 10 30 0 17 5 30 10 30 6 0 10 9 10 20 0 11 5 20 10 20 14 0 12 27 -2 34
-10 5 -10 7 0 12 6 3 12 14 12 25 0 10 5 19 10 19 6 0 10 6 10 14 0 8 10 18
22 22 19 6 17 8 -17 19 -20 8 -44 11 -51 8 -8 -3 -14 1 -14 9 0 18 -64 50 -85
42 -11 -5 -15 1 -15 20 0 14 5 26 10 26 6 0 10 6 10 13 0 7 9 19 20 27 22 16
27 40 8 41 -10 0 -10 2 0 6 6 2 12 12 12 22 0 9 9 23 21 31 45 32 59 48 59 68
0 16 9 24 38 31 20 6 44 11 52 11 13 0 13 1 0 10 -12 8 -11 10 6 10 12 0 31 9
44 20 13 11 27 20 32 20 4 0 8 7 8 15 0 10 10 15 30 15 28 0 30 3 30 35 0 28
4 35 20 35 13 0 20 -7 20 -20 0 -11 5 -20 10 -20 6 0 10 10 10 23 0 12 9 29
20 37 11 8 20 20 20 27 0 16 10 16 30 2 11 -8 12 -12 3 -16 -15 -6 -17 -43 -3
-43 6 0 10 9 10 19 0 11 9 23 20 26 11 4 20 15 20 26 0 26 38 64 73 73 15 3
27 13 27 21 0 8 7 15 16 15 19 0 44 24 44 43 0 8 -13 17 -30 21 -27 5 -43 26
-20 26 6 0 10 5 10 11 0 6 18 28 40 49 22 21 40 43 40 49 0 6 5 11 10 11 6 0
10 7 10 15 0 8 5 15 10 15 6 0 10 9 10 20 0 11 5 20 10 20 6 0 10 14 10 31 0
22 9 40 30 59 17 15 30 32 30 38 0 5 14 15 30 22 17 7 30 16 30 20 0 4 14 13
30 20 17 7 30 16 30 21 0 5 9 9 20 9 11 0 20 7 20 15 0 8 9 15 20 15 11 0 20
7 20 15 0 8 5 15 10 15 6 0 10 7 10 15 0 8 4 15 8 15 5 0 19 9 32 20 14 12 31
18 42 14 15 -4 18 0 18 25 0 17 4 31 8 31 14 0 52 36 52 50 0 6 14 25 30 40
17 15 30 33 30 39 0 6 5 11 10 11 6 0 10 5 10 11 0 6 18 28 40 49 22 21 40 43
40 49 0 5 9 13 20 16 11 3 20 11 20 16 0 14 26 39 40 39 6 0 21 10 34 23 12
12 41 31 64 41 23 11 42 22 42 26 0 4 18 15 40 25 22 10 40 22 40 27 0 4 9 8
19 8 11 0 26 6 33 13 7 7 22 16 33 20 11 3 52 17 90 31 39 14 86 26 105 27 19
0 46 5 60 10 31 10 114 2 118 -11z m1082 -4155 c27 -14 60 -25 74 -25 13 0 38
-13 55 -29 28 -26 31 -35 31 -90 0 -34 4 -61 10 -61 6 0 10 -25 10 -55 0 -30
5 -55 10 -55 6 0 10 -25 10 -56 0 -35 5 -61 14 -70 18 -17 26 -18 26 -1 0 7 9
19 20 27 11 8 20 20 20 27 0 7 5 13 10 13 6 0 10 11 10 25 0 14 5 25 10 25 6
0 10 7 10 15 0 8 5 15 10 15 6 0 10 -21 10 -46 0 -37 3 -45 15 -40 25 9 45 -4
45 -30 0 -13 5 -24 10 -24 6 0 10 -8 10 -18 0 -10 9 -24 20 -32 13 -10 20 -26
20 -49 0 -33 -9 -46 -59 -81 -12 -8 -21 -20 -21 -27 0 -7 -4 -13 -10 -13 -5 0
-10 -5 -10 -10 0 -12 53 -1 58 12 2 4 21 8 43 8 21 0 39 5 39 10 0 13 11 13
30 0 13 -9 13 -11 0 -21 -11 -8 -12 -12 -2 -16 6 -2 12 -11 12 -19 0 -8 -6
-14 -12 -15 -10 0 -10 -2 0 -6 14 -6 16 -43 2 -43 -5 0 -10 -14 -10 -31 0 -20
-8 -39 -22 -50 -11 -11 -16 -19 -10 -19 7 0 12 -15 12 -33 0 -21 7 -38 20 -47
13 -9 20 -26 20 -47 0 -23 -5 -33 -20 -38 -14 -4 -20 -15 -20 -36 0 -16 -4
-29 -10 -29 -5 0 -10 -5 -10 -11 0 -6 -18 -28 -40 -49 -22 -21 -40 -43 -40
-49 0 -6 -4 -11 -10 -11 -5 0 -10 -6 -10 -13 0 -7 -9 -19 -20 -27 -11 -8 -20
-18 -20 -23 0 -11 -59 -67 -71 -67 -5 0 -9 -7 -9 -15 0 -8 -4 -15 -10 -15 -5
0 -10 -9 -10 -20 0 -11 -4 -20 -10 -20 -5 0 -10 -13 -10 -30 0 -16 -4 -30 -10
-30 -5 0 -10 -11 -10 -25 0 -14 -4 -25 -10 -25 -5 0 -10 -9 -10 -20 0 -11 -4
-20 -10 -20 -5 0 -10 -7 -10 -15 0 -8 -4 -15 -10 -15 -5 0 -10 -5 -10 -11 0
-19 -62 -70 -92 -76 -24 -5 -28 -10 -28 -40 0 -27 -8 -43 -40 -73 -22 -21 -40
-45 -40 -52 0 -7 -9 -20 -20 -28 -11 -8 -20 -20 -20 -27 0 -7 -4 -13 -8 -13
-5 0 -18 -8 -30 -17 -11 -10 -30 -25 -41 -33 -13 -9 -21 -25 -21 -42 0 -15 -4
-28 -10 -28 -5 0 -10 -5 -10 -11 0 -6 -18 -28 -40 -49 -22 -21 -40 -42 -40
-47 0 -5 -9 -15 -21 -23 -12 -8 -34 -26 -49 -40 -15 -14 -38 -32 -50 -40 -12
-8 -31 -23 -42 -32 -24 -21 -28 -21 -48 -8 -13 9 -13 11 0 21 11 8 12 12 3 16
-15 6 -18 83 -3 83 6 0 10 20 10 45 0 25 5 45 10 45 6 0 10 11 10 24 0 13 6
27 13 30 10 5 10 7 0 12 -15 7 -17 34 -3 34 6 0 10 9 10 20 0 11 5 20 10 20 6
0 10 25 10 55 0 30 5 55 10 55 6 0 10 9 10 20 0 11 5 20 10 20 6 0 10 14 10
30 0 17 5 30 10 30 6 0 10 8 10 18 0 10 9 24 20 32 11 8 20 20 20 27 0 7 5 13
10 13 6 0 10 7 10 15 0 8 -4 15 -10 15 -5 0 -10 9 -10 20 0 11 5 20 10 20 6 0
10 11 10 25 0 14 5 25 10 25 6 0 10 9 10 20 0 12 -7 20 -16 20 -28 0 -44 27
-44 74 0 25 -4 46 -10 46 -5 0 -10 7 -10 15 0 8 -4 15 -10 15 -5 0 -10 18 -10
40 0 22 -4 40 -10 40 -6 0 -10 27 -10 60 0 55 -2 60 -25 66 -14 3 -36 3 -50 0
-18 -5 -25 -2 -25 8 0 8 -9 18 -20 21 -11 3 -20 15 -20 26 0 10 -6 19 -12 19
-10 0 -10 2 0 9 11 7 10 9 -3 15 -9 3 -23 -1 -31 -9 -9 -8 -20 -15 -25 -15 -5
0 -9 -9 -9 -20 0 -11 -4 -20 -10 -20 -6 0 -10 -37 -10 -90 0 -53 4 -90 10 -90
6 0 10 -13 10 -30 0 -16 5 -30 10 -30 6 0 10 -7 10 -15 0 -8 5 -15 10 -15 6 0
10 -7 10 -15 0 -8 -4 -15 -10 -15 -5 0 -10 -13 -10 -29 0 -26 -4 -30 -41 -36
-46 -8 -36 -25 14 -25 26 0 27 -2 27 -55 0 -43 -3 -55 -16 -55 -18 0 -44 -24
-44 -41 0 -14 -38 -49 -54 -49 -6 0 -5 -4 3 -9 12 -8 12 -12 -2 -25 -20 -21
-67 -21 -67 -1 0 8 -4 15 -10 15 -5 0 -10 -15 -10 -34 0 -31 -3 -34 -36 -41
-50 -9 -84 -26 -84 -42 0 -7 -9 -13 -20 -13 -12 0 -20 -7 -20 -16 0 -13 -6
-15 -27 -10 -69 17 -83 18 -97 3 -15 -15 -152 -34 -206 -29 -14 1 -56 -4 -95
-12 -38 -9 -71 -13 -73 -11 -3 2 4 12 14 22 12 13 19 14 22 5 2 -6 10 -12 19
-12 14 0 43 23 43 35 0 12 -29 35 -44 35 -9 0 -16 -7 -16 -15 0 -21 -9 -19
-33 8 -13 15 -21 18 -24 10 -6 -16 -23 -17 -23 -2 0 16 -26 39 -44 39 -9 0
-16 5 -16 10 0 6 5 10 10 10 14 0 12 27 -2 34 -10 5 -10 7 0 12 8 4 12 34 12
100 0 56 4 94 10 94 6 0 10 14 10 30 0 17 5 30 10 30 6 0 10 18 10 40 0 22 5
40 10 40 6 0 10 33 10 80 0 57 4 80 13 80 8 0 7 4 -3 10 -10 6 -11 10 -2 10 6
0 12 7 12 15 0 8 5 15 10 15 6 0 10 11 10 24 0 16 7 27 20 31 11 3 20 13 20
21 0 8 5 14 10 14 6 0 10 9 10 20 0 11 5 20 10 20 6 0 10 14 10 30 0 17 5 30
10 30 6 0 10 14 10 30 0 33 57 100 85 100 8 0 15 6 15 14 0 8 9 18 20 21 11 3
20 14 20 23 0 10 9 24 20 32 11 8 20 20 20 27 0 7 5 13 10 13 6 0 10 6 10 13
0 7 9 19 21 27 42 29 79 68 79 83 0 10 13 17 38 21 46 7 171 8 235 3 26 -3 47
-1 47 4 0 5 9 9 20 9 11 0 20 7 20 15 0 8 5 15 10 15 6 0 10 7 10 16 0 13 7
15 35 10 33 -6 38 -3 110 68 41 42 75 80 75 85 0 5 9 13 20 16 11 3 20 11 20
17 0 5 7 7 16 4 15 -6 64 34 64 53 0 5 9 13 20 16 11 3 20 10 20 15 0 5 9 12
20 15 11 3 20 15 20 26 0 12 7 19 20 19 11 0 20 7 20 15 0 8 9 15 20 15 12 0
20 7 20 16 0 16 16 34 59 64 12 8 21 20 21 28 0 17 22 41 38 42 7 0 35 -11 62
-25z m-4257 -2006 c20 -5 37 -14 37 -19 0 -5 14 -7 30 -3 18 3 30 1 30 -5 0
-7 13 -9 33 -5 43 7 127 -35 127 -63 0 -9 41 -44 52 -44 4 0 8 -16 8 -35 0
-25 -4 -35 -15 -35 -9 0 -36 -20 -61 -45 -24 -25 -53 -45 -64 -45 -11 0 -20
-7 -20 -15 0 -8 -4 -15 -10 -15 -5 0 -10 -6 -10 -14 0 -8 -9 -18 -20 -21 -11
-3 -20 -10 -20 -14 0 -4 -22 -18 -50 -31 -27 -13 -50 -27 -50 -32 0 -12 -85
-10 -115 4 -16 7 -25 19 -25 35 0 12 -4 23 -10 23 -5 0 -10 18 -10 40 0 22 5
40 10 40 6 0 10 9 10 20 0 11 5 20 10 20 6 0 10 20 10 45 0 25 5 45 10 45 18
0 11 18 -10 25 -11 3 -20 15 -20 26 0 10 -4 19 -10 19 -5 0 -10 9 -10 20 0 11
5 20 10 20 6 0 10 10 10 23 0 37 73 56 143 36z"/>
</g>
</svg>
