<?xml version="1.0" standalone="no"?>
<!DOCTYPE svg PUBLIC "-//W3C//DTD SVG 20010904//EN"
 "http://www.w3.org/TR/2001/REC-SVG-20010904/DTD/svg10.dtd">
<svg version="1.0" xmlns="http://www.w3.org/2000/svg"
 width="3950.000000pt" height="3506.000000pt" viewBox="0 0 3950.000000 3506.000000"
 preserveAspectRatio="xMidYMid meet">
<metadata>
Created by potrace 1.16, written by Peter Selinger 2001-2019
</metadata>
<g transform="translate(0.000000,3506.000000) scale(0.100000,-0.100000)"
fill="#ffffff" stroke="#000000" stroke-width="5.00">
<path d="M0 17530 l0 -17530 19750 0 19750 0 0 17530 0 17530 -19750 0 -19750
0 0 -17530z m36348 17073 c24 -3 56 0 72 7 42 17 70 5 70 -31 0 -16 5 -29 10
-29 6 0 10 -11 10 -25 0 -14 5 -25 10 -25 6 0 10 -7 10 -15 0 -8 5 -15 10 -15
6 0 10 -9 10 -20 0 -11 5 -20 10 -20 6 0 10 -7 10 -15 0 -8 5 -15 10 -15 6 0
10 -9 10 -21 0 -11 5 -17 10 -14 6 4 10 -22 10 -69 0 -44 4 -76 10 -76 6 0 10
-7 10 -15 0 -8 5 -15 10 -15 6 0 10 -9 10 -20 0 -11 -4 -20 -10 -20 -5 0 -10
-16 -10 -36 0 -28 8 -43 33 -67 20 -19 27 -32 20 -34 -23 -8 -14 -32 14 -39
47 -12 73 -47 73 -98 0 -26 -5 -47 -12 -50 -10 -5 -10 -7 0 -12 25 -12 14 -27
-62 -92 -9 -6 -27 -17 -41 -24 -14 -6 -25 -17 -25 -25 0 -7 -4 -13 -10 -13 -5
0 -10 -7 -10 -15 0 -8 -4 -15 -10 -15 -5 0 -10 -6 -10 -14 0 -8 -9 -18 -20
-21 -25 -8 -26 -22 -1 -30 31 -9 61 -41 61 -64 0 -14 6 -21 20 -21 13 0 20 -7
20 -19 0 -11 -9 -23 -20 -26 -11 -3 -20 -12 -20 -18 0 -7 -9 -19 -20 -27 -11
-8 -20 -20 -20 -27 0 -6 -9 -15 -21 -18 -37 -12 -16 -14 71 -6 47 4 91 6 98 3
6 -2 12 -19 12 -38 0 -19 5 -34 10 -34 6 0 10 -24 10 -53 0 -41 -4 -56 -20
-67 -11 -8 -20 -22 -20 -32 0 -10 -4 -18 -10 -18 -5 0 -10 -22 -10 -50 0 -27
-4 -50 -10 -50 -5 0 -10 -13 -10 -30 0 -16 -4 -30 -10 -30 -5 0 -10 -6 -10
-13 0 -7 -9 -19 -20 -27 -11 -8 -20 -19 -20 -25 0 -6 -9 -17 -20 -25 -11 -8
-20 -20 -20 -26 0 -6 -13 -17 -30 -24 -16 -7 -30 -20 -30 -29 0 -9 -9 -23 -20
-31 -11 -8 -20 -19 -20 -24 0 -10 -39 -46 -52 -46 -4 0 -8 -5 -8 -11 0 -6 -18
-28 -40 -49 -22 -21 -40 -43 -40 -49 0 -6 -4 -11 -10 -11 -5 0 -10 -11 -10
-25 0 -14 -4 -25 -10 -25 -5 0 -10 -11 -10 -25 0 -14 -4 -25 -10 -25 -5 0 -10
-7 -10 -15 0 -8 5 -15 10 -15 6 0 10 -11 10 -25 0 -14 -4 -25 -10 -25 -5 0
-10 -6 -10 -14 0 -7 -13 -19 -30 -26 -21 -9 -30 -19 -30 -36 0 -13 -4 -24 -10
-24 -5 0 -10 -5 -10 -11 0 -6 9 -8 20 -4 17 6 20 2 20 -30 0 -31 3 -36 30 -41
27 -6 44 -34 20 -34 -5 0 -10 -9 -10 -20 0 -11 -4 -20 -10 -20 -5 0 -10 -9
-10 -20 0 -11 -4 -20 -10 -20 -5 0 -10 -13 -10 -30 0 -16 -4 -30 -10 -30 -5 0
-10 -11 -10 -25 0 -14 -4 -25 -8 -25 -13 0 -52 -36 -52 -47 0 -6 -13 -16 -30
-23 -16 -7 -30 -19 -30 -26 0 -8 -6 -14 -12 -15 -10 0 -10 -2 0 -6 14 -6 17
-83 2 -83 -5 0 -10 -13 -10 -30 0 -16 -4 -30 -10 -30 -5 0 -10 -9 -10 -20 0
-11 -4 -20 -10 -20 -5 0 -10 -9 -10 -20 0 -11 -4 -20 -10 -20 -6 0 -10 -35
-10 -86 0 -91 -1 -93 -59 -134 -12 -8 -21 -18 -21 -23 0 -14 -61 -67 -77 -67
-15 0 -43 -23 -43 -35 0 -4 -13 -20 -30 -35 -16 -15 -30 -33 -30 -39 0 -6 -4
-11 -10 -11 -5 0 -10 -7 -10 -15 0 -17 -34 -55 -65 -73 -19 -11 -19 -11 3 -12
17 0 22 -6 22 -25 0 -14 5 -25 10 -25 6 0 10 -7 10 -15 0 -8 5 -15 10 -15 6 0
10 -9 10 -20 0 -11 -4 -20 -10 -20 -5 0 -10 -6 -10 -13 0 -7 -9 -19 -20 -27
-11 -8 -20 -20 -20 -27 0 -7 -4 -13 -10 -13 -5 0 -10 -9 -10 -20 0 -11 -4 -20
-10 -20 -5 0 -10 -7 -10 -15 0 -8 -4 -15 -10 -15 -5 0 -10 -9 -10 -20 0 -11
-4 -20 -10 -20 -5 0 -10 -7 -10 -15 0 -8 -4 -15 -10 -15 -5 0 -10 -7 -10 -15
0 -8 -4 -15 -10 -15 -5 0 -10 -5 -10 -11 0 -14 -36 -46 -61 -54 -11 -4 -19
-11 -19 -16 0 -16 -27 -39 -44 -39 -9 0 -16 -4 -16 -10 0 -6 -26 -10 -59 -10
-32 0 -86 -3 -120 -6 -59 -7 -61 -8 -61 -35 0 -16 -4 -29 -10 -29 -5 0 -10 -7
-10 -15 0 -8 -4 -15 -10 -15 -5 0 -10 -7 -10 -15 0 -8 -4 -15 -10 -15 -5 0
-10 -9 -10 -21 0 -35 -27 -51 -93 -56 -62 -5 -63 -5 -105 35 -23 22 -51 44
-62 47 -11 4 -20 13 -20 21 0 8 -6 14 -12 15 -10 0 -10 2 0 6 6 2 12 11 12 19
0 8 5 14 10 14 6 0 10 20 10 45 0 25 5 45 10 45 6 0 10 13 10 29 0 21 -6 32
-20 36 -14 4 -20 15 -20 36 0 22 -5 29 -19 29 -24 0 -81 52 -81 74 0 9 5 16
10 16 6 0 10 9 10 20 0 11 5 20 10 20 6 0 10 14 10 30 0 17 5 30 10 30 6 0 10
11 10 24 0 16 7 27 20 31 11 3 20 15 20 26 0 10 5 19 10 19 6 0 10 14 10 30 0
17 5 30 10 30 6 0 10 7 10 15 0 8 5 15 10 15 6 0 10 9 10 20 0 11 5 20 10 20
6 0 10 7 10 15 0 8 5 15 10 15 6 0 10 16 10 35 l0 35 -60 -7 c-52 -5 -60 -4
-60 11 0 9 -6 16 -12 16 -9 0 -8 3 2 10 8 5 12 11 9 14 -6 7 -137 -27 -167
-43 -17 -9 -28 -9 -52 4 -16 8 -58 19 -92 24 -58 8 -67 6 -113 -17 -28 -15
-70 -27 -95 -28 -58 -3 -141 -13 -158 -19 -18 -6 -62 16 -62 32 0 7 -4 13 -10
13 -5 0 -10 14 -10 30 0 17 5 30 10 30 18 0 10 32 -12 52 -14 12 -32 18 -47
15 -31 -6 -51 1 -51 19 0 8 -4 14 -10 14 -5 0 -10 11 -10 25 0 14 -4 25 -10
25 -15 0 -12 40 3 41 10 0 10 2 0 6 -7 2 -13 10 -13 18 0 7 -13 18 -30 25 -16
7 -30 19 -30 26 0 8 -12 17 -27 20 -33 9 -53 27 -53 48 0 9 -4 16 -10 16 -5 0
-10 9 -10 19 0 11 -6 22 -12 24 -10 4 -9 8 2 17 11 9 12 13 3 17 -19 7 -16 21
7 28 11 3 20 13 20 21 0 8 5 14 10 14 6 0 10 6 10 14 0 8 6 17 13 19 9 4 8 8
-3 16 -13 10 -13 12 0 21 10 6 11 10 3 10 -7 0 -13 11 -13 25 0 14 5 25 10 25
18 0 11 18 -10 25 -15 5 -20 15 -20 41 0 19 5 34 10 34 6 0 10 15 10 34 l0 34
-52 -1 c-113 -2 -312 22 -360 45 -27 12 -48 25 -48 30 0 4 -7 8 -15 8 -9 0
-21 5 -28 10 -44 38 -61 48 -106 70 -48 22 -51 25 -51 62 0 21 -4 38 -10 38
-15 0 -12 57 3 64 10 5 10 7 0 12 -15 7 -18 64 -3 64 6 0 10 9 10 20 0 11 -4
20 -10 20 -5 0 -10 7 -10 16 0 16 16 34 59 64 22 15 29 40 11 40 -23 0 -9 53
21 81 17 16 26 29 20 29 -6 0 -11 14 -11 30 0 17 -4 30 -10 30 -5 0 -10 25
-10 55 0 30 5 55 10 55 6 0 10 5 10 11 0 12 78 89 90 89 5 0 25 16 44 35 20
19 42 35 51 35 8 0 15 4 15 9 0 10 42 27 87 35 25 4 38 0 63 -23 51 -45 55
-48 98 -70 52 -26 84 -27 102 -1 18 24 91 27 130 5 14 -8 28 -14 33 -15 12 0
8 28 -5 34 -10 5 -10 7 0 12 6 3 12 14 12 25 0 10 -6 19 -12 19 -9 0 -8 4 2
11 11 8 12 12 3 16 -7 2 -13 15 -13 28 0 19 8 26 35 34 19 5 41 16 49 24 12
12 12 16 -5 28 -10 7 -19 23 -19 36 0 13 -8 24 -20 28 -16 5 -20 15 -20 46 0
22 5 39 11 39 6 0 -3 13 -20 29 -17 16 -31 36 -31 45 0 9 -4 16 -10 16 -5 0
-10 18 -10 40 0 22 5 40 10 40 6 0 10 6 10 14 0 8 9 18 20 21 16 5 20 15 20
56 0 27 5 49 10 49 6 0 10 6 10 14 0 8 6 17 13 19 9 4 8 8 -3 17 -11 9 -12 13
-2 17 6 2 12 13 12 23 0 24 20 32 163 62 37 8 57 17 57 26 0 31 76 72 133 72
10 0 28 5 40 12 35 19 156 46 177 41 12 -3 46 2 78 12 106 31 112 35 112 66 0
16 -4 29 -10 29 -5 0 -10 25 -10 55 0 30 5 55 10 55 6 0 10 6 10 13 0 7 9 19
20 27 20 15 28 60 10 60 -5 0 -10 14 -10 30 0 17 -4 30 -10 30 -5 0 -10 20
-10 45 0 45 0 45 35 45 19 0 49 -6 67 -14 66 -29 138 -46 193 -46 40 0 70 -7
105 -25 27 -14 61 -25 75 -25 14 0 25 -4 25 -10 0 -5 5 -10 10 -10 6 0 10 5
10 11 0 13 19 32 47 47 26 15 86 15 132 2 25 -7 37 -6 47 5 8 7 14 16 14 20 0
4 7 13 16 22 20 20 121 10 175 -18 21 -10 40 -19 43 -19 3 0 20 15 38 33 l33
32 145 -1 c103 0 153 3 172 13 15 7 36 13 48 13 11 0 33 12 47 26 20 20 32 24
52 19 14 -4 45 -9 69 -12z m-5158 -3783 c30 -11 56 -20 57 -20 2 0 3 -9 3 -20
0 -11 5 -20 10 -20 6 0 10 -13 10 -30 0 -17 5 -30 13 -31 10 0 10 -2 0 -6 -7
-2 -13 -18 -13 -34 0 -16 5 -29 13 -29 8 0 7 -4 -3 -11 -11 -8 -12 -12 -2 -16
6 -2 12 -11 12 -19 0 -8 5 -14 10 -14 6 0 10 -6 10 -13 0 -7 9 -19 20 -27 11
-8 20 -24 20 -36 0 -24 68 -61 95 -50 9 3 24 2 34 -4 10 -5 40 -11 67 -13 27
-2 59 -9 71 -15 31 -17 33 -16 33 19 0 24 4 30 15 25 20 -7 45 3 45 19 0 8 9
17 20 20 11 3 27 13 35 22 21 21 132 27 151 8 8 -7 14 -17 14 -21 0 -9 41 -44
52 -44 4 0 8 9 8 20 0 11 5 20 10 20 6 0 10 16 10 36 l0 36 40 -7 c26 -4 40
-3 40 4 0 6 5 11 10 11 6 0 10 -11 10 -25 0 -22 3 -24 30 -18 19 3 30 1 30 -6
0 -6 5 -11 10 -11 6 0 10 10 10 23 0 12 9 29 20 37 12 8 20 26 20 42 0 21 5
28 20 28 11 0 20 4 20 9 0 5 9 13 20 16 11 3 20 12 20 20 0 8 9 17 20 20 11 3
20 10 20 15 0 29 143 32 225 4 132 -44 215 -83 215 -101 0 -7 5 -13 10 -13 6
0 10 -9 10 -20 0 -13 7 -20 20 -20 16 0 20 -7 20 -30 0 -16 5 -30 10 -30 6 0
10 -7 10 -15 0 -8 5 -15 10 -15 6 0 10 -18 10 -41 0 -35 2 -40 18 -33 9 4 27
7 40 7 16 -1 22 5 22 19 0 19 34 58 51 58 4 0 26 18 49 40 44 42 60 49 60 26
0 -16 21 -26 56 -26 15 0 24 6 24 15 0 8 5 15 10 15 6 0 10 6 10 13 0 8 11 19
25 25 33 15 35 15 35 -2 0 -8 6 -16 13 -19 8 -3 4 -11 -12 -26 -13 -11 -20
-21 -14 -21 14 0 53 -35 53 -49 0 -6 5 -11 10 -11 6 0 10 -9 10 -20 0 -13 7
-20 20 -20 13 0 20 -7 20 -20 0 -11 6 -21 13 -21 6 -1 19 -3 27 -4 8 -1 21 -3
28 -4 6 0 12 -10 12 -21 0 -11 5 -20 10 -20 6 0 10 -11 10 -25 0 -14 5 -25 10
-25 6 0 10 -25 10 -55 0 -30 5 -55 10 -55 6 0 10 -9 10 -21 0 -15 5 -19 15
-15 21 8 45 -3 45 -20 0 -8 5 -14 10 -14 6 0 10 -13 10 -30 0 -16 4 -30 9 -30
13 0 71 -56 71 -69 0 -6 5 -11 10 -11 6 0 10 -11 10 -25 0 -14 5 -25 10 -25 6
0 10 -11 10 -25 0 -14 5 -25 10 -25 6 0 10 -38 10 -95 0 -57 -4 -95 -10 -95
-6 0 -10 -27 -10 -60 0 -33 2 -60 5 -60 7 0 27 16 71 58 41 40 65 38 114 -8
18 -16 35 -30 40 -30 12 0 50 -37 50 -49 0 -24 29 -41 68 -41 47 0 157 -33
177 -54 17 -17 20 -56 5 -56 -5 0 -10 -7 -10 -15 0 -8 -6 -15 -12 -16 -10 0
-10 -2 0 -6 6 -2 12 -11 12 -19 0 -8 5 -14 10 -14 6 0 10 -7 10 -15 0 -8 -4
-15 -10 -15 -5 0 -10 -22 -10 -48 0 -36 5 -51 20 -62 11 -8 20 -22 20 -32 0
-10 5 -18 10 -18 6 0 10 -7 10 -15 0 -8 5 -15 10 -15 6 0 10 -18 10 -40 0 -22
5 -40 10 -40 6 0 10 -11 10 -25 0 -14 5 -25 10 -25 6 0 10 -27 10 -60 0 -33 4
-60 10 -60 6 0 10 -13 10 -30 0 -16 5 -30 10 -30 6 0 10 -13 10 -30 0 -16 -4
-30 -10 -30 -5 0 -10 -11 -10 -25 0 -14 -4 -25 -10 -25 -5 0 -10 -16 -10 -35
0 -19 -4 -35 -10 -35 -5 0 -10 -6 -10 -14 0 -8 -9 -18 -20 -21 -11 -3 -20 -11
-20 -16 0 -6 -22 -31 -50 -57 -67 -63 -75 -70 -105 -84 -14 -6 -25 -15 -25
-19 0 -4 -9 -11 -20 -14 -11 -3 -20 -13 -20 -21 0 -8 -13 -17 -30 -20 -16 -4
-30 -12 -30 -19 0 -7 -14 -18 -31 -25 -17 -7 -36 -19 -43 -26 -7 -6 -41 -26
-76 -44 -35 -18 -70 -38 -77 -46 -20 -20 -46 -17 -73 6 -13 11 -35 23 -49 26
-14 2 -39 9 -55 14 -21 7 -32 6 -37 -1 -7 -12 -132 13 -173 34 -33 17 -66 55
-66 77 0 38 -26 53 -79 47 -51 -6 -101 -25 -101 -39 0 -4 9 -8 20 -8 11 0 20
-7 20 -15 0 -8 5 -15 10 -15 6 0 10 -7 10 -15 0 -8 5 -15 10 -15 6 0 10 -5 10
-11 0 -6 14 -24 30 -39 17 -15 30 -33 30 -39 0 -6 7 -11 16 -11 23 0 44 -25
44 -54 0 -14 4 -26 9 -26 16 0 71 -58 71 -74 0 -9 7 -16 16 -16 22 0 44 -25
44 -50 0 -16 4 -20 18 -16 19 6 62 -23 62 -42 0 -5 10 -12 23 -15 12 -3 48
-15 80 -27 37 -14 70 -20 88 -16 21 4 29 2 29 -8 0 -8 6 -17 13 -20 10 -5 10
-7 0 -12 -7 -3 -13 -10 -13 -16 0 -15 -35 -43 -70 -58 -17 -7 -30 -16 -30 -20
0 -4 -18 -15 -40 -25 -22 -10 -40 -22 -40 -27 0 -4 -9 -8 -20 -8 -11 0 -20 -5
-20 -10 0 -39 -119 -100 -193 -100 -26 0 -46 -7 -62 -22 -36 -34 -49 -44 -75
-58 -14 -7 -31 -19 -38 -27 -16 -15 -52 -18 -52 -3 0 16 -37 12 -54 -6 -9 -8
-20 -13 -25 -10 -5 4 -21 1 -35 -5 -20 -9 -26 -20 -26 -43 -1 -22 -9 -38 -31
-56 -16 -14 -44 -37 -60 -52 -17 -16 -39 -28 -49 -28 -25 0 -80 54 -80 79 0
12 -4 21 -10 21 -5 0 -10 11 -10 25 0 14 -4 25 -10 25 -5 0 -10 13 -10 29 0
37 -26 47 -76 29 -29 -10 -37 -10 -43 1 -11 17 -40 3 -94 -45 -22 -19 -55 -34
-77 -34 -41 0 -50 22 -50 119 0 54 -4 91 -10 91 -6 0 -10 40 -10 100 0 60 4
100 10 100 6 0 10 7 10 15 0 8 -3 15 -6 15 -11 0 -34 -29 -34 -44 0 -9 -4 -16
-10 -16 -5 0 -10 -7 -10 -15 0 -8 -4 -15 -10 -15 -5 0 -10 -11 -10 -25 0 -14
-4 -25 -10 -25 -5 0 -10 -5 -10 -11 0 -22 -71 -69 -105 -69 -8 0 -15 -7 -15
-15 0 -8 -9 -15 -20 -15 -11 0 -20 -6 -20 -13 0 -7 -10 -19 -21 -27 -12 -8
-32 -25 -45 -37 -13 -13 -28 -23 -34 -23 -6 0 -26 -16 -46 -35 -34 -34 -51
-40 -106 -36 -16 1 -28 -2 -28 -8 0 -5 -17 -15 -37 -21 -46 -14 -323 -24 -323
-12 0 11 -49 34 -58 28 -12 -7 -137 23 -140 34 -2 5 -31 10 -65 10 -63 0 -153
19 -129 27 18 7 15 23 -6 23 -10 0 -24 9 -32 20 -20 28 -30 25 -30 -9 0 -34
-38 -54 -97 -51 -79 5 -122 0 -139 -17 -19 -19 -96 -32 -216 -37 -82 -3 -108
-17 -108 -57 0 -23 -34 -59 -56 -59 -27 0 -64 24 -64 41 0 9 -6 19 -13 22 -18
7 -67 -3 -67 -14 0 -5 -9 -9 -19 -9 -11 0 -21 -5 -23 -10 -2 -6 -19 -11 -38
-13 -19 -1 -42 -9 -50 -17 -29 -30 -309 -4 -330 30 -6 9 -13 9 -29 1 -12 -7
-27 -9 -33 -5 -22 14 -148 31 -194 28 -34 -3 -44 -1 -44 11 0 8 -9 15 -20 15
-11 0 -20 4 -20 9 0 5 -9 12 -19 16 -11 3 -33 18 -49 33 -17 15 -39 34 -51 42
-13 9 -21 25 -21 42 0 15 -6 28 -12 29 -10 0 -10 2 -1 6 18 7 -9 33 -34 33
-14 0 -15 2 -4 9 11 7 9 10 -8 16 -11 3 -21 10 -21 15 0 5 -9 12 -20 15 -11 3
-20 15 -20 26 0 10 -4 19 -10 19 -5 0 -10 5 -10 11 0 6 -13 24 -30 39 -16 15
-30 33 -30 38 0 6 -6 13 -12 16 -10 5 -10 7 0 12 14 7 16 34 2 34 -5 0 -10 23
-10 50 0 28 5 50 10 50 6 0 10 33 10 80 0 47 4 80 10 80 6 0 10 9 10 20 0 11
5 20 10 20 6 0 10 14 10 30 0 17 5 30 10 30 6 0 10 7 10 15 0 8 5 15 10 15 6
0 10 11 10 25 0 14 5 25 10 25 6 0 10 8 10 19 0 11 12 23 30 31 29 12 41 30
19 30 -6 0 3 13 20 29 17 16 31 36 31 45 0 9 4 16 9 16 5 0 23 14 41 30 18 17
36 30 41 30 5 0 9 9 9 19 0 11 9 23 20 26 17 5 20 15 20 71 0 36 -4 64 -10 64
-5 0 -10 11 -10 25 0 14 5 25 10 25 6 0 10 23 10 50 0 28 5 50 10 50 6 0 10 7
10 15 0 8 5 15 10 15 6 0 10 5 10 11 0 17 40 49 62 49 10 0 18 6 18 13 0 7 9
19 20 27 11 8 20 22 20 32 0 10 5 18 10 18 6 0 10 11 10 25 0 14 5 25 10 25 6
0 10 11 10 25 0 14 5 25 10 25 6 0 10 7 10 15 0 8 5 15 10 15 6 0 10 9 10 20
0 11 5 20 10 20 6 0 10 5 10 10 0 6 -9 10 -20 10 -11 0 -20 5 -20 10 0 6 5 10
10 10 6 0 10 8 10 18 0 10 9 24 20 32 18 13 20 26 20 112 0 59 4 98 10 98 6 0
10 7 10 16 0 19 33 50 61 59 11 4 19 13 19 21 0 8 5 14 10 14 6 0 10 11 10 25
0 14 5 25 10 25 6 0 10 7 10 15 0 8 5 15 10 15 6 0 10 16 10 35 0 19 5 35 10
35 6 0 10 7 10 15 0 8 5 15 10 15 6 0 10 9 10 20 0 11 5 20 10 20 6 0 10 9 10
20 0 11 5 20 10 20 6 0 10 16 10 35 0 19 5 35 10 35 6 0 10 9 10 20 0 11 5 20
10 20 6 0 10 9 10 20 0 11 5 20 10 20 6 0 10 6 10 13 0 7 10 19 21 27 12 8 27
20 33 26 18 17 73 44 91 44 9 0 15 9 15 24 0 16 7 27 20 31 11 3 20 10 20 15
0 5 9 11 19 15 11 3 34 18 50 33 68 60 93 75 115 66 12 -5 16 0 16 19 0 17 7
28 20 32 11 3 20 15 20 26 0 10 5 19 10 19 6 0 10 7 10 15 0 8 5 15 10 15 6 0
10 7 10 15 0 8 5 15 10 15 6 0 10 9 10 20 0 11 5 20 10 20 6 0 10 9 10 20 0
11 5 20 10 20 6 0 10 7 10 15 0 8 4 15 8 15 14 0 52 36 52 49 0 6 5 11 10 11
6 0 10 6 10 13 0 7 9 19 20 27 11 8 20 20 20 27 0 7 5 13 10 13 6 0 10 9 10
20 0 11 4 20 9 20 5 0 16 6 23 14 19 19 114 66 133 66 8 0 15 4 15 10 0 5 17
14 38 20 20 5 44 14 52 20 24 16 91 11 150 -10z m-2217 -3956 c9 -3 17 -10 17
-16 0 -17 42 -49 72 -55 16 -3 28 -12 28 -19 0 -10 9 -12 30 -7 17 3 30 1 30
-4 0 -6 18 -18 40 -28 22 -10 40 -22 40 -26 0 -4 9 -11 20 -14 11 -3 20 -15
20 -26 0 -10 4 -19 8 -19 5 0 19 -9 32 -20 13 -11 34 -20 47 -20 23 0 53 -20
53 -35 0 -12 80 -84 100 -90 11 -4 20 -11 20 -17 0 -16 41 -48 61 -48 9 0 37
-18 60 -41 34 -32 39 -43 28 -50 -11 -7 -11 -9 -1 -9 10 0 10 -3 -2 -15 -8 -8
-20 -15 -26 -15 -18 0 -40 -27 -40 -50 0 -12 -6 -27 -13 -35 -17 -16 -232
-125 -248 -125 -6 0 -19 -8 -28 -18 -30 -32 -191 -69 -191 -43 0 19 -75 13
-98 -8 -31 -26 -32 -117 -2 -126 11 -3 20 -12 20 -19 0 -8 24 -18 60 -26 33
-7 60 -18 60 -24 0 -6 9 -18 20 -26 15 -11 20 -26 20 -57 0 -24 -4 -43 -10
-43 -6 0 -10 -28 -10 -65 0 -45 -4 -65 -12 -66 -10 0 -10 -2 0 -6 14 -6 16
-33 2 -33 -5 0 -10 -9 -10 -20 0 -11 -4 -20 -10 -20 -5 0 -10 -18 -10 -40 0
-22 -4 -40 -10 -40 -5 0 -10 -12 -10 -26 0 -25 -32 -64 -52 -64 -4 0 -8 -9 -8
-20 0 -11 -4 -20 -10 -20 -5 0 -10 -7 -10 -16 0 -15 -47 -66 -73 -78 -9 -5 -9
-7 0 -12 10 -4 10 -9 -1 -19 -24 -24 -86 4 -86 39 0 9 -4 16 -10 16 -5 0 -10
19 -10 41 0 47 -27 79 -67 79 -13 0 -56 -16 -96 -37 -54 -27 -83 -36 -119 -35
-65 1 -118 31 -118 66 0 9 -4 16 -10 16 -5 0 -10 7 -10 15 0 8 -4 15 -10 15
-5 0 -10 11 -10 25 0 14 -4 25 -10 25 -5 0 -10 23 -10 50 0 33 4 50 13 50 8 0
7 4 -3 10 -10 6 -11 10 -2 10 6 0 12 9 12 20 0 11 5 20 10 20 6 0 10 23 10 50
0 28 5 50 10 50 6 0 10 7 10 15 0 8 5 15 10 15 6 0 10 9 10 20 0 11 5 20 10
20 6 0 10 14 10 30 0 17 5 30 10 30 6 0 10 6 10 13 0 7 9 19 20 27 11 8 20 25
20 37 0 15 6 23 18 23 17 0 33 10 85 53 25 21 16 30 -45 47 -22 6 -38 17 -38
25 0 8 -4 15 -10 15 -5 0 -10 7 -10 15 0 8 -4 15 -10 15 -5 0 -10 11 -10 25 0
14 5 25 10 25 6 0 10 42 10 106 0 120 -10 143 -53 123 -20 -9 -38 -7 -91 9
-37 12 -73 19 -80 16 -8 -3 -25 6 -39 20 -15 14 -33 26 -42 26 -10 0 -15 10
-15 34 0 28 5 36 30 46 17 7 30 16 30 21 0 5 7 9 15 9 8 0 34 9 57 19 24 11
62 27 86 37 45 18 93 54 74 54 -8 0 -12 19 -12 50 0 28 5 50 10 50 6 0 10 9
10 20 0 11 5 20 10 20 6 0 10 7 10 15 0 8 5 15 10 15 6 0 10 7 10 15 0 20 43
29 71 14 17 -9 24 -9 27 0 2 6 16 11 30 11 15 1 38 7 52 15 19 12 44 14 105 9
44 -3 88 -8 98 -10z m3437 -765 c0 -30 6 -56 14 -65 21 -21 26 -18 26 16 0 17
5 30 10 30 6 0 10 -16 10 -35 0 -19 5 -35 10 -35 6 0 10 8 10 18 0 12 14 25
40 37 22 10 40 21 40 25 0 12 50 30 85 30 l35 0 0 -50 c0 -27 5 -50 10 -50 6
0 10 -7 10 -15 0 -8 5 -15 10 -15 6 0 10 -9 10 -20 0 -11 5 -20 10 -20 6 0 10
-13 10 -30 0 -16 5 -30 10 -30 6 0 10 -20 10 -45 0 -25 -4 -45 -10 -45 -5 0
-10 -9 -10 -20 0 -11 -4 -20 -10 -20 -5 0 -10 -7 -10 -15 0 -8 -4 -15 -10 -15
-5 0 -10 -8 -10 -19 0 -11 -12 -23 -30 -31 -16 -7 -30 -16 -30 -20 0 -4 -18
-15 -40 -25 -22 -10 -40 -25 -40 -33 0 -17 -34 -49 -61 -57 -11 -4 -19 -15
-19 -26 0 -10 -4 -19 -8 -19 -5 0 -19 -9 -32 -20 -25 -22 -40 -26 -40 -10 0 6
-4 10 -10 10 -5 0 -10 -11 -10 -25 0 -14 5 -25 10 -25 6 0 10 4 10 9 0 14 57
33 79 26 22 -7 31 -55 11 -55 -5 0 -10 -5 -10 -11 0 -25 -60 -62 -84 -53 -9 3
-16 17 -16 30 0 13 -6 24 -12 24 -9 0 -8 4 2 10 11 7 6 8 -17 4 -26 -5 -33 -3
-33 10 0 9 5 16 10 16 19 0 10 39 -10 45 -11 3 -20 15 -20 26 0 13 -7 19 -22
20 -13 0 -17 3 -10 6 14 6 16 43 2 43 -5 0 -10 23 -10 50 0 28 5 50 10 50 6 0
10 5 10 11 0 6 -9 8 -20 4 -12 -4 -20 -2 -20 5 0 20 -23 36 -72 50 -42 13 -48
18 -48 42 0 15 -4 28 -10 28 -5 0 -10 11 -10 25 0 14 5 25 10 25 6 0 10 20 10
45 0 25 5 45 10 45 6 0 10 11 10 25 0 14 5 25 10 25 6 0 10 15 10 33 0 22 7
37 21 47 12 8 27 21 35 28 7 6 37 12 66 12 29 0 60 5 68 10 36 23 50 12 50
-41z"/>
</g>
</svg>
