<?xml version="1.0" standalone="no"?>
<!DOCTYPE svg PUBLIC "-//W3C//DTD SVG 20010904//EN"
 "http://www.w3.org/TR/2001/REC-SVG-20010904/DTD/svg10.dtd">
<svg version="1.0" xmlns="http://www.w3.org/2000/svg"
 width="3950.000000pt" height="3506.000000pt" viewBox="0 0 3950.000000 3506.000000"
 preserveAspectRatio="xMidYMid meet">
<metadata>
Created by potrace 1.16, written by Peter Selinger 2001-2019
</metadata>
<g transform="translate(0.000000,3506.000000) scale(0.100000,-0.100000)"
fill="#ffffff" stroke="#000000" stroke-width="5.00">
<path d="M0 17530 l0 -17530 19750 0 19750 0 0 17530 0 17530 -19750 0 -19750
0 0 -17530z m36370 16989 c0 -6 14 -24 30 -39 17 -15 30 -35 30 -44 0 -9 5
-16 10 -16 6 0 10 -24 10 -53 0 -41 4 -56 20 -67 18 -13 20 -26 20 -112 0 -59
-4 -98 -10 -98 -18 0 -10 -29 10 -35 11 -3 20 -10 20 -15 0 -5 9 -12 20 -15
11 -3 20 -13 20 -21 0 -8 5 -14 10 -14 6 0 10 -18 10 -40 0 -22 5 -40 10 -40
6 0 10 -18 10 -40 0 -22 -4 -40 -10 -40 -5 0 -10 -13 -10 -30 0 -16 -4 -30
-10 -30 -5 0 -10 -5 -10 -11 0 -13 -38 -49 -51 -49 -4 0 -19 -11 -32 -24 -14
-14 -41 -28 -61 -31 -20 -4 -36 -9 -36 -12 0 -3 14 -18 30 -33 30 -28 39 -50
20 -50 -5 0 -10 -9 -10 -20 0 -11 5 -20 10 -20 6 0 10 -7 10 -15 0 -8 5 -15
10 -15 6 0 10 -20 10 -45 0 -25 -4 -45 -10 -45 -5 0 -10 -11 -10 -25 0 -14 -4
-25 -10 -25 -5 0 -10 -5 -10 -11 0 -13 -38 -49 -52 -49 -21 0 -5 -18 22 -23
18 -4 30 -13 30 -22 0 -9 5 -13 10 -10 6 4 10 -17 10 -54 0 -34 4 -61 10 -61
6 0 10 -18 10 -40 0 -22 -4 -40 -10 -40 -5 0 -10 -5 -10 -11 0 -5 -27 -37 -60
-69 -55 -54 -60 -62 -60 -103 0 -42 -2 -45 -41 -63 l-41 -18 31 -15 c57 -27
40 -63 -78 -161 -17 -14 -31 -31 -31 -37 0 -7 -4 -13 -10 -13 -5 0 -10 -7 -10
-16 0 -17 -36 -54 -52 -54 -4 0 -8 -9 -8 -19 0 -11 -9 -23 -20 -26 -11 -3 -20
-12 -20 -20 0 -8 -9 -17 -20 -20 -11 -3 -20 -15 -20 -26 0 -10 -4 -19 -10 -19
-5 0 -10 -8 -10 -18 0 -10 -9 -24 -20 -32 -11 -8 -20 -20 -20 -27 0 -7 -4 -13
-10 -13 -5 0 -10 -9 -10 -20 0 -11 -4 -20 -10 -20 -5 0 -10 -6 -10 -13 0 -7
-9 -19 -20 -27 -11 -8 -20 -20 -20 -27 0 -6 9 -15 20 -18 11 -3 20 -11 20 -16
0 -5 9 -9 20 -9 11 0 20 -7 20 -15 0 -8 -4 -15 -10 -15 -5 0 -10 -6 -10 -13 0
-8 -10 -19 -22 -25 -23 -11 -23 -11 4 -11 79 -2 79 -42 -2 -121 -33 -32 -60
-64 -60 -69 0 -6 -4 -11 -10 -11 -6 0 -10 -30 -10 -70 0 -40 4 -70 10 -70 6 0
10 -11 10 -25 0 -14 -4 -25 -10 -25 -5 0 -10 -9 -10 -20 0 -11 -4 -20 -10 -20
-5 0 -10 -9 -10 -20 0 -11 -4 -20 -10 -20 -5 0 -10 -18 -10 -40 0 -22 -4 -40
-10 -40 -5 0 -10 -11 -10 -25 0 -14 -4 -25 -10 -25 -5 0 -10 -9 -10 -20 0 -11
5 -20 10 -20 18 0 10 -45 -10 -60 -11 -8 -20 -22 -20 -32 0 -10 -4 -18 -10
-18 -5 0 -10 -6 -10 -13 0 -7 -9 -19 -20 -27 -11 -8 -20 -18 -20 -23 0 -12
-21 -31 -50 -47 -32 -17 -157 -50 -193 -50 -15 0 -42 -7 -59 -16 -17 -9 -40
-13 -54 -10 -13 4 -24 3 -24 -2 0 -8 -113 -32 -153 -32 -38 0 -67 32 -67 74 0
20 5 36 10 36 6 0 10 11 10 25 0 14 6 25 13 25 8 0 7 4 -3 10 -10 6 -11 10 -2
10 6 0 12 7 12 16 0 9 14 29 30 44 37 35 40 68 5 75 -14 3 -36 7 -50 10 -21 5
-25 11 -25 40 0 19 5 35 10 35 6 0 10 6 10 13 0 7 9 19 20 27 11 8 20 22 20
32 0 10 5 18 10 18 6 0 10 6 10 14 0 8 3 16 8 19 4 2 0 2 -8 -1 -8 -2 -36 -10
-62 -17 -26 -7 -59 -25 -73 -39 -14 -14 -30 -26 -35 -26 -6 0 -10 -6 -10 -14
0 -7 -13 -19 -30 -26 -16 -7 -30 -16 -30 -20 0 -13 -51 -30 -120 -40 -68 -10
-140 -36 -140 -52 0 -14 -44 -9 -108 11 -57 19 -63 19 -114 4 -68 -21 -141
-21 -162 0 -9 8 -16 31 -16 50 0 27 -5 36 -25 45 -14 7 -35 12 -45 12 -32 0
-110 43 -110 60 0 8 -9 22 -20 30 -11 8 -20 21 -20 30 0 9 -9 22 -21 30 -11 8
-30 23 -41 32 -11 10 -29 20 -39 23 -11 4 -19 15 -19 26 0 10 -4 19 -10 19 -5
0 -10 20 -10 44 0 36 4 46 20 51 11 3 20 15 20 26 0 10 5 19 10 19 6 0 10 9
10 20 0 11 5 20 10 20 6 0 10 9 10 20 0 11 -4 20 -10 20 -5 0 -10 20 -10 45 0
29 -4 45 -12 46 -10 0 -10 2 0 6 7 2 12 22 12 44 0 21 4 39 9 39 5 0 23 14 41
30 22 20 27 30 17 30 -32 0 -67 23 -67 44 0 12 -9 28 -20 36 -11 8 -20 20 -20
26 0 6 -13 14 -30 18 -18 3 -30 12 -30 21 0 8 -4 15 -10 15 -5 0 -10 6 -10 14
0 8 -9 18 -20 21 -11 3 -20 10 -20 14 0 5 -13 14 -30 21 -18 8 -30 20 -30 31
0 11 -4 19 -10 19 -5 0 -10 6 -10 13 0 7 -9 19 -20 27 -21 15 -27 40 -10 40 6
0 10 35 10 85 0 50 4 85 10 85 6 0 10 11 10 25 0 14 5 25 10 25 6 0 10 14 10
30 0 17 4 30 8 30 5 0 19 9 32 20 13 11 31 20 42 20 10 0 18 5 18 10 0 6 10
10 23 11 12 0 16 3 10 6 -28 11 -9 39 44 67 18 9 39 16 48 16 8 0 15 5 15 11
0 6 9 8 20 4 14 -4 20 -2 20 8 0 10 16 17 50 21 l50 7 0 44 c0 25 -4 45 -10
45 -5 0 -10 14 -10 30 0 17 5 30 10 30 6 0 10 6 10 13 0 7 9 19 20 27 11 8 20
21 20 30 0 9 9 22 20 30 21 15 27 40 10 40 -5 0 -10 7 -10 15 0 8 -4 15 -8 15
-14 0 -52 36 -52 49 0 6 -4 11 -10 11 -18 0 -11 35 10 50 21 15 27 40 10 40
-5 0 -10 6 -10 13 0 13 -40 37 -61 37 -16 0 -39 27 -39 44 0 9 5 16 10 16 6 0
10 7 10 15 0 8 5 15 10 15 6 0 10 16 10 35 0 19 5 35 10 35 6 0 10 11 10 25 0
14 5 25 10 25 6 0 10 8 10 18 0 25 56 50 138 62 37 5 70 10 75 10 4 0 7 15 7
34 0 27 5 36 28 45 36 15 159 41 195 41 16 0 36 4 46 10 10 5 38 11 62 12 24
2 51 10 59 18 21 21 72 37 169 51 46 7 79 15 73 17 -15 5 -16 42 -2 42 19 0
10 22 -20 50 -16 15 -30 33 -30 39 0 6 -4 11 -10 11 -5 0 -10 14 -10 30 0 17
5 30 10 30 6 0 10 9 10 20 0 11 5 20 10 20 6 0 10 23 10 50 0 33 4 50 13 51 6
1 49 1 94 1 75 -1 88 -4 162 -42 44 -22 89 -40 100 -40 31 0 51 11 51 27 0 22
39 53 66 53 26 0 74 -20 74 -30 0 -14 54 -18 67 -5 7 8 13 17 13 20 0 13 62
65 77 65 17 0 72 -28 91 -46 7 -8 22 -14 33 -14 10 0 19 -4 19 -10 0 -5 5 -10
10 -10 6 0 10 7 10 15 0 8 5 15 10 15 6 0 10 7 10 15 0 8 5 15 10 15 6 0 10 6
10 13 0 35 124 51 154 21 14 -14 18 -14 31 -1 10 10 38 15 87 16 40 1 109 10
153 20 95 22 135 25 135 10z m-1157 -3594 c23 -10 22 -47 -3 -65 -29 -21 -25
-34 16 -53 31 -15 37 -15 50 -3 8 8 14 19 14 25 0 5 9 13 20 16 11 3 26 12 33
20 24 23 116 65 144 65 19 0 24 -3 15 -9 -10 -6 -5 -11 17 -21 32 -13 41 -34
19 -43 -10 -4 -9 -8 2 -16 10 -7 11 -11 3 -11 -7 0 -13 -5 -13 -11 0 -6 -22
-32 -50 -59 -27 -27 -50 -56 -50 -64 0 -16 -40 -30 -122 -41 -58 -9 -98 0 -98
21 0 13 -8 15 -37 10 -38 -6 -81 10 -55 21 14 6 16 43 2 43 -5 0 -10 7 -10 15
0 17 -5 18 -28 6 -9 -4 -29 -11 -44 -15 -21 -5 -28 -3 -28 9 0 8 -4 15 -8 15
-5 0 -19 8 -30 19 -23 19 -31 81 -12 81 6 0 10 7 10 15 0 8 1 15 3 15 1 0 20
7 42 14 40 14 163 15 198 1z m-2603 -336 c30 -11 64 -23 75 -27 33 -10 65 -49
65 -81 0 -21 6 -32 20 -36 21 -7 29 -55 10 -55 -5 0 -10 -13 -10 -30 0 -23 5
-30 18 -30 27 0 62 -34 62 -59 0 -11 5 -21 10 -21 6 0 10 -11 10 -24 0 -22 3
-23 47 -18 55 6 73 20 73 56 0 14 5 26 10 26 6 0 10 5 10 11 0 13 38 49 52 49
4 0 8 9 8 21 0 52 64 63 170 29 34 -11 67 -20 72 -20 15 0 38 -27 38 -44 0 -9
5 -16 10 -16 6 0 10 -25 10 -55 0 -30 5 -55 10 -55 6 0 10 -5 10 -11 0 -13 58
-69 71 -69 5 0 9 -12 9 -26 0 -24 3 -26 29 -21 39 8 71 -20 71 -62 0 -17 5
-31 10 -31 6 0 10 -16 10 -35 0 -19 5 -35 10 -35 6 0 10 -13 10 -30 0 -16 5
-30 10 -30 6 0 10 -9 10 -20 0 -11 5 -20 10 -20 6 0 10 -28 10 -65 0 -37 4
-65 10 -65 6 0 10 -13 10 -30 0 -16 -4 -30 -10 -30 -5 0 -10 -13 -10 -30 0
-16 -4 -30 -10 -30 -5 0 -10 -11 -10 -25 0 -14 -4 -25 -10 -25 -5 0 -10 -13
-10 -30 0 -16 -4 -30 -10 -30 -5 0 -10 -11 -10 -25 0 -14 -4 -25 -10 -25 -5 0
-10 -9 -10 -20 0 -11 -4 -20 -10 -20 -5 0 -10 -7 -10 -15 0 -8 -4 -15 -10 -15
-5 0 -10 -8 -10 -18 0 -10 -9 -24 -20 -32 -11 -8 -20 -20 -20 -27 0 -6 -9 -15
-20 -18 -11 -3 -20 -13 -20 -21 0 -8 -4 -14 -10 -14 -15 0 -12 -87 3 -93 9 -4
8 -8 -3 -16 -8 -6 -10 -11 -4 -11 6 0 21 9 34 20 13 11 27 20 32 20 4 0 8 7 8
15 0 8 5 15 10 15 6 0 10 9 10 20 0 11 5 20 10 20 6 0 10 7 10 15 0 8 5 15 10
15 6 0 10 7 10 16 0 16 36 54 79 84 12 8 21 20 21 27 0 7 5 13 10 13 6 0 10 6
10 14 0 7 14 19 30 26 17 7 30 16 30 21 0 5 9 9 20 9 11 0 20 -4 20 -9 0 -9
54 -29 138 -51 23 -6 42 -14 42 -19 0 -4 27 -20 60 -36 64 -30 74 -50 40 -75
-11 -8 -20 -20 -20 -26 0 -7 -6 -15 -12 -17 -10 -4 -9 -8 2 -16 43 -29 50 -36
50 -48 0 -7 5 -13 10 -13 6 0 10 -7 10 -15 0 -8 5 -15 10 -15 6 0 10 -27 10
-60 0 -33 -4 -60 -10 -60 -5 0 -10 -13 -10 -28 0 -16 -8 -34 -20 -42 -21 -15
-28 -70 -10 -70 6 0 10 -24 10 -53 0 -41 4 -56 20 -67 21 -15 28 -50 10 -50
-5 0 -10 -7 -10 -15 0 -8 -4 -15 -9 -15 -16 0 -71 -58 -71 -74 0 -9 -4 -16 -8
-16 -5 0 -20 -10 -33 -21 -22 -19 -32 -21 -112 -15 -75 5 -104 2 -190 -20
-106 -27 -144 -26 -201 3 -36 18 -56 38 -56 52 0 6 -4 11 -10 11 -5 0 -10 18
-10 40 0 32 -4 40 -18 40 -19 0 -62 -31 -62 -44 0 -22 -58 -56 -93 -56 -14 0
-39 -13 -57 -30 -18 -16 -36 -30 -41 -30 -5 0 -9 -7 -9 -15 0 -8 -4 -15 -8
-15 -8 0 -26 -13 -71 -51 -19 -17 -90 -41 -101 -34 -5 3 -20 0 -34 -6 -19 -9
-26 -20 -26 -41 0 -31 -22 -38 -46 -14 -16 17 -19 46 -4 46 6 0 10 11 10 25 0
14 -4 25 -10 25 -5 0 -10 10 -10 21 0 19 -4 21 -40 16 -22 -3 -40 -1 -40 4 0
14 -15 11 -38 -10 -27 -23 -28 -31 -2 -31 11 0 20 -4 20 -9 0 -5 8 -12 19 -16
28 -9 61 -40 61 -59 0 -9 5 -16 10 -16 6 0 10 -16 10 -35 0 -19 -4 -35 -10
-35 -5 0 -10 -9 -10 -20 0 -11 -4 -20 -10 -20 -5 0 -10 -8 -10 -18 0 -10 -9
-24 -20 -32 -11 -8 -20 -22 -20 -32 0 -10 -4 -18 -10 -18 -15 0 -12 -87 3 -94
10 -5 10 -7 0 -12 -7 -3 -13 -12 -13 -20 0 -8 -4 -14 -10 -14 -5 0 -10 -9 -10
-20 0 -11 -4 -20 -9 -20 -5 0 -16 -6 -23 -14 -28 -28 -100 -58 -124 -52 -21 6
-24 12 -24 56 0 33 -4 50 -12 51 -10 0 -10 2 0 6 6 2 12 16 12 29 0 13 -6 24
-12 24 -9 0 -8 4 2 10 10 6 11 10 3 10 -10 0 -13 33 -13 130 0 80 -4 130 -10
130 -5 0 -10 18 -10 40 0 22 -4 40 -10 40 -5 0 -10 11 -10 25 0 14 -1 25 -3
25 -1 0 -27 -9 -57 -20 -30 -11 -74 -20 -97 -20 -23 0 -43 -5 -45 -11 -3 -9
-9 -9 -25 0 -25 13 -62 14 -80 3 -8 -5 1 -8 21 -9 27 -1 45 -11 80 -47 30 -29
46 -54 46 -70 0 -16 7 -27 20 -31 11 -3 20 -15 20 -26 0 -10 5 -19 10 -19 6 0
10 -5 10 -11 0 -6 14 -24 30 -39 26 -24 30 -35 30 -79 0 -28 -4 -51 -10 -51
-5 0 -10 -11 -10 -25 0 -14 -4 -25 -10 -25 -5 0 -10 -6 -10 -14 0 -8 -6 -17
-12 -20 -10 -5 -10 -7 0 -12 19 -9 14 -24 -8 -24 -13 0 -20 -7 -20 -20 0 -11
-4 -20 -9 -20 -5 0 -17 -7 -26 -16 -16 -16 -109 -54 -132 -54 -7 0 -13 7 -13
15 0 17 -2 18 -24 9 -9 -3 -16 -15 -16 -25 0 -10 -4 -19 -10 -19 -5 0 -10 -9
-10 -20 0 -22 -51 -41 -91 -34 -13 3 -31 0 -39 -6 -13 -9 -13 -11 0 -20 12 -7
8 -11 -17 -16 -18 -4 -33 -11 -33 -16 0 -7 -21 -8 -56 -3 -38 4 -59 3 -64 -4
-3 -6 -35 -13 -70 -15 -53 -4 -72 0 -116 22 -34 17 -54 33 -54 43 0 10 -9 21
-20 24 -11 3 -20 10 -20 15 0 5 -18 14 -40 20 -22 6 -40 14 -40 18 0 4 -21 9
-47 10 -26 1 -49 6 -52 10 -8 12 -60 21 -136 25 -68 4 -105 14 -105 28 0 5 -9
9 -20 9 -11 0 -20 5 -20 10 0 6 -4 10 -10 10 -5 0 -10 -7 -10 -15 0 -15 -13
-20 -86 -29 -22 -3 -69 -15 -105 -26 -35 -12 -74 -18 -86 -15 -13 3 -23 1 -23
-5 0 -5 -9 -10 -19 -10 -11 0 -21 -5 -23 -12 -3 -8 -25 -12 -61 -12 -31 1 -57
-3 -57 -8 0 -5 -7 -16 -16 -25 -13 -14 -21 -14 -54 -3 -21 7 -49 10 -62 6 -87
-24 -288 -14 -288 14 0 6 -7 10 -15 10 -9 0 -43 14 -77 31 -68 34 -69 34 -228
5 -47 -9 -108 -16 -135 -16 -133 -1 -142 0 -162 18 -12 10 -44 28 -72 42 -46
21 -51 26 -51 57 0 18 5 33 10 33 6 0 10 11 10 25 0 14 5 25 10 25 6 0 10 25
10 55 0 37 4 55 13 55 8 0 7 4 -3 10 -10 6 -11 10 -2 10 6 0 12 7 12 15 0 8 5
15 10 15 6 0 10 6 10 13 0 7 9 19 20 27 11 8 20 20 20 27 0 7 5 13 10 13 6 0
10 7 10 15 0 8 5 15 10 15 6 0 10 5 10 11 0 15 56 66 81 74 10 4 19 13 19 21
0 8 5 14 10 14 6 0 10 15 10 34 0 26 5 36 20 41 17 6 20 15 20 76 0 39 -4 69
-10 69 -5 0 -10 16 -10 35 0 19 -4 35 -10 35 -5 0 -10 14 -10 30 0 17 5 30 10
30 6 0 10 8 10 19 0 11 12 23 30 31 17 7 30 18 30 24 0 6 9 18 20 26 15 11 20
26 20 62 0 26 -4 48 -10 48 -5 0 -10 7 -10 15 0 8 -4 15 -10 15 -5 0 -10 11
-10 25 0 14 5 25 10 25 6 0 10 8 10 18 0 10 9 24 20 32 11 8 20 25 20 37 0 13
4 23 8 23 16 0 52 37 52 54 0 9 5 16 10 16 6 0 10 7 10 15 0 8 -4 15 -10 15
-5 0 -10 18 -10 40 0 22 -4 40 -10 40 -5 0 -10 20 -10 45 0 25 5 45 10 45 6 0
10 9 10 20 0 11 5 20 10 20 6 0 10 5 10 10 0 6 45 55 100 110 83 82 100 104
100 130 0 17 5 30 13 30 8 0 7 4 -3 10 -10 6 -11 10 -2 10 6 0 12 7 12 15 0 8
-4 15 -10 15 -5 0 -10 7 -10 15 0 8 -4 15 -10 15 -5 0 -10 14 -10 30 0 17 5
30 10 30 6 0 10 11 10 25 0 14 5 25 10 25 6 0 10 9 10 20 0 11 5 20 10 20 6 0
10 5 10 10 0 6 11 22 24 35 21 20 35 25 78 24 93 -1 112 1 118 12 10 15 104
37 134 32 14 -3 26 -1 26 4 0 6 27 16 60 23 38 8 60 18 60 26 0 8 7 14 16 14
31 0 44 27 44 89 0 34 4 61 10 61 6 0 10 9 10 20 0 11 5 20 10 20 6 0 10 9 10
20 0 11 5 20 10 20 6 0 10 8 10 18 0 36 66 54 199 56 67 0 121 -2 121 -6 0 -5
10 -8 22 -8 28 0 89 -21 106 -37 6 -6 12 -19 12 -27 0 -9 -6 -16 -12 -17 -10
0 -10 -2 0 -6 14 -6 16 -33 2 -33 -5 0 -10 -4 -10 -10 0 -5 14 -10 30 -10 17
0 30 -5 30 -11 0 -10 48 -58 109 -109 17 -14 31 -32 31 -41 0 -15 50 -33 128
-46 26 -4 32 -10 32 -29 0 -13 5 -24 10 -24 6 0 10 -18 10 -40 0 -22 5 -40 10
-40 6 0 10 14 10 30 0 17 5 30 10 30 6 0 10 16 10 35 0 31 3 35 38 45 43 11
60 24 191 140 18 17 36 30 41 30 4 0 16 8 28 18 11 9 30 24 42 32 12 8 31 23
42 33 12 9 25 17 29 17 4 0 14 6 22 14 7 8 46 31 86 51 86 43 121 75 121 110
0 14 5 25 10 25 6 0 10 9 10 20 0 11 4 20 8 20 5 0 19 9 32 20 13 11 42 25 64
31 23 5 46 12 51 14 28 10 96 3 145 -16z m400 -2310 c0 -17 60 -69 80 -69 9 0
27 -9 40 -20 13 -11 26 -20 30 -20 15 0 50 -38 50 -54 0 -9 5 -16 10 -16 6 0
10 -13 10 -30 0 -16 5 -30 10 -30 6 0 10 -6 10 -14 0 -8 9 -18 20 -21 11 -3
20 -13 20 -21 0 -8 5 -14 10 -14 6 0 10 -7 10 -16 0 -19 33 -50 61 -59 11 -4
19 -12 19 -20 0 -8 9 -17 20 -20 17 -5 20 -15 20 -57 0 -52 -6 -61 -60 -98
-35 -23 -80 -67 -80 -77 0 -5 -10 -15 -21 -23 -12 -8 -27 -21 -35 -27 -7 -7
-18 -13 -24 -13 -14 0 -40 25 -40 39 0 6 -4 11 -8 11 -5 0 -19 9 -32 20 -13
11 -37 20 -56 20 -39 0 -84 19 -84 35 0 18 -48 37 -68 26 -9 -4 -29 -11 -44
-15 -24 -5 -28 -3 -28 14 0 11 -4 20 -10 20 -5 0 -10 11 -10 25 0 14 6 25 13
25 8 0 7 4 -3 10 -10 6 -11 10 -2 10 6 0 12 9 12 20 0 11 -4 20 -10 20 -5 0
-10 7 -10 15 0 8 5 15 10 15 6 0 10 16 10 35 0 19 -4 35 -10 35 -6 0 -10 27
-10 60 0 33 4 60 10 60 6 0 10 28 10 65 0 37 4 65 10 65 6 0 10 7 10 15 0 8 5
15 10 15 6 0 10 6 10 14 0 7 14 19 30 26 17 7 30 16 30 21 0 5 14 9 30 9 17 0
30 -5 30 -11z m-4125 -1573 c60 -16 94 -33 116 -58 9 -10 26 -18 38 -18 24 0
51 -21 51 -39 0 -6 5 -11 10 -11 6 0 10 -9 10 -19 0 -11 9 -23 20 -26 11 -3
20 -15 20 -25 0 -21 46 -33 72 -19 12 6 25 6 39 -2 37 -19 89 -77 89 -99 0
-11 5 -20 10 -20 6 0 10 -13 10 -30 0 -16 -4 -30 -10 -30 -5 0 -10 -7 -10 -15
0 -23 -41 -61 -74 -69 -35 -9 -66 1 -66 20 0 8 -8 15 -17 15 -62 5 -79 4 -88
-3 -5 -5 -21 -17 -34 -28 -29 -24 -89 -42 -156 -46 -55 -3 -125 11 -125 26 0
6 -7 10 -15 10 -9 0 -27 11 -41 25 -14 14 -29 25 -34 25 -6 0 -10 9 -10 20 0
11 -4 20 -10 20 -5 0 -10 16 -10 35 0 19 5 35 10 35 6 0 10 20 10 45 0 25 5
45 10 45 6 0 10 7 10 15 0 8 -4 15 -10 15 -6 0 -10 30 -10 70 0 40 -4 70 -10
70 -5 0 -10 18 -10 40 l0 40 83 0 c45 0 105 -6 132 -14z"/>
</g>
</svg>
