<?xml version="1.0" standalone="no"?>
<!DOCTYPE svg PUBLIC "-//W3C//DTD SVG 20010904//EN"
 "http://www.w3.org/TR/2001/REC-SVG-20010904/DTD/svg10.dtd">
<svg version="1.0" xmlns="http://www.w3.org/2000/svg"
 width="3950.000000pt" height="3506.000000pt" viewBox="0 0 3950.000000 3506.000000"
 preserveAspectRatio="xMidYMid meet">
<metadata>
Created by potrace 1.16, written by Peter Selinger 2001-2019
</metadata>
<g transform="translate(0.000000,3506.000000) scale(0.100000,-0.100000)"
fill="#ffffff" stroke="#000000" stroke-width="5.00">
<path d="M0 17530 l0 -17530 19750 0 19750 0 0 17530 0 17530 -19750 0 -19750
0 0 -17530z m35985 16666 c13 -14 34 -27 45 -31 14 -4 20 -15 20 -35 0 -24 -5
-29 -36 -34 -19 -4 -41 -9 -48 -12 -8 -3 -21 2 -30 11 -9 9 -20 14 -25 10 -10
-6 -81 25 -81 35 0 4 18 15 40 25 22 10 40 21 40 25 0 5 34 26 48 29 2 1 14
-10 27 -23z m-225 -96 c19 -11 30 -19 23 -20 -6 0 -19 -7 -28 -16 -34 -35
-285 -24 -285 12 0 8 1 14 3 14 1 0 20 7 42 15 61 22 201 19 245 -5z m293 -61
c28 -8 37 -15 37 -31 0 -31 -37 -58 -82 -58 -38 0 -38 0 -38 40 0 22 -4 40
-10 40 -5 0 -10 7 -10 15 0 15 21 14 103 -6z m-631 -250 c40 -20 88 -61 88
-75 0 -10 40 -43 61 -49 11 -4 19 -13 19 -21 0 -8 5 -14 10 -14 6 0 10 -9 10
-21 0 -11 6 -26 13 -34 27 -26 100 -56 150 -61 79 -8 91 -12 118 -35 16 -14
20 -23 12 -26 -7 -3 -13 -11 -13 -19 0 -8 -4 -14 -8 -14 -11 0 -52 -35 -52
-44 0 -4 -22 -29 -50 -56 -29 -29 -50 -58 -50 -70 0 -28 -74 -99 -111 -107
-28 -5 -29 -7 -29 -65 0 -54 3 -63 31 -89 l31 -29 -32 -30 c-18 -16 -36 -30
-41 -30 -5 0 -9 -7 -9 -15 0 -15 -51 -32 -135 -45 -27 -4 -44 -8 -36 -9 10 -1
8 -7 -7 -20 -12 -10 -22 -22 -22 -27 0 -5 -9 -16 -20 -24 -11 -8 -20 -22 -20
-32 0 -14 8 -18 35 -18 46 0 85 -19 85 -42 0 -10 6 -18 13 -19 10 0 10 -2 0
-6 -7 -2 -13 -11 -13 -20 0 -8 -13 -28 -30 -43 -16 -15 -30 -35 -30 -44 0 -9
-4 -16 -10 -16 -5 0 -10 -9 -10 -20 0 -11 -4 -20 -10 -20 -5 0 -10 -25 -10
-55 0 -30 -4 -55 -10 -55 -5 0 -10 -7 -10 -15 0 -8 -4 -15 -10 -15 -6 0 -10
-28 -10 -65 0 -37 4 -65 10 -65 6 0 10 -5 10 -11 0 -6 14 -24 30 -39 31 -29
40 -60 18 -60 -9 0 -8 -4 2 -11 11 -8 12 -12 3 -16 -7 -2 -13 -9 -13 -14 0
-14 -47 -59 -60 -59 -6 0 -18 -7 -26 -15 -10 -10 -35 -15 -74 -15 -50 0 -62
-4 -89 -29 -17 -16 -31 -35 -31 -43 0 -7 -9 -20 -20 -28 -11 -8 -20 -20 -20
-27 0 -7 -4 -13 -8 -13 -5 0 -19 -9 -32 -20 -13 -11 -33 -22 -44 -24 -117 -21
-145 -24 -168 -19 -21 4 -28 1 -28 -11 0 -9 -12 -19 -27 -22 -16 -4 -36 -16
-45 -27 -13 -14 -24 -18 -43 -13 -20 5 -25 13 -25 38 0 48 -34 72 -90 63 -108
-15 -150 -17 -150 -8 0 6 -13 16 -30 23 -28 12 -44 50 -20 50 6 0 10 11 10 25
0 14 5 25 10 25 6 0 10 7 10 15 0 8 5 15 10 15 6 0 10 6 10 14 0 13 26 26 78
41 12 3 22 10 22 14 0 4 18 16 40 26 22 10 40 24 40 31 0 7 9 16 20 19 20 6
28 35 10 35 -5 0 -10 7 -10 15 0 8 -4 15 -10 15 -5 0 -10 7 -10 15 0 8 5 15
10 15 6 0 10 9 10 20 0 11 5 20 10 20 6 0 10 6 10 14 0 8 9 18 20 21 11 3 20
11 20 16 0 5 7 9 15 9 19 0 74 27 92 46 17 17 17 62 -1 79 -7 7 -30 17 -50 20
-20 4 -36 12 -36 17 0 14 -37 46 -61 53 -11 4 -19 10 -19 14 0 4 -18 16 -40
26 -22 10 -40 24 -40 32 0 7 -4 13 -10 13 -5 0 -10 16 -10 35 0 19 5 35 10 35
6 0 10 13 10 28 0 24 7 32 50 52 28 13 50 27 50 31 0 4 9 11 20 14 11 3 20 13
20 21 0 8 5 14 10 14 6 0 10 7 10 15 0 8 6 15 13 16 10 0 10 2 0 6 -7 2 -13
13 -13 24 0 10 -4 19 -10 19 -5 0 -10 14 -10 30 0 17 -5 30 -12 30 -7 1 0 8
17 17 35 19 55 38 55 52 0 6 5 11 10 11 6 0 10 14 10 30 0 17 -4 30 -8 30 -5
0 -19 9 -32 20 -13 11 -40 25 -62 30 -22 6 -38 17 -38 25 0 8 -4 15 -10 15 -5
0 -10 18 -10 39 0 31 4 41 20 46 14 4 20 15 20 36 0 16 5 29 10 29 6 0 10 6
10 13 0 7 9 19 20 27 23 17 27 65 7 84 -7 8 -28 21 -47 31 -19 10 -40 24 -48
31 -7 8 -24 16 -38 19 -13 3 -35 7 -49 10 -39 8 -30 32 15 40 22 4 40 11 40
16 0 5 7 9 15 9 27 0 85 34 85 50 0 8 -9 22 -20 30 -33 23 -23 33 26 26 34 -4
54 -1 84 14 69 35 125 49 201 51 69 2 80 -1 158 -40 89 -45 131 -49 131 -11 0
10 9 22 20 25 11 3 20 13 20 20 0 8 10 17 23 19 12 3 31 7 42 9 43 10 67 6
107 -14z"/>
</g>
</svg>
