<?xml version="1.0" standalone="no"?>
<!DOCTYPE svg PUBLIC "-//W3C//DTD SVG 20010904//EN"
 "http://www.w3.org/TR/2001/REC-SVG-20010904/DTD/svg10.dtd">
<svg version="1.0" xmlns="http://www.w3.org/2000/svg"
 width="3950.000000pt" height="3506.000000pt" viewBox="0 0 3950.000000 3506.000000"
 preserveAspectRatio="xMidYMid meet">
<metadata>
Created by potrace 1.16, written by Peter Selinger 2001-2019
</metadata>
<g transform="translate(0.000000,3506.000000) scale(0.100000,-0.100000)"
fill="#ffffff" stroke="#000000" stroke-width="5.00">
<path d="M14735 19708 c-22 -5 -64 -16 -93 -25 -44 -13 -84 -14 -225 -9 -147
6 -191 4 -302 -13 -136 -22 -222 -43 -340 -84 -38 -14 -126 -32 -195 -42 -158
-21 -166 -22 -182 -39 -35 -34 -154 -78 -248 -91 -30 -4 -71 -16 -91 -25 -19
-10 -64 -22 -100 -26 -35 -3 -72 -11 -83 -16 -25 -13 -106 -95 -106 -107 0 -5
-6 -12 -12 -15 -10 -5 -10 -7 0 -12 6 -3 12 -12 12 -20 0 -8 5 -14 10 -14 6 0
10 -7 10 -15 0 -8 5 -15 10 -15 6 0 10 -7 10 -15 0 -8 5 -15 10 -15 6 0 10 -9
10 -20 0 -11 5 -20 10 -20 6 0 10 -12 10 -26 0 -26 20 -54 40 -54 6 0 22 -10
35 -22 36 -34 49 -44 75 -58 34 -18 50 -36 50 -55 0 -9 14 -30 30 -45 17 -15
30 -37 30 -49 0 -12 5 -21 10 -21 6 0 10 -20 10 -45 0 -25 5 -45 10 -45 6 0
10 -20 10 -45 0 -25 -4 -45 -10 -45 -5 0 -10 -7 -10 -15 0 -8 -4 -15 -10 -15
-5 0 -10 -8 -10 -18 0 -10 -9 -24 -20 -32 -11 -8 -20 -21 -20 -30 0 -9 -9 -22
-20 -30 -11 -8 -20 -20 -20 -27 0 -7 -4 -13 -10 -13 -5 0 -10 -9 -10 -20 0
-11 -4 -20 -10 -20 -5 0 -10 -9 -10 -20 0 -11 -4 -20 -10 -20 -5 0 -10 -9 -10
-20 0 -11 -4 -20 -10 -20 -5 0 -10 -7 -10 -16 0 -9 -13 -29 -30 -44 -16 -15
-30 -33 -30 -39 0 -6 -4 -11 -10 -11 -5 0 -10 -9 -10 -20 0 -11 -4 -20 -10
-20 -5 0 -10 -5 -10 -11 0 -6 -13 -24 -30 -39 -16 -15 -30 -35 -30 -44 0 -9
-4 -16 -10 -16 -5 0 -10 -11 -10 -25 0 -14 -4 -25 -10 -25 -5 0 -10 -5 -10
-11 0 -6 -18 -28 -40 -49 -22 -21 -40 -43 -40 -49 0 -6 -4 -11 -10 -11 -5 0
-10 -7 -10 -16 0 -8 -18 -33 -40 -54 -22 -21 -40 -43 -40 -48 0 -5 -11 -14
-25 -20 -29 -13 -36 -19 -105 -82 -27 -25 -62 -55 -77 -68 -65 -52 -73 -60
-73 -71 0 -6 -4 -11 -10 -11 -5 0 -10 -9 -10 -20 0 -11 -4 -20 -10 -20 -5 0
-10 -9 -10 -20 0 -11 -4 -20 -10 -20 -5 0 -10 -9 -10 -20 0 -11 -4 -20 -10
-20 -14 0 -12 -49 3 -64 6 -7 22 -15 35 -18 25 -7 92 9 92 21 0 5 14 14 30 21
17 7 30 16 30 20 0 4 11 12 25 18 28 13 37 20 96 75 22 20 45 37 50 37 5 0 9
14 9 31 0 37 11 49 80 84 29 15 59 32 65 39 6 6 39 24 73 40 l62 30 0 63 c0
35 4 63 10 63 15 0 12 57 -2 63 -10 4 -10 6 0 6 6 1 12 7 12 14 0 7 9 19 20
27 13 9 20 26 20 47 0 18 5 33 10 33 6 0 10 6 10 14 0 24 39 29 81 11 25 -12
39 -25 39 -37 0 -10 5 -18 10 -18 15 0 12 -29 -5 -47 -8 -8 -31 -19 -50 -24
-25 -7 -35 -16 -35 -29 0 -11 -4 -20 -10 -20 -5 0 -10 -7 -10 -15 0 -8 5 -15
10 -15 6 0 10 -13 10 -29 0 -21 6 -32 20 -36 11 -3 20 -13 20 -21 0 -8 5 -14
10 -14 6 0 10 -7 10 -15 0 -21 48 -30 82 -17 15 7 43 18 61 25 42 16 61 34 44
40 -9 4 -9 6 1 6 6 1 12 8 12 16 0 9 9 15 21 15 11 0 54 11 95 25 41 14 87 25
103 25 16 0 57 9 91 20 34 11 79 20 99 20 48 0 156 -38 171 -60 3 -4 33 -22
68 -39 35 -18 87 -55 116 -84 29 -29 63 -59 76 -67 13 -8 37 -29 55 -47 18
-17 47 -39 65 -48 38 -19 80 -59 80 -75 0 -5 5 -10 10 -10 6 0 10 -7 10 -15 0
-8 5 -15 10 -15 6 0 10 -9 10 -20 0 -11 5 -20 10 -20 6 0 10 -9 10 -20 0 -11
5 -20 10 -20 6 0 10 -9 10 -20 0 -11 5 -20 10 -20 6 0 10 -5 10 -11 0 -6 18
-28 40 -49 22 -21 40 -43 40 -49 0 -6 5 -11 10 -11 6 0 10 -5 10 -11 0 -13 58
-69 71 -69 5 0 9 -7 9 -15 0 -8 5 -15 10 -15 6 0 10 -13 10 -29 0 -21 6 -32
20 -36 11 -3 20 -11 20 -16 0 -5 9 -9 19 -9 28 0 81 -54 81 -83 0 -18 8 -27
30 -36 17 -6 43 -16 60 -22 35 -13 70 -42 70 -58 0 -6 5 -11 10 -11 6 0 10
-10 10 -21 0 -23 35 -59 57 -59 28 0 103 -47 103 -65 0 -13 49 -54 91 -75 55
-29 69 -43 69 -72 0 -20 12 -30 70 -58 39 -19 70 -40 70 -47 0 -7 5 -13 10
-13 6 0 10 -8 10 -19 0 -12 12 -23 33 -31 108 -40 167 -75 167 -99 0 -6 5 -11
10 -11 6 0 10 -8 10 -18 0 -12 14 -25 41 -37 40 -18 99 -66 99 -80 0 -13 27
-33 80 -60 53 -27 80 -47 80 -61 0 -12 40 -41 73 -54 17 -6 70 -29 117 -50 47
-21 104 -46 128 -56 23 -9 42 -21 42 -26 0 -17 48 -56 101 -83 29 -15 58 -32
65 -39 32 -28 45 -36 94 -61 58 -29 80 -47 80 -64 0 -6 5 -11 10 -11 6 0 10
-6 10 -13 0 -7 9 -19 20 -27 11 -8 20 -20 20 -27 0 -7 5 -13 10 -13 6 0 10
-16 10 -35 0 -19 5 -35 10 -35 6 0 10 -6 10 -14 0 -8 9 -18 20 -21 11 -3 20
-10 20 -15 0 -5 9 -11 19 -15 23 -7 81 -59 81 -72 0 -5 9 -15 20 -23 11 -8 20
-20 20 -27 0 -7 5 -13 10 -13 6 0 10 -9 10 -19 0 -19 18 -31 46 -31 8 0 14 6
14 13 0 18 63 47 101 47 31 0 102 -32 127 -56 15 -16 32 -20 122 -34 36 -5
106 -16 155 -25 50 -9 110 -14 135 -11 71 9 120 26 120 41 0 8 5 15 10 15 6 0
10 7 10 15 0 11 11 15 39 15 22 0 46 6 53 13 38 38 165 67 293 67 57 0 96 5
115 15 20 10 91 18 243 26 222 11 278 6 311 -26 8 -8 31 -15 50 -15 20 0 36
-4 36 -9 0 -5 14 -14 31 -21 27 -12 36 -11 75 8 25 12 54 22 65 22 22 0 96
-35 116 -56 16 -16 77 -34 118 -34 17 -1 48 -7 70 -16 22 -8 74 -19 115 -25
78 -11 161 -34 170 -48 8 -13 88 -51 107 -51 54 0 133 -41 133 -69 0 -6 14
-11 30 -11 17 0 30 5 30 10 0 15 56 12 72 -3 21 -21 54 -37 78 -37 11 0 41
-20 65 -45 l45 -44 0 -110 c0 -78 4 -111 13 -114 9 -4 9 -6 -1 -6 -10 -1 -10
-4 2 -16 8 -8 16 -15 19 -15 7 0 47 37 47 44 0 23 37 39 109 45 79 7 111 22
111 55 0 38 130 45 365 20 130 -13 196 -30 215 -53 9 -11 76 -31 103 -31 14 0
41 -7 59 -16 29 -13 50 -14 148 -6 63 6 127 13 141 17 20 5 32 0 57 -23 22
-21 49 -32 94 -41 35 -7 101 -31 148 -53 82 -40 89 -42 220 -49 74 -4 153 -12
174 -19 22 -7 112 -12 210 -13 139 -2 179 1 215 15 44 17 45 16 95 -9 59 -30
176 -63 226 -63 59 0 109 -19 144 -55 42 -42 82 -63 137 -71 52 -8 78 -20 101
-46 22 -26 95 -44 208 -53 50 -4 114 -13 142 -20 44 -12 54 -12 84 2 20 10 34
24 34 35 0 10 5 18 10 18 6 0 10 8 10 19 0 26 39 38 144 46 75 5 92 10 113 31
13 13 31 24 39 24 8 0 33 9 54 20 32 17 57 20 137 19 145 -2 276 8 388 32 88
19 108 20 173 9 81 -13 197 -16 234 -5 66 19 78 27 78 56 0 16 5 29 10 29 6 0
10 14 10 30 0 17 5 30 10 30 6 0 10 40 10 100 0 60 -4 100 -10 100 -6 0 -10
35 -10 85 0 50 -4 85 -10 85 -6 0 -10 27 -10 60 0 33 -4 60 -10 60 -5 0 -10
11 -10 25 0 14 -4 25 -10 25 -5 0 -10 11 -10 25 0 14 -4 25 -10 25 -5 0 -10
11 -10 25 0 14 -4 25 -10 25 -6 0 -10 28 -10 65 0 37 4 65 10 65 6 0 10 32 10
75 0 43 4 75 10 75 6 0 10 16 10 35 0 19 5 35 10 35 6 0 10 9 10 20 0 11 5 20
10 20 6 0 10 7 10 15 0 8 5 15 10 15 6 0 10 7 10 15 0 8 5 15 10 15 6 0 10 7
10 15 0 8 5 15 10 15 6 0 10 7 10 15 0 8 5 15 10 15 6 0 10 7 10 15 0 8 5 15
10 15 6 0 10 7 10 15 0 8 5 15 10 15 6 0 10 7 10 15 0 8 5 15 10 15 6 0 10 7
10 15 0 8 5 15 10 15 6 0 10 6 10 14 0 8 9 18 20 21 11 3 20 12 20 18 0 7 9
19 20 27 11 8 20 21 20 30 0 9 9 22 20 30 11 8 20 20 20 27 0 7 4 13 8 13 11
0 52 35 52 44 0 11 80 86 91 86 5 0 9 6 9 13 0 14 60 47 85 47 8 0 15 4 15 9
0 5 9 13 20 16 11 3 20 11 20 17 0 5 14 23 30 38 17 15 30 33 30 39 0 6 5 11
10 11 6 0 10 5 10 11 0 6 18 28 40 49 22 21 40 43 40 49 0 6 5 11 10 11 6 0
10 7 10 15 0 8 5 15 10 15 6 0 10 11 10 25 0 14 5 25 10 25 6 0 10 11 10 25 0
14 5 25 10 25 6 0 10 18 10 40 0 22 -4 40 -10 40 -5 0 -10 5 -10 11 0 13 -19
32 -45 47 -40 21 -135 -12 -135 -47 0 -6 -4 -11 -10 -11 -5 0 -10 -9 -10 -20
0 -11 -4 -20 -10 -20 -5 0 -10 -10 -10 -21 0 -26 -33 -57 -69 -66 -33 -8 -101
-41 -118 -58 -7 -8 -13 -20 -13 -27 0 -8 -10 -20 -21 -28 -12 -8 -37 -29 -55
-47 -33 -33 -167 -105 -216 -117 -24 -5 -28 -11 -28 -42 0 -19 -6 -41 -13 -48
-18 -18 -66 -42 -102 -50 -58 -13 -85 -28 -85 -48 0 -29 -21 -44 -73 -52 -35
-5 -56 -17 -88 -47 -22 -21 -47 -39 -56 -39 -21 0 -43 -25 -43 -49 0 -12 -4
-21 -10 -21 -5 0 -10 -5 -10 -11 0 -20 -29 -39 -82 -56 -47 -15 -98 -51 -98
-68 0 -17 -32 -35 -60 -35 -41 0 -100 -32 -100 -55 0 -8 -70 -75 -100 -95 -12
-8 -28 -20 -34 -25 -6 -6 -31 -17 -56 -25 -25 -8 -51 -20 -57 -26 -15 -15 -17
-54 -3 -54 6 0 10 -8 10 -18 0 -10 9 -24 20 -32 24 -18 26 -65 4 -87 -11 -12
-32 -16 -70 -15 -36 1 -58 -4 -69 -14 -21 -21 -70 -34 -129 -34 -37 0 -53 5
-67 21 -16 18 -25 21 -59 15 -41 -6 -70 7 -70 34 0 14 -19 33 -48 49 -18 9
-28 8 -54 -5 -18 -9 -38 -22 -45 -28 -43 -38 -48 -40 -127 -40 -45 0 -100 6
-123 12 -41 12 -103 60 -103 81 0 6 -4 11 -10 11 -6 0 -10 38 -10 94 l0 94
-30 12 c-16 7 -30 16 -30 21 0 4 -17 13 -38 19 -45 12 -82 40 -82 64 0 9 -4
16 -10 16 -5 0 -10 14 -10 30 0 17 -4 30 -10 30 -5 0 -10 5 -10 11 0 22 -42
48 -87 55 -56 8 -173 -12 -228 -39 -34 -17 -44 -18 -73 -7 -22 7 -54 10 -87 5
-40 -5 -61 -2 -85 10 -23 12 -45 15 -84 10 -42 -6 -56 -4 -70 10 -9 9 -42 23
-74 31 -67 17 -132 44 -132 55 0 4 -9 11 -20 14 -11 3 -20 13 -20 21 0 8 -4
14 -10 14 -5 0 -10 5 -10 11 0 6 -22 32 -50 59 -27 27 -50 56 -50 64 0 9 -4
16 -10 16 -5 0 -10 7 -10 15 0 8 -4 15 -10 15 -5 0 -10 7 -10 15 0 8 -4 15
-10 15 -5 0 -10 7 -10 15 0 8 -4 15 -10 15 -5 0 -10 7 -10 15 0 8 -4 15 -10
15 -5 0 -10 16 -10 35 0 19 5 35 10 35 6 0 10 7 10 15 0 8 5 15 10 15 6 0 10
9 10 20 0 11 5 20 10 20 6 0 10 9 10 20 0 11 5 20 10 20 6 0 10 9 10 20 0 11
5 20 10 20 6 0 10 7 10 15 0 8 5 15 10 15 6 0 10 7 10 15 0 8 5 15 10 15 6 0
10 7 10 15 0 8 -4 15 -10 15 -5 0 -10 6 -10 13 0 7 -9 19 -20 27 -11 8 -20 20
-20 27 0 7 -4 13 -10 13 -5 0 -10 16 -10 35 0 19 -4 35 -10 35 -5 0 -10 14
-10 30 0 17 -4 30 -10 30 -5 0 -10 9 -10 20 0 11 -4 20 -10 20 -5 0 -10 9 -10
20 0 11 -4 20 -10 20 -5 0 -10 11 -10 25 0 14 5 25 10 25 6 0 10 6 10 13 0 30
173 82 320 98 115 12 180 25 180 38 0 4 19 16 41 27 23 10 47 24 54 30 6 7 44
29 85 49 40 20 77 41 84 46 46 39 60 49 66 49 15 0 50 38 50 54 0 9 5 16 10
16 6 0 10 7 10 15 0 8 4 15 9 15 5 0 16 6 23 14 18 18 105 61 139 69 41 10 69
41 69 76 0 17 -4 31 -10 31 -5 0 -10 11 -10 25 0 14 -4 25 -10 25 -5 0 -10 6
-10 13 0 15 -61 47 -89 47 -10 0 -48 9 -85 21 -73 23 -146 82 -146 118 0 12
-4 21 -10 21 -5 0 -10 14 -10 30 0 17 -4 30 -10 30 -5 0 -10 6 -10 13 0 7 -9
19 -20 27 -11 8 -20 20 -20 27 0 7 -4 13 -10 13 -5 0 -10 7 -10 15 0 8 -4 15
-10 15 -5 0 -10 5 -10 11 0 15 -56 66 -82 75 -25 8 -98 -24 -98 -43 0 -7 -4
-13 -10 -13 -5 0 -10 -13 -10 -29 0 -33 -22 -46 -64 -35 -13 3 -31 1 -38 -5
-45 -39 -62 -51 -70 -51 -4 0 -8 -7 -8 -15 0 -8 -4 -15 -10 -15 -5 0 -10 -7
-10 -16 0 -26 -26 -44 -95 -65 -56 -18 -125 -64 -125 -84 0 -29 -69 -55 -145
-55 -27 0 -88 -7 -135 -15 -47 -8 -100 -15 -118 -15 -30 0 -110 -33 -122 -50
-14 -20 -58 -30 -182 -39 -75 -6 -158 -16 -185 -21 -26 -5 -142 -14 -258 -21
-177 -9 -222 -15 -284 -36 -69 -23 -90 -25 -285 -26 l-211 -2 -52 28 c-29 15
-66 27 -83 27 -17 0 -43 6 -58 14 -15 7 -62 22 -104 32 -75 17 -81 17 -155 0
-43 -10 -111 -29 -151 -42 -118 -40 -161 -44 -505 -49 -280 -4 -339 -2 -393
11 -49 13 -73 14 -104 6 -30 -7 -54 -7 -92 3 -27 8 -98 17 -157 20 -58 4 -128
12 -156 19 -27 7 -67 11 -88 8 -39 -4 -117 22 -117 40 0 4 -7 8 -15 8 -8 0
-43 13 -77 29 -35 16 -80 36 -101 45 -38 16 -50 24 -90 62 -22 20 -96 44 -135
44 -10 0 -29 -8 -40 -19 -19 -15 -22 -29 -22 -85 0 -111 -18 -119 -227 -106
-194 12 -275 28 -303 60 -16 19 -35 25 -88 31 -37 4 -83 14 -102 22 -19 9 -60
23 -90 32 -68 19 -130 46 -130 55 0 4 -24 17 -52 29 -29 13 -75 33 -102 45
-56 24 -106 66 -106 90 0 9 -4 16 -10 16 -5 0 -10 5 -10 11 0 15 -56 66 -81
74 -10 4 -19 10 -19 14 0 5 -15 14 -32 21 -68 25 -128 54 -128 61 0 4 -8 10
-19 14 -28 9 -61 40 -61 59 0 9 -4 16 -10 16 -6 0 -10 33 -10 80 0 47 -4 80
-10 80 -5 0 -10 22 -10 48 0 47 -1 50 -40 67 -22 10 -40 22 -40 26 0 4 -9 11
-20 14 -11 4 -42 27 -69 53 -27 26 -58 54 -71 62 -39 26 -60 47 -60 59 0 6 -4
11 -10 11 -5 0 -10 7 -10 16 0 8 -18 33 -40 54 -34 33 -40 45 -40 79 0 23 4
41 9 41 5 0 16 6 23 14 8 7 29 21 47 31 45 23 89 67 73 73 -14 4 -16 42 -2 42
6 0 10 37 10 90 0 53 -4 90 -10 90 -5 0 -10 7 -10 15 0 8 -4 15 -10 15 -5 0
-10 7 -10 15 0 8 -4 15 -10 15 -5 0 -10 7 -10 15 0 8 -4 15 -10 15 -5 0 -10
11 -10 25 0 14 -4 25 -10 25 -5 0 -10 11 -10 25 0 14 -4 25 -10 25 -5 0 -10 5
-10 10 0 28 -50 59 -111 70 -70 13 -111 31 -144 64 -11 11 -40 30 -63 40 -23
11 -42 25 -42 33 0 7 -4 13 -10 13 -5 0 -10 9 -10 20 0 11 -4 20 -10 20 -5 0
-10 14 -10 30 0 17 -4 30 -10 30 -5 0 -10 18 -10 40 0 22 -4 40 -10 40 -5 0
-10 6 -10 14 0 8 -9 18 -20 21 -11 3 -20 13 -20 21 0 16 -33 17 -95 2z"/>
<path d="M12082 18543 c-16 -16 -39 -35 -51 -43 -12 -8 -21 -20 -21 -27 0 -7
-4 -13 -10 -13 -5 0 -10 -5 -10 -11 0 -6 -18 -28 -40 -49 -26 -25 -40 -47 -40
-64 0 -14 -4 -26 -10 -26 -5 0 -10 -8 -10 -18 0 -34 78 -55 104 -29 8 6 24 19
36 27 12 8 36 27 52 43 17 15 33 27 38 27 11 0 50 36 50 46 0 5 9 16 20 24 11
8 20 22 20 32 0 10 5 18 10 18 14 0 12 29 -3 44 -18 18 -73 46 -90 46 -8 0
-28 -12 -45 -27z"/>
<path d="M27130 17901 c-29 -32 -89 -65 -139 -76 -33 -7 -61 -26 -61 -41 0
-12 -39 -41 -70 -53 -97 -36 -90 -30 -90 -77 0 -24 5 -44 10 -44 6 0 10 -18
10 -40 0 -22 -4 -40 -10 -40 -5 0 -10 -11 -10 -24 0 -20 6 -24 37 -28 62 -7
108 6 146 43 62 59 72 65 165 99 17 7 32 18 32 26 0 7 9 16 20 19 11 3 20 13
20 21 0 8 5 14 10 14 6 0 10 7 10 16 0 38 76 78 148 76 38 -1 52 2 52 12 0 16
-21 26 -55 26 -21 0 -39 13 -112 80 -33 30 -82 26 -113 -9z"/>
<path d="M27112 17501 c-13 -11 -22 -30 -22 -48 0 -31 -29 -53 -71 -53 -11 0
-26 -6 -33 -12 -8 -7 -23 -20 -35 -28 -21 -15 -30 -60 -11 -60 6 0 10 -6 10
-14 0 -8 6 -17 13 -20 9 -4 9 -7 0 -12 -6 -3 -21 -14 -34 -25 -12 -10 -26 -19
-31 -19 -4 0 -8 -7 -8 -15 0 -8 -4 -15 -10 -15 -6 0 -10 -38 -10 -95 0 -57 4
-95 10 -95 6 0 10 -7 10 -16 0 -20 17 -37 58 -58 28 -14 41 -15 93 -6 66 12
129 38 129 53 0 14 36 43 70 57 17 7 30 19 30 26 0 8 5 14 10 14 6 0 10 21 10
46 0 39 5 51 31 75 17 16 35 29 40 29 5 0 9 7 9 15 0 8 5 15 10 15 6 0 10 7
10 15 0 8 5 15 10 15 6 0 10 7 10 15 0 8 5 15 10 15 6 0 10 7 10 15 0 8 5 15
10 15 6 0 10 7 10 15 0 8 5 15 10 15 6 0 10 10 10 21 0 21 34 59 52 59 4 0 8
7 8 15 0 8 5 15 10 15 19 0 10 17 -15 28 -21 10 -32 9 -58 -4 -18 -9 -34 -20
-37 -24 -3 -3 -31 -14 -63 -24 -32 -10 -64 -24 -72 -32 -7 -8 -20 -14 -28 -14
-19 0 -57 34 -57 51 0 8 -9 21 -20 29 -11 8 -20 20 -20 27 0 19 -34 16 -58 -6z"/>
<path d="M26209 15611 c-14 -5 -36 -14 -48 -21 -27 -14 -131 -116 -131 -128 0
-4 -9 -14 -20 -22 -11 -8 -20 -20 -20 -27 0 -7 -4 -13 -10 -13 -5 0 -10 -9
-10 -20 0 -11 -4 -20 -10 -20 -6 0 -10 -37 -10 -91 0 -89 1 -92 31 -120 26
-25 39 -29 85 -29 57 0 124 25 124 47 0 7 5 13 10 13 6 0 10 5 10 11 0 12 38
49 50 49 4 0 16 8 28 18 11 9 30 24 41 32 12 8 21 20 21 27 0 7 5 13 10 13 6
0 10 28 10 65 0 37 4 65 10 65 6 0 10 14 10 30 0 17 -4 30 -10 30 -5 0 -10 18
-10 40 0 37 -2 40 -37 49 -43 12 -87 13 -124 2z"/>
<path d="M25931 14681 c-47 -45 -52 -73 -16 -89 35 -16 75 3 75 35 0 12 5 23
10 23 6 0 10 16 10 35 0 48 -26 47 -79 -4z"/>
<path d="M23289 9166 c-2 -2 -53 -14 -114 -26 -60 -12 -126 -28 -145 -35 -19
-8 -62 -21 -95 -31 -33 -9 -76 -25 -95 -35 -93 -46 -254 -53 -328 -15 -90 47
-302 46 -302 -1 0 -7 -4 -13 -10 -13 -5 0 -10 -7 -10 -15 0 -8 -4 -15 -10 -15
-5 0 -10 -7 -10 -15 0 -8 -4 -15 -10 -15 -5 0 -10 -7 -10 -15 0 -8 -4 -15 -10
-15 -5 0 -10 -6 -10 -13 0 -7 -9 -19 -20 -27 -11 -8 -20 -19 -20 -25 0 -6 -9
-17 -20 -25 -11 -8 -20 -22 -20 -32 0 -10 -4 -18 -10 -18 -5 0 -10 -9 -10 -20
0 -11 -4 -20 -10 -20 -5 0 -10 -11 -10 -25 0 -14 -4 -25 -10 -25 -5 0 -10 -7
-10 -15 0 -8 -4 -15 -10 -15 -5 0 -10 -13 -10 -30 0 -16 -4 -30 -10 -30 -5 0
-10 -9 -10 -20 0 -11 -4 -20 -10 -20 -5 0 -10 -16 -10 -35 0 -19 5 -35 10 -35
6 0 10 -9 10 -20 0 -11 5 -20 10 -20 6 0 10 -9 10 -19 0 -11 6 -22 13 -25 10
-5 10 -7 0 -12 -7 -3 -13 -19 -13 -35 0 -16 -4 -29 -10 -29 -5 0 -10 -7 -10
-15 0 -8 -4 -15 -10 -15 -5 0 -10 -7 -10 -15 0 -8 -4 -15 -10 -15 -5 0 -10 -7
-10 -15 0 -8 -4 -15 -10 -15 -5 0 -10 -7 -10 -15 0 -8 -4 -15 -10 -15 -5 0
-10 -7 -10 -15 0 -8 -4 -15 -10 -15 -5 0 -10 -7 -10 -15 0 -8 -4 -15 -10 -15
-5 0 -10 -9 -10 -20 0 -11 -4 -20 -10 -20 -5 0 -10 -20 -10 -45 0 -39 -5 -51
-34 -80 -22 -21 -48 -36 -73 -40 -48 -9 -176 -51 -215 -71 -33 -17 -98 -78
-98 -91 0 -5 -9 -15 -20 -23 -11 -8 -20 -18 -20 -23 0 -4 -27 -35 -60 -67 -33
-32 -60 -66 -60 -74 0 -9 -4 -16 -10 -16 -5 0 -10 -9 -10 -20 0 -11 -4 -20
-10 -20 -5 0 -10 -13 -10 -30 0 -16 -4 -30 -10 -30 -5 0 -10 -7 -10 -15 0 -8
-4 -15 -10 -15 -5 0 -10 -9 -10 -20 0 -11 -4 -20 -10 -20 -5 0 -10 -5 -10 -11
0 -6 -7 -17 -15 -25 -13 -14 -17 -14 -31 0 -8 9 -19 16 -24 16 -5 0 -15 6 -22
13 -26 27 -135 -1 -268 -68 -38 -19 -76 -35 -83 -35 -8 0 -24 -9 -37 -20 -13
-11 -27 -20 -31 -20 -10 0 -89 -77 -89 -87 0 -5 -9 -15 -20 -23 -11 -8 -20
-22 -20 -32 0 -10 -4 -18 -10 -18 -5 0 -10 -7 -10 -15 0 -8 -4 -15 -10 -15 -5
0 -10 -7 -10 -15 0 -8 -4 -15 -10 -15 -5 0 -10 -9 -10 -20 0 -11 -4 -20 -10
-20 -5 0 -10 -11 -10 -25 0 -14 -4 -25 -10 -25 -5 0 -10 -9 -10 -20 0 -11 -4
-20 -10 -20 -5 0 -10 -9 -10 -20 0 -11 -4 -20 -10 -20 -5 0 -10 -7 -10 -15 0
-8 -4 -15 -10 -15 -5 0 -10 -16 -10 -35 0 -19 -4 -35 -10 -35 -5 0 -10 -13
-10 -30 0 -16 -4 -30 -10 -30 -5 0 -10 -11 -10 -25 0 -14 -4 -25 -10 -25 -5 0
-10 -9 -10 -20 0 -11 -4 -20 -10 -20 -5 0 -10 -9 -10 -20 0 -11 -4 -20 -10
-20 -5 0 -10 -9 -10 -20 0 -11 -4 -20 -10 -20 -5 0 -10 -9 -10 -20 0 -11 -4
-20 -10 -20 -5 0 -10 -11 -10 -25 0 -14 -4 -25 -10 -25 -5 0 -10 -11 -10 -25
0 -14 -4 -25 -10 -25 -5 0 -10 -7 -10 -15 0 -8 -4 -15 -10 -15 -5 0 -10 -7
-10 -15 0 -8 -4 -15 -10 -15 -5 0 -10 -9 -10 -20 0 -11 -4 -20 -10 -20 -5 0
-10 -7 -10 -15 0 -8 -4 -15 -10 -15 -5 0 -10 -11 -10 -25 0 -14 -4 -25 -10
-25 -5 0 -10 -13 -10 -30 0 -16 5 -30 10 -30 6 0 10 -33 10 -80 0 -47 4 -80
10 -80 6 0 10 -13 10 -30 0 -16 5 -30 10 -30 6 0 10 -11 10 -25 0 -14 5 -25
10 -25 6 0 10 -11 10 -25 0 -14 5 -25 10 -25 6 0 10 -11 10 -25 0 -14 5 -25
10 -25 6 0 10 -11 10 -25 0 -14 5 -25 10 -25 6 0 10 -11 10 -25 0 -14 5 -25
10 -25 6 0 10 -13 10 -30 0 -16 5 -30 10 -30 6 0 10 -9 10 -19 0 -11 6 -22 13
-24 9 -4 8 -8 -3 -16 -10 -7 -11 -11 -2 -11 8 0 12 -17 12 -50 0 -27 5 -50 10
-50 6 0 10 -35 10 -85 0 -50 -4 -85 -10 -85 -5 0 -10 -25 -10 -55 0 -48 2 -55
20 -55 13 0 20 -7 20 -20 0 -11 -4 -20 -10 -20 -5 0 -10 -6 -10 -13 0 -7 -9
-19 -20 -27 -11 -8 -20 -20 -20 -27 0 -7 -4 -13 -10 -13 -6 0 -10 -29 -10 -66
0 -60 -3 -68 -30 -94 -16 -15 -30 -32 -30 -37 0 -5 -9 -15 -20 -23 -11 -8 -20
-20 -20 -27 0 -7 -4 -13 -10 -13 -5 0 -10 -9 -10 -20 0 -11 -4 -20 -10 -20 -5
0 -10 -11 -10 -25 0 -14 -4 -25 -10 -25 -5 0 -10 -10 -10 -23 0 -12 -9 -29
-21 -37 -43 -30 -59 -48 -59 -64 0 -9 -4 -16 -10 -16 -5 0 -10 -7 -10 -15 0
-8 -4 -15 -10 -15 -5 0 -10 -7 -10 -15 0 -8 -4 -15 -10 -15 -5 0 -10 -5 -10
-11 0 -10 -77 -86 -159 -159 -22 -19 -40 -40 -41 -45 0 -6 -9 -17 -21 -25 -32
-22 -79 -67 -79 -75 0 -10 -60 -65 -71 -65 -5 0 -9 -7 -9 -15 0 -8 -4 -15 -10
-15 -5 0 -10 -7 -10 -15 0 -8 -4 -15 -10 -15 -5 0 -10 -7 -10 -15 0 -8 -4 -15
-10 -15 -5 0 -10 -6 -10 -13 0 -7 -9 -19 -20 -27 -11 -8 -20 -20 -20 -27 0 -7
-4 -13 -8 -13 -5 0 -18 -8 -30 -18 -11 -9 -30 -24 -41 -32 -13 -9 -21 -25 -21
-42 0 -15 -4 -28 -10 -28 -5 0 -10 -11 -10 -25 0 -14 -4 -25 -10 -25 -5 0 -10
-7 -10 -15 0 -8 -4 -15 -8 -15 -12 0 -52 -35 -52 -45 0 -10 -40 -45 -52 -45
-4 0 -8 -9 -8 -20 0 -11 -4 -20 -10 -20 -5 0 -10 -11 -10 -25 0 -14 -4 -25
-10 -25 -5 0 -10 -7 -10 -15 0 -8 -4 -15 -10 -15 -5 0 -10 -7 -10 -15 0 -8 -4
-15 -10 -15 -5 0 -10 -11 -10 -25 0 -14 -4 -25 -9 -25 -14 0 -71 -56 -71 -70
0 -7 -13 -25 -30 -40 -16 -15 -30 -31 -30 -35 0 -10 -100 -105 -111 -105 -5 0
-9 -7 -9 -15 0 -8 -4 -15 -9 -15 -18 0 -71 -59 -71 -79 0 -12 -4 -21 -10 -21
-5 0 -10 -7 -10 -15 0 -8 -4 -15 -10 -15 -5 0 -10 -8 -10 -18 0 -10 -9 -24
-20 -32 -11 -8 -20 -18 -20 -23 0 -13 -78 -85 -100 -92 -11 -4 -20 -12 -20
-18 0 -7 -9 -19 -20 -27 -11 -8 -20 -22 -20 -32 0 -10 -4 -18 -10 -18 -5 0
-10 -9 -10 -20 0 -11 -4 -20 -10 -20 -5 0 -10 -11 -10 -25 0 -14 -4 -25 -10
-25 -5 0 -10 -5 -10 -11 0 -6 -13 -24 -30 -39 -16 -15 -30 -32 -30 -37 0 -5
-9 -15 -20 -23 -11 -8 -20 -22 -20 -32 0 -9 -9 -20 -20 -23 -11 -3 -20 -13
-20 -21 0 -8 -4 -14 -10 -14 -5 0 -10 -13 -10 -30 0 -16 -4 -30 -10 -30 -5 0
-10 -9 -10 -20 0 -11 -4 -20 -10 -20 -5 0 -10 -9 -10 -20 0 -11 -4 -20 -10
-20 -5 0 -10 -7 -10 -15 0 -8 -4 -15 -10 -15 -5 0 -10 -6 -10 -13 0 -7 -9 -19
-21 -27 -11 -8 -29 -22 -39 -30 -10 -8 -28 -22 -39 -30 -12 -8 -21 -19 -21
-25 0 -6 -9 -17 -20 -25 -11 -8 -20 -20 -20 -27 0 -7 -4 -13 -10 -13 -5 0 -10
-6 -10 -13 0 -7 -9 -19 -20 -27 -11 -8 -20 -25 -20 -37 0 -13 -4 -23 -10 -23
-5 0 -10 -11 -10 -25 0 -14 -4 -25 -10 -25 -5 0 -10 -9 -10 -20 0 -11 -4 -20
-10 -20 -5 0 -10 -13 -10 -30 0 -16 -4 -30 -10 -30 -5 0 -10 -22 -10 -49 0
-41 -4 -51 -20 -56 -11 -3 -20 -12 -20 -18 0 -7 -9 -19 -20 -27 -11 -8 -20
-20 -20 -27 0 -7 -4 -13 -10 -13 -5 0 -10 -13 -10 -30 0 -16 -4 -30 -10 -30
-5 0 -10 -9 -10 -20 0 -11 -4 -20 -10 -20 -5 0 -10 -9 -10 -20 0 -11 -4 -20
-10 -20 -5 0 -10 -5 -10 -11 0 -14 -36 -46 -61 -54 -11 -4 -19 -11 -19 -16 0
-5 -16 -9 -35 -9 -20 0 -49 -7 -65 -15 -34 -18 -82 -14 -180 15 -36 10 -92 26
-125 35 -96 26 -115 36 -115 56 0 11 -4 19 -10 19 -5 0 -10 11 -10 25 0 25 -1
25 -77 25 -45 -1 -95 -7 -118 -16 -22 -9 -62 -20 -90 -26 -50 -10 -77 -21
-102 -42 -43 -35 -93 -86 -93 -93 0 -5 -9 -15 -20 -23 -11 -8 -20 -18 -20 -23
0 -5 -13 -22 -30 -37 -29 -27 -40 -60 -20 -60 6 0 -10 -20 -34 -45 -25 -25
-52 -45 -61 -45 -8 0 -15 -7 -15 -15 0 -8 -4 -15 -10 -15 -5 0 -10 -11 -10
-25 0 -14 -4 -25 -10 -25 -5 0 -10 -16 -10 -35 0 -19 -4 -35 -10 -35 -5 0 -10
-5 -10 -11 0 -18 -24 -36 -110 -79 -96 -48 -141 -52 -290 -25 -47 8 -88 15
-92 15 -14 0 -88 -79 -88 -94 0 -9 -4 -16 -10 -16 -5 0 -10 -7 -10 -16 0 -14
-8 -16 -46 -10 -26 3 -57 6 -70 6 -20 0 -24 5 -24 29 0 21 -6 32 -20 36 -11 3
-20 15 -20 26 0 10 -4 19 -10 19 -5 0 -10 11 -10 25 0 14 -4 25 -10 25 -5 0
-10 7 -10 15 0 15 -4 16 -81 20 -62 4 -139 44 -139 74 0 6 -4 11 -10 11 -5 0
-10 9 -10 20 0 11 -4 20 -10 20 -5 0 -10 5 -10 11 0 6 -13 24 -30 39 -16 15
-30 33 -30 39 0 6 -4 11 -10 11 -5 0 -10 18 -10 40 0 22 -4 40 -8 40 -5 0 -19
9 -32 20 -13 11 -34 20 -48 20 -14 0 -36 13 -53 31 -21 22 -35 30 -50 26 -27
-7 -49 1 -49 19 0 8 -4 14 -10 14 -6 0 -10 30 -10 70 0 40 -4 70 -10 70 -5 0
-10 11 -10 25 0 18 -5 25 -20 25 -13 0 -20 -7 -20 -20 0 -11 -3 -20 -6 -20
-11 0 -34 29 -34 44 0 9 -4 16 -10 16 -5 0 -10 11 -10 25 0 16 -6 25 -15 25
-20 0 -85 65 -85 85 0 8 -4 15 -10 15 -5 0 -10 9 -10 20 0 11 -4 20 -10 20 -5
0 -10 7 -10 16 0 20 -17 37 -60 59 -18 9 -39 22 -47 29 -7 6 -27 22 -43 36
-46 39 -54 45 -67 53 -14 9 -51 -8 -73 -33 -35 -39 -56 -42 -108 -16 -64 32
-193 59 -248 50 -30 -4 -48 -2 -58 7 -68 61 -97 72 -163 59 -70 -13 -73 -13
-73 1 0 6 -13 24 -30 39 -16 15 -30 32 -30 38 0 5 -13 15 -30 22 -16 7 -30 17
-30 22 0 6 -13 23 -30 38 -16 15 -30 35 -30 44 0 9 -4 16 -10 16 -5 0 -10 23
-10 50 0 28 -4 50 -10 50 -5 0 -10 25 -10 55 0 30 -4 55 -10 55 -5 0 -10 16
-10 35 0 19 -4 35 -10 35 -5 0 -10 11 -10 25 0 14 -4 25 -10 25 -5 0 -10 6
-10 14 0 8 -9 18 -20 21 -15 5 -20 15 -20 41 0 19 -4 34 -10 34 -5 0 -10 7
-10 15 0 8 -4 15 -10 15 -5 0 -10 6 -10 13 0 7 -9 19 -20 27 -11 8 -20 19 -20
25 0 6 -10 17 -21 25 -12 8 -27 21 -35 28 -7 6 -19 12 -27 12 -15 0 -77 52
-77 65 0 10 -100 105 -110 105 -5 0 -20 11 -34 25 -14 14 -30 25 -36 25 -6 0
-25 7 -42 16 -20 10 -33 12 -37 6 -14 -22 -181 -12 -207 12 -6 6 -21 18 -33
26 -11 8 -21 20 -21 27 0 7 -4 13 -10 13 -5 0 -10 8 -10 18 0 10 -9 24 -21 32
-41 29 -59 47 -59 60 0 14 -38 50 -52 50 -4 0 -8 7 -8 15 0 8 -4 15 -10 15 -5
0 -10 7 -10 16 0 16 -35 54 -50 54 -17 0 -50 39 -50 59 0 11 -4 21 -10 21 -5
0 -10 6 -10 14 0 8 -8 17 -19 21 -25 8 -61 40 -61 54 0 6 -4 11 -10 11 -5 0
-10 6 -10 13 0 8 -18 22 -40 32 -22 10 -40 22 -40 26 0 4 -9 11 -20 14 -11 3
-20 13 -20 21 0 8 -4 14 -10 14 -5 0 -10 6 -10 14 0 7 -13 19 -30 26 -16 7
-30 16 -30 21 0 5 -9 9 -19 9 -11 0 -21 4 -23 9 -4 12 -137 77 -175 85 -30 7
-70 -5 -84 -26 -6 -10 -94 -44 -154 -61 -22 -6 -50 -21 -63 -34 -12 -13 -27
-23 -32 -23 -6 0 -10 -7 -10 -15 0 -8 -4 -15 -10 -15 -5 0 -10 -9 -10 -19 0
-15 -10 -21 -40 -26 -23 -4 -53 -19 -71 -36 -29 -27 -34 -28 -92 -23 -74 7
-155 29 -217 59 -25 13 -61 26 -80 30 -39 8 -127 50 -147 70 -8 8 -13 37 -13
74 0 34 -4 61 -10 61 -5 0 -21 -11 -34 -25 -21 -21 -29 -24 -46 -15 -11 6 -47
19 -79 30 -66 21 -138 55 -159 76 -7 8 -17 14 -21 14 -4 0 -17 8 -29 18 -11 9
-30 24 -42 32 -12 8 -30 22 -40 31 -11 8 -37 24 -60 34 -22 10 -40 24 -40 32
0 7 -4 13 -10 13 -5 0 -10 7 -10 15 0 8 -4 15 -10 15 -5 0 -10 10 -10 23 0 19
-11 29 -52 48 -51 24 -148 108 -148 128 0 6 -4 11 -10 11 -5 0 -10 11 -10 25
0 14 -4 25 -10 25 -5 0 -10 16 -10 35 0 19 -4 35 -10 35 -5 0 -10 9 -10 20 0
11 -4 20 -10 20 -5 0 -10 14 -10 30 0 17 -4 30 -10 30 -5 0 -10 13 -10 28 0
16 -8 34 -20 42 -11 8 -20 22 -20 32 0 10 -4 18 -10 18 -5 0 -10 13 -10 29 0
16 -6 32 -12 35 -10 5 -10 7 0 12 6 3 12 21 12 40 0 27 -4 34 -20 34 -11 0
-20 7 -20 15 0 8 -4 15 -10 15 -14 0 -12 27 3 33 10 4 10 6 0 6 -7 1 -13 10
-13 21 0 11 -4 20 -10 20 -5 0 -10 7 -10 15 0 8 -4 15 -10 15 -5 0 -10 14 -10
30 0 17 -4 30 -10 30 -5 0 -10 7 -10 15 0 8 -4 15 -10 15 -5 0 -10 9 -10 20 0
11 -4 20 -10 20 -5 0 -10 18 -10 40 0 22 -4 40 -9 40 -18 0 -71 59 -71 79 0
12 -4 21 -10 21 -5 0 -10 9 -10 20 0 11 -4 20 -10 20 -5 0 -10 9 -10 20 0 11
-4 20 -10 20 -5 0 -10 7 -10 15 0 8 -4 15 -10 15 -5 0 -10 5 -10 11 0 6 -13
24 -30 39 -16 15 -30 32 -30 37 0 5 -9 15 -20 23 -11 8 -20 20 -20 27 0 7 -4
13 -10 13 -5 0 -10 6 -10 13 0 6 -14 23 -31 37 -17 14 -41 35 -53 46 -57 54
-168 78 -250 56 -37 -11 -71 -3 -86 18 -3 4 -27 19 -55 33 -47 25 -48 26 -20
27 34 0 72 19 45 21 -8 1 -34 1 -58 -1 -33 -1 -47 3 -61 19 -10 12 -24 21 -30
21 -15 0 -41 25 -41 39 0 6 -6 12 -12 12 -7 1 -20 3 -28 4 -8 1 -21 3 -27 4
-7 0 -13 8 -13 16 0 8 -4 15 -10 15 -5 0 -10 23 -10 50 0 28 -4 50 -10 50 -5
0 -10 11 -10 25 0 33 -76 110 -127 129 -21 8 -53 20 -71 27 -25 11 -39 11 -63
2 -29 -11 -33 -10 -65 23 -19 18 -43 34 -54 34 -10 0 -20 6 -23 13 -2 6 -8 8
-13 4 -5 -4 -2 -13 6 -18 12 -8 12 -12 2 -16 -7 -2 -19 -11 -27 -19 -11 -11
-19 -12 -32 -5 -10 6 -12 11 -5 11 8 0 12 19 12 60 0 33 -3 60 -6 60 -9 0 -48
-22 -61 -36 -7 -7 -13 -22 -13 -33 0 -12 -4 -21 -10 -21 -5 0 -10 -16 -10 -35
0 -19 5 -35 10 -35 6 0 10 -16 10 -36 0 -27 -7 -43 -31 -65 -35 -33 -56 -35
-117 -14 -27 10 -49 12 -60 7 -25 -13 -164 9 -182 28 -8 9 -38 20 -67 23 -28
3 -71 16 -94 27 -23 12 -50 19 -60 17 -22 -6 -101 13 -144 35 -24 13 -42 14
-90 6 -78 -12 -167 -11 -176 4 -7 11 -36 12 -159 4 -150 -11 -192 -16 -220
-31 -33 -17 -100 -20 -100 -5 0 18 -17 11 -50 -20 -18 -16 -36 -30 -40 -30 -4
0 -22 -14 -40 -30 -18 -17 -36 -30 -41 -30 -5 0 -9 -6 -9 -13 0 -8 -18 -22
-40 -32 -22 -10 -40 -21 -40 -25 0 -11 -89 -50 -115 -50 -18 0 -25 -6 -25 -18
0 -13 -17 -27 -52 -43 -28 -13 -57 -30 -64 -37 -7 -7 -41 -14 -75 -16 -34 -3
-65 -9 -68 -14 -23 -35 -124 -61 -242 -60 -78 0 -113 -4 -137 -16 -17 -9 -37
-16 -45 -16 -8 0 -24 -9 -37 -20 -27 -24 -42 -25 -78 -6 -15 7 -64 16 -109 18
-60 3 -86 9 -99 22 -13 14 -28 17 -56 13 -28 -4 -38 -2 -38 9 0 16 -37 19 -42
3 -6 -17 -38 2 -38 22 0 10 -4 19 -10 19 -5 0 -10 5 -10 11 0 11 -24 39 -34
39 -3 0 -6 -8 -6 -18 0 -10 -9 -24 -20 -32 -11 -8 -20 -19 -20 -24 0 -16 -43
-46 -81 -56 -21 -6 -45 -18 -54 -26 -19 -19 -96 -12 -119 12 -10 9 -36 14 -76
14 -41 0 -73 6 -100 20 -25 13 -59 20 -95 20 -40 0 -55 4 -55 14 0 22 -50 37
-130 37 -41 1 -84 0 -95 -1 -11 -1 -31 2 -45 5 -17 4 -32 1 -47 -12 -45 -37
-67 -53 -75 -53 -4 0 -8 -9 -8 -20 0 -14 -7 -20 -22 -20 -25 0 -87 -20 -106
-35 -7 -5 -23 -20 -36 -31 -13 -12 -38 -30 -57 -39 -35 -19 -59 -39 -59 -51 0
-7 -26 -31 -60 -54 -13 -8 -33 -25 -45 -36 -29 -29 -79 -54 -105 -54 -34 0
-90 -36 -90 -57 0 -11 -84 -53 -105 -53 -8 0 -15 -4 -15 -8 0 -12 -46 -32 -71
-32 -22 0 -175 -74 -196 -95 -7 -8 -13 -18 -13 -24 0 -5 -9 -13 -20 -16 -11
-3 -20 -10 -20 -15 0 -5 -9 -11 -19 -15 -25 -8 -81 -59 -81 -74 0 -6 -4 -11
-10 -11 -5 0 -10 -7 -10 -15 0 -8 -12 -18 -27 -21 -42 -10 -103 -43 -129 -70
-14 -13 -43 -28 -67 -34 -60 -16 -126 -39 -151 -52 -11 -6 -60 -21 -108 -33
-60 -16 -94 -30 -113 -49 -14 -14 -35 -26 -45 -26 -11 0 -20 -4 -20 -8 0 -4
-19 -17 -42 -28 -35 -16 -58 -19 -118 -16 -41 3 -88 5 -105 6 -33 1 -75 36
-75 62 0 14 -7 16 -46 10 -26 -3 -54 -14 -63 -25 -9 -10 -31 -26 -50 -36 -19
-9 -44 -28 -57 -40 -26 -26 -112 -45 -123 -28 -15 24 -87 50 -127 45 -25 -2
-53 2 -70 11 -16 8 -43 12 -60 10 -18 -3 -42 1 -55 8 -15 8 -52 12 -96 10 -42
-1 -73 2 -73 7 0 6 -21 13 -47 16 -43 5 -84 11 -105 15 -5 0 -8 8 -8 16 0 8
-4 15 -10 15 -5 0 -10 -4 -10 -10 0 -5 -18 -14 -40 -20 -22 -6 -40 -15 -40
-19 0 -12 -43 -27 -135 -45 -92 -19 -316 -45 -329 -38 -4 2 -44 4 -88 4 -44
-1 -90 4 -101 10 -12 6 -43 17 -69 24 l-48 12 0 -2429 0 -2429 1390 0 1391 0
42 21 c23 12 44 25 47 29 9 13 103 56 163 74 31 10 57 22 57 27 0 5 9 9 19 9
11 0 26 6 33 14 8 7 29 21 47 31 19 9 45 28 58 41 13 13 28 24 33 24 6 0 10 7
10 15 0 8 4 15 9 15 5 0 23 13 41 29 52 46 58 50 85 63 18 8 25 19 25 39 0 26
2 28 30 23 31 -7 90 12 90 28 0 14 44 54 80 73 36 19 100 79 100 94 0 5 9 13
20 16 11 3 20 13 20 21 0 8 4 14 8 14 5 0 19 9 32 20 13 11 35 23 49 27 14 3
32 12 39 20 7 7 23 13 35 13 27 0 89 22 105 38 7 6 17 12 21 12 7 0 24 12 69
50 7 6 17 8 22 5 5 -3 22 6 36 20 18 18 31 24 43 19 9 -4 45 -10 80 -12 55 -3
73 0 123 24 32 15 58 34 58 42 0 20 26 42 51 42 12 0 29 8 38 19 9 10 31 26
50 36 35 18 46 25 84 60 22 20 71 42 115 52 12 3 22 10 22 15 0 33 79 60 210
70 90 7 150 12 196 17 6 1 20 9 32 18 11 10 30 25 42 33 12 8 28 20 34 26 7 6
27 19 46 29 39 20 60 39 60 54 0 6 5 11 10 11 6 0 10 5 10 11 0 29 110 84 118
59 2 -6 12 -10 23 -10 28 0 27 -56 -1 -65 -20 -6 -29 -45 -10 -45 6 0 10 5 10
10 0 6 9 10 20 10 14 0 20 -7 20 -24 0 -17 8 -27 30 -35 16 -6 43 -16 60 -22
25 -10 30 -17 30 -44 0 -31 -2 -33 -50 -39 -41 -5 -50 -10 -50 -26 0 -11 4
-20 8 -20 22 0 52 -39 52 -67 0 -24 6 -33 30 -43 16 -7 30 -17 30 -22 0 -6 14
-23 30 -38 17 -15 30 -37 30 -49 0 -12 5 -21 10 -21 6 0 10 -9 10 -20 0 -11 5
-20 10 -20 6 0 10 -7 10 -15 0 -8 5 -15 10 -15 6 0 10 -7 10 -15 0 -8 5 -15
10 -15 6 0 10 -12 10 -26 0 -24 2 -25 40 -19 53 9 80 -1 80 -29 0 -23 -33 -46
-65 -46 -8 0 -15 -4 -15 -10 0 -5 5 -10 10 -10 6 0 10 -13 10 -30 0 -16 5 -30
10 -30 6 0 10 -9 10 -20 0 -11 5 -20 10 -20 6 0 10 -9 10 -20 0 -11 5 -20 10
-20 6 0 10 -8 10 -18 0 -10 9 -24 20 -32 11 -8 20 -22 20 -32 0 -10 5 -18 10
-18 6 0 10 -18 10 -40 0 -22 5 -40 10 -40 6 0 10 -16 10 -35 0 -19 5 -35 10
-35 6 0 10 -13 10 -30 0 -16 5 -30 10 -30 6 0 10 -13 10 -28 0 -16 8 -34 20
-42 16 -12 20 -26 20 -72 0 -32 4 -58 10 -58 6 0 10 -20 10 -45 l0 -45 13774
0 c7576 0 13781 3 13790 6 9 3 16 14 16 23 0 9 10 23 21 31 12 8 41 34 65 57
55 55 171 113 223 113 41 0 91 17 91 31 0 4 9 11 20 14 11 3 20 13 20 21 0 8
5 14 10 14 6 0 10 9 10 21 0 20 4 20 68 14 59 -7 138 -35 152 -55 3 -4 24 -10
48 -14 45 -7 135 -48 159 -71 7 -8 22 -17 33 -20 11 -3 20 -13 20 -21 0 -8 5
-14 10 -14 6 0 10 -7 10 -15 0 -8 5 -15 10 -15 6 0 10 -9 10 -21 0 -11 18 -38
41 -60 l41 -39 824 0 825 0 51 26 c50 25 98 65 98 81 0 5 9 15 20 23 11 8 20
18 20 23 0 4 10 18 23 30 19 19 33 22 102 22 70 1 88 5 144 34 65 34 91 53 91
68 0 5 9 15 20 23 11 8 20 20 20 27 0 7 5 13 10 13 6 0 10 10 10 23 0 12 9 29
20 37 11 8 20 20 20 27 0 7 5 13 10 13 6 0 10 7 10 16 0 18 33 50 59 58 47 15
229 46 269 46 26 1 65 8 87 16 22 8 61 21 86 28 36 11 65 31 122 87 42 41 89
85 107 99 64 52 110 99 110 114 0 9 5 16 10 16 6 0 10 7 10 15 0 8 5 15 10 15
6 0 10 7 10 15 0 8 5 15 10 15 6 0 10 7 10 15 0 8 5 15 10 15 6 0 10 7 10 16
0 8 27 42 60 74 33 32 60 64 60 69 0 6 5 11 10 11 6 0 10 7 10 15 0 8 5 15 10
15 6 0 10 7 10 15 0 8 5 15 10 15 6 0 10 15 10 33 0 28 5 36 36 50 42 20 46
24 135 109 93 90 123 98 314 88 33 -2 81 0 108 4 37 6 47 11 47 27 0 10 5 19
10 19 6 0 10 7 10 15 0 19 14 19 32 1 8 -7 28 -21 46 -30 28 -15 40 -15 93 -4
48 10 66 10 92 -1 40 -16 103 -28 185 -34 l62 -5 0 2316 c0 1275 -4 2312 -8
2306 -4 -6 -40 -28 -81 -48 -70 -36 -76 -37 -120 -26 -33 8 -67 8 -119 0 -49
-7 -79 -7 -92 0 -10 5 -33 10 -50 10 -17 0 -60 6 -95 12 l-65 13 0 37 c0 21
-4 38 -10 38 -5 0 -10 6 -10 13 0 7 -9 19 -20 27 -11 8 -20 19 -20 24 0 20
-46 46 -91 52 -40 5 -49 10 -49 26 0 11 -14 33 -32 50 -31 29 -36 30 -103 26
-38 -3 -103 -1 -142 3 -68 8 -75 11 -118 53 -28 28 -60 49 -85 56 -22 6 -40
15 -40 20 0 11 -56 27 -158 45 -41 7 -77 17 -81 22 -15 24 -73 43 -128 43 -35
0 -80 8 -113 21 -69 27 -179 48 -250 49 -95 1 -204 38 -243 84 -16 18 -29 21
-90 19 -40 0 -125 3 -189 9 l-117 10 -25 -26 c-20 -19 -26 -35 -26 -71 0 -25
-4 -45 -9 -45 -5 0 -23 -13 -41 -30 -23 -21 -42 -30 -66 -30 -18 0 -54 -10
-79 -22 -43 -21 -45 -24 -45 -64 0 -34 -4 -44 -20 -49 -11 -3 -20 -10 -20 -14
0 -4 -18 -16 -40 -26 -33 -15 -40 -23 -40 -47 0 -15 -4 -28 -10 -28 -5 0 -10
-9 -10 -20 0 -11 -4 -20 -10 -20 -5 0 -10 -7 -10 -16 0 -8 -18 -33 -40 -54
-22 -21 -40 -43 -40 -49 0 -6 -4 -11 -10 -11 -5 0 -10 -7 -10 -15 0 -8 -4 -15
-10 -15 -5 0 -10 -7 -10 -15 0 -8 -4 -15 -9 -15 -6 0 -37 -27 -70 -59 -40 -40
-61 -68 -61 -83 0 -13 -9 -30 -20 -38 -11 -8 -20 -21 -20 -29 0 -14 -37 -51
-52 -51 -4 0 -8 -7 -8 -15 0 -8 -3 -15 -8 -15 -4 0 -13 -14 -21 -31 -14 -31
-63 -69 -91 -69 -8 0 -24 -12 -35 -26 -33 -45 -49 -61 -74 -74 -28 -14 -36
-21 -90 -70 -21 -19 -49 -42 -61 -50 -12 -8 -28 -20 -34 -26 -21 -20 -51 -31
-101 -38 -61 -8 -145 -44 -145 -63 0 -7 -4 -13 -10 -13 -5 0 -10 -6 -10 -13 0
-7 -10 -19 -21 -27 -12 -8 -31 -24 -43 -36 -12 -11 -34 -24 -49 -28 -15 -3
-27 -12 -27 -19 0 -7 -9 -19 -21 -27 -11 -8 -30 -23 -41 -32 -11 -10 -30 -20
-42 -23 -50 -14 -76 -28 -76 -41 0 -8 -4 -14 -10 -14 -5 0 -10 -8 -10 -18 0
-10 -9 -24 -21 -32 -11 -8 -30 -23 -41 -33 -14 -11 -38 -17 -69 -17 -45 0 -51
-4 -109 -60 -39 -39 -74 -63 -99 -70 -21 -5 -48 -19 -61 -30 -28 -24 -34 -25
-54 -4 -26 25 -76 36 -92 19 -8 -7 -14 -21 -14 -29 0 -9 -4 -16 -10 -16 -5 0
-10 -5 -10 -11 0 -6 -13 -24 -30 -39 -16 -15 -30 -33 -30 -39 0 -6 -4 -11 -10
-11 -5 0 -10 -7 -10 -15 0 -8 -4 -15 -10 -15 -5 0 -10 -13 -10 -30 0 -16 -4
-30 -10 -30 -5 0 -10 -5 -10 -10 0 -16 -42 -55 -78 -74 -39 -20 -36 -21 -67
10 -35 35 -82 48 -102 29 -8 -8 -18 -15 -23 -15 -4 0 -22 -13 -40 -29 -18 -16
-39 -34 -47 -41 -8 -7 -36 -18 -62 -25 -76 -20 -121 -49 -121 -78 0 -22 -48
-38 -154 -51 -74 -10 -100 -17 -113 -33 -10 -11 -38 -30 -62 -43 -49 -25 -71
-43 -71 -59 0 -6 -4 -11 -10 -11 -5 0 -10 -7 -10 -15 0 -15 -29 -24 -143 -46
-56 -11 -74 -11 -100 0 -71 29 -107 34 -145 22 -20 -7 -59 -11 -87 -10 -27 1
-88 -3 -135 -9 -115 -16 -175 -15 -210 3 -28 15 -33 14 -108 -24 -97 -49 -167
-55 -252 -22 -67 26 -71 26 -99 2 -15 -13 -45 -21 -98 -26 -66 -6 -94 -15
-184 -61 l-106 -53 -51 13 c-28 8 -55 17 -62 21 -6 4 -19 -3 -29 -14 -21 -24
-72 -28 -132 -11 -39 11 -79 41 -79 59 0 6 -4 11 -10 11 -5 0 -10 8 -10 18 0
12 -14 25 -40 37 -22 10 -40 21 -40 25 0 4 -19 15 -42 24 -24 10 -61 26 -83
35 -25 11 -54 16 -77 13 -25 -3 -38 0 -38 7 0 24 -47 58 -95 70 -28 6 -74 19
-104 28 -45 14 -58 14 -85 4 -17 -7 -47 -17 -66 -21 -109 -27 -370 -132 -370
-150 0 -4 -17 -14 -37 -24 -48 -23 -172 -39 -285 -37 -68 1 -96 -3 -125 -17
-26 -13 -71 -21 -141 -26 -95 -6 -109 -9 -190 -50 -75 -37 -99 -44 -172 -50
-123 -9 -294 -40 -381 -69 -41 -14 -92 -28 -114 -32 -70 -12 -169 -49 -192
-72 -12 -12 -32 -24 -43 -28 -11 -3 -20 -10 -20 -15 0 -5 -8 -11 -19 -15 -10
-3 -28 -13 -39 -23 -11 -9 -30 -24 -41 -32 -12 -8 -21 -22 -21 -32 0 -10 -4
-18 -10 -18 -5 0 -10 -7 -10 -15 0 -8 -4 -15 -8 -15 -8 0 -20 -9 -68 -49 -30
-25 -78 -41 -124 -41 -28 0 -58 -6 -65 -12 -30 -27 -41 -33 -80 -46 -79 -26
-295 -123 -295 -132 0 -4 -19 -16 -42 -26 -23 -10 -57 -33 -74 -51 -43 -43
-86 -63 -134 -63 -40 0 -70 17 -70 39 0 6 -4 11 -10 11 -5 0 -10 11 -10 23 0
26 -26 40 -128 71 -41 13 -61 14 -92 6 -21 -6 -40 -15 -42 -21 -3 -8 -19 -4
-47 10 -23 12 -66 25 -94 28 -29 3 -60 10 -69 14 -23 12 -68 -9 -68 -33 0 -10
5 -18 10 -18 6 0 10 -33 10 -79 l0 -79 -30 -6 c-24 -4 -30 -11 -30 -31 0 -14
5 -25 10 -25 6 0 10 -24 10 -53 0 -42 -4 -56 -21 -67 -45 -32 -59 -48 -59 -69
0 -11 -4 -21 -10 -21 -5 0 -10 -6 -10 -13 0 -8 -18 -22 -40 -32 -47 -21 -80
-47 -80 -64 0 -6 -7 -11 -15 -11 -29 0 -85 -34 -85 -52 0 -10 -4 -18 -10 -18
-5 0 -10 -16 -10 -35 0 -19 -4 -35 -10 -35 -5 0 -10 -9 -10 -19 0 -20 -18 -31
-51 -31 -20 0 -80 -27 -89 -40 -3 -4 -14 -9 -25 -13 -11 -3 -45 -15 -75 -27
-30 -12 -64 -22 -75 -21 -66 6 -97 0 -153 -28 -56 -28 -64 -30 -78 -17 -18 18
-77 36 -121 36 -18 0 -33 5 -33 10 0 6 -20 10 -45 10 -65 0 -115 27 -115 61 0
19 -6 30 -20 34 -16 5 -20 15 -20 46 0 21 -4 39 -10 39 -5 0 -10 9 -10 19 0
19 -25 35 -40 26 -12 -8 -80 27 -80 40 0 8 -25 15 -63 19 -34 3 -87 15 -116
26 -30 11 -57 17 -62 15 -12 -8 -39 6 -39 20 0 8 -9 17 -20 20 -16 5 -20 15
-20 47 0 32 -6 46 -30 68 -16 15 -30 33 -30 39 0 6 -4 11 -10 11 -5 0 -10 7
-10 15 0 8 -4 15 -10 15 -5 0 -10 16 -10 35 0 19 -4 35 -10 35 -6 0 -10 43
-10 110 0 67 -4 110 -10 110 -5 0 -10 9 -10 20 0 11 -4 20 -10 20 -5 0 -10 16
-10 35 0 19 -4 35 -10 35 -5 0 -10 7 -10 15 0 8 -4 15 -10 15 -5 0 -10 9 -10
20 0 11 -4 20 -10 20 -5 0 -10 7 -10 16 0 8 -18 33 -40 54 -22 21 -40 43 -40
48 0 6 -6 13 -12 16 -10 5 -10 7 0 12 19 9 14 48 -8 64 -14 10 -20 26 -20 53
0 32 -7 45 -41 78 -22 21 -44 39 -48 39 -17 0 -51 39 -51 59 0 11 -4 21 -10
21 -5 0 -10 6 -10 14 0 7 -13 19 -30 26 -45 19 -70 45 -70 74 0 14 -4 26 -8
26 -12 0 -52 35 -52 45 0 12 -42 45 -57 45 -15 0 -43 23 -43 35 0 20 -65 65
-94 65 -63 0 -126 30 -126 59 0 6 -7 11 -15 11 -9 0 -38 11 -65 25 -27 14 -56
25 -65 25 -8 0 -15 7 -15 15 0 9 -9 15 -25 15 -26 0 -119 42 -141 65 -7 6 -26
18 -43 25 -17 7 -31 16 -31 20 0 4 -13 13 -30 20 -16 7 -30 16 -30 20 0 4 -11
12 -25 18 -14 7 -31 17 -38 22 -46 39 -62 50 -78 55 -11 4 -19 10 -19 14 0 4
-31 22 -70 41 -38 19 -70 37 -70 40 0 4 -18 15 -40 25 -33 15 -40 23 -40 45 0
26 -5 30 -97 58 -54 17 -125 34 -158 37 -61 7 -89 17 -113 42 -7 7 -25 16 -40
19 -35 9 -181 82 -199 99 -7 8 -13 20 -13 29 0 8 -9 18 -20 21 -21 7 -29 55
-10 55 6 0 10 19 10 43 0 31 5 46 20 57 11 8 20 20 20 27 0 7 4 13 8 13 14 0
52 36 52 50 0 6 14 25 30 40 17 15 30 33 30 39 0 6 5 11 10 11 6 0 10 7 10 15
0 8 5 15 10 15 6 0 10 7 10 16 0 9 14 29 30 44 17 15 30 33 30 39 0 6 5 11 10
11 6 0 10 7 10 15 0 8 5 15 10 15 6 0 10 9 10 20 0 11 5 20 10 20 6 0 10 7 10
15 0 8 5 15 10 15 6 0 10 7 10 16 0 14 20 36 73 80 30 26 78 44 114 44 49 0
99 14 119 35 9 9 23 14 31 11 8 -3 21 1 29 9 8 8 33 19 54 25 22 6 40 15 40
19 0 13 58 34 76 27 16 -6 44 14 44 32 0 5 17 13 37 17 39 7 94 32 103 46 7
11 126 49 152 49 21 0 194 85 215 105 7 8 13 17 13 22 0 5 9 15 21 23 37 27
59 47 59 56 0 5 9 16 20 24 11 8 20 20 20 27 0 7 5 13 10 13 6 0 10 6 10 13 0
7 9 19 20 27 11 8 20 22 20 32 0 10 5 18 10 18 6 0 10 7 10 15 0 8 12 18 28
21 15 4 48 17 74 30 26 13 61 24 78 24 31 0 122 41 147 65 16 16 19 165 3 165
-5 0 -10 6 -10 13 0 7 -9 19 -20 27 -11 8 -20 22 -20 32 0 10 -4 18 -10 18 -5
0 -10 11 -10 25 0 14 -4 25 -10 25 -5 0 -10 7 -10 15 0 8 -4 15 -10 15 -5 0
-10 10 -10 23 0 12 -9 29 -20 37 -11 8 -20 26 -20 40 0 14 -9 32 -20 40 -11 8
-20 19 -20 25 0 6 -9 17 -20 25 -12 9 -20 26 -20 43 0 21 -15 42 -60 87 -33
32 -60 64 -60 69 0 6 -4 11 -10 11 -6 0 -10 28 -10 65 0 37 -4 65 -10 65 -5 0
-10 20 -10 45 0 25 -4 45 -10 45 -5 0 -10 14 -10 30 0 17 -4 30 -10 30 -5 0
-10 9 -10 20 0 11 -4 20 -10 20 -5 0 -10 7 -10 15 0 8 -4 15 -10 15 -5 0 -10
11 -10 25 0 14 -4 25 -10 25 -5 0 -10 6 -10 14 0 8 -6 17 -12 19 -10 4 -10 6
0 6 14 1 17 31 2 31 -5 0 -10 11 -10 25 0 14 -4 25 -10 25 -5 0 -10 6 -10 13
0 7 -9 19 -20 27 -11 8 -20 20 -20 27 0 7 -4 13 -10 13 -5 0 -10 11 -10 25 0
14 -4 25 -10 25 -5 0 -10 20 -10 45 0 25 5 45 10 45 6 0 10 45 10 115 0 70 4
115 10 115 6 0 10 11 10 25 0 14 5 25 10 25 6 0 10 7 10 15 0 8 -4 15 -10 15
-5 0 -10 8 -10 18 0 10 -9 24 -20 32 -11 8 -20 20 -20 27 0 7 -4 13 -10 13 -5
0 -10 7 -10 15 0 8 -4 15 -10 15 -5 0 -10 7 -10 15 0 8 -4 15 -10 15 -5 0 -10
6 -10 13 0 7 -9 19 -20 27 -11 8 -20 20 -20 27 0 7 -4 13 -10 13 -5 0 -10 5
-10 11 0 13 -38 49 -52 49 -4 0 -8 11 -8 25 0 14 -4 25 -10 25 -5 0 -10 9 -10
20 0 11 -4 20 -10 20 -5 0 -10 11 -10 25 0 14 -4 25 -10 25 -5 0 -10 7 -10 16
0 17 -36 54 -52 54 -4 0 -8 7 -8 15 0 8 -4 15 -10 15 -5 0 -10 5 -10 11 0 6
-13 24 -30 39 -16 15 -30 32 -30 38 0 5 -13 15 -30 22 -16 7 -39 21 -51 31
-12 10 -38 23 -58 29 -35 10 -193 14 -202 6z"/>
<path d="M5400 1079 c-73 -20 -90 -31 -90 -55 0 -14 -6 -24 -14 -24 -30 0 -46
13 -46 36 0 21 -4 24 -40 24 -22 0 -40 -4 -40 -10 0 -5 -13 -10 -30 -10 -16 0
-30 -4 -30 -10 0 -5 5 -10 10 -10 6 0 10 -13 10 -28 0 -16 8 -34 20 -42 11 -8
20 -20 20 -27 0 -15 35 -26 60 -18 11 4 20 2 20 -4 0 -6 -4 -11 -8 -11 -5 0
-19 -9 -32 -20 -13 -11 -31 -20 -42 -20 -16 0 -18 -9 -18 -100 l0 -100 40 0
c32 0 40 4 40 19 0 11 12 23 30 31 17 7 30 20 30 29 0 9 9 23 20 31 23 16 26
36 8 44 -10 5 -10 7 0 12 7 3 12 25 12 53 0 44 2 48 35 64 41 19 85 22 85 6 0
-7 11 -9 27 -6 30 6 53 -1 53 -15 0 -25 79 -72 104 -62 9 3 16 17 16 30 0 13
5 24 10 24 6 0 10 14 10 30 0 17 -4 30 -10 30 -5 0 -10 7 -10 15 0 8 -4 15 -8
15 -5 0 -19 9 -32 20 -13 11 -29 20 -37 20 -8 0 -21 7 -29 15 -9 8 -24 15 -35
15 -10 0 -19 5 -19 10 0 12 -43 12 -90 -1z"/>
</g>
</svg>
