<?xml version="1.0" standalone="no"?>
<!DOCTYPE svg PUBLIC "-//W3C//DTD SVG 20010904//EN"
 "http://www.w3.org/TR/2001/REC-SVG-20010904/DTD/svg10.dtd">
<svg version="1.0" xmlns="http://www.w3.org/2000/svg"
 width="3950.000000pt" height="3506.000000pt" viewBox="0 0 3950.000000 3506.000000"
 preserveAspectRatio="xMidYMid meet">
<metadata>
Created by potrace 1.16, written by Peter Selinger 2001-2019
</metadata>
<g transform="translate(0.000000,3506.000000) scale(0.100000,-0.100000)"
fill="#ffffff" stroke="#000000" stroke-width="5.00">
<path d="M14460 20000 c-30 -16 -70 -29 -88 -30 -18 0 -47 -7 -64 -16 -18 -9
-73 -20 -128 -24 -87 -7 -154 -27 -170 -50 -3 -4 -34 -22 -69 -40 -36 -17 -70
-37 -77 -44 -7 -6 -21 -17 -30 -25 -9 -8 -53 -27 -98 -43 -44 -17 -97 -36
-116 -43 -19 -8 -50 -14 -68 -15 -18 0 -54 -11 -80 -24 -26 -12 -108 -38 -182
-56 -74 -18 -152 -41 -172 -51 -21 -11 -48 -19 -62 -19 -13 0 -31 -6 -38 -13
-24 -24 -93 -36 -233 -42 -145 -6 -284 -33 -353 -69 -19 -10 -59 -26 -90 -36
-65 -20 -152 -61 -152 -70 0 -10 -89 -47 -170 -70 -41 -12 -94 -28 -118 -36
-23 -8 -47 -14 -53 -14 -14 0 -39 -26 -39 -39 0 -6 -4 -11 -10 -11 -5 0 -10
-11 -10 -25 0 -14 -4 -25 -10 -25 -5 0 -10 -18 -10 -40 0 -22 5 -40 10 -40 6
0 10 -11 10 -25 0 -14 5 -25 10 -25 6 0 10 -5 10 -11 0 -6 14 -23 31 -39 47
-41 53 -46 79 -60 34 -18 50 -36 50 -56 0 -17 -35 -54 -52 -54 -4 0 -8 -7 -8
-15 0 -8 -4 -15 -10 -15 -5 0 -10 -11 -10 -25 0 -14 -4 -25 -10 -25 -5 0 -10
-7 -10 -15 0 -8 -4 -15 -10 -15 -5 0 -10 -6 -10 -13 0 -7 -9 -19 -20 -27 -11
-8 -20 -22 -20 -32 0 -10 -4 -18 -10 -18 -5 0 -10 -5 -10 -11 0 -15 -21 -34
-60 -54 -39 -20 -60 -39 -60 -54 0 -6 -4 -11 -10 -11 -5 0 -10 -5 -10 -11 0
-26 -78 -69 -126 -69 -13 0 -74 -54 -74 -65 0 -4 -18 -24 -40 -45 -37 -36 -40
-42 -40 -94 0 -31 -4 -56 -10 -56 -5 0 -10 -16 -10 -35 0 -19 -4 -35 -10 -35
-5 0 -10 -7 -10 -16 0 -9 -13 -29 -30 -44 -16 -15 -30 -33 -30 -39 0 -6 -4
-11 -10 -11 -5 0 -10 -5 -10 -11 0 -6 -18 -28 -40 -49 -22 -21 -40 -43 -40
-49 0 -6 -4 -11 -10 -11 -5 0 -10 -13 -10 -30 0 -16 -4 -30 -10 -30 -5 0 -10
-7 -10 -15 0 -8 -4 -15 -10 -15 -5 0 -10 -5 -10 -11 0 -6 -13 -24 -30 -39 -16
-15 -30 -31 -30 -34 0 -13 -140 -145 -160 -151 -11 -3 -20 -10 -20 -14 0 -8
-56 -35 -97 -46 -13 -4 -23 -10 -23 -15 0 -4 -18 -11 -40 -15 -22 -4 -46 -13
-53 -20 -7 -7 -28 -20 -46 -29 -18 -10 -57 -41 -86 -69 -69 -68 -95 -87 -117
-87 -10 0 -18 -4 -18 -9 0 -5 -9 -13 -20 -16 -11 -3 -20 -12 -20 -18 0 -7 -9
-19 -21 -27 -12 -8 -35 -27 -51 -42 -17 -16 -34 -28 -39 -28 -14 0 -11 -70 4
-85 7 -7 33 -23 57 -35 48 -25 70 -43 70 -59 0 -6 5 -11 10 -11 6 0 10 -29 10
-68 0 -63 -2 -70 -24 -80 -28 -13 -113 -28 -208 -37 -56 -5 -73 -12 -99 -36
-17 -16 -39 -29 -49 -29 -25 0 -60 34 -60 59 0 11 -4 21 -10 21 -5 0 -10 23
-10 50 0 28 -4 50 -10 50 -5 0 -10 6 -10 14 0 11 -20 26 -35 26 -12 0 -65 -61
-65 -75 0 -21 -33 -52 -64 -60 -50 -14 -96 -39 -96 -52 0 -27 -69 -73 -109
-73 -30 0 -91 -32 -91 -47 0 -7 -4 -13 -10 -13 -5 0 -10 -9 -10 -20 0 -11 -4
-20 -10 -20 -5 0 -10 -5 -10 -11 0 -9 -46 -56 -93 -95 -49 -41 -128 -59 -307
-69 -134 -8 -180 -19 -180 -45 0 -11 -4 -20 -10 -20 -5 0 -10 -7 -10 -16 0 -9
-13 -29 -30 -44 -16 -15 -30 -33 -30 -39 0 -6 -4 -11 -10 -11 -5 0 -10 -16
-10 -35 0 -37 3 -35 -105 -61 -32 -8 -55 -26 -55 -43 0 -6 -4 -11 -10 -11 -5
0 -10 -7 -10 -15 0 -8 -17 -19 -42 -25 -24 -6 -59 -16 -80 -21 -36 -9 -98 -58
-98 -77 0 -6 -9 -14 -20 -17 -11 -3 -20 -10 -20 -15 0 -5 -18 -14 -40 -20 -22
-6 -40 -15 -40 -20 0 -21 -83 -31 -203 -24 -68 4 -153 3 -190 0 -62 -7 -67 -9
-67 -32 0 -13 -4 -24 -10 -24 -5 0 -10 -13 -10 -30 0 -16 -4 -30 -10 -30 -5 0
-10 -16 -10 -35 0 -19 -4 -35 -10 -35 -5 0 -10 -13 -10 -30 0 -16 -4 -30 -10
-30 -19 0 -11 -65 10 -80 16 -12 20 -26 20 -72 0 -48 -3 -58 -20 -63 -11 -3
-20 -10 -20 -14 0 -5 -13 -14 -30 -21 -16 -7 -30 -16 -30 -20 0 -4 -14 -13
-30 -20 -16 -7 -30 -16 -30 -19 0 -4 -27 -20 -60 -36 -33 -16 -60 -32 -60 -36
0 -4 -9 -11 -20 -14 -11 -3 -20 -13 -20 -21 0 -8 -4 -14 -10 -14 -5 0 -10 -22
-10 -50 0 -27 5 -50 10 -50 6 0 10 -7 10 -15 0 -8 12 -18 26 -21 35 -9 267 4
322 18 27 7 70 8 115 3 95 -10 190 -8 241 6 22 6 77 13 122 14 63 2 91 8 132
29 62 31 81 32 132 6 60 -31 143 -22 178 18 34 39 77 52 169 52 48 1 108 6
133 12 25 5 103 13 173 17 72 4 131 11 135 17 15 23 53 34 119 34 37 0 86 7
108 15 22 8 59 14 83 15 24 0 53 5 65 12 12 7 60 17 107 24 47 7 103 19 125
28 22 8 59 15 83 16 23 0 62 10 85 21 41 22 150 49 197 49 14 1 41 7 61 14 36
13 49 21 93 62 44 41 88 56 190 65 56 4 110 8 122 9 12 0 30 8 42 18 11 9 30
24 42 32 12 8 31 23 42 32 20 17 78 38 105 38 6 0 29 17 51 38 22 20 50 44 62
52 22 15 44 33 92 72 15 13 28 29 28 36 0 6 5 12 10 12 6 0 10 6 10 14 0 28
155 68 320 82 175 14 260 31 260 51 0 7 5 13 10 13 6 0 10 7 10 16 0 16 55 74
71 74 5 0 9 27 9 60 0 33 4 60 10 60 6 0 10 7 10 15 0 8 -4 15 -10 15 -5 0
-10 14 -10 30 0 17 -4 30 -10 30 -5 0 -10 23 -10 50 0 28 5 50 10 50 6 0 10 6
10 13 0 7 9 19 20 27 11 8 20 20 20 27 0 7 5 13 10 13 6 0 10 7 10 15 0 8 5
15 10 15 6 0 10 7 10 15 0 8 5 15 10 15 6 0 10 8 10 18 0 10 9 24 20 32 11 8
20 25 20 37 0 13 5 23 10 23 6 0 10 9 10 20 0 11 5 20 10 20 6 0 10 7 10 15 0
8 5 15 10 15 6 0 10 11 10 25 0 14 5 25 10 25 6 0 10 23 10 51 0 46 4 54 39
87 21 20 49 44 61 52 36 24 120 108 120 119 0 6 5 11 10 11 6 0 10 11 10 25 0
14 5 25 10 25 6 0 10 9 10 20 0 11 5 20 10 20 6 0 10 7 10 15 0 8 5 15 10 15
6 0 10 9 10 20 0 11 5 20 10 20 6 0 10 9 10 20 0 11 5 20 10 20 6 0 10 6 10
13 0 6 14 23 31 37 16 14 44 37 60 53 17 15 36 27 43 27 85 2 199 22 239 41
26 13 47 27 47 31 0 4 8 8 18 8 11 0 30 9 43 20 13 11 29 24 35 28 5 5 21 15
35 22 13 7 26 16 29 20 3 4 29 20 59 35 30 15 61 33 69 41 7 8 17 14 22 14 5
0 16 7 25 17 11 11 35 16 74 17 48 1 62 6 84 28 15 15 27 32 27 39 0 21 41 48
86 55 61 9 193 -26 214 -56 3 -4 60 -35 128 -69 121 -60 192 -115 192 -146 0
-8 5 -15 10 -15 6 0 10 -16 10 -35 0 -19 5 -35 10 -35 6 0 10 -6 10 -13 0 -7
9 -19 20 -27 11 -8 20 -22 20 -32 0 -10 5 -18 10 -18 6 0 10 -7 10 -15 0 -8 5
-15 10 -15 6 0 10 -6 10 -14 0 -14 33 -30 85 -42 53 -12 105 -44 159 -97 29
-29 63 -59 74 -67 12 -8 22 -18 22 -23 0 -5 14 -22 30 -37 17 -15 30 -31 30
-34 0 -6 119 -124 153 -153 8 -6 33 -21 56 -33 24 -12 66 -45 95 -73 28 -29
75 -63 104 -76 29 -14 52 -29 52 -36 0 -6 9 -17 20 -25 11 -8 20 -18 20 -23 0
-7 72 -79 113 -114 8 -6 47 -28 87 -48 76 -38 100 -56 100 -74 0 -6 5 -11 10
-11 6 0 10 -5 10 -11 0 -12 38 -49 50 -49 6 0 17 -8 66 -48 5 -5 21 -15 33
-22 13 -7 43 -32 67 -55 23 -24 52 -46 63 -50 12 -3 21 -13 21 -21 0 -8 5 -14
10 -14 6 0 10 -7 10 -15 0 -8 5 -15 10 -15 6 0 10 -5 10 -11 0 -18 100 -109
128 -115 15 -4 62 -24 104 -45 43 -22 84 -39 92 -39 15 0 76 -53 76 -67 0 -5
9 -15 21 -23 11 -8 30 -23 41 -32 12 -10 24 -18 28 -18 4 0 17 -9 29 -19 12
-11 48 -27 79 -36 31 -9 71 -21 87 -26 17 -6 40 -13 53 -16 12 -3 22 -9 22
-13 0 -4 14 -13 30 -20 17 -7 30 -18 30 -24 0 -6 14 -22 31 -36 97 -81 109
-96 109 -144 0 -25 5 -46 10 -46 6 0 10 -9 10 -20 0 -11 5 -20 10 -20 6 0 10
-7 10 -15 0 -8 4 -15 9 -15 14 0 91 -76 91 -90 0 -29 106 -100 149 -100 11 0
41 10 65 22 l45 22 156 -17 c113 -13 167 -23 200 -39 25 -12 45 -25 45 -29 0
-15 88 -20 150 -9 61 11 181 63 188 81 2 5 19 9 38 9 40 0 67 12 100 45 31 32
126 49 221 41 43 -4 85 -7 93 -8 8 0 62 3 120 8 213 18 345 2 456 -54 22 -11
62 -23 89 -26 56 -8 197 -42 235 -56 14 -5 83 -14 154 -20 142 -11 276 -35
318 -56 15 -8 43 -14 63 -14 19 0 35 -4 35 -8 0 -15 66 -40 93 -35 15 3 27 1
27 -4 0 -17 126 -65 207 -78 61 -11 73 -16 73 -31 0 -8 5 -14 10 -14 6 0 10
-9 10 -20 0 -11 5 -20 10 -20 6 0 10 -33 10 -80 0 -47 4 -80 10 -80 6 0 10
-17 10 -39 0 -33 4 -40 30 -51 24 -10 36 -10 60 0 34 14 90 62 90 77 0 16 47
33 118 43 37 5 83 14 102 20 19 5 59 10 87 10 29 0 53 4 53 9 0 5 14 14 30 21
36 15 106 8 152 -16 18 -9 60 -23 93 -31 33 -7 78 -18 100 -23 22 -5 59 -9 83
-10 24 0 71 -6 105 -14 34 -8 121 -19 193 -25 73 -6 151 -18 175 -27 24 -9 69
-22 100 -29 30 -7 66 -18 80 -25 50 -27 169 -51 304 -60 77 -6 178 -18 225
-26 138 -25 177 -27 271 -14 80 12 93 11 132 -5 101 -41 141 -61 154 -73 7 -8
42 -16 76 -19 72 -7 144 -39 193 -88 25 -26 45 -35 81 -40 26 -3 62 -10 78
-16 70 -25 133 -39 177 -39 46 0 98 -16 98 -30 0 -4 17 -11 37 -15 20 -4 54
-15 75 -26 50 -25 108 -24 108 3 0 6 13 23 30 38 16 15 30 31 30 35 0 14 29
34 100 70 53 27 82 36 104 32 39 -6 56 0 56 20 0 28 27 43 77 42 26 -1 116 3
198 8 173 11 327 8 388 -7 73 -19 117 -42 117 -62 0 -10 5 -18 10 -18 6 0 10
-7 10 -15 0 -21 38 -58 81 -80 57 -30 204 -11 246 31 7 7 13 17 13 22 0 16 94
51 185 68 50 9 108 22 130 29 22 8 59 18 82 25 23 6 48 17 56 24 18 18 73 46
90 46 20 0 57 35 57 54 0 9 5 16 10 16 6 0 10 11 10 25 0 14 5 25 10 25 6 0
10 14 10 31 0 35 39 78 90 99 16 7 30 19 30 26 0 8 5 14 10 14 6 0 10 7 10 16
0 8 18 33 40 54 22 21 40 41 40 45 0 12 25 31 50 39 14 4 64 18 112 30 59 16
95 32 112 49 14 14 26 29 26 32 0 4 18 24 40 45 30 29 40 46 40 69 0 17 5 31
10 31 6 0 10 22 10 49 0 30 5 52 13 55 10 5 10 7 0 12 -7 3 -13 19 -13 35 0
16 -4 29 -10 29 -6 0 -10 33 -10 80 0 47 4 80 10 80 6 0 10 30 10 70 0 40 4
70 10 70 6 0 10 7 10 15 0 8 4 15 8 15 5 0 18 8 30 18 11 9 30 24 42 32 37 26
60 47 60 56 0 5 10 16 21 24 12 8 27 21 35 28 7 7 57 26 111 43 96 30 193 70
216 89 47 40 62 50 78 55 11 4 19 10 19 15 0 5 9 12 20 15 11 3 26 12 33 20 8
7 42 27 77 45 34 17 68 36 74 41 44 37 60 47 105 69 44 20 51 28 51 52 0 22
-5 29 -27 33 -62 13 -185 56 -199 69 -8 8 -14 22 -14 30 0 9 -4 16 -10 16 -6
0 -10 40 -10 100 0 60 4 100 10 100 6 0 10 25 10 56 0 52 -3 58 -40 94 -22 21
-40 44 -40 50 0 6 18 29 40 50 22 21 40 46 40 54 0 9 5 16 10 16 6 0 10 5 10
10 0 33 81 84 149 94 29 4 52 16 70 35 39 42 78 58 182 76 133 22 139 24 139
40 0 8 5 15 10 15 6 0 10 5 10 10 0 19 46 58 101 85 56 29 79 47 79 64 0 5 9
13 20 16 11 3 20 10 20 15 0 5 8 11 19 15 10 3 29 15 42 26 12 11 34 22 48 25
14 2 40 9 57 14 43 14 102 12 149 -5 51 -19 122 -19 210 0 119 24 324 -1 355
-45 14 -19 61 -33 144 -40 169 -16 316 -56 316 -85 0 -6 30 -25 66 -43 66 -33
76 -40 118 -78 30 -28 67 -46 139 -68 31 -10 57 -22 57 -26 0 -5 8 -11 19 -15
25 -8 61 -40 61 -54 0 -6 5 -11 10 -11 6 0 10 -16 10 -35 0 -19 5 -35 10 -35
6 0 10 -13 10 -30 0 -16 5 -30 10 -30 6 0 10 -8 10 -18 0 -10 10 -24 21 -32
12 -8 43 -35 70 -60 69 -64 73 -67 123 -92 25 -12 46 -26 46 -30 0 -4 7 -8 15
-8 21 0 185 -83 185 -93 0 -8 22 -30 76 -76 9 -8 33 -18 53 -22 54 -11 121
-38 138 -54 8 -8 19 -15 24 -15 5 0 9 -7 9 -15 0 -8 5 -15 10 -15 6 0 10 -7
10 -15 0 -8 15 -18 35 -24 19 -5 41 -15 49 -23 7 -7 24 -20 36 -28 12 -8 28
-20 34 -26 48 -46 140 -60 320 -49 98 5 126 10 126 21 0 8 5 14 10 14 6 0 10
9 10 20 0 11 5 20 10 20 6 0 10 11 10 25 0 14 5 25 10 25 6 0 10 11 10 25 0
14 5 25 10 25 6 0 10 11 10 25 0 14 5 25 10 25 6 0 10 9 10 20 0 11 5 20 10
20 6 0 10 11 10 25 0 14 -4 25 -10 25 -5 0 -10 5 -10 11 0 6 -13 24 -30 39
-17 15 -30 33 -30 39 0 6 -4 11 -10 11 -5 0 -10 6 -10 13 0 7 -9 19 -20 27
-11 8 -20 19 -20 25 0 6 -9 17 -20 25 -17 13 -20 26 -20 102 0 52 -4 88 -10
88 -6 0 -10 27 -10 60 0 33 4 60 10 60 6 0 10 16 10 35 0 19 5 35 10 35 6 0
10 8 10 18 0 10 9 24 21 32 35 24 79 67 79 77 0 5 9 15 20 23 11 8 20 18 20
23 0 4 23 31 52 59 40 39 48 52 37 59 -8 5 -17 9 -20 9 -5 0 -22 13 -66 50 -7
5 -24 15 -38 22 -14 6 -25 15 -25 20 0 11 -52 -2 -67 -18 -7 -7 -13 -17 -13
-23 0 -6 -4 -11 -8 -11 -5 0 -18 -8 -30 -17 -11 -10 -30 -25 -41 -33 -12 -8
-21 -18 -21 -23 0 -13 -23 -33 -60 -52 -19 -10 -40 -23 -46 -30 -7 -7 -35 -15
-63 -19 -28 -4 -51 -10 -51 -15 0 -4 -18 -16 -40 -26 -47 -21 -80 -47 -80 -64
0 -6 -4 -11 -10 -11 -5 0 -10 -9 -10 -20 0 -11 -4 -20 -10 -20 -5 0 -10 -7
-10 -15 0 -8 -15 -18 -35 -24 -40 -11 -164 17 -190 43 -9 8 -35 20 -58 26 -83
21 -217 71 -239 89 -50 42 -78 71 -78 80 0 6 -4 11 -10 11 -5 0 -10 5 -10 11
0 6 -7 17 -15 26 -17 16 -48 14 -141 -8 -50 -12 -52 -12 -78 14 -14 14 -26 37
-26 52 0 14 -4 25 -10 25 -5 0 -10 8 -10 18 0 10 -9 24 -20 32 -11 8 -20 19
-20 25 0 6 -9 17 -20 25 -11 8 -20 19 -20 25 0 22 -92 55 -145 52 -48 -2 -135
26 -135 43 0 4 -13 13 -30 20 -16 7 -30 16 -30 21 0 5 -12 12 -27 15 -16 4
-63 24 -105 45 -43 22 -84 39 -91 39 -20 0 -57 35 -57 54 0 9 -4 16 -10 16 -5
0 -10 6 -10 14 0 21 -23 26 -128 26 -52 0 -112 6 -131 13 -37 12 -40 14 -80
47 -13 11 -32 20 -42 20 -10 0 -24 6 -31 14 -21 20 -67 42 -149 71 -143 50
-170 56 -247 49 -42 -4 -83 -2 -100 4 -15 6 -60 20 -101 33 -73 21 -77 21
-145 5 -39 -9 -83 -16 -98 -16 -17 0 -40 -14 -68 -40 -22 -21 -57 -44 -76 -49
-50 -14 -113 7 -160 54 -21 21 -29 22 -123 17 -99 -5 -161 7 -161 30 0 18 -31
40 -83 59 -66 24 -85 24 -166 -3 -67 -23 -91 -38 -91 -57 0 -6 -4 -11 -10 -11
-5 0 -10 -7 -10 -15 0 -8 -4 -15 -9 -15 -6 0 -37 -26 -70 -57 -79 -76 -81 -77
-132 -104 -24 -12 -51 -30 -59 -39 -8 -9 -30 -25 -49 -34 -18 -10 -53 -36 -77
-59 -24 -23 -64 -61 -88 -84 -24 -23 -63 -51 -86 -63 -50 -25 -110 -83 -110
-105 0 -8 -4 -15 -10 -15 -5 0 -10 -20 -10 -45 0 -35 -6 -52 -25 -70 -13 -14
-30 -25 -38 -25 -8 0 -24 -9 -37 -20 -13 -11 -27 -20 -32 -20 -4 0 -8 -7 -8
-15 0 -8 -4 -15 -10 -15 -5 0 -10 -6 -10 -14 0 -14 -32 -30 -85 -42 -32 -8
-55 -26 -55 -43 0 -6 -4 -11 -10 -11 -5 0 -10 -11 -10 -25 0 -14 -4 -25 -10
-25 -5 0 -10 -7 -10 -15 0 -8 -4 -15 -10 -15 -5 0 -10 -9 -10 -20 0 -11 -4
-20 -10 -20 -5 0 -10 -13 -10 -30 0 -16 -4 -30 -10 -30 -5 0 -10 -5 -10 -11 0
-6 -22 -32 -50 -59 -27 -27 -50 -53 -50 -59 0 -6 -4 -11 -10 -11 -5 0 -10 -20
-10 -45 0 -25 -4 -45 -10 -45 -5 0 -10 -5 -10 -11 0 -27 -50 -55 -140 -80 -79
-21 -140 -43 -188 -68 -21 -10 -52 -22 -71 -26 -51 -11 -61 -26 -61 -91 0 -59
-16 -85 -61 -99 -11 -4 -19 -10 -19 -14 0 -9 -51 -32 -115 -53 -22 -7 -55 -28
-73 -45 -26 -27 -41 -33 -75 -33 -60 -1 -123 -15 -140 -31 -8 -8 -24 -21 -36
-29 -11 -8 -21 -20 -21 -27 0 -7 -4 -13 -10 -13 -5 0 -10 -9 -10 -20 0 -11 -4
-20 -10 -20 -5 0 -10 -11 -10 -25 0 -14 -4 -25 -10 -25 -5 0 -10 -9 -10 -20 0
-11 -4 -20 -10 -20 -5 0 -10 -9 -10 -20 0 -11 -4 -20 -10 -20 -5 0 -10 -7 -10
-15 0 -8 -4 -15 -10 -15 -5 0 -10 -6 -10 -13 0 -7 -9 -19 -20 -27 -11 -8 -20
-19 -20 -24 0 -13 -41 -46 -64 -51 -12 -2 -41 -6 -64 -10 -51 -7 -115 -37
-148 -71 -14 -13 -43 -28 -67 -34 -57 -15 -97 -31 -97 -40 0 -4 -11 -12 -25
-18 -27 -13 -33 -17 -85 -63 -18 -16 -34 -29 -37 -29 -12 0 -51 26 -73 50 -14
15 -37 30 -51 33 -14 4 -35 14 -46 24 -12 10 -31 25 -43 33 -43 29 -60 48 -60
64 0 9 -4 16 -10 16 -5 0 -10 15 -10 34 0 34 -10 42 -76 61 -30 8 -64 39 -64
59 0 9 -4 16 -10 16 -5 0 -10 6 -10 14 0 8 -9 18 -20 21 -11 3 -20 13 -20 21
0 8 -4 14 -10 14 -5 0 -10 11 -10 25 0 14 -4 25 -10 25 -5 0 -10 10 -10 23 0
12 -9 29 -21 37 -11 8 -29 22 -39 30 -10 8 -28 22 -39 30 -12 8 -21 20 -21 27
0 7 -4 13 -10 13 -5 0 -10 9 -10 19 0 25 -21 33 -105 40 -68 6 -71 6 -101 -24
-40 -38 -76 -65 -86 -65 -4 0 -8 -5 -8 -10 0 -34 -118 -115 -190 -131 -19 -5
-73 -17 -120 -28 -61 -14 -90 -16 -104 -9 -31 17 -86 76 -86 93 0 8 -4 15 -10
15 -5 0 -10 11 -10 25 0 14 -4 25 -10 25 -5 0 -10 5 -10 11 0 14 -26 39 -40
39 -6 0 -25 7 -42 16 -24 13 -39 14 -70 6 -62 -16 -68 -9 -68 68 l0 67 39 18
c42 19 96 17 209 -7 60 -13 140 0 206 34 40 21 46 25 97 71 17 15 35 27 39 27
4 0 22 13 39 29 29 28 31 33 31 105 0 44 -4 76 -10 76 -5 0 -10 7 -10 15 0 8
-4 15 -10 15 -5 0 -10 9 -10 20 0 11 -4 20 -10 20 -5 0 -10 9 -10 20 0 11 -4
20 -10 20 -5 0 -10 7 -10 15 0 8 -4 15 -10 15 -5 0 -10 14 -10 30 0 17 5 30
10 30 6 0 10 18 10 40 0 22 5 40 10 40 6 0 10 6 10 13 0 7 9 19 20 27 15 11
20 26 20 63 0 44 4 53 40 87 22 21 40 41 40 45 0 10 60 65 71 65 12 0 149 137
149 150 0 5 5 10 10 10 6 0 10 6 10 13 0 7 9 19 20 27 11 8 20 20 20 27 0 7 5
13 10 13 6 0 10 7 10 15 0 8 5 15 10 15 6 0 10 7 10 15 0 8 4 15 8 15 8 0 19
8 68 48 5 5 21 15 34 22 31 17 50 35 50 49 0 6 5 11 10 11 6 0 10 6 10 13 0 7
9 19 20 27 11 8 20 22 20 32 0 10 5 18 10 18 6 0 10 14 10 30 0 17 5 30 10 30
6 0 10 11 10 25 0 14 5 25 10 25 6 0 10 11 10 25 0 14 -4 25 -10 25 -5 0 -10
18 -10 40 0 22 -4 40 -10 40 -5 0 -10 11 -10 25 0 14 -4 25 -10 25 -5 0 -10
11 -10 25 0 14 -4 25 -10 25 -5 0 -10 5 -10 11 0 14 -36 46 -61 54 -11 4 -19
10 -19 15 0 5 -9 12 -20 15 -11 3 -20 12 -20 20 0 8 -8 16 -19 20 -10 3 -28
13 -39 23 -11 9 -30 24 -41 32 -15 10 -21 25 -21 52 0 21 -4 38 -10 38 -6 0
-10 28 -10 65 0 37 -4 65 -10 65 -5 0 -10 9 -10 20 0 11 -4 20 -10 20 -5 0
-10 7 -10 15 0 8 -4 15 -10 15 -5 0 -10 7 -10 15 0 8 -4 15 -10 15 -5 0 -10
11 -10 25 0 14 -4 25 -10 25 -5 0 -10 14 -10 30 0 17 5 30 10 30 6 0 10 16 10
35 0 19 5 35 10 35 6 0 10 7 10 15 0 8 5 15 10 15 6 0 10 6 10 13 0 7 9 19 20
27 11 8 20 22 20 32 0 10 5 18 10 18 6 0 10 5 10 10 0 14 40 54 70 70 26 14
39 24 74 56 36 34 85 56 160 71 69 14 156 52 184 79 7 8 18 14 23 14 5 0 9 38
9 85 0 50 -4 85 -10 85 -5 0 -10 9 -10 20 0 11 -4 20 -10 20 -5 0 -10 5 -10
11 0 11 -62 73 -99 99 -11 8 -21 20 -21 27 0 7 -4 13 -10 13 -5 0 -10 11 -10
25 0 14 -4 25 -10 25 -5 0 -10 16 -10 35 0 19 -4 35 -10 35 -5 0 -10 9 -10 19
0 11 -9 23 -20 26 -11 3 -20 10 -20 15 0 5 -9 12 -20 15 -11 3 -27 13 -35 21
-8 9 -49 19 -96 24 -81 9 -103 5 -136 -24 -30 -27 -42 -35 -72 -51 -18 -9 -58
-25 -89 -35 -86 -27 -112 -41 -112 -61 0 -10 -9 -21 -20 -24 -12 -4 -36 -22
-55 -40 -18 -19 -62 -48 -97 -66 -34 -17 -70 -40 -79 -50 -11 -13 -30 -19 -58
-19 -42 0 -74 -12 -98 -36 -15 -15 -18 -104 -3 -104 6 0 10 -6 10 -13 0 -7 9
-19 20 -27 16 -11 20 -26 20 -67 0 -29 -4 -53 -10 -53 -5 0 -10 -6 -10 -13 0
-7 -9 -19 -20 -27 -11 -8 -20 -20 -20 -27 0 -7 -4 -13 -10 -13 -5 0 -10 -8
-10 -18 0 -10 -10 -24 -21 -32 -32 -23 -99 -87 -99 -97 0 -4 -14 -19 -31 -33
-68 -57 -89 -79 -89 -94 0 -9 -4 -16 -10 -16 -5 0 -10 -5 -10 -11 0 -12 -57
-69 -70 -69 -11 0 -50 -36 -50 -46 0 -5 -9 -16 -20 -24 -11 -8 -20 -20 -20
-27 0 -7 -4 -13 -10 -13 -5 0 -10 -9 -10 -20 0 -11 -4 -20 -10 -20 -6 0 -10
-32 -10 -75 0 -43 -4 -75 -10 -75 -5 0 -10 -11 -10 -25 0 -14 -4 -25 -10 -25
-6 0 -10 -42 -10 -105 0 -63 -4 -105 -10 -105 -5 0 -10 -7 -10 -15 0 -8 -4
-15 -10 -15 -5 0 -10 -7 -10 -15 0 -8 -4 -15 -10 -15 -5 0 -10 -7 -10 -15 0
-8 -4 -15 -10 -15 -6 0 -10 -33 -10 -78 0 -66 -3 -80 -20 -92 -11 -8 -20 -22
-20 -32 0 -10 -4 -18 -10 -18 -5 0 -10 -9 -10 -20 0 -11 -4 -20 -10 -20 -5 0
-10 -7 -10 -15 0 -19 -36 -57 -71 -75 -13 -7 -55 -21 -93 -31 -38 -10 -72 -22
-75 -27 -12 -18 -71 -42 -104 -42 -59 0 -150 -21 -199 -46 -26 -13 -76 -28
-110 -34 -35 -5 -115 -19 -178 -30 -63 -12 -187 -25 -275 -30 -88 -5 -236 -17
-330 -26 -234 -23 -468 -24 -520 -3 -97 40 -267 69 -435 75 -168 7 -234 -1
-263 -30 -35 -35 -80 -47 -215 -56 -172 -12 -455 -15 -548 -5 -47 5 -78 4 -91
-4 -17 -8 -35 -6 -85 10 -35 12 -109 24 -168 28 -78 6 -116 14 -149 31 -33 16
-54 21 -82 16 -24 -4 -51 -1 -71 8 -18 8 -73 27 -123 42 -120 36 -138 46 -201
110 -45 44 -54 60 -54 89 0 19 -4 35 -10 35 -5 0 -10 12 -10 26 0 28 -51 84
-77 84 -31 0 -123 -64 -123 -86 0 -14 -44 -44 -79 -54 -93 -28 -193 -23 -432
19 -122 22 -203 45 -279 79 -25 11 -65 28 -89 38 -42 18 -101 64 -101 81 0 4
-14 19 -31 33 -16 14 -44 37 -61 53 l-31 27 23 20 c13 11 27 20 31 20 4 0 26
18 48 39 27 26 41 48 41 65 0 14 -4 26 -10 26 -5 0 -10 16 -10 35 0 59 -73
115 -149 115 -47 0 -91 18 -91 37 0 7 -4 13 -10 13 -5 0 -10 9 -10 19 0 26
-31 35 -107 32 -52 -1 -72 3 -124 30 -35 17 -69 37 -76 45 -8 8 -19 14 -24 14
-5 0 -9 5 -9 11 0 13 -58 69 -71 69 -5 0 -9 11 -9 23 0 18 10 28 40 42 22 10
40 22 40 26 0 4 15 12 33 18 17 5 46 14 62 20 17 6 42 13 56 16 42 8 89 58 89
94 0 17 5 31 10 31 6 0 10 20 10 45 0 25 -4 45 -10 45 -5 0 -10 14 -10 30 0
17 -4 30 -10 30 -5 0 -10 16 -10 35 0 19 -4 35 -10 35 -5 0 -10 11 -10 25 0
14 -4 25 -10 25 -5 0 -10 19 -10 41 0 48 22 73 76 88 32 9 64 32 64 46 0 27
86 55 172 55 82 0 128 16 128 44 0 27 -20 37 -125 62 -84 20 -141 47 -175 84
-32 34 -75 56 -125 65 -87 15 -195 60 -195 82 0 7 -4 13 -10 13 -5 0 -10 9
-10 20 0 11 -4 20 -10 20 -5 0 -10 14 -10 30 0 17 -4 30 -10 30 -5 0 -10 12
-10 26 0 48 -24 59 -129 59 -87 0 -116 -5 -219 -37 -36 -11 -120 0 -221 29
-29 9 -83 19 -120 24 -212 26 -245 34 -274 63 -27 27 -60 46 -79 46 -7 -1 -38
-14 -68 -30z m12876 -2364 c8 -8 14 -24 14 -34 0 -11 6 -23 13 -26 10 -5 10
-7 0 -12 -7 -3 -13 -14 -13 -24 0 -22 -51 -44 -79 -35 -17 5 -21 15 -21 51 0
46 8 61 45 82 25 14 24 15 41 -2z"/>
<path d="M23256 9315 c-16 -17 -43 -20 -48 -6 -5 15 -183 -16 -229 -40 -23
-11 -47 -25 -53 -30 -48 -40 -61 -49 -77 -54 -11 -4 -19 -10 -19 -15 0 -13
-99 -41 -170 -47 -67 -6 -119 1 -280 37 -47 10 -86 14 -88 9 -2 -5 -12 -9 -23
-9 -10 0 -19 -5 -19 -11 0 -6 -7 -8 -16 -5 -9 3 -25 -4 -38 -17 -13 -12 -33
-29 -45 -37 -11 -8 -21 -20 -21 -27 0 -7 -4 -13 -10 -13 -5 0 -10 -5 -10 -10
0 -6 -31 -42 -70 -80 -38 -38 -70 -73 -70 -77 0 -5 -9 -15 -20 -23 -11 -8 -20
-20 -20 -27 0 -7 -4 -13 -10 -13 -5 0 -10 -7 -10 -15 0 -8 -4 -15 -10 -15 -15
0 -13 -127 2 -132 15 -5 -3 -26 -37 -46 -11 -6 -14 -12 -7 -12 15 0 17 -90 1
-90 -6 0 8 -18 30 -39 31 -29 41 -47 41 -70 0 -17 -4 -31 -10 -31 -5 0 -10 -7
-10 -16 0 -9 -13 -29 -30 -44 -16 -15 -30 -32 -30 -37 0 -5 -9 -15 -20 -23
-11 -8 -20 -20 -20 -27 0 -7 -4 -13 -10 -13 -5 0 -10 -9 -10 -20 0 -11 -4 -20
-10 -20 -5 0 -10 -7 -10 -15 0 -8 -4 -15 -10 -15 -6 0 -10 -28 -10 -65 l0 -64
-42 -11 c-24 -6 -53 -15 -65 -20 -15 -6 -31 -6 -48 2 -26 12 -33 28 -12 28 16
1 -38 30 -74 40 -45 13 -94 -7 -149 -60 -27 -27 -50 -51 -50 -55 0 -5 -54 -59
-186 -184 -23 -21 -52 -45 -65 -52 -13 -6 -30 -18 -37 -26 -7 -7 -20 -13 -28
-13 -8 0 -21 -5 -28 -11 -44 -37 -76 -68 -76 -74 0 -12 -28 -35 -43 -35 -8 0
-23 -8 -35 -17 -11 -10 -30 -25 -42 -33 -12 -8 -31 -23 -42 -32 -12 -10 -24
-18 -28 -18 -5 0 -22 -13 -40 -30 -18 -16 -35 -30 -40 -30 -4 0 -17 -9 -30
-20 -13 -11 -31 -20 -42 -20 -10 0 -18 -4 -18 -9 0 -5 -9 -13 -20 -16 -11 -3
-20 -12 -20 -20 0 -7 -6 -16 -12 -18 -10 -4 -10 -6 0 -6 6 -1 12 -6 12 -12 0
-6 -9 -8 -22 -4 -18 5 -19 4 -8 -4 12 -8 11 -13 -9 -30 -13 -12 -28 -21 -33
-21 -4 0 -8 -7 -8 -15 0 -8 -4 -15 -10 -15 -5 0 -10 -6 -10 -14 0 -8 -9 -18
-20 -21 -11 -3 -20 -13 -20 -21 0 -8 -4 -14 -10 -14 -5 0 -10 -7 -10 -15 0 -8
-4 -15 -10 -15 -5 0 -10 -7 -10 -15 0 -8 -4 -15 -10 -15 -5 0 -10 -7 -10 -15
0 -8 -4 -15 -10 -15 -5 0 -10 -7 -10 -15 0 -8 -4 -15 -10 -15 -5 0 -10 -6 -10
-13 0 -7 -9 -19 -20 -27 -11 -8 -20 -25 -20 -37 0 -13 -4 -23 -10 -23 -5 0
-10 -7 -10 -15 0 -8 -4 -15 -10 -15 -5 0 -10 -7 -10 -15 0 -8 -4 -15 -10 -15
-5 0 -10 -7 -10 -15 0 -8 -4 -15 -10 -15 -5 0 -10 -9 -10 -20 0 -11 -4 -20
-10 -20 -5 0 -10 -9 -10 -20 0 -11 -4 -20 -10 -20 -5 0 -10 -9 -10 -20 0 -11
-4 -20 -10 -20 -5 0 -10 -13 -10 -30 0 -16 -4 -30 -10 -30 -5 0 -10 -18 -10
-40 0 -22 -4 -40 -10 -40 -6 0 -10 -37 -10 -90 0 -53 -4 -90 -10 -90 -5 0 -10
-17 -10 -38 0 -26 -6 -42 -20 -52 -11 -8 -20 -24 -20 -36 0 -12 -6 -25 -12
-27 -10 -4 -10 -8 1 -15 11 -8 11 -10 0 -15 -10 -4 -10 -6 -1 -6 8 -1 12 -22
12 -71 0 -40 4 -70 10 -70 6 0 10 -18 10 -40 0 -22 5 -40 10 -40 6 0 10 -13
10 -30 0 -16 5 -30 10 -30 6 0 10 -13 10 -30 0 -16 5 -30 10 -30 6 0 10 -28
10 -65 0 -37 4 -65 10 -65 6 0 10 -22 10 -50 0 -27 -4 -50 -10 -50 -14 0 -12
-27 3 -34 10 -5 10 -7 0 -12 -15 -7 -17 -34 -3 -34 6 0 10 -13 10 -30 0 -16
-4 -30 -10 -30 -15 0 -13 -90 3 -90 6 -1 1 -7 -13 -15 -14 -8 -19 -14 -12 -15
7 0 12 -13 12 -31 0 -26 -3 -29 -20 -24 -18 6 -20 2 -20 -44 0 -28 -4 -51 -10
-51 -5 0 -10 -13 -10 -30 0 -16 -4 -30 -10 -30 -5 0 -10 -11 -10 -25 0 -14 -4
-25 -10 -25 -5 0 -10 -11 -10 -25 0 -14 -4 -25 -10 -25 -5 0 -10 -9 -10 -20 0
-12 7 -20 16 -20 8 0 22 -6 30 -14 12 -13 11 -15 -6 -21 -11 -3 -29 -3 -40 0
-14 5 -20 2 -20 -9 0 -9 -6 -17 -12 -17 -7 -1 -20 -3 -28 -4 -8 -1 -21 -3 -27
-4 -7 0 -13 -14 -13 -31 0 -16 -4 -30 -10 -30 -5 0 -10 -20 -10 -45 0 -25 -4
-45 -10 -45 -5 0 -10 -7 -10 -15 0 -8 -4 -15 -10 -15 -5 0 -10 -13 -10 -30 0
-16 -4 -30 -10 -30 -5 0 -10 -12 -10 -26 0 -17 -14 -39 -40 -64 -22 -21 -40
-43 -40 -49 0 -6 -4 -11 -10 -11 -5 0 -10 -7 -10 -15 0 -8 -4 -15 -10 -15 -5
0 -10 -7 -10 -15 0 -8 -4 -15 -10 -15 -5 0 -10 -6 -10 -13 0 -7 -9 -19 -21
-27 -39 -28 -59 -47 -59 -59 0 -6 -4 -11 -10 -11 -5 0 -10 -11 -10 -23 0 -18
-10 -28 -40 -42 -22 -10 -40 -24 -40 -32 0 -7 -4 -13 -10 -13 -5 0 -10 -11
-10 -25 0 -14 -4 -25 -10 -25 -5 0 -10 -9 -10 -20 0 -11 -4 -20 -10 -20 -5 0
-10 -9 -10 -20 0 -11 -4 -20 -10 -20 -5 0 -10 -11 -10 -25 0 -14 -4 -25 -8
-25 -5 0 -18 -8 -30 -18 -11 -9 -30 -24 -41 -32 -12 -8 -21 -22 -21 -31 0 -9
-13 -22 -30 -29 -29 -12 -41 -30 -20 -30 6 0 10 -7 10 -15 0 -8 -4 -15 -8 -15
-5 0 -19 -9 -31 -19 -13 -11 -28 -22 -34 -25 -9 -5 -9 -8 1 -12 14 -7 16 -34
2 -34 -5 0 -10 -11 -10 -25 0 -14 -4 -25 -10 -25 -5 0 -10 -6 -10 -13 0 -7 -9
-19 -20 -27 -11 -8 -20 -20 -20 -27 0 -7 -4 -13 -10 -13 -5 0 -10 -7 -10 -16
0 -16 -75 -94 -91 -94 -5 0 -9 -9 -9 -20 0 -11 -4 -20 -10 -20 -5 0 -10 -7
-10 -16 0 -16 -36 -54 -50 -54 -12 0 -70 -57 -70 -68 0 -6 -9 -14 -20 -17 -11
-3 -20 -13 -20 -21 0 -8 -4 -14 -10 -14 -5 0 -10 -6 -10 -13 0 -7 -9 -19 -21
-27 -39 -28 -59 -47 -59 -59 0 -6 -4 -11 -10 -11 -5 0 -10 -7 -10 -16 0 -16
-55 -74 -70 -74 -10 0 -50 -36 -50 -45 0 -4 -13 -20 -30 -35 -16 -15 -30 -35
-30 -44 0 -9 -4 -16 -10 -16 -5 0 -10 -9 -10 -20 0 -11 -4 -20 -10 -20 -5 0
-10 -9 -10 -20 0 -11 -4 -20 -10 -20 -6 0 -10 -28 -10 -65 0 -36 -2 -65 -5
-65 -3 0 -23 9 -45 20 -48 25 -50 25 -50 0 0 -11 -4 -20 -10 -20 -5 0 -10 -6
-10 -13 0 -7 -9 -19 -20 -27 -11 -8 -20 -20 -20 -27 0 -7 -4 -13 -10 -13 -5 0
-10 -9 -10 -20 0 -11 -4 -20 -10 -20 -5 0 -10 -6 -10 -13 0 -7 -9 -19 -20 -27
-11 -8 -20 -20 -20 -27 0 -7 -4 -13 -10 -13 -5 0 -10 -9 -10 -20 0 -11 -4 -20
-10 -20 -5 0 -10 -7 -10 -15 0 -8 -4 -15 -10 -15 -5 0 -10 -7 -10 -15 0 -8 -4
-15 -10 -15 -5 0 -10 -7 -10 -15 0 -8 -4 -15 -10 -15 -5 0 -10 -9 -10 -20 0
-11 -4 -20 -10 -20 -5 0 -10 -8 -10 -18 0 -10 -9 -24 -20 -32 -11 -8 -20 -19
-20 -25 0 -6 -9 -17 -20 -25 -11 -8 -20 -20 -20 -27 0 -7 -4 -13 -10 -13 -5 0
-10 -7 -10 -15 0 -8 -4 -15 -10 -15 -5 0 -10 -9 -10 -20 0 -11 -4 -20 -10 -20
-5 0 -10 -11 -10 -25 0 -14 -4 -25 -10 -25 -5 0 -10 -6 -10 -13 0 -7 -9 -19
-20 -27 -11 -8 -20 -20 -20 -27 0 -7 -4 -13 -10 -13 -5 0 -10 -9 -10 -21 0
-11 -18 -38 -40 -59 -22 -21 -40 -46 -40 -54 0 -9 -4 -16 -10 -16 -5 0 -10 -9
-10 -20 0 -11 -4 -20 -10 -20 -5 0 -10 -16 -10 -36 0 -27 -7 -43 -30 -64 -16
-15 -30 -31 -30 -34 0 -15 -71 -76 -111 -97 -59 -30 -201 -39 -247 -15 -17 9
-42 16 -57 16 -14 0 -25 6 -25 13 0 18 -82 55 -145 66 -37 7 -56 6 -76 -5 -20
-10 -35 -11 -60 -4 -41 12 -39 12 -39 -1 0 -25 -30 -39 -87 -39 -61 0 -115
-15 -192 -54 -27 -14 -57 -22 -71 -19 -27 5 -70 -24 -70 -46 0 -7 -18 -30 -40
-51 -22 -21 -40 -46 -40 -54 0 -9 -4 -16 -10 -16 -5 0 -10 -9 -10 -20 0 -11
-4 -20 -10 -20 -5 0 -10 -11 -10 -25 0 -14 -4 -25 -10 -25 -5 0 -10 -11 -10
-25 0 -14 -4 -25 -10 -25 -5 0 -10 -11 -10 -25 0 -14 -4 -25 -10 -25 -5 0 -10
-13 -10 -30 0 -16 -4 -30 -10 -30 -5 0 -10 -5 -10 -11 0 -21 -27 -36 -75 -43
-45 -6 -70 -14 -183 -62 -18 -8 -50 -14 -72 -14 -56 0 -110 -28 -110 -57 0
-13 -4 -23 -10 -23 -5 0 -10 -5 -10 -11 0 -10 -24 -39 -33 -39 -3 0 -19 13
-37 30 -18 16 -36 30 -41 30 -5 0 -9 9 -9 20 0 11 -4 20 -10 20 -15 0 -12 30
3 31 6 0 2 5 -10 11 -13 6 -23 17 -23 25 0 7 -4 13 -9 13 -5 0 -16 6 -23 14
-29 28 -93 53 -128 49 -37 -4 -76 14 -52 24 6 2 12 9 12 15 0 14 -37 46 -61
53 -11 4 -19 11 -19 16 0 6 -18 28 -40 49 -27 26 -40 47 -40 65 0 18 -13 39
-41 66 -22 21 -45 39 -50 39 -5 0 -9 17 -9 38 0 26 -6 42 -20 52 -12 8 -20 26
-20 42 0 15 -4 28 -10 28 -5 0 -10 11 -10 25 0 14 -4 25 -10 25 -5 0 -10 11
-10 25 0 14 -4 25 -10 25 -5 0 -10 18 -10 41 0 34 -6 46 -41 80 -22 21 -53 42
-67 46 -27 6 -52 25 -52 39 0 15 -45 45 -84 55 -91 24 -136 42 -136 54 0 8 -9
17 -20 20 -11 3 -20 11 -20 17 0 6 -27 9 -67 8 -89 -3 -93 -2 -93 13 0 22 -45
37 -80 27 -31 -9 -80 4 -80 21 0 4 -8 10 -19 14 -16 5 -31 16 -78 55 -7 5 -29
10 -50 11 -21 0 -32 3 -25 6 15 6 -18 39 -49 48 -11 4 -19 11 -19 16 0 5 -7 9
-15 9 -17 0 -125 104 -125 120 0 6 -14 13 -31 17 -21 4 -26 8 -18 14 10 6 8
12 -9 27 -14 12 -22 31 -22 51 0 17 -4 31 -10 31 -5 0 -10 7 -10 15 0 8 -4 15
-10 15 -5 0 -10 7 -10 15 0 8 -9 15 -20 15 -16 0 -20 7 -20 30 0 17 -4 30 -10
30 -5 0 -10 7 -10 15 0 8 -4 15 -10 15 -5 0 -10 13 -10 28 0 16 -8 34 -20 42
-13 9 -20 26 -20 47 0 23 -5 33 -20 38 -20 6 -28 35 -10 35 6 0 10 5 10 11 0
7 -11 9 -30 6 -18 -4 -30 -2 -30 4 0 38 -106 76 -195 71 -16 -1 -24 1 -17 4
20 9 14 32 -10 39 -53 15 -78 28 -78 43 0 17 -34 49 -61 57 -13 4 -19 16 -19
36 0 16 -4 29 -8 29 -5 0 -19 9 -32 20 -13 11 -35 23 -49 27 -14 3 -36 17 -49
31 -17 16 -32 22 -49 19 -14 -2 -37 -1 -51 4 -99 30 -109 31 -133 19 -13 -7
-30 -19 -37 -27 -7 -7 -20 -13 -28 -13 -17 0 -44 24 -44 39 0 5 -9 13 -20 16
-13 4 -20 15 -20 31 0 13 -4 24 -10 24 -5 0 -10 24 -10 54 l0 54 -37 -5 c-44
-6 -83 21 -83 56 0 11 -4 21 -10 21 -5 0 -10 5 -10 11 0 16 -34 44 -70 59 -17
7 -30 19 -30 26 0 8 -4 14 -10 14 -5 0 -10 9 -10 20 0 40 -67 90 -120 90 -31
0 -60 19 -60 39 0 6 -4 11 -10 11 -5 0 -10 10 -10 23 0 19 -12 29 -60 52 -37
17 -60 35 -60 45 0 10 -35 33 -100 65 -55 27 -100 53 -100 57 0 4 -66 7 -147
5 -137 -2 -150 -4 -170 -24 -13 -12 -23 -26 -23 -32 0 -5 -10 -13 -22 -16 -48
-13 -78 -28 -78 -37 0 -5 -6 -15 -13 -23 -22 -22 -158 -87 -211 -101 -47 -12
-50 -12 -68 9 -12 13 -22 17 -26 11 -15 -22 -55 -24 -73 -3 -12 14 -35 22 -73
26 -38 4 -56 10 -56 19 0 8 -4 14 -10 14 -5 0 -10 7 -10 15 0 8 -4 15 -10 15
-5 0 -10 6 -10 14 0 18 -40 34 -132 50 -42 7 -83 20 -92 29 -9 9 -25 19 -36
22 -11 3 -20 10 -20 15 0 5 -8 11 -19 15 -10 3 -28 13 -39 23 -11 9 -30 24
-41 32 -12 8 -21 22 -21 32 0 10 -4 18 -10 18 -5 0 -10 11 -10 25 0 14 -4 25
-10 25 -5 0 -10 9 -10 20 0 11 -4 20 -10 20 -5 0 -10 5 -10 11 0 17 -40 49
-60 49 -20 0 -60 32 -60 49 0 6 -4 11 -10 11 -5 0 -10 7 -10 15 0 8 -4 15 -10
15 -5 0 -10 7 -10 15 0 8 -4 15 -10 15 -5 0 -10 9 -10 20 0 11 -4 20 -10 20
-5 0 -10 6 -10 13 0 7 -9 19 -20 27 -11 8 -20 20 -20 27 0 7 -4 13 -10 13 -5
0 -10 7 -10 15 0 8 -4 15 -10 15 -5 0 -10 7 -10 15 0 8 -4 15 -10 15 -5 0 -10
7 -10 15 0 8 -4 15 -10 15 -5 0 -10 7 -10 15 0 8 -4 15 -10 15 -5 0 -10 11
-10 25 0 14 -4 25 -10 25 -5 0 -10 7 -10 15 0 8 -4 15 -10 15 -5 0 -10 9 -10
20 0 11 -4 20 -10 20 -5 0 -10 15 -10 33 0 21 -7 38 -20 47 -12 8 -20 26 -20
42 0 18 -6 29 -20 33 -16 5 -20 15 -20 51 0 24 -4 44 -10 44 -5 0 -10 11 -10
25 0 14 -4 25 -10 25 -5 0 -10 7 -10 15 0 8 -4 15 -10 15 -6 0 -10 26 -10 59
0 51 -3 61 -20 66 -11 3 -20 11 -20 16 0 5 -13 9 -30 9 -25 0 -30 4 -30 25 0
14 -4 25 -10 25 -5 0 -10 9 -10 20 0 11 -4 20 -10 20 -5 0 -10 7 -10 15 0 8
-4 15 -10 15 -5 0 -10 6 -10 13 0 7 -9 19 -20 27 -11 8 -20 25 -20 37 0 13 -4
23 -10 23 -5 0 -10 7 -10 15 0 8 -9 15 -20 15 -14 0 -20 7 -20 23 0 12 -9 29
-20 37 -11 8 -20 24 -20 35 0 11 -14 31 -31 45 -17 14 -41 35 -54 47 -14 14
-37 23 -55 23 -20 0 -40 9 -56 25 -14 14 -36 25 -50 25 -14 0 -39 7 -57 16
-49 26 -155 44 -213 38 -33 -4 -57 -2 -66 5 -49 42 -63 51 -80 51 -10 0 -18 4
-18 9 0 5 -10 13 -22 17 -20 6 -21 7 -2 17 50 28 47 37 -11 37 -58 0 -85 14
-85 44 0 9 -4 16 -10 16 -5 0 -10 9 -10 20 0 11 -4 20 -10 20 -5 0 -10 5 -10
11 0 16 -26 39 -44 39 -9 0 -16 7 -16 15 0 8 -4 15 -10 15 -5 0 -10 7 -10 15
0 8 -4 15 -10 15 -5 0 -10 7 -10 15 0 8 -4 15 -10 15 -5 0 -10 13 -10 29 0 30
-18 42 -85 57 -36 8 -88 33 -96 46 -4 6 -37 11 -75 13 -84 3 -144 23 -144 47
0 10 -4 18 -10 18 -5 0 -10 6 -10 13 0 8 -10 19 -23 25 -12 6 -16 11 -9 11 17
1 15 18 -3 25 -23 9 -85 -25 -85 -46 0 -10 -4 -18 -10 -18 -5 0 -10 -13 -10
-30 0 -16 -4 -30 -10 -30 -6 0 -10 -28 -10 -64 l0 -65 -44 -6 c-25 -4 -50 -4
-56 0 -6 4 -51 10 -100 15 -49 5 -95 13 -102 19 -45 39 -62 50 -88 61 -17 7
-30 19 -30 26 0 8 -4 14 -10 14 -5 0 -10 -6 -10 -14 0 -8 -6 -16 -13 -19 -21
-8 -107 15 -107 28 0 7 -13 18 -30 25 -23 10 -36 10 -59 0 -24 -10 -39 -8 -96
11 -44 16 -68 20 -73 13 -26 -40 -181 -50 -248 -16 -51 25 -94 35 -94 22 0 -5
10 -11 23 -11 19 -1 20 -2 2 -5 -11 -3 -37 -10 -57 -16 -30 -9 -39 -8 -52 5
-9 9 -16 20 -16 26 0 6 -4 11 -10 11 -5 0 -10 -3 -10 -8 0 -8 -71 -32 -96 -32
-9 0 -25 -10 -36 -22 -17 -19 -22 -21 -49 -11 -33 13 -59 8 -59 -11 0 -6 -10
-18 -21 -26 -12 -8 -27 -20 -33 -26 -21 -20 -50 -31 -99 -38 -26 -4 -47 -13
-47 -19 0 -7 -9 -19 -21 -27 -11 -8 -30 -23 -41 -32 -12 -10 -37 -18 -59 -18
-21 0 -44 -6 -51 -14 -8 -7 -30 -21 -48 -31 -19 -10 -37 -21 -40 -25 -11 -16
-51 -30 -84 -30 -24 0 -43 -8 -59 -24 -27 -27 -118 -76 -142 -76 -8 0 -15 -4
-15 -10 0 -5 -15 -10 -34 -10 -18 0 -62 -9 -96 -20 -34 -11 -71 -20 -80 -20
-29 0 -50 -11 -50 -26 0 -18 -28 -18 -46 1 -21 21 -34 19 -34 -6 0 -16 -4 -19
-17 -14 -10 4 -47 13 -83 20 -98 18 -120 31 -120 72 l0 33 -57 -6 c-32 -4 -70
-13 -85 -20 -36 -18 -58 -18 -58 2 0 20 -19 39 -48 47 -32 8 -52 -1 -52 -23 0
-10 -13 -23 -30 -30 -16 -7 -30 -20 -30 -29 0 -9 -9 -23 -20 -31 -11 -8 -20
-20 -20 -27 0 -7 -9 -13 -20 -13 -11 0 -20 7 -20 15 0 8 -4 15 -10 15 -5 0
-10 -5 -10 -11 0 -10 -24 -39 -33 -39 -10 0 -47 38 -47 49 0 6 -4 11 -10 11
-5 0 -10 7 -10 15 0 19 -4 19 -43 -2 -28 -14 -40 -14 -91 -4 -32 7 -65 19 -73
27 -8 8 -34 14 -58 14 -59 0 -75 8 -75 36 0 21 -4 23 -42 22 -60 -1 -166 11
-209 24 -30 8 -42 7 -77 -11 -23 -12 -56 -21 -75 -21 -19 0 -44 -8 -57 -20
-12 -11 -31 -22 -41 -25 -11 -4 -19 -10 -19 -14 0 -5 -15 -14 -32 -21 -79 -29
-108 -44 -108 -54 0 -6 -27 -20 -60 -29 -33 -10 -60 -23 -60 -28 0 -26 -73
-68 -171 -99 -32 -11 -65 -24 -71 -30 -7 -5 -28 -23 -46 -39 -18 -17 -42 -33
-53 -36 -10 -4 -19 -11 -19 -16 0 -5 -9 -9 -19 -9 -10 0 -33 -12 -49 -27 -51
-47 -75 -63 -93 -63 -17 0 -59 -32 -59 -45 0 -9 -40 -45 -51 -45 -4 0 -25 -17
-47 -37 -22 -21 -50 -45 -62 -53 -12 -8 -31 -23 -42 -32 -12 -10 -25 -18 -30
-18 -4 0 -8 -5 -8 -10 0 -18 -66 -77 -111 -100 -23 -12 -48 -27 -55 -34 -6 -6
-22 -18 -34 -26 -20 -14 -47 -35 -76 -59 -33 -27 -158 -81 -188 -81 -27 0 -44
-8 -69 -34 -19 -19 -50 -42 -68 -51 -18 -10 -39 -24 -47 -32 -10 -10 -31 -13
-70 -10 -31 2 -69 1 -85 -4 -32 -9 -77 7 -77 28 0 7 -4 13 -10 13 -5 0 -10 9
-10 20 0 11 -4 20 -10 20 -5 0 -10 14 -10 30 0 17 -2 30 -5 30 -15 0 -55 -25
-55 -34 0 -7 -10 -18 -21 -26 -12 -8 -27 -20 -33 -26 -7 -7 -37 -24 -67 -39
-30 -15 -56 -31 -59 -35 -12 -17 -63 -20 -106 -5 -24 8 -71 15 -104 15 -66 0
-90 7 -90 25 0 9 -19 12 -63 12 -74 0 -152 14 -187 33 -13 7 -47 15 -75 17
-27 2 -51 8 -53 14 -2 5 -10 9 -18 9 -8 0 -31 8 -52 19 -52 26 -112 34 -112
15 0 -8 -4 -14 -10 -14 -5 0 -10 -7 -10 -16 0 -11 -5 -14 -17 -10 -9 4 -36 10
-60 13 -38 5 -43 3 -43 -13 0 -15 -14 -23 -62 -37 -35 -10 -73 -22 -86 -27
-13 -6 -32 -10 -43 -10 -11 0 -34 -7 -51 -16 -18 -9 -33 -12 -37 -6 -3 5 -27
11 -52 14 -38 4 -49 2 -60 -13 -17 -23 -42 -24 -64 -2 -10 10 -34 16 -61 17
-26 1 -44 6 -44 12 0 11 -22 24 -41 24 -5 0 -9 -979 -9 -2475 l0 -2475 1685 0
c1491 0 1685 2 1685 15 0 8 5 15 10 15 6 0 10 7 10 15 0 17 53 74 86 93 18 11
18 11 -3 12 -17 0 -23 6 -23 24 0 13 7 27 16 30 22 9 24 8 24 -9 0 -8 5 -15
10 -15 6 0 10 7 10 15 0 8 5 15 10 15 6 0 10 6 10 13 0 7 9 19 20 27 11 8 20
19 20 25 0 6 9 17 20 25 11 8 20 20 20 27 0 6 9 15 20 18 11 3 20 13 20 21 0
8 5 14 10 14 6 0 10 6 10 14 0 16 27 29 41 20 5 -3 16 2 25 10 8 9 11 16 5 16
-6 0 -11 14 -11 30 0 17 5 30 10 30 6 0 10 9 10 20 0 11 5 20 10 20 6 0 10 9
10 20 0 11 5 20 10 20 6 0 10 9 10 20 0 11 5 20 10 20 6 0 10 5 10 11 0 39
124 73 155 43 24 -25 80 -17 115 16 18 17 41 30 51 30 13 0 19 7 19 23 0 16 9
28 25 35 34 16 35 15 35 -8 0 -13 7 -20 20 -20 11 0 20 -5 20 -11 0 -11 24
-39 34 -39 3 0 6 7 6 16 0 11 5 14 16 10 9 -3 18 -6 20 -6 2 0 4 -16 4 -35 0
-19 5 -35 10 -35 6 0 10 -16 10 -35 0 -19 4 -35 8 -35 13 0 52 -36 52 -47 0
-6 14 -16 30 -22 16 -6 43 -16 60 -22 17 -6 30 -15 30 -19 0 -4 14 -10 30 -13
21 -5 30 -12 30 -27 0 -11 6 -20 13 -20 8 0 7 -3 -2 -9 -12 -8 -8 -11 14 -17
17 -4 36 -13 43 -20 12 -13 74 -34 100 -34 6 0 12 -5 12 -10 0 -7 32 -9 90 -6
65 3 94 0 103 -9 30 -29 77 -43 177 -49 57 -3 107 -10 110 -15 8 -13 127 -71
145 -71 8 0 15 -4 15 -10 0 -5 16 -10 35 -10 73 0 145 -57 145 -115 l0 -35
14198 0 c13848 0 14199 0 14220 19 12 10 22 23 22 30 0 6 5 11 10 11 6 0 10 9
10 19 0 11 9 23 20 26 11 3 20 10 20 14 0 5 15 14 33 21 79 29 147 65 147 77
0 7 5 13 10 13 6 0 10 6 10 13 0 7 10 19 21 27 12 8 28 21 36 29 24 23 89 6
129 -34 19 -19 39 -35 44 -35 6 0 10 -9 10 -20 0 -11 5 -20 10 -20 6 0 10 -6
10 -14 0 -24 31 -28 50 -7 14 18 22 19 56 10 71 -18 114 -41 114 -61 0 -10 5
-18 10 -18 6 0 10 -14 10 -31 0 -20 8 -39 22 -50 20 -18 60 -19 1080 -19 1051
0 1058 0 1058 20 0 11 5 20 10 20 6 0 10 6 10 14 0 8 17 16 46 20 42 5 74 24
74 43 0 5 9 15 20 23 11 8 20 20 20 27 0 7 5 13 10 13 6 0 10 7 10 15 0 8 5
15 10 15 6 0 10 8 10 18 0 9 14 28 31 42 68 57 89 79 89 94 0 9 5 16 10 16 6
0 10 7 10 16 0 27 76 91 117 99 20 4 50 13 65 21 14 8 33 11 41 8 17 -6 56 4
137 36 30 12 75 27 100 34 65 18 88 33 140 86 25 26 59 50 75 54 46 10 85 27
85 37 0 4 9 11 20 14 11 3 20 12 20 18 0 7 9 19 20 27 13 9 20 26 20 47 0 18
5 33 10 33 6 0 10 7 10 16 0 20 17 37 60 59 43 22 60 39 60 59 0 9 5 16 10 16
6 0 10 7 10 15 0 8 5 15 10 15 6 0 10 7 10 15 0 8 5 15 10 15 6 0 10 7 10 15
0 8 5 15 10 15 6 0 10 9 10 20 0 11 5 20 10 20 6 0 10 7 10 15 0 22 101 120
151 145 43 23 54 30 93 66 52 49 132 69 260 67 70 -2 96 9 96 40 0 22 19 26
85 16 153 -24 195 -38 195 -68 0 -14 20 -14 90 1 41 8 68 8 98 1 l42 -11 0
2429 c0 1675 -3 2429 -10 2429 -6 0 -27 -8 -48 -19 -20 -10 -49 -21 -64 -25
-16 -3 -28 -11 -28 -16 0 -6 -7 -10 -15 -10 -9 0 -33 -9 -55 -20 -22 -11 -49
-20 -60 -20 -12 0 -34 -7 -50 -15 -26 -13 -34 -13 -91 5 -35 11 -66 24 -69 29
-3 5 -25 18 -49 31 -25 12 -61 39 -81 60 -20 21 -65 52 -99 70 -68 34 -71 36
-132 92 -47 43 -87 58 -184 64 -91 7 -110 11 -128 29 -8 8 -33 21 -56 30 -23
8 -59 22 -82 30 -22 8 -66 29 -98 45 -51 25 -63 28 -88 18 -32 -12 -74 -5 -95
15 -28 28 -59 37 -132 37 -43 0 -76 4 -78 11 -4 12 -131 56 -190 65 -24 4 -55
13 -70 20 -15 8 -54 14 -88 14 -47 0 -73 7 -118 29 -38 19 -86 32 -145 40 -76
10 -93 10 -135 -6 -35 -12 -73 -16 -151 -15 -128 3 -141 -1 -141 -39 0 -16 5
-29 10 -29 15 0 12 -79 -3 -94 -7 -8 -50 -21 -96 -30 -46 -9 -88 -21 -94 -27
-47 -39 -61 -49 -69 -49 -4 0 -8 -7 -8 -16 0 -20 -30 -47 -70 -64 -17 -7 -30
-19 -30 -26 0 -8 -4 -14 -10 -14 -5 0 -10 -7 -10 -15 0 -8 -4 -15 -10 -15 -5
0 -10 -13 -10 -30 0 -16 -4 -30 -10 -30 -5 0 -10 -9 -10 -20 0 -11 -4 -20 -10
-20 -5 0 -10 -9 -10 -20 0 -11 -4 -20 -10 -20 -5 0 -10 -9 -10 -20 0 -11 -4
-20 -10 -20 -5 0 -10 -6 -10 -12 0 -7 -14 -24 -31 -37 -66 -53 -89 -79 -89
-105 0 -14 -4 -26 -10 -26 -5 0 -10 -11 -10 -25 0 -14 -6 -43 -12 -65 -11 -34
-17 -40 -50 -45 -23 -4 -38 -12 -38 -21 0 -8 -4 -14 -10 -14 -5 0 -10 -6 -10
-14 0 -8 -9 -17 -19 -21 -11 -3 -22 -12 -25 -20 -3 -8 -19 -21 -37 -30 -17 -9
-50 -35 -74 -58 -42 -41 -61 -57 -106 -87 -12 -8 -53 -45 -91 -82 -64 -64 -72
-68 -114 -68 -28 0 -63 -9 -94 -25 -31 -16 -66 -25 -95 -25 -33 0 -45 -4 -45
-15 0 -8 -4 -15 -10 -15 -5 0 -10 -9 -10 -20 0 -11 5 -20 10 -20 6 0 10 -6 10
-14 0 -9 -22 -18 -66 -25 -62 -11 -94 -28 -94 -49 0 -9 -54 -35 -97 -47 -14
-4 -23 -14 -23 -26 0 -10 -4 -19 -10 -19 -5 0 -10 -7 -10 -16 0 -9 -13 -29
-30 -44 -17 -15 -30 -35 -30 -42 0 -10 -20 -19 -57 -27 -53 -13 -103 -46 -103
-71 0 -20 -45 -55 -90 -70 -25 -8 -51 -20 -58 -27 -16 -16 -96 -17 -123 -3
-14 8 -23 7 -33 -2 -7 -7 -23 -20 -35 -28 -13 -9 -21 -25 -21 -42 0 -15 -4
-28 -10 -28 -5 0 -10 -7 -10 -15 0 -10 -10 -15 -29 -15 -16 0 -43 -3 -60 -6
-28 -6 -31 -10 -31 -45 0 -22 -4 -39 -10 -39 -5 0 -10 -11 -10 -25 0 -14 -4
-25 -10 -25 -5 0 -10 -7 -10 -15 0 -27 -45 -28 -98 -1 -28 14 -53 26 -56 26
-3 0 -27 -21 -54 -47 -82 -79 -91 -83 -153 -83 -52 0 -61 -3 -98 -37 -79 -74
-79 -74 -201 -103 -92 -22 -141 -41 -167 -64 -6 -6 -26 -22 -43 -36 -17 -14
-42 -35 -54 -47 -33 -30 -102 -64 -134 -65 -15 0 -52 6 -82 14 -189 51 -365
74 -388 51 -16 -15 -27 -16 -69 -4 -39 11 -90 -1 -122 -28 -12 -11 -46 -22
-79 -26 -31 -4 -75 -13 -97 -21 -51 -18 -65 -17 -65 1 0 8 -4 15 -10 15 -5 0
-10 6 -10 14 0 9 -18 16 -57 21 -31 4 -62 9 -70 12 -8 3 -13 -2 -13 -12 0 -14
-6 -16 -40 -10 -22 4 -40 3 -40 -2 0 -9 -56 -37 -127 -63 -18 -7 -33 -15 -33
-19 0 -4 -40 -26 -89 -50 l-89 -44 -50 16 c-76 25 -77 25 -137 -30 -13 -13
-34 -23 -45 -23 -38 0 -110 45 -110 69 0 5 -9 13 -20 16 -11 3 -20 11 -20 17
0 16 -41 48 -61 48 -10 0 -30 12 -44 26 -14 14 -43 30 -63 35 -68 18 -92 31
-92 50 0 11 -1 19 -3 19 -1 0 -27 9 -57 20 -30 11 -64 20 -76 20 -11 0 -31 8
-42 18 -40 35 -282 20 -326 -20 -33 -29 -46 -38 -54 -38 -40 0 -220 -76 -249
-106 -20 -20 -90 -36 -153 -36 -31 0 -67 -6 -85 -15 -20 -11 -52 -16 -97 -15
-38 1 -86 -4 -111 -13 -24 -8 -106 -19 -182 -25 -76 -5 -141 -14 -144 -18 -11
-16 -68 -41 -111 -48 -31 -5 -60 -1 -111 16 -78 26 -101 23 -214 -34 -53 -26
-73 -30 -165 -34 -120 -4 -205 -27 -246 -66 -6 -6 -22 -18 -34 -26 -12 -8 -31
-23 -42 -33 -12 -9 -24 -17 -28 -17 -6 0 -22 -12 -67 -50 -7 -5 -23 -14 -35
-19 -74 -29 -108 -45 -108 -52 0 -4 -9 -11 -20 -14 -11 -3 -20 -11 -20 -17 0
-11 -38 -48 -50 -48 -10 0 -50 -36 -50 -44 0 -16 -80 -84 -112 -95 -18 -7 -53
-21 -78 -32 -25 -10 -74 -26 -110 -34 -75 -18 -140 -44 -140 -57 0 -4 -7 -8
-15 -8 -25 0 -85 -33 -85 -48 0 -28 -28 -42 -84 -42 -50 0 -59 4 -89 34 -44
44 -69 56 -96 49 -12 -3 -40 0 -61 7 -43 14 -90 7 -90 -14 0 -8 -7 -17 -16
-20 -21 -8 -18 -9 -44 14 -17 15 -37 20 -77 20 -34 0 -68 7 -94 20 l-39 21
-25 -25 c-23 -23 -25 -32 -25 -119 l0 -95 -30 -12 c-29 -12 -30 -15 -30 -71 0
-33 -4 -59 -10 -59 -5 0 -10 -5 -10 -11 0 -21 -30 -41 -54 -35 -15 4 -31 -1
-44 -12 -51 -42 -67 -52 -83 -52 -18 0 -119 -91 -119 -107 0 -5 -9 -15 -20
-23 -11 -8 -20 -22 -20 -32 0 -10 -4 -18 -10 -18 -5 0 -10 -7 -10 -15 0 -8 -4
-15 -8 -15 -16 0 -52 -37 -52 -54 0 -9 -4 -16 -10 -16 -5 0 -10 -7 -10 -16 0
-19 -76 -94 -96 -94 -8 0 -28 -7 -44 -15 -28 -14 -33 -14 -70 5 -68 35 -130
21 -130 -28 0 -36 -63 -44 -98 -13 -13 10 -22 30 -22 46 0 25 -3 27 -27 21
-16 -4 -41 -8 -58 -10 -16 -2 -31 -8 -33 -15 -2 -6 -12 -11 -23 -11 -14 0 -19
7 -19 30 0 17 -4 30 -10 30 -5 0 -10 7 -10 15 0 8 -4 15 -8 15 -5 0 -19 9 -32
20 -13 11 -18 20 -12 20 19 0 14 24 -8 40 -11 8 -20 18 -20 23 0 22 -53 58
-95 64 l-45 6 0 63 c0 36 -4 64 -10 64 -5 0 -10 7 -10 15 0 20 -44 65 -63 65
-24 0 -57 36 -57 64 0 14 -4 26 -10 26 -5 0 -10 6 -10 14 0 8 -9 18 -20 21
-18 6 -20 15 -20 86 0 46 -4 79 -10 79 -5 0 -10 7 -10 15 0 8 -4 15 -10 15 -5
0 -10 7 -10 15 0 8 -4 15 -10 15 -5 0 -10 9 -10 20 0 11 -4 20 -10 20 -5 0
-10 6 -10 14 0 8 -9 18 -20 21 -12 4 -20 15 -20 28 0 13 -9 29 -21 37 -38 26
-79 68 -79 79 0 6 -4 11 -10 11 -5 0 -10 7 -10 16 0 16 -75 94 -91 94 -5 0 -9
7 -9 15 0 8 -4 15 -10 15 -5 0 -10 7 -10 15 0 8 -4 15 -10 15 -5 0 -10 14 -10
30 0 17 -4 30 -10 30 -5 0 -10 11 -10 25 0 14 -4 25 -10 25 -5 0 -10 7 -10 15
0 8 -4 15 -10 15 -5 0 -10 6 -10 14 0 7 -13 19 -30 26 -16 7 -30 17 -30 22 0
15 -27 38 -44 38 -9 0 -16 7 -16 15 0 8 -4 15 -10 15 -5 0 -10 9 -10 20 0 11
-4 20 -10 20 -5 0 -10 7 -10 16 0 16 -55 74 -71 74 -5 0 -9 12 -9 26 0 30 -71
104 -99 104 -16 0 -27 7 -77 49 -23 19 -91 50 -127 56 -20 4 -37 11 -37 15 0
4 -13 10 -29 13 -17 4 -50 26 -74 51 -53 52 -133 96 -177 96 -27 0 -208 82
-220 100 -3 4 -25 18 -50 30 -25 12 -47 26 -50 30 -3 4 -21 15 -40 25 -19 10
-37 21 -40 25 -3 4 -34 22 -69 40 -79 39 -100 58 -80 70 11 7 8 13 -11 29 -14
11 -30 25 -36 30 -20 16 -73 41 -89 41 -8 0 -15 5 -15 10 0 6 -13 10 -30 10
-16 0 -30 5 -30 10 0 14 -37 13 -42 -2 -5 -15 -48 -4 -75 20 -12 10 -44 28
-72 42 -41 19 -51 28 -51 48 0 18 -4 23 -16 18 -15 -6 -48 7 -70 28 -6 6 -21
18 -33 26 -11 8 -21 20 -21 27 0 7 -4 13 -10 13 -5 0 -10 11 -10 24 0 16 -7
27 -20 31 -27 9 -27 56 1 75 35 25 59 47 59 55 0 4 14 20 30 35 17 15 30 34
30 42 0 7 9 20 20 28 11 8 20 22 20 32 0 10 4 18 8 18 5 0 20 9 33 20 13 11
36 30 51 42 15 13 28 29 28 36 0 6 5 12 10 12 6 0 10 12 10 26 0 16 12 37 30
54 17 15 30 32 30 37 0 16 52 35 115 41 33 3 66 11 73 19 7 7 23 13 35 14 12
0 16 3 9 6 -19 8 24 41 69 53 21 6 45 18 54 26 12 12 26 15 60 9 37 -5 45 -3
45 9 0 9 8 16 19 16 11 0 26 6 34 14 42 43 190 98 379 141 39 9 67 23 92 46
19 19 48 45 65 59 17 14 31 29 31 33 0 5 14 22 30 37 17 15 30 35 30 44 0 9 5
16 10 16 6 0 10 7 10 16 0 22 36 52 76 63 19 5 41 16 50 25 8 9 23 16 33 16 9
0 23 9 31 20 8 11 22 20 31 20 9 0 26 9 39 20 13 11 31 20 42 20 10 0 18 4 18
8 0 5 23 19 50 32 28 13 50 28 50 33 0 5 10 19 23 30 15 13 18 21 10 24 -15 5
-18 53 -3 53 6 0 10 7 10 15 0 8 -4 15 -10 15 -5 0 -10 23 -10 50 0 28 -4 50
-10 50 -5 0 -10 6 -10 13 0 7 -9 19 -20 27 -11 8 -20 22 -20 32 0 10 -4 18
-10 18 -5 0 -10 7 -10 15 0 8 -4 15 -10 15 -5 0 -10 7 -10 15 0 8 -4 15 -10
15 -5 0 -10 9 -10 20 0 11 -4 20 -10 20 -5 0 -10 11 -10 25 0 14 -4 25 -10 25
-5 0 -10 6 -10 13 0 7 -9 19 -20 27 -11 8 -20 22 -20 32 0 10 -4 18 -10 18 -5
0 -10 15 -10 33 0 21 -7 38 -20 47 -12 8 -20 26 -20 42 0 15 -4 28 -10 28 -5
0 -10 9 -10 20 0 11 -4 20 -10 20 -5 0 -10 14 -10 30 0 17 -4 30 -10 30 -5 0
-10 9 -10 20 0 11 -4 20 -10 20 -5 0 -10 9 -10 20 0 11 -4 20 -10 20 -5 0 -10
16 -10 35 0 19 -4 35 -10 35 -5 0 -10 14 -10 30 0 17 -4 30 -10 30 -5 0 -10
14 -10 30 0 17 -4 30 -10 30 -5 0 -10 11 -10 25 0 14 -4 25 -10 25 -5 0 -10 7
-10 16 0 13 -7 15 -30 11 -17 -4 -30 -2 -30 3 0 6 5 10 10 10 6 0 10 15 10 33
0 25 -6 37 -22 45 -13 6 -17 11 -10 11 14 1 17 31 2 31 -5 0 -10 14 -10 30 0
17 -4 30 -10 30 -5 0 -10 8 -10 18 0 10 -9 24 -20 32 -18 13 -20 26 -20 137 0
92 3 123 13 123 9 0 9 2 -1 9 -10 6 -4 10 20 15 26 5 30 9 18 16 -10 6 -11 10
-2 10 7 0 12 13 12 30 0 17 5 30 10 30 17 0 11 25 -10 40 -11 8 -20 19 -20 25
0 6 -9 17 -20 25 -11 8 -20 20 -20 27 0 7 -6 13 -12 13 -9 0 -8 4 2 10 10 6
11 10 3 10 -8 0 -13 14 -13 35 0 19 -4 35 -10 35 -5 0 -10 7 -10 15 0 8 -4 15
-10 15 -5 0 -10 11 -10 24 0 16 -7 27 -20 31 -11 3 -20 13 -20 21 0 8 -4 14
-10 14 -5 0 -10 8 -10 18 0 10 -10 24 -21 32 -12 8 -28 21 -35 28 -8 8 -30 18
-49 23 -20 6 -35 16 -35 24 0 8 -4 15 -10 15 -5 0 -10 18 -10 40 0 22 -4 40
-10 40 -5 0 -10 7 -10 15 0 8 -4 15 -10 15 -5 0 -10 9 -10 20 0 11 -4 20 -10
20 -5 0 -10 6 -10 13 0 7 -9 19 -20 27 -11 8 -20 24 -20 36 0 16 -8 23 -30 28
-29 5 -42 26 -17 26 25 1 -60 39 -103 46 -41 7 -56 9 -115 13 -14 1 -16 4 -7
9 7 5 -16 15 -63 26 -41 10 -79 15 -84 12 -11 -7 -61 14 -61 26 0 13 -17 9
-34 -7z"/>
</g>
</svg>
