<?xml version="1.0" standalone="no"?>
<!DOCTYPE svg PUBLIC "-//W3C//DTD SVG 20010904//EN"
 "http://www.w3.org/TR/2001/REC-SVG-20010904/DTD/svg10.dtd">
<svg version="1.0" xmlns="http://www.w3.org/2000/svg"
 width="3950.000000pt" height="3506.000000pt" viewBox="0 0 3950.000000 3506.000000"
 preserveAspectRatio="xMidYMid meet">
<metadata>
Created by potrace 1.16, written by Peter Selinger 2001-2019
</metadata>
<g transform="translate(0.000000,3506.000000) scale(0.100000,-0.100000)"
fill="#ffffff" stroke="#000000" stroke-width="5.00">
<path d="M28621 21031 c-17 -16 -31 -34 -31 -40 0 -6 -4 -11 -10 -11 -5 0 -10
-11 -10 -25 0 -14 5 -25 10 -25 6 0 10 -15 10 -33 0 -22 7 -37 21 -47 35 -25
59 -47 59 -54 0 -22 75 -64 150 -85 25 -7 59 -17 75 -23 39 -14 119 -22 150
-14 23 6 25 11 25 66 0 33 -4 60 -10 60 -5 0 -10 21 -10 46 0 64 -19 78 -127
93 -48 7 -97 14 -109 16 -29 6 -64 39 -64 61 0 14 -12 23 -40 32 -53 16 -53
16 -89 -17z"/>
<path d="M29620 20909 c-30 -5 -79 -6 -107 -3 -29 3 -78 2 -108 -1 l-55 -7 0
-102 0 -102 108 -14 c59 -7 119 -17 135 -21 30 -8 57 -31 57 -48 0 -6 5 -11
10 -11 6 0 10 -9 10 -20 0 -11 5 -20 10 -20 6 0 10 -7 10 -15 0 -8 5 -15 10
-15 6 0 10 -9 10 -20 0 -11 -4 -20 -10 -20 -5 0 -10 -22 -10 -50 0 -27 5 -50
10 -50 6 0 10 -7 10 -15 0 -8 5 -15 10 -15 6 0 10 -6 10 -14 0 -20 24 -26 62
-15 18 5 51 9 74 9 40 0 84 25 84 48 0 14 63 24 108 16 88 -15 244 -85 289
-130 13 -13 28 -24 33 -24 6 0 10 -6 10 -13 0 -7 32 -28 70 -47 39 -19 70 -37
70 -40 0 -14 47 -27 83 -22 41 5 117 -22 117 -42 0 -7 9 -18 21 -26 11 -8 29
-22 39 -30 16 -14 105 -57 318 -156 55 -26 77 -32 91 -24 25 13 74 -3 106 -34
34 -34 105 -38 105 -6 0 11 -4 20 -8 20 -5 0 -18 8 -30 18 -11 9 -30 24 -41
32 -12 8 -21 18 -21 23 0 33 -117 101 -164 94 -35 -5 -96 20 -96 40 0 7 -4 13
-10 13 -5 0 -10 6 -10 13 0 7 -9 19 -20 27 -11 8 -20 18 -20 23 0 12 -47 57
-60 57 -6 0 -17 6 -24 13 -8 6 -23 19 -35 27 -16 11 -21 25 -21 57 0 24 -4 43
-10 43 -5 0 -10 11 -10 25 0 14 -4 25 -10 25 -5 0 -10 7 -10 15 0 8 -4 15 -10
15 -5 0 -10 7 -10 15 0 8 -4 15 -10 15 -5 0 -10 6 -10 13 0 7 -9 19 -21 27
-61 43 -79 68 -79 109 0 23 -4 41 -10 41 -5 0 -10 9 -10 20 0 11 -4 20 -10 20
-5 0 -10 7 -10 15 0 8 -4 15 -10 15 -5 0 -10 9 -10 21 0 26 -15 41 -70 69 -24
12 -50 29 -58 37 -11 11 -41 14 -131 12 -65 -1 -133 3 -154 10 -20 6 -53 16
-73 22 -25 8 -43 8 -62 0 -30 -12 -144 -41 -160 -41 -6 0 -29 18 -52 40 -23
22 -48 40 -57 40 -8 0 -21 7 -29 15 -17 16 -58 17 -144 4z"/>
<path d="M25188 20340 c-15 -4 -39 -20 -53 -34 -14 -14 -30 -26 -34 -26 -4 0
-18 -9 -31 -20 -26 -22 -48 -25 -102 -10 -29 8 -52 7 -100 -6 -47 -12 -84 -14
-144 -10 -63 5 -91 3 -125 -9 -24 -9 -66 -20 -94 -25 -67 -11 -146 -31 -169
-43 -10 -5 -34 -25 -53 -43 -18 -19 -38 -34 -43 -34 -5 0 -15 -6 -22 -14 -8
-7 -30 -21 -48 -31 -19 -10 -38 -22 -41 -27 -9 -14 -136 -38 -167 -32 -15 3
-58 -2 -97 -11 -73 -17 -319 -29 -392 -19 -28 3 -43 10 -43 20 0 9 -11 14 -30
14 -16 0 -30 -4 -30 -9 0 -4 -20 -11 -45 -14 -37 -5 -55 -16 -100 -59 -81 -78
-99 -94 -125 -108 -26 -14 -39 -24 -76 -58 -14 -13 -41 -28 -59 -33 -19 -6
-35 -14 -35 -19 0 -6 -8 -10 -18 -10 -17 0 -30 -8 -79 -50 -21 -17 -54 -29
-163 -56 -114 -28 -119 -28 -365 2 -71 8 -148 20 -170 27 -72 19 -125 52 -125
76 0 6 -4 11 -10 11 -5 0 -10 14 -10 30 0 17 -4 30 -10 30 -5 0 -10 6 -10 14
0 15 -21 26 -52 26 -10 0 -26 7 -34 15 -9 8 -23 15 -33 15 -21 0 -61 -32 -61
-49 0 -6 -4 -11 -10 -11 -5 0 -10 -7 -10 -15 0 -8 -4 -15 -10 -15 -5 0 -10 -7
-10 -15 0 -8 -4 -15 -10 -15 -5 0 -10 -9 -10 -20 0 -11 -4 -20 -10 -20 -5 0
-10 -20 -10 -45 0 -25 -4 -45 -10 -45 -5 0 -10 -5 -10 -11 0 -12 -43 -54 -80
-79 -63 -42 -80 -67 -80 -114 0 -25 5 -46 10 -46 6 0 10 -7 10 -16 0 -9 9 -25
21 -35 21 -18 47 -23 174 -34 39 -4 95 -12 125 -19 248 -58 258 -60 307 -47
27 7 58 15 70 18 13 3 47 -2 75 -11 102 -32 108 -36 108 -67 0 -16 -4 -29 -10
-29 -5 0 -10 -7 -10 -15 0 -8 -4 -15 -10 -15 -5 0 -10 -11 -10 -25 0 -14 -4
-25 -10 -25 -5 0 -10 -9 -10 -20 0 -11 -4 -20 -10 -20 -5 0 -10 -6 -10 -14 0
-8 -9 -18 -20 -21 -11 -3 -20 -13 -20 -21 0 -8 -4 -14 -10 -14 -5 0 -10 -5
-10 -11 0 -6 -18 -28 -40 -49 -22 -21 -40 -41 -40 -45 0 -6 -39 -43 -76 -74
-6 -5 -39 -24 -74 -41 -34 -17 -77 -47 -96 -66 -19 -19 -39 -34 -44 -34 -6 0
-10 -6 -10 -13 0 -7 -9 -19 -20 -27 -11 -8 -20 -22 -20 -32 0 -10 -4 -18 -10
-18 -5 0 -10 -11 -10 -24 0 -13 -6 -27 -12 -30 -10 -5 -10 -7 0 -12 14 -7 16
-54 2 -54 -6 0 -10 -33 -10 -80 0 -47 4 -80 10 -80 6 0 10 -26 10 -58 0 -46
-4 -60 -20 -72 -11 -8 -20 -19 -20 -25 0 -6 -9 -17 -20 -25 -11 -8 -20 -20
-20 -27 0 -7 -4 -13 -10 -13 -5 0 -10 -9 -10 -20 0 -11 -4 -20 -10 -20 -5 0
-10 -11 -10 -25 0 -14 -4 -25 -10 -25 -5 0 -10 -11 -10 -25 0 -14 -4 -25 -10
-25 -5 0 -10 -7 -10 -15 0 -8 5 -15 10 -15 6 0 10 -16 10 -35 0 -19 -4 -35 -9
-35 -5 0 -16 -6 -23 -14 -19 -18 -93 -56 -111 -56 -8 0 -24 -9 -37 -20 -13
-11 -29 -20 -37 -20 -7 0 -39 -13 -71 -29 -31 -16 -73 -32 -92 -36 -19 -4 -53
-13 -75 -20 -223 -71 -463 -107 -855 -126 -299 -15 -460 -17 -495 -7 -32 10
-112 30 -185 47 -81 18 -292 41 -435 47 -117 5 -147 4 -185 -11 -25 -9 -88
-23 -140 -31 -52 -8 -111 -20 -130 -25 -55 -16 -449 -23 -559 -10 -135 16
-259 44 -401 91 -61 20 -169 40 -219 40 -31 0 -83 21 -107 44 -6 6 -21 18 -33
26 -11 8 -21 20 -21 27 0 7 -4 13 -10 13 -5 0 -10 20 -10 45 0 25 -4 45 -10
45 -5 0 -10 16 -10 35 0 19 -4 35 -10 35 -5 0 -10 5 -10 11 0 15 -34 44 -69
59 -24 10 -40 7 -105 -14 -86 -29 -144 -32 -231 -11 -290 68 -348 87 -382 121
-15 15 -17 44 -3 44 6 0 10 23 10 50 0 28 5 50 10 50 6 0 10 5 10 11 0 6 14
24 30 39 21 19 30 37 30 59 0 17 -4 31 -10 31 -5 0 -10 9 -10 20 0 11 -4 20
-10 20 -5 0 -10 7 -10 15 0 8 -4 15 -10 15 -5 0 -10 14 -10 30 0 17 -4 30 -10
30 -5 0 -10 14 -10 30 0 17 -4 30 -10 30 -5 0 -10 7 -10 15 0 8 -4 15 -10 15
-5 0 -10 7 -10 15 0 8 -4 15 -10 15 -5 0 -10 11 -10 25 0 14 -4 25 -10 25 -6
0 -10 28 -10 65 0 37 4 65 10 65 6 0 10 6 10 14 0 8 9 18 20 21 11 3 20 13 20
21 0 8 5 14 10 14 6 0 10 9 10 20 0 11 5 20 10 20 6 0 10 5 10 11 0 15 21 34
60 54 19 10 40 23 47 31 15 15 17 54 3 54 -5 0 -10 16 -10 35 0 19 -4 35 -10
35 -5 0 -10 6 -10 13 0 7 -9 19 -20 27 -11 8 -20 20 -20 27 0 7 -4 13 -10 13
-5 0 -10 7 -10 15 0 8 -4 15 -10 15 -6 0 -10 30 -10 70 0 40 4 70 10 70 6 0
10 30 10 70 0 40 -4 70 -10 70 -5 0 -10 6 -10 13 0 20 -44 37 -94 37 -35 0
-51 6 -76 30 -17 16 -51 35 -73 40 -71 19 -77 21 -77 31 0 6 -11 21 -24 34
-18 18 -46 28 -113 39 -48 9 -91 16 -94 16 -11 0 -49 37 -49 49 0 6 -4 11 -10
11 -5 0 -10 11 -10 25 0 14 -4 25 -10 25 -5 0 -10 18 -10 40 0 22 -4 40 -10
40 -5 0 -10 11 -10 25 0 14 -4 25 -10 25 -5 0 -10 16 -10 35 0 42 -25 72 -91
107 l-44 23 -592 2 c-495 1 -598 4 -635 17 -66 22 -214 36 -273 25 -57 -10
-105 -28 -105 -39 0 -11 -69 -39 -120 -49 -119 -25 -237 -74 -272 -113 -9 -11
-38 -25 -65 -32 -26 -8 -64 -20 -83 -29 -39 -17 -115 -47 -175 -70 -22 -9 -67
-23 -100 -33 -33 -10 -80 -27 -105 -40 -25 -12 -92 -32 -149 -44 -57 -12 -113
-25 -125 -30 -96 -39 -306 -74 -516 -85 -102 -6 -269 -25 -399 -46 -72 -11
-187 -65 -234 -110 -96 -89 -120 -109 -133 -109 -33 0 -104 -47 -104 -69 0 -6
-4 -11 -10 -11 -5 0 -10 -9 -10 -20 0 -11 -4 -20 -10 -20 -5 0 -10 -8 -10 -18
0 -10 -9 -24 -20 -32 -11 -8 -20 -22 -20 -32 0 -10 -4 -18 -10 -18 -5 0 -10
-16 -10 -35 0 -19 -4 -35 -10 -35 -5 0 -10 -22 -10 -50 0 -27 5 -50 10 -50 6
0 10 -6 10 -14 0 -8 9 -18 20 -21 11 -3 20 -10 20 -15 0 -5 9 -11 19 -15 42
-13 102 -85 71 -85 -5 0 -10 -9 -10 -20 0 -11 5 -20 10 -20 6 0 10 -18 10 -40
0 -22 -4 -40 -10 -40 -5 0 -10 -7 -10 -15 0 -8 -4 -15 -10 -15 -5 0 -10 -13
-10 -28 0 -17 -8 -33 -21 -42 -48 -34 -59 -49 -59 -77 0 -31 -12 -39 -76 -58
-12 -3 -31 -13 -42 -23 -11 -9 -30 -24 -42 -32 -37 -25 -100 -88 -100 -99 0
-6 -4 -11 -10 -11 -5 0 -10 -9 -10 -20 0 -11 -4 -20 -10 -20 -5 0 -10 -11 -10
-25 0 -14 -4 -25 -10 -25 -5 0 -10 -9 -10 -19 0 -11 -6 -22 -12 -25 -10 -5
-10 -7 0 -12 14 -7 17 -84 2 -84 -5 0 -10 -9 -10 -20 0 -11 -4 -20 -10 -20 -5
0 -10 -9 -10 -20 0 -11 -4 -20 -10 -20 -5 0 -10 -7 -10 -15 0 -8 -4 -15 -10
-15 -5 0 -10 -7 -10 -15 0 -8 -4 -15 -10 -15 -5 0 -10 -7 -10 -15 0 -8 -4 -15
-10 -15 -5 0 -10 -7 -10 -15 0 -8 -4 -15 -10 -15 -5 0 -10 -7 -10 -15 0 -8 -4
-15 -10 -15 -5 0 -10 -6 -10 -13 0 -7 -9 -19 -20 -27 -11 -8 -20 -21 -20 -30
0 -9 -9 -22 -21 -30 -39 -28 -59 -47 -59 -59 0 -6 -4 -11 -10 -11 -5 0 -10 -7
-10 -15 0 -8 -4 -15 -10 -15 -5 0 -10 -5 -10 -11 0 -12 -58 -69 -70 -69 -5 0
-15 -6 -22 -13 -7 -8 -56 -24 -108 -37 -92 -22 -199 -67 -227 -96 -8 -8 -19
-14 -24 -14 -5 0 -9 -7 -9 -15 0 -8 -4 -15 -10 -15 -5 0 -10 -7 -10 -15 0 -8
-4 -15 -9 -15 -5 0 -23 -12 -40 -27 -17 -16 -37 -33 -44 -40 -25 -20 -111 -60
-147 -68 -67 -14 -160 -69 -160 -94 0 -6 -4 -11 -10 -11 -5 0 -10 -7 -10 -15
0 -8 -4 -15 -10 -15 -5 0 -10 -9 -10 -20 0 -11 -4 -20 -8 -20 -5 0 -19 -9 -32
-20 -13 -11 -29 -20 -37 -20 -16 0 -91 -37 -109 -54 -6 -6 -21 -18 -33 -26
-11 -8 -21 -20 -21 -27 0 -7 -4 -13 -10 -13 -5 0 -10 -5 -10 -11 0 -12 -58
-69 -70 -69 -5 0 -27 -17 -49 -37 -66 -62 -71 -65 -121 -78 -27 -7 -54 -18
-62 -24 -43 -37 -62 -51 -68 -51 -11 0 -50 -36 -50 -46 0 -5 -9 -16 -20 -24
-11 -8 -20 -20 -20 -27 0 -7 -4 -13 -10 -13 -5 0 -10 -5 -10 -10 0 -14 -40
-54 -70 -70 -14 -7 -38 -10 -62 -6 -25 4 -48 1 -67 -8 -19 -10 -56 -15 -117
-14 -118 2 -233 -27 -288 -73 -48 -40 -61 -49 -77 -54 -11 -4 -19 -10 -19 -14
0 -8 -36 -24 -122 -57 -24 -9 -59 -23 -78 -32 -48 -22 -263 -30 -284 -11 -65
59 -76 62 -159 43 -39 -9 -114 -20 -166 -24 -98 -9 -171 -33 -171 -57 0 -7 -4
-13 -10 -13 -5 0 -10 -6 -10 -14 0 -8 -9 -18 -20 -21 -11 -3 -20 -11 -20 -16
0 -5 -7 -9 -15 -9 -9 0 -38 -11 -65 -25 -48 -25 -100 -33 -100 -17 0 42 -208
41 -252 -1 -16 -14 -68 -33 -129 -46 -111 -24 -307 -75 -337 -87 -18 -8 -51
-16 -75 -20 -23 -3 -52 -7 -63 -10 -25 -4 -84 -56 -84 -73 0 -6 -4 -11 -10
-11 -5 0 -10 -20 -10 -45 0 -25 5 -45 10 -45 6 0 10 -18 10 -40 0 -22 -4 -40
-10 -40 -5 0 -10 -11 -10 -25 0 -14 -4 -25 -10 -25 -5 0 -10 -16 -10 -35 0
-19 -4 -35 -10 -35 -5 0 -10 -7 -10 -15 0 -8 -4 -15 -9 -15 -18 0 -71 -59 -71
-79 0 -12 -4 -21 -10 -21 -5 0 -10 -7 -10 -15 0 -8 5 -15 10 -15 15 0 12 -99
-3 -115 -7 -7 -38 -25 -67 -40 -73 -37 -80 -46 -80 -104 0 -28 -4 -51 -10 -51
-6 0 -10 -39 -10 -98 0 -86 2 -99 20 -112 11 -8 20 -18 20 -23 0 -21 116 -117
141 -117 10 0 24 -6 31 -14 51 -51 188 -79 348 -72 140 6 192 15 211 38 9 10
20 18 25 18 5 0 26 5 46 11 34 9 38 13 38 43 0 45 9 49 240 85 30 5 80 6 111
4 42 -4 64 -1 90 13 25 13 59 18 129 19 62 1 107 7 130 17 54 25 178 48 251
48 36 0 107 -9 158 -20 51 -11 136 -22 188 -25 52 -2 98 -7 103 -10 11 -7 60
15 60 27 0 29 76 77 168 108 31 10 82 28 113 40 62 23 128 37 389 81 96 16
225 38 285 49 61 11 164 27 230 36 66 8 138 21 160 29 106 35 247 58 400 65
129 6 169 11 205 28 25 11 64 28 88 38 23 9 42 20 42 24 0 6 42 26 125 60 28
12 85 18 335 40 58 5 121 13 141 19 40 12 79 42 79 61 0 6 14 25 30 40 17 15
30 33 30 39 0 6 5 11 10 11 6 0 10 9 10 20 0 11 5 20 10 20 6 0 10 7 10 15 0
8 5 15 10 15 6 0 10 7 10 15 0 8 5 15 10 15 6 0 10 9 10 20 0 11 5 20 10 20 6
0 10 8 10 19 0 11 11 23 28 29 42 16 237 37 342 37 98 0 134 11 184 56 82 75
106 99 106 108 0 6 5 11 10 11 6 0 10 11 10 25 0 14 5 25 10 25 6 0 10 42 10
105 0 63 -4 105 -10 105 -5 0 -10 9 -10 20 0 11 -4 20 -10 20 -5 0 -10 25 -10
55 0 30 5 55 10 55 6 0 10 11 10 25 0 14 5 25 10 25 6 0 10 7 10 15 0 8 5 15
10 15 6 0 10 6 10 13 0 7 9 19 20 27 11 8 20 20 20 27 0 7 5 13 10 13 6 0 10
16 10 35 0 19 5 35 10 35 6 0 10 11 10 25 0 14 5 25 10 25 6 0 10 14 10 30 0
17 5 30 10 30 6 0 10 16 10 35 0 19 5 35 10 35 6 0 10 9 10 20 0 11 5 20 10
20 6 0 10 7 10 15 0 8 5 15 10 15 6 0 10 7 10 15 0 8 5 15 10 15 6 0 10 7 10
15 0 8 4 15 9 15 13 0 111 96 111 109 0 6 5 11 10 11 6 0 10 9 10 20 0 11 5
20 10 20 6 0 10 18 10 40 0 22 5 40 10 40 6 0 10 16 10 35 0 19 5 35 10 35 6
0 10 11 10 25 0 14 5 25 10 25 6 0 10 5 10 11 0 27 76 71 108 62 39 -10 193
39 212 67 3 4 30 20 60 35 30 15 57 31 60 35 12 19 193 100 222 100 18 1 44 7
58 15 14 8 39 14 57 15 38 0 63 9 63 22 0 6 14 23 30 38 17 15 30 32 30 38 0
15 56 35 79 27 11 -3 35 -19 53 -36 18 -16 39 -34 47 -41 8 -7 45 -22 83 -35
42 -14 82 -36 102 -56 18 -17 43 -39 56 -47 34 -23 80 -67 80 -77 0 -5 9 -15
20 -23 11 -8 20 -18 20 -23 0 -10 158 -167 169 -167 4 0 17 -8 29 -17 11 -10
30 -25 42 -33 37 -25 60 -47 60 -56 0 -5 14 -20 31 -34 16 -14 47 -41 68 -60
21 -19 49 -42 61 -50 38 -26 60 -47 60 -58 0 -6 9 -14 20 -17 11 -3 20 -10 20
-14 0 -5 14 -14 30 -21 16 -7 30 -16 30 -21 0 -4 8 -10 19 -14 10 -3 28 -13
39 -23 11 -9 30 -24 42 -32 12 -8 40 -31 61 -50 57 -52 63 -56 99 -75 39 -20
60 -39 60 -54 0 -6 5 -11 10 -11 6 0 10 -6 10 -13 0 -7 10 -19 22 -27 11 -8
45 -38 74 -67 28 -28 67 -59 85 -69 18 -9 39 -23 47 -30 7 -8 18 -14 23 -14 5
0 9 -7 9 -15 0 -8 5 -15 10 -15 6 0 10 -5 10 -11 0 -11 63 -74 100 -99 37 -25
60 -47 60 -56 0 -5 9 -16 21 -24 11 -8 30 -23 41 -32 12 -10 25 -18 30 -18 4
0 8 -9 8 -20 0 -11 5 -20 10 -20 6 0 10 -7 10 -15 0 -8 5 -15 10 -15 6 0 10
-6 10 -13 0 -7 9 -19 20 -27 11 -8 20 -19 20 -24 0 -21 72 -62 218 -122 44
-18 82 -45 82 -59 0 -4 14 -20 30 -35 17 -15 30 -33 30 -39 0 -6 5 -11 10 -11
6 0 10 -7 10 -15 0 -8 4 -15 9 -15 5 0 16 -6 23 -13 20 -20 117 -48 183 -53
85 -7 98 -11 125 -34 13 -11 31 -20 40 -20 9 0 26 -8 38 -17 11 -10 30 -25 42
-33 12 -8 30 -22 40 -30 48 -38 65 -50 72 -50 4 0 8 -7 8 -15 0 -8 5 -15 10
-15 6 0 10 -9 10 -20 0 -11 5 -20 10 -20 6 0 10 -9 10 -20 0 -11 5 -20 10 -20
6 0 10 -9 10 -20 0 -11 5 -20 10 -20 6 0 10 -6 10 -12 0 -7 14 -24 31 -38 61
-51 109 -99 109 -109 0 -6 5 -11 10 -11 6 0 10 -7 10 -15 0 -8 4 -15 10 -15 5
0 30 -21 55 -46 36 -35 54 -46 80 -47 33 -1 115 30 115 43 0 19 55 28 156 24
130 -6 175 -16 209 -50 34 -34 73 -44 177 -44 82 0 93 3 170 40 46 22 102 44
125 50 23 6 48 17 56 24 20 20 107 62 145 71 30 6 160 -7 365 -36 38 -5 75
-15 82 -22 7 -6 22 -19 34 -27 11 -8 21 -19 21 -24 0 -16 43 -46 84 -58 26 -7
161 -12 366 -14 179 -1 348 -3 376 -3 36 -1 58 -7 74 -21 13 -11 33 -20 45
-20 35 0 293 -88 316 -109 46 -39 63 -50 92 -61 72 -27 107 -43 107 -51 0 -4
9 -11 20 -14 11 -3 20 -13 20 -21 0 -8 5 -14 10 -14 6 0 10 -13 10 -30 0 -16
5 -30 10 -30 6 0 10 -7 10 -15 0 -8 5 -15 10 -15 6 0 10 -11 10 -25 0 -14 5
-25 10 -25 6 0 10 -8 10 -18 0 -26 42 -43 77 -33 54 16 115 53 159 97 25 24
46 44 47 44 1 0 66 5 145 10 79 5 168 14 198 21 49 11 59 10 102 -9 26 -11 72
-23 102 -26 205 -20 369 -44 507 -77 45 -10 97 -19 115 -19 49 -1 220 -37 227
-48 10 -16 196 -53 338 -67 73 -7 137 -17 144 -20 36 -23 146 -39 269 -40
l135 -1 101 -51 c58 -30 126 -56 160 -62 78 -14 126 -29 133 -40 10 -14 123
-68 161 -76 19 -4 51 -16 72 -26 82 -42 185 -72 268 -78 50 -4 98 -13 116 -23
75 -41 142 -31 201 28 13 13 28 24 33 24 5 0 15 6 22 14 24 23 112 64 154 71
46 8 107 27 114 36 28 35 188 65 245 46 17 -5 73 -10 126 -11 76 -1 99 -4 113
-18 10 -10 24 -18 32 -18 9 0 22 -6 29 -12 34 -31 48 -39 135 -83 52 -26 100
-53 107 -61 8 -8 25 -14 38 -14 27 0 75 19 75 30 0 6 63 36 127 60 34 13 73
42 73 55 0 29 138 85 210 85 21 0 64 8 96 19 33 10 75 22 94 26 39 8 166 70
187 90 7 8 13 18 13 24 0 6 5 11 10 11 6 0 10 9 10 20 0 11 5 20 10 20 6 0 10
7 10 15 0 8 5 15 10 15 6 0 10 14 10 31 0 35 15 53 51 62 29 7 69 39 69 56 0
6 5 11 10 11 6 0 10 9 10 21 0 33 29 55 111 83 24 9 57 16 72 16 26 0 137 50
163 74 7 6 27 22 44 36 17 14 44 37 61 52 16 15 39 30 50 33 10 4 19 13 19 21
0 8 5 14 10 14 6 0 10 11 10 25 0 14 5 25 10 25 6 0 10 16 10 35 0 19 5 35 10
35 6 0 10 14 10 30 0 17 5 30 10 30 6 0 10 23 10 50 0 28 5 50 10 50 6 0 10
14 10 30 0 17 -4 30 -10 30 -5 0 -10 11 -10 25 0 14 -4 25 -10 25 -5 0 -10 9
-10 20 0 11 -4 20 -10 20 -5 0 -10 9 -10 20 0 11 5 20 10 20 6 0 10 7 10 15 0
8 5 15 10 15 6 0 10 7 10 15 0 8 5 15 10 15 6 0 10 6 10 13 0 7 10 19 21 27
12 8 27 20 33 26 7 7 37 24 66 39 29 15 60 33 68 41 7 8 17 14 22 14 5 0 15 6
22 14 26 26 113 63 188 81 72 17 129 40 140 55 3 4 19 15 37 24 25 13 63 16
182 16 126 0 157 3 193 19 24 11 62 27 86 37 44 18 82 45 82 59 0 9 40 45 50
45 12 0 50 37 50 49 0 6 5 11 10 11 6 0 10 27 10 61 0 51 -4 65 -22 80 -11 11
-25 19 -29 19 -5 0 -24 16 -44 36 -39 38 -78 54 -136 54 -20 0 -65 9 -99 20
-34 11 -85 20 -112 20 -27 0 -59 5 -70 11 -28 15 -68 55 -68 69 0 5 -4 10 -10
10 -5 0 -10 7 -10 15 0 8 5 15 10 15 6 0 10 7 10 15 0 8 5 15 10 15 6 0 10 7
10 15 0 8 5 15 10 15 6 0 10 28 10 65 0 37 -4 65 -10 65 -5 0 -10 19 -10 41 0
42 8 54 60 89 12 8 40 32 62 53 40 37 49 41 125 51 46 7 133 45 133 58 0 4 7
8 15 8 23 0 134 58 160 84 12 12 36 28 54 35 17 8 31 17 31 21 0 22 181 60
286 60 34 0 89 9 123 20 171 54 349 67 424 29 23 -12 44 -25 47 -29 7 -11 61
-37 111 -54 24 -9 73 -16 109 -16 36 0 81 -5 101 -10 39 -11 79 -41 79 -59 0
-6 4 -11 9 -11 5 0 22 -12 39 -27 16 -16 39 -35 51 -43 12 -8 21 -20 21 -27 0
-7 5 -13 10 -13 6 0 10 -7 10 -16 0 -19 52 -70 81 -79 10 -4 19 -11 19 -16 0
-10 78 -88 159 -159 22 -19 40 -39 41 -43 0 -4 27 -34 60 -65 76 -73 80 -76
120 -97 19 -10 40 -24 48 -31 7 -8 17 -14 21 -14 10 0 51 -35 51 -44 0 -12 24
-32 59 -51 18 -9 48 -32 67 -50 18 -18 42 -36 54 -40 11 -3 20 -10 20 -14 0
-4 21 -17 48 -29 36 -16 75 -22 164 -26 93 -4 126 -10 160 -27 46 -24 68 -42
68 -58 0 -6 4 -11 9 -11 5 0 16 -6 23 -14 8 -7 29 -21 48 -31 45 -23 60 -39
60 -64 0 -12 5 -21 10 -21 6 0 10 -9 10 -20 0 -11 5 -20 10 -20 6 0 10 -5 10
-10 0 -17 44 -57 88 -79 50 -26 166 -28 227 -5 100 37 161 54 221 60 36 4 73
14 83 23 11 9 29 23 41 31 12 8 28 20 34 26 23 22 111 61 166 74 30 7 71 21
90 30 40 20 268 37 585 44 161 4 198 8 245 25 30 12 56 21 57 21 2 0 3 7 3 16
0 16 36 54 50 54 5 0 22 12 39 28 57 50 62 54 97 63 19 6 34 16 34 24 0 8 5
15 10 15 6 0 10 7 10 16 0 20 30 47 70 64 17 7 30 16 30 21 0 5 7 9 15 9 22 0
153 68 181 93 37 35 49 44 84 62 18 9 43 27 55 39 11 11 40 30 63 40 23 11 42
25 42 33 0 7 5 13 10 13 6 0 10 14 10 30 0 17 5 30 10 30 6 0 10 37 10 90 0
53 4 90 10 90 6 0 10 9 10 20 0 11 5 20 10 20 6 0 10 7 10 15 0 8 5 15 10 15
6 0 10 9 10 20 0 11 5 20 10 20 6 0 10 6 10 14 0 8 8 17 19 21 25 8 61 40 61
54 0 6 5 11 10 11 6 0 10 30 10 70 0 40 4 70 10 70 6 0 10 16 10 35 0 19 5 35
10 35 6 0 10 14 10 30 0 17 5 30 10 30 6 0 10 25 10 55 0 30 5 55 10 55 6 0
10 14 10 30 0 17 5 30 10 30 6 0 10 9 10 20 0 11 5 20 10 20 6 0 10 7 10 15 0
8 5 15 10 15 6 0 10 14 10 30 0 17 5 30 10 30 6 0 10 18 10 40 0 22 5 40 10
40 6 0 10 11 10 25 0 14 5 25 10 25 6 0 10 9 10 20 0 11 5 20 10 20 6 0 10 14
10 30 0 17 5 30 10 30 6 0 10 5 10 11 0 6 23 32 50 59 28 27 50 52 50 56 0 15
45 45 84 55 58 14 93 29 115 48 10 9 29 23 40 31 12 8 21 23 21 33 0 10 23 40
50 67 28 27 50 53 50 59 0 6 5 11 10 11 6 0 10 6 10 14 0 8 9 18 20 21 11 3
20 13 20 21 0 8 5 14 10 14 6 0 10 14 10 30 0 17 5 30 10 30 6 0 10 27 10 60
0 33 4 60 10 60 6 0 10 27 10 60 0 33 4 60 10 60 6 0 10 11 10 25 0 14 5 25
10 25 6 0 10 11 10 25 0 14 5 25 10 25 6 0 10 11 10 25 0 14 5 25 10 25 6 0
10 18 10 40 0 22 5 40 10 40 6 0 10 9 10 19 0 11 9 23 20 26 11 3 20 10 20 15
0 5 8 11 19 15 28 9 61 40 61 59 0 9 5 16 10 16 6 0 10 25 10 55 0 30 5 55 10
55 18 0 10 45 -10 60 -11 8 -20 20 -20 27 0 7 -4 13 -10 13 -5 0 -10 11 -10
25 0 14 -4 25 -10 25 -5 0 -10 11 -10 25 0 14 -4 25 -10 25 -5 0 -10 9 -10 20
0 11 -4 20 -10 20 -5 0 -10 9 -10 20 0 11 -4 20 -10 20 -5 0 -10 9 -10 20 0
11 -4 20 -10 20 -5 0 -10 9 -10 20 0 11 -4 20 -10 20 -5 0 -10 9 -10 19 0 11
-6 22 -12 25 -10 5 -10 7 0 12 15 7 17 124 2 124 -5 0 -10 6 -10 13 0 7 -9 19
-20 27 -11 8 -20 18 -20 23 0 5 -18 26 -40 47 -22 21 -40 43 -40 49 0 6 -4 11
-10 11 -5 0 -10 5 -10 10 0 40 -156 136 -260 160 -59 14 -106 34 -128 56 -7 8
-18 14 -23 14 -5 0 -9 7 -9 15 0 8 -4 15 -10 15 -5 0 -10 6 -10 13 0 7 -9 19
-21 27 -11 8 -31 23 -42 33 -24 20 -47 19 -134 -6 -45 -13 -123 -72 -123 -93
0 -16 -66 -65 -100 -74 -21 -6 -52 -23 -69 -38 -56 -50 -89 -77 -111 -92 -30
-20 -100 -87 -100 -95 0 -4 -18 -24 -40 -45 -22 -21 -40 -43 -40 -49 0 -6 -4
-11 -10 -11 -5 0 -10 -5 -10 -11 0 -13 -58 -69 -71 -69 -5 0 -9 -7 -9 -15 0
-8 -4 -15 -10 -15 -5 0 -10 -11 -10 -25 0 -14 -4 -25 -10 -25 -5 0 -10 -11
-10 -25 0 -14 -4 -25 -10 -25 -5 0 -10 -11 -10 -25 0 -14 -4 -25 -10 -25 -5 0
-10 -5 -10 -11 0 -22 -42 -48 -88 -55 -115 -17 -432 35 -432 71 0 8 -4 15 -10
15 -6 0 -10 30 -10 70 0 86 -11 100 -121 156 -73 36 -75 37 -139 27 -36 -6
-90 -20 -120 -31 -30 -11 -73 -26 -96 -31 -22 -6 -51 -19 -62 -30 -23 -19 -29
-41 -12 -41 6 0 10 -6 10 -13 0 -7 9 -19 20 -27 15 -11 20 -26 20 -57 0 -24 5
-43 10 -43 6 0 10 -30 10 -70 0 -40 -4 -70 -10 -70 -5 0 -10 -24 -10 -54 0
-50 2 -54 30 -66 17 -7 42 -9 57 -6 120 30 193 22 193 -19 0 -14 5 -25 10 -25
6 0 10 -13 10 -30 0 -16 5 -30 10 -30 6 0 10 -9 10 -20 0 -11 5 -20 10 -20 6
0 10 -7 10 -15 0 -8 5 -15 10 -15 6 0 10 -9 10 -20 0 -11 5 -20 10 -20 6 0 10
-13 10 -30 0 -16 5 -30 10 -30 6 0 10 -13 10 -30 0 -16 5 -30 10 -30 6 0 10
-5 10 -11 0 -17 32 -42 89 -69 48 -22 51 -25 51 -62 0 -21 -4 -38 -8 -38 -14
0 -52 -36 -52 -49 0 -6 -4 -11 -10 -11 -5 0 -10 -9 -10 -20 0 -11 -4 -20 -10
-20 -5 0 -10 -6 -10 -13 0 -7 -9 -19 -21 -27 -11 -8 -30 -23 -41 -32 -12 -10
-25 -18 -30 -18 -4 0 -8 -5 -8 -10 0 -12 -163 -175 -199 -200 -11 -8 -21 -20
-21 -27 0 -7 -4 -13 -10 -13 -5 0 -10 -7 -10 -15 0 -8 -4 -15 -10 -15 -5 0
-10 -11 -10 -25 0 -14 -4 -25 -10 -25 -5 0 -10 -9 -10 -20 0 -11 -4 -20 -10
-20 -5 0 -10 -7 -10 -16 0 -16 -94 -114 -110 -114 -13 0 -90 -77 -90 -89 0 -6
-4 -11 -10 -11 -5 0 -10 -7 -10 -15 0 -8 -4 -15 -10 -15 -5 0 -10 -5 -10 -11
0 -5 -27 -37 -60 -69 -33 -32 -60 -64 -60 -69 0 -6 -4 -11 -10 -11 -5 0 -10
-5 -10 -11 0 -9 -28 -38 -75 -77 -6 -5 -27 -18 -45 -27 -18 -9 -43 -27 -56
-39 -39 -36 -52 -46 -79 -58 -14 -6 -25 -14 -25 -18 0 -4 -18 -15 -40 -25 -22
-10 -40 -21 -40 -25 0 -4 -11 -12 -25 -18 -14 -7 -31 -17 -38 -22 -7 -6 -23
-19 -37 -30 -61 -48 -83 -67 -114 -97 -48 -45 -85 -62 -163 -73 -94 -13 -129
-25 -156 -52 -13 -13 -34 -30 -47 -38 -12 -8 -28 -21 -36 -27 -27 -27 -78 -11
-124 37 -34 35 -127 64 -181 55 -46 -8 -119 18 -119 42 0 7 -4 13 -10 13 -5 0
-10 5 -10 11 0 15 -21 34 -60 54 -19 10 -46 30 -60 45 -27 29 -70 54 -111 63
-29 7 -89 58 -89 76 0 6 -4 11 -10 11 -5 0 -10 9 -10 20 0 11 -4 20 -10 20 -5
0 -10 5 -10 11 0 6 -13 24 -30 39 -16 15 -30 32 -30 37 0 5 -9 15 -20 23 -11
8 -20 19 -20 25 0 17 -65 45 -119 52 -25 3 -78 16 -116 28 -39 13 -112 28
-162 34 -51 5 -103 16 -115 23 -15 8 -68 13 -153 14 -71 1 -139 2 -151 3 -27
1 -64 33 -64 55 0 9 -4 16 -10 16 -5 0 -10 5 -10 11 0 29 -50 52 -180 84 -67
16 -180 64 -180 75 0 4 -18 15 -40 25 -39 17 -41 17 -82 -1 -23 -10 -57 -18
-77 -18 -46 1 -116 21 -134 38 -7 7 -28 21 -47 31 -35 18 -60 39 -60 50 0 12
-26 33 -68 54 -51 26 -184 29 -247 5 -22 -9 -79 -22 -127 -29 -78 -13 -164
-44 -178 -65 -3 -4 -28 -19 -57 -34 -61 -31 -117 -33 -206 -10 -76 19 -108 14
-210 -38 -77 -38 -107 -59 -107 -73 0 -4 -18 -24 -40 -45 -22 -21 -40 -43 -40
-49 0 -5 -9 -13 -20 -16 -11 -3 -20 -10 -20 -15 0 -5 -9 -12 -20 -15 -11 -4
-42 -27 -70 -53 -62 -59 -71 -67 -100 -82 -12 -7 -37 -26 -55 -44 -18 -17 -42
-38 -55 -46 -12 -8 -40 -31 -61 -50 -54 -49 -62 -56 -89 -70 -13 -7 -33 -22
-45 -34 -12 -11 -32 -28 -44 -36 -11 -8 -21 -22 -21 -32 0 -10 -4 -18 -10 -18
-5 0 -10 -13 -10 -30 0 -16 -4 -30 -10 -30 -5 0 -10 -9 -10 -20 0 -11 -4 -20
-10 -20 -5 0 -10 -7 -10 -15 0 -8 -4 -15 -8 -15 -5 0 -18 -8 -30 -17 -11 -10
-30 -25 -42 -33 -12 -8 -28 -20 -34 -26 -18 -17 -73 -44 -90 -44 -17 0 -96
-73 -96 -89 0 -6 -4 -11 -10 -11 -5 0 -10 -9 -10 -20 0 -11 -4 -20 -10 -20 -5
0 -10 -16 -10 -35 0 -19 -4 -35 -10 -35 -5 0 -10 -6 -10 -14 0 -8 -9 -18 -20
-21 -11 -3 -20 -11 -20 -17 0 -5 -13 -23 -30 -38 -16 -15 -30 -33 -30 -39 0
-6 -4 -11 -10 -11 -5 0 -10 -7 -10 -15 0 -8 -4 -15 -10 -15 -5 0 -10 -13 -10
-30 0 -16 -4 -30 -10 -30 -5 0 -10 -10 -10 -23 0 -26 -40 -50 -120 -72 -25 -8
-69 -23 -97 -34 -130 -52 -161 -63 -215 -81 -31 -10 -71 -26 -88 -35 -17 -9
-58 -25 -90 -35 -32 -10 -76 -28 -98 -39 -35 -18 -60 -21 -159 -21 -65 -1
-138 -6 -163 -12 -25 -6 -90 -11 -145 -12 -92 -2 -105 1 -160 27 -70 35 -119
33 -206 -6 -131 -60 -127 -59 -161 -41 -18 9 -38 23 -45 30 -25 25 -97 38
-208 39 -108 1 -139 8 -172 41 -7 7 -13 17 -13 23 0 6 -4 11 -10 11 -24 0 -7
45 30 80 22 21 40 42 40 47 0 5 9 15 20 23 15 11 20 26 20 62 0 26 5 48 10 48
6 0 10 9 10 20 0 11 -4 20 -10 20 -5 0 -10 18 -10 40 0 22 -4 40 -10 40 -5 0
-10 14 -10 30 0 17 -4 30 -10 30 -5 0 -10 5 -10 11 0 17 -35 45 -73 59 -17 6
-51 20 -75 31 -23 10 -57 19 -76 19 -33 0 -76 27 -76 49 0 6 -4 11 -10 11 -5
0 -10 14 -10 30 0 17 -4 30 -10 30 -5 0 -10 11 -10 25 0 14 5 25 10 25 6 0 10
5 10 11 0 5 27 37 60 69 33 32 60 66 60 74 0 9 5 16 10 16 6 0 10 20 10 45 0
25 5 45 10 45 6 0 10 5 10 11 0 13 38 49 52 49 4 0 8 6 8 13 0 7 10 19 21 27
12 8 27 20 33 26 7 7 41 26 76 44 35 18 70 38 77 46 8 8 21 14 29 14 23 0 44
26 44 54 0 14 5 26 10 26 6 0 10 7 10 15 0 8 -4 15 -10 15 -5 0 -10 16 -10 35
0 19 -4 35 -10 35 -5 0 -10 14 -10 30 0 17 -4 30 -10 30 -5 0 -10 23 -10 50 0
28 -4 50 -10 50 -5 0 -10 14 -10 30 0 25 -14 45 -70 100 -41 41 -70 77 -70 90
0 11 -4 20 -10 20 -5 0 -10 7 -10 15 0 8 -4 15 -10 15 -5 0 -10 9 -10 20 0 11
-4 20 -10 20 -5 0 -10 9 -10 20 0 11 -4 20 -10 20 -5 0 -10 7 -10 15 0 8 -4
15 -10 15 -5 0 -10 5 -10 11 0 6 -13 24 -30 39 -16 15 -30 33 -30 39 0 6 -4
11 -10 11 -5 0 -10 11 -10 25 0 14 -4 25 -10 25 -6 0 -10 33 -10 80 0 47 4 80
10 80 6 0 10 9 10 20 0 11 5 20 10 20 6 0 10 7 10 15 0 8 5 15 10 15 6 0 10 5
10 10 0 24 75 82 162 126 51 25 94 50 96 55 4 9 102 39 212 63 191 44 251 54
335 60 215 16 274 27 305 56 17 16 30 35 30 44 0 9 5 16 10 16 6 0 10 9 10 20
0 29 38 63 111 100 66 34 89 52 89 69 0 6 5 11 10 11 6 0 10 7 10 15 0 8 5 15
10 15 6 0 10 9 10 20 0 11 5 20 10 20 6 0 10 5 10 11 0 18 32 41 99 73 33 16
61 36 61 43 0 7 5 13 10 13 6 0 10 11 10 25 0 14 5 25 10 25 6 0 10 25 10 55
0 30 5 55 10 55 6 0 10 11 10 25 0 14 5 25 10 25 6 0 10 11 10 25 0 14 5 25
10 25 6 0 10 9 10 20 0 11 5 20 10 20 6 0 10 9 10 20 0 11 5 20 10 20 6 0 10
25 10 55 0 30 5 55 10 55 6 0 10 25 10 55 0 30 5 55 10 55 6 0 10 7 10 15 0 8
5 15 10 15 6 0 10 7 10 15 0 8 5 15 10 15 6 0 10 7 10 15 0 8 5 15 10 15 6 0
10 20 10 44 0 55 -18 65 -82 46z m-1240 -4314 c16 -8 69 -23 118 -32 140 -26
160 -32 192 -62 16 -15 48 -36 71 -47 35 -15 41 -23 41 -48 0 -28 -30 -67 -52
-67 -4 0 -8 -6 -8 -13 0 -7 -9 -19 -21 -27 -11 -8 -30 -23 -41 -32 -12 -10
-37 -23 -57 -29 -45 -14 -274 -24 -334 -15 -49 7 -87 34 -87 60 0 9 -4 16 -10
16 -5 0 -10 9 -10 20 0 11 -4 20 -10 20 -5 0 -10 9 -10 20 0 11 -4 20 -10 20
-5 0 -10 16 -10 35 0 19 -4 35 -10 35 -5 0 -10 11 -10 24 0 13 -5 26 -12 28
-17 6 49 71 98 97 45 25 121 23 172 -3z"/>
<path d="M31913 19433 c-23 -4 -33 -23 -13 -23 6 0 10 -7 10 -15 0 -8 -4 -15
-10 -15 -5 0 -10 -9 -10 -19 0 -11 -6 -22 -12 -25 -10 -5 -10 -7 0 -12 6 -3
12 -10 12 -16 0 -16 41 -48 62 -48 11 0 18 7 18 20 0 11 5 20 10 20 6 0 10 23
10 50 0 28 -4 50 -10 50 -5 0 -10 6 -10 14 0 11 -26 30 -33 25 -1 -1 -12 -4
-24 -6z"/>
<path d="M22895 9478 c-11 -6 -23 -16 -27 -21 -3 -6 -24 -11 -45 -13 -58 -3
-125 -20 -133 -33 -5 -9 -13 -9 -33 0 -15 7 -27 16 -27 21 0 4 -4 8 -10 8 -5
0 -10 -13 -10 -29 0 -37 -26 -48 -50 -21 -9 11 -22 20 -28 20 -21 0 -62 -23
-62 -35 0 -12 -41 -35 -64 -35 -17 0 -56 -34 -56 -49 0 -6 -4 -11 -10 -11 -5
0 -10 -7 -10 -15 0 -8 -3 -15 -6 -15 -3 0 -12 7 -20 15 -18 17 -34 20 -34 5 0
-5 5 -10 10 -10 20 0 9 -28 -12 -33 -13 -2 -32 -8 -43 -12 -16 -5 -17 -5 -5 4
12 9 11 11 -7 11 -14 0 -23 -6 -23 -15 0 -8 -4 -15 -10 -15 -5 0 -10 5 -10 10
0 6 -4 10 -10 10 -5 0 -10 -6 -10 -14 0 -8 -9 -18 -20 -21 -11 -3 -20 -15 -20
-26 0 -10 -4 -19 -10 -19 -5 0 -10 -9 -10 -20 0 -16 -5 -19 -30 -13 -26 5 -30
3 -30 -16 0 -11 -4 -21 -10 -21 -5 0 -10 -5 -10 -11 0 -11 -64 -75 -100 -99
-34 -23 -80 -67 -80 -77 0 -5 -9 -15 -20 -23 -11 -8 -20 -19 -20 -25 0 -6 -9
-17 -20 -25 -11 -8 -20 -20 -20 -27 0 -7 -4 -13 -10 -13 -5 0 -10 -4 -10 -10
0 -5 14 -10 30 -10 19 0 30 -5 30 -14 0 -8 6 -17 13 -19 7 -3 4 -6 -6 -6 -10
-1 -25 6 -33 14 -9 8 -20 15 -25 15 -5 0 -9 -7 -9 -15 0 -8 -6 -15 -12 -15 -9
0 -8 -4 2 -10 10 -6 11 -10 3 -10 -7 0 -13 -6 -13 -14 0 -8 6 -17 13 -19 6 -3
-2 -8 -20 -12 -27 -6 -30 -9 -18 -21 7 -8 21 -14 29 -14 21 0 21 -16 0 -24
-22 -8 -24 -8 -24 8 0 20 -28 28 -52 15 -30 -16 -108 -96 -108 -112 0 -7 -9
-19 -20 -27 -11 -8 -20 -18 -20 -23 0 -5 -18 -26 -40 -47 -22 -21 -40 -45 -40
-52 0 -7 -9 -20 -20 -28 -11 -8 -20 -19 -20 -25 0 -6 -9 -17 -20 -25 -11 -8
-20 -20 -20 -27 0 -6 -9 -15 -20 -18 -11 -3 -20 -12 -20 -20 0 -8 -9 -17 -20
-20 -13 -4 -20 -15 -20 -31 0 -13 -4 -24 -10 -24 -5 0 -10 -7 -10 -15 0 -8 -4
-15 -10 -15 -5 0 -10 -6 -10 -13 0 -7 -9 -19 -20 -27 -11 -8 -20 -25 -20 -37
0 -13 -4 -23 -10 -23 -5 0 -10 5 -10 10 0 6 -10 10 -22 9 -13 0 -17 -3 -10 -6
20 -8 14 -20 -18 -33 -22 -9 -30 -19 -30 -37 0 -19 -4 -24 -16 -19 -15 6 -24
0 -69 -41 -14 -13 -31 -20 -39 -17 -11 4 -16 0 -16 -15 0 -12 -4 -21 -10 -21
-5 0 -10 -6 -10 -14 0 -8 -9 -18 -20 -21 -11 -3 -20 -15 -20 -26 0 -12 -7 -19
-19 -19 -11 0 -26 -7 -35 -15 -8 -8 -22 -12 -30 -9 -11 4 -16 0 -16 -14 0 -12
-9 -23 -20 -27 -11 -3 -20 -14 -20 -24 0 -13 -10 -21 -32 -25 -26 -5 -30 -9
-18 -16 12 -8 11 -10 -7 -10 -13 0 -23 -4 -23 -10 0 -5 -9 -10 -20 -10 -11 0
-20 -7 -20 -15 0 -22 -41 -61 -73 -69 -18 -4 -27 -13 -27 -26 0 -11 -4 -20 -9
-20 -5 0 -23 -13 -41 -30 -18 -16 -36 -30 -41 -30 -5 0 -9 -6 -9 -14 0 -8 -9
-18 -20 -21 -11 -3 -20 -12 -20 -18 0 -7 -10 -19 -21 -27 -12 -8 -48 -41 -81
-72 -32 -32 -63 -58 -69 -58 -5 0 -9 -9 -9 -19 0 -11 -9 -23 -20 -26 -11 -3
-20 -10 -20 -15 0 -5 -9 -12 -20 -15 -11 -3 -20 -13 -20 -21 0 -8 -4 -14 -8
-14 -11 0 -52 -35 -52 -45 0 -4 -13 -20 -30 -35 -16 -15 -30 -35 -30 -44 0 -9
-8 -16 -20 -16 -13 0 -20 -7 -20 -20 0 -11 -4 -20 -10 -20 -5 0 -10 -7 -10
-15 0 -8 -4 -15 -10 -15 -5 0 -10 -7 -10 -15 0 -8 -4 -15 -10 -15 -5 0 -10 -7
-10 -15 0 -8 -4 -15 -10 -15 -15 0 -12 -40 3 -40 6 0 3 -6 -8 -12 -33 -19 -45
-35 -45 -62 0 -14 -4 -26 -10 -26 -18 0 -11 -35 10 -50 21 -15 21 -15 -2 -22
l-23 -6 23 -1 c24 -1 30 -16 10 -24 -10 -4 -10 -6 0 -6 7 -1 12 -15 12 -36 0
-21 5 -35 13 -36 6 0 2 -5 -10 -11 -25 -12 -30 -33 -10 -41 9 -4 8 -8 -3 -16
-13 -10 -13 -12 0 -21 10 -6 11 -10 3 -10 -7 0 -13 -7 -13 -15 0 -8 -4 -15
-10 -15 -5 0 -10 -9 -10 -20 0 -11 -4 -20 -10 -20 -5 0 -10 -7 -10 -15 0 -8
-4 -15 -10 -15 -6 0 -10 -31 -10 -73 0 -67 -2 -75 -22 -85 -13 -6 -17 -11 -10
-11 7 -1 12 -14 12 -30 0 -21 6 -32 21 -36 20 -7 20 -7 -2 -26 -12 -10 -17
-19 -11 -19 7 0 12 -15 12 -35 0 -19 -4 -35 -10 -35 -5 0 -10 -7 -10 -15 0 -8
-4 -15 -10 -15 -15 0 -13 -167 3 -173 10 -4 10 -6 0 -6 -9 -1 -13 -19 -13 -55
0 -34 -5 -57 -12 -60 -10 -5 -10 -7 0 -12 6 -3 12 -14 12 -24 0 -10 -6 -21
-12 -23 -10 -4 -10 -6 0 -6 14 -1 17 -51 2 -51 -5 0 -10 -9 -10 -19 0 -11 -6
-22 -12 -25 -10 -5 -10 -7 0 -12 20 -9 14 -65 -10 -85 -11 -11 -16 -19 -10
-19 8 0 12 -21 12 -60 0 -33 -4 -60 -10 -60 -5 0 -10 -18 -10 -40 0 -22 -4
-40 -10 -40 -5 0 -10 -16 -10 -35 0 -19 -4 -35 -10 -35 -5 0 -10 -7 -10 -15 0
-8 -4 -15 -10 -15 -5 0 -10 -13 -10 -30 0 -16 -4 -30 -10 -30 -5 0 -10 -13
-10 -30 0 -16 -4 -30 -10 -30 -5 0 -10 -7 -10 -15 0 -8 -4 -15 -10 -15 -5 0
-10 -11 -10 -25 0 -14 -4 -25 -10 -25 -5 0 -10 -8 -10 -18 0 -10 -9 -24 -20
-32 -11 -8 -20 -20 -20 -27 0 -7 -4 -13 -10 -13 -5 0 -10 -7 -10 -15 0 -8 -4
-15 -10 -15 -5 0 -10 -9 -10 -20 0 -11 -4 -20 -10 -20 -5 0 -10 -9 -10 -20 0
-11 -4 -20 -10 -20 -5 0 -10 -7 -10 -15 0 -8 -4 -15 -10 -15 -5 0 -10 -7 -10
-16 0 -16 -55 -74 -71 -74 -5 0 -9 -6 -9 -14 0 -8 -6 -17 -12 -19 -10 -4 -10
-7 -1 -14 9 -7 8 -12 -7 -23 -11 -8 -20 -20 -20 -27 0 -7 -4 -13 -10 -13 -5 0
-10 -16 -10 -35 0 -32 -2 -35 -30 -35 -27 0 -30 -3 -30 -30 0 -16 -4 -30 -10
-30 -5 0 -10 -11 -10 -25 0 -14 -4 -25 -10 -25 -5 0 -10 -7 -10 -16 0 -8 -18
-33 -40 -54 -24 -24 -40 -48 -40 -62 0 -13 -9 -30 -20 -38 -11 -8 -20 -22 -20
-32 0 -10 -4 -18 -10 -18 -5 0 -10 -5 -10 -11 0 -6 -18 -28 -40 -49 -22 -21
-40 -43 -40 -49 0 -6 -4 -11 -10 -11 -5 0 -10 -11 -10 -25 0 -14 -4 -25 -10
-25 -5 0 -10 -7 -10 -15 0 -8 -4 -15 -10 -15 -5 0 -10 -7 -10 -16 0 -16 -75
-94 -91 -94 -5 0 -9 -6 -9 -13 0 -7 -9 -19 -20 -27 -11 -8 -20 -20 -20 -27 0
-7 -4 -13 -10 -13 -5 0 -10 -9 -10 -20 0 -11 -4 -20 -10 -20 -5 0 -10 -7 -10
-15 0 -8 -4 -15 -10 -15 -5 0 -10 -7 -10 -15 0 -8 -4 -15 -10 -15 -5 0 -10 -6
-10 -13 0 -7 -9 -19 -20 -27 -11 -8 -20 -20 -20 -27 0 -7 -4 -13 -10 -13 -5 0
-10 -6 -10 -14 0 -8 -8 -17 -19 -21 -23 -7 -61 -39 -61 -51 0 -5 -9 -16 -20
-24 -11 -8 -20 -19 -20 -25 0 -6 -9 -17 -20 -25 -11 -8 -20 -20 -20 -27 0 -7
-4 -13 -10 -13 -5 0 -10 -6 -10 -13 0 -7 -9 -19 -20 -27 -11 -8 -20 -18 -20
-23 0 -5 -13 -22 -30 -37 -16 -15 -30 -31 -30 -35 0 -14 -120 -122 -149 -135
-19 -7 -31 -20 -31 -31 0 -11 -4 -19 -10 -19 -5 0 -10 -7 -10 -15 0 -8 -4 -15
-10 -15 -5 0 -10 -7 -10 -15 0 -8 -4 -15 -10 -15 -5 0 -10 -9 -10 -21 0 -15
-5 -19 -18 -15 -19 6 -62 -23 -62 -40 0 -5 -9 -16 -20 -24 -11 -8 -20 -25 -20
-38 0 -14 -13 -36 -30 -52 -16 -15 -30 -33 -30 -39 0 -6 -4 -11 -10 -11 -5 0
-10 -7 -10 -15 0 -8 -4 -15 -10 -15 -5 0 -10 -6 -10 -13 0 -7 -9 -19 -20 -27
-11 -8 -20 -19 -20 -25 0 -6 -9 -17 -21 -25 -39 -28 -59 -47 -59 -59 0 -6 -4
-11 -10 -11 -5 0 -10 -9 -10 -20 0 -11 -4 -20 -10 -20 -5 0 -10 -7 -10 -15 0
-20 -65 -85 -84 -85 -15 0 -76 -53 -76 -67 0 -5 -9 -15 -20 -23 -11 -8 -20
-20 -20 -28 0 -7 -22 -35 -50 -62 -27 -27 -50 -54 -50 -60 0 -7 -9 -9 -22 -6
-13 3 -17 3 -10 0 17 -8 15 -51 -4 -58 -9 -3 -25 -6 -36 -6 -11 0 -28 -8 -37
-19 -19 -22 -74 -51 -96 -51 -8 0 -15 -7 -15 -16 0 -24 -41 -56 -59 -47 -9 4
-38 7 -66 7 -29 -1 -55 4 -63 12 -20 20 -85 17 -111 -5 -12 -10 -35 -24 -51
-31 -17 -7 -30 -17 -30 -23 0 -25 -41 -45 -80 -40 -24 3 -40 2 -40 -4 0 -12
-34 -27 -97 -43 -22 -6 -55 -23 -71 -38 -76 -68 -85 -71 -131 -47 -22 11 -37
12 -65 4 -20 -5 -36 -14 -36 -18 0 -5 -13 -14 -30 -21 -16 -7 -30 -16 -30 -20
0 -4 -13 -13 -30 -20 -16 -7 -30 -17 -30 -22 0 -6 -16 -7 -39 -3 -47 8 -110
-8 -141 -35 -25 -22 -80 -40 -123 -40 -29 0 -31 -1 -83 -48 -17 -15 -54 -38
-82 -51 -33 -16 -52 -31 -52 -41 0 -33 -49 -43 -131 -26 -41 9 -77 16 -80 16
-14 0 -49 39 -49 54 0 9 -4 16 -10 16 -5 0 -10 9 -10 20 0 11 -4 20 -10 20 -5
0 -10 14 -10 30 0 23 -5 30 -18 30 -11 0 -29 9 -42 20 -13 11 -27 20 -32 20
-4 0 -8 16 -8 35 0 19 -4 35 -10 35 -5 0 -10 14 -10 30 0 17 -4 30 -10 30 -5
0 -10 14 -10 30 0 17 -4 30 -10 30 -5 0 -10 7 -10 15 0 8 -4 15 -10 15 -5 0
-10 11 -10 25 0 14 -4 25 -10 25 -5 0 -10 25 -10 55 0 30 -4 55 -10 55 -5 0
-10 11 -10 25 0 14 -4 25 -10 25 -5 0 -10 8 -10 18 0 10 -9 24 -20 32 -11 8
-20 23 -20 33 0 33 -42 63 -98 70 -49 6 -82 24 -82 44 0 14 -68 43 -101 43
-16 0 -40 9 -52 20 -72 66 -92 80 -125 90 -20 5 -43 10 -49 10 -7 0 -13 4 -13
9 0 5 -9 13 -20 16 -11 3 -20 13 -20 21 0 8 -4 14 -10 14 -5 0 -10 7 -10 15 0
8 -4 15 -8 15 -14 0 -52 36 -52 49 0 6 -7 11 -16 11 -18 0 -44 23 -44 39 0 6
-4 11 -10 11 -5 0 -10 7 -10 15 0 8 -4 15 -10 15 -5 0 -10 11 -10 25 0 20 -6
27 -30 32 -16 3 -30 12 -30 19 0 8 -4 14 -10 14 -5 0 -10 9 -10 20 0 11 -4 20
-10 20 -5 0 -10 9 -10 20 0 11 -4 20 -10 20 -5 0 -10 7 -10 15 0 8 -4 15 -10
15 -5 0 -10 7 -10 16 0 9 -13 29 -30 44 -16 15 -30 33 -30 39 0 6 -4 11 -10
11 -5 0 -10 11 -10 25 0 14 -4 25 -10 25 -5 0 -10 7 -10 15 0 8 -4 15 -10 15
-5 0 -10 9 -10 20 0 11 -4 20 -10 20 -5 0 -10 5 -10 11 0 13 -38 49 -52 49 -4
0 -8 7 -8 15 0 8 -4 15 -10 15 -5 0 -10 10 -10 21 0 12 -10 30 -22 41 -17 14
-19 21 -10 27 9 5 -1 14 -28 26 -23 10 -51 27 -62 37 -13 11 -28 16 -37 12
-42 -18 -61 -16 -61 4 0 23 -33 38 -105 46 -27 4 -51 11 -53 16 -2 6 -16 10
-32 10 -16 0 -36 7 -45 17 -12 12 -19 13 -24 4 -10 -15 -41 -3 -41 15 0 8 -9
14 -19 14 -11 0 -21 5 -23 11 -2 6 -20 11 -41 12 -21 1 -37 6 -37 13 0 16 -21
23 -53 17 -19 -4 -27 -1 -27 9 0 7 -10 20 -21 28 -12 8 -27 21 -34 27 -8 7
-21 10 -29 7 -9 -4 -16 -1 -16 6 0 14 -38 50 -52 50 -4 0 -8 7 -8 15 0 8 -4
15 -10 15 -5 0 -10 7 -10 15 0 8 -4 15 -10 15 -5 0 -10 7 -10 15 0 8 -4 15
-10 15 -5 0 -10 11 -10 25 0 14 -4 25 -10 25 -5 0 -10 11 -10 25 0 14 -4 25
-10 25 -5 0 -10 7 -10 15 0 8 -4 15 -10 15 -5 0 -10 9 -10 20 0 11 -4 20 -10
20 -5 0 -10 5 -10 11 0 24 -31 41 -66 36 -31 -5 -34 -4 -34 19 0 19 -5 24 -27
24 -16 1 -39 7 -53 16 -23 14 -23 14 -2 9 16 -5 22 -2 22 10 0 12 -6 14 -26 9
-14 -4 -29 -2 -33 3 -3 6 -30 22 -59 37 -40 20 -61 25 -86 21 -27 -6 -38 -2
-58 18 -31 31 -80 57 -107 57 -37 0 -71 22 -71 46 0 20 -4 22 -34 17 -19 -3
-46 -3 -59 1 -24 6 -67 38 -67 50 0 26 -80 59 -137 57 -32 -1 -43 2 -43 13 0
17 -31 31 -40 17 -12 -20 -85 -24 -121 -6 -23 12 -34 14 -37 6 -2 -6 -10 -11
-18 -11 -21 0 -96 -40 -114 -60 -8 -9 -35 -27 -59 -39 -24 -13 -55 -34 -68
-47 -13 -13 -28 -24 -33 -24 -6 0 -10 -5 -10 -11 0 -24 -31 -40 -77 -39 -27 1
-68 -4 -93 -10 -25 -7 -58 -13 -75 -14 -16 -1 -49 -6 -72 -10 -51 -9 -123 1
-123 18 0 6 -9 18 -20 26 -11 8 -20 19 -20 26 0 16 -40 32 -115 45 -44 7 -65
16 -65 25 0 8 -4 14 -10 14 -5 0 -10 12 -10 26 0 25 -32 64 -52 64 -4 0 -8 9
-8 20 0 11 -4 20 -10 20 -5 0 -10 7 -10 16 0 8 -22 37 -50 64 -27 27 -50 53
-50 59 0 6 -4 11 -10 11 -5 0 -10 7 -10 15 0 8 -4 15 -10 15 -5 0 -10 14 -10
30 0 17 -4 30 -10 30 -5 0 -10 16 -10 35 0 19 -4 35 -10 35 -5 0 -10 13 -10
28 0 16 -8 34 -20 42 -11 8 -20 25 -20 37 0 13 -4 23 -10 23 -5 0 -10 7 -10
15 0 8 -4 15 -10 15 -5 0 -10 6 -10 13 0 7 -9 19 -20 27 -11 8 -20 22 -20 32
0 10 -4 18 -10 18 -5 0 -10 9 -10 20 0 11 -4 20 -10 20 -5 0 -10 8 -10 18 0
10 -9 24 -20 32 -11 8 -20 18 -20 23 0 5 -14 22 -30 37 -17 15 -30 35 -30 44
0 9 -4 16 -10 16 -5 0 -10 9 -10 20 0 11 -4 20 -10 20 -5 0 -10 7 -10 15 0 8
-4 15 -10 15 -5 0 -10 9 -10 20 0 11 -4 20 -10 20 -5 0 -10 11 -10 25 0 14 -4
25 -10 25 -5 0 -10 7 -10 15 0 8 -4 15 -10 15 -5 0 -10 7 -10 15 0 8 -4 15
-10 15 -5 0 -10 -4 -10 -10 0 -5 -4 -10 -10 -10 -14 0 -12 38 3 43 8 3 5 11
-10 24 -13 11 -23 25 -23 32 0 6 -4 11 -10 11 -5 0 -10 5 -10 11 0 6 -13 24
-30 39 -16 15 -30 35 -30 44 0 9 -4 16 -10 16 -5 0 -10 9 -10 20 0 11 -4 20
-10 20 -5 0 -10 6 -10 14 0 8 -9 18 -20 21 -14 4 -20 15 -20 33 0 16 -8 34
-20 42 -11 8 -20 20 -20 27 0 7 -4 13 -10 13 -5 0 -10 9 -10 20 0 11 -4 20
-10 20 -5 0 -10 7 -10 15 0 8 -4 15 -10 15 -5 0 -10 5 -10 11 0 18 -60 69 -81
69 -10 0 -19 4 -19 8 0 12 -40 29 -84 37 -20 4 -36 11 -36 15 0 4 -11 12 -25
18 -21 10 -32 9 -55 -3 -31 -16 -60 -11 -60 11 0 8 -4 14 -10 14 -5 0 -10 7
-10 15 0 8 -17 18 -42 25 -24 6 -63 20 -87 31 -30 14 -46 17 -51 9 -7 -11 -40
-4 -40 9 0 4 -22 18 -50 31 -27 13 -50 27 -50 32 0 4 -15 8 -34 8 -44 0 -66 9
-66 26 0 8 -4 14 -10 14 -5 0 -10 7 -10 15 0 8 -4 15 -10 15 -5 0 -10 6 -10
13 -1 6 -19 28 -41 47 -84 74 -139 129 -139 139 0 6 -4 11 -10 11 -5 0 -20 11
-33 24 -13 13 -39 32 -58 41 -18 10 -39 24 -47 31 -7 8 -18 14 -23 14 -5 0 -9
6 -9 14 0 8 -9 18 -20 21 -11 3 -20 11 -20 16 0 5 -22 9 -50 9 -36 0 -50 4
-50 14 0 16 -86 30 -125 20 -14 -3 -36 -3 -50 0 -19 5 -25 13 -25 35 0 25 -6
30 -47 44 -42 14 -50 14 -77 0 -34 -18 -56 -37 -56 -50 0 -5 -9 -15 -20 -23
-11 -8 -20 -22 -20 -31 0 -10 -16 -20 -47 -28 -91 -24 -107 -24 -132 -2 -25
22 -41 25 -104 22 -28 -2 -37 1 -37 13 0 9 -15 19 -40 26 -22 6 -40 15 -40 19
0 5 -15 11 -32 14 -18 2 -46 9 -63 15 -16 6 -59 16 -94 22 -36 6 -81 20 -100
29 -23 11 -49 16 -72 14 -23 -3 -41 0 -50 10 -8 8 -28 16 -44 19 -17 3 -38 9
-47 13 -14 5 -18 2 -18 -12 0 -18 -8 -20 -82 -22 -72 -2 -125 -5 -150 -10 -4
0 -14 -8 -23 -17 -14 -15 -21 -15 -54 -4 -28 9 -43 9 -59 1 -11 -6 -39 -11
-62 -11 -23 0 -48 -7 -56 -15 -9 -8 -28 -15 -43 -15 -15 0 -37 -8 -49 -18 -12
-10 -39 -27 -62 -37 -22 -10 -40 -22 -40 -26 0 -5 -13 -6 -29 -3 -21 5 -34 0
-53 -19 -17 -17 -32 -23 -49 -20 -25 5 -69 -24 -69 -46 0 -14 -17 -14 -22 0
-3 8 -18 4 -46 -10 -22 -11 -48 -21 -57 -21 -8 0 -15 -8 -15 -18 0 -23 -118
-82 -165 -82 -34 0 -47 -13 -22 -23 9 -4 9 -6 0 -6 -7 -1 -13 -8 -13 -16 0 -9
-9 -15 -24 -15 -13 0 -31 -3 -39 -6 -8 -3 -22 2 -31 11 -14 15 -18 15 -31 1
-8 -8 -15 -19 -15 -25 0 -6 -4 -11 -10 -11 -5 0 -10 -7 -10 -15 0 -8 -4 -15
-10 -15 -5 0 -10 5 -10 10 0 6 -9 10 -20 10 -11 0 -20 -6 -20 -13 0 -7 -9 -19
-20 -27 -11 -8 -20 -19 -20 -26 0 -16 -76 -48 -113 -47 -18 0 -44 4 -60 8 -24
7 -27 5 -27 -19 0 -26 -1 -27 -52 -23 -65 5 -148 45 -148 72 0 4 -6 12 -13 19
-14 13 -107 9 -107 -5 0 -5 -9 -9 -19 -9 -11 0 -27 -7 -35 -16 -15 -14 -17
-14 -32 0 -8 9 -27 19 -42 23 -15 3 -29 9 -32 13 -3 4 -26 9 -53 12 l-47 6 0
-39 c0 -22 -4 -39 -10 -39 -5 0 -10 -6 -10 -13 0 -7 -10 -19 -21 -27 -12 -8
-32 -25 -45 -37 -24 -24 -54 -31 -54 -12 0 34 -83 64 -147 52 -20 -3 -33 -1
-33 5 0 6 -9 14 -20 17 -11 4 -32 17 -45 31 -30 29 -35 30 -35 3 0 -15 -4 -19
-16 -15 -9 3 -26 6 -39 6 -13 0 -30 7 -39 15 -8 8 -21 15 -29 15 -8 0 -24 9
-36 19 -16 14 -32 18 -59 14 -27 -4 -43 0 -59 15 -13 11 -23 24 -23 30 0 6
-18 16 -39 22 -22 6 -41 14 -43 18 -2 4 -25 15 -53 23 -75 24 -175 8 -325 -51
-30 -12 -70 -26 -88 -31 -18 -6 -32 -17 -32 -25 0 -20 -18 -37 -60 -59 -19
-10 -40 -24 -48 -31 -7 -8 -25 -17 -40 -21 -14 -3 -31 -10 -37 -15 -5 -5 -21
-17 -34 -28 -13 -11 -30 -20 -38 -20 -8 0 -24 -10 -37 -22 -21 -21 -76 -50
-153 -78 -18 -7 -33 -17 -33 -23 0 -14 -35 -43 -70 -57 -17 -7 -30 -16 -30
-20 0 -4 -13 -13 -30 -20 -16 -7 -30 -18 -30 -26 0 -7 -9 -16 -20 -19 -11 -3
-20 -11 -20 -16 0 -5 -11 -9 -24 -9 -35 0 -56 -10 -56 -27 0 -16 -56 -73 -71
-73 -5 0 -9 -5 -9 -11 0 -11 -64 -75 -100 -99 -12 -8 -36 -27 -52 -42 -17 -16
-34 -28 -39 -28 -5 0 -9 -6 -9 -12 0 -7 -13 -23 -28 -36 -47 -39 -70 -57 -92
-72 -12 -8 -35 -26 -50 -40 -15 -14 -38 -32 -50 -40 -12 -8 -28 -21 -36 -28
-7 -6 -19 -12 -27 -12 -12 0 -27 -10 -75 -51 -19 -16 -108 -49 -172 -64 -30
-7 -75 -20 -99 -28 -46 -17 -71 -13 -71 9 0 8 -4 14 -10 14 -5 0 -10 6 -10 13
0 22 -48 40 -64 25 -8 -7 -23 -20 -35 -28 -11 -8 -21 -19 -21 -25 0 -6 -9 -17
-20 -25 -11 -8 -20 -20 -20 -26 0 -15 -47 -34 -96 -39 -21 -2 -51 -6 -65 -10
-17 -4 -38 -1 -58 10 -26 13 -42 14 -84 6 -33 -6 -58 -6 -70 0 -9 6 -32 7 -50
4 -25 -5 -38 -1 -57 15 -19 16 -32 20 -61 15 -27 -5 -41 -2 -54 11 -10 10 -38
21 -64 25 -25 4 -71 15 -101 24 -30 9 -80 23 -110 30 -63 14 -171 66 -206 98
-43 41 -54 48 -64 42 -5 -3 -23 1 -40 10 -27 14 -33 14 -60 0 -16 -8 -36 -15
-43 -15 -8 0 -29 -13 -46 -29 -18 -17 -42 -33 -54 -36 -60 -17 -77 -28 -77
-50 0 -18 -7 -24 -37 -30 -21 -4 -50 -13 -65 -21 -15 -8 -50 -14 -78 -14 l-50
0 0 -2525 0 -2525 17075 0 c15171 0 17075 2 17075 15 0 8 5 15 10 15 6 0 10 7
10 15 0 8 5 15 10 15 6 0 10 5 10 10 0 14 61 74 90 90 27 14 32 18 79 60 40
36 74 38 106 6 13 -14 34 -27 45 -31 11 -3 20 -11 20 -16 0 -15 27 -39 43 -39
9 0 17 -5 19 -11 5 -14 38 0 38 17 0 8 7 14 15 14 25 0 65 -23 65 -37 0 -7 5
-13 10 -13 6 0 10 -16 10 -35 0 -19 5 -35 10 -35 6 0 10 -6 10 -14 0 -8 7 -17
16 -20 20 -8 2328 -8 2348 0 9 3 16 11 16 18 0 6 9 18 20 26 11 8 20 19 20 25
0 6 9 17 20 25 11 8 20 19 20 25 0 6 9 17 20 25 11 8 20 20 20 27 0 7 5 13 10
13 6 0 10 5 10 10 0 15 156 165 240 230 14 11 31 25 38 31 7 6 29 15 47 20 19
6 40 16 47 23 28 27 59 36 132 36 58 0 76 3 76 14 0 15 63 31 80 21 5 -3 31 5
58 19 26 13 73 29 102 34 30 6 56 15 58 21 2 6 12 11 21 11 21 0 61 32 61 49
0 6 5 11 10 11 6 0 10 9 10 20 0 11 5 20 10 20 6 0 10 7 10 15 0 8 5 15 10 15
6 0 10 7 10 15 0 8 5 15 10 15 6 0 10 7 10 15 0 8 5 15 10 15 6 0 10 9 10 20
0 11 5 20 10 20 6 0 10 11 10 25 0 14 5 25 10 25 6 0 10 9 10 20 0 11 5 20 10
20 6 0 10 7 10 15 0 8 5 15 10 15 6 0 10 9 10 20 0 11 5 20 10 20 6 0 10 7 10
15 0 8 5 15 10 15 6 0 10 7 10 15 0 8 5 15 10 15 6 0 10 7 10 15 0 8 5 15 10
15 6 0 10 5 10 11 0 12 97 109 109 109 7 0 19 9 67 49 6 5 26 17 44 26 18 9
39 22 45 27 7 6 27 23 45 38 18 15 37 32 44 37 6 4 40 9 76 10 36 1 66 6 68
12 2 6 10 11 18 11 8 0 38 12 66 26 69 35 124 28 174 -23 31 -31 43 -36 97
-40 36 -3 82 -16 110 -30 l47 -23 0 2575 0 2576 -22 -12 c-13 -7 -29 -18 -36
-26 -23 -23 -52 -16 -52 12 0 18 -5 25 -20 25 -11 0 -20 -4 -20 -10 0 -5 -9
-10 -20 -10 -16 0 -20 -7 -20 -30 0 -16 -4 -30 -10 -30 -5 0 -10 -16 -10 -35
0 -24 -8 -44 -23 -59 -21 -21 -34 -23 -113 -25 -67 0 -104 4 -144 19 -30 11
-56 20 -57 20 -2 0 -3 9 -3 21 0 32 -25 52 -50 39 -14 -7 -26 -8 -39 0 -11 5
-30 10 -43 10 -13 0 -30 5 -38 11 -15 11 0 9 95 -7 33 -6 35 -5 35 21 0 25 -3
27 -27 20 -51 -12 -103 -17 -127 -11 -34 8 -106 80 -106 105 0 21 -39 39 -59
27 -12 -8 -61 14 -61 27 0 5 -21 8 -48 5 -54 -5 -72 6 -72 46 0 30 -17 37 -78
29 -44 -5 -57 0 -190 66 -78 39 -148 71 -156 71 -8 0 -22 7 -31 16 -20 21
-107 44 -165 44 -77 0 -224 52 -265 94 -11 11 -62 34 -175 81 -30 12 -73 31
-95 40 -58 26 -169 31 -228 11 -58 -20 -146 -63 -165 -82 -7 -8 -17 -14 -21
-14 -4 0 -18 -9 -31 -20 -14 -12 -31 -18 -42 -14 -25 8 -58 -4 -58 -21 0 -8
-12 -17 -27 -20 -16 -4 -38 -8 -50 -11 -21 -4 -23 -10 -23 -61 0 -45 -4 -59
-22 -75 -32 -27 -65 -33 -83 -14 -23 22 -36 20 -110 -16 -42 -21 -65 -38 -65
-49 0 -10 -6 -19 -12 -22 -9 -3 -6 -10 8 -23 l22 -18 -29 -25 c-15 -15 -42
-37 -59 -51 -56 -45 -190 -179 -190 -190 0 -5 -4 -10 -10 -10 -5 0 -10 -7 -10
-15 0 -8 -4 -15 -10 -15 -5 0 -10 -7 -10 -15 0 -8 -4 -15 -10 -15 -5 0 -10 -7
-10 -15 0 -8 -4 -15 -10 -15 -5 0 -10 -7 -10 -15 0 -8 -4 -15 -10 -15 -5 0
-10 -7 -10 -15 0 -8 -4 -15 -10 -15 -5 0 -10 -7 -10 -15 0 -8 -4 -15 -10 -15
-5 0 -10 -8 -10 -18 0 -10 -9 -24 -20 -32 -11 -8 -20 -20 -20 -27 0 -7 -4 -13
-10 -13 -5 0 -10 -7 -10 -15 0 -8 -4 -15 -10 -15 -5 0 -10 -7 -10 -15 0 -8 -4
-15 -10 -15 -5 0 -10 -6 -10 -13 0 -7 -9 -19 -20 -27 -11 -8 -20 -18 -20 -22
0 -10 -242 -250 -290 -288 -17 -14 -37 -30 -44 -36 -25 -23 -136 -74 -159 -74
-13 0 -34 9 -47 20 -13 11 -27 20 -32 20 -4 0 -8 -9 -8 -20 0 -11 -4 -20 -10
-20 -5 0 -10 -7 -10 -15 0 -8 -4 -15 -10 -15 -5 0 -10 -5 -10 -11 0 -21 -42
-50 -62 -43 -23 7 -78 -14 -78 -30 0 -6 -9 -18 -20 -26 -13 -9 -20 -26 -20
-45 0 -26 -6 -34 -36 -48 -38 -19 -45 -24 -104 -79 -22 -20 -40 -41 -40 -46 0
-5 -13 -12 -29 -15 -16 -4 -40 -17 -54 -31 -14 -13 -57 -41 -97 -61 -40 -20
-83 -47 -96 -60 -13 -13 -33 -26 -44 -30 -11 -3 -20 -13 -20 -21 0 -10 -13
-14 -46 -14 -28 0 -51 -6 -61 -16 -9 -8 -22 -13 -29 -10 -19 7 -64 -14 -64
-30 0 -7 -18 -18 -40 -24 -33 -9 -40 -15 -40 -35 0 -14 -4 -25 -10 -25 -5 0
-10 -22 -10 -50 0 -44 -3 -50 -24 -56 -19 -4 -32 1 -51 20 -32 32 -49 33 -81
1 -14 -14 -29 -25 -34 -25 -6 0 -10 -7 -10 -16 0 -19 -33 -50 -61 -59 -11 -4
-19 -11 -19 -17 0 -6 -15 -7 -38 -3 -34 5 -43 2 -71 -24 -18 -17 -39 -31 -47
-31 -23 0 -64 -23 -64 -35 0 -23 -165 -71 -202 -59 -11 3 -37 -1 -57 -9 -20
-8 -56 -23 -80 -33 -24 -10 -57 -31 -73 -46 -17 -15 -37 -28 -44 -28 -17 0
-28 -8 -90 -68 -58 -56 -117 -66 -184 -32 -45 23 -70 43 -70 56 0 15 -44 44
-67 44 -13 0 -49 -13 -81 -29 -54 -27 -112 -33 -112 -11 0 5 -9 11 -20 15 -11
3 -38 24 -61 46 -22 21 -44 39 -49 39 -5 0 -15 6 -22 14 -27 26 -102 58 -137
58 -61 0 -105 -9 -109 -21 -2 -6 -12 -11 -23 -11 -10 0 -19 -4 -19 -9 0 -5
-10 -11 -22 -14 -45 -11 -173 -59 -178 -66 -3 -5 -16 -14 -29 -21 -31 -16 -41
-24 -106 -87 -78 -76 -199 -133 -282 -133 -23 0 -43 -4 -45 -9 -5 -13 -105
-61 -128 -61 -32 0 -78 27 -126 76 -24 24 -44 46 -44 49 0 22 -93 85 -124 85
-8 0 -42 26 -75 58 -33 31 -66 62 -74 68 -79 66 -347 104 -426 60 -19 -10 -44
-28 -57 -40 -12 -11 -37 -32 -54 -46 -17 -14 -37 -30 -44 -36 -24 -22 -141
-77 -191 -90 -65 -18 -147 -17 -215 1 -91 24 -191 15 -309 -30 -68 -25 -226
-45 -363 -46 -122 -1 -238 -19 -290 -45 -77 -39 -188 -56 -448 -69 -122 -5
-156 -12 -209 -39 -33 -17 -221 -199 -221 -214 0 -4 -9 -14 -20 -22 -11 -8
-20 -18 -20 -23 0 -7 -155 -162 -193 -193 -21 -18 -69 -40 -99 -48 -15 -3 -33
-12 -41 -20 -19 -19 -133 -76 -152 -76 -8 0 -15 -4 -15 -8 0 -17 -72 -42 -121
-42 -45 0 -79 15 -79 35 0 4 -7 13 -15 22 -18 17 -55 11 -79 -12 -9 -9 -39
-19 -68 -22 -33 -4 -59 -13 -69 -25 -17 -19 -49 -25 -49 -9 0 14 -57 33 -79
26 -41 -13 -61 3 -61 47 0 32 -3 39 -16 34 -9 -3 -18 -6 -20 -6 -2 0 -4 -5 -4
-11 0 -18 -27 -39 -50 -39 -23 0 -50 -21 -50 -39 0 -6 -4 -11 -10 -11 -6 0
-10 -30 -10 -69 0 -67 -1 -69 -30 -81 -43 -18 -90 -64 -90 -89 0 -12 -4 -21
-10 -21 -5 0 -10 -9 -10 -19 0 -11 -9 -23 -20 -26 -11 -3 -20 -10 -20 -15 0
-5 -8 -11 -19 -15 -10 -3 -28 -13 -39 -23 -11 -9 -30 -24 -42 -32 -13 -8 -49
-40 -81 -70 -32 -30 -76 -71 -98 -90 -22 -19 -40 -40 -41 -47 0 -6 -9 -15 -20
-18 -11 -3 -20 -11 -20 -16 0 -12 -121 -134 -146 -147 -21 -11 -86 -2 -121 16
-29 16 -33 15 -33 -4 0 -17 -36 -54 -52 -54 -4 0 -8 13 -8 30 0 24 -5 31 -26
36 -17 4 -29 2 -34 -6 -5 -8 -17 -10 -33 -6 -17 4 -31 1 -41 -10 -14 -14 -18
-13 -41 10 -14 14 -25 30 -25 36 0 5 -4 10 -10 10 -5 0 -10 6 -10 13 0 7 -9
19 -20 27 -11 8 -20 20 -20 27 0 7 -4 13 -10 13 -5 0 -10 6 -10 13 0 7 -9 19
-20 27 -11 8 -20 20 -20 27 0 7 -4 13 -10 13 -5 0 -10 7 -10 15 0 8 -4 15 -10
15 -5 0 -10 7 -10 15 0 8 -4 15 -10 15 -5 0 -10 9 -10 20 0 11 -4 20 -10 20
-5 0 -10 11 -10 25 0 14 -4 25 -10 25 -5 0 -10 14 -10 30 0 17 -4 30 -10 30
-5 0 -10 9 -10 20 0 11 -4 20 -10 20 -5 0 -10 9 -10 20 0 11 -4 20 -10 20 -5
0 -10 11 -10 25 0 14 -4 25 -10 25 -5 0 -10 9 -10 20 0 11 -4 20 -10 20 -5 0
-10 9 -10 20 0 11 -4 20 -10 20 -5 0 -10 9 -10 20 0 11 -4 20 -10 20 -5 0 -10
9 -10 20 0 11 -4 20 -10 20 -5 0 -10 7 -10 15 0 8 -4 15 -10 15 -5 0 -10 7
-10 15 0 8 -4 15 -10 15 -5 0 -10 6 -10 13 0 7 -9 19 -20 27 -11 8 -20 18 -20
23 0 5 -13 22 -30 37 -16 15 -30 32 -30 37 0 5 -9 15 -20 23 -11 8 -20 18 -20
23 0 11 -59 67 -71 67 -5 0 -9 7 -9 15 0 8 -4 15 -10 15 -5 0 -10 7 -10 15 0
8 -4 15 -10 15 -5 0 -10 7 -10 15 0 8 -4 15 -10 15 -5 0 -10 7 -10 15 0 8 -4
15 -10 15 -5 0 -10 8 -10 18 0 10 -9 24 -20 32 -11 8 -20 22 -20 32 0 10 -4
18 -10 18 -5 0 -10 5 -10 10 0 6 -31 42 -70 80 -38 38 -70 74 -70 80 0 5 -5
10 -12 10 -6 0 -1 8 10 19 27 23 28 41 2 41 -11 0 -20 -7 -20 -15 0 -8 -4 -15
-10 -15 -5 0 -10 7 -10 15 0 8 -4 15 -10 15 -5 0 -10 7 -10 15 0 8 -4 15 -10
15 -5 0 -10 7 -10 15 0 8 -4 15 -10 15 -5 0 -10 7 -10 16 0 14 -20 35 -106
113 -12 11 -36 27 -54 36 -18 9 -38 21 -44 26 -46 38 -60 48 -96 64 -22 10
-40 21 -40 25 0 4 -18 15 -40 25 -22 10 -40 21 -40 25 0 4 -13 13 -30 20 -16
7 -30 16 -30 20 0 4 -18 15 -40 25 -22 10 -40 21 -40 25 0 3 -27 19 -60 35
-33 16 -60 32 -60 35 0 4 -18 15 -40 25 -22 10 -40 21 -40 25 0 4 -22 17 -50
30 -27 13 -50 26 -50 30 0 4 -19 15 -41 26 -23 10 -47 24 -54 30 -6 7 -40 27
-76 44 -35 18 -66 36 -69 40 -3 4 -43 27 -90 50 -47 23 -86 46 -88 51 -2 5
-12 9 -23 9 -10 0 -19 4 -19 9 0 5 -9 13 -20 16 -11 3 -20 13 -20 21 0 11 -6
13 -19 9 -11 -3 -28 -2 -38 3 -10 6 -42 20 -70 33 -29 12 -53 25 -53 29 0 3
-21 16 -46 28 -52 26 -55 28 -134 104 -63 60 -73 83 -40 93 16 5 20 15 20 46
0 21 5 39 10 39 6 0 10 11 10 25 0 14 5 25 10 25 6 0 10 7 10 16 0 23 20 39
65 52 112 31 115 33 115 79 0 23 5 44 13 47 10 5 10 7 0 12 -15 7 -17 34 -3
34 6 0 10 7 10 15 0 12 16 15 80 15 62 0 80 3 80 14 0 17 24 28 45 20 9 -4 15
0 15 10 0 9 5 16 10 16 6 0 10 6 10 14 0 8 9 18 20 21 11 3 20 11 20 16 0 5
18 9 39 9 22 0 46 7 55 15 11 12 25 14 51 9 22 -4 35 -2 35 4 0 6 9 14 20 17
11 3 20 11 20 16 0 15 26 39 42 39 7 1 31 8 53 16 22 8 60 17 85 20 95 9 181
26 194 40 8 8 22 11 30 8 9 -3 16 -2 16 4 0 5 14 12 30 16 17 3 30 11 30 19 0
7 9 19 21 27 11 8 30 23 41 33 12 9 24 17 28 17 10 0 50 36 50 45 0 4 14 20
30 35 17 15 30 32 30 37 0 5 10 15 21 23 12 8 44 36 71 63 27 26 53 47 58 47
5 0 20 11 33 24 28 28 79 56 102 56 8 0 15 4 15 9 0 5 9 13 20 16 11 3 20 11
20 17 0 10 26 35 89 88 17 14 31 35 31 47 0 12 6 24 13 27 10 5 10 7 0 12 -7
3 -13 19 -13 35 0 16 -4 29 -10 29 -6 0 -10 29 -10 66 0 61 -1 65 -20 59 -18
-6 -20 -2 -20 34 0 23 -4 41 -9 41 -5 0 -24 14 -42 31 -26 24 -30 32 -19 39
12 7 10 13 -10 31 -17 14 -21 23 -12 26 20 8 14 20 -18 33 -21 9 -30 19 -30
36 0 13 -4 24 -10 24 -5 0 -10 10 -10 23 0 12 -9 29 -20 37 -12 8 -20 26 -20
42 0 15 -4 28 -10 28 -5 0 -10 14 -10 30 0 17 -4 30 -10 30 -5 0 -10 20 -10
45 0 25 -4 45 -10 45 -5 0 -10 22 -10 49 0 41 4 51 20 56 22 7 27 40 8 48 -25
10 16 28 52 24 21 -3 40 1 47 9 15 16 143 10 154 -7 4 -8 12 -8 25 -1 24 13
222 8 284 -6 25 -6 52 -7 60 -2 8 4 44 3 78 -3 52 -8 66 -8 73 4 8 12 11 12
20 -1 8 -11 12 -12 16 -2 5 14 43 17 43 3 0 -5 -6 -12 -12 -14 -15 -6 65 -10
177 -8 44 1 96 -3 115 -9 23 -7 36 -7 38 0 5 13 59 13 64 -1 5 -14 38 0 38 17
0 8 5 14 10 14 6 0 10 -7 10 -15 0 -10 11 -15 33 -16 76 -2 233 2 250 7 24 7
22 56 -3 74 -11 8 -20 22 -20 31 0 22 -26 32 -50 19 -25 -13 -30 -13 -30 5 0
8 -4 15 -10 15 -5 0 -10 -4 -10 -10 0 -5 -24 -10 -52 -10 -42 1 -49 3 -35 11
10 6 29 8 43 5 28 -7 30 -1 9 20 -11 12 -19 13 -36 4 -23 -13 -69 -6 -69 11 0
13 -92 0 -102 -15 -6 -8 -11 -7 -17 3 -6 10 -13 10 -28 2 -14 -7 -31 -7 -53
-1 -21 6 -39 6 -51 -1 -11 -5 -35 -7 -54 -3 -35 6 -45 18 -22 27 6 3 -13 3
-43 0 -30 -3 -108 -5 -172 -6 -65 0 -118 -4 -118 -7 0 -8 -73 -7 -80 1 -3 3
-18 9 -35 13 -21 5 -26 4 -15 -3 17 -12 14 -16 -22 -25 -22 -5 -28 -3 -28 9 0
12 -6 15 -20 10 -21 -7 -28 10 -7 18 8 4 9 6 0 6 -6 1 -18 -6 -26 -14 -12 -11
-32 -13 -92 -10 -85 6 -155 -8 -155 -30 0 -8 -6 -15 -14 -15 -8 0 -21 -3 -30
-6 -9 -4 -16 -1 -16 6 0 27 -41 48 -110 54 -51 5 -70 11 -70 22 0 8 6 14 13
14 8 0 7 4 -3 10 -25 16 -30 12 -30 -25 0 -34 -1 -35 -27 -29 -35 9 -53 27
-53 53 0 11 -9 22 -20 26 -11 3 -20 15 -20 26 0 10 -4 19 -10 19 -5 0 -10 9
-10 20 0 13 -7 20 -20 20 -15 0 -20 7 -20 25 0 18 5 25 20 25 13 0 20 7 20 19
0 11 -9 23 -20 26 -13 4 -20 15 -20 31 0 13 -4 24 -10 24 -5 0 -10 6 -10 14 0
8 -6 17 -12 19 -10 4 -10 6 0 6 14 1 17 31 2 31 -5 0 -10 5 -10 10 0 6 7 10
16 10 8 0 22 6 30 14 7 8 19 17 26 19 10 4 9 8 -2 16 -13 10 -13 12 0 21 8 5
20 11 25 13 6 3 -1 14 -14 26 -13 11 -19 21 -13 21 7 0 12 6 12 14 0 8 6 17
13 20 10 5 10 7 0 12 -15 7 -17 44 -3 44 6 0 10 21 10 46 0 39 -5 51 -31 75
-17 16 -25 29 -19 29 16 0 -26 37 -51 45 -12 4 -19 16 -19 31 0 13 -6 24 -12
24 -10 0 -10 2 -1 8 9 6 7 12 -7 22 -13 9 -20 26 -20 45 0 19 -8 36 -20 45
-11 8 -20 19 -20 26 0 6 -10 15 -22 21 l-23 10 23 7 c32 10 27 26 -8 26 -16 0
-30 5 -30 10 0 15 77 12 84 -2 5 -10 7 -10 12 0 3 6 23 12 45 12 29 0 39 4 39
16 0 30 52 60 62 36 2 -5 15 -12 31 -16 23 -5 27 -3 27 14 0 11 5 20 10 20 6
0 10 -12 10 -26 0 -21 4 -24 23 -20 12 3 16 3 10 0 -7 -3 -13 -10 -13 -15 0
-11 54 0 58 13 5 11 42 10 42 -1 0 -5 10 -11 23 -14 12 -2 30 -8 40 -12 13 -5
17 -2 17 14 0 14 6 21 20 21 11 0 20 -7 20 -14 0 -11 11 -15 40 -13 25 1 40 6
40 14 0 7 9 13 20 13 13 0 20 -7 20 -20 0 -11 -4 -20 -10 -20 -5 0 -10 -3 -10
-8 0 -4 18 -7 40 -7 22 0 40 3 40 7 0 5 -9 8 -20 8 -22 0 -27 15 -7 23 10 4
10 6 0 6 -7 1 -13 7 -13 15 0 8 -6 17 -12 19 -7 3 6 6 30 6 39 1 57 -12 30
-22 -7 -2 4 -9 25 -15 49 -14 147 -4 147 14 0 17 17 19 22 3 2 -7 36 -13 83
-15 52 -2 71 -1 55 5 -14 4 -38 6 -55 4 -21 -3 -26 -2 -16 5 11 8 11 10 0 14
-8 3 6 4 31 2 25 -1 53 -5 63 -9 10 -4 17 -3 17 5 0 7 7 10 15 6 26 -10 105 5
105 20 0 8 -9 14 -19 14 -11 0 -22 6 -25 13 -5 10 -7 10 -12 0 -6 -15 -64 -18
-64 -4 0 5 6 12 13 14 8 4 9 6 0 6 -6 1 -18 -6 -26 -14 -16 -16 -77 -16 -89 0
-5 6 -11 5 -17 -4 -6 -9 -14 -10 -27 -3 -11 6 -33 8 -49 6 -27 -3 -28 -3 -5 4
l25 8 -29 6 c-37 7 -64 -1 -44 -13 9 -6 4 -9 -15 -9 -29 0 -57 20 -57 39 0 6
-19 11 -42 11 -32 0 -39 -3 -28 -10 10 -6 11 -10 3 -10 -7 0 -13 -7 -13 -15 0
-20 -27 -19 -47 1 -14 13 -14 17 -2 25 10 6 4 9 -18 9 -39 0 -41 -6 -11 -31
l21 -19 -21 0 c-12 0 -22 5 -22 10 0 6 -10 10 -22 11 -13 0 -17 3 -10 6 24 9
12 23 -20 22 -18 0 -27 -3 -20 -6 6 -2 12 -9 12 -15 0 -6 -8 -7 -17 -4 -9 4
-19 2 -23 -4 -4 -6 -15 -8 -24 -4 -17 6 -16 8 5 20 24 13 23 13 -11 15 -19 1
-59 0 -89 -1 -36 -1 -56 2 -62 11 -8 12 -10 12 -18 0 -5 -8 -14 -10 -21 -6 -7
4 -16 1 -22 -6 -7 -11 -11 -11 -15 -1 -8 19 -23 14 -23 -8 0 -23 4 -24 32 -9
16 8 23 8 30 -2 7 -11 11 -11 15 -1 3 7 24 12 53 12 29 0 51 -5 54 -12 5 -10
7 -10 12 0 8 17 24 15 24 -3 0 -19 -76 -21 -83 -2 -4 9 -7 9 -14 0 -6 -9 -45
-13 -129 -14 -65 0 -144 -2 -174 -3 -68 -2 -120 10 -120 29 0 8 -4 15 -10 15
-5 0 -10 6 -10 14 0 8 -9 18 -20 21 -11 3 -20 13 -20 21 0 9 -11 14 -30 14
-23 0 -30 4 -30 20 0 13 -7 20 -20 20 -14 0 -20 7 -20 24 0 26 -16 36 -61 36
-17 0 -44 7 -62 17 -41 21 -163 53 -204 53 -17 0 -38 6 -46 14 -13 13 -68 29
-154 43 -25 4 -33 10 -33 25 0 18 -4 19 -36 13 -26 -4 -40 -2 -46 7 -8 10 -11
10 -15 1 -7 -18 -23 -16 -23 3 0 10 -6 14 -15 10 -21 -8 -45 3 -45 20 0 15
-56 20 -62 5 -1 -4 -24 -10 -50 -13 -42 -5 -48 -3 -48 13 0 22 -7 23 -35 7z"/>
<path d="M25997 9166 c-16 -15 -78 -36 -105 -36 -12 0 -22 -4 -22 -10 0 -5
-13 -10 -30 -10 -16 0 -30 -4 -30 -9 0 -16 60 -34 100 -28 37 5 56 -6 28 -16
-7 -2 -9 -8 -5 -13 4 -5 11 -4 15 2 10 14 54 13 70 -2 6 -7 12 -22 12 -33 0
-12 5 -21 10 -21 6 0 10 25 10 56 0 51 2 55 20 49 11 -4 20 -2 20 4 0 6 -4 11
-10 11 -5 0 -10 5 -10 11 0 7 7 8 18 4 9 -4 23 -9 30 -12 18 -8 15 26 -5 45
-19 20 -98 25 -116 8z"/>
<path d="M26930 8704 c0 -19 -24 -44 -42 -44 -8 0 -20 -9 -28 -20 -8 -11 -22
-20 -32 -20 -10 0 -18 -4 -18 -10 0 -5 22 -10 48 -10 36 0 51 5 62 20 8 11 20
20 28 20 18 0 62 46 62 65 0 11 -11 15 -40 15 -30 0 -40 -4 -40 -16z"/>
</g>
</svg>
