<?xml version="1.0" standalone="no"?>
<!DOCTYPE svg PUBLIC "-//W3C//DTD SVG 20010904//EN"
 "http://www.w3.org/TR/2001/REC-SVG-20010904/DTD/svg10.dtd">
<svg version="1.0" xmlns="http://www.w3.org/2000/svg"
 width="3950.000000pt" height="3506.000000pt" viewBox="0 0 3950.000000 3506.000000"
 preserveAspectRatio="xMidYMid meet">
<metadata>
Created by potrace 1.16, written by Peter Selinger 2001-2019
</metadata>
<g transform="translate(0.000000,3506.000000) scale(0.100000,-0.100000)"
fill="#ffffff" stroke="#000000" stroke-width="5.00">
<path d="M26063 21623 c-7 -2 -13 -9 -13 -15 0 -5 -13 -23 -30 -38 -16 -15
-30 -33 -30 -39 0 -6 -4 -11 -10 -11 -5 0 -10 -9 -10 -20 0 -11 -4 -20 -10
-20 -5 0 -10 -11 -10 -25 0 -14 -4 -25 -10 -25 -5 0 -10 -24 -10 -53 0 -41 -4
-56 -20 -67 -13 -9 -20 -26 -20 -47 0 -18 -4 -33 -10 -33 -5 0 -10 -9 -10 -20
0 -11 -4 -20 -10 -20 -5 0 -10 -9 -10 -20 0 -11 -4 -20 -10 -20 -5 0 -10 -7
-10 -15 0 -8 -4 -15 -10 -15 -5 0 -10 -8 -10 -18 0 -10 -9 -24 -20 -32 -11 -8
-20 -22 -20 -32 0 -10 -4 -18 -10 -18 -5 0 -10 -6 -10 -13 0 -7 -9 -19 -20
-27 -11 -8 -20 -19 -20 -24 0 -12 -38 -44 -61 -51 -11 -4 -19 -12 -19 -18 0
-7 -9 -19 -20 -27 -11 -8 -20 -19 -20 -25 0 -12 -62 -45 -84 -45 -19 0 -56
-35 -56 -54 0 -9 -4 -16 -10 -16 -5 0 -10 -16 -10 -36 0 -41 -29 -74 -64 -74
-31 0 -128 -28 -135 -38 -3 -5 -22 -17 -41 -27 -19 -10 -37 -21 -40 -25 -3 -4
-34 -22 -70 -40 -71 -36 -186 -70 -239 -70 -19 0 -61 -9 -93 -21 -32 -11 -95
-26 -140 -34 -115 -18 -298 -84 -298 -107 0 -4 -7 -8 -15 -8 -31 0 -80 -31
-139 -86 -45 -43 -61 -50 -136 -64 -35 -6 -90 -25 -123 -42 -69 -34 -79 -34
-237 8 -97 26 -109 27 -182 16 -42 -6 -95 -20 -117 -32 -22 -11 -56 -20 -75
-20 -27 0 -44 -9 -76 -40 -23 -22 -46 -40 -51 -40 -5 0 -9 -5 -9 -11 0 -11
-84 -95 -120 -119 -12 -8 -28 -20 -34 -26 -7 -7 -32 -22 -57 -34 -24 -13 -46
-26 -49 -29 -8 -11 -78 -30 -170 -46 -47 -9 -109 -23 -138 -32 -124 -36 -392
8 -472 77 -17 15 -20 31 -20 109 0 54 4 91 10 91 6 0 10 25 10 55 0 30 -4 55
-10 55 -5 0 -10 6 -10 13 0 16 -41 37 -71 37 -20 0 -71 -23 -96 -44 -44 -36
-193 -187 -193 -196 0 -5 -4 -10 -10 -10 -5 0 -10 -7 -10 -15 0 -8 -4 -15 -10
-15 -5 0 -10 -9 -10 -20 0 -11 -4 -20 -10 -20 -5 0 -10 -7 -10 -15 0 -8 -4
-15 -10 -15 -5 0 -10 -9 -10 -20 0 -11 -4 -20 -10 -20 -5 0 -10 -7 -10 -15 0
-8 -4 -15 -10 -15 -5 0 -10 -9 -10 -20 0 -11 -4 -20 -10 -20 -5 0 -10 -7 -10
-15 0 -8 -4 -15 -10 -15 -5 0 -10 -6 -10 -13 0 -7 -9 -19 -21 -27 -11 -8 -29
-22 -39 -30 -10 -8 -28 -22 -39 -30 -12 -8 -21 -20 -21 -27 0 -7 -4 -13 -10
-13 -5 0 -10 -7 -10 -15 0 -8 -4 -15 -10 -15 -5 0 -10 -9 -10 -20 0 -11 -4
-20 -10 -20 -5 0 -10 -22 -10 -50 0 -27 5 -50 10 -50 6 0 10 -6 10 -13 0 -7
10 -19 21 -27 12 -8 27 -20 34 -27 32 -31 101 -46 210 -48 119 -1 195 -11 195
-26 0 -5 14 -6 30 -2 17 3 30 2 30 -3 0 -5 21 -10 48 -10 26 -1 74 -9 107 -19
33 -9 80 -21 105 -26 76 -16 80 -18 80 -51 0 -20 -9 -39 -30 -58 -16 -15 -30
-31 -30 -35 0 -3 -22 -27 -50 -53 -63 -60 -71 -67 -100 -82 -26 -14 -39 -24
-74 -57 -13 -12 -52 -36 -87 -53 -34 -18 -68 -37 -75 -44 -6 -6 -22 -18 -34
-26 -13 -8 -33 -25 -45 -37 -12 -12 -46 -33 -76 -48 -57 -29 -79 -47 -79 -64
0 -6 -4 -11 -10 -11 -5 0 -10 -22 -10 -50 0 -27 -4 -50 -10 -50 -5 0 -10 -25
-10 -55 0 -30 5 -55 10 -55 6 0 10 -16 10 -35 0 -19 5 -35 10 -35 6 0 10 -25
10 -55 0 -30 -4 -55 -10 -55 -5 0 -10 -7 -10 -15 0 -8 -4 -15 -10 -15 -5 0
-10 -7 -10 -15 0 -8 -4 -15 -10 -15 -5 0 -10 -9 -10 -20 0 -11 -4 -20 -10 -20
-5 0 -10 -11 -10 -25 0 -14 -4 -25 -10 -25 -5 0 -10 -11 -10 -25 0 -14 -4 -25
-10 -25 -5 0 -10 -8 -10 -18 0 -10 -9 -24 -20 -32 -11 -8 -20 -20 -20 -27 0
-7 -4 -13 -10 -13 -5 0 -10 -5 -10 -11 0 -10 -24 -34 -73 -75 -23 -20 -76 -44
-135 -64 -31 -11 -95 -33 -142 -49 -47 -17 -123 -37 -170 -46 -47 -8 -116 -22
-155 -30 -38 -7 -92 -17 -120 -20 -27 -3 -64 -11 -81 -17 -22 -8 -59 -7 -135
2 -132 16 -158 16 -296 -6 -99 -15 -126 -16 -219 -5 -58 6 -120 18 -137 26
-44 19 -199 43 -337 51 -63 4 -135 13 -160 22 -63 21 -516 18 -645 -4 -49 -8
-92 -17 -96 -20 -4 -2 -94 -8 -200 -13 -168 -8 -197 -7 -226 7 -18 9 -33 19
-33 23 0 9 -47 26 -94 34 -22 4 -79 26 -128 51 -48 24 -96 44 -107 44 -36 0
-126 34 -148 57 -14 13 -23 34 -23 53 0 16 -4 30 -10 30 -5 0 -10 18 -10 40 0
22 5 40 10 40 6 0 10 7 10 15 0 8 -4 15 -10 15 -14 0 -12 37 3 43 10 4 10 6 0
6 -8 1 -13 16 -13 41 0 22 -4 40 -10 40 -5 0 -10 20 -10 45 0 25 -4 45 -10 45
-5 0 -10 14 -10 30 0 17 5 30 10 30 15 0 12 59 -3 75 -44 43 -201 98 -322 111
-43 5 -88 21 -160 57 -84 43 -110 51 -160 52 -104 3 -105 4 -105 94 l0 78 53
22 c150 66 165 70 247 77 92 7 126 12 270 44 52 12 127 25 167 30 70 9 123 28
151 56 7 8 18 14 23 14 5 0 9 9 9 20 0 11 5 20 10 20 6 0 10 9 10 20 0 11 5
20 10 20 6 0 10 7 10 15 0 8 5 15 10 15 6 0 10 6 10 14 0 8 6 17 13 20 10 5
10 7 0 12 -7 3 -13 10 -13 16 0 14 -40 48 -57 48 -7 0 -35 11 -61 24 -27 13
-66 27 -88 31 -21 4 -50 10 -64 15 -14 5 -59 18 -100 30 -91 26 -150 50 -150
62 0 4 -7 8 -15 8 -18 0 -132 56 -151 74 -6 6 -22 18 -34 26 -20 14 -47 34
-76 59 -6 5 -31 19 -55 31 -24 13 -46 26 -49 30 -3 4 -20 15 -38 24 -19 10
-58 42 -88 72 -42 41 -54 61 -54 84 0 16 -4 30 -10 30 -5 0 -10 16 -10 35 0
19 5 35 10 35 6 0 10 21 10 46 0 38 5 51 30 74 17 15 30 33 30 39 0 6 5 11 10
11 6 0 10 7 10 15 0 8 5 15 10 15 6 0 10 7 10 15 0 8 5 15 10 15 6 0 10 7 10
15 0 8 5 15 10 15 6 0 10 14 10 30 0 17 5 30 10 30 6 0 10 11 10 25 0 14 -4
25 -10 25 -5 0 -10 16 -10 35 0 19 -4 35 -10 35 -5 0 -10 11 -10 25 0 14 -4
25 -10 25 -5 0 -10 7 -10 15 0 8 -4 15 -10 15 -5 0 -10 11 -10 25 0 14 -4 25
-10 25 -5 0 -10 11 -10 25 0 14 -4 25 -10 25 -5 0 -10 7 -10 16 0 11 -5 14
-16 10 -9 -3 -18 -6 -20 -6 -2 0 -4 -5 -4 -11 0 -22 -33 -41 -93 -54 -34 -8
-105 -24 -157 -36 -123 -28 -218 -34 -289 -19 -44 9 -67 9 -100 0 -44 -11
-101 0 -101 21 0 9 -65 29 -97 29 -12 0 -28 -7 -36 -14 -8 -8 -55 -22 -104
-30 -81 -14 -101 -14 -209 0 -112 14 -145 22 -269 62 -27 8 -108 19 -180 23
-294 18 -538 44 -590 63 -55 21 -88 20 -115 -4 -13 -11 -27 -20 -31 -20 -5 0
-62 -53 -127 -117 -66 -65 -129 -125 -141 -133 -13 -8 -32 -23 -43 -32 -11
-10 -29 -20 -39 -23 -11 -4 -19 -10 -19 -14 0 -5 -14 -14 -30 -21 -16 -7 -30
-16 -30 -20 0 -3 -22 -17 -50 -30 -27 -13 -50 -26 -50 -30 0 -3 -27 -19 -60
-35 -33 -16 -60 -32 -60 -37 0 -4 -7 -8 -15 -8 -8 0 -43 -13 -77 -29 -134 -62
-243 -96 -638 -197 -96 -25 -195 -52 -220 -61 -82 -30 -753 -28 -1075 3 -92 9
-232 -32 -283 -82 -7 -8 -17 -14 -21 -14 -13 0 -51 -36 -51 -49 0 -6 -4 -11
-10 -11 -5 0 -10 -6 -10 -13 0 -7 -9 -19 -20 -27 -14 -10 -20 -26 -20 -52 0
-21 5 -38 10 -38 15 0 12 -77 -2 -83 -10 -4 -10 -6 0 -6 7 -1 12 -14 12 -31 0
-16 5 -30 10 -30 6 0 10 -35 10 -86 0 -93 3 -100 60 -129 37 -19 60 -39 60
-52 0 -5 9 -15 20 -23 11 -8 20 -22 20 -32 0 -10 5 -18 10 -18 6 0 10 -11 10
-25 0 -14 5 -25 10 -25 6 0 10 -32 10 -75 0 -43 -4 -75 -10 -75 -5 0 -10 -22
-10 -50 0 -27 -4 -50 -10 -50 -5 0 -10 -20 -10 -45 0 -25 -4 -45 -10 -45 -5 0
-10 -9 -10 -20 0 -11 -4 -20 -10 -20 -5 0 -10 -11 -10 -25 0 -14 -4 -25 -10
-25 -5 0 -10 -7 -10 -15 0 -8 -4 -15 -10 -15 -5 0 -10 -7 -10 -15 0 -8 -4 -15
-10 -15 -5 0 -10 -7 -10 -15 0 -8 -4 -15 -10 -15 -5 0 -10 -9 -10 -20 0 -11
-4 -20 -10 -20 -5 0 -10 -7 -10 -15 0 -8 -4 -15 -10 -15 -5 0 -10 -13 -10 -30
0 -16 -4 -30 -10 -30 -5 0 -10 -7 -10 -15 0 -8 -4 -15 -10 -15 -5 0 -10 -11
-10 -25 0 -14 -4 -25 -10 -25 -5 0 -10 -13 -10 -30 0 -16 -4 -30 -10 -30 -5 0
-10 -22 -10 -50 0 -27 -4 -50 -10 -50 -5 0 -10 -11 -10 -25 0 -14 -4 -25 -10
-25 -5 0 -10 -11 -10 -25 0 -14 -4 -25 -10 -25 -5 0 -10 -7 -10 -15 0 -8 -4
-15 -10 -15 -5 0 -10 -13 -10 -28 0 -16 -8 -34 -20 -42 -11 -8 -20 -21 -20
-28 0 -8 -13 -27 -30 -42 -16 -15 -30 -33 -30 -39 0 -6 -4 -11 -10 -11 -5 0
-10 -5 -10 -10 0 -6 -21 -31 -46 -56 -46 -46 -124 -84 -172 -84 -50 0 -268
-79 -306 -111 -43 -36 -76 -68 -76 -74 0 -13 -102 -105 -116 -105 -8 0 -46
-16 -85 -36 -71 -35 -119 -73 -119 -94 0 -5 -4 -10 -10 -10 -5 0 -10 -7 -10
-15 0 -8 -4 -15 -10 -15 -5 0 -10 -6 -10 -14 0 -8 -9 -18 -20 -21 -11 -3 -26
-12 -33 -20 -8 -7 -42 -27 -76 -45 -58 -29 -111 -70 -111 -85 0 -11 -25 -32
-60 -50 -19 -10 -40 -24 -48 -31 -7 -8 -18 -14 -23 -14 -5 0 -9 -6 -9 -13 0
-7 -9 -19 -20 -27 -11 -8 -20 -20 -20 -27 0 -7 -19 -17 -42 -23 -24 -6 -58
-17 -76 -25 -33 -15 -45 -25 -170 -145 -40 -39 -79 -70 -86 -70 -25 0 -121
-34 -135 -48 -11 -11 -30 -13 -76 -8 -34 3 -97 1 -141 -5 -78 -10 -214 -50
-237 -69 -7 -5 -27 -22 -44 -37 -18 -16 -39 -33 -46 -39 -7 -6 -38 -17 -67
-24 -30 -7 -86 -23 -125 -35 -127 -41 -183 -40 -235 5 -33 29 -84 41 -123 28
-17 -5 -48 -14 -67 -18 -19 -5 -53 -15 -75 -24 -22 -8 -60 -15 -84 -16 -24 0
-73 -5 -109 -11 -58 -10 -69 -16 -117 -65 l-54 -53 -148 6 -148 6 -90 -46
c-94 -47 -201 -74 -372 -96 -44 -6 -101 -19 -125 -30 -23 -10 -63 -27 -87 -37
-45 -19 -121 -84 -121 -103 0 -6 -4 -11 -10 -11 -5 0 -10 -6 -10 -13 0 -8 -22
-24 -49 -36 -61 -29 -91 -22 -91 20 0 16 -4 29 -10 29 -5 0 -10 7 -10 15 0 8
-4 15 -10 15 -5 0 -10 6 -10 14 0 8 -9 18 -20 21 -11 3 -20 10 -20 14 0 4 -39
25 -88 48 -181 84 -192 89 -342 133 -41 12 -106 33 -145 45 -121 40 -225 44
-225 10 0 -25 -80 -37 -275 -44 -104 -4 -195 -10 -202 -14 -7 -4 -31 2 -54 13
-48 25 -89 20 -89 -10 0 -11 5 -20 10 -20 6 0 10 -9 10 -19 0 -11 9 -23 20
-26 11 -3 20 -10 20 -15 0 -5 9 -12 20 -15 15 -5 20 -15 20 -40 0 -25 5 -35
20 -40 16 -5 20 -15 20 -51 0 -24 -4 -44 -10 -44 -5 0 -10 -18 -10 -40 0 -22
-4 -40 -10 -40 -5 0 -10 -9 -10 -20 0 -11 -4 -20 -10 -20 -5 0 -10 -7 -10 -15
0 -8 -4 -15 -10 -15 -5 0 -10 -13 -10 -30 0 -16 -4 -30 -10 -30 -5 0 -10 -7
-10 -15 0 -8 5 -15 10 -15 6 0 10 -7 10 -16 0 -8 6 -21 13 -28 34 -35 150 -76
214 -76 24 0 43 -11 82 -49 44 -43 51 -55 51 -88 0 -27 6 -43 20 -53 11 -8 20
-20 20 -27 0 -7 5 -13 10 -13 6 0 10 -30 10 -71 0 -66 -2 -73 -30 -99 -16 -15
-30 -35 -30 -44 0 -9 -4 -16 -10 -16 -5 0 -10 -16 -10 -35 0 -19 5 -35 10 -35
6 0 10 -9 10 -20 0 -11 5 -20 10 -20 6 0 10 -9 10 -20 0 -11 5 -20 10 -20 6 0
10 -8 10 -18 0 -10 9 -24 20 -32 11 -8 20 -18 20 -23 0 -9 60 -68 101 -99 12
-10 43 -20 68 -23 61 -8 105 -19 171 -44 63 -24 231 -61 242 -54 4 2 72 -1
149 -7 l142 -11 139 -70 c148 -74 215 -90 252 -58 9 8 30 26 46 40 16 15 46
30 67 34 20 4 55 16 76 27 22 11 49 17 60 14 11 -3 37 4 58 15 21 10 45 19 54
19 8 0 15 6 15 13 0 7 28 27 62 43 34 16 72 39 84 51 12 12 38 25 58 28 20 4
36 11 36 15 0 17 51 28 111 23 141 -11 159 -9 404 53 33 8 71 16 85 18 14 1
34 8 46 14 11 6 59 14 106 18 71 5 97 3 154 -14 38 -11 115 -28 172 -37 154
-25 253 -4 326 68 18 18 54 42 81 54 60 26 208 73 230 73 9 0 29 7 45 15 16 8
64 20 107 26 43 6 132 24 198 41 66 17 152 34 190 38 232 26 333 39 355 48 35
15 179 40 273 48 42 3 77 10 77 15 0 5 39 9 88 9 100 0 212 21 292 56 30 13
84 31 120 39 36 9 81 22 100 30 65 27 244 57 388 64 79 4 147 12 150 18 4 5
19 13 33 16 14 4 36 16 49 27 13 12 37 20 57 20 37 0 89 23 113 50 23 26 97
61 114 54 9 -3 16 -12 16 -20 0 -17 42 -28 75 -20 13 3 35 17 48 30 13 13 39
32 57 41 18 9 48 31 66 48 68 64 82 75 115 92 19 10 36 21 39 25 3 4 20 15 39
24 18 10 49 33 68 52 18 19 38 34 43 34 6 0 10 6 10 13 0 7 9 19 20 27 11 8
20 22 20 32 0 10 5 18 10 18 6 0 10 9 10 20 0 11 5 20 10 20 6 0 10 7 10 15 0
8 5 15 10 15 6 0 10 7 10 15 0 8 5 15 10 15 6 0 10 7 10 15 0 8 5 15 10 15 6
0 10 5 10 11 0 6 18 28 40 49 22 21 40 46 40 54 0 9 5 16 10 16 6 0 10 18 10
40 0 22 5 40 10 40 6 0 10 23 10 50 0 28 -4 50 -10 50 -6 0 -10 43 -10 110 0
67 -4 110 -10 110 -6 0 -10 28 -10 65 0 37 4 65 10 65 6 0 10 7 10 15 0 8 5
15 10 15 6 0 10 7 10 15 0 8 5 15 10 15 6 0 10 7 10 15 0 8 5 15 10 15 6 0 10
7 10 15 0 8 5 15 10 15 6 0 10 9 10 20 0 11 5 20 10 20 6 0 10 7 10 15 0 8 5
15 10 15 6 0 10 7 10 15 0 8 5 15 10 15 6 0 10 7 10 15 0 8 5 15 10 15 6 0 10
11 10 25 0 14 5 25 10 25 6 0 10 9 10 20 0 11 5 20 10 20 6 0 10 9 10 20 0 11
5 20 10 20 6 0 10 11 10 25 0 14 5 25 10 25 6 0 10 21 10 46 0 39 5 50 31 74
56 49 60 52 109 70 48 18 59 25 104 67 13 12 64 42 113 66 76 39 100 46 172
51 54 4 97 14 124 27 30 16 50 19 80 15 59 -10 92 -30 171 -109 40 -40 83 -79
95 -87 21 -14 47 -34 77 -59 6 -5 40 -24 75 -42 35 -17 66 -35 69 -39 3 -4 57
-33 120 -65 63 -32 117 -61 120 -65 3 -4 34 -22 70 -40 36 -18 67 -36 70 -40
3 -4 25 -18 50 -30 25 -12 47 -26 50 -30 3 -4 25 -17 49 -30 24 -12 49 -26 55
-31 47 -40 60 -49 67 -49 10 0 89 -77 89 -87 0 -5 9 -15 21 -23 12 -8 35 -27
53 -42 17 -16 48 -43 69 -60 58 -50 217 -206 217 -213 0 -4 18 -24 40 -45 22
-21 40 -41 40 -45 0 -4 18 -24 40 -45 22 -21 40 -42 40 -47 0 -5 9 -15 20 -23
11 -8 20 -20 20 -27 0 -7 5 -13 10 -13 6 0 10 -11 10 -25 0 -14 5 -25 10 -25
6 0 10 -9 10 -20 0 -11 5 -20 10 -20 6 0 10 -11 10 -25 0 -14 5 -25 10 -25 6
0 10 -7 10 -15 0 -8 5 -15 10 -15 6 0 10 -7 10 -15 0 -8 5 -15 10 -15 6 0 10
-7 10 -15 0 -8 5 -15 10 -15 6 0 10 -9 10 -20 0 -11 5 -20 10 -20 6 0 10 -9
10 -20 0 -11 5 -20 10 -20 6 0 10 -9 10 -20 0 -11 5 -20 10 -20 6 0 10 -7 10
-15 0 -18 56 -77 90 -95 27 -14 189 -33 301 -34 72 -1 78 -3 106 -33 29 -31
71 -51 163 -77 25 -7 56 -18 67 -25 12 -6 36 -11 53 -11 17 0 41 -5 52 -11 23
-12 88 -75 88 -84 0 -3 45 -50 100 -105 55 -55 100 -104 100 -110 0 -5 4 -10
8 -10 18 0 152 -121 152 -137 0 -5 9 -15 20 -23 11 -8 20 -18 20 -23 0 -20 84
-87 121 -97 52 -14 122 -4 184 28 40 20 69 27 140 30 88 4 91 3 122 -24 17
-16 40 -36 52 -44 12 -8 21 -22 21 -32 0 -10 5 -18 10 -18 6 0 10 -13 10 -30
0 -16 -4 -30 -10 -30 -5 0 -10 -16 -10 -35 0 -19 -4 -35 -10 -35 -5 0 -10 -9
-10 -20 0 -11 -4 -20 -10 -20 -5 0 -10 -5 -10 -11 0 -15 -39 -49 -57 -49 -21
0 -51 -32 -35 -38 18 -6 92 -79 92 -91 0 -6 5 -11 10 -11 7 0 10 -152 10 -435
0 -283 -3 -435 -10 -435 -6 0 -10 -112 -10 -315 0 -203 4 -315 10 -315 6 0 10
-16 10 -35 0 -19 5 -35 10 -35 6 0 10 -13 10 -30 0 -16 -4 -30 -10 -30 -5 0
-10 -20 -10 -45 0 -25 5 -45 10 -45 6 0 10 -37 10 -90 0 -53 -4 -90 -10 -90
-6 0 -10 -62 -10 -165 0 -103 -4 -165 -10 -165 -5 0 -10 -18 -10 -40 0 -22 -4
-40 -10 -40 -5 0 -10 -16 -10 -36 0 -27 -7 -43 -30 -64 -16 -15 -30 -37 -30
-49 0 -12 -4 -21 -10 -21 -5 0 -10 -5 -10 -11 0 -6 -13 -24 -30 -39 -16 -15
-30 -33 -30 -39 0 -6 -4 -11 -10 -11 -5 0 -10 -6 -10 -13 0 -7 -9 -19 -20 -27
-11 -8 -20 -19 -20 -25 0 -5 -14 -21 -31 -35 -60 -49 -129 -119 -129 -129 0
-6 -4 -11 -10 -11 -5 0 -10 -7 -10 -15 0 -8 -4 -15 -10 -15 -5 0 -10 -9 -10
-20 0 -11 -4 -20 -10 -20 -5 0 -10 -7 -10 -15 0 -8 -4 -15 -10 -15 -5 0 -10
-6 -10 -13 0 -7 -10 -19 -21 -27 -29 -20 -139 -127 -139 -135 0 -4 -13 -20
-30 -35 -16 -15 -30 -32 -30 -37 0 -5 -9 -15 -20 -23 -16 -12 -20 -26 -20 -72
0 -32 -4 -58 -10 -58 -6 0 -10 -38 -10 -95 0 -57 4 -95 10 -95 6 0 10 -7 10
-15 0 -8 5 -15 10 -15 6 0 10 -16 10 -35 0 -19 5 -35 10 -35 6 0 10 -13 10
-30 0 -16 5 -30 10 -30 6 0 10 -13 10 -30 0 -26 5 -31 40 -40 33 -9 40 -15 40
-35 0 -19 7 -26 28 -31 65 -16 112 -51 112 -83 0 -12 5 -21 10 -21 6 0 10 -9
10 -20 0 -11 5 -20 10 -20 6 0 10 -7 10 -15 0 -12 16 -15 85 -15 54 0 91 -5
101 -12 8 -7 28 -25 45 -40 17 -16 35 -28 40 -28 5 0 9 -8 9 -19 0 -12 9 -20
28 -24 15 -3 37 -14 50 -25 12 -11 36 -25 52 -32 17 -7 30 -16 30 -19 0 -4 27
-5 60 -3 40 3 60 1 60 -7 0 -6 -4 -11 -10 -11 -26 0 -5 -29 33 -45 75 -31 88
-35 107 -35 29 0 70 -22 70 -37 0 -7 5 -13 10 -13 6 0 10 -28 10 -65 0 -37 4
-65 10 -65 6 0 10 -7 10 -15 0 -8 -4 -15 -10 -15 -5 0 -10 -11 -10 -25 0 -14
-4 -25 -10 -25 -5 0 -10 -6 -10 -13 0 -7 -9 -19 -20 -27 -11 -8 -20 -18 -20
-23 0 -5 -13 -22 -30 -37 -16 -15 -30 -35 -30 -44 0 -9 -7 -16 -16 -16 -18 0
-44 -23 -44 -39 0 -6 -4 -11 -10 -11 -5 0 -10 -11 -10 -25 0 -14 -4 -25 -10
-25 -5 0 -10 -7 -10 -15 0 -8 9 -15 20 -15 11 0 20 -5 20 -11 0 -18 -60 -69
-81 -69 -10 0 -19 -7 -19 -15 0 -8 -4 -15 -10 -15 -5 0 -10 -7 -10 -15 0 -8
-4 -15 -10 -15 -5 0 -10 -7 -10 -15 0 -8 -4 -15 -10 -15 -5 0 -10 -6 -10 -13
0 -7 -9 -19 -20 -27 -11 -8 -20 -22 -20 -32 0 -10 -4 -18 -10 -18 -18 0 -11
-18 10 -25 18 -6 20 -15 20 -86 0 -46 -4 -79 -10 -79 -5 0 -10 -7 -10 -15 0
-8 -4 -15 -10 -15 -5 0 -10 -6 -10 -14 0 -8 -6 -17 -12 -20 -10 -5 -10 -7 0
-12 14 -7 17 -94 2 -94 -6 0 -10 -27 -10 -60 0 -33 -4 -60 -10 -60 -5 0 -10
-8 -10 -18 0 -10 -9 -24 -20 -32 -11 -8 -20 -20 -20 -27 0 -7 -4 -13 -10 -13
-5 0 -10 -7 -10 -16 0 -9 -13 -29 -30 -44 -16 -15 -30 -37 -30 -49 0 -12 -4
-21 -10 -21 -5 0 -10 -7 -10 -15 0 -8 -4 -15 -10 -15 -5 0 -10 -7 -10 -15 0
-8 -4 -15 -10 -15 -5 0 -10 -6 -10 -13 0 -7 -9 -19 -20 -27 -11 -8 -20 -19
-20 -25 0 -6 -9 -17 -20 -25 -11 -8 -20 -20 -20 -27 0 -7 -4 -13 -10 -13 -5 0
-10 -8 -10 -18 0 -10 -9 -24 -20 -32 -11 -8 -20 -20 -20 -27 0 -7 -4 -13 -10
-13 -5 0 -10 -7 -10 -16 0 -9 -13 -29 -30 -44 -16 -15 -30 -36 -30 -47 0 -10
-9 -25 -20 -33 -11 -8 -20 -22 -20 -32 0 -10 -4 -18 -10 -18 -5 0 -10 -6 -10
-14 0 -8 -9 -18 -20 -21 -13 -4 -20 -15 -20 -31 0 -13 -4 -24 -10 -24 -5 0
-10 -6 -10 -14 0 -8 -9 -18 -20 -21 -11 -3 -20 -12 -20 -18 0 -7 -9 -19 -20
-27 -11 -8 -20 -20 -20 -27 0 -7 -4 -13 -10 -13 -5 0 -10 -11 -10 -25 0 -14
-4 -25 -9 -25 -14 0 -131 -116 -131 -129 0 -6 -4 -11 -10 -11 -5 0 -10 -7 -10
-15 0 -8 -4 -15 -10 -15 -5 0 -10 -6 -10 -13 0 -7 -9 -19 -20 -27 -11 -8 -20
-19 -20 -25 0 -6 -9 -17 -20 -25 -11 -8 -20 -18 -20 -23 0 -4 -27 -35 -60 -67
-33 -32 -60 -63 -60 -67 0 -4 -14 -19 -31 -33 -57 -48 -89 -78 -89 -85 0 -10
-80 -85 -91 -85 -5 0 -9 -6 -9 -13 0 -7 -9 -19 -20 -27 -11 -8 -20 -20 -20
-27 0 -6 -8 -14 -19 -18 -21 -6 -61 -39 -61 -49 0 -4 -27 -34 -60 -66 -33 -32
-60 -66 -60 -74 0 -9 -4 -16 -10 -16 -5 0 -10 -7 -10 -15 0 -8 -4 -15 -10 -15
-5 0 -10 -9 -10 -20 0 -11 -4 -20 -10 -20 -5 0 -10 -11 -10 -25 0 -14 -4 -25
-10 -25 -5 0 -10 -22 -10 -50 0 -27 -4 -50 -10 -50 -5 0 -10 -11 -10 -25 0
-14 5 -25 10 -25 18 0 10 -45 -11 -60 -50 -36 -59 -48 -59 -84 0 -20 5 -36 10
-36 6 0 10 -16 10 -35 0 -19 5 -35 10 -35 6 0 10 -7 10 -15 0 -8 -4 -15 -10
-15 -5 0 -10 -11 -10 -25 0 -14 -4 -25 -10 -25 -5 0 -10 -9 -10 -20 0 -11 -4
-20 -10 -20 -5 0 -10 -5 -10 -11 0 -6 -13 -24 -30 -39 -16 -15 -30 -31 -30
-35 0 -4 -13 -20 -30 -35 -16 -15 -30 -35 -30 -44 0 -9 -4 -16 -10 -16 -5 0
-10 -5 -10 -11 0 -16 -22 -34 -71 -59 -55 -28 -56 -29 -39 -40 11 -6 7 -10
-15 -16 -32 -8 -55 -26 -55 -43 0 -6 5 -11 10 -11 18 0 11 -18 -10 -25 -11 -3
-20 -13 -20 -21 0 -8 -4 -14 -10 -14 -5 0 -10 -7 -10 -15 0 -8 -4 -15 -9 -15
-16 0 -71 -58 -71 -74 0 -9 -4 -16 -10 -16 -5 0 -10 -14 -10 -31 0 -22 -9 -40
-30 -59 -16 -15 -30 -31 -30 -34 0 -4 -31 -38 -70 -76 l-70 -69 0 -111 c0 -67
-4 -110 -10 -110 -5 0 -10 -18 -10 -40 0 -22 -4 -40 -10 -40 -5 0 -10 -13 -10
-30 0 -16 5 -30 10 -30 6 0 10 -9 10 -20 0 -13 7 -20 18 -20 11 0 29 -9 42
-20 15 -13 31 -18 44 -14 15 4 17 3 7 -4 -11 -8 -9 -11 8 -17 11 -3 21 -12 21
-20 0 -7 6 -16 13 -19 10 -5 10 -7 0 -12 -7 -3 -13 -14 -13 -24 0 -10 -6 -20
-12 -22 -9 -3 -8 -9 4 -21 9 -9 18 -17 21 -17 10 0 47 38 47 49 0 6 5 11 10
11 6 0 10 9 10 20 0 11 5 20 10 20 6 0 10 11 10 25 0 14 5 25 10 25 6 0 10 11
10 25 0 14 5 25 10 25 6 0 10 23 10 50 0 28 -4 50 -10 50 -6 0 -10 33 -10 78
0 66 3 80 20 92 11 8 20 20 20 27 0 7 5 13 10 13 6 0 10 9 10 20 0 11 5 20 10
20 6 0 10 11 10 25 0 14 5 25 10 25 6 0 10 7 10 15 0 8 5 15 10 15 6 0 10 9
10 20 0 11 5 20 10 20 6 0 10 7 10 15 0 8 5 15 10 15 6 0 10 7 10 15 0 8 5 15
10 15 6 0 10 9 10 20 0 11 5 20 10 20 6 0 10 9 10 20 0 11 5 20 10 20 6 0 10
11 10 25 0 14 5 25 10 25 6 0 10 7 10 15 0 8 5 15 10 15 6 0 10 14 10 30 0 17
5 30 10 30 6 0 10 5 10 11 0 6 14 24 30 39 21 19 30 37 30 59 0 17 5 31 10 31
6 0 10 6 10 13 0 7 9 19 20 27 11 8 20 23 20 33 0 23 16 39 60 62 19 10 37 21
40 25 3 4 21 15 40 25 56 29 60 37 60 124 l0 81 30 0 c25 0 30 -4 30 -25 0
-14 -4 -25 -10 -25 -5 0 -10 -13 -10 -30 0 -16 5 -30 10 -30 6 0 10 -7 10 -15
0 -8 5 -15 10 -15 6 0 10 5 10 11 0 6 14 24 31 40 23 22 41 29 70 29 28 0 39
4 39 15 0 8 5 15 10 15 6 0 10 22 10 49 0 50 -13 67 -44 55 -8 -3 -31 -1 -51
5 -29 8 -44 7 -64 -3 -47 -24 -89 -29 -106 -12 -17 16 -21 66 -5 66 6 0 10 11
10 25 0 14 5 25 10 25 6 0 10 16 10 35 0 19 5 35 10 35 6 0 10 8 10 18 0 10 9
24 20 32 11 8 20 20 20 27 0 7 5 13 10 13 6 0 10 18 10 40 0 22 5 40 10 40 6
0 10 9 10 20 0 11 5 20 10 20 6 0 10 11 10 25 0 14 5 25 10 25 6 0 10 9 10 20
0 11 5 20 10 20 6 0 10 14 10 30 0 17 5 30 10 30 6 0 10 6 10 13 0 7 9 19 20
27 11 8 20 18 20 23 0 5 14 22 30 37 17 15 30 33 30 39 0 6 5 11 10 11 6 0 10
7 10 15 0 8 5 15 10 15 6 0 10 5 10 10 0 25 51 61 95 67 28 3 45 11 45 19 0 8
5 14 10 14 6 0 10 5 10 11 0 6 14 24 30 39 17 15 30 33 30 39 0 6 5 11 10 11
6 0 10 9 10 20 0 11 5 20 10 20 6 0 10 9 10 20 0 11 5 20 10 20 6 0 10 7 10
15 0 8 5 15 10 15 6 0 10 9 10 20 0 11 5 20 10 20 6 0 10 7 10 15 0 8 5 15 10
15 6 0 10 7 10 15 0 8 5 15 10 15 6 0 10 6 10 13 0 7 9 19 20 27 11 8 20 18
20 23 0 5 14 22 30 37 17 15 30 33 30 40 0 7 14 25 30 40 17 15 30 37 30 49 0
12 4 21 9 21 13 0 71 56 71 69 0 6 5 11 10 11 6 0 10 12 10 26 0 26 20 54 40
54 14 0 40 25 40 39 0 6 5 11 10 11 6 0 10 7 10 15 0 8 5 15 10 15 6 0 10 9
10 20 0 11 5 20 10 20 6 0 10 7 10 16 0 11 6 14 20 9 14 -5 20 -2 20 9 0 9 5
16 10 16 6 0 10 7 10 15 0 8 5 15 10 15 6 0 10 7 10 15 0 8 5 15 10 15 6 0 10
7 10 15 0 8 5 15 10 15 6 0 10 7 10 15 0 8 5 15 10 15 6 0 10 7 10 15 0 8 5
15 10 15 6 0 10 7 10 15 0 8 5 15 10 15 6 0 10 7 10 15 0 8 5 15 10 15 6 0 10
7 10 15 0 8 5 15 10 15 6 0 10 7 10 15 0 8 5 15 10 15 6 0 10 7 10 15 0 8 5
15 10 15 6 0 10 7 10 15 0 8 5 15 10 15 6 0 10 7 10 15 0 8 5 15 10 15 6 0 10
7 10 15 0 8 5 15 10 15 6 0 10 7 10 15 0 8 5 15 10 15 6 0 10 8 10 18 0 10 9
24 20 32 11 8 20 19 20 25 0 6 9 17 20 25 11 8 20 20 20 27 0 7 5 13 10 13 6
0 10 11 10 25 0 14 4 25 9 25 5 0 23 12 40 28 16 15 44 38 60 52 17 14 31 33
31 43 0 9 5 17 10 17 6 0 10 7 10 15 0 8 5 15 10 15 6 0 10 6 10 13 0 7 9 19
20 27 11 8 20 20 20 27 0 7 5 13 10 13 6 0 10 7 10 15 0 8 5 15 10 15 6 0 10
7 10 15 0 9 36 51 80 95 44 44 80 84 80 90 0 5 7 10 15 10 8 0 56 20 107 44
51 24 112 52 136 62 37 15 42 21 42 49 0 29 3 32 33 32 93 2 167 16 167 33 0
4 14 13 30 20 17 7 30 16 30 21 0 12 91 23 99 11 3 -5 18 -8 34 -5 20 4 27 11
27 28 0 20 7 24 58 33 38 7 63 7 76 0 10 -6 39 -8 62 -5 41 4 44 3 44 -19 0
-21 5 -24 40 -24 33 0 40 3 40 20 0 19 6 19 143 16 78 -2 186 -4 240 -5 97 -1
97 -1 97 -26 0 -25 13 -31 44 -19 9 3 16 14 16 23 0 15 14 17 137 15 89 -1
139 -6 141 -13 7 -21 102 -11 102 11 0 12 -39 48 -52 48 -4 0 -8 41 -8 90 0
53 4 90 10 90 20 0 9 33 -21 61 -17 16 -35 29 -40 29 -5 0 -9 7 -9 15 0 8 -4
15 -10 15 -5 0 -10 7 -10 15 0 8 -4 15 -10 15 -5 0 -10 14 -10 30 0 17 -4 30
-10 30 -5 0 -10 7 -10 15 0 8 -4 15 -10 15 -5 0 -10 5 -10 11 0 11 -41 53 -79
79 -12 8 -21 20 -21 27 0 7 -9 13 -20 13 -11 0 -20 5 -20 10 0 6 -9 10 -20 10
-13 0 -20 7 -20 20 0 11 -4 20 -10 20 -5 0 -10 7 -10 16 0 9 -13 29 -30 44
-21 20 -30 37 -30 60 0 33 -30 70 -56 70 -24 0 -84 -33 -84 -47 0 -7 -4 -13
-10 -13 -5 0 -10 -5 -10 -10 0 -14 -40 -54 -69 -70 -28 -14 -118 -4 -138 16
-35 34 -123 40 -215 14 -35 -10 -38 -14 -38 -45 l0 -35 -56 0 c-30 0 -65 5
-76 11 -16 9 -39 9 -87 0 -36 -6 -146 -12 -243 -15 l-178 -4 0 38 c0 34 -3 38
-32 44 -18 3 -63 16 -100 27 -53 16 -68 25 -68 40 0 10 -4 19 -9 19 -5 0 -16
6 -23 13 -21 19 -81 38 -88 27 -7 -12 -80 7 -80 20 0 6 -11 10 -24 10 -32 0
-144 36 -160 52 -8 7 -24 20 -36 28 -13 8 -33 25 -46 38 -32 31 -129 60 -181
54 -37 -3 -46 0 -77 30 -50 47 -62 57 -91 70 -14 6 -25 14 -25 18 0 6 -130 69
-187 90 -18 7 -33 19 -33 26 0 8 -4 14 -10 14 -6 0 -10 37 -10 90 0 53 4 90
10 90 6 0 10 9 10 20 0 11 -4 20 -10 20 -5 0 -10 7 -10 15 0 8 9 15 20 15 11
0 20 7 20 15 0 8 5 15 10 15 6 0 10 5 10 11 0 13 38 49 52 49 4 0 8 7 8 15 0
8 5 15 10 15 6 0 10 6 10 13 0 7 9 19 20 27 11 8 20 20 20 27 0 7 4 13 8 13
13 0 52 36 52 47 0 11 43 33 64 33 15 0 47 26 165 130 18 17 39 30 47 30 24 0
124 54 124 67 0 7 5 13 10 13 6 0 10 9 10 20 0 11 5 20 10 20 6 0 10 11 10 24
0 13 6 27 13 29 10 4 10 6 0 6 -16 1 -18 121 -3 121 6 0 10 25 10 55 0 30 -4
55 -10 55 -6 0 -10 32 -10 76 0 71 1 75 20 69 16 -5 20 -2 20 15 0 25 -22 50
-44 50 -11 0 -16 9 -16 26 0 24 3 26 30 21 l30 -6 0 219 c0 140 -4 220 -10
220 -5 0 -10 9 -10 20 0 11 -4 20 -10 20 -22 0 -9 53 20 80 29 27 42 80 20 80
-5 0 -10 16 -10 35 0 19 -4 35 -10 35 -6 0 -10 37 -10 90 0 53 4 90 10 90 6 0
10 93 10 260 0 167 4 260 10 260 6 0 10 22 10 49 0 30 5 51 13 54 10 4 10 6 0
6 -16 1 -18 91 -3 91 6 0 10 16 10 35 0 19 -4 35 -10 35 -5 0 -10 14 -10 30 0
17 5 30 10 30 6 0 10 18 10 40 0 22 5 40 10 40 6 0 10 16 10 35 0 19 5 35 10
35 6 0 10 14 10 30 0 17 5 30 10 30 6 0 10 14 10 30 0 17 5 30 10 30 6 0 10
14 10 30 0 17 5 30 10 30 6 0 10 14 10 31 0 38 27 64 77 74 20 3 41 12 48 18
7 7 22 19 34 27 11 8 21 20 21 27 0 7 5 13 10 13 6 0 10 7 10 15 0 8 5 15 10
15 6 0 10 28 10 65 0 37 -4 65 -10 65 -5 0 -10 9 -10 20 0 11 -4 20 -10 20 -5
0 -10 8 -10 18 0 34 64 54 147 47 73 -7 133 5 133 27 0 15 62 69 74 65 6 -2
65 -17 131 -32 66 -15 135 -33 153 -41 39 -17 74 -18 122 -4 24 7 69 6 145 -2
101 -11 374 -19 601 -17 119 1 230 -36 291 -97 13 -13 28 -24 33 -24 5 0 15
-6 22 -14 19 -19 74 -46 93 -46 8 0 15 -4 15 -9 0 -5 13 -14 30 -21 26 -11 39
-20 86 -59 6 -5 26 -17 44 -26 38 -20 44 -24 109 -85 27 -25 59 -52 71 -60 12
-8 28 -20 34 -26 32 -31 127 -64 184 -64 23 0 42 4 42 9 0 5 9 13 20 16 11 3
20 13 20 22 0 16 18 35 60 63 13 8 33 25 45 36 58 57 70 59 340 56 264 -2 396
-17 464 -51 60 -30 195 -56 366 -70 83 -6 124 -15 165 -34 53 -24 146 -50 240
-66 25 -5 81 -15 125 -24 134 -26 307 -47 396 -47 62 0 99 -6 139 -21 30 -12
89 -33 130 -46 41 -14 100 -34 130 -45 30 -11 66 -21 80 -22 35 -4 100 -37
100 -51 0 -11 34 -28 135 -69 44 -18 166 -46 203 -46 12 0 22 -3 22 -7 0 -5
35 -8 78 -7 60 0 87 -4 122 -22 59 -29 100 -37 179 -35 63 1 162 23 246 55 22
8 50 15 61 16 30 0 126 32 141 46 6 6 26 16 45 23 18 7 50 20 71 29 34 14 44
14 115 -1 42 -9 98 -19 123 -21 54 -6 76 -15 257 -102 181 -88 230 -86 325 8
29 30 68 60 85 67 18 8 32 17 32 22 0 4 17 13 38 19 22 5 49 18 61 29 12 10
34 23 49 29 55 21 229 70 307 87 44 10 96 24 115 33 91 38 170 76 170 82 0 4
18 15 40 25 22 10 40 22 40 26 0 4 10 10 23 14 12 3 66 27 120 52 93 45 97 49
97 79 0 18 -6 35 -12 37 -10 4 -10 6 0 6 6 1 12 6 12 11 0 26 95 102 180 145
85 43 180 119 180 145 0 5 5 10 10 10 6 0 10 6 10 13 0 7 9 19 20 27 11 8 20
19 20 25 0 6 9 17 20 25 11 8 20 20 20 27 0 7 5 13 10 13 6 0 10 9 10 20 0 11
5 20 10 20 6 0 10 11 10 25 0 14 5 25 10 25 6 0 10 18 10 40 0 22 5 40 10 40
6 0 10 7 10 15 0 8 5 15 10 15 6 0 10 5 10 11 0 13 117 129 131 129 5 0 9 25
9 55 0 30 5 55 10 55 6 0 10 9 10 20 0 11 5 20 10 20 6 0 10 6 10 13 0 7 9 19
21 27 11 8 30 23 41 33 12 9 25 17 29 17 4 0 31 23 59 50 28 28 53 50 55 50
13 0 55 -25 55 -32 0 -30 113 -88 170 -88 41 0 91 20 118 46 7 8 18 14 23 14
5 0 9 6 9 13 0 7 10 19 21 27 12 8 27 20 33 26 34 33 151 79 283 114 25 6 58
26 82 49 22 21 54 44 73 50 18 7 53 21 78 32 25 10 70 26 100 34 30 9 71 23
90 32 19 8 60 23 91 33 31 10 75 28 97 39 23 12 72 25 110 31 83 12 102 18
102 35 0 7 6 16 13 18 10 4 10 6 0 6 -8 1 -13 14 -13 31 0 17 -4 30 -10 30 -5
0 -10 7 -10 15 0 8 -4 15 -10 15 -5 0 -10 7 -10 15 0 23 -46 65 -83 77 -40 12
-190 28 -327 35 -99 4 -178 -3 -280 -26 -71 -16 -310 13 -374 46 -61 31 -76
45 -76 72 0 12 -4 21 -10 21 -6 0 -10 33 -10 80 0 47 -4 80 -10 80 -5 0 -10
20 -10 45 0 25 5 45 10 45 6 0 10 8 10 18 0 10 10 24 21 32 12 8 27 20 33 26
18 17 93 54 110 54 8 0 16 4 18 9 2 5 45 30 97 55 51 26 98 52 105 57 49 41
61 49 73 49 8 0 31 9 53 20 30 15 72 22 177 29 76 5 158 16 183 24 25 9 70 19
100 22 30 4 73 13 95 20 32 10 51 10 100 0 33 -7 71 -17 85 -23 88 -35 110
-46 110 -52 0 -4 13 -10 29 -13 16 -3 35 -12 42 -20 8 -7 26 -17 40 -20 14 -4
36 -16 49 -27 13 -11 40 -25 62 -30 21 -6 38 -15 38 -20 0 -5 9 -12 20 -15 22
-7 120 -99 120 -112 0 -5 9 -15 20 -23 11 -8 20 -20 20 -27 0 -7 5 -13 10 -13
6 0 10 -7 10 -15 0 -8 5 -15 10 -15 6 0 10 -6 10 -13 0 -7 9 -19 20 -27 12 -8
20 -26 20 -42 0 -15 5 -28 10 -28 6 0 10 -16 10 -35 0 -19 -4 -35 -10 -35 -5
0 -10 -19 -10 -42 1 -36 6 -47 31 -68 17 -14 45 -39 64 -57 48 -46 99 -70 256
-123 72 -24 155 -66 185 -93 35 -33 48 -43 74 -57 13 -7 34 -23 47 -36 13 -13
28 -24 32 -24 4 0 19 -9 32 -20 13 -11 37 -30 52 -42 16 -13 39 -33 51 -44 59
-56 81 -59 252 -38 47 5 59 2 144 -41 51 -26 99 -52 105 -58 7 -7 23 -19 35
-27 12 -8 28 -20 34 -26 7 -7 37 -24 66 -39 69 -35 149 -43 210 -20 93 34 147
46 225 49 102 4 155 19 194 54 48 43 56 49 82 62 13 7 26 16 29 20 3 4 34 23
70 41 61 32 71 34 180 37 63 1 159 4 213 7 77 4 114 1 174 -14 42 -11 79 -24
82 -29 3 -5 30 -21 59 -36 59 -30 105 -28 143 5 12 10 26 19 31 19 4 0 8 7 8
15 0 8 5 15 10 15 6 0 10 5 10 11 0 6 14 24 30 39 17 15 30 32 30 37 0 5 9 15
20 23 11 8 20 20 20 27 0 7 5 13 10 13 6 0 10 5 10 10 0 6 41 51 90 100 50 49
90 94 90 100 0 5 4 10 8 10 5 0 18 8 30 18 11 9 30 24 42 32 12 8 31 23 42 33
12 9 33 17 48 17 24 0 37 8 87 50 7 5 24 15 38 22 14 6 25 14 25 18 0 4 14 13
30 20 17 7 30 16 30 21 0 4 9 10 19 14 11 3 34 18 50 33 17 15 44 38 61 52 51
41 150 138 150 147 0 5 9 15 20 23 11 8 20 20 20 27 0 7 5 13 10 13 6 0 10 14
10 30 0 17 -4 30 -10 30 -5 0 -10 9 -10 20 0 11 5 20 10 20 6 0 10 16 10 35 0
19 5 35 10 35 6 0 10 5 10 11 0 6 18 28 40 49 22 21 40 48 40 59 0 12 5 21 10
21 6 0 10 16 10 35 0 19 5 35 10 35 6 0 10 30 10 70 0 40 4 70 10 70 6 0 10
18 10 40 0 22 5 40 10 40 6 0 10 20 10 45 0 25 5 45 10 45 6 0 10 21 10 46 0
38 5 51 30 74 18 17 30 38 30 54 0 14 5 26 10 26 6 0 10 7 10 15 0 8 5 15 10
15 6 0 10 7 10 15 0 8 5 15 10 15 6 0 10 8 10 18 0 10 9 24 20 32 11 8 20 22
20 32 0 10 5 18 10 18 6 0 10 7 10 15 0 8 5 15 10 15 6 0 10 7 10 15 0 8 5 15
10 15 6 0 10 9 10 20 0 11 4 20 8 20 5 0 18 8 30 18 11 9 30 24 42 32 43 29
100 89 100 104 0 9 4 16 9 16 11 0 91 75 91 85 0 3 23 28 50 55 28 27 50 53
50 59 0 6 4 11 8 11 13 0 52 36 52 46 0 5 9 16 20 24 11 8 20 20 20 27 0 7 5
13 10 13 6 0 10 9 10 20 0 11 5 20 10 20 6 0 10 7 10 15 0 8 5 15 10 15 6 0
10 7 10 15 0 8 5 15 10 15 6 0 10 20 10 44 0 39 3 45 30 56 36 15 70 43 70 59
0 6 5 11 10 11 6 0 10 7 10 16 0 9 14 29 30 44 17 15 30 35 30 44 0 9 5 16 10
16 6 0 10 9 10 20 0 11 5 20 10 20 6 0 10 7 10 15 0 8 -4 15 -10 15 -5 0 -10
14 -10 30 0 17 5 30 10 30 6 0 10 6 10 13 0 6 14 23 31 37 59 49 149 139 149
149 0 6 5 11 10 11 6 0 10 7 10 16 0 19 37 54 57 54 26 0 43 28 43 70 0 36 -2
41 -17 35 -68 -28 -71 -29 -87 -13 -9 9 -16 20 -16 24 0 14 -44 44 -76 53 -39
11 -64 33 -64 56 0 9 27 43 60 75 33 32 60 64 60 69 0 6 5 11 10 11 6 0 10 50
10 130 0 80 -4 130 -10 130 -5 0 -10 9 -10 20 0 11 -4 20 -10 20 -5 0 -10 5
-10 11 0 6 -18 28 -40 49 -22 21 -40 43 -40 49 0 6 -4 11 -10 11 -5 0 -10 5
-10 10 0 16 -63 76 -100 95 -27 14 -48 16 -117 10 -75 -6 -83 -5 -83 10 0 28
-41 57 -71 51 -60 -12 -98 78 -43 102 19 9 31 9 46 1 27 -15 114 -5 133 15 17
17 20 46 5 46 -5 0 -10 7 -10 15 0 8 -4 15 -9 15 -5 0 -17 7 -25 16 -11 10
-47 18 -106 24 -49 5 -93 11 -98 14 -14 9 -179 -13 -263 -34 -43 -11 -104 -20
-136 -20 -88 0 -230 -28 -287 -57 -28 -14 -53 -29 -56 -33 -3 -4 -16 -13 -29
-20 -29 -15 -41 -24 -86 -67 -18 -17 -61 -46 -95 -63 -35 -17 -68 -36 -74 -41
-47 -39 -60 -49 -66 -49 -11 0 -70 -56 -70 -67 0 -5 -9 -15 -20 -23 -11 -8
-20 -22 -20 -32 0 -10 -4 -18 -10 -18 -5 0 -10 -6 -10 -13 0 -7 -9 -19 -20
-27 -11 -8 -20 -20 -20 -27 0 -7 -4 -13 -10 -13 -5 0 -10 -7 -10 -15 0 -8 -4
-15 -8 -15 -18 0 -52 -38 -52 -59 0 -11 -4 -21 -10 -21 -5 0 -10 -9 -10 -20 0
-11 -4 -20 -10 -20 -5 0 -10 -7 -10 -15 0 -8 -4 -15 -10 -15 -5 0 -10 -7 -10
-15 0 -8 -4 -15 -10 -15 -5 0 -10 -7 -10 -15 0 -8 -4 -15 -10 -15 -5 0 -10 -7
-10 -15 0 -8 -4 -15 -10 -15 -5 0 -10 -9 -10 -19 0 -10 -7 -21 -15 -25 -20 -7
-65 14 -65 31 0 7 -4 13 -10 13 -5 0 -10 17 -10 38 0 36 3 40 50 62 41 19 50
28 50 50 0 15 -9 32 -21 40 -12 8 -27 20 -33 26 -7 7 -32 22 -56 34 -52 26
-51 26 -149 120 -43 41 -88 82 -101 90 -12 8 -31 23 -42 32 -21 18 -120 51
-198 67 -25 5 -70 19 -100 31 -30 12 -77 26 -104 32 -28 5 -68 19 -90 30 -57
29 -137 33 -240 13 -118 -24 -286 -16 -366 15 -98 40 -185 69 -202 70 -10 0
-58 40 -107 89 -50 49 -99 92 -111 96 -11 3 -20 10 -20 15 0 5 -9 11 -20 15
-24 8 -100 79 -100 94 0 6 -4 11 -10 11 -5 0 -10 5 -10 11 0 13 -98 109 -111
109 -5 0 -9 7 -9 15 0 8 -4 15 -10 15 -5 0 -10 5 -10 11 0 17 -40 49 -62 49
-10 0 -18 7 -18 15 0 8 -4 15 -10 15 -5 0 -10 7 -10 15 0 8 -4 15 -10 15 -5 0
-10 9 -10 20 0 11 -4 20 -10 20 -5 0 -10 7 -10 15 0 8 -4 15 -10 15 -5 0 -10
9 -10 20 0 11 -4 20 -10 20 -5 0 -10 7 -10 16 0 20 -17 37 -58 58 -42 22 -66
22 -185 3 -77 -13 -147 -15 -330 -11 -187 4 -251 2 -331 -12 -79 -13 -110 -14
-150 -6 -95 20 -161 23 -251 9 -67 -10 -128 -12 -240 -6 -195 11 -195 11 -195
54 0 19 -4 35 -10 35 -5 0 -10 9 -10 20 0 11 -4 20 -10 20 -5 0 -10 7 -10 15
0 42 -137 132 -245 161 -27 8 -90 14 -138 14 -85 0 -117 10 -117 37 0 5 -10
15 -21 23 -12 8 -27 20 -33 25 -14 12 -77 35 -98 35 -28 0 -139 39 -154 55 -9
8 -27 18 -42 21 -15 4 -48 17 -74 30 -58 29 -88 30 -118 4 -13 -11 -29 -20
-36 -20 -24 0 -64 -23 -64 -37 0 -7 -4 -13 -10 -13 -5 0 -10 -8 -10 -18 0 -32
-62 -53 -133 -46 -54 5 -65 3 -86 -15 -13 -12 -28 -21 -33 -21 -4 0 -8 -9 -8
-20 0 -11 -4 -20 -10 -20 -5 0 -10 -7 -10 -15 0 -8 -4 -15 -10 -15 -5 0 -10
-7 -10 -15 0 -8 -4 -15 -9 -15 -5 0 -23 -13 -41 -30 -18 -16 -36 -30 -41 -30
-5 0 -9 -5 -9 -11 0 -7 -9 -20 -20 -29 -17 -15 -37 -17 -118 -15 -103 3 -162
12 -162 26 0 4 -16 13 -36 18 -27 8 -47 6 -80 -5 -49 -16 -107 -7 -178 28 -41
21 -106 81 -106 98 0 5 -4 10 -10 10 -5 0 -10 9 -10 20 0 11 -4 20 -10 20 -5
0 -10 5 -10 11 0 20 -25 36 -69 43 -32 5 -53 17 -82 47 -21 22 -51 44 -66 49
-16 5 -46 16 -68 24 -38 14 -155 20 -182 9z m-33 -762 c0 -5 8 -12 19 -16 16
-5 29 -14 77 -54 6 -5 26 -17 45 -26 19 -10 36 -21 39 -25 16 -24 92 -48 185
-60 33 -4 85 -18 115 -30 30 -12 86 -33 123 -46 72 -26 140 -58 164 -77 41
-35 113 -107 113 -114 0 -5 9 -15 21 -23 11 -8 30 -23 41 -32 27 -23 94 -32
203 -29 241 8 248 6 329 -65 19 -18 110 -62 163 -80 36 -12 63 -14 108 -9 92
12 378 14 492 5 77 -7 121 -6 185 5 140 25 275 18 298 -15 9 -13 106 -59 131
-61 13 -2 45 1 72 5 34 6 65 4 110 -7 70 -18 246 -25 268 -11 8 5 34 10 59 11
451 21 447 20 530 64 73 38 156 33 249 -15 70 -36 78 -37 160 -35 68 2 97 -2
141 -19 30 -12 62 -22 70 -22 28 0 89 -21 103 -34 7 -8 33 -24 58 -36 24 -13
46 -26 49 -30 3 -4 21 -15 40 -25 19 -10 37 -21 40 -25 9 -13 70 -41 133 -61
34 -11 64 -23 67 -28 7 -12 99 -57 132 -65 15 -3 54 -32 87 -64 33 -31 79 -73
101 -92 22 -19 51 -45 64 -57 13 -12 47 -33 77 -48 29 -15 58 -32 65 -39 6 -6
21 -18 33 -26 11 -8 21 -20 21 -27 0 -7 5 -13 10 -13 6 0 10 -5 10 -10 0 -22
47 -56 102 -74 31 -9 67 -26 79 -37 12 -10 26 -19 31 -19 4 0 8 -7 8 -15 0 -8
5 -15 10 -15 6 0 10 -7 10 -15 0 -8 5 -15 10 -15 6 0 10 -7 10 -15 0 -8 5 -15
10 -15 6 0 10 -9 10 -20 0 -11 5 -20 10 -20 6 0 10 -6 10 -13 0 -7 10 -19 21
-27 12 -8 27 -21 35 -28 12 -12 79 -35 137 -47 18 -4 27 -12 27 -25 0 -11 5
-20 10 -20 6 0 10 -9 10 -20 0 -11 5 -20 10 -20 6 0 10 -7 10 -15 0 -8 5 -15
10 -15 6 0 10 -7 10 -15 0 -8 4 -15 8 -15 23 0 152 -123 152 -144 0 -9 5 -16
10 -16 6 0 10 -18 10 -40 0 -22 5 -40 10 -40 6 0 10 -9 10 -20 0 -11 -4 -20
-10 -20 -5 0 -10 -11 -10 -25 0 -14 -4 -25 -10 -25 -5 0 -10 -6 -10 -13 0 -7
-9 -19 -20 -27 -11 -8 -20 -18 -20 -23 0 -4 -40 -48 -90 -97 -49 -49 -90 -93
-90 -97 0 -5 -9 -15 -20 -23 -11 -8 -20 -20 -20 -27 0 -7 -4 -13 -10 -13 -5 0
-10 -7 -10 -15 0 -8 -4 -15 -10 -15 -5 0 -10 -5 -10 -11 0 -6 -13 -24 -30 -39
-16 -15 -30 -31 -30 -35 0 -3 -22 -28 -50 -55 -28 -27 -50 -52 -50 -55 0 -4
-13 -20 -30 -35 -16 -15 -30 -32 -30 -37 0 -5 -9 -15 -20 -23 -11 -8 -20 -20
-20 -27 0 -7 -4 -13 -10 -13 -5 0 -10 -7 -10 -15 0 -8 -4 -15 -10 -15 -5 0
-10 -6 -10 -13 0 -7 -9 -19 -20 -27 -11 -8 -20 -22 -20 -32 0 -9 -9 -20 -20
-23 -11 -3 -20 -11 -20 -16 0 -6 -18 -27 -40 -47 -54 -50 -63 -57 -90 -72 -13
-7 -29 -17 -34 -22 -49 -40 -60 -48 -67 -48 -4 0 -19 -11 -32 -24 -13 -13 -39
-32 -57 -41 -18 -9 -38 -21 -44 -26 -30 -25 -56 -45 -76 -59 -13 -8 -44 -35
-70 -60 -70 -65 -91 -80 -130 -89 -133 -32 -171 -41 -215 -54 -27 -9 -65 -21
-82 -28 -27 -11 -39 -11 -65 0 -105 42 -137 54 -178 65 -46 13 -131 53 -140
66 -3 4 -16 13 -29 20 -13 7 -34 21 -45 31 -66 60 -89 79 -97 79 -5 0 -9 6 -9
13 0 7 -9 19 -20 27 -11 8 -20 20 -20 27 0 7 -4 13 -10 13 -5 0 -10 18 -10 40
0 22 -4 40 -10 40 -5 0 -10 9 -10 20 0 11 -4 20 -10 20 -5 0 -10 5 -10 10 0
17 -44 57 -86 78 -49 24 -109 39 -249 62 -192 32 -262 48 -353 79 -65 23 -108
31 -156 31 -75 0 -94 7 -143 56 -18 19 -38 34 -43 34 -4 0 -27 17 -49 38 -22
20 -47 43 -56 50 -9 8 -64 19 -123 26 -90 11 -119 19 -181 50 -41 21 -81 44
-88 52 -26 25 -94 37 -145 25 -46 -10 -108 -6 -108 8 0 13 -65 38 -140 54
-153 32 -171 35 -209 25 -22 -6 -57 -6 -87 -1 -71 13 -207 2 -226 -18 -9 -9
-30 -22 -47 -29 -17 -7 -31 -16 -31 -21 0 -5 -16 -9 -35 -9 -19 0 -44 -4 -57
-9 -88 -35 -202 -60 -294 -64 -132 -6 -156 -18 -274 -127 -33 -30 -77 -71 -99
-90 -22 -19 -40 -39 -41 -43 0 -5 -18 -26 -40 -47 -22 -21 -40 -43 -40 -49 0
-6 -4 -11 -8 -11 -11 0 -44 -26 -102 -80 -27 -25 -63 -56 -80 -70 -17 -14 -41
-35 -54 -46 -12 -12 -33 -27 -46 -34 -25 -14 -31 -18 -78 -59 -16 -14 -39 -33
-51 -41 -12 -8 -21 -19 -21 -25 0 -6 -9 -17 -20 -25 -11 -8 -20 -20 -20 -27 0
-7 -4 -13 -10 -13 -5 0 -10 -11 -10 -25 0 -14 -4 -25 -10 -25 -5 0 -10 -7 -10
-15 0 -28 -45 -63 -150 -115 -56 -28 -109 -57 -117 -63 -46 -39 -113 -107
-113 -116 0 -6 -4 -11 -10 -11 -5 0 -10 -7 -10 -15 0 -8 -4 -15 -10 -15 -5 0
-10 -9 -10 -20 0 -11 -4 -20 -10 -20 -5 0 -10 -7 -10 -15 0 -8 -4 -15 -10 -15
-5 0 -10 -5 -10 -10 0 -6 -31 -42 -70 -80 -38 -38 -70 -74 -70 -80 0 -5 -4
-10 -10 -10 -5 0 -10 -6 -10 -14 0 -7 -13 -19 -30 -26 -16 -7 -30 -16 -30 -20
0 -17 -266 -107 -385 -129 -28 -5 -79 -16 -115 -25 -36 -8 -112 -20 -170 -27
-58 -6 -124 -18 -147 -26 -62 -20 -243 -19 -323 2 -43 12 -115 19 -209 21
-147 3 -235 17 -258 40 -15 15 -18 104 -3 104 6 0 10 16 10 35 0 19 5 35 10
35 6 0 10 20 10 45 0 25 5 45 10 45 6 0 10 30 10 70 0 70 0 71 -44 115 -51 51
-165 112 -228 121 -61 10 -108 37 -108 63 0 6 -4 11 -10 11 -6 0 -10 30 -10
70 0 40 4 70 10 70 6 0 10 23 10 50 0 28 5 50 10 50 6 0 10 11 10 25 0 14 5
25 10 25 6 0 10 9 10 20 0 11 5 20 10 20 6 0 10 6 10 13 0 7 9 19 21 27 11 8
30 22 40 31 11 9 34 22 52 29 84 31 113 47 148 81 22 21 39 42 39 48 0 6 5 11
10 11 6 0 10 11 10 25 0 14 5 25 10 25 6 0 10 28 10 65 0 37 4 65 10 65 6 0
10 16 10 35 0 19 -4 35 -10 35 -5 0 -10 11 -10 25 0 14 -4 25 -10 25 -5 0 -10
7 -10 15 0 8 -4 15 -10 15 -5 0 -10 7 -10 15 0 8 -4 15 -10 15 -5 0 -10 7 -10
15 0 8 -4 15 -10 15 -5 0 -10 7 -10 15 0 8 -4 15 -10 15 -5 0 -10 8 -10 18 0
10 -9 24 -20 32 -11 8 -20 20 -20 27 0 7 -4 13 -10 13 -5 0 -10 9 -10 20 0 11
-4 20 -10 20 -5 0 -10 23 -10 50 0 28 -4 50 -10 50 -5 0 -10 9 -10 21 0 12
-13 34 -30 49 -16 15 -30 33 -30 39 0 6 -4 11 -10 11 -5 0 -10 11 -10 25 0 14
-4 25 -10 25 -5 0 -10 18 -10 40 0 22 -4 40 -10 40 -5 0 -10 18 -10 40 0 22 5
40 10 40 6 0 10 5 10 11 0 15 76 86 100 94 11 4 20 10 20 14 0 4 23 18 50 31
28 13 50 26 50 30 0 6 52 31 121 58 70 28 234 51 399 57 259 10 303 17 345 60
19 19 35 39 35 45 0 5 5 10 10 10 6 0 10 6 10 13 0 7 9 19 20 27 11 8 20 19
20 25 0 6 9 17 20 25 11 8 20 20 20 27 0 7 5 13 10 13 6 0 10 9 10 20 0 11 5
20 10 20 6 0 10 23 10 50 0 28 5 50 10 50 6 0 10 7 10 16 0 16 75 94 90 94 16
0 130 118 130 134 0 9 5 16 10 16 6 0 10 9 10 20 0 11 5 20 10 20 6 0 10 7 10
15 0 8 5 15 10 15 6 0 10 9 10 20 0 11 5 20 10 20 6 0 10 16 10 35 0 19 5 35
10 35 6 0 10 9 10 20 0 11 5 20 10 20 6 0 10 20 10 45 0 25 5 45 10 45 6 0 10
11 10 25 0 14 5 25 10 25 6 0 10 6 10 13 0 7 9 19 20 27 11 8 20 19 20 25 0 6
9 17 20 25 11 8 20 20 20 27 0 7 5 13 10 13 6 0 10 11 10 25 0 14 5 25 10 25
6 0 10 27 10 60 0 33 4 60 10 60 6 0 10 11 10 25 0 14 5 25 10 25 6 0 10 6 10
13 0 7 9 19 20 27 11 8 20 20 20 27 0 7 5 13 10 13 6 0 10 5 10 11 0 6 18 27
40 47 54 50 63 57 90 72 12 7 38 27 56 46 28 27 34 41 34 74 0 30 7 47 25 65
13 14 29 25 34 25 22 0 141 65 141 76 0 7 6 15 13 17 21 9 67 7 67 -2z"/>
<path d="M33670 12500 c0 -33 -4 -60 -10 -60 -5 0 -10 -13 -10 -30 0 -16 -4
-30 -10 -30 -5 0 -10 -9 -10 -20 0 -11 -4 -20 -10 -20 -5 0 -10 -7 -10 -16 0
-23 -25 -44 -52 -44 -13 0 -30 -9 -38 -20 -8 -12 -26 -20 -42 -20 -15 0 -28
-4 -28 -10 0 -5 -9 -10 -20 -10 -11 0 -20 -4 -20 -10 0 -5 -18 -10 -40 -10
-22 0 -40 -4 -40 -10 0 -5 -13 -10 -30 -10 -16 0 -30 5 -30 10 0 6 -22 10 -50
10 -27 0 -50 -4 -50 -10 0 -5 -18 -10 -40 -10 -22 0 -40 -4 -40 -10 0 -5 -22
-10 -50 -10 -43 0 -50 3 -50 20 0 11 -4 20 -10 20 -5 0 -10 9 -10 20 0 11 -4
20 -10 20 -5 0 -10 9 -10 20 0 15 -7 20 -26 20 -29 0 -54 21 -54 44 0 9 -4 16
-10 16 -5 0 -10 9 -10 20 0 11 5 20 10 20 6 0 10 5 10 10 0 6 -13 10 -30 10
-27 0 -30 -3 -30 -30 0 -16 5 -30 10 -30 6 0 10 -9 10 -20 0 -11 5 -20 10 -20
6 0 10 -11 10 -25 0 -14 5 -25 10 -25 6 0 10 -11 10 -25 0 -14 5 -25 10 -25 6
0 10 -18 10 -40 0 -33 -3 -40 -20 -40 -11 0 -20 -4 -20 -10 0 -5 -18 -10 -40
-10 -22 0 -40 -4 -40 -10 0 -5 -22 -10 -48 -10 -36 0 -51 -5 -62 -20 -8 -12
-26 -20 -42 -20 -15 0 -28 -4 -28 -10 0 -5 -13 -10 -30 -10 -16 0 -30 -4 -30
-10 0 -5 -18 -10 -40 -10 -22 0 -40 -4 -40 -10 0 -5 -22 -10 -50 -10 -27 0
-50 -4 -50 -10 0 -5 -17 -10 -38 -10 -26 0 -42 -6 -52 -20 -8 -12 -26 -20 -42
-20 -15 0 -28 -4 -28 -10 0 -5 -22 -10 -50 -10 -27 0 -50 -4 -50 -10 0 -5 -13
-10 -30 -10 -16 0 -30 -4 -30 -10 0 -5 -13 -10 -30 -10 -16 0 -30 -4 -30 -10
0 -5 -7 -10 -15 -10 -9 0 -47 -31 -85 -70 -38 -38 -74 -70 -80 -70 -16 0 -180
-168 -180 -184 0 -8 -9 -18 -20 -21 -11 -3 -20 -15 -20 -25 0 -10 -9 -22 -20
-25 -11 -3 -20 -13 -20 -21 0 -9 -22 -37 -50 -64 -27 -27 -50 -54 -50 -60 0
-15 -25 -40 -40 -40 -14 0 -60 -46 -60 -60 0 -7 -18 -29 -40 -50 -22 -21 -40
-46 -40 -54 0 -9 -8 -16 -20 -16 -13 0 -20 -7 -20 -20 0 -11 -4 -20 -10 -20
-5 0 -10 -9 -10 -20 0 -11 -4 -20 -10 -20 -5 0 -10 -9 -10 -20 0 -13 -7 -20
-20 -20 -12 0 -20 -7 -20 -16 0 -20 -24 -44 -44 -44 -9 0 -16 -8 -16 -20 0
-15 -7 -20 -25 -20 -18 0 -47 21 -100 75 -41 41 -75 79 -75 84 0 13 -26 21
-66 21 -19 0 -34 5 -34 10 0 6 -22 10 -50 10 -27 0 -50 -4 -50 -10 0 -5 8 -10
18 -10 10 0 24 -9 32 -20 8 -11 20 -20 28 -20 7 0 30 -9 52 -20 22 -11 49 -20
60 -20 30 0 78 -49 59 -60 -11 -7 -9 -13 9 -28 32 -28 31 -94 -3 -127 -13 -14
-31 -25 -40 -25 -8 0 -15 -9 -15 -20 0 -11 -4 -20 -10 -20 -5 0 -10 -7 -10
-15 0 -20 -45 -65 -65 -65 -8 0 -15 -7 -15 -15 0 -18 -84 -105 -100 -105 -6 0
-33 -22 -60 -50 -27 -27 -54 -50 -60 -50 -6 0 -33 -22 -60 -50 -33 -34 -57
-50 -74 -50 -14 0 -26 5 -26 10 0 6 -4 10 -10 10 -5 0 -10 -13 -10 -30 0 -16
5 -30 10 -30 6 0 10 -11 10 -25 0 -14 -4 -25 -10 -25 -5 0 -10 -5 -10 -11 0
-13 -38 -49 -52 -49 -4 0 -8 -9 -8 -20 0 -11 -4 -20 -10 -20 -5 0 -20 -11 -34
-25 -14 -14 -35 -25 -46 -25 -23 0 -50 -22 -50 -40 0 -6 -7 -19 -16 -27 -13
-14 -17 -14 -24 -2 -7 11 -12 9 -27 -8 -25 -29 -73 -21 -73 12 0 13 -6 26 -12
29 -10 5 -10 7 0 12 18 8 15 24 -10 45 -11 11 -16 19 -10 19 7 0 12 14 12 30
0 26 -4 30 -26 30 -42 0 -54 -21 -54 -99 0 -41 4 -71 10 -71 6 0 10 -11 10
-25 0 -14 5 -25 10 -25 6 0 10 -9 10 -20 0 -11 -4 -20 -10 -20 -5 0 -10 -18
-10 -40 0 -33 3 -40 20 -40 11 0 20 -2 20 -5 0 -11 -69 -75 -81 -75 -6 0 -24
-13 -39 -30 -15 -16 -34 -30 -42 -30 -7 0 -20 -9 -28 -20 -8 -11 -21 -20 -30
-20 -9 0 -22 -9 -30 -20 -12 -16 -26 -20 -72 -20 -32 0 -58 4 -58 10 0 6 -9
10 -20 10 -16 0 -20 7 -20 30 0 21 -5 30 -16 30 -9 0 -29 14 -44 30 -17 18
-38 30 -54 30 -14 0 -26 5 -26 10 0 6 -13 10 -30 10 -35 0 -39 -19 -9 -40 12
-8 32 -25 45 -37 13 -13 28 -23 34 -23 20 0 40 -28 40 -54 0 -18 -5 -26 -18
-26 -10 0 -24 -9 -32 -20 -8 -11 -22 -20 -31 -20 -10 0 -20 -6 -23 -12 -5 -10
-7 -10 -12 0 -7 14 -44 16 -44 2 0 -5 -9 -10 -20 -10 -11 0 -20 -4 -20 -10 0
-5 -9 -10 -20 -10 -11 0 -20 -4 -20 -10 0 -5 -22 -10 -50 -10 -27 0 -50 -4
-50 -10 0 -5 -18 -10 -40 -10 -33 0 -40 -3 -40 -20 0 -11 -4 -20 -10 -20 -5 0
-10 5 -10 10 0 6 -9 10 -20 10 -11 0 -20 -4 -20 -10 0 -5 -9 -10 -20 -10 -11
0 -20 -4 -20 -10 0 -5 -13 -10 -30 -10 -16 0 -30 -4 -30 -10 0 -5 -18 -10 -40
-10 -22 0 -40 -4 -40 -10 0 -5 -9 -10 -20 -10 -11 0 -20 -4 -20 -10 0 -5 -13
-10 -30 -10 -16 0 -30 -4 -30 -10 0 -5 -18 -10 -40 -10 -22 0 -40 -4 -40 -10
0 -6 -32 -10 -75 -10 -69 0 -78 -2 -103 -27 -17 -17 -22 -28 -14 -31 23 -7 12
-22 -17 -22 -16 0 -32 -6 -35 -12 -5 -10 -7 -10 -12 0 -7 14 -44 16 -44 2 0
-18 -31 -10 -55 15 -22 21 -25 33 -25 90 0 63 -1 65 -26 65 -33 0 -54 -21 -54
-54 0 -14 -4 -26 -10 -26 -15 0 -13 -107 3 -114 9 -5 9 -7 -1 -12 -8 -3 -29
-21 -47 -40 -29 -29 -41 -34 -80 -34 -25 0 -45 -4 -45 -10 0 -5 -13 -10 -30
-10 -16 0 -30 -4 -30 -10 0 -5 -13 -10 -30 -10 -16 0 -30 -4 -30 -10 0 -5 -9
-10 -20 -10 -11 0 -20 -4 -20 -10 0 -5 -9 -10 -20 -10 -11 0 -20 -4 -20 -10 0
-5 -18 -10 -39 -10 -22 0 -41 -5 -43 -12 -3 -8 -36 -11 -111 -10 -65 1 -107
-2 -107 -8 0 -6 -9 -10 -20 -10 -11 0 -20 -4 -20 -10 0 -5 -13 -10 -28 -10
-16 0 -34 -8 -42 -20 -8 -12 -26 -20 -42 -20 -15 0 -28 -4 -28 -10 0 -5 -18
-10 -40 -10 -22 0 -40 -4 -40 -10 0 -5 -9 -10 -20 -10 -11 0 -20 5 -20 10 0 6
-30 10 -70 10 -54 0 -70 3 -70 14 0 17 -131 60 -157 52 -10 -3 -44 -2 -77 3
-32 4 -75 5 -96 1 -37 -7 -126 1 -169 15 -19 6 -21 2 -21 -28 0 -31 4 -35 31
-41 17 -3 62 -6 100 -6 62 0 69 -2 69 -20 0 -13 7 -20 20 -20 16 0 20 -7 20
-35 0 -19 -4 -35 -10 -35 -5 0 -10 -17 -10 -39 0 -35 -3 -39 -30 -44 -19 -4
-30 -13 -30 -23 0 -9 -13 -29 -30 -44 -16 -15 -30 -35 -30 -44 0 -9 -4 -16 -8
-16 -24 0 -52 -39 -52 -74 0 -20 -4 -36 -10 -36 -5 0 -10 -7 -10 -15 0 -9 -12
-18 -30 -21 -16 -4 -30 -10 -30 -15 0 -5 -9 -9 -20 -9 -11 0 -20 -6 -20 -13 0
-8 -11 -19 -25 -25 -27 -12 -40 -22 -78 -58 -13 -11 -35 -24 -50 -28 -18 -4
-27 -13 -27 -26 0 -11 -4 -20 -10 -20 -5 0 -10 -7 -10 -15 0 -8 -4 -15 -9 -15
-5 0 -28 -17 -50 -37 -22 -21 -59 -54 -80 -73 -22 -19 -40 -39 -41 -43 0 -8
-28 -35 -106 -106 -37 -34 -58 -38 -152 -35 -66 3 -98 8 -108 19 -20 20 -68
19 -89 -1 -11 -12 -26 -15 -50 -11 -19 3 -35 2 -37 -3 -4 -11 -146 -16 -175
-6 -13 4 -23 11 -23 16 0 16 -32 19 -47 4 -12 -11 -26 -14 -52 -9 -20 4 -37
10 -39 14 -1 5 -57 6 -122 4 -82 -3 -120 -1 -120 6 0 6 -7 11 -16 11 -23 0
-44 25 -44 54 0 14 -4 26 -10 26 -5 0 -10 11 -10 24 0 28 -24 40 -51 26 -11
-6 -23 -8 -28 -5 -19 11 -41 -8 -41 -36 0 -16 5 -29 10 -29 6 0 10 -15 10 -34
0 -19 6 -37 13 -39 6 -3 -37 -6 -98 -6 -60 0 -117 4 -125 9 -10 6 -11 10 -2
10 6 0 12 7 12 15 0 10 -11 15 -32 16 -18 0 -27 3 -20 6 12 5 18 83 6 83 -3 0
-12 -7 -20 -15 -9 -8 -11 -15 -5 -15 17 0 13 -27 -5 -34 -9 -3 -40 -6 -71 -6
-48 0 -53 -2 -39 -15 8 -8 26 -15 40 -15 29 0 35 -14 10 -24 -9 -3 -36 -6 -60
-6 l-44 0 0 40 c0 32 -4 39 -17 38 -47 -4 -103 3 -103 13 0 31 29 39 144 39
76 0 116 4 116 11 0 16 26 39 44 39 25 0 19 20 -6 21 -13 1 -30 3 -38 4 -8 1
-34 3 -57 4 -36 1 -43 4 -43 21 0 18 7 20 54 20 82 0 86 3 86 71 0 33 -4 59
-10 59 -5 0 -10 25 -10 55 0 30 -4 55 -10 55 -5 0 -10 7 -10 15 0 8 -9 15 -20
15 -18 0 -20 7 -20 65 0 37 -4 65 -10 65 -5 0 -10 7 -10 15 0 8 -3 15 -7 16
-56 7 -93 7 -93 -1 0 -6 -4 -10 -10 -10 -5 0 -10 6 -10 13 0 7 -9 19 -20 27
-15 11 -20 26 -20 57 0 28 -4 43 -12 43 -9 0 -8 4 2 10 10 6 11 10 3 10 -7 0
-13 7 -13 15 0 8 -4 15 -10 15 -5 0 -10 9 -10 19 0 11 -9 23 -20 26 -12 4 -20
15 -20 28 0 13 -9 29 -20 37 -11 8 -20 22 -20 32 0 17 15 18 223 14 227 -4
257 -8 257 -32 0 -11 23 -13 128 -8 70 4 153 6 184 5 35 -1 68 4 87 14 23 11
36 13 50 5 22 -11 71 -13 95 -4 9 3 16 15 16 25 0 10 5 19 10 19 6 0 10 -7 10
-15 0 -11 11 -15 39 -15 22 0 41 -5 43 -12 3 -8 39 -11 121 -11 88 1 121 -2
131 -13 16 -15 137 -20 439 -15 171 3 187 5 187 21 0 23 46 32 80 15 29 -14
124 -27 145 -18 17 6 21 63 5 63 -5 0 -10 9 -10 21 0 20 -53 79 -71 79 -5 0
-9 6 -9 14 0 8 -9 18 -20 21 -11 3 -20 15 -20 25 0 15 -10 20 -47 26 -27 4
-50 10 -53 13 -13 17 -113 27 -187 18 -43 -5 -125 -6 -183 -4 -58 3 -112 2
-120 -3 -16 -9 -90 9 -90 22 0 5 -9 8 -20 8 -11 0 -20 7 -20 15 0 8 4 15 8 15
15 0 52 37 52 51 0 8 9 21 20 29 11 8 20 25 20 39 0 23 -2 24 -54 18 -30 -3
-68 -13 -86 -22 -37 -19 -100 -79 -100 -95 0 -6 -16 -27 -35 -46 l-36 -35
-107 1 c-59 0 -119 -2 -134 -6 -20 -4 -28 -2 -28 7 0 11 -21 14 -102 12 -57
-1 -133 -5 -170 -8 -60 -6 -68 -4 -68 11 0 14 -7 16 -46 10 -26 -3 -75 -6
-109 -6 -48 0 -67 -5 -85 -20 -13 -11 -36 -20 -52 -20 -18 0 -28 -5 -28 -15 0
-8 -4 -15 -10 -15 -5 0 -10 15 -10 33 l0 32 -74 1 c-66 1 -76 4 -100 27 -26
26 -26 28 -26 170 l0 145 -32 -3 c-18 -2 -36 -3 -40 -4 -5 -1 -8 -67 -8 -147
0 -138 -1 -148 -22 -165 -26 -23 -51 -24 -72 -3 -9 8 -20 12 -26 9 -6 -3 -17
1 -26 9 -10 10 -24 14 -39 10 -24 -6 -55 14 -55 35 0 6 -12 8 -28 5 -19 -4
-34 -1 -44 9 -8 9 -37 20 -64 25 -27 5 -58 13 -69 17 -16 5 -17 5 -5 -4 9 -6
10 -11 3 -11 -6 0 -18 7 -27 15 -8 8 -26 15 -40 15 -14 0 -26 4 -26 8 0 5 -27
6 -60 4 -40 -3 -60 -1 -60 7 0 6 -13 11 -29 11 -16 0 -31 5 -33 11 -4 12 -49
20 -105 20 -22 -1 -33 4 -33 13 0 18 -22 26 -49 19 -11 -3 -27 2 -36 11 -11
10 -25 13 -45 9 -28 -5 -30 -4 -30 26 0 36 -15 39 -61 16 -16 -9 -34 -13 -40
-9 -6 4 -14 2 -18 -4 -9 -15 -61 -2 -61 15 0 9 -6 12 -17 9 -10 -3 -58 -6
-108 -7 -49 -1 -97 -5 -106 -10 -9 -4 -29 -4 -45 1 -16 4 -23 9 -15 9 9 1 6 8
-9 21 -14 12 -31 18 -42 14 -10 -3 -18 -1 -18 5 0 6 -18 11 -40 11 -22 0 -40
-4 -40 -10 0 -5 -7 -10 -15 -10 -8 0 -30 -8 -50 -17 -28 -13 -35 -22 -35 -45
0 -15 -4 -28 -10 -28 -5 0 -10 -7 -10 -15 0 -8 -4 -15 -10 -15 -5 0 -10 -22
-10 -50 l0 -50 -40 0 c-28 0 -40 -4 -40 -14 0 -22 -36 -29 -73 -15 -19 6 -46
9 -60 5 -25 -6 -27 -11 -27 -56 0 -28 -4 -50 -10 -50 -5 0 -10 -7 -10 -15 0
-8 -4 -15 -10 -15 -5 0 -10 9 -10 20 0 24 -20 26 -63 4 -43 -23 -60 -41 -44
-47 9 -4 9 -6 0 -6 -9 -1 -13 -17 -13 -46 0 -25 -4 -45 -10 -45 -5 0 -10 -9
-10 -20 0 -11 -4 -20 -10 -20 -5 0 -10 18 -10 40 0 22 -4 40 -8 40 -13 0 -52
-36 -52 -46 0 -5 -9 -16 -21 -24 -11 -8 -30 -23 -41 -32 -12 -10 -25 -18 -30
-18 -4 0 -8 -7 -8 -15 0 -8 -4 -15 -10 -15 -5 0 -10 -8 -10 -18 0 -10 -9 -24
-20 -32 -23 -16 -28 -75 -7 -83 9 -4 9 -6 0 -6 -7 -1 -13 -13 -13 -27 0 -17
-14 -39 -40 -64 -22 -21 -40 -43 -40 -49 0 -6 -4 -11 -10 -11 -5 0 -10 -6 -10
-14 0 -8 -9 -18 -20 -21 -11 -3 -20 -15 -20 -26 0 -10 -4 -19 -10 -19 -5 0
-10 20 -10 45 0 38 -3 45 -20 45 -11 0 -20 -7 -20 -15 0 -8 -4 -15 -10 -15 -5
0 -10 -9 -10 -20 0 -11 -4 -20 -10 -20 -5 0 -10 -24 -10 -54 l0 -54 -38 5
c-32 4 -43 0 -70 -25 -30 -28 -32 -35 -32 -95 0 -48 -4 -66 -15 -71 -17 -6
-45 2 -45 14 0 16 -32 20 -46 6 -10 -10 -14 -38 -14 -91 0 -53 -4 -81 -14 -91
-23 -23 -26 -17 -26 47 0 52 -2 60 -16 55 -9 -3 -18 -6 -20 -6 -2 0 -4 -6 -4
-13 0 -7 -9 -19 -20 -27 -11 -8 -20 -19 -20 -25 0 -6 -9 -17 -21 -25 -12 -8
-34 -26 -49 -40 -44 -38 -73 -60 -82 -60 -4 0 -8 -7 -8 -15 0 -8 -4 -15 -10
-15 -5 0 -10 -7 -10 -15 0 -8 -4 -15 -10 -15 -5 0 -10 -9 -10 -20 0 -11 -4
-20 -10 -20 -5 0 -10 -11 -10 -25 0 -16 -6 -25 -16 -25 -18 0 -44 -23 -44 -39
0 -6 -11 -13 -25 -16 -14 -3 -36 -7 -50 -10 -19 -4 -25 -12 -25 -30 0 -14 -4
-25 -10 -25 -5 0 -10 -9 -10 -19 0 -11 -9 -23 -20 -26 -11 -3 -20 -13 -20 -21
0 -8 -7 -14 -15 -14 -24 0 -105 -43 -105 -56 0 -7 -9 -16 -20 -19 -13 -4 -20
-15 -20 -30 0 -15 -7 -26 -20 -30 -11 -3 -20 -13 -20 -21 0 -20 -24 -44 -44
-44 -9 0 -16 -5 -16 -11 0 -16 -26 -39 -44 -39 -9 0 -16 -6 -16 -14 0 -8 -9
-18 -20 -21 -11 -3 -20 -11 -20 -17 0 -12 -38 -48 -50 -48 -12 0 -70 -57 -70
-67 0 -11 -44 -33 -65 -33 -8 0 -15 -4 -15 -10 0 -5 5 -10 11 -10 19 0 -15
-26 -44 -34 -18 -4 -27 -13 -27 -26 0 -13 -7 -20 -20 -20 -16 0 -20 -7 -20
-35 0 -19 -4 -35 -10 -35 -5 0 -10 -9 -10 -20 0 -11 -4 -20 -10 -20 -5 0 -10
-9 -10 -20 0 -11 -4 -20 -10 -20 -5 0 -10 -7 -10 -15 0 -8 -4 -15 -10 -15 -5
0 -10 -7 -10 -15 0 -8 -4 -15 -10 -15 -5 0 -10 -7 -10 -15 0 -8 -4 -15 -10
-15 -5 0 -10 -9 -10 -20 0 -11 -4 -20 -10 -20 -5 0 -10 -7 -10 -15 0 -8 -4
-15 -10 -15 -5 0 -10 -7 -10 -15 0 -8 -4 -15 -10 -15 -5 0 -10 -9 -10 -20 0
-11 -4 -20 -10 -20 -5 0 -10 -9 -10 -20 0 -11 -4 -20 -10 -20 -5 0 -10 -25
-10 -55 0 -30 -4 -55 -10 -55 -5 0 -10 -9 -10 -20 0 -11 -6 -20 -12 -20 -10 0
-10 -2 -1 -8 9 -6 7 -12 -7 -22 -23 -16 -28 -75 -7 -83 9 -4 9 -6 0 -6 -7 -1
-13 -12 -13 -26 0 -17 -7 -26 -22 -30 -37 -8 -358 -11 -358 -2 0 11 -98 9
-102 -3 -1 -5 -39 -10 -83 -11 -125 -2 -195 -28 -195 -72 0 -21 49 -35 60 -17
9 15 645 6 703 -10 35 -10 37 -13 37 -54 0 -26 -5 -46 -12 -48 -22 -7 -612 8
-630 16 -16 7 -18 1 -18 -63 0 -41 4 -71 10 -71 6 0 10 7 10 16 0 9 6 14 13
11 8 -3 152 -9 320 -13 l307 -7 0 -49 c0 -84 14 -81 -353 -79 -176 1 -348 4
-381 7 -95 8 -106 3 -106 -55 0 -55 7 -61 75 -61 27 0 50 6 60 16 14 15 17 15
33 -3 9 -11 26 -25 37 -31 11 -6 14 -12 8 -12 -21 0 -15 -16 10 -28 14 -7 16
-11 7 -11 -13 -1 -13 -2 0 -11 10 -6 11 -10 3 -10 -9 0 -13 -16 -13 -45 0 -25
5 -45 10 -45 6 0 10 -13 10 -30 0 -16 5 -30 10 -30 6 0 10 -6 10 -14 0 -7 13
-19 30 -26 31 -13 41 -44 18 -53 -10 -4 -10 -6 0 -6 7 -1 12 -15 12 -34 0 -21
7 -38 20 -47 11 -8 20 -20 20 -27 0 -7 5 -13 10 -13 6 0 10 -30 10 -70 0 -40
-4 -70 -10 -70 -5 0 -10 -11 -10 -25 0 -14 -4 -25 -10 -25 -5 0 -10 -11 -10
-25 0 -14 -4 -25 -10 -25 -5 0 -10 -24 -10 -53 0 -41 -4 -56 -20 -67 -11 -8
-20 -22 -20 -32 0 -11 -7 -18 -20 -18 -16 0 -20 -7 -20 -30 0 -16 -4 -30 -10
-30 -5 0 -10 -7 -10 -15 0 -8 -4 -15 -10 -15 -5 0 -10 -7 -10 -15 0 -8 -4 -15
-10 -15 -5 0 -10 -15 -10 -33 0 -21 -7 -38 -20 -47 -11 -8 -20 -20 -20 -27 0
-7 -4 -13 -10 -13 -5 0 -10 -6 -10 -13 0 -7 -9 -19 -20 -27 -11 -8 -20 -25
-20 -37 0 -13 -4 -23 -10 -23 -5 0 -10 -7 -10 -15 0 -8 -4 -15 -10 -15 -5 0
-10 -9 -10 -20 0 -11 -4 -20 -10 -20 -5 0 -10 -7 -10 -15 0 -8 -4 -15 -10 -15
-5 0 -10 -6 -10 -14 0 -8 -6 -17 -12 -19 -10 -4 -10 -6 0 -6 13 -1 17 -61 4
-61 -16 0 -52 -37 -52 -53 0 -9 -9 -19 -20 -22 -14 -4 -20 -15 -20 -36 0 -16
-4 -29 -10 -29 -5 0 -10 -10 -10 -23 0 -12 -9 -29 -20 -37 -11 -8 -20 -24 -20
-35 0 -11 -9 -27 -20 -35 -11 -8 -20 -20 -20 -27 0 -7 -4 -13 -10 -13 -5 0
-10 -7 -10 -16 0 -8 -18 -33 -40 -54 -22 -21 -40 -43 -40 -49 0 -6 -4 -11 -10
-11 -5 0 -10 -7 -10 -15 0 -8 -4 -15 -10 -15 -5 0 -10 -7 -10 -15 0 -8 -4 -15
-10 -15 -5 0 -10 -5 -10 -11 0 -6 -13 -24 -30 -39 -16 -15 -30 -33 -30 -39 0
-6 -4 -11 -10 -11 -5 0 -10 -6 -10 -13 0 -7 -10 -19 -21 -27 -36 -25 -99 -88
-99 -99 0 -5 -9 -12 -19 -16 -36 -11 -81 -61 -81 -89 0 -21 -6 -28 -30 -32
-16 -4 -30 -10 -30 -15 0 -4 -9 -11 -20 -14 -11 -3 -20 -15 -20 -25 0 -10 -8
-21 -19 -25 -10 -3 -28 -13 -39 -23 -11 -9 -30 -24 -41 -32 -12 -8 -21 -22
-21 -32 0 -10 -4 -18 -9 -18 -5 0 -28 -18 -51 -40 -23 -22 -50 -40 -59 -40
-10 0 -28 -9 -41 -20 -13 -11 -42 -25 -64 -31 -65 -16 -97 -31 -122 -56 -15
-15 -35 -23 -59 -23 -21 0 -35 -5 -35 -13 0 -12 -40 -29 -117 -49 -24 -6 -43
-15 -43 -20 0 -4 -18 -8 -40 -8 -22 0 -40 -4 -40 -8 0 -5 -16 -16 -36 -26 -27
-13 -58 -16 -120 -15 -46 2 -84 7 -84 12 0 20 -147 -2 -204 -30 -31 -15 -56
-31 -56 -36 0 -5 -13 -22 -30 -37 -16 -15 -30 -37 -30 -47 0 -14 -12 -25 -37
-35 -121 -50 -123 -51 -123 -73 0 -15 -11 -27 -35 -38 -48 -23 -115 -33 -124
-19 -17 27 -148 5 -186 -31 -7 -7 -23 -19 -35 -27 -13 -8 -33 -25 -46 -37 -13
-13 -28 -23 -34 -23 -23 0 -40 -30 -40 -69 0 -23 -4 -41 -10 -41 -5 0 -10 -7
-10 -15 0 -19 -127 -148 -139 -140 -13 8 -41 -5 -41 -19 0 -6 -9 -18 -20 -26
-11 -8 -20 -22 -20 -32 0 -10 -4 -18 -10 -18 -5 0 -10 -6 -10 -13 0 -7 -10
-19 -21 -27 -12 -8 -39 -32 -61 -53 -22 -20 -44 -37 -49 -37 -5 0 -9 -11 -9
-25 0 -14 -4 -25 -10 -25 -5 0 -10 -13 -10 -29 0 -22 -6 -31 -30 -41 -16 -7
-30 -19 -30 -28 0 -17 -34 -49 -61 -57 -11 -4 -19 -10 -19 -15 0 -5 -8 -11
-19 -15 -28 -9 -61 -40 -61 -59 0 -9 -4 -16 -10 -16 -5 0 -10 -9 -10 -20 0
-11 -4 -20 -10 -20 -5 0 -10 -7 -10 -15 0 -8 -4 -15 -10 -15 -5 0 -10 -9 -10
-20 0 -17 -5 -19 -32 -14 -91 16 -108 24 -108 49 0 14 -4 25 -10 25 -5 0 -10
9 -10 20 0 11 -4 20 -10 20 -5 0 -10 18 -10 40 0 22 -4 40 -10 40 -6 0 -10 33
-10 78 0 66 -3 80 -20 92 -11 8 -20 20 -20 27 0 7 -4 13 -10 13 -5 0 -10 16
-10 35 0 25 -4 35 -15 35 -20 0 -65 45 -65 65 0 8 -4 15 -10 15 -5 0 -10 14
-10 30 0 17 -4 30 -10 30 -5 0 -10 14 -10 30 0 17 -4 30 -10 30 -5 0 -10 14
-10 30 0 17 -4 30 -10 30 -5 0 -10 6 -10 13 0 7 -9 19 -20 27 -11 8 -20 20
-20 27 0 7 -4 13 -10 13 -5 0 -10 14 -10 30 0 17 -4 30 -10 30 -5 0 -10 6 -10
13 0 7 -9 19 -20 27 -11 8 -20 20 -20 27 0 7 -4 13 -10 13 -5 0 -10 6 -10 14
0 16 -21 26 -56 26 -15 0 -24 6 -24 15 0 8 -4 15 -10 15 -5 0 -10 7 -10 16 0
11 -5 14 -16 10 -24 -9 -84 28 -84 52 0 5 -13 15 -30 22 -26 11 -30 18 -30 49
0 25 -6 41 -20 51 -11 8 -20 23 -20 33 0 11 -13 32 -30 47 -16 15 -30 35 -30
44 0 9 -4 16 -10 16 -5 0 -10 8 -10 18 0 10 -9 24 -20 32 -11 8 -20 22 -20 32
0 10 -4 18 -10 18 -5 0 -10 7 -10 16 0 8 -18 33 -40 54 -22 21 -40 43 -40 49
0 6 -4 11 -10 11 -5 0 -10 6 -10 13 0 7 -9 19 -20 27 -11 8 -20 25 -20 37 0
13 -4 23 -10 23 -5 0 -10 7 -10 15 0 8 -4 15 -10 15 -5 0 -10 13 -10 28 0 16
-8 34 -20 42 -15 11 -20 26 -20 62 0 26 -4 48 -10 48 -5 0 -10 13 -10 28 0 16
-8 34 -20 42 -18 13 -20 26 -20 132 0 108 1 117 20 123 13 4 20 15 20 31 0 36
18 50 85 65 32 7 53 15 47 17 -7 2 -12 12 -12 23 0 10 -4 19 -10 19 -5 0 -10
14 -10 30 0 17 -4 30 -10 30 -5 0 -10 9 -10 21 0 15 -5 19 -18 15 -9 -3 -41
-7 -70 -8 -48 -2 -52 -4 -52 -26 0 -18 -4 -22 -15 -18 -8 3 -22 9 -30 12 -10
4 -15 0 -15 -14 0 -14 -9 -21 -30 -25 -16 -4 -30 -13 -30 -20 0 -13 -40 -37
-61 -37 -5 0 -22 -12 -36 -26 -21 -21 -32 -25 -58 -20 -24 5 -47 0 -79 -16
-25 -12 -46 -26 -46 -30 0 -4 -9 -8 -20 -8 -13 0 -20 -7 -20 -20 0 -24 -22
-26 -80 -8 -31 10 -40 18 -40 35 0 13 -8 24 -20 28 -11 3 -20 14 -20 24 0 11
-15 25 -40 36 -47 21 -80 47 -80 63 0 6 -9 14 -20 17 -11 3 -27 14 -36 22 -9
9 -43 20 -76 25 -53 7 -88 24 -88 44 0 16 -45 44 -72 44 -21 0 -28 5 -28 19 0
18 -21 30 -77 46 -13 3 -30 13 -39 22 -9 10 -34 17 -60 17 -37 1 -44 4 -44 21
0 17 -7 21 -43 22 -72 2 -203 20 -223 30 -10 6 -43 11 -73 11 -42 1 -58 -3
-71 -19 -31 -35 -110 -23 -110 17 0 13 -4 24 -10 24 -5 0 -10 -9 -10 -20 0
-15 -7 -20 -29 -20 -16 0 -31 4 -33 9 -5 14 -118 26 -118 12 0 -6 -13 -11 -30
-11 -19 0 -30 5 -30 14 0 10 -17 15 -57 18 -75 5 -114 -6 -153 -42 -17 -16
-40 -32 -51 -35 -10 -4 -19 -10 -19 -14 0 -5 -13 -11 -30 -14 -18 -4 -30 -13
-30 -22 0 -9 -12 -18 -30 -21 -16 -4 -30 -12 -30 -20 0 -7 -8 -15 -19 -19 -10
-3 -29 -14 -41 -25 -13 -11 -40 -25 -61 -30 -21 -6 -39 -15 -41 -20 -2 -5 -20
-4 -43 5 -22 8 -52 14 -67 15 -16 0 -28 5 -28 10 0 6 -7 10 -15 10 -25 0 -65
23 -65 37 0 7 -7 13 -16 13 -8 0 -33 18 -54 40 -21 22 -46 40 -54 40 -9 0 -16
7 -16 15 0 8 -4 15 -8 15 -16 0 -52 37 -52 54 0 9 -4 16 -9 16 -5 0 -28 18
-51 40 -23 22 -46 40 -51 40 -5 0 -9 6 -9 13 0 7 -9 19 -20 27 -11 8 -20 20
-20 28 0 7 -22 35 -50 62 -34 33 -50 57 -50 74 0 14 -4 26 -10 26 -5 0 -10 9
-10 20 0 11 -4 20 -10 20 -5 0 -10 16 -10 35 0 19 -4 35 -10 35 -5 0 -10 7
-10 16 0 9 -14 29 -30 44 -16 15 -30 35 -30 44 0 9 -4 16 -10 16 -5 0 -10 7
-10 15 0 8 -4 15 -10 15 -5 0 -10 18 -10 40 0 22 -4 40 -10 40 -5 0 -10 5 -10
11 0 13 -38 49 -52 49 -4 0 -8 7 -8 15 0 8 -4 15 -10 15 -5 0 -10 8 -10 18 0
10 -9 24 -20 32 -16 12 -20 26 -20 72 0 32 -4 58 -10 58 -5 0 -10 7 -10 15 0
8 -4 15 -10 15 -5 0 -10 7 -10 15 0 8 -4 15 -9 15 -18 0 -71 59 -71 79 0 12
-4 21 -10 21 -5 0 -10 7 -10 15 0 8 -4 15 -10 15 -5 0 -10 7 -10 15 0 8 -4 15
-10 15 -5 0 -10 9 -10 20 0 11 -4 20 -10 20 -5 0 -10 21 -10 46 0 41 -4 50
-50 94 -27 27 -50 56 -50 64 0 9 -4 16 -10 16 -5 0 -10 11 -10 25 0 14 -4 25
-10 25 -5 0 -10 6 -10 13 0 13 -40 37 -61 37 -11 0 -39 25 -39 35 0 9 -21 29
-45 43 -11 6 -14 12 -7 12 19 0 14 24 -8 40 -11 8 -20 20 -20 26 0 6 -13 17
-30 24 -16 7 -30 16 -30 21 0 5 -9 9 -20 9 -16 0 -20 7 -20 35 0 21 -5 35 -12
35 -9 0 -8 4 2 11 12 9 12 10 -4 5 -12 -4 -25 1 -37 15 -10 11 -23 18 -29 14
-13 -8 -40 18 -40 40 0 12 -5 15 -17 11 -9 -4 -19 -2 -23 4 -10 16 -108 43
-156 44 -22 0 -58 -7 -80 -16 -118 -50 -191 -59 -249 -31 -28 13 -35 22 -35
45 0 15 -4 28 -10 28 -5 0 -10 16 -10 36 0 40 -13 58 -51 67 -35 9 -74 43 -57
51 7 3 3 3 -8 1 -14 -4 -31 4 -52 23 -16 15 -48 36 -71 47 -23 10 -41 22 -41
27 0 4 -9 8 -20 8 -11 0 -20 3 -20 8 0 7 -4 9 -163 62 -71 23 -95 36 -85 42
10 7 8 8 -5 4 -26 -8 -111 5 -95 15 9 6 6 9 -9 9 -13 0 -23 -5 -23 -11 0 -7
-11 -9 -27 -6 -15 3 -35 1 -45 -4 -9 -5 -36 -11 -60 -13 -54 -5 -101 -17 -108
-26 -3 -4 -34 -2 -70 6 -36 7 -89 15 -118 16 -28 1 -52 5 -52 8 0 3 -27 14
-60 23 -66 20 -78 29 -27 22 l32 -5 -29 10 c-16 5 -32 13 -35 18 -3 5 -40 26
-81 47 -41 21 -78 42 -81 46 -10 17 -114 49 -139 44 -14 -3 -43 2 -65 10 l-40
16 35 -6 c25 -3 31 -2 20 5 -8 5 -35 7 -60 5 -25 -3 -83 -1 -130 3 -47 5 -70
10 -51 11 19 0 32 3 29 6 -3 3 -57 0 -119 -6 -63 -7 -154 -11 -204 -10 -49 1
-95 -2 -102 -6 -6 -5 26 -7 70 -6 l82 1 -95 -8 c-52 -5 -104 -7 -115 -4 -15 4
-17 3 -6 -4 11 -8 4 -13 -30 -22 -24 -7 -59 -13 -77 -15 -18 -1 -36 -6 -40
-10 -4 -4 4 -4 18 -1 19 6 21 5 10 -3 -8 -6 -25 -8 -38 -4 -13 3 -43 0 -65 -6
-145 -42 -155 -44 -137 -31 12 8 8 9 -15 4 -36 -8 -68 -23 -77 -37 -3 -6 -19
-11 -35 -12 -48 -4 -103 -17 -103 -25 0 -4 -26 -11 -57 -15 -32 -4 -60 -11
-63 -15 -3 -5 -42 -16 -88 -25 -45 -9 -104 -25 -130 -35 -26 -10 -63 -24 -82
-32 -19 -7 -37 -16 -40 -19 -8 -9 -50 -30 -79 -39 -67 -21 -132 -50 -146 -64
-9 -9 -25 -16 -35 -16 -11 0 -30 -11 -44 -25 -14 -14 -37 -25 -51 -25 -16 0
-25 -6 -25 -16 0 -11 -6 -13 -19 -9 -13 4 -27 -2 -43 -18 -13 -13 -32 -26 -43
-29 -51 -16 -129 -49 -134 -57 -3 -5 -23 -12 -44 -16 -20 -4 -37 -11 -37 -15
0 -21 -127 -57 -230 -64 -36 -3 -66 -5 -67 -5 -2 -1 -3 -10 -3 -21 0 -25 -12
-25 -80 0 -30 11 -57 20 -60 20 -3 0 2 5 10 11 11 8 8 9 -15 4 -44 -11 -128
-7 -136 6 -4 7 -21 10 -40 7 -21 -3 -38 0 -47 9 -8 8 -21 12 -28 9 -16 -6 -64
13 -64 25 0 4 -9 11 -20 14 -11 3 -20 12 -20 20 0 16 -22 25 -61 25 -16 0 -88
29 -159 65 -71 36 -142 65 -156 65 -14 0 -54 7 -88 16 -36 9 -78 14 -103 10
-42 -6 -205 -81 -211 -97 -2 -5 -10 -9 -19 -9 -15 0 -43 -23 -43 -35 0 -10
-60 -65 -71 -65 -5 0 -9 -5 -9 -11 0 -17 -39 -48 -69 -56 -25 -6 -71 -45 -71
-60 0 -5 -9 -15 -20 -23 -11 -8 -20 -20 -20 -27 0 -7 -4 -13 -10 -13 -5 0 -10
-7 -10 -15 0 -8 -4 -15 -8 -15 -17 0 -52 -38 -52 -55 0 -17 -35 -55 -51 -55
-5 0 -24 -15 -42 -34 -50 -49 -73 -59 -123 -51 -24 3 -44 10 -44 16 0 14 -77
11 -92 -5 -8 -7 -29 -21 -47 -31 -18 -9 -52 -35 -76 -58 -42 -41 -60 -56 -105
-87 -13 -8 -40 -32 -61 -52 -22 -20 -48 -40 -59 -43 -11 -4 -20 -13 -20 -21 0
-8 -4 -14 -9 -14 -5 0 -28 -18 -51 -40 -23 -22 -45 -40 -50 -40 -4 0 -23 -14
-41 -30 -51 -45 -56 -49 -84 -62 -14 -6 -25 -14 -25 -18 0 -10 -42 -26 -120
-46 -84 -21 -183 -15 -208 13 -28 32 -92 42 -205 32 -138 -12 -258 -30 -281
-41 -26 -14 -186 -176 -186 -189 0 -33 -55 -58 -150 -69 -81 -9 -110 -6 -110
12 0 26 -33 39 -107 42 -43 2 -81 4 -85 5 -5 0 -8 11 -8 24 0 12 -9 29 -21 37
-45 32 -59 48 -59 69 0 27 -42 71 -69 71 -34 0 -51 12 -51 35 0 15 -8 26 -19
30 -26 8 -81 60 -81 75 0 15 -35 47 -61 55 -11 4 -19 12 -19 19 0 27 -161 80
-245 81 l-60 0 -3 -2852 -2 -2853 17271 0 c13056 0 17276 3 17292 12 12 6 30
20 39 31 22 24 57 17 92 -18 l25 -25 1301 0 c1189 0 1304 1 1333 16 18 10 39
25 48 35 9 11 24 19 33 19 9 0 16 7 16 15 0 8 5 15 10 15 6 0 10 6 10 13 0 7
9 19 20 27 11 8 20 20 20 27 0 6 9 15 20 18 11 3 20 15 20 25 0 10 9 22 20 25
11 3 20 13 20 21 0 8 7 14 15 14 9 0 27 11 40 24 13 14 34 27 45 31 11 3 20
11 20 16 0 5 11 9 25 9 24 0 124 44 135 60 3 4 21 15 40 25 19 10 37 21 40 24
9 12 82 31 180 46 132 21 260 58 260 76 0 4 9 11 20 14 11 3 20 11 20 16 0 13
78 89 91 89 5 0 9 7 9 15 0 8 5 15 10 15 6 0 10 8 10 18 0 10 9 24 20 32 11 8
20 22 20 32 0 10 5 18 10 18 6 0 10 7 10 16 0 9 14 29 30 44 17 15 30 35 30
44 0 9 6 16 13 16 6 1 1 7 -13 15 -14 8 -20 14 -14 15 6 0 20 8 32 18 11 9 30
24 42 32 48 33 60 48 60 76 0 18 8 35 20 44 11 8 20 19 20 25 0 6 9 17 20 25
11 8 20 19 20 25 0 6 9 17 20 25 11 8 20 19 20 26 0 6 18 19 40 29 22 10 40
24 40 31 0 7 9 16 20 19 11 3 20 13 20 21 0 20 77 94 96 94 29 0 76 -32 139
-93 84 -82 82 -80 164 -121 l71 -36 0 2755 0 2756 -30 -16 c-28 -15 -33 -14
-80 10 -41 21 -54 23 -71 14 -16 -8 -23 -8 -29 0 -7 13 -40 4 -40 -11 0 -17
-29 -39 -62 -49 -46 -13 -58 -11 -58 7 0 11 -5 14 -17 9 -54 -22 -119 -45
-130 -45 -7 0 -13 8 -13 19 0 24 -60 37 -91 20 -17 -8 -23 -8 -29 1 -5 7 -17
10 -29 7 -12 -3 -45 4 -74 15 -28 11 -63 23 -77 28 -40 13 -80 33 -80 40 0 4
-19 15 -42 24 -78 32 -378 180 -378 187 0 4 -13 9 -29 12 -16 3 -35 12 -43 20
-8 8 -30 22 -48 32 -19 10 -37 21 -40 25 -14 20 -151 78 -198 83 -50 6 -82 24
-82 46 0 6 -4 11 -10 11 -5 0 -10 5 -10 11 0 14 -36 46 -61 54 -11 4 -19 12
-19 19 0 8 -15 19 -32 26 -18 6 -48 18 -66 26 -18 8 -45 14 -60 14 -15 0 -47
8 -72 16 -49 18 -240 37 -360 37 -57 0 -86 -6 -117 -21 -42 -22 -102 -45 -160
-63 -18 -6 -33 -14 -33 -19 0 -5 -9 -12 -20 -15 -11 -3 -20 -12 -20 -20 0 -8
-9 -17 -20 -20 -11 -3 -20 -15 -20 -26 0 -10 -4 -19 -10 -19 -5 0 -10 -6 -10
-13 0 -7 -9 -19 -20 -27 -11 -8 -20 -22 -20 -32 0 -10 -4 -18 -10 -18 -5 0
-10 -7 -10 -15 0 -8 -4 -15 -10 -15 -5 0 -10 -5 -10 -11 0 -17 -40 -49 -62
-49 -10 0 -18 -5 -18 -10 0 -13 -112 -9 -122 4 -4 6 -21 5 -45 -2 -21 -6 -50
-14 -65 -17 -16 -3 -28 -12 -28 -20 0 -8 -4 -15 -9 -15 -5 0 -28 -18 -51 -40
-23 -22 -46 -40 -51 -40 -5 0 -9 -6 -9 -14 0 -7 -14 -19 -31 -26 -31 -13 -129
-102 -129 -117 0 -5 -9 -15 -20 -23 -11 -8 -20 -20 -20 -27 0 -7 -4 -13 -10
-13 -5 0 -10 -7 -10 -15 0 -8 -4 -15 -10 -15 -5 0 -10 -7 -10 -15 0 -8 -4 -15
-10 -15 -5 0 -10 -7 -10 -15 0 -8 -4 -15 -10 -15 -5 0 -10 -8 -10 -18 0 -10
-9 -24 -20 -32 -11 -8 -20 -20 -20 -27 0 -7 -4 -13 -10 -13 -5 0 -10 -9 -10
-20 0 -11 -4 -20 -10 -20 -5 0 -10 -7 -10 -15 0 -8 -4 -15 -10 -15 -5 0 -10
-9 -10 -20 0 -11 -4 -20 -10 -20 -5 0 -10 -9 -10 -20 0 -11 -4 -20 -10 -20 -5
0 -10 -7 -10 -15 0 -8 -4 -15 -10 -15 -5 0 -10 -9 -10 -20 0 -11 -4 -20 -10
-20 -5 0 -10 -9 -10 -20 0 -11 -4 -20 -10 -20 -5 0 -10 -5 -10 -11 0 -21 -27
-36 -75 -43 -65 -9 -105 -25 -105 -42 0 -8 -4 -14 -10 -14 -5 0 -10 -7 -10
-15 0 -8 -4 -15 -10 -15 -5 0 -10 -9 -10 -21 0 -25 -26 -53 -40 -44 -20 13
-60 -4 -60 -25 0 -11 6 -20 13 -20 6 -1 -1 -8 -17 -16 -41 -23 -103 -87 -88
-92 7 -2 12 -8 12 -14 0 -14 -37 -46 -61 -53 -11 -4 -19 -14 -19 -23 0 -10 -9
-24 -20 -32 -11 -8 -20 -21 -20 -28 0 -7 -18 -31 -40 -52 -22 -21 -40 -42 -40
-47 0 -5 -9 -15 -20 -23 -11 -8 -20 -18 -20 -23 0 -5 -13 -22 -30 -37 -16 -15
-30 -33 -30 -39 0 -6 -4 -11 -10 -11 -5 0 -10 -7 -10 -15 0 -8 -4 -15 -10 -15
-5 0 -10 -9 -10 -20 0 -11 -4 -20 -10 -20 -5 0 -10 -6 -10 -13 0 -7 -9 -19
-20 -27 -11 -8 -20 -19 -20 -24 0 -17 -43 -46 -84 -57 -57 -14 -96 -30 -96
-39 0 -4 -13 -10 -28 -13 -16 -3 -43 -18 -60 -34 -17 -15 -38 -33 -46 -40 -7
-6 -47 -28 -87 -49 -41 -20 -76 -40 -79 -44 -3 -4 -38 -24 -79 -45 -41 -20
-80 -43 -88 -50 -7 -8 -22 -17 -33 -20 -11 -3 -20 -10 -20 -15 0 -5 -18 -14
-40 -20 -22 -6 -50 -21 -63 -34 -28 -28 -79 -56 -102 -56 -8 0 -15 -4 -15 -10
0 -5 -7 -10 -15 -10 -22 0 -77 -29 -95 -50 -29 -33 -118 -69 -210 -85 -51 -9
-115 -27 -142 -41 -27 -14 -90 -38 -139 -54 -49 -16 -95 -35 -103 -41 -50 -42
-76 -69 -76 -78 0 -6 -4 -11 -10 -11 -5 0 -10 -9 -10 -19 0 -11 -9 -23 -20
-26 -11 -4 -32 -17 -45 -31 -47 -47 -73 -35 -201 89 -174 170 -202 195 -235
213 -18 9 -39 23 -47 30 -7 8 -22 14 -33 14 -10 0 -19 4 -19 10 0 5 -17 14
-37 19 -70 20 -183 10 -183 -15 0 -22 -45 -17 -100 11 -50 26 -100 33 -100 15
0 -5 -19 -10 -42 -10 -32 0 -39 3 -28 10 8 5 11 10 7 10 -10 0 -46 -19 -64
-34 -52 -43 -73 -66 -73 -79 0 -9 -8 -18 -19 -22 -23 -7 -61 -39 -61 -51 0 -5
-9 -16 -20 -24 -11 -8 -20 -20 -20 -27 0 -7 -4 -13 -9 -13 -5 0 -23 -13 -41
-30 -18 -16 -36 -30 -41 -30 -5 0 -9 -11 -9 -25 0 -14 -4 -25 -10 -25 -5 0
-10 -7 -10 -16 0 -23 -26 -45 -44 -38 -10 4 -16 1 -16 -8 0 -7 -9 -20 -20 -28
-11 -8 -20 -19 -20 -25 0 -6 -9 -17 -20 -25 -11 -8 -20 -18 -20 -23 0 -5 -14
-22 -31 -38 -25 -23 -40 -29 -76 -29 -24 0 -54 5 -65 11 -23 12 -88 75 -88 84
0 4 -18 24 -40 45 -22 21 -40 42 -40 47 -1 4 -19 24 -41 43 -21 19 -57 51 -78
70 -21 19 -49 42 -61 50 -13 8 -33 25 -45 37 -40 38 -164 93 -213 93 -27 0
-107 -23 -172 -50 -94 -39 -120 -46 -129 -31 -7 10 -21 12 -55 7 -38 -6 -46
-11 -46 -28 0 -33 -37 -58 -86 -58 -49 0 -94 17 -94 36 0 14 -15 19 -75 29
-47 7 -109 -5 -185 -35 -30 -12 -75 -27 -100 -34 -25 -7 -64 -23 -87 -34 -23
-12 -49 -22 -58 -22 -8 0 -15 -4 -15 -9 0 -5 -32 -19 -71 -31 -81 -26 -154
-23 -210 6 -36 19 -100 35 -136 36 -13 0 -23 6 -23 14 0 9 -11 14 -31 14 -16
0 -52 7 -79 16 -54 17 -115 11 -195 -20 -22 -8 -57 -15 -77 -16 -48 0 -138
-21 -138 -32 0 -4 -11 -8 -24 -8 -37 0 -61 -11 -45 -21 8 -5 -2 -11 -29 -19
-23 -6 -42 -15 -42 -20 0 -6 -28 -10 -63 -10 -68 0 -119 -11 -142 -32 -32 -29
-42 -35 -68 -42 -15 -3 -27 -13 -27 -20 0 -24 -31 -28 -50 -6 -30 35 -40 30
-150 -72 -22 -20 -49 -40 -60 -43 -11 -4 -20 -10 -20 -15 0 -4 -15 -10 -32
-13 -18 -3 -53 -11 -78 -17 -25 -6 -55 -12 -67 -12 -13 0 -23 -4 -23 -8 0 -4
-15 -11 -32 -15 -18 -4 -27 -9 -20 -12 6 -2 12 -12 12 -20 0 -12 -7 -14 -30
-9 -22 4 -30 2 -30 -9 0 -17 -17 -20 -22 -4 -2 5 -11 7 -21 4 -18 -8 -23 -25
-7 -25 6 0 10 -6 10 -14 0 -17 -33 -31 -38 -17 -5 16 -22 13 -22 -4 0 -8 -4
-15 -10 -15 -5 0 -10 -5 -10 -11 0 -27 -47 -54 -112 -63 -26 -4 -54 -14 -62
-22 -8 -8 -23 -14 -33 -15 -10 0 -13 -3 -5 -6 19 -7 14 -19 -13 -31 -34 -16
-35 -15 -35 8 0 16 -5 19 -25 15 -14 -3 -36 -7 -50 -10 -14 -3 -25 -12 -25
-20 0 -8 -7 -15 -16 -15 -18 0 -44 -23 -44 -39 0 -6 -4 -11 -10 -11 -5 0 -10
-5 -10 -11 0 -7 -9 -20 -21 -29 l-20 -18 20 -7 c40 -12 21 -22 -51 -27 -40 -3
-93 -13 -118 -22 -51 -18 -132 -21 -160 -6 -20 10 -70 -5 -70 -21 0 -5 -19
-13 -42 -19 -69 -17 -97 -31 -129 -61 -17 -16 -35 -29 -40 -29 -5 0 -9 -7 -9
-15 0 -8 -4 -15 -10 -15 -5 0 -10 -7 -10 -15 0 -8 -4 -15 -8 -15 -14 0 -52
-36 -52 -49 0 -6 -4 -11 -8 -11 -13 0 -52 -36 -52 -46 0 -5 -9 -16 -20 -24
-11 -8 -20 -19 -20 -25 0 -6 -9 -17 -20 -25 -11 -8 -20 -22 -20 -32 0 -10 -4
-18 -10 -18 -5 0 -10 -6 -10 -13 0 -7 -9 -19 -20 -27 -11 -8 -20 -21 -20 -30
0 -9 -10 -22 -21 -30 -36 -25 -119 -108 -119 -119 0 -6 -4 -11 -10 -11 -5 0
-10 -7 -10 -16 0 -9 -13 -29 -30 -44 -16 -15 -30 -33 -30 -39 0 -6 -4 -11 -10
-11 -5 0 -10 -7 -10 -15 0 -8 -4 -15 -10 -15 -5 0 -10 -6 -10 -13 0 -8 -22
-24 -50 -37 -27 -13 -50 -29 -50 -36 0 -19 -30 -25 -46 -10 -8 8 -14 19 -14
25 0 6 -4 11 -8 11 -14 0 -52 36 -52 49 0 6 -4 11 -10 11 -5 0 -10 9 -10 20 0
11 -4 20 -10 20 -5 0 -10 11 -10 25 0 14 -4 25 -10 25 -5 0 -10 11 -10 25 0
14 -4 25 -10 25 -5 0 -10 14 -10 30 0 17 -4 30 -10 30 -5 0 -10 14 -10 30 0
17 -4 30 -10 30 -5 0 -10 11 -10 25 0 14 -4 25 -10 25 -5 0 -10 14 -10 30 0
17 -4 30 -10 30 -5 0 -10 11 -10 25 0 14 -4 25 -10 25 -5 0 -10 14 -10 30 0
17 -4 30 -10 30 -5 0 -10 11 -10 25 0 14 -4 25 -10 25 -5 0 -10 14 -10 30 0
17 -4 30 -10 30 -5 0 -10 11 -10 25 0 14 -4 25 -10 25 -5 0 -10 11 -10 25 0
14 -4 25 -10 25 -5 0 -10 11 -10 25 0 14 -4 25 -10 25 -5 0 -10 7 -10 15 0 8
-4 15 -10 15 -5 0 -10 9 -10 20 0 11 -4 20 -10 20 -5 0 -10 7 -10 15 0 8 -4
15 -10 15 -5 0 -10 7 -10 15 0 8 -4 15 -10 15 -5 0 -10 9 -10 20 0 11 -4 20
-10 20 -5 0 -10 7 -10 15 0 8 -4 15 -10 15 -5 0 -10 7 -10 15 0 8 -4 15 -10
15 -5 0 -10 9 -10 20 0 11 -4 20 -10 20 -5 0 -10 7 -10 15 0 8 -4 15 -10 15
-5 0 -10 7 -10 15 0 8 -4 15 -10 15 -5 0 -10 7 -10 15 0 8 -4 15 -10 15 -5 0
-10 9 -10 20 0 11 -4 20 -10 20 -5 0 -10 7 -10 15 0 8 -4 15 -10 15 -5 0 -10
7 -10 15 0 8 -4 15 -10 15 -5 0 -10 7 -10 15 0 8 -4 15 -10 15 -5 0 -10 7 -10
15 0 8 -4 15 -10 15 -5 0 -10 8 -10 18 0 10 -9 24 -20 32 -11 8 -20 22 -20 32
0 10 -4 18 -10 18 -5 0 -10 7 -10 15 0 8 -4 15 -10 15 -5 0 -10 7 -10 15 0 8
-4 15 -10 15 -5 0 -10 7 -10 15 0 8 -4 15 -10 15 -5 0 -10 6 -10 13 0 7 -9 19
-20 27 -11 8 -20 18 -20 23 0 5 -13 22 -30 37 -16 15 -30 31 -30 35 0 9 -100
105 -110 105 -4 0 -22 12 -39 28 -16 15 -44 38 -61 52 -17 14 -44 36 -59 50
-16 14 -39 32 -51 40 -25 17 -62 48 -119 100 -21 19 -49 42 -61 50 -12 8 -35
26 -50 40 -15 14 -38 32 -50 40 -12 8 -31 23 -42 32 -12 10 -24 18 -28 18 -5
0 -21 12 -38 28 -16 15 -40 34 -52 42 -12 8 -31 23 -42 32 -11 10 -29 20 -39
23 -11 4 -19 10 -19 15 0 5 -8 11 -19 15 -16 5 -29 14 -77 54 -6 5 -31 19 -55
31 -24 13 -46 26 -49 30 -3 4 -21 15 -40 25 -18 10 -39 23 -46 29 -6 6 -21 18
-33 26 -11 8 -21 19 -21 25 0 6 -9 17 -20 25 -11 8 -20 21 -20 30 0 9 -9 22
-20 30 -11 8 -20 20 -20 27 0 7 -4 13 -10 13 -5 0 -10 5 -10 11 0 16 -26 39
-44 39 -10 0 -16 9 -16 25 0 14 5 25 10 25 6 0 10 14 10 30 0 17 -4 30 -10 30
-5 0 -10 14 -10 30 0 17 5 30 10 30 6 0 10 23 10 50 0 28 5 50 10 50 6 0 10 5
10 11 0 18 42 50 72 56 16 3 28 9 28 14 0 5 9 9 20 9 16 0 20 7 20 30 0 21 5
30 16 30 9 0 29 14 44 30 21 22 37 30 63 30 20 0 37 4 39 9 2 5 55 12 118 16
63 3 129 7 145 8 54 4 95 27 95 54 0 25 44 78 59 69 4 -3 24 -1 44 5 30 8 37
15 37 34 0 14 4 25 8 25 10 0 44 26 94 73 22 20 44 37 49 37 5 0 9 6 9 13 0 7
9 19 20 27 11 8 20 20 20 27 0 6 9 15 20 18 11 3 20 14 20 23 0 10 9 24 20 32
11 8 20 22 20 32 0 12 8 18 25 18 46 0 75 21 75 53 0 36 18 53 99 91 43 21 61
35 61 49 0 26 20 42 58 44 36 2 71 28 49 36 -9 4 -9 6 1 6 7 1 12 15 12 36 0
19 5 35 10 35 6 0 10 16 10 35 0 31 -3 36 -30 41 -21 5 -30 12 -30 25 0 11 -4
19 -10 19 -5 0 -10 7 -10 15 0 10 -10 15 -28 15 -16 0 -38 8 -50 18 -11 9 -30
24 -41 32 -12 8 -21 22 -21 31 0 10 -6 19 -12 21 -15 5 3 26 37 46 11 6 14 12
8 12 -9 0 -13 18 -13 54 0 47 3 56 21 61 17 6 19 9 8 16 -12 7 -11 9 1 9 13 0
13 1 0 10 -12 8 -10 10 10 11 14 0 19 3 13 6 -15 6 -17 33 -3 33 6 0 10 28 10
64 0 42 4 66 13 69 10 4 10 6 0 6 -15 1 -18 51 -3 51 6 0 10 7 10 16 0 39 50
50 205 45 71 -3 142 9 125 19 -25 15 37 23 129 16 47 -3 228 -5 401 -5 377 1
369 1 398 -6 18 -4 22 -1 22 20 0 14 5 25 10 25 6 0 10 13 10 29 0 16 6 32 13
34 10 4 10 6 0 6 -9 1 -13 25 -13 85 0 76 2 85 20 91 11 3 20 13 20 21 0 8 4
14 8 14 20 0 52 39 52 63 0 25 23 42 41 31 5 -3 17 2 26 11 14 14 14 18 2 27
-10 7 -8 8 9 3 18 -5 22 -2 22 18 0 27 16 37 61 37 17 0 40 5 51 11 28 15 108
96 108 109 0 5 5 10 10 10 6 0 10 11 10 25 0 14 5 25 10 25 6 0 10 6 10 13 0
6 13 22 28 35 48 40 70 57 92 72 13 8 34 26 47 39 27 26 126 57 131 41 6 -17
71 -11 112 10 22 11 54 20 72 20 22 0 39 7 48 20 10 14 26 20 52 20 31 0 38 4
38 19 0 21 19 31 55 31 13 0 25 5 27 10 4 14 132 41 136 29 2 -5 12 -9 23 -9
12 0 19 -7 19 -20 0 -11 5 -20 10 -20 6 0 10 -6 10 -13 0 -7 9 -19 20 -27 11
-8 20 -20 20 -27 0 -7 8 -13 18 -13 10 0 24 -9 32 -20 16 -22 46 -27 52 -9 3
9 9 9 25 0 12 -6 67 -11 127 -11 58 0 106 -4 108 -10 5 -14 171 -16 176 -2 2
7 12 12 23 12 10 0 19 5 19 10 0 6 11 10 26 10 18 0 42 18 84 60 32 33 66 60
74 60 9 0 16 9 16 20 0 12 7 20 16 20 20 0 44 24 44 44 0 9 5 16 10 16 16 0
12 129 -4 146 -23 22 -66 18 -66 -6 0 -11 -4 -20 -10 -20 -5 0 -10 -18 -10
-40 0 -22 -4 -40 -10 -40 -5 0 -10 -13 -10 -30 0 -16 -4 -30 -10 -30 -5 0 -10
-11 -10 -25 0 -29 -40 -75 -65 -75 -8 0 -15 -4 -15 -10 0 -5 -9 -10 -20 -10
-11 0 -20 -4 -20 -10 0 -5 -9 -10 -20 -10 -11 0 -20 -4 -20 -10 0 -5 -9 -10
-20 -10 -11 0 -20 -4 -20 -10 0 -5 -18 -10 -40 -10 -25 0 -40 5 -40 13 0 6
-15 17 -32 24 -72 25 -112 42 -100 43 6 0 12 7 12 15 0 8 5 15 10 15 6 0 10 7
10 16 0 34 57 66 150 85 36 8 71 19 78 26 7 7 18 13 23 13 5 0 9 7 9 15 0 8 5
15 10 15 6 0 10 9 10 20 0 11 5 20 10 20 6 0 10 10 10 21 0 25 35 59 62 59 10
0 18 -7 18 -15 0 -8 6 -15 14 -15 26 0 46 12 46 27 0 21 25 43 50 43 28 0 58
29 42 39 -14 9 30 31 101 52 26 7 47 16 47 19 0 3 30 6 67 7 38 1 69 6 71 12
2 6 12 11 23 11 12 0 19 7 19 20 0 13 7 20 20 20 11 0 20 5 20 10 0 6 14 10
30 10 17 0 30 -4 30 -10 0 -20 33 -9 61 21 32 35 103 64 181 74 29 4 65 13 79
21 14 7 36 10 47 7 30 -7 72 5 72 21 0 15 43 26 105 26 51 0 75 8 75 24 0 11
35 30 153 80 21 9 62 16 92 16 30 0 55 4 55 9 0 5 14 11 30 15 18 3 30 12 30
21 0 8 8 15 18 15 10 0 24 9 32 20 8 11 20 20 28 20 23 0 82 68 82 95 0 14 5
25 10 25 6 0 10 7 10 15 0 25 46 65 75 65 18 0 25 -5 25 -20 0 -11 5 -20 10
-20 6 0 10 7 10 15 0 8 5 15 10 15 6 0 10 7 10 15 0 9 10 15 23 16 12 0 16 3
10 6 -7 2 -13 11 -13 19 0 8 -4 14 -10 14 -5 0 -10 5 -10 10 0 6 9 10 20 10
11 0 20 5 20 10 0 6 14 10 30 10 17 0 30 5 30 10 0 6 8 10 18 10 11 0 29 8 40
19 23 19 29 41 12 41 -5 0 -10 -6 -10 -14 0 -8 -7 -17 -16 -20 -28 -11 -28 1
0 29 l27 27 18 -21 c26 -29 31 -26 31 17 0 27 6 42 21 52 46 33 64 53 52 57
-29 10 -13 33 23 33 40 0 64 19 64 50 0 12 18 39 40 60 22 21 40 46 40 54 0 9
8 16 20 16 13 0 20 7 20 20 0 11 5 20 10 20 6 0 10 7 10 15 0 18 44 65 60 65
6 0 22 11 36 25 26 26 44 32 44 15 0 -5 5 -10 10 -10 6 0 10 16 10 35 0 28 4
35 20 35 11 0 20 5 20 10 0 6 12 10 26 10 26 0 54 20 54 39 0 6 5 11 10 11 6
0 10 9 10 20 0 11 4 20 9 20 20 0 91 79 91 102 0 13 9 30 20 38 11 8 20 21 20
30 0 9 10 22 21 30 12 8 27 20 33 26 7 7 25 10 39 7 22 -4 27 -2 27 16 0 11 4
21 8 21 14 0 52 36 52 49 0 8 8 10 20 6 16 -5 20 -2 20 17 0 13 9 30 20 38 11
8 20 22 20 32 0 11 7 18 20 18 11 0 20 7 20 15 0 8 5 15 10 15 6 0 10 6 10 13
0 7 9 19 21 27 44 31 59 48 59 66 0 11 14 30 31 44 73 60 109 100 109 119 0
11 9 22 20 26 16 5 20 15 20 46 0 36 7 46 70 109 39 38 70 74 70 80 0 17 26
40 44 40 9 0 16 4 16 9 0 5 14 11 30 15 18 3 30 12 30 21 0 8 9 15 20 15 11 0
20 5 20 11 0 6 8 8 19 4 11 -3 25 1 34 10 9 8 23 15 31 15 9 0 16 5 16 10 0 6
14 10 30 10 17 0 30 5 30 10 0 6 27 10 60 10 33 0 60 4 60 10 0 6 23 10 50 10
28 0 50 5 50 10 0 6 30 10 70 10 40 0 70 4 70 10 0 6 14 10 30 10 22 0 30 5
30 18 0 14 13 21 51 30 28 7 68 12 90 12 21 0 39 5 39 10 0 6 14 10 30 10 17
0 30 5 30 10 0 6 9 10 20 10 11 0 20 5 20 10 0 6 26 10 59 10 33 0 61 4 63 9
2 6 28 10 58 10 30 0 77 0 104 1 28 0 53 4 56 10 3 5 36 15 73 22 37 7 67 16
67 20 0 5 18 8 40 8 22 0 40 4 40 8 0 4 32 9 70 10 43 2 70 -1 70 -8 0 -5 9
-10 20 -10 11 0 20 5 20 10 0 6 9 10 20 10 11 0 20 5 20 10 0 6 8 10 18 10 10
0 24 9 32 20 8 11 22 20 32 20 11 0 18 7 18 20 0 12 7 20 16 20 31 0 44 27 44
90 0 56 -3 65 -30 90 -35 33 -37 40 -10 40 11 0 20 5 20 10 0 6 -9 10 -20 10
-17 0 -20 7 -20 40 0 22 5 40 10 40 15 0 12 29 -4 46 -8 8 -31 14 -50 14 l-36
0 0 -60z"/>
</g>
</svg>
