<?xml version="1.0" standalone="no"?>
<!DOCTYPE svg PUBLIC "-//W3C//DTD SVG 20010904//EN"
 "http://www.w3.org/TR/2001/REC-SVG-20010904/DTD/svg10.dtd">
<svg version="1.0" xmlns="http://www.w3.org/2000/svg"
 width="3506.000000pt" height="3950.000000pt" viewBox="0 0 3506.000000 3950.000000"
 preserveAspectRatio="xMidYMid meet">
<metadata>
Created by potrace 1.15, written by Peter Selinger 2001-2017
</metadata>
<g transform="translate(0.000000,3950.000000) scale(0.100000,-0.100000)"
fill="#ffffff" stroke="000000" stroke-width="0.01">
<path fill="#ffffff" stroke="000000" stroke-width="0.01" d="M0 19750 l0 -19750 15530 0 c13800 0
15529 2 15524 15 -4 8 -10 15 -14 15 -4 0 -10 15 -14 33 -6 30 -16 65 -66 236
-16 51 -19 83 -15 127 4 32 8 73 10 89 5 52 25 115 36 115 21 0 69 62 80 103
6 22 8 53 5 69 -5 28 8 40 17 16 4 -10 6 -10 6 0 1 6 6 12 12 12 21 0 49 43
49 75 0 18 -7 56 -15 84 -8 28 -22 74 -30 101 -8 28 -12 56 -9 63 3 8 -2 47
-11 88 -18 91 -18 89 0 89 8 0 15 5 15 10 0 6 9 10 21 10 26 0 44 18 52 51 13
51 67 89 80 57 4 -10 7 -10 14 0 7 9 16 -2 33 -38 21 -46 26 -50 58 -50 25 0
41 -8 62 -30 15 -16 34 -30 40 -30 14 0 50 -38 50 -52 0 -4 18 -8 41 -8 23 0
47 -7 56 -15 18 -19 54 -108 60 -152 3 -18 9 -33 14 -33 5 0 9 -15 10 -32 0
-18 3 -27 6 -20 9 22 33 13 33 -13 0 -14 8 -42 19 -63 10 -20 22 -59 25 -87
13 -92 25 -125 46 -125 22 0 40 -51 40 -113 0 -37 17 -67 39 -67 6 0 11 -17
11 -39 0 -57 11 -101 25 -101 18 0 27 -28 15 -50 -15 -27 -12 -50 5 -50 16 0
19 -17 9 -45 -5 -13 -9 -14 -15 -3 -6 8 -7 2 -4 -17 6 -32 -12 -71 -22 -47 -2
6 -11 12 -19 12 -8 0 -14 9 -14 20 0 11 -4 20 -10 20 -5 0 -10 -4 -10 -10 0
-5 -5 -10 -11 -10 -6 0 -8 9 -3 22 l6 23 -19 -22 c-25 -29 -47 -30 -38 -3 4
12 2 20 -6 20 -6 0 -21 10 -32 23 l-19 22 6 -22 c16 -59 17 -68 8 -54 -8 11
-10 11 -15 0 -5 -12 -8 -11 -17 1 -13 16 -13 16 16 -60 16 -42 18 -110 4 -110
-5 0 -10 -11 -10 -25 l0 -25 264 0 c233 0 267 2 281 17 14 14 18 14 26 2 6
-10 9 -10 9 -1 0 16 47 16 52 0 7 -19 356 -25 362 -7 3 8 10 33 16 56 9 38 70
119 70 94 0 -7 31 -11 90 -11 53 0 90 -4 90 -10 0 -5 20 -10 45 -10 25 0 45
-4 45 -10 0 -5 25 -10 55 -10 30 0 55 5 55 10 0 6 13 10 28 10 16 0 34 8 42
20 21 30 35 25 55 -20 23 -52 48 -80 69 -80 9 0 28 -11 42 -25 l25 -25 794 0
795 0 0 19750 0 19750 -17530 0 -17530 0 0 -19750z"/>
<path fill="#ffffff" stroke="000000" stroke-width="0.01" d="M34440 28069 c28 -39 47 -59 58 -59 16
0 24 -37 17 -80 -8 -46 1 -80 21 -80 8 0 14 -4 14 -10 0 -5 7 -10 15 -10 8 0
15 -4 15 -10 0 -5 7 -10 16 -10 8 0 41 -27 72 -60 75 -78 76 -80 102 -130 12
-24 27 -49 34 -56 6 -6 18 -22 26 -34 8 -12 22 -30 30 -40 9 -10 22 -41 30
-69 7 -28 17 -51 22 -51 4 0 8 -9 8 -19 0 -11 5 -21 10 -23 15 -5 38 -98 33
-138 -8 -77 -12 -92 -35 -152 -10 -26 -15 -28 -64 -28 -30 0 -54 5 -54 10 0 6
-11 10 -25 10 -14 0 -25 5 -25 10 0 6 -13 10 -30 10 -16 0 -30 -4 -30 -10 0
-5 -6 -10 -14 -10 -16 0 -32 -38 -41 -97 -7 -42 -33 -83 -54 -83 -6 0 -11 -4
-11 -10 0 -5 -13 -10 -30 -10 -16 0 -30 5 -30 10 0 6 -11 10 -25 10 -14 0 -25
5 -25 10 0 6 -6 10 -13 10 -20 0 -65 101 -78 176 -17 100 0 217 40 263 12 14
30 21 55 21 20 0 36 5 36 10 0 6 7 10 15 10 22 0 29 43 15 102 -12 52 -46 128
-60 138 -4 3 -21 32 -38 66 -34 68 -62 203 -62 301 0 60 -15 113 -32 113 -4 0
-8 5 -8 10 0 6 19 10 43 10 32 0 46 -5 57 -21z"/>
<path fill="#ffffff" stroke="000000" stroke-width="0.01" d="M33710 19190 c0 -13 7 -20 20 -20 13 0
20 -7 20 -20 0 -11 6 -20 14 -20 9 0 17 -15 21 -40 4 -22 11 -40 16 -40 5 0 9
-7 9 -16 0 -15 23 -44 35 -44 12 0 35 -29 35 -44 0 -9 7 -16 15 -16 8 0 15 -7
15 -15 0 -25 23 -65 37 -65 29 0 -1 -106 -43 -148 -8 -7 -14 -18 -14 -23 0 -5
-10 -9 -21 -9 -28 0 -61 -38 -53 -62 9 -29 -24 -22 -57 13 -16 17 -29 35 -29
40 0 5 -9 9 -20 9 -11 0 -20 5 -20 10 0 6 -7 10 -15 10 -10 0 -15 10 -15 30 0
23 -5 30 -19 30 -16 0 -18 5 -14 39 5 34 1 42 -30 74 -27 27 -34 40 -30 58 4
13 10 26 14 30 11 7 -7 70 -22 80 -16 10 -2 59 17 59 11 0 13 6 9 20 -7 22 20
29 28 8 3 -7 6 2 6 20 1 17 5 32 10 32 5 0 13 9 16 20 4 14 15 20 36 20 22 0
29 -5 29 -20z"/>
<path fill="#ffffff" stroke="000000" stroke-width="0.01" d="M33994 18675 c3 -19 9 -51 12 -70 5
-31 4 -35 -15 -35 -17 0 -20 -4 -14 -30 5 -29 4 -30 -31 -30 -22 0 -36 5 -37
13 0 10 -2 10 -6 0 -10 -26 -33 -12 -43 27 -6 22 -15 40 -20 40 -6 0 -10 5
-10 10 0 6 9 10 20 10 11 0 20 5 20 10 0 6 7 10 15 10 8 0 15 5 15 10 0 6 5
10 11 10 13 0 49 38 49 52 0 4 6 8 14 8 8 0 16 -15 20 -35z"/>
<path fill="#ffffff" stroke="000000" stroke-width="0.01" d="M24910 12440 c0 -5 18 -10 40 -10 22 0
40 -4 40 -10 0 -5 18 -10 40 -10 22 0 40 -4 40 -10 0 -5 5 -10 11 -10 15 0
106 -96 114 -120 3 -11 11 -20 16 -20 5 0 9 -11 9 -25 0 -14 9 -43 20 -65 11
-22 20 -46 20 -54 0 -8 5 -16 10 -18 6 -2 17 -23 26 -47 8 -23 21 -50 29 -58
8 -8 18 -26 22 -41 3 -15 14 -34 23 -42 9 -8 20 -27 24 -42 3 -16 13 -28 22
-28 12 0 15 9 13 38 -3 57 -1 62 26 62 14 0 25 -6 25 -12 0 -9 4 -8 11 2 8 11
12 12 16 3 7 -20 31 -15 38 7 3 11 15 20 26 20 10 0 19 5 19 10 0 6 5 10 11
10 15 0 49 39 49 57 0 8 11 25 25 39 14 14 25 29 25 34 0 6 11 10 25 10 14 0
25 5 25 10 0 15 67 12 74 -2 5 -10 7 -10 12 0 7 14 84 17 84 2 0 -5 7 -10 15
-10 8 0 15 -4 15 -10 0 -5 11 -10 25 -10 14 0 25 -4 25 -9 0 -5 8 -17 17 -26
12 -13 18 -38 20 -97 1 -43 7 -87 12 -96 7 -13 9 -10 8 13 -3 67 4 114 17 128
11 10 12 24 5 58 -11 60 -11 66 5 81 16 17 46 73 46 88 0 6 5 16 10 23 39 46
50 61 50 69 0 4 7 8 15 8 8 0 15 5 15 10 0 6 35 10 85 10 l86 0 6 -30 6 -30
18 21 c11 12 19 30 19 41 0 14 8 18 40 18 22 0 40 -4 40 -10 0 -5 25 -10 55
-10 30 0 55 -4 55 -10 0 -5 21 -10 46 -10 41 0 50 -4 95 -51 27 -28 49 -54 49
-59 0 -5 11 -20 25 -34 14 -14 25 -30 25 -36 0 -14 25 -40 39 -40 6 0 11 -4
11 -10 0 -5 7 -10 15 -10 8 0 15 5 15 10 0 6 7 10 15 10 8 0 15 5 15 10 0 15
117 13 124 -2 5 -10 7 -10 12 0 3 6 23 12 45 12 21 0 39 5 39 10 0 6 9 10 21
10 24 0 49 22 49 44 0 12 10 16 35 16 19 0 35 -4 35 -10 0 -18 18 -11 25 10 3
11 15 20 26 20 10 0 19 5 19 10 0 6 14 10 30 10 17 0 30 5 30 13 0 8 4 7 11
-3 8 -11 12 -12 16 -2 6 15 163 17 163 2 0 -5 11 -10 25 -10 14 0 25 -4 25
-10 0 -5 10 -10 23 -10 12 0 29 -9 37 -20 8 -11 20 -20 26 -20 6 0 17 -13 24
-30 7 -16 16 -30 20 -30 4 0 13 -14 20 -30 12 -30 13 -30 30 -10 18 21 90 29
90 10 0 -5 14 -10 30 -10 17 0 30 -4 30 -10 0 -5 6 -10 14 -10 16 0 26 -21 26
-56 0 -13 4 -24 9 -24 11 0 21 25 21 52 0 23 23 48 44 48 9 0 16 5 16 10 0 6
25 10 55 10 30 0 55 5 55 10 0 6 35 10 85 10 50 0 85 -4 85 -10 0 -5 7 -10 15
-10 8 0 15 -4 15 -10 0 -5 7 -10 15 -10 8 0 15 -4 15 -10 0 -5 6 -10 14 -10 7
0 19 -13 26 -30 10 -25 18 -30 46 -30 24 0 34 -5 39 -20 3 -11 10 -20 14 -20
4 0 16 -18 26 -40 10 -22 22 -40 27 -40 8 0 34 -26 107 -106 53 -59 77 -155
72 -284 -1 -27 -4 -31 -11 -20 -8 12 -10 11 -10 -7 0 -14 6 -23 15 -23 8 0 15
-4 15 -10 0 -5 -5 -10 -11 -10 -6 0 -8 -9 -4 -20 9 -30 -4 -60 -26 -60 -10 0
-19 -4 -19 -10 0 -5 -7 -10 -15 -10 -8 0 -15 -4 -15 -10 0 -5 9 -10 21 -10 26
0 49 -23 48 -47 0 -10 -3 -13 -6 -5 -2 6 -20 12 -39 12 -19 0 -34 5 -34 10 0
15 -47 12 -53 -3 -3 -7 -3 -25 0 -40 5 -26 4 -27 -46 -27 -28 0 -51 5 -51 10
0 6 -9 10 -20 10 -12 0 -20 -7 -20 -16 0 -18 23 -44 39 -44 6 0 11 -9 11 -20
0 -17 -7 -20 -45 -20 -25 0 -45 5 -45 10 0 6 -11 10 -25 10 -14 0 -25 -4 -25
-10 0 -5 -18 -10 -40 -10 -45 0 -44 0 -29 -33 16 -35 -5 -107 -31 -107 -11 0
-20 5 -20 10 0 6 -5 10 -11 10 -11 0 -53 41 -79 79 -17 24 -56 30 -46 6 3 -8
9 -22 12 -30 4 -9 1 -15 -9 -15 -8 0 -17 13 -20 30 -4 18 -13 30 -22 30 -8 0
-15 5 -15 10 0 6 -20 10 -43 10 -37 0 -46 -4 -55 -25 -7 -14 -12 -32 -12 -40
0 -8 -4 -15 -10 -15 -5 0 -10 5 -10 10 0 6 -11 10 -25 10 -14 0 -25 5 -25 10
0 6 -4 10 -10 10 -5 0 -10 -9 -10 -20 0 -15 7 -20 25 -20 14 0 25 -4 25 -10 0
-5 13 -10 29 -10 22 0 31 6 41 30 14 33 24 37 44 17 27 -27 38 -60 32 -98 -7
-44 0 -69 20 -69 8 0 14 -9 14 -20 0 -15 7 -20 25 -20 21 0 25 -5 25 -30 0
-20 -5 -30 -15 -30 -18 0 -18 -2 -3 -35 7 -16 19 -25 35 -25 12 0 23 -4 23
-10 0 -5 9 -10 20 -10 11 0 20 -4 20 -10 0 -6 45 -10 115 -10 70 0 115 4 115
10 0 6 45 10 115 10 70 0 115 -4 115 -10 0 -5 7 -10 16 -10 29 0 45 -27 38
-65 l-6 -35 46 0 c25 0 46 -4 46 -10 0 -5 5 -10 11 -10 7 0 8 7 4 18 -4 9 -10
27 -12 40 -5 20 -1 22 31 22 20 0 36 5 36 10 0 6 9 10 20 10 11 0 20 5 20 10
0 6 7 10 15 10 8 0 15 5 15 10 0 6 20 10 45 10 25 0 45 5 45 10 0 6 9 10 20
10 11 0 20 5 20 10 0 6 7 10 15 10 8 0 15 5 15 10 0 24 38 8 50 -21 9 -20 16
-26 20 -18 9 13 46 -18 68 -56 6 -11 12 -14 12 -7 0 14 60 17 60 2 0 -5 9 -10
20 -10 11 0 20 -4 20 -10 0 -5 9 -10 20 -10 11 0 20 -4 20 -10 0 -5 7 -10 15
-10 8 0 15 -4 15 -10 0 -5 7 -10 15 -10 8 0 15 -4 15 -10 0 -5 7 -10 15 -10 8
0 15 -4 15 -10 0 -5 16 -10 35 -10 19 0 35 -4 35 -10 0 -5 5 -10 11 -10 14 0
46 -36 54 -61 4 -11 13 -19 21 -19 8 0 14 -6 15 -12 0 -10 2 -10 6 0 7 19 47
14 63 -8 8 -11 20 -20 26 -20 6 0 14 -13 18 -30 4 -21 11 -30 26 -30 11 0 20
-4 20 -10 0 -5 -7 -10 -15 -10 -8 0 -15 -4 -15 -10 0 -5 -7 -10 -15 -10 -8 0
-15 -9 -15 -20 0 -11 7 -20 15 -20 8 0 15 -4 15 -10 0 -5 6 -10 14 -10 18 0
30 -33 21 -60 -5 -14 -2 -20 10 -20 9 0 18 -12 22 -30 3 -16 9 -30 13 -30 3 0
17 23 30 50 16 33 30 50 42 50 10 0 18 5 18 10 0 6 11 10 25 10 14 0 25 -4 25
-10 0 -5 7 -10 15 -10 19 0 19 -14 -1 -69 -15 -45 -12 -91 6 -91 6 0 10 -9 10
-20 0 -11 5 -20 10 -20 6 0 10 5 10 10 0 6 9 10 20 10 16 0 20 -7 20 -34 0
-60 22 -88 35 -46 8 24 40 26 62 5 11 -12 14 -27 9 -55 -3 -21 -3 -46 0 -54 7
-17 34 -22 34 -6 0 6 15 10 34 10 29 0 34 -4 40 -30 5 -27 26 -43 26 -20 0 6
11 10 25 10 21 0 25 -5 25 -30 0 -20 5 -30 15 -30 8 0 15 5 15 10 0 6 7 10 15
10 8 0 15 -4 15 -10 0 -5 7 -10 15 -10 8 0 15 -7 15 -16 0 -20 24 -44 44 -44
9 0 16 -4 16 -10 0 -5 9 -10 20 -10 11 0 20 -2 20 -4 0 -2 3 -11 6 -20 4 -11
1 -16 -10 -16 -15 0 -21 -21 -18 -62 1 -10 -3 -18 -8 -18 -6 0 -10 -9 -10 -20
0 -11 -7 -20 -15 -20 -8 0 -15 -9 -15 -20 0 -11 7 -20 15 -20 8 0 15 -9 15
-20 0 -11 -6 -20 -14 -20 -7 0 -19 -13 -26 -30 -7 -16 -16 -30 -21 -30 -5 0
-9 -4 -9 -10 0 -5 14 -10 31 -10 33 0 59 -19 59 -44 0 -9 5 -16 10 -16 6 0 10
5 10 10 0 6 9 10 20 10 11 0 20 5 20 10 0 6 9 10 20 10 11 0 20 5 20 10 0 6 6
10 13 10 7 0 19 9 27 20 8 11 23 20 34 20 17 0 18 -5 13 -45 -6 -43 -31 -104
-47 -115 -4 -3 -10 -17 -14 -32 -5 -22 -3 -28 10 -28 8 0 22 -7 30 -15 13 -13
13 -18 -1 -44 -19 -39 -19 -41 6 -41 22 0 49 -22 49 -40 0 -13 45 -60 59 -60
5 0 13 -9 16 -20 3 -11 11 -20 16 -20 48 0 165 -245 189 -395 13 -81 48 -197
62 -206 16 -10 21 -193 6 -231 -7 -20 -18 -28 -34 -28 -13 0 -24 -4 -24 -10 0
-5 -13 -10 -29 -10 -34 0 -48 -25 -26 -46 22 -22 18 -34 -9 -34 -16 0 -27 -7
-31 -20 -7 -22 -31 -27 -37 -8 -7 20 -41 -20 -43 -50 -2 -15 -6 -34 -9 -43 -4
-10 -1 -23 8 -32 26 -25 9 -47 -35 -47 -21 0 -39 -4 -39 -10 0 -12 -46 -14
-53 -2 -2 4 -2 0 1 -8 2 -8 7 -25 9 -37 3 -13 9 -23 14 -23 10 0 28 -64 33
-121 2 -24 4 -47 5 -51 1 -5 8 -8 16 -8 8 0 15 -7 15 -16 0 -20 -24 -44 -45
-44 -13 0 -16 -6 -12 -26 2 -14 0 -38 -6 -53 -14 -39 -2 -75 38 -115 19 -20
35 -42 35 -51 0 -8 5 -15 11 -15 14 0 46 -36 54 -61 4 -11 10 -19 14 -19 5 0
11 -13 14 -29 3 -16 13 -36 22 -44 8 -9 15 -23 15 -31 0 -9 6 -16 13 -16 7 0
22 -17 32 -37 22 -46 31 -248 12 -268 -7 -7 -19 -22 -27 -34 -8 -11 -18 -21
-23 -21 -16 0 -67 -62 -67 -81 0 -22 -35 -27 -44 -6 -5 10 -7 10 -12 0 -3 -7
-16 -13 -29 -13 -13 0 -26 6 -28 13 -3 6 -6 -3 -6 -20 -1 -18 -5 -33 -11 -33
-5 0 -10 -9 -10 -20 0 -11 -7 -20 -15 -20 -8 0 -15 5 -15 10 0 6 -11 10 -25
10 -14 0 -25 -2 -25 -4 0 -2 -3 -11 -6 -20 -4 -10 -1 -16 9 -16 20 0 30 -31
21 -65 -4 -18 -2 -30 7 -37 11 -7 11 -11 2 -15 -22 -8 -14 -23 13 -23 17 0 39
-14 64 -40 21 -22 41 -40 45 -40 16 0 35 -31 35 -58 0 -48 -9 -62 -41 -62 -16
0 -29 -4 -29 -10 0 -5 -7 -10 -15 -10 -8 0 -15 -4 -15 -10 0 -5 -18 -10 -40
-10 -22 0 -40 -4 -40 -10 0 -5 -11 -10 -25 -10 -14 0 -25 -4 -25 -8 0 -19 -38
-52 -59 -52 -18 0 -21 -4 -16 -20 10 -32 -4 -60 -30 -60 -15 0 -26 -7 -30 -20
-3 -11 -14 -20 -23 -20 -10 0 -24 -9 -32 -20 -8 -11 -20 -20 -27 -20 -7 0 -13
-4 -13 -10 0 -5 -7 -10 -16 -10 -12 0 -14 -5 -8 -17 5 -10 8 -37 8 -60 0 -28
5 -43 13 -43 19 0 16 -34 -6 -58 -19 -22 -61 -30 -61 -12 0 6 -9 10 -20 10
-11 0 -20 5 -20 10 0 6 -33 10 -80 10 -47 0 -80 -4 -80 -10 0 -5 -20 -10 -45
-10 -25 0 -45 -4 -45 -10 0 -5 -13 -10 -28 -10 -16 0 -34 -8 -42 -20 -10 -14
-16 -16 -22 -7 -6 9 -8 9 -8 0 0 -7 -9 -13 -20 -13 -14 0 -23 -11 -32 -42 -7
-24 -12 -52 -11 -63 1 -11 -1 -14 -3 -7 -7 14 -54 17 -54 2 0 -5 -7 -10 -15
-10 -8 0 -15 -4 -15 -10 0 -20 -47 -10 -59 13 -10 20 -11 20 -6 1 5 -19 -1
-29 -45 -81 -5 -7 -10 -19 -10 -28 0 -8 -4 -15 -10 -15 -5 0 -10 -11 -10 -25
0 -28 20 -75 32 -75 4 0 8 -9 8 -20 0 -11 -4 -20 -9 -20 -5 0 -14 -13 -21 -30
-7 -16 -16 -30 -21 -30 -4 0 -11 -9 -14 -20 -3 -11 -11 -20 -17 -20 -12 0 -48
-38 -48 -51 0 -4 -23 -31 -50 -59 -28 -28 -50 -56 -50 -61 0 -5 -6 -9 -14 -9
-8 0 -18 -9 -21 -20 -5 -17 -15 -20 -66 -20 -33 0 -59 4 -59 10 0 6 -7 10 -15
10 -8 0 -15 -4 -15 -10 0 -5 -7 -10 -15 -10 -8 0 -15 5 -15 10 0 6 -6 10 -14
10 -8 0 -17 6 -19 13 -8 19 -27 -13 -27 -45 0 -18 -5 -28 -15 -28 -8 0 -15 5
-15 10 0 21 -18 9 -30 -20 -12 -29 -30 -41 -30 -20 0 6 -11 10 -25 10 -20 0
-25 -5 -25 -26 0 -31 -28 -63 -39 -45 -5 7 -14 -3 -26 -29 -10 -22 -23 -40
-29 -40 -12 0 -13 -13 -16 -169 -2 -92 -11 -111 -54 -111 -14 0 -26 -4 -26
-10 0 -5 -7 -10 -15 -10 -17 0 -21 -36 -4 -42 7 -2 5 -16 -7 -41 -20 -43 -24
-44 -44 -17 -8 11 -22 20 -32 20 -10 0 -18 5 -18 10 0 6 -22 10 -50 10 -27 0
-50 5 -50 10 0 6 -11 10 -25 10 -14 0 -25 5 -25 10 0 6 -13 10 -30 10 -16 0
-30 5 -30 10 0 6 -7 10 -15 10 -8 0 -15 5 -15 10 0 6 -7 10 -16 10 -15 0 -66
47 -78 73 -5 9 -7 9 -12 0 -7 -15 -54 -17 -54 -3 0 6 -9 10 -20 10 -11 0 -20
5 -20 10 0 6 -13 10 -30 10 -16 0 -30 5 -30 10 0 6 -7 10 -15 10 -8 0 -15 5
-15 10 0 6 -7 10 -15 10 -8 0 -19 16 -25 40 -6 22 -15 40 -20 40 -6 0 -10 -3
-10 -7 0 -5 -4 -14 -9 -22 -14 -21 -74 44 -66 70 9 27 -3 23 -35 -11 -27 -29
-60 -40 -60 -20 0 6 -13 10 -30 10 -16 0 -30 5 -30 10 0 6 -6 10 -13 10 -7 0
-19 9 -27 20 -8 11 -19 20 -25 20 -6 0 -17 9 -25 20 -8 11 -22 20 -32 20 -10
0 -18 5 -18 10 0 6 -10 10 -21 10 -21 0 -37 14 -69 59 -8 12 -20 21 -27 21 -7
0 -13 5 -13 10 0 6 -6 10 -13 10 -7 0 -30 36 -52 80 -21 44 -40 78 -41 77 -2
-2 6 -30 16 -62 11 -33 22 -72 24 -86 3 -14 15 -36 26 -49 24 -27 26 -60 5
-60 -8 0 -15 -3 -15 -6 0 -3 7 -12 15 -20 22 -22 18 -34 -9 -34 -28 0 -36 -15
-29 -53 3 -16 1 -27 -6 -27 -6 0 -11 5 -11 10 0 6 -13 10 -30 10 -16 0 -30 5
-30 10 0 6 -7 10 -15 10 -8 0 -15 5 -15 10 0 6 -6 10 -12 10 -7 0 -24 14 -38
31 -57 68 -99 109 -114 109 -9 0 -16 5 -16 10 0 6 -9 10 -19 10 -11 0 -23 9
-26 20 -4 13 -15 20 -31 20 -13 0 -24 5 -24 10 0 6 -11 10 -25 10 -14 0 -25 5
-25 10 0 6 -9 10 -20 10 -11 0 -20 5 -20 10 0 6 -9 10 -19 10 -11 0 -23 9 -26
20 -7 22 -30 27 -39 8 -5 -10 -7 -10 -12 0 -3 6 -20 12 -38 12 -20 0 -37 7
-46 20 -8 11 -22 20 -32 20 -10 0 -18 5 -18 10 0 6 -6 10 -13 10 -7 0 -19 9
-27 20 -8 11 -19 20 -24 20 -10 0 -46 39 -46 50 0 6 -12 22 -50 67 -5 7 -15
24 -22 38 -15 34 -28 32 -28 -5 0 -38 -18 -38 -50 1 -14 16 -37 44 -52 60 -16
17 -28 33 -28 34 0 17 16 35 31 35 10 0 19 5 19 10 0 6 9 10 20 10 11 0 20 5
20 10 0 6 7 10 15 10 8 0 15 5 15 10 0 20 33 9 60 -20 21 -23 37 -30 64 -30
39 0 39 0 30 24 -7 19 -54 22 -55 4 0 -10 -2 -10 -6 0 -2 6 -9 12 -15 12 -10
0 -38 25 -38 34 0 3 20 6 45 6 25 0 45 2 45 5 0 10 -130 135 -140 135 -5 0
-10 5 -10 10 0 6 -7 10 -15 10 -8 0 -15 -4 -15 -10 0 -17 -47 -11 -55 7 -3 10
-1 19 4 21 6 2 11 18 10 35 0 18 -3 26 -6 20 -2 -7 -12 -13 -22 -13 -9 0 -23
-9 -31 -20 -10 -14 -26 -20 -50 -20 -24 0 -40 6 -50 20 -8 11 -22 20 -32 20
-10 0 -18 5 -18 10 0 6 -7 10 -16 10 -9 0 -29 14 -44 30 -15 17 -34 30 -42 30
-7 0 -20 9 -28 20 -8 11 -19 20 -25 20 -6 0 -17 9 -25 21 -26 38 -68 79 -79
79 -6 0 -11 4 -11 10 0 5 -15 25 -34 43 -19 19 -42 50 -52 68 -9 19 -25 41
-35 50 -11 9 -19 24 -19 33 0 9 -4 16 -8 16 -9 0 -32 88 -32 121 0 10 6 19 13
19 7 0 19 9 27 20 8 11 20 20 27 20 7 0 13 5 13 10 0 6 5 10 11 10 12 0 49 38
49 50 0 4 8 17 19 28 15 18 29 22 75 22 31 0 56 5 56 10 0 6 21 10 46 10 35 0
51 -5 65 -22 11 -11 19 -25 19 -30 0 -4 13 -8 29 -8 21 0 32 6 36 20 3 11 12
20 20 20 14 0 29 30 19 39 -4 3 -9 0 -11 -6 -5 -15 -63 -18 -63 -3 0 6 -6 10
-14 10 -8 0 -18 9 -21 20 -5 16 -15 20 -46 20 -21 0 -39 5 -39 10 0 6 -18 10
-40 10 -22 0 -40 -4 -40 -10 0 -6 -27 -10 -60 -10 -33 0 -60 -4 -60 -10 0 -5
-7 -10 -15 -10 -8 0 -15 5 -15 10 0 6 -13 10 -30 10 -16 0 -30 -4 -30 -10 0
-5 -7 -10 -15 -10 -8 0 -15 -4 -15 -10 0 -5 -7 -10 -15 -10 -8 0 -15 -4 -15
-10 0 -5 -16 -10 -35 -10 -19 0 -35 -4 -35 -10 0 -5 -11 -10 -25 -10 -14 0
-25 5 -25 10 0 6 -11 10 -25 10 -14 0 -25 5 -25 10 0 6 -5 10 -11 10 -16 0
-39 26 -39 44 0 9 -4 16 -9 16 -5 0 -13 9 -16 20 -3 11 -12 20 -18 20 -7 0
-19 9 -27 20 -8 11 -20 20 -27 20 -7 0 -13 5 -13 10 0 6 -6 10 -14 10 -8 0
-18 9 -21 20 -3 11 -12 20 -20 20 -8 0 -17 9 -20 20 -3 11 -13 20 -21 20 -8 0
-14 5 -14 10 0 6 -11 10 -25 10 -14 0 -25 5 -25 10 0 6 -11 10 -25 10 -14 0
-25 5 -25 10 0 6 -5 10 -11 10 -6 0 -28 18 -49 40 -21 22 -46 40 -54 40 -9 0
-16 5 -16 10 0 6 -13 10 -30 10 -16 0 -30 5 -30 10 0 6 -7 10 -15 10 -8 0 -15
5 -15 10 0 6 -7 10 -15 10 -8 0 -15 5 -15 10 0 6 -5 10 -11 10 -6 0 -24 14
-39 30 -15 17 -36 30 -45 30 -9 0 -34 18 -55 40 -21 22 -41 40 -45 40 -10 0
-65 60 -65 71 0 5 -6 9 -14 9 -8 0 -18 9 -21 20 -3 11 -15 20 -25 20 -10 0
-22 9 -25 20 -4 13 -15 20 -31 20 -13 0 -24 5 -24 10 0 6 -5 10 -11 10 -13 0
-49 38 -49 52 0 4 -5 8 -11 8 -6 0 -24 14 -39 30 -15 17 -35 30 -44 30 -9 0
-16 5 -16 10 0 6 -7 10 -15 10 -8 0 -15 5 -15 10 0 6 -9 10 -20 10 -11 0 -20
5 -20 10 0 6 -6 10 -14 10 -8 0 -17 15 -21 36 -7 38 -11 45 -62 98 -17 19 -39
48 -48 66 -9 17 -41 56 -71 86 -30 30 -54 59 -54 64 0 6 -9 10 -20 10 -11 0
-20 5 -20 10 0 6 -7 10 -15 10 -9 0 -18 12 -21 30 -4 17 -10 30 -15 30 -11 0
-29 68 -22 86 4 10 22 14 64 14 33 0 59 4 59 10 0 6 30 10 70 10 40 0 70 4 70
10 0 6 7 10 15 10 8 0 15 9 15 20 0 26 27 26 35 1 7 -24 64 -86 71 -78 3 3 -4
23 -15 46 -12 22 -21 56 -21 75 0 19 -6 36 -12 38 -9 3 -8 9 5 22 20 21 22 49
4 68 -22 22 -104 558 -91 593 4 8 17 15 30 15 13 0 24 5 24 10 0 6 5 10 11 10
12 0 31 20 59 59 9 14 25 21 45 21 19 0 36 8 45 20 15 21 50 28 50 10 0 -5 7
-10 15 -10 8 0 15 5 15 10 0 6 25 10 55 10 30 0 55 5 55 10 0 6 9 10 19 10 11
0 23 9 26 20 5 16 15 20 46 20 24 0 39 5 40 13 0 10 2 10 6 0 3 -8 25 -13 58
-13 45 0 55 3 60 20 7 21 25 28 25 10 0 -15 60 -12 61 3 0 10 2 10 6 0 2 -7
11 -13 19 -13 8 0 14 -4 14 -10 0 -5 9 -10 20 -10 11 0 20 -4 20 -10 0 -5 13
-10 29 -10 21 0 32 -6 36 -20 7 -21 55 -29 55 -10 0 6 7 10 15 10 8 0 15 5 15
10 0 15 67 12 74 -2 5 -10 7 -10 12 0 9 20 21 14 34 -18 7 -16 20 -39 30 -50
18 -21 60 -28 60 -10 0 6 9 10 20 10 11 0 20 -4 20 -10 0 -5 7 -10 15 -10 8 0
15 -4 15 -10 0 -6 32 -10 75 -10 43 0 75 4 75 10 0 6 11 10 25 10 14 0 25 5
25 10 0 6 11 10 25 10 14 0 25 -4 25 -10 0 -5 11 -10 25 -10 14 0 25 -4 25
-10 0 -5 8 -10 18 -10 17 0 42 -36 42 -61 0 -14 46 -59 61 -59 6 0 24 -13 39
-30 15 -16 34 -30 40 -30 17 0 45 -33 60 -70 7 -17 19 -30 26 -30 8 0 14 -4
14 -10 0 -5 7 -10 15 -10 8 0 15 -4 15 -10 0 -5 11 -10 24 -10 16 0 27 -7 31
-20 3 -11 10 -20 15 -20 5 0 11 -8 15 -19 7 -24 39 -61 53 -61 6 0 13 -8 17
-19 7 -22 43 -66 49 -60 7 7 -6 59 -15 59 -5 0 -9 9 -9 20 0 13 -7 20 -19 20
-18 0 -30 21 -46 78 -3 12 -13 22 -21 22 -8 0 -14 7 -14 16 0 19 -24 44 -43
44 -22 0 -39 47 -26 72 13 25 3 68 -16 68 -8 0 -15 5 -15 10 0 6 -5 10 -11 10
-14 0 -46 36 -54 61 -4 11 -15 19 -25 19 -10 0 -21 9 -25 20 -3 11 -24 38 -46
61 -21 22 -39 49 -39 59 0 10 -18 37 -40 60 -42 44 -48 56 -28 62 8 3 3 14
-15 32 -15 15 -27 31 -27 36 0 6 -9 10 -20 10 -11 0 -20 -4 -20 -10 0 -5 -4
-10 -9 -10 -14 0 -19 46 -11 92 6 31 4 45 -7 56 -7 8 -17 27 -20 43 -9 45 -23
34 -23 -18 -1 -41 -29 -122 -30 -85 0 7 -13 12 -29 12 -22 0 -31 6 -41 30 -7
17 -16 30 -20 30 -14 0 -21 33 -9 41 14 8 -11 39 -31 39 -7 0 -25 14 -40 30
-15 17 -37 30 -48 30 -12 0 -24 11 -32 30 -7 17 -19 30 -26 30 -8 0 -14 5 -14
10 0 6 -13 10 -28 10 -16 0 -34 8 -42 20 -11 15 -26 20 -59 20 -44 0 -54 6
-91 59 -8 12 -20 21 -27 21 -7 0 -13 5 -13 10 0 6 -8 10 -19 10 -11 0 -23 12
-31 30 -7 17 -17 30 -22 30 -25 0 -40 32 -35 76 5 48 -1 55 -23 24 -8 -11 -21
-20 -29 -20 -14 0 -51 37 -51 52 0 20 -19 5 -31 -24 -7 -17 -15 -26 -17 -19
-4 11 -6 10 -13 0 -6 -10 -9 -11 -9 -1 0 6 -7 12 -15 12 -8 0 -15 5 -15 10 0
6 -9 10 -20 10 -11 0 -20 4 -20 8 0 14 -36 52 -48 52 -7 0 -9 11 -5 30 5 26 3
30 -16 30 -17 0 -21 6 -21 30 0 18 -5 30 -13 30 -8 0 -22 18 -32 40 -17 37
-28 53 -66 98 -19 23 -31 75 -33 152 -3 71 -13 123 -50 250 -9 30 -16 79 -16
108 0 28 -3 52 -6 52 -19 0 -33 -35 -36 -91 -2 -51 -8 -69 -26 -88 -13 -13
-21 -29 -18 -37 8 -22 -4 -44 -24 -44 -10 0 -21 -6 -23 -12 -8 -18 -28 12 -22
32 2 8 1 21 -4 29 -7 11 -10 9 -16 -8 -3 -11 -11 -21 -17 -21 -18 0 -48 42
-48 66 0 13 -6 38 -14 56 -21 48 -46 134 -46 157 0 12 -4 21 -10 21 -5 0 -10
7 -10 16 0 9 -10 25 -21 35 -24 21 -20 69 7 69 13 0 64 42 64 53 0 10 -39 47
-49 47 -17 0 -41 26 -41 44 0 10 -9 16 -26 16 -14 0 -32 6 -40 14 -16 16 -19
46 -5 46 13 0 21 27 15 45 -4 8 -15 15 -25 15 -10 0 -19 5 -19 10 0 6 -6 10
-13 10 -8 0 -23 21 -35 48 -35 75 -31 244 8 322 19 38 54 176 66 255 4 28 10
52 15 55 4 3 10 28 12 55 5 55 15 85 27 85 5 0 12 9 15 20 3 11 12 20 20 20 8
0 17 9 20 20 3 11 10 20 14 20 5 0 11 24 15 53 14 114 59 207 98 207 8 0 20 9
28 20 8 11 20 20 27 20 7 0 13 5 13 10 0 6 9 10 20 10 11 0 20 5 20 10 0 6 9
10 20 10 11 0 20 5 20 10 0 6 45 10 115 10 70 0 115 -4 115 -10z"/>
<path fill="#ffffff" stroke="000000" stroke-width="0.01" d="M32395 6850 c3 -11 12 -20 20 -20 8 0
17 9 20 20 6 20 45 29 45 10 0 -5 9 -10 20 -10 11 0 20 5 20 10 0 6 16 10 35
10 19 0 35 -4 35 -10 0 -5 20 -10 45 -10 25 0 45 -4 45 -10 0 -5 9 -10 20 -10
11 0 20 -4 20 -10 0 -5 6 -10 13 -10 7 0 19 -9 27 -20 8 -11 25 -20 37 -20 13
0 23 -4 23 -10 0 -5 9 -10 20 -10 11 0 20 -4 20 -10 0 -5 7 -10 15 -10 8 0 15
-4 15 -10 0 -5 11 -10 25 -10 14 0 25 -4 25 -10 0 -5 7 -10 15 -10 8 0 15 -4
15 -10 0 -5 7 -10 15 -10 8 0 15 -4 15 -10 0 -5 9 -10 20 -10 11 0 20 -4 20
-10 0 -5 7 -10 15 -10 8 0 15 -4 15 -10 0 -5 13 -10 29 -10 16 0 32 -6 35 -12
5 -10 7 -10 12 0 3 6 16 12 29 12 13 0 26 -6 29 -12 5 -10 7 -10 12 0 7 14 34
16 34 2 0 -5 5 -10 11 -10 6 0 28 -18 49 -40 21 -22 43 -40 48 -40 5 0 17 -18
27 -40 10 -22 22 -40 27 -40 4 0 8 -9 8 -20 0 -13 7 -20 20 -20 11 0 20 5 20
11 0 6 6 4 14 -4 8 -8 12 -24 9 -40 -5 -23 -2 -27 19 -27 25 0 48 -32 48 -65
0 -8 5 -15 10 -15 14 0 12 -48 -2 -66 -7 -8 -33 -37 -58 -64 -76 -83 -73 -78
-56 -96 9 -8 16 -24 16 -35 0 -10 7 -19 15 -19 22 0 19 -52 -5 -80 -21 -24
-25 -47 -12 -67 6 -9 12 -7 22 7 8 11 20 20 27 20 7 0 13 5 13 10 0 6 7 10 15
10 8 0 15 5 15 10 0 6 15 10 34 10 28 0 36 -5 46 -30 7 -16 19 -30 26 -30 8 0
14 -4 14 -10 0 -5 7 -10 15 -10 8 0 15 -4 15 -10 0 -15 57 -12 63 3 4 9 7 9
14 0 7 -9 12 -8 23 7 15 21 50 28 50 10 0 -5 9 -10 20 -10 11 0 20 5 20 10 0
6 9 10 20 10 11 0 20 -4 20 -10 0 -5 6 -10 13 -10 7 0 19 -10 27 -21 8 -12 20
-27 26 -33 17 -18 44 -73 44 -91 0 -9 9 -15 24 -15 16 0 27 -7 31 -21 12 -36
26 -132 26 -166 -1 -18 4 -33 10 -33 7 0 9 -11 6 -30 -6 -27 -4 -30 17 -30 17
0 27 -9 36 -30 7 -16 16 -30 20 -30 4 0 15 -19 26 -41 10 -23 20 -36 22 -30 5
14 32 15 32 1 0 -5 5 -10 11 -10 46 0 52 -112 7 -141 -14 -9 -14 -112 0 -117
7 -2 12 -10 12 -17 0 -28 24 -65 42 -65 10 0 18 -4 18 -10 0 -22 53 -9 80 20
15 17 35 30 44 30 9 0 16 5 16 10 0 6 11 10 25 10 14 0 25 5 25 10 0 6 18 10
40 10 22 0 40 5 40 10 0 6 28 10 64 10 63 0 64 0 70 -31 3 -17 6 -48 6 -68 -1
-43 -44 -174 -59 -179 -6 -2 -11 -10 -11 -18 0 -8 -11 -37 -25 -64 -19 -37
-25 -65 -25 -114 0 -40 -4 -66 -12 -68 -6 -2 -12 -26 -13 -54 -2 -49 -22 -113
-40 -126 -6 -5 -5 -11 3 -16 7 -5 17 -49 24 -103 6 -52 15 -97 20 -100 8 -5
14 -233 9 -323 -1 -16 2 -32 7 -35 5 -3 12 -78 15 -166 4 -109 11 -174 21
-203 9 -23 23 -61 32 -84 9 -25 17 -80 18 -128 2 -58 8 -97 21 -122 15 -31 16
-41 5 -67 -7 -17 -19 -31 -26 -31 -8 0 -14 -4 -14 -10 0 -5 -11 -10 -25 -10
-14 0 -25 -4 -25 -10 0 -5 -7 -10 -15 -10 -8 0 -15 -4 -15 -10 0 -5 -7 -10
-16 -10 -8 0 -33 -18 -54 -40 -21 -22 -43 -40 -49 -40 -6 0 -11 -4 -11 -10 0
-5 -7 -10 -15 -10 -8 0 -15 -4 -15 -10 0 -5 -9 -10 -20 -10 -11 0 -20 -4 -20
-10 0 -5 -9 -10 -20 -10 -11 0 -20 -4 -20 -10 0 -5 -7 -10 -15 -10 -8 0 -15
-4 -15 -10 0 -5 -9 -10 -21 -10 -19 0 -79 -52 -79 -70 0 -13 -37 -50 -51 -50
-22 0 -64 -145 -61 -208 3 -40 0 -52 -11 -52 -17 0 -32 -30 -20 -39 7 -5 9
-45 4 -87 -2 -19 -38 -54 -55 -54 -9 0 -16 -4 -16 -10 0 -5 -7 -10 -15 -10
-11 0 -13 -8 -8 -30 5 -27 3 -30 -22 -30 -26 0 -27 -2 -21 -35 5 -26 3 -40 -9
-51 -8 -9 -13 -25 -10 -37 3 -12 -4 -47 -15 -77 -11 -30 -20 -65 -20 -77 0
-13 -4 -23 -10 -23 -5 0 -10 -9 -10 -20 0 -11 -7 -20 -15 -20 -8 0 -15 -4 -15
-10 0 -5 -16 -10 -35 -10 -19 0 -35 -4 -35 -10 0 -6 -27 -10 -60 -10 -33 0
-60 -4 -60 -10 0 -5 -13 -10 -30 -10 -16 0 -30 5 -30 10 0 6 -7 10 -15 10 -24
0 -71 50 -56 59 9 6 9 23 -1 74 -10 53 -16 67 -30 67 -10 0 -19 6 -19 13 -1
14 -9 236 -9 282 -1 17 2 75 5 130 6 110 8 111 -46 -12 -22 -52 -23 -53 -66
-53 -24 0 -43 5 -43 10 0 15 -80 13 -81 -2 0 -10 -2 -10 -6 0 -2 6 -18 12 -34
12 -16 0 -29 5 -29 10 0 6 -27 10 -60 10 -41 0 -60 -4 -60 -12 0 -9 -4 -8 -10
2 -6 10 -10 11 -10 3 0 -8 -13 -13 -30 -13 -16 0 -30 5 -30 10 0 6 -16 10 -35
10 -19 0 -35 -4 -35 -10 0 -6 -28 -10 -63 -10 -51 0 -65 4 -77 20 -8 11 -25
20 -37 20 -13 0 -23 5 -23 10 0 6 -7 10 -15 10 -8 0 -15 5 -15 10 0 6 -7 10
-15 10 -8 0 -15 5 -15 10 0 6 -7 10 -15 10 -8 0 -15 5 -15 10 0 6 -9 10 -20
10 -11 0 -20 5 -20 10 0 6 -7 10 -15 10 -8 0 -15 5 -15 10 0 6 -7 10 -15 10
-9 0 -15 10 -15 26 0 14 7 32 15 40 8 9 15 21 14 27 0 9 -2 8 -6 0 -2 -7 -18
-13 -34 -13 -16 0 -29 -4 -29 -10 0 -5 -18 -10 -40 -10 -22 0 -40 5 -40 10 0
6 -9 10 -19 10 -16 0 -21 10 -27 47 -6 47 -23 92 -24 66 0 -7 -6 -13 -13 -13
-8 0 -22 -18 -32 -40 -16 -36 -45 -55 -45 -30 0 6 -4 10 -10 10 -5 0 -10 -9
-10 -20 0 -16 -7 -20 -30 -20 -16 0 -30 5 -30 10 0 6 -7 10 -15 10 -8 0 -15 4
-15 8 0 5 -9 19 -19 31 -11 13 -22 28 -24 34 -2 7 -7 10 -10 7 -6 -6 12 -84
28 -122 5 -13 2 -18 -9 -18 -9 0 -16 -6 -16 -12 0 -9 -4 -8 -10 2 -6 10 -10
11 -10 3 0 -7 -7 -13 -15 -13 -8 0 -15 -6 -16 -12 0 -10 -2 -10 -6 0 -3 7 -24
12 -53 12 -40 0 -50 4 -55 20 -4 14 -15 20 -36 20 -20 0 -29 5 -29 16 0 18
-23 44 -39 44 -6 0 -11 5 -11 10 0 6 -7 10 -15 10 -8 0 -15 5 -15 10 0 6 -7
10 -15 10 -8 0 -15 5 -15 10 0 6 -5 10 -11 10 -6 0 -28 18 -49 40 -21 22 -43
40 -49 40 -5 0 -13 9 -16 20 -3 11 -11 20 -16 20 -15 0 -34 21 -53 59 -10 18
-45 61 -79 96 -68 70 -104 111 -127 145 -8 12 -32 40 -52 62 -21 22 -38 44
-38 49 0 5 -6 9 -14 9 -8 0 -18 9 -21 20 -3 11 -13 20 -21 20 -8 0 -14 5 -14
10 0 6 -8 10 -18 10 -10 0 -24 9 -32 20 -11 15 -26 20 -58 20 -56 0 -92 35
-112 109 -7 28 -19 51 -27 51 -7 0 -13 5 -13 10 0 6 -7 10 -15 10 -8 0 -15 5
-15 10 0 6 -11 10 -25 10 -14 0 -25 5 -25 10 0 6 -7 10 -15 10 -8 0 -15 5 -15
10 0 6 -6 10 -13 10 -8 0 -22 18 -32 40 -10 22 -24 40 -32 40 -7 0 -13 5 -13
10 0 6 -7 10 -16 10 -8 0 -33 18 -54 40 -35 37 -80 54 -80 30 0 -5 -18 -10
-40 -10 -22 0 -40 5 -40 10 0 6 -7 10 -15 10 -8 0 -15 5 -15 10 0 6 -6 10 -13
10 -7 0 -19 9 -27 20 -8 11 -19 20 -25 20 -6 0 -17 10 -25 21 -8 12 -20 27
-26 33 -6 7 -19 27 -29 45 -9 19 -27 44 -39 57 -30 32 -56 67 -56 76 0 4 -8 8
-19 8 -13 0 -20 10 -25 31 -9 47 -7 95 5 122 8 17 8 35 0 64 -11 41 -59 103
-80 103 -14 0 -25 44 -18 72 3 12 1 31 -5 42 -20 36 -26 117 -13 168 12 44 52
98 74 98 5 0 13 9 16 20 3 11 13 20 21 20 8 0 14 9 14 20 0 11 3 20 8 20 10 0
33 68 39 118 3 25 1 42 -5 42 -6 0 -14 9 -17 20 -3 11 -13 20 -21 20 -8 0 -14
2 -14 4 0 2 -3 11 -6 20 -5 12 0 16 20 16 14 0 26 5 26 10 0 6 7 10 15 10 18
0 33 52 17 58 -7 2 -12 12 -12 23 0 17 8 19 100 19 60 0 100 4 100 10 0 6 11
10 25 10 14 0 25 -4 25 -10 0 -23 21 -7 27 20 3 17 11 30 19 30 7 0 16 9 19
20 3 11 13 20 21 20 8 0 14 5 14 10 0 6 7 10 15 10 8 0 15 -4 15 -10 0 -5 11
-10 25 -10 14 0 25 -4 25 -10 0 -5 9 -10 19 -10 11 0 22 -6 25 -12 5 -10 7
-10 12 0 7 14 34 16 34 2 0 -15 27 -12 33 4 3 8 1 31 -4 51 -10 36 -5 75 10
75 5 0 14 -15 21 -32 6 -18 16 -42 20 -53 l9 -20 -1 20 c-3 54 2 65 27 65 18
0 25 5 25 18 0 24 33 62 54 62 13 0 16 12 16 74 0 90 5 106 35 106 32 0 39 29
21 84 -17 49 -7 96 21 96 7 0 13 5 13 10 0 6 14 10 30 10 17 0 30 -4 30 -10 0
-5 9 -10 20 -10 11 0 20 -4 20 -10 0 -5 7 -10 15 -10 8 0 15 4 15 8 0 5 9 19
19 31 14 16 21 18 25 9 5 -10 7 -10 12 0 3 6 14 12 25 12 10 0 19 5 19 10 0 6
6 10 14 10 8 0 17 6 19 13 4 9 8 9 15 -2 8 -12 18 -6 49 27 66 71 88 106 79
121 -10 15 15 81 29 81 8 0 15 5 15 10 0 6 6 10 14 10 7 0 19 14 26 30 10 24
19 30 41 30 16 0 29 -4 29 -10 0 -5 7 -10 15 -10 8 0 15 -4 15 -10 0 -5 11
-10 25 -10 14 0 25 -4 25 -10 0 -5 7 -10 16 -10 11 0 14 5 10 16 -3 9 4 25 19
40 14 14 25 29 25 34 0 6 7 10 15 10 8 0 15 -4 15 -10 0 -5 5 -10 10 -10 13 0
13 46 -1 71 -8 17 -6 24 10 38 20 18 29 51 13 51 -14 0 -34 89 -28 123 4 17 9
47 13 65 3 22 11 32 23 32 10 0 22 9 25 20 3 11 10 20 14 20 5 0 11 13 14 28
3 16 20 43 36 61 17 18 31 37 31 42 0 5 6 9 13 9 7 0 19 9 27 20 9 13 26 20
46 20 27 0 32 4 38 30 5 29 7 30 61 30 43 0 55 3 55 15 0 17 64 85 80 85 5 0
10 5 10 10 0 6 7 10 15 10 8 0 15 5 15 10 0 18 18 11 25 -10z"/>
<path fill="#ffffff" stroke="000000" stroke-width="0.01" d="M27370 4840 c0 -5 14 -10 30 -10 17 0
30 -4 30 -10 0 -5 7 -10 15 -10 8 0 15 -4 15 -10 0 -5 7 -10 15 -10 8 0 15 -4
15 -10 0 -5 5 -10 10 -10 6 0 22 -11 35 -25 28 -27 34 -75 10 -75 -8 0 -15 5
-15 10 0 6 -11 10 -25 10 -14 0 -25 5 -25 10 0 6 -8 10 -18 10 -10 0 -24 9
-32 20 -8 11 -25 20 -37 20 -13 0 -23 5 -23 10 0 6 -14 10 -30 10 -19 0 -40 9
-55 25 -33 32 -32 35 10 35 19 0 35 5 35 10 0 6 9 10 20 10 11 0 20 -4 20 -10z"/>
<path fill="#ffffff" stroke="000000" stroke-width="0.01" d="M30720 3400 c0 -5 9 -10 20 -10 11 0
20 -4 20 -10 0 -5 7 -10 15 -10 8 0 15 -6 15 -12 0 -9 4 -8 11 2 8 11 12 12
16 3 2 -7 18 -13 35 -13 30 0 62 -26 98 -80 8 -12 31 -39 50 -60 19 -21 42
-48 50 -60 8 -12 23 -31 33 -42 19 -24 22 -38 7 -38 -5 0 -10 -4 -10 -10 0 -5
7 -10 16 -10 20 0 44 -24 44 -44 0 -26 -30 -18 -60 14 -15 17 -35 30 -44 30
-9 0 -16 5 -16 10 0 6 -14 10 -31 10 -26 0 -30 -3 -24 -17 12 -29 14 -63 3
-63 -5 0 -6 -9 -3 -20 5 -17 2 -20 -24 -20 -17 0 -31 4 -31 9 0 5 -21 32 -47
60 -45 47 -65 70 -113 131 -11 14 -24 30 -29 36 -5 6 -17 26 -26 44 -10 19
-24 40 -31 47 -17 17 -34 80 -27 99 3 8 11 14 19 14 8 0 14 5 14 10 0 6 11 10
25 10 14 0 25 -4 25 -10z"/>
<path fill="#ffffff" stroke="000000" stroke-width="0.01" d="M30215 1910 c3 -11 10 -20 15 -20 5 0
11 -8 15 -19 3 -10 14 -29 25 -42 11 -13 29 -35 40 -49 11 -14 29 -35 39 -48
10 -12 24 -36 31 -52 7 -17 16 -30 20 -30 4 0 13 -13 20 -30 7 -16 16 -30 21
-30 5 0 9 -7 9 -15 0 -9 6 -23 13 -31 6 -8 17 -20 22 -27 11 -14 35 -71 42
-104 4 -18 1 -23 -16 -23 -11 0 -21 5 -21 10 0 6 -11 10 -25 10 -18 0 -25 5
-25 19 0 11 -7 26 -15 35 -8 8 -15 22 -15 30 0 9 -8 16 -20 16 -12 0 -20 7
-20 16 0 17 -23 44 -38 44 -5 0 -12 14 -15 30 -4 17 -13 30 -21 30 -9 0 -20
14 -25 33 -7 26 -9 27 -10 9 -1 -21 -3 -22 -16 -8 -12 12 -13 20 -5 35 14 27
13 31 -10 31 -21 0 -28 16 -10 22 7 2 3 27 -10 67 -21 68 -26 111 -11 111 5 0
13 -9 16 -20z"/>
<path fill="#ffffff" stroke="000000" stroke-width="0.01" d="M29231 1639 c16 -17 29 -35 29 -40 0
-5 9 -9 20 -9 11 0 20 -7 20 -15 0 -15 6 -24 36 -58 6 -7 19 -29 29 -47 10
-19 21 -37 25 -40 4 -3 13 -16 20 -29 7 -14 17 -30 22 -35 4 -6 17 -22 28 -35
11 -13 20 -32 20 -42 0 -10 6 -24 14 -32 11 -11 12 -21 3 -50 -12 -36 -27 -50
-27 -24 0 8 -4 7 -10 -3 -8 -12 -10 -12 -10 5 0 11 -5 27 -10 35 -9 13 -11 13
-20 0 -8 -12 -10 -11 -10 8 0 13 -6 22 -15 22 -8 0 -15 5 -15 10 0 6 -7 10
-16 10 -11 0 -14 6 -9 20 5 14 2 20 -9 20 -9 0 -16 5 -16 10 0 6 -7 10 -15 10
-8 0 -15 7 -15 16 0 9 -8 24 -19 33 -10 9 -31 41 -46 71 -15 30 -31 57 -35 60
-17 12 -31 54 -26 76 4 13 2 24 -3 24 -13 0 -21 27 -15 45 10 25 44 17 75 -16z"/>
<path fill="#ffffff" stroke="000000" stroke-width="0.01" d="M30408 1250 c22 0 48 -30 33 -39 -21
-13 8 -61 36 -61 12 0 23 -4 23 -10 0 -5 -7 -10 -15 -10 -8 0 -15 -2 -15 -4 0
-2 -3 -11 -6 -20 -4 -12 0 -16 15 -16 12 0 21 -4 21 -9 0 -5 7 -17 17 -26 14
-14 14 -18 2 -27 -11 -7 -11 -11 -1 -15 6 -2 12 -13 12 -24 0 -10 7 -19 15
-19 8 0 15 -4 15 -10 0 -5 -15 -10 -34 -10 -26 0 -36 5 -41 20 -3 11 -10 20
-14 20 -4 0 -14 26 -21 58 -7 31 -16 59 -20 62 -15 10 -48 87 -55 125 -4 22
-9 49 -11 60 -2 11 3 5 13 -12 9 -18 23 -33 31 -33z"/>
<path fill="#ffffff" stroke="000000" stroke-width="0.01" d="M30402 970 c10 0 18 -4 18 -10 0 -5 7
-10 15 -10 8 0 15 -4 15 -8 0 -5 8 -19 19 -30 18 -22 71 -31 71 -12 0 6 9 10
20 10 11 0 20 -4 20 -10 0 -5 11 -10 25 -10 20 0 25 -5 25 -24 0 -58 -36 -75
-71 -34 -11 11 -21 19 -24 17 -7 -8 15 -79 25 -79 5 0 12 -9 15 -20 9 -27 35
-25 36 3 0 12 3 16 6 10 2 -7 9 -13 15 -13 10 0 38 -25 38 -34 0 -3 -12 -6
-26 -6 -24 0 -26 -3 -21 -32 13 -77 26 -121 37 -128 7 -4 9 -13 5 -19 -11 -19
4 -61 21 -61 13 0 15 -7 9 -37 -4 -21 -9 -51 -10 -66 -1 -16 -6 -32 -12 -35
-20 -14 -36 -54 -24 -62 13 -7 4 -40 -10 -40 -5 0 -9 -9 -9 -20 0 -15 7 -20
25 -20 14 0 25 -4 25 -10 0 -5 9 -10 20 -10 24 0 27 -31 6 -53 -8 -8 -12 -24
-9 -40 4 -22 2 -27 -16 -27 -11 0 -21 5 -21 10 0 6 -6 10 -13 10 -14 0 -37 40
-37 65 0 8 -6 15 -14 15 -15 0 -16 55 -2 78 15 24 -74 162 -104 162 -5 0 -10
5 -10 10 0 6 -15 10 -33 10 -31 0 -35 4 -72 80 -21 44 -43 80 -47 80 -4 0 -8
9 -8 20 0 11 -4 20 -10 20 -5 0 -10 8 -10 18 0 11 -9 30 -21 43 -11 13 -23 36
-26 51 -3 16 -9 28 -13 28 -8 0 -40 89 -40 109 0 6 11 11 25 11 14 0 25 -4 25
-10 0 -17 25 -11 40 10 8 11 20 20 27 20 15 0 26 35 18 60 -5 14 -2 20 9 20
10 0 16 9 17 23 l0 22 11 -22 c6 -13 19 -23 30 -23z"/>
</g>
</svg>
