<?xml version="1.0" standalone="no"?>
<!DOCTYPE svg PUBLIC "-//W3C//DTD SVG 20010904//EN"
 "http://www.w3.org/TR/2001/REC-SVG-20010904/DTD/svg10.dtd">
<svg version="1.0" xmlns="http://www.w3.org/2000/svg"
 width="3506.000000pt" height="3950.000000pt" viewBox="0 0 3506.000000 3950.000000"
 preserveAspectRatio="xMidYMid meet">
<metadata>
Created by potrace 1.15, written by Peter Selinger 2001-2017
</metadata>
<g transform="translate(0.000000,3950.000000) scale(0.100000,-0.100000)"
fill="#ffffff" stroke="000000" stroke-width="0.01">
<path fill="#ffffff" stroke="000000" stroke-width="0.01" d="M0 19750 l0 -19750 17530 0 17530 0 0
19750 0 19750 -17530 0 -17530 0 0 -19750z"/>
<path fill="#ffffff" stroke="000000" stroke-width="0.01" d="M24973 12238 c4 -10 8 -10 16 1 8 12
11 10 15 -12 3 -15 9 -39 12 -54 4 -20 8 -23 14 -13 5 8 6 -3 3 -28 -4 -28 -2
-42 6 -42 6 0 11 -9 11 -20 0 -11 3 -20 8 -20 28 0 32 -268 4 -300 -43 -50
-52 -66 -52 -87 0 -26 -17 -64 -33 -75 -6 -3 -10 -27 -10 -52 1 -25 -2 -46 -5
-46 -4 0 -8 -36 -9 -80 -1 -44 3 -80 8 -80 15 0 11 -97 -5 -113 -8 -7 -29 -42
-46 -78 -18 -35 -41 -71 -51 -80 -11 -9 -19 -24 -19 -33 0 -9 -7 -16 -15 -16
-8 0 -15 5 -15 10 0 6 -11 10 -25 10 -14 0 -25 -4 -25 -10 0 -5 -9 -10 -20
-10 -11 0 -20 5 -20 10 0 6 -24 10 -53 10 -41 0 -56 4 -67 20 -8 11 -22 20
-32 20 -10 0 -18 5 -18 10 0 6 -6 10 -14 10 -23 0 -115 295 -116 370 0 61 48
170 76 170 3 0 15 10 26 22 16 19 21 20 28 8 9 -13 10 -13 10 0 0 13 1 13 10
0 9 -13 11 -13 20 0 24 38 35 50 46 50 8 0 11 13 9 38 -1 20 2 40 7 43 6 4 12
25 14 48 2 22 15 64 30 93 17 33 22 54 15 56 -16 5 -13 22 4 22 8 0 18 12 21
27 10 38 27 53 63 53 17 0 31 4 31 9 0 5 14 24 31 42 25 26 32 30 40 18 8 -12
10 -12 19 1 5 8 10 25 10 38 0 37 33 66 43 40z"/>
<path fill="#ffffff" stroke="000000" stroke-width="0.01" d="M26330 11940 c0 -5 10 -10 23 -10 16 0
25 -9 35 -35 6 -19 18 -51 24 -70 15 -41 28 -46 28 -11 0 35 10 56 26 56 8 0
14 5 14 10 0 6 15 10 34 10 26 0 36 -5 41 -20 3 -11 15 -20 25 -20 10 0 22 9
25 20 3 11 15 20 26 20 10 0 19 5 19 10 0 6 18 10 39 10 22 0 41 5 44 13 3 8
11 4 26 -12 13 -16 21 -19 21 -10 1 9 5 7 12 -5 6 -11 30 -38 53 -61 22 -23
47 -56 55 -74 8 -20 16 -28 20 -21 4 7 12 -1 20 -19 11 -29 16 -31 61 -31 27
0 49 -4 49 -10 0 -5 -4 -10 -10 -10 -5 0 -10 -4 -10 -10 0 -5 11 -10 25 -10
14 0 25 -4 25 -10 0 -5 9 -10 19 -10 16 0 18 -5 14 -40 -5 -36 -4 -40 16 -40
21 0 51 -21 51 -34 0 -3 -7 -6 -15 -6 -8 0 -15 -9 -15 -20 0 -11 5 -20 11 -20
6 0 8 -7 5 -16 -3 -8 1 -23 10 -31 9 -9 14 -25 11 -37 -10 -43 -33 -92 -50
-107 -15 -14 -16 -21 -6 -43 7 -14 19 -26 27 -26 9 0 12 -6 8 -16 -3 -9 -6
-22 -6 -30 0 -8 -9 -14 -20 -14 -20 0 -38 -40 -25 -59 3 -6 1 -20 -6 -32 -8
-16 -8 -23 1 -29 7 -5 9 -20 5 -44 -5 -24 -3 -36 4 -36 6 0 11 -13 11 -30 0
-16 4 -30 10 -30 5 0 14 -18 20 -40 6 -22 15 -40 20 -40 5 0 11 -8 15 -19 9
-31 41 -61 63 -61 19 0 21 -4 16 -30 -4 -19 -2 -30 5 -30 6 0 11 5 11 10 0 6
4 10 9 10 5 0 7 -19 4 -42 -4 -37 -2 -40 8 -24 16 27 76 86 86 86 5 0 15 9 23
20 10 14 26 20 54 20 36 0 76 27 76 52 0 4 11 8 25 8 14 0 25 -6 25 -12 0 -9
4 -8 10 2 6 10 10 11 10 3 0 -7 6 -13 14 -13 8 0 17 -6 19 -12 3 -7 6 -3 6 10
1 20 6 22 51 22 28 0 50 -4 50 -10 0 -15 40 -12 41 3 0 10 2 10 6 0 8 -21 25
-14 18 7 -4 11 -2 20 4 20 6 0 11 -4 11 -10 0 -5 7 -10 16 -10 20 0 44 -24 44
-44 0 -11 9 -16 26 -16 16 0 37 -12 54 -30 17 -18 38 -30 54 -30 14 0 26 -4
26 -10 0 -5 11 -10 25 -10 14 0 25 -4 25 -10 0 -5 11 -10 25 -10 14 0 25 -4
25 -10 0 -5 14 -10 30 -10 17 0 30 -4 30 -10 0 -5 11 -10 25 -10 14 0 25 -4
25 -10 0 -5 7 -10 15 -10 8 0 15 -4 15 -10 0 -5 7 -10 15 -10 8 0 15 -4 15
-10 0 -5 7 -10 15 -10 8 0 15 -4 15 -10 0 -5 7 -10 15 -10 8 0 15 -6 16 -12 0
-9 2 -9 6 1 5 11 7 11 15 0 7 -11 11 -11 15 -1 8 19 44 14 65 -10 16 -19 21
-20 29 -8 8 11 12 12 16 3 2 -7 11 -13 18 -13 8 0 17 -9 20 -20 3 -11 13 -20
21 -20 8 0 14 -9 14 -20 0 -21 19 -28 21 -7 0 10 2 10 6 0 2 -7 16 -13 29 -13
13 0 24 -6 24 -12 0 -10 2 -10 9 0 7 11 9 11 14 -2 4 -9 5 -22 3 -28 -1 -7 -1
-10 1 -5 7 12 43 8 43 -5 0 -9 4 -8 10 2 6 10 10 11 10 3 0 -7 7 -13 15 -13 8
0 15 5 15 10 0 6 16 10 35 10 19 0 35 5 35 10 0 6 14 10 30 10 17 0 30 -4 30
-10 0 -5 11 -10 25 -10 14 0 25 5 25 10 0 6 7 10 15 10 8 0 15 5 15 10 0 6 9
10 20 10 14 0 23 -11 32 -42 l12 -43 7 65 c8 77 49 200 67 200 6 0 12 5 12 10
0 6 7 10 15 10 8 0 15 -4 15 -10 0 -5 25 -10 55 -10 30 0 55 -4 55 -10 0 -5 6
-10 14 -10 8 0 18 -9 21 -20 3 -11 13 -20 21 -20 8 0 14 -9 14 -20 0 -13 7
-20 20 -20 11 0 20 -4 20 -10 0 -5 11 -10 25 -10 15 0 25 -6 25 -15 0 -28 23
-65 41 -65 10 0 21 -9 24 -20 3 -11 15 -20 26 -20 10 0 19 -4 19 -8 0 -14 36
-52 49 -52 6 0 11 -4 11 -10 0 -5 5 -10 11 -10 14 0 46 -36 54 -61 4 -11 11
-19 16 -19 16 0 39 -27 39 -44 0 -10 9 -16 24 -16 26 0 39 -20 30 -45 -4 -10
0 -15 11 -15 22 0 40 -19 49 -53 3 -15 12 -27 20 -27 10 0 36 -39 36 -55 0 -3
-11 -5 -25 -5 -27 0 -28 -1 -19 -24 3 -9 15 -16 25 -16 10 0 19 -4 19 -10 0
-5 7 -10 15 -10 11 0 15 -12 15 -50 0 -38 4 -50 15 -50 8 0 15 -9 15 -20 0
-11 7 -20 15 -20 8 0 15 -4 15 -10 0 -5 9 -10 20 -10 11 0 20 -4 20 -10 0 -5
14 -10 30 -10 17 0 30 -4 30 -10 0 -5 9 -10 20 -10 11 0 20 -4 20 -10 0 -5 7
-10 15 -10 8 0 15 -4 15 -10 0 -5 7 -10 15 -10 8 0 15 -4 15 -10 0 -5 7 -10
15 -10 8 0 15 -4 15 -10 0 -5 6 -10 13 -10 7 0 19 -9 27 -20 8 -11 18 -20 23
-20 5 0 26 -18 47 -40 21 -22 41 -40 45 -40 15 0 67 -65 72 -92 7 -33 23 -37
23 -5 1 19 2 20 11 5 7 -12 6 -24 -1 -37 -12 -23 -14 -111 -2 -111 4 0 14 9
22 20 8 11 22 20 32 20 10 0 18 6 18 13 0 8 4 7 10 -3 9 -13 11 -13 21 0 8 12
10 9 6 -14 -3 -16 -1 -44 5 -62 8 -31 12 -34 48 -34 22 0 40 -4 40 -10 0 -5 7
-10 15 -10 19 0 30 -43 16 -68 -14 -26 -4 -52 20 -52 10 0 19 -4 19 -10 0 -5
7 -10 15 -10 33 0 90 -76 79 -104 -4 -11 -1 -16 10 -16 9 0 16 -4 16 -8 0 -5
8 -18 18 -30 9 -11 24 -30 32 -41 8 -12 19 -21 24 -21 14 0 43 -37 56 -73 6
-17 22 -57 35 -87 13 -30 27 -66 30 -80 3 -14 14 -45 24 -70 34 -81 52 -190
41 -233 -6 -21 -8 -47 -5 -57 5 -16 2 -20 -14 -20 -12 0 -21 -4 -21 -10 0 -5
-11 -10 -25 -10 -14 0 -25 -4 -25 -10 0 -5 -11 -10 -25 -10 -14 0 -25 -4 -25
-10 0 -5 -9 -10 -20 -10 -11 0 -20 -4 -20 -10 0 -5 -9 -10 -21 -10 -24 0 -49
-22 -49 -44 0 -12 -11 -16 -45 -16 -25 0 -45 -4 -45 -10 0 -5 -14 -10 -31 -10
-29 0 -31 -2 -26 -27 6 -33 -19 -65 -34 -42 -7 11 -9 9 -9 -8 0 -14 -6 -23
-15 -23 -8 0 -15 -9 -15 -20 0 -15 -7 -20 -25 -20 -14 0 -25 -4 -25 -10 0 -5
-9 -10 -20 -10 -24 0 -25 -6 -6 -26 8 -8 31 -14 50 -14 20 0 36 -4 36 -10 0
-5 10 -10 23 -10 22 0 23 -3 19 -55 -3 -41 0 -58 12 -70 22 -22 20 -35 -4 -35
-13 0 -20 -7 -20 -20 0 -11 -4 -20 -10 -20 -5 0 -10 -4 -10 -10 0 -5 7 -10 15
-10 8 0 15 5 15 10 0 18 18 11 25 -10 9 -27 -3 -60 -21 -60 -16 0 -16 -2 -8
-24 3 -9 15 -16 25 -16 25 0 24 -12 -1 -30 -11 -8 -20 -22 -20 -31 0 -10 -5
-19 -11 -21 -20 -7 3 -38 28 -38 35 0 57 -24 43 -49 -13 -26 -13 -31 5 -31 8
0 15 -4 15 -10 0 -5 7 -10 15 -10 8 0 15 -4 15 -10 0 -5 10 -10 23 -10 19 0
28 -11 49 -57 46 -103 55 -128 63 -161 10 -48 13 -171 4 -212 -4 -19 -10 -47
-14 -62 -3 -16 -12 -28 -20 -28 -8 0 -15 -6 -16 -12 0 -10 -2 -10 -6 0 -12 30
-64 -2 -78 -49 -4 -12 -16 -19 -31 -19 -13 0 -24 -4 -24 -8 0 -14 -36 -52 -49
-52 -6 0 -11 -7 -11 -16 0 -23 -25 -44 -54 -44 -14 0 -26 -3 -26 -6 0 -11 29
-34 44 -34 8 0 18 -9 21 -20 3 -11 13 -20 21 -20 10 0 14 -12 14 -40 0 -22 -4
-40 -10 -40 -5 0 -10 -7 -10 -15 0 -17 84 -105 100 -105 5 0 10 -9 10 -19 0
-11 7 -26 15 -35 22 -22 19 -26 -20 -26 -19 0 -35 -4 -35 -10 0 -5 -7 -10 -15
-10 -8 0 -15 -4 -15 -10 0 -6 -28 -10 -65 -10 -37 0 -65 -4 -65 -10 0 -5 -9
-10 -20 -10 -11 0 -20 -4 -20 -10 0 -5 6 -10 13 -10 8 0 13 -15 14 -40 1 -22
-2 -40 -8 -40 -5 0 -9 -7 -9 -16 0 -8 -7 -22 -15 -30 -8 -9 -15 -24 -15 -35 0
-10 -7 -19 -15 -19 -8 0 -15 -4 -15 -10 0 -5 -25 -10 -55 -10 -30 0 -55 -4
-55 -10 0 -5 -7 -10 -15 -10 -8 0 -15 -4 -15 -10 0 -5 -18 -10 -40 -10 -31 0
-40 -4 -40 -17 0 -10 -5 -25 -10 -33 -9 -13 -11 -13 -20 0 -6 10 -10 11 -10 3
0 -7 -11 -13 -25 -13 -14 0 -25 6 -26 13 0 6 -5 2 -11 -10 -6 -13 -15 -23 -20
-23 -4 0 -8 -9 -8 -20 0 -17 -7 -20 -45 -20 -25 0 -45 -4 -45 -10 0 -5 -13
-10 -30 -10 -16 0 -30 -4 -30 -10 0 -5 -16 -10 -35 -10 -19 0 -35 -4 -35 -10
0 -5 -13 -10 -30 -10 -16 0 -30 -4 -30 -10 0 -5 -8 -10 -18 -10 -10 0 -24 -9
-32 -20 -8 -11 -20 -20 -27 -20 -7 0 -16 -12 -19 -27 -7 -26 -13 -36 -41 -68
-7 -7 -13 -18 -13 -24 0 -21 -24 -61 -37 -61 -7 0 -13 -4 -13 -10 0 -5 -6 -10
-14 -10 -17 0 -31 -31 -18 -39 15 -10 42 -68 42 -91 0 -22 -84 -195 -105 -217
-8 -7 -21 -13 -29 -13 -9 0 -16 -4 -16 -10 0 -5 -9 -10 -20 -10 -11 0 -20 -4
-20 -10 0 -5 -16 -10 -35 -10 -19 0 -35 5 -35 10 0 6 -11 10 -24 10 -16 0 -27
7 -31 20 -9 27 -56 27 -75 0 -16 -23 -36 -26 -43 -7 -3 8 -12 4 -27 -13 -15
-17 -24 -21 -27 -12 -3 6 -9 12 -15 12 -12 0 -48 -39 -48 -52 0 -4 -9 -8 -19
-8 -11 0 -23 -9 -26 -21 -6 -17 -9 -18 -16 -8 -6 11 -12 9 -27 -9 -11 -12 -23
-22 -28 -22 -5 0 -16 -9 -24 -20 -8 -11 -22 -20 -32 -20 -10 0 -18 -4 -18 -10
0 -5 -7 -10 -16 -10 -24 0 -54 -39 -54 -69 1 -14 7 -37 15 -51 16 -27 20 -120
6 -120 -5 0 -14 -14 -21 -30 -9 -21 -19 -30 -36 -30 -13 0 -24 -4 -24 -10 0
-5 -18 -10 -39 -10 -22 0 -42 -6 -45 -12 -5 -10 -7 -10 -12 0 -3 6 -12 12 -21
12 -8 0 -32 18 -53 40 -21 22 -43 40 -49 40 -6 0 -11 5 -11 10 0 6 -5 10 -11
10 -11 0 -95 84 -119 120 -8 12 -27 36 -42 52 -16 17 -28 34 -28 38 0 12 -57
70 -68 70 -11 0 -22 23 -22 46 0 8 5 14 11 14 15 0 39 26 39 43 0 12 -9 26
-50 74 -5 7 -10 19 -10 28 0 8 -6 15 -14 15 -8 0 -18 9 -21 20 -4 11 -17 32
-31 45 -13 13 -24 36 -24 50 0 19 -5 25 -20 25 -20 0 -180 151 -180 169 0 4
-9 19 -21 32 l-21 24 5 -75 c2 -41 10 -97 16 -124 13 -59 7 -86 -20 -86 -10 0
-19 -4 -19 -10 0 -5 -7 -10 -15 -10 -17 0 -18 -2 -9 -24 3 -9 12 -16 19 -16 8
0 17 -9 20 -20 3 -11 11 -20 16 -20 5 0 9 -13 9 -30 0 -16 -4 -30 -10 -30 -5
0 -10 6 -10 13 0 8 -4 7 -10 -3 -6 -10 -10 -11 -10 -2 0 8 -18 12 -58 12 -46
0 -60 4 -72 20 -8 11 -19 20 -25 20 -11 0 -45 61 -45 81 0 9 8 21 38 54 20 23
14 41 -28 85 -22 23 -40 46 -40 51 0 5 -5 9 -11 9 -6 0 -24 14 -39 30 -15 17
-31 30 -34 30 -15 0 -53 48 -60 73 -3 15 -11 27 -16 27 -5 0 -14 18 -20 40 -6
22 -16 40 -23 40 -7 0 -19 9 -27 20 -8 11 -20 20 -27 20 -6 0 -14 8 -18 19 -8
25 -40 61 -54 61 -6 0 -11 5 -11 10 0 6 -5 10 -11 10 -6 0 -24 14 -39 30 -15
17 -37 30 -49 30 -14 0 -21 6 -21 20 0 11 -4 20 -9 20 -5 0 -13 9 -16 20 -3
11 -13 20 -21 20 -8 0 -14 4 -14 9 0 5 -14 23 -30 41 -17 18 -33 44 -37 59 -3
14 -11 30 -17 34 -8 6 -7 10 2 14 17 7 15 23 -3 23 -8 0 -15 5 -15 10 0 6 -18
10 -40 10 -22 0 -40 5 -40 10 0 6 -13 10 -30 10 -16 0 -30 4 -30 8 0 14 -36
52 -49 52 -6 0 -11 5 -11 10 0 6 -7 10 -15 10 -8 0 -15 5 -15 10 0 6 -6 10
-14 10 -7 0 -19 14 -26 30 -10 23 -19 30 -40 30 -16 0 -31 6 -33 13 -4 9 -8 8
-16 -3 -10 -13 -12 -13 -21 0 -14 21 -12 30 5 30 8 0 15 5 15 10 0 6 7 10 15
10 34 0 25 110 -12 148 -23 24 -15 61 22 98 19 19 35 39 35 44 0 6 5 10 11 10
6 0 28 18 49 40 21 22 43 40 49 40 5 0 13 9 16 20 3 11 12 20 20 20 8 0 17 9
20 20 4 13 15 20 31 20 13 0 24 5 24 10 0 6 8 10 18 10 12 0 25 14 37 40 11
25 25 40 36 40 13 0 21 12 29 40 6 22 16 40 21 40 15 0 6 94 -13 145 -9 22
-18 57 -21 78 l-6 37 45 0 c24 0 44 -4 44 -10 0 -5 9 -10 20 -10 11 0 20 5 20
10 0 6 7 10 15 10 8 0 15 5 15 10 0 6 -7 10 -16 10 -12 0 -15 7 -11 26 5 27 3
30 -61 100 -13 14 -28 41 -33 59 -7 24 -16 35 -28 35 -20 0 -35 25 -25 41 3 5
-2 16 -10 25 -9 8 -17 30 -17 47 -1 18 -3 39 -4 47 -1 8 -3 21 -4 28 0 6 -7
12 -15 12 -15 0 -30 29 -21 39 3 3 10 -1 15 -9 6 -8 10 -12 10 -8 0 3 3 13 6
22 4 10 1 16 -8 16 -22 0 -46 60 -41 101 4 29 0 41 -21 62 -14 14 -26 33 -26
42 0 8 -3 15 -7 15 -5 0 -8 25 -9 56 0 30 -5 58 -11 62 -10 7 -33 46 -33 56 0
3 9 6 20 6 11 0 20 5 20 10 0 6 -9 10 -20 10 -11 0 -20 5 -20 10 0 6 5 10 11
10 8 0 9 11 5 33 -4 22 -3 27 3 17 14 -21 24 -5 12 18 -11 21 -5 52 10 52 5 0
9 5 9 10 0 6 -7 10 -15 10 -8 0 -15 -4 -15 -10 0 -5 -7 -10 -15 -10 -8 0 -15
-4 -15 -10 0 -5 -7 -10 -15 -10 -16 0 -31 42 -21 59 7 11 -13 61 -25 61 -4 0
-11 20 -14 44 -5 33 -2 52 14 84 27 52 27 52 -8 52 -26 0 -30 5 -45 49 -20 62
-20 85 -1 105 21 20 19 26 -9 26 -20 0 -27 9 -40 51 -16 49 -14 89 5 89 5 0 9
5 9 10 0 6 -13 10 -28 10 -24 0 -29 5 -41 48 -8 26 -20 67 -28 91 -14 42 -14
66 2 104 6 13 2 17 -18 17 -22 0 -26 5 -31 48 -4 26 -6 79 -6 117 1 57 -3 75
-19 94 -18 21 -22 22 -36 8 -8 -9 -15 -23 -15 -31 0 -9 -4 -16 -9 -16 -5 0
-13 -9 -16 -20 -4 -14 -15 -20 -36 -20 -22 0 -29 -5 -29 -20 0 -11 -7 -20 -15
-20 -18 0 -18 -5 -5 -30 12 -23 3 -50 -17 -50 -10 0 -12 -6 -8 -20 5 -14 2
-20 -9 -20 -9 0 -16 -4 -16 -10 0 -5 -13 -10 -29 -10 -26 0 -29 4 -33 38 -7
55 -2 62 53 62 27 0 49 5 49 10 0 6 -27 10 -60 10 -33 0 -60 4 -60 10 0 6 -9
10 -20 10 -11 0 -20 5 -20 10 0 6 -9 10 -20 10 -16 0 -20 7 -20 35 0 35 -28
105 -41 105 -9 0 -32 73 -34 106 -1 19 -8 30 -43 69 -7 8 -11 19 -8 24 11 18
-6 41 -30 41 -13 0 -24 5 -24 10 0 6 -7 10 -15 10 -8 0 -15 8 -15 18 0 10 -9
24 -20 32 -11 8 -20 22 -20 32 0 11 -7 18 -20 18 -13 0 -20 7 -20 20 0 11 -7
20 -15 20 -8 0 -15 9 -15 20 0 11 -4 20 -10 20 -5 0 -10 15 -11 33 l-1 32 -9
-32 c-5 -18 -14 -33 -20 -33 -6 0 -8 -7 -5 -15 3 -8 9 -22 12 -30 4 -10 0 -15
-10 -15 -9 0 -16 -4 -16 -10 0 -5 -13 -10 -30 -10 -16 0 -30 5 -30 10 0 6 -7
10 -15 10 -8 0 -15 -4 -15 -10 0 -19 -22 -10 -50 20 -27 29 -29 29 -35 10 -8
-26 -27 -26 -45 0 -8 11 -19 20 -25 20 -6 0 -17 9 -25 20 -8 11 -20 20 -27 20
-7 0 -13 9 -13 20 0 11 -4 20 -10 20 -5 0 -10 18 -10 40 0 36 -2 40 -25 40
-14 0 -25 5 -25 10 0 6 -11 10 -25 10 -20 0 -25 5 -25 24 0 49 -9 56 -66 56
l-53 0 -12 -42 c-6 -24 -14 -37 -16 -30 -3 6 -11 12 -19 12 -8 0 -14 5 -14 10
0 6 -6 10 -14 10 -7 0 -16 14 -20 32 -6 32 -6 32 -23 11 l-17 -21 -19 21 c-14
15 -21 18 -24 10 -3 -7 -20 -13 -38 -13 -30 0 -33 3 -37 38 -3 20 -1 39 4 40
12 5 10 52 -4 66 -7 8 -20 23 -28 35 -9 13 -25 21 -42 21 -15 0 -28 5 -28 10
0 6 -9 10 -21 10 -36 0 -63 39 -85 125 -16 60 -18 166 -3 218 l10 37 96 0 c85
0 98 2 114 22 21 23 24 75 9 148 -6 28 -6 76 0 130 6 47 13 115 16 153 3 37
12 73 20 81 8 8 14 24 14 36 0 11 20 41 45 65 38 38 50 45 85 45 22 0 40 5 40
10 0 6 16 10 35 10 19 0 35 5 35 10 0 6 32 10 75 10 43 0 75 -4 75 -10 0 -5
11 -10 25 -10 14 0 25 -4 25 -10 0 -5 18 -10 40 -10 25 0 40 -5 41 -12 0 -10
2 -10 6 0 6 14 33 16 33 2 0 -5 5 -10 10 -10 6 0 10 15 10 33 0 20 3 27 8 19
6 -9 14 0 27 28 10 22 24 40 32 40 7 0 13 5 13 10 0 6 7 10 15 10 8 0 15 5 15
10 0 6 20 10 45 10 25 0 45 5 45 10 0 6 16 10 35 10 19 0 35 -4 35 -8 0 -14
36 -52 49 -52 16 0 61 -46 61 -63 0 -8 8 -24 19 -36 10 -11 21 -44 25 -72 4
-28 10 -49 13 -46 3 4 8 46 10 94 3 57 13 114 29 162 15 45 24 92 22 120 -4
75 35 200 75 247 14 16 47 18 47 4z"/>
<path fill="#ffffff" stroke="000000" stroke-width="0.01" d="M25350 8780 c0 -6 32 -10 75 -10 43 0
75 -4 75 -10 0 -5 7 -10 15 -10 8 0 15 -4 15 -10 0 -5 18 -10 40 -10 22 0 40
-4 40 -10 0 -6 27 -10 60 -10 33 0 60 -4 60 -10 0 -5 9 -10 20 -10 11 0 20 -4
20 -10 0 -5 7 -10 15 -10 8 0 15 -4 15 -10 0 -5 9 -10 20 -10 11 0 20 -4 20
-10 0 -5 6 -10 14 -10 8 0 17 -6 20 -12 5 -10 7 -10 12 0 4 7 27 12 65 12 51
0 59 -2 59 -19 0 -26 53 -81 79 -81 17 0 20 -5 15 -28 -5 -27 21 -72 42 -72 5
0 16 -9 24 -20 8 -11 22 -20 32 -20 10 0 18 -4 18 -10 0 -5 7 -10 15 -10 8 0
15 -4 15 -10 0 -5 7 -10 16 -10 11 0 14 -5 10 -16 -3 -8 0 -21 7 -29 6 -7 19
-22 27 -34 8 -11 20 -21 27 -21 7 0 13 -4 13 -10 0 -5 5 -10 11 -10 27 0 49
-43 49 -96 0 -62 7 -84 27 -84 9 0 12 -6 9 -18 -4 -11 2 -28 14 -42 11 -13 20
-36 20 -52 0 -18 5 -28 15 -28 10 0 15 -11 15 -35 0 -37 18 -85 32 -85 21 0
68 -72 68 -105 0 -8 7 -15 15 -15 8 0 15 -7 15 -16 0 -22 32 -53 38 -36 2 6
15 12 28 12 17 0 24 -6 24 -20 0 -11 5 -20 11 -20 6 0 8 -9 4 -20 -4 -14 -2
-20 9 -20 8 0 18 -9 21 -20 3 -11 13 -20 21 -20 8 0 14 -9 14 -19 0 -11 6 -26
13 -33 7 -7 16 -22 19 -33 13 -41 33 -90 43 -101 6 -6 17 -22 25 -34 8 -12 20
-28 26 -34 26 -27 33 -57 30 -116 -2 -37 -9 -66 -17 -71 -10 -6 -8 -12 10 -28
29 -25 23 -71 -9 -71 -11 0 -20 -4 -20 -10 0 -5 -14 -10 -31 -10 -35 0 -69
-31 -69 -62 0 -13 -7 -18 -25 -18 -14 0 -25 5 -25 10 0 6 -13 10 -30 10 -16 0
-30 -4 -30 -10 0 -5 -7 -10 -15 -10 -8 0 -15 6 -15 13 0 8 -4 7 -10 -3 -14
-21 -12 -30 5 -30 8 0 15 -4 15 -10 0 -5 12 -10 26 -10 21 0 64 -31 64 -46 0
-15 -15 -34 -27 -34 -18 0 -50 -33 -58 -61 -7 -20 -55 -28 -55 -9 0 6 -9 10
-20 10 -11 0 -20 6 -21 13 0 10 -2 10 -6 0 -2 -7 -16 -13 -29 -13 -13 0 -24
-4 -24 -10 0 -5 -11 -10 -25 -10 -14 0 -25 -4 -25 -10 0 -5 -11 -10 -25 -10
-14 0 -25 -4 -25 -10 0 -15 -107 -13 -113 3 -3 6 -6 0 -6 -15 -1 -37 -11 -58
-27 -58 -8 0 -14 -4 -14 -10 0 -5 -11 -10 -25 -10 -14 0 -25 5 -25 10 0 6 -33
10 -80 10 -47 0 -80 4 -80 10 0 6 -16 10 -35 10 -19 0 -35 -4 -35 -10 0 -5 -9
-10 -20 -10 -11 0 -20 -4 -20 -10 0 -19 -62 -11 -81 12 -11 11 -19 25 -19 30
0 4 -11 8 -25 8 -14 0 -25 5 -25 10 0 6 -5 10 -11 10 -6 0 -28 18 -49 40 -21
22 -42 40 -47 40 -5 0 -15 9 -23 20 -8 11 -20 20 -27 20 -7 0 -13 5 -13 10 0
6 -5 10 -11 10 -6 0 -28 18 -49 40 -21 22 -46 40 -54 40 -9 0 -16 5 -16 10 0
6 -11 10 -25 10 -14 0 -25 5 -25 10 0 6 -7 10 -15 10 -8 0 -15 5 -15 10 0 6
-9 10 -20 10 -11 0 -20 5 -20 10 0 6 -9 10 -20 10 -11 0 -20 5 -20 10 0 6 -9
10 -20 10 -11 0 -20 5 -20 10 0 6 -5 10 -11 10 -6 0 -32 23 -59 50 -27 28 -58
50 -69 50 -12 0 -21 5 -21 10 0 6 -5 10 -11 10 -11 0 -53 41 -79 79 -8 12 -19
21 -25 21 -6 0 -17 9 -25 20 -8 11 -19 20 -25 20 -6 0 -17 9 -25 20 -8 11 -20
20 -27 20 -6 0 -15 9 -18 20 -3 11 -15 20 -26 20 -10 0 -19 5 -19 10 0 6 -5
10 -11 10 -6 0 -32 23 -59 50 -27 28 -53 50 -57 50 -5 0 -15 9 -23 20 -8 11
-20 20 -27 20 -6 0 -14 8 -18 19 -9 28 -40 61 -59 61 -9 0 -16 5 -16 10 0 6
-9 10 -20 10 -15 0 -22 9 -26 30 -4 17 -10 30 -14 30 -11 0 -30 48 -30 75 0
24 3 25 65 25 37 0 65 -4 65 -10 0 -5 14 -10 30 -10 17 0 30 -4 30 -10 0 -6
37 -10 90 -10 53 0 90 -4 90 -10 0 -5 6 -10 14 -10 8 0 18 -9 21 -20 7 -21 25
-28 25 -10 0 6 18 10 40 10 22 0 40 -4 40 -10 0 -5 14 -10 30 -10 17 0 30 -4
30 -10 0 -5 9 -10 20 -10 11 0 20 -4 20 -10 0 -5 18 -10 40 -10 22 0 40 -4 40
-10 0 -5 7 -10 15 -10 8 0 15 5 15 10 0 6 -4 10 -9 10 -5 0 -13 9 -16 20 -3
11 -11 20 -16 20 -29 0 -60 73 -36 84 9 5 9 7 0 12 -7 3 -13 13 -13 23 0 9 -9
23 -20 31 -11 8 -25 32 -31 52 -5 22 -16 38 -24 38 -8 0 -15 4 -15 9 0 5 -13
23 -29 40 -28 30 -61 41 -61 21 0 -5 -9 -10 -20 -10 -13 0 -22 10 -29 35 -10
37 -32 65 -51 65 -7 0 -9 8 -5 20 5 14 2 20 -9 20 -9 0 -16 9 -16 20 0 11 -6
20 -13 20 -21 0 -39 47 -27 71 7 13 7 25 0 38 -5 11 -7 27 -4 35 3 9 1 16 -4
16 -17 0 -28 59 -24 123 3 38 8 57 17 57 18 0 28 32 13 41 -7 4 -9 12 -4 16 5
4 11 2 13 -4 3 -7 11 -13 19 -13 8 0 14 -4 14 -10 0 -5 18 -10 40 -10 35 0 40
3 40 23 0 12 -9 46 -19 75 -11 30 -17 60 -14 68 6 16 43 19 43 4 0 -5 11 -10
25 -10 14 0 25 5 25 10 0 6 9 10 20 10 11 0 20 5 20 10 0 6 12 10 26 10 29 0
55 25 74 70 8 18 20 30 31 30 11 0 19 5 19 10 0 6 37 10 90 10 53 0 90 -4 90
-10z"/>
<path fill="#ffffff" stroke="000000" stroke-width="0.01" d="M32519 6670 c6 0 11 -4 11 -10 0 -5 9
-10 20 -10 11 0 20 -4 20 -10 0 -5 15 -10 34 -10 26 0 36 -5 41 -20 5 -15 15
-20 41 -20 19 0 34 -4 34 -10 0 -5 16 -10 35 -10 19 0 35 -4 35 -10 0 -5 9
-10 20 -10 16 0 20 -7 20 -30 0 -16 5 -30 10 -30 6 0 10 5 10 10 0 23 20 7 29
-22 5 -18 10 -27 10 -20 1 14 41 17 41 2 0 -5 9 -10 20 -10 11 0 20 -4 20 -10
0 -5 9 -10 20 -10 11 0 20 -4 20 -10 0 -5 6 -10 13 -10 7 0 19 -9 27 -20 8
-11 19 -20 25 -20 6 0 17 -9 25 -20 8 -11 19 -20 25 -20 6 0 17 -9 25 -20 8
-11 22 -20 32 -20 10 0 18 -4 18 -10 0 -5 11 -20 24 -33 13 -13 32 -39 41 -58
10 -19 21 -36 25 -39 28 -19 53 -120 30 -120 -5 0 -10 -7 -10 -15 0 -20 -37
-94 -57 -113 -8 -8 -12 -21 -9 -29 3 -8 6 -21 6 -29 0 -10 13 -14 45 -14 38 0
45 -3 45 -20 0 -11 -4 -20 -8 -20 -11 0 -32 -46 -31 -68 0 -10 3 -12 6 -4 2 6
14 12 25 12 18 0 19 -4 13 -40 -7 -39 -6 -40 24 -40 17 0 31 5 31 10 0 6 9 10
20 10 11 0 20 5 20 10 0 6 7 10 15 10 8 0 15 5 15 10 0 6 25 10 55 10 30 0 55
5 55 10 0 6 18 10 40 10 22 0 40 -4 40 -10 0 -5 14 -10 30 -10 26 0 31 -5 37
-30 6 -30 27 -41 36 -17 4 9 8 8 16 -3 7 -10 11 -11 11 -2 0 6 7 12 15 12 8 0
15 5 15 10 0 6 9 10 20 10 11 0 20 5 20 10 0 6 9 10 20 10 11 0 20 -4 20 -10
0 -5 10 -10 21 -10 31 0 59 -37 59 -77 0 -35 13 -67 37 -91 7 -7 13 -29 13
-48 0 -20 7 -42 15 -50 8 -9 15 -28 15 -44 0 -16 4 -30 10 -32 11 -3 47 -93
60 -148 19 -81 35 -110 59 -110 16 0 21 -31 16 -100 -6 -86 -1 -100 36 -100
23 0 41 -11 69 -40 32 -33 45 -40 77 -40 27 0 43 6 53 20 8 11 22 20 32 20 10
0 18 5 18 10 0 6 7 10 15 10 8 0 15 5 15 10 0 6 9 10 20 10 11 0 20 5 20 10 0
6 21 10 46 10 36 0 51 -5 66 -22 10 -12 16 -28 13 -36 -3 -7 -5 -33 -5 -57 0
-24 -6 -50 -14 -58 -32 -32 -76 -138 -81 -194 -8 -104 -30 -258 -39 -272 -5
-8 -4 -16 3 -20 14 -9 35 -156 27 -193 -3 -15 -2 -28 3 -28 10 0 27 -42 35
-87 5 -30 -15 -150 -28 -172 -4 -6 0 -24 8 -40 9 -16 15 -42 15 -57 -1 -16 6
-83 15 -149 8 -66 16 -141 16 -167 0 -27 4 -48 8 -48 17 0 42 -73 42 -122 0
-60 16 -156 36 -211 21 -62 14 -67 -88 -67 l-90 0 -38 -40 c-21 -22 -43 -40
-49 -40 -6 0 -11 -4 -11 -10 0 -5 -9 -10 -20 -10 -11 0 -20 -4 -20 -10 0 -5
-11 -10 -25 -10 -14 0 -25 -4 -25 -10 0 -5 -7 -10 -15 -10 -8 0 -15 -4 -15
-10 0 -5 -13 -10 -30 -10 -16 0 -30 -4 -30 -10 0 -5 -7 -10 -15 -10 -8 0 -15
-4 -15 -10 0 -5 -10 -10 -21 -10 -12 0 -30 -10 -40 -22 -11 -11 -19 -16 -19
-10 0 7 -7 12 -15 12 -8 0 -15 -4 -15 -10 0 -5 -9 -10 -20 -10 -17 0 -20 -7
-20 -50 0 -38 -4 -50 -15 -50 -8 0 -15 -9 -15 -20 0 -11 -5 -20 -11 -20 -7 0
-9 -11 -5 -30 3 -16 2 -30 -2 -30 -4 0 -8 -18 -9 -40 -2 -46 -22 -108 -40
-128 -17 -18 -16 -27 4 -48 13 -13 14 -19 5 -22 -16 -5 -15 -17 4 -37 22 -21
11 -65 -16 -65 -11 0 -20 5 -20 10 0 19 -39 10 -45 -11 -5 -16 -9 -18 -15 -9
-6 9 -10 7 -15 -9 -3 -11 -10 -21 -15 -21 -5 0 -14 -18 -20 -40 -12 -46 -19
-49 -40 -19 -8 12 -25 32 -37 44 -11 12 -31 42 -43 66 -12 23 -27 48 -34 55
-6 6 -18 22 -26 34 -8 12 -20 28 -26 34 -13 14 -23 58 -32 149 -4 37 -13 71
-19 75 -7 5 -13 21 -13 37 0 49 -11 125 -19 125 -4 0 -13 -9 -21 -20 -8 -12
-26 -20 -42 -20 -34 0 -35 -7 -7 -31 16 -14 20 -25 15 -44 -4 -14 -11 -25 -16
-25 -6 0 -10 -8 -10 -18 0 -10 -9 -24 -20 -32 -11 -8 -20 -22 -20 -32 0 -13
-8 -18 -25 -18 -14 0 -25 5 -25 10 0 6 -32 10 -75 10 -43 0 -75 -4 -75 -10 0
-16 -200 -13 -201 3 0 9 -2 9 -6 0 -6 -15 -33 -17 -33 -3 0 6 -7 10 -15 10 -8
0 -15 5 -15 10 0 6 -7 10 -15 10 -8 0 -15 5 -15 10 0 6 -7 10 -15 10 -8 0 -15
5 -15 10 0 6 -16 10 -35 10 -19 0 -35 5 -35 10 0 6 -16 10 -35 10 -19 0 -35 5
-35 10 0 6 -9 10 -20 10 -11 0 -20 6 -21 13 0 9 -2 9 -6 0 -6 -18 -31 -16 -50
2 -12 12 -13 30 -8 90 5 53 4 75 -4 75 -6 0 -11 -7 -11 -15 0 -9 -16 -31 -35
-50 -26 -27 -43 -35 -70 -35 -19 0 -35 5 -35 10 0 6 -14 10 -31 10 l-32 0 7
50 c4 32 3 50 -4 50 -5 0 -10 -4 -10 -10 0 -5 -11 -10 -25 -10 -14 0 -25 -4
-25 -10 0 -5 -13 -10 -30 -10 -16 0 -30 5 -30 10 0 6 -18 10 -40 10 -22 0 -40
5 -40 10 0 6 -6 10 -13 10 -7 0 -19 9 -27 20 -12 17 -26 20 -82 20 -39 0 -68
-4 -68 -10 0 -5 -9 -10 -19 -10 -11 0 -22 -6 -25 -12 -5 -10 -7 -10 -12 0 -3
6 -12 12 -19 12 -7 0 -15 6 -18 13 -2 6 -7 9 -10 6 -4 -3 -1 -19 5 -36 10 -26
9 -34 -4 -47 -18 -18 -68 -22 -68 -6 0 6 -7 10 -15 10 -8 0 -15 5 -15 10 0 6
-7 10 -15 10 -8 0 -15 5 -15 10 0 6 -5 10 -11 10 -6 0 -28 18 -49 40 -21 22
-43 40 -48 40 -5 0 -15 14 -22 30 -7 17 -16 30 -21 30 -4 0 -11 9 -14 20 -3
11 -12 20 -19 20 -8 0 -19 14 -26 30 -7 17 -16 30 -20 30 -4 0 -13 14 -20 30
-7 17 -19 30 -26 30 -8 0 -14 4 -14 9 0 5 -13 23 -29 40 -17 18 -33 41 -36 52
-4 10 -13 19 -21 19 -8 0 -14 7 -14 15 0 9 -9 26 -20 38 -61 67 -80 90 -85
108 -4 10 -15 19 -26 19 -10 0 -19 5 -19 10 0 6 -12 10 -26 10 -24 0 -26 2
-20 34 6 34 -9 86 -26 86 -4 0 -8 -9 -8 -20 0 -11 -7 -20 -15 -20 -8 0 -15 -4
-15 -10 0 -20 -33 -9 -61 21 -16 17 -29 35 -29 40 0 5 -6 9 -14 9 -8 0 -18 9
-21 20 -4 13 -15 20 -30 20 -15 0 -26 7 -30 20 -3 11 -12 20 -20 20 -8 0 -17
9 -20 20 -4 11 -15 20 -27 20 -19 0 -78 53 -78 71 0 5 -5 9 -11 9 -7 0 -20 10
-30 22 -11 11 -19 15 -19 8 0 -6 -13 2 -29 19 -16 17 -34 31 -40 31 -6 0 -11
5 -11 10 0 6 -7 10 -15 10 -8 0 -15 5 -15 10 0 6 -6 10 -13 10 -7 0 -19 9 -27
20 -8 11 -22 20 -32 20 -12 0 -21 13 -28 40 -6 22 -14 40 -19 40 -4 0 -16 18
-26 40 -10 22 -22 40 -26 40 -5 0 -12 12 -15 27 -4 15 -13 33 -20 40 -7 7 -15
18 -17 25 -4 10 -7 10 -15 0 -7 -11 -11 -10 -16 4 -4 10 -1 21 5 25 9 5 8 12
-5 24 -9 10 -20 30 -23 46 -3 16 -9 29 -14 29 -4 0 -10 8 -14 19 -9 31 -41 61
-64 61 -11 0 -21 4 -21 8 0 8 -12 25 -51 70 -8 9 -7 31 4 80 18 81 47 162 57
162 4 0 13 14 20 30 7 17 16 30 21 30 5 0 9 15 9 33 0 17 7 50 15 72 17 49 19
75 4 75 -18 0 -50 42 -44 58 3 7 5 20 5 28 0 9 11 14 35 14 19 0 35 5 35 10 0
6 7 10 15 10 8 0 15 -4 15 -10 0 -5 9 -10 19 -10 11 0 23 -9 26 -20 3 -11 11
-20 16 -20 16 0 39 -27 39 -44 0 -9 4 -16 9 -16 5 0 13 -9 16 -20 14 -46 55
-16 95 69 15 34 30 51 42 51 10 0 18 6 19 13 0 10 2 10 6 0 6 -15 43 -17 43
-3 0 6 11 10 25 10 14 0 25 -4 25 -10 0 -5 23 -10 51 -10 44 0 55 -4 80 -31
16 -17 29 -26 29 -20 0 6 18 11 41 11 36 0 40 2 33 18 -11 25 -12 193 0 217 5
11 15 26 23 33 7 7 13 31 13 53 0 21 4 39 9 39 6 0 7 15 4 33 -4 24 2 48 22
87 34 66 67 100 100 100 14 0 25 5 25 10 0 6 7 10 15 10 8 0 15 -4 15 -10 0
-5 5 -10 11 -10 6 0 8 8 4 19 -4 14 8 33 44 70 47 48 90 66 92 39 0 -7 5 -3
11 10 7 13 20 22 34 22 14 0 25 8 29 20 3 11 10 20 15 20 5 0 12 9 15 20 3 11
12 20 19 20 8 0 19 13 26 30 17 40 44 70 64 70 9 0 16 5 16 10 0 6 7 10 15 10
8 0 15 5 15 10 0 6 14 10 30 10 17 0 30 -4 30 -10 0 -5 18 -10 40 -10 25 0 40
-5 40 -12 0 -10 3 -9 9 1 7 11 10 9 16 -8 7 -25 55 -30 55 -6 0 8 8 30 17 50
15 31 21 35 56 35 39 0 39 0 33 31 -3 17 -6 62 -6 99 0 53 -4 72 -20 90 -11
13 -21 37 -22 54 -3 71 1 117 14 131 29 32 37 44 58 85 24 47 28 52 82 110 35
39 58 50 58 30 0 -5 9 -10 20 -10 11 0 20 -6 21 -12 0 -7 5 -3 11 10 6 12 19
22 29 22 10 0 21 9 24 20 4 13 15 20 31 20 13 0 24 5 24 10 0 6 6 10 14 10 8
0 18 9 21 20 3 11 10 20 15 20 5 0 12 -9 15 -20 10 -32 30 -23 50 20 18 39 18
39 35 20 10 -11 22 -20 29 -20z"/>
<path fill="#ffffff" stroke="000000" stroke-width="0.01" d="M26330 6220 c0 -5 12 -10 26 -10 29 0
54 -21 54 -44 0 -9 5 -16 10 -16 6 0 10 5 10 10 0 18 55 11 70 -10 8 -11 22
-20 32 -20 10 0 18 -4 18 -10 0 -5 6 -10 13 -10 7 0 19 -10 27 -21 8 -12 25
-32 36 -44 36 -36 52 -77 46 -117 -4 -34 -7 -38 -33 -38 -16 0 -29 5 -29 10 0
6 -7 10 -15 10 -8 0 -15 5 -15 10 0 6 -9 10 -20 10 -11 0 -20 5 -20 10 0 6
-14 10 -31 10 -29 0 -69 29 -69 50 0 4 -9 17 -20 30 l-20 23 0 -31 c0 -27 -4
-32 -25 -32 -14 0 -25 5 -25 10 0 6 -7 10 -15 10 -8 0 -15 5 -15 10 0 6 -7 10
-16 10 -17 0 -54 36 -54 52 0 4 -6 8 -14 8 -8 0 -18 9 -21 20 -3 11 -11 20
-16 20 -5 0 -9 18 -9 40 0 38 2 40 30 40 17 0 30 5 30 10 0 6 18 10 40 10 22
0 40 -4 40 -10z"/>
<path fill="#ffffff" stroke="000000" stroke-width="0.01" d="M26930 5900 c0 -5 8 -10 18 -10 12 0
25 -14 37 -41 20 -44 66 -99 83 -99 6 0 14 -9 17 -20 3 -11 10 -20 15 -20 5 0
12 -9 15 -20 3 -11 12 -20 18 -20 7 0 19 -10 27 -21 8 -12 20 -27 26 -33 6 -7
19 -27 29 -45 13 -26 14 -35 5 -41 -19 -12 53 -80 85 -80 14 0 25 -4 25 -10 0
-5 9 -10 20 -10 11 0 20 -4 20 -10 0 -5 7 -10 16 -10 21 0 54 -38 54 -62 0
-15 -8 -18 -60 -18 -33 0 -60 -4 -60 -10 0 -19 -39 -10 -45 10 -3 11 -15 20
-26 20 -10 0 -19 5 -19 10 0 6 -7 10 -15 10 -8 0 -15 5 -15 10 0 6 -5 10 -10
10 -13 0 -51 37 -69 65 -11 19 -12 19 -6 -2 8 -30 -24 -32 -45 -3 -8 11 -19
20 -25 20 -6 0 -17 9 -25 20 -8 11 -20 20 -27 20 -7 0 -13 4 -13 10 0 5 -11
20 -25 34 -14 14 -25 30 -25 36 0 6 -5 16 -10 23 -39 46 -50 61 -50 68 0 4 -6
14 -14 21 -13 14 -46 72 -46 83 0 3 9 5 20 5 21 0 26 20 11 48 -5 10 -7 30 -4
45 5 25 9 27 49 27 24 0 44 -4 44 -10z"/>
</g>
</svg>
