<?xml version="1.0" standalone="no"?>
<!DOCTYPE svg PUBLIC "-//W3C//DTD SVG 20010904//EN"
 "http://www.w3.org/TR/2001/REC-SVG-20010904/DTD/svg10.dtd">
<svg version="1.0" xmlns="http://www.w3.org/2000/svg"
 width="3506.000000pt" height="3950.000000pt" viewBox="0 0 3506.000000 3950.000000"
 preserveAspectRatio="xMidYMid meet">
<metadata>
Created by potrace 1.15, written by Peter Selinger 2001-2017
</metadata>
<g transform="translate(0.000000,3950.000000) scale(0.100000,-0.100000)"
fill="#ffffff" stroke="000000" stroke-width="0.01">
<path fill="#ffffff" stroke="000000" stroke-width="0.01" d="M0 19750 l0 -19750 17530 0 17530 0 0
19750 0 19750 -17530 0 -17530 0 0 -19750z"/>
<path fill="#ffffff" stroke="000000" stroke-width="0.01" d="M26450 11460 c0 -5 9 -10 20 -10 15 0
22 -9 27 -30 3 -16 9 -30 14 -30 4 0 12 -15 18 -32 10 -34 25 -73 62 -168 11
-30 23 -65 26 -77 3 -13 9 -23 13 -23 5 0 12 -9 15 -20 3 -11 13 -20 21 -20 8
0 14 -9 14 -20 0 -17 7 -20 45 -20 25 0 45 -4 45 -10 0 -5 7 -10 15 -10 8 0
15 -4 15 -10 0 -5 5 -10 11 -10 6 0 24 -14 41 -32 25 -27 29 -38 25 -70 -3
-21 -2 -38 3 -38 4 0 11 -17 15 -37 4 -21 14 -51 22 -67 12 -23 14 -45 8 -100
-4 -39 -9 -87 -10 -106 -1 -19 -7 -45 -13 -57 -7 -12 -12 -33 -12 -47 0 -14
-4 -26 -9 -26 -5 0 -11 -13 -14 -30 -4 -18 -13 -30 -22 -30 -8 0 -15 -7 -15
-15 0 -23 -63 -145 -75 -145 -6 0 -17 -9 -25 -20 -8 -11 -19 -20 -25 -20 -6 0
-17 -9 -25 -21 -8 -12 -27 -35 -42 -51 -16 -17 -28 -34 -28 -38 0 -4 -12 -22
-27 -39 -16 -16 -39 -44 -53 -60 -16 -18 -28 -25 -32 -18 -4 6 -10 -2 -14 -18
-8 -31 -26 -55 -42 -55 -10 0 -51 -118 -53 -149 0 -11 -2 -12 -6 -3 -2 6 -15
12 -28 12 -13 0 -26 -6 -29 -12 -5 -10 -7 -10 -12 0 -3 7 -16 23 -28 36 -13
12 -26 34 -30 49 -3 15 -13 27 -21 27 -8 0 -15 5 -15 10 0 6 -6 10 -14 10 -8
0 -18 9 -21 20 -3 11 -11 20 -16 20 -5 0 -9 8 -9 18 0 11 -9 29 -20 42 -11 13
-25 40 -30 61 -6 21 -14 39 -19 41 -12 4 -81 144 -81 163 0 8 -7 15 -15 15 -8
0 -19 16 -25 38 -6 20 -21 57 -34 81 l-23 44 -6 -32 c-4 -17 -11 -31 -17 -31
-16 0 -35 -20 -55 -60 -30 -57 -65 -78 -79 -47 -5 10 -7 10 -12 0 -7 -15 -44
-17 -44 -3 0 6 -11 10 -25 10 -14 0 -25 5 -25 10 0 6 -18 10 -39 10 -31 0 -41
4 -46 20 -4 13 -15 20 -30 20 -15 0 -26 7 -30 20 -3 11 -15 20 -25 20 -10 0
-22 9 -25 20 -6 20 -35 28 -35 10 0 -5 -9 -10 -20 -10 -11 0 -20 5 -20 10 0 6
-9 10 -20 10 -11 0 -20 5 -20 10 0 6 -15 10 -33 10 -21 0 -38 7 -47 20 -8 11
-25 20 -37 20 -13 0 -23 5 -23 10 0 6 -7 10 -15 10 -8 0 -15 5 -15 10 0 6 -9
10 -20 10 -11 0 -20 5 -20 10 0 6 -6 10 -14 10 -8 0 -18 9 -21 20 -3 11 -15
20 -26 20 -10 0 -19 5 -19 10 0 6 -6 10 -14 10 -17 0 -28 24 -20 45 4 8 12 15
20 15 8 0 14 9 14 20 0 11 7 20 15 20 8 0 15 5 15 10 0 6 9 10 20 10 11 0 20
5 20 10 0 6 9 10 20 10 11 0 20 5 20 10 0 6 20 10 44 10 31 0 46 5 50 16 10
25 -5 95 -30 146 -27 54 -31 120 -9 158 8 14 14 35 15 48 0 24 21 52 39 52 5
0 13 9 16 20 3 11 13 20 21 20 8 0 14 5 14 10 0 6 6 10 13 10 7 0 19 9 27 20
8 11 22 20 32 20 10 0 18 5 18 10 0 6 35 10 84 10 76 0 85 -2 91 -20 4 -13 15
-20 31 -20 13 0 24 -4 24 -10 0 -5 11 -10 25 -10 14 0 25 -4 25 -10 0 -5 10
-10 23 -10 12 0 29 -9 37 -20 8 -11 22 -20 32 -20 10 0 18 -4 18 -10 0 -5 9
-10 20 -10 11 0 20 -4 20 -10 0 -5 7 -10 15 -10 8 0 15 -4 15 -10 0 -5 9 -10
20 -10 11 0 20 -4 20 -10 0 -5 5 -10 11 -10 7 0 21 -10 32 -22 13 -16 21 -19
24 -10 3 6 18 12 34 12 16 0 29 6 30 13 0 10 2 10 6 0 2 -8 22 -13 44 -13 21
0 39 -4 39 -10 0 -6 27 -10 60 -10 33 0 60 4 60 9 0 5 8 17 17 27 10 10 23 49
30 93 7 42 20 118 28 169 14 86 39 155 68 188 14 16 57 19 57 4z"/>
<path fill="#ffffff" stroke="000000" stroke-width="0.01" d="M27850 10460 c0 -5 25 -10 55 -10 30 0
55 -4 55 -10 0 -5 20 -10 45 -10 29 0 45 -4 45 -12 0 -10 2 -10 8 -1 6 9 12 7
22 -7 10 -14 26 -20 52 -20 21 0 38 -4 38 -10 0 -5 7 -10 15 -10 8 0 15 5 15
10 0 6 8 10 19 10 13 0 20 -9 25 -30 3 -16 11 -30 17 -30 6 0 24 -13 39 -30
15 -16 33 -30 39 -30 6 0 11 -4 11 -10 0 -5 8 -10 19 -10 11 0 23 -12 31 -30
7 -16 18 -30 26 -30 7 0 16 -9 19 -20 3 -11 13 -20 21 -20 8 0 14 -4 14 -10 0
-5 5 -10 11 -10 7 0 21 -10 32 -22 13 -16 21 -19 24 -10 5 14 63 17 63 2 0 -5
9 -10 20 -10 11 0 20 5 20 10 0 6 25 10 55 10 30 0 55 -4 55 -10 0 -5 7 -10
15 -10 8 0 15 -4 15 -10 0 -5 11 -10 25 -10 14 0 25 -4 25 -10 0 -5 7 -10 15
-10 8 0 15 -6 15 -12 0 -9 4 -8 11 2 8 11 12 12 16 3 2 -7 13 -13 24 -13 10 0
19 -4 19 -10 0 -5 9 -10 20 -10 12 0 32 -11 46 -25 20 -20 23 -29 14 -44 -15
-29 -13 -31 20 -31 17 0 30 -4 30 -8 0 -5 9 -19 19 -31 11 -13 22 -28 25 -34
5 -9 8 -9 12 1 7 14 54 16 54 2 0 -5 9 -10 19 -10 11 0 23 -9 26 -20 3 -11 15
-20 26 -20 10 0 19 -4 19 -10 0 -5 8 -10 18 -10 10 0 24 -9 32 -20 10 -14 26
-20 52 -20 21 0 38 5 38 10 0 6 7 10 15 10 8 0 15 -4 15 -10 0 -5 9 -10 21
-10 12 0 34 -13 49 -30 21 -23 37 -30 64 -30 20 0 36 -4 36 -10 0 -5 7 -10 15
-10 8 0 15 -4 15 -10 0 -5 17 -10 38 -10 26 0 42 -6 52 -20 16 -22 40 -27 41
-7 0 10 2 10 6 0 2 -7 16 -13 29 -13 13 0 24 -4 24 -10 0 -5 5 -10 11 -10 13
0 49 -38 49 -52 0 -4 6 -8 13 -8 7 0 19 -9 27 -20 8 -11 25 -20 38 -20 19 0
22 4 17 20 -7 22 2 60 14 60 9 0 51 -86 51 -104 0 -7 9 -23 20 -36 11 -13 20
-31 20 -42 0 -10 7 -18 16 -18 20 0 37 -17 59 -60 18 -35 39 -60 50 -60 10 0
75 -69 75 -80 0 -6 11 -22 25 -36 17 -17 24 -32 20 -45 -5 -16 -1 -19 22 -19
17 0 34 -8 43 -20 8 -11 20 -20 27 -20 7 0 13 -4 13 -10 0 -5 7 -10 15 -10 8
0 15 -4 15 -10 0 -5 7 -10 15 -10 8 0 15 -4 15 -10 0 -5 8 -10 18 -10 10 0 24
-9 32 -20 8 -11 22 -20 32 -20 10 0 18 -4 18 -10 0 -5 11 -10 25 -10 14 0 25
-4 25 -10 0 -5 5 -10 11 -10 16 0 39 -26 39 -44 0 -9 -4 -16 -10 -16 -5 0 -10
-4 -10 -10 0 -5 14 -10 30 -10 17 0 30 -4 30 -10 0 -5 6 -10 14 -10 8 0 18 -9
21 -20 3 -11 10 -20 14 -20 4 0 18 -22 31 -50 13 -27 27 -50 32 -50 4 0 8 -9
8 -19 0 -11 3 -21 8 -23 9 -4 50 -119 62 -173 5 -22 9 -57 10 -77 0 -40 -37
-128 -55 -128 -6 0 -17 -9 -25 -20 -9 -13 -26 -20 -47 -20 -18 0 -33 -4 -33
-10 0 -5 -9 -10 -20 -10 -11 0 -20 5 -20 10 0 6 -11 10 -25 10 -14 0 -25 -4
-25 -10 0 -5 -11 -10 -25 -10 -14 0 -25 -4 -25 -10 0 -5 -7 -10 -15 -10 -8 0
-15 -4 -15 -10 0 -5 -7 -10 -16 -10 -11 0 -14 -5 -10 -16 3 -8 -2 -23 -11 -32
-12 -12 -18 -13 -21 -4 -2 6 -15 12 -29 12 -22 0 -25 -3 -20 -27 5 -26 -6 -61
-23 -73 -8 -5 -40 -66 -40 -75 0 -3 11 -5 24 -5 28 0 40 -24 26 -50 -15 -27
-13 -30 20 -30 17 0 30 -4 30 -10 0 -5 7 -10 15 -10 9 0 26 -10 39 -23 27 -27
28 -76 3 -101 -11 -12 -14 -26 -10 -46 4 -23 2 -30 -11 -30 -9 0 -16 -4 -16
-10 0 -5 -7 -10 -15 -10 -8 0 -15 -2 -15 -4 0 -2 -3 -11 -6 -20 -5 -12 0 -16
20 -16 14 0 26 -4 26 -10 0 -5 6 -10 14 -10 19 0 28 -28 16 -50 -13 -25 -13
-30 5 -30 8 0 15 -7 15 -16 0 -18 -23 -44 -39 -44 -16 0 -13 -29 3 -46 8 -8
22 -14 30 -14 9 0 16 -4 16 -10 0 -5 11 -10 25 -10 20 0 27 -6 32 -30 3 -16
10 -30 16 -30 11 0 47 -39 47 -52 0 -4 8 -8 18 -8 21 0 37 -29 47 -84 10 -49
-13 -170 -36 -197 -10 -12 -21 -31 -24 -43 -12 -41 -38 -96 -47 -96 -4 0 -8
-9 -8 -20 0 -11 -6 -20 -14 -20 -8 0 -18 -9 -21 -20 -3 -11 -13 -20 -21 -20
-8 0 -14 -4 -14 -9 0 -5 -13 -23 -29 -40 -24 -26 -36 -31 -75 -31 -25 0 -46
-4 -46 -10 0 -5 5 -10 10 -10 6 0 10 -8 10 -18 0 -11 9 -29 20 -42 11 -13 20
-27 20 -32 0 -4 7 -8 15 -8 8 0 15 -4 15 -10 0 -5 7 -10 15 -10 8 0 15 -9 15
-20 0 -11 7 -20 15 -20 8 0 15 -2 15 -4 0 -2 3 -11 6 -20 3 -9 1 -16 -6 -16
-20 0 -40 -27 -40 -54 0 -15 6 -26 13 -26 7 0 19 -9 27 -20 8 -11 20 -20 27
-20 7 0 13 -4 13 -10 0 -5 9 -10 20 -10 13 0 20 -7 20 -20 0 -18 -7 -20 -55
-20 -30 0 -55 -4 -55 -10 0 -15 -50 -12 -51 3 0 6 -5 2 -11 -10 -6 -13 -17
-23 -25 -23 -7 0 -13 -4 -13 -10 0 -5 -11 -20 -25 -34 -14 -14 -25 -37 -25
-51 0 -17 -5 -25 -18 -25 -10 0 -24 -9 -32 -20 -8 -12 -26 -20 -42 -20 -15 0
-28 -4 -28 -10 0 -5 -9 -10 -20 -10 -11 0 -20 -4 -20 -10 0 -5 -22 -10 -49
-10 -46 0 -49 -2 -54 -30 -5 -21 -12 -30 -26 -30 -11 0 -23 -9 -26 -20 -3 -11
-12 -20 -20 -20 -8 0 -17 -9 -20 -20 -3 -11 -13 -20 -21 -20 -8 0 -14 -4 -14
-10 0 -5 -8 -10 -18 -10 -10 0 -24 -9 -32 -20 -10 -14 -26 -20 -52 -20 -24 0
-38 -5 -38 -12 0 -9 -4 -8 -11 2 -8 11 -12 12 -16 3 -2 -7 -16 -13 -29 -13
-13 0 -24 -4 -24 -10 0 -5 -13 -10 -30 -10 -16 0 -30 5 -30 10 0 6 -20 10 -45
10 -25 0 -45 5 -45 10 0 15 -19 12 -36 -4 -16 -16 -9 -46 11 -46 8 0 17 -9 20
-20 3 -11 13 -26 21 -34 18 -19 -1 -66 -26 -66 -10 0 -23 -13 -30 -30 -7 -16
-16 -30 -21 -30 -4 0 -11 -9 -14 -20 -3 -11 -15 -20 -26 -20 -12 0 -19 -7 -19
-20 0 -11 -4 -20 -10 -20 -5 0 -10 -16 -10 -36 0 -35 -14 -73 -32 -85 -11 -7
-15 -119 -5 -139 4 -8 2 -22 -4 -30 -8 -11 -12 -12 -16 -2 -2 6 -11 12 -19 12
-8 0 -14 5 -14 10 0 6 -13 10 -30 10 -16 0 -30 5 -30 10 0 15 -77 12 -84 -2
-5 -10 -7 -10 -12 0 -7 14 -54 16 -54 2 0 -5 -22 -10 -50 -10 -27 0 -50 -4
-50 -8 0 -18 -38 -52 -59 -52 -11 0 -21 -6 -21 -12 0 -9 -4 -8 -10 2 -6 10
-10 11 -10 3 0 -7 -9 -13 -20 -13 -11 0 -20 -4 -20 -10 0 -5 -18 -10 -40 -10
-22 0 -40 -4 -40 -10 0 -5 -16 -10 -35 -10 -19 0 -35 -4 -35 -10 0 -5 -10 -10
-21 -10 -12 0 -31 -10 -42 -23 -13 -15 -21 -18 -24 -9 -3 6 -18 12 -34 12 -16
0 -29 5 -29 10 0 6 -13 10 -30 10 -16 0 -30 5 -30 10 0 6 -6 10 -13 10 -7 0
-19 9 -27 20 -8 11 -20 20 -27 20 -7 0 -13 5 -13 10 0 6 -5 10 -11 10 -13 0
-69 58 -69 71 0 5 -7 9 -15 9 -8 0 -15 4 -15 9 0 5 -12 22 -27 39 -16 16 -35
40 -43 52 -8 12 -21 28 -27 36 -7 7 -13 18 -13 24 0 12 -24 40 -35 40 -11 0
-55 49 -55 61 0 6 -8 19 -19 28 -10 9 -28 36 -41 60 -12 25 -29 51 -36 59 -8
7 -14 17 -14 22 0 4 -13 22 -29 39 -17 18 -33 41 -36 51 -7 22 12 100 24 100
4 0 14 12 21 28 13 27 19 50 39 145 6 27 18 69 26 94 9 25 13 48 10 51 -5 5
-28 -19 -55 -58 -26 -37 -47 -60 -56 -60 -5 0 -16 -9 -24 -20 -8 -11 -25 -20
-37 -20 -13 0 -23 -4 -23 -10 0 -5 -15 -25 -34 -44 -70 -70 -91 -135 -95 -303
-1 -42 -2 -43 -36 -43 -19 0 -35 4 -35 8 0 5 -8 18 -17 30 -10 11 -25 30 -33
41 -8 12 -20 21 -27 21 -6 0 -15 9 -18 20 -3 11 -10 20 -15 20 -5 0 -12 9 -15
20 -3 11 -13 20 -21 20 -8 0 -14 4 -14 8 0 17 -37 52 -54 52 -24 0 -47 26 -40
44 3 9 1 16 -4 16 -6 0 -13 8 -17 19 -3 10 -15 29 -25 42 -12 13 -18 30 -14
41 4 13 0 18 -14 18 -24 0 -32 17 -25 52 3 15 -2 31 -11 41 -20 20 -20 27 0
27 12 0 14 5 9 18 -5 9 -8 26 -7 37 1 37 -8 65 -22 65 -13 0 -36 40 -36 65 0
7 -6 20 -13 27 -7 7 -18 22 -25 33 -6 11 -12 14 -12 8 0 -8 -14 -13 -34 -13
-26 0 -36 -5 -41 -20 -5 -16 -15 -20 -50 -20 -35 0 -45 4 -50 20 -3 11 -12 20
-18 20 -7 0 -19 9 -27 20 -8 11 -22 20 -32 20 -10 0 -18 5 -18 10 0 6 -11 10
-25 10 -14 0 -25 5 -25 10 0 6 -6 10 -14 10 -8 0 -18 9 -21 20 -4 13 -15 20
-31 20 -13 0 -24 4 -24 8 0 13 36 52 46 52 5 0 16 9 24 20 8 11 22 20 32 20
10 0 18 5 18 10 0 6 5 10 11 10 16 0 39 26 39 44 0 9 7 16 15 16 8 0 15 5 15
10 0 6 14 10 30 10 17 0 30 5 30 10 0 6 8 10 18 10 10 0 24 9 32 20 8 11 25
20 37 20 13 0 23 5 23 10 0 6 9 10 21 10 32 0 49 25 49 70 0 23 5 50 10 61 11
20 1 50 -27 77 -7 7 -13 22 -13 32 0 10 -7 26 -16 35 -19 19 -11 65 11 65 8 0
15 5 15 10 0 6 37 10 90 10 53 0 90 4 90 10 0 6 18 10 40 10 22 0 40 -4 40
-10 0 -5 7 -10 15 -10 8 0 15 3 15 6 0 8 -27 34 -35 34 -11 0 -32 25 -49 59
-10 18 -42 57 -72 87 -30 30 -54 63 -54 74 0 11 -4 20 -9 20 -5 0 -14 14 -21
30 -7 17 -16 30 -21 30 -4 0 -10 8 -14 19 -3 10 -15 29 -26 42 -16 18 -20 33
-16 61 3 20 1 38 -4 40 -23 8 -46 155 -49 313 -2 135 4 195 25 248 5 12 2 17
-8 17 -11 0 -18 14 -22 48 -3 26 -8 57 -11 70 -4 18 0 22 21 22 14 0 25 5 25
10 0 6 9 10 20 10 13 0 20 7 20 20 0 11 -4 20 -10 20 -5 0 -10 -4 -10 -10 0
-5 -11 -10 -24 -10 -26 0 -39 20 -30 45 4 10 0 15 -16 15 -17 0 -20 4 -16 20
3 11 9 29 12 40 4 14 1 20 -10 20 -9 0 -16 5 -16 10 0 6 -7 10 -15 10 -10 0
-15 10 -15 33 0 111 -3 127 -22 127 -15 0 -17 5 -12 26 4 16 2 29 -5 33 -13 8
-5 41 10 41 5 0 9 5 9 10 0 6 -8 10 -18 10 -21 0 -62 77 -62 115 0 16 -6 25
-15 25 -8 0 -15 2 -15 4 0 2 -3 11 -6 19 -3 8 3 22 12 32 12 12 14 19 6 24 -7
4 -15 28 -18 54 -6 40 -4 47 11 47 12 0 15 5 10 18 -4 9 -10 27 -12 40 -3 12
-11 22 -18 22 -13 0 -33 82 -40 170 -4 49 10 116 26 130 13 11 30 51 24 59 -8
14 16 61 32 61 12 0 14 5 17 40 3 38 49 160 60 160 14 0 36 41 36 65 0 8 5 15
10 15 6 0 10 7 10 15 0 22 37 93 63 121 35 37 44 49 62 84 20 39 39 60 54 60
5 0 13 9 16 20 3 11 13 20 21 20 8 0 14 5 14 10 0 6 11 10 25 10 17 0 25 5 25
18 0 10 9 24 20 32 11 8 20 20 20 28 0 14 24 42 36 42 9 0 44 41 44 52 0 4 7
8 15 8 8 0 15 -4 15 -10 0 -5 16 -10 35 -10 19 0 35 5 35 10 0 6 11 10 25 10
14 0 25 5 25 10 0 6 14 10 30 10 17 0 30 5 30 10 0 6 5 10 10 10 6 0 10 -4 10
-10z"/>
<path fill="#ffffff" stroke="000000" stroke-width="0.01" d="M25464 8478 c5 -10 7 -10 12 0 7 14 94
17 94 2 0 -5 15 -10 33 -10 21 0 38 -7 47 -20 11 -15 26 -20 62 -20 26 0 48
-4 48 -10 0 -5 11 -10 25 -10 14 0 25 -4 25 -10 0 -5 23 -10 50 -10 28 0 50
-4 50 -10 0 -5 11 -10 25 -10 14 0 25 -4 25 -10 0 -5 6 -10 13 -10 7 0 19 -9
27 -20 8 -11 20 -20 27 -20 7 0 13 -4 13 -10 0 -5 7 -10 15 -10 8 0 15 -4 15
-10 0 -5 7 -10 15 -10 8 0 15 -4 15 -10 0 -5 7 -10 15 -10 8 0 15 -4 15 -10 0
-5 6 -10 13 -10 7 0 19 -9 27 -20 8 -11 20 -20 27 -20 7 0 16 -12 19 -27 4
-15 13 -34 21 -41 7 -7 13 -27 13 -43 0 -24 -4 -29 -25 -29 -14 0 -25 -4 -25
-10 0 -5 -13 -10 -30 -10 -16 0 -30 -4 -30 -10 0 -5 -11 -10 -25 -10 -14 0
-25 -4 -25 -10 0 -5 -13 -10 -30 -10 -16 0 -30 5 -30 10 0 6 -42 10 -105 10
-63 0 -105 4 -105 10 0 6 -11 10 -25 10 -14 0 -25 5 -25 10 0 6 -13 10 -30 10
-17 0 -30 5 -31 13 0 10 -2 10 -6 0 -6 -15 -43 -17 -43 -3 0 6 -37 10 -90 10
-49 0 -90 4 -90 8 0 13 -36 52 -47 52 -10 0 -63 104 -63 125 0 9 -10 15 -24
15 -16 0 -27 7 -31 21 -9 27 13 79 33 79 19 0 44 29 67 80 18 40 38 51 49 28z"/>
<path fill="#ffffff" stroke="000000" stroke-width="0.01" d="M24960 7460 c0 -5 25 -10 55 -10 30 0
55 -4 55 -10 0 -5 7 -10 15 -10 8 0 15 -4 15 -10 0 -5 5 -10 11 -10 7 0 21
-10 32 -22 13 -16 21 -19 24 -10 3 6 11 12 18 12 7 0 16 -6 19 -12 5 -10 7
-10 12 0 9 20 52 14 59 -8 3 -11 11 -20 16 -20 34 0 54 -62 33 -101 -19 -38
-18 -39 16 -39 17 0 30 5 30 10 0 15 47 12 53 -2 3 -7 6 -3 6 10 1 18 7 22 36
22 19 0 35 4 35 8 0 26 40 52 79 52 34 0 41 3 41 20 0 15 7 20 29 20 30 0 41
14 41 56 0 20 5 24 30 24 17 0 30 5 30 10 0 6 32 10 75 10 43 0 75 -4 75 -10
0 -5 7 -10 15 -10 8 0 15 -4 15 -10 0 -5 20 -10 45 -10 25 0 45 -4 45 -10 0
-5 16 -10 35 -10 19 0 35 -4 35 -10 0 -5 7 -10 15 -10 8 0 15 -7 15 -16 0 -22
25 -44 49 -44 12 0 21 -4 21 -10 0 -6 27 -10 60 -10 33 0 60 4 60 10 0 6 33
10 80 10 47 0 80 -4 80 -10 0 -5 9 -10 20 -10 11 0 20 -6 20 -12 0 -9 4 -8 10
2 6 10 10 11 10 3 0 -8 13 -13 30 -13 17 0 30 -4 30 -10 0 -5 7 -10 15 -10 8
0 15 -4 15 -10 0 -5 7 -10 15 -10 8 0 15 -4 15 -10 0 -5 13 -10 28 -10 16 0
34 -8 42 -20 8 -11 22 -20 32 -20 10 0 18 -4 18 -10 0 -5 6 -10 14 -10 17 0
28 -24 20 -45 -5 -11 -21 -15 -60 -15 -30 0 -54 -4 -54 -10 0 -5 -9 -10 -20
-10 -11 0 -20 -4 -20 -10 0 -5 -18 -10 -40 -10 -25 0 -40 -5 -41 -12 0 -10 -2
-10 -6 0 -2 6 -13 12 -23 12 -10 0 -21 6 -24 13 -5 10 -7 10 -12 0 -14 -31
-74 8 -74 49 0 13 -7 18 -29 18 -16 0 -32 -6 -34 -12 -3 -7 -6 -3 -6 10 -1 12
-7 22 -16 22 -8 0 -15 6 -16 13 0 10 -2 10 -6 0 -2 -7 -13 -13 -23 -13 -10 0
-21 -6 -23 -12 -4 -10 -8 -10 -15 1 -9 12 -13 12 -28 -3 -13 -13 -14 -20 -5
-25 15 -10 3 -41 -15 -41 -22 0 -16 -28 11 -55 15 -16 36 -25 55 -25 16 0 30
-4 30 -10 0 -5 11 -10 25 -10 18 0 25 -5 25 -20 0 -15 -7 -20 -29 -20 -16 0
-32 -6 -35 -12 -5 -10 -7 -10 -12 0 -6 12 -54 18 -54 6 0 -3 7 -12 15 -20 24
-24 18 -34 -20 -34 -19 0 -35 5 -35 10 0 6 -5 10 -11 10 -7 0 -8 -7 -4 -17 17
-41 18 -63 1 -63 -9 0 -16 -4 -16 -10 0 -5 -18 -10 -40 -10 -22 0 -40 -4 -40
-10 0 -5 -7 -10 -15 -10 -8 0 -15 -4 -15 -10 0 -5 -7 -10 -15 -10 -8 0 -15 -4
-15 -10 0 -5 -11 -10 -25 -10 -14 0 -25 -4 -25 -10 0 -5 -17 -10 -38 -10 -26
0 -42 -6 -52 -20 -8 -11 -21 -20 -30 -20 -9 0 -22 9 -30 20 -8 11 -19 20 -25
20 -6 0 -17 9 -25 20 -8 11 -20 20 -27 20 -21 0 -119 104 -127 133 -3 15 -13
27 -22 27 -9 0 -29 14 -44 30 -29 31 -73 40 -84 18 -5 -10 -7 -10 -12 0 -3 6
-14 12 -25 12 -10 0 -19 5 -19 10 0 6 -9 10 -20 10 -11 0 -20 5 -20 10 0 6 -7
10 -15 10 -8 0 -15 5 -15 10 0 6 -6 10 -14 10 -8 0 -18 9 -21 20 -3 11 -10 20
-15 20 -4 0 -6 18 -3 40 4 32 2 40 -10 40 -18 0 -29 24 -21 45 5 12 -5 15 -60
15 -37 0 -66 4 -66 10 0 6 -9 10 -21 10 -30 0 -78 58 -64 79 10 18 -7 41 -31
41 -13 0 -24 5 -24 10 0 6 -10 10 -23 10 -12 0 -29 9 -37 20 -8 11 -20 20 -27
20 -7 0 -13 5 -13 10 0 6 -7 10 -15 10 -17 0 -18 2 -9 24 7 18 94 23 94 6z"/>
<path fill="#ffffff" stroke="000000" stroke-width="0.01" d="M32470 6460 c0 -5 7 -10 15 -10 8 0 15
-4 15 -10 0 -5 7 -10 15 -10 8 0 15 5 15 10 0 6 9 10 20 10 11 0 20 5 20 10 0
6 11 10 25 10 14 0 25 -4 25 -10 0 -5 9 -10 19 -10 20 0 35 -25 25 -41 -3 -6
-3 -21 0 -35 5 -19 13 -24 36 -24 17 0 30 5 30 10 0 6 7 10 15 10 8 0 15 -4
15 -10 0 -5 7 -10 15 -10 8 0 15 5 15 10 0 6 5 10 11 10 6 0 8 -9 4 -20 -5
-16 -2 -20 19 -20 14 0 26 5 26 10 0 6 7 10 15 10 8 0 15 -4 15 -10 0 -5 16
-10 35 -10 19 0 35 -4 35 -10 0 -5 14 -10 30 -10 17 0 30 -4 30 -10 0 -5 6
-10 14 -10 8 0 18 -9 21 -21 4 -11 35 -49 69 -83 35 -34 66 -75 70 -89 3 -15
11 -27 16 -27 13 0 32 -77 25 -100 -3 -11 -23 -37 -43 -59 -59 -63 -72 -83
-72 -112 0 -15 6 -34 13 -41 9 -9 13 -38 12 -90 l-2 -78 44 0 c23 0 43 5 43
10 0 17 22 11 41 -12 11 -11 19 -34 19 -50 0 -15 5 -28 10 -28 6 0 10 5 10 10
0 6 11 10 24 10 16 0 27 7 31 20 4 14 15 20 36 20 16 0 29 5 29 10 0 15 30 12
31 -2 0 -10 2 -10 6 0 2 6 13 12 24 12 10 0 19 5 19 10 0 6 9 10 20 10 11 0
20 5 20 10 0 6 11 10 25 10 14 0 25 5 25 10 0 6 7 10 15 10 8 0 15 -4 15 -10
0 -5 14 -10 30 -10 26 0 31 -5 37 -30 5 -29 8 -30 59 -30 30 0 54 -4 54 -10 0
-5 7 -10 15 -10 8 0 15 5 15 10 0 6 9 10 20 10 11 0 20 -4 20 -10 0 -5 6 -10
13 -10 15 0 37 -41 37 -67 0 -23 23 -87 34 -94 5 -4 6 -23 3 -43 -4 -23 -2
-36 5 -36 26 0 57 -55 78 -137 6 -23 16 -48 23 -55 21 -20 37 -100 37 -177 0
-39 4 -71 9 -71 5 0 11 -13 15 -30 4 -21 11 -30 26 -30 11 0 20 6 20 13 1 6 7
1 15 -13 8 -14 14 -19 15 -12 0 14 30 17 30 2 0 -5 16 -10 35 -10 19 0 35 -4
35 -10 0 -5 9 -10 19 -10 11 0 23 -9 26 -20 7 -21 25 -28 25 -10 0 6 16 10 35
10 19 0 35 5 35 10 0 6 7 10 15 10 8 0 15 5 15 10 0 6 25 10 56 10 l57 0 -6
-44 c-4 -24 -15 -64 -26 -88 -34 -76 -51 -145 -51 -213 0 -50 -6 -77 -25 -115
-26 -50 -32 -80 -17 -80 30 0 60 -177 38 -222 -6 -14 -4 -18 12 -18 37 0 54
-83 34 -165 -14 -58 -22 -75 -38 -75 -8 0 -14 -2 -14 -5 0 -10 49 -55 60 -55
6 0 10 -37 11 -97 0 -166 24 -303 58 -332 24 -21 28 -65 10 -105 -9 -19 -9
-39 1 -84 17 -82 9 -102 -41 -102 -21 0 -39 -4 -39 -10 0 -5 -9 -10 -20 -10
-11 0 -20 -4 -20 -10 0 -5 -8 -10 -18 -10 -10 0 -24 -9 -32 -20 -8 -11 -20
-20 -27 -20 -7 0 -13 -4 -13 -10 0 -5 -9 -10 -20 -10 -11 0 -20 -4 -20 -10 0
-5 -16 -10 -35 -10 -19 0 -35 -4 -35 -10 0 -5 -16 -10 -35 -10 -19 0 -35 -4
-35 -10 0 -5 -7 -10 -15 -10 -8 0 -15 -4 -15 -10 0 -15 -97 -13 -103 3 -3 8
-11 5 -24 -10 -13 -15 -32 -23 -52 -23 -27 0 -31 -3 -31 -28 0 -16 -9 -39 -20
-52 -11 -13 -20 -26 -20 -30 0 -4 -9 -17 -20 -30 -11 -13 -20 -18 -20 -12 0
16 -27 15 -34 0 -5 -10 -7 -10 -12 0 -7 14 -34 16 -34 2 0 -5 -13 -10 -30 -10
-16 0 -30 5 -30 10 0 6 -7 10 -15 10 -8 0 -15 5 -15 10 0 6 -5 10 -11 10 -9 0
-36 26 -78 76 -6 7 -11 18 -11 24 0 6 -5 16 -10 23 -39 46 -50 61 -50 69 0 16
-19 8 -25 -12 -3 -11 -11 -20 -17 -20 -12 0 -48 -39 -48 -52 0 -4 -9 -8 -20
-8 -11 0 -20 5 -20 10 0 6 -6 10 -14 10 -7 0 -19 14 -26 30 -7 17 -19 30 -26
30 -8 0 -14 5 -14 10 0 6 -4 10 -10 10 -5 0 -7 -6 -4 -14 14 -36 31 -141 26
-160 -6 -24 -26 -46 -41 -46 -6 0 -11 -4 -11 -10 0 -5 -18 -10 -40 -10 -22 0
-40 -4 -40 -10 0 -5 -7 -10 -15 -10 -8 0 -15 5 -15 10 0 6 -9 10 -20 10 -11 0
-20 5 -20 10 0 6 -7 10 -15 10 -8 0 -15 5 -15 10 0 6 -7 10 -15 10 -8 0 -15 5
-15 10 0 6 -33 10 -78 10 -66 0 -80 3 -92 20 -8 11 -18 20 -23 20 -4 0 -30 23
-57 50 -27 28 -53 50 -59 50 -5 0 -13 9 -16 20 -3 11 -13 20 -21 20 -8 0 -14
5 -14 10 0 6 -7 10 -15 10 -8 0 -15 4 -15 8 0 14 -36 52 -49 52 -6 0 -11 5
-11 10 0 6 -13 10 -29 10 -16 0 -32 6 -34 13 -3 6 -6 2 -6 -10 -1 -19 -7 -23
-35 -23 -19 0 -37 -6 -40 -12 -5 -10 -7 -10 -12 0 -3 6 -17 12 -30 12 -27 0
-137 103 -149 140 -6 19 -7 19 -31 -5 -13 -13 -24 -31 -24 -40 0 -11 -11 -15
-39 -15 -31 0 -41 4 -46 20 -5 16 -15 20 -56 20 -27 0 -49 5 -49 10 0 6 -7 10
-15 10 -8 0 -15 5 -15 10 0 6 -6 10 -13 10 -7 0 -19 9 -27 20 -8 11 -20 20
-27 20 -6 0 -15 9 -18 20 -3 11 -15 20 -26 20 -10 0 -19 5 -19 10 0 6 -9 10
-20 10 -11 0 -20 5 -20 10 0 6 -11 10 -25 10 -14 0 -25 5 -25 10 0 6 -11 10
-25 10 -14 0 -25 5 -25 10 0 6 -6 10 -13 10 -7 0 -19 9 -27 20 -8 11 -22 20
-32 20 -10 0 -18 5 -18 10 0 6 -9 10 -20 10 -11 0 -20 5 -20 10 0 6 -11 10
-25 10 -14 0 -25 -4 -25 -10 0 -5 -23 -10 -51 -10 -40 0 -56 5 -70 22 -11 11
-19 25 -19 30 0 4 -7 8 -15 8 -8 0 -15 4 -15 9 0 5 -12 23 -27 39 -40 44 -63
75 -63 84 0 4 -6 8 -14 8 -8 0 -18 9 -21 20 -3 11 -10 20 -15 20 -5 0 -12 9
-15 20 -3 11 -11 20 -17 20 -5 0 -23 14 -38 30 -15 17 -35 30 -44 30 -9 0 -16
4 -16 8 0 11 -35 52 -44 52 -3 0 -6 -9 -6 -20 0 -13 -7 -20 -20 -20 -11 0 -20
-4 -20 -10 0 -5 -13 -10 -30 -10 -16 0 -30 5 -30 10 0 6 -7 10 -15 10 -8 0
-15 5 -15 10 0 6 -11 10 -25 10 -18 0 -25 5 -25 20 0 11 -6 20 -13 20 -7 0
-19 9 -27 20 -8 11 -22 20 -32 20 -10 0 -18 5 -18 10 0 6 -7 10 -15 10 -8 0
-15 5 -15 10 0 6 -7 10 -15 10 -8 0 -15 5 -15 10 0 6 -7 10 -15 10 -8 0 -15 5
-15 10 0 6 -9 10 -20 10 -11 0 -20 5 -20 10 0 6 -7 10 -15 10 -8 0 -15 5 -15
10 0 6 -7 10 -15 10 -8 0 -15 5 -15 10 0 6 -7 10 -15 10 -8 0 -18 12 -21 28
-4 15 -15 34 -24 42 -31 27 -58 95 -66 161 -8 78 -33 129 -61 129 -5 0 -15 9
-23 20 -8 11 -20 20 -27 20 -7 0 -13 5 -13 10 0 6 -5 10 -11 10 -13 0 -32 19
-48 47 -14 28 -18 142 -4 151 5 4 16 28 24 55 7 26 17 47 21 47 3 0 10 9 13
20 3 11 15 20 26 20 10 0 19 5 19 10 0 6 14 10 30 10 17 0 30 -4 30 -10 0 -5
7 -10 15 -10 8 0 15 -4 15 -10 0 -5 7 -10 15 -10 8 0 15 5 15 10 0 6 7 10 15
10 8 0 15 -4 15 -10 0 -5 18 -10 40 -10 22 0 40 5 40 10 0 6 8 10 18 10 21 0
42 38 42 75 0 16 6 25 15 25 8 0 15 5 15 10 0 6 14 10 30 10 17 0 30 -4 30
-10 0 -5 7 -10 15 -10 8 0 15 -4 15 -10 0 -5 18 -10 39 -10 31 0 41 -4 46 -20
3 -11 15 -20 25 -20 10 0 22 -9 25 -20 3 -11 15 -20 26 -20 10 0 19 -4 19 -10
0 -5 13 -10 28 -10 16 0 34 -8 42 -20 8 -11 22 -20 32 -20 10 0 18 -4 18 -10
0 -5 7 -10 15 -10 8 0 15 -4 15 -10 0 -5 5 -10 11 -10 6 0 8 9 4 20 -5 14 -2
20 9 20 11 0 16 9 16 29 0 16 7 37 15 45 14 13 14 24 5 68 -16 72 -15 96 4
148 20 51 18 134 -5 190 -19 47 -33 60 -63 60 -14 0 -26 2 -26 4 0 2 -3 11 -6
20 -5 12 0 16 20 16 24 0 26 3 24 38 -5 84 2 139 21 160 10 12 23 22 30 22 6
0 11 5 11 10 0 6 22 10 50 10 45 0 50 2 55 25 3 14 7 36 10 50 3 14 12 25 20
25 8 0 15 5 15 10 0 6 14 10 30 10 17 0 30 5 30 10 0 6 15 10 34 10 28 0 36 5
46 30 7 17 18 30 25 30 6 0 22 23 35 50 18 39 29 50 47 50 13 0 23 5 23 10 0
6 7 10 15 10 8 0 15 5 15 10 0 6 9 10 20 10 11 0 20 -4 20 -10 0 -5 8 -10 18
-10 10 0 24 -9 32 -20 8 -11 20 -20 27 -20 7 0 13 -4 13 -10 0 -6 26 -10 58
-10 46 0 60 4 72 20 11 15 26 20 57 20 46 0 48 2 33 31 -8 13 -7 25 1 41 6 11
13 51 15 87 9 168 33 286 64 324 24 28 46 57 60 77 8 12 23 31 33 42 9 12 17
25 17 30 0 4 11 8 25 8 14 0 25 5 25 10 0 6 7 10 15 10 8 0 15 5 15 10 0 6 6
10 14 10 8 0 18 9 21 20 5 16 15 20 51 20 24 0 44 -4 44 -10z"/>
</g>
</svg>
